<svg xmlns="http://www.w3.org/2000/svg" xmlns:xlink="http://www.w3.org/1999/xlink" xmlns:inkscape="http://www.inkscape.org/namespaces/inkscape" version="1.1" width="612" height="792" viewBox="0 0 612 792">
<text xml:space="preserve" transform="matrix(1 0 -0 1 0 792)" font-size="10.9091" font-family="LMRoman10"><tspan y="-709.041" x="72">&#x2022;</tspan></text>
<text xml:space="preserve" transform="matrix(.9969955 0 -0 1.0030136 0 792)" font-size="10.876323" font-family="LMRoman10"><tspan y="-706.91067" x="86.19898 89.2226 92.246219 101.3062 104.32982 108.56071 113.40067 123.10235 127.36587 132.20583 137.04579 141.29842 146.13838 151.57656 155.80745 158.83107 164.26923 173.97092 179.40908 188.46906 193.30902 199.35626 202.37987 206.61077 209.63439 214.47435 222.41407 226.64496 231.48493 234.50853 239.9467 242.97032 249.64836 255.6956 258.71925 263.00453 271.48805 276.92619 282.36436 285.38795 288.7161 295.39414 298.7223 304.16044 308.42396 313.26393 317.5492 325.4345 330.87266 336.31083 339.3344 342.66258 349.3406 355.38786 358.41145 364.15415 367.17774 373.22499 382.31758 385.64573 391.08387 395.9238 398.94743 401.97105 404.99464 409.22554 412.24916 417.08909 421.37437 429.2488 434.68699 440.7342 443.7578 453.15495 461.00764 467.05485 471.8948 476.15834 484.6527 488.88359 494.93083 499.77076 509.16789 513.4314 518.26046 527.32046 532.7586 535.7822">limitedrecreationamenities(e.g.,discgolf,forestgolf,bikingfacilities)onlywheretheyremain</tspan></text>
<text xml:space="preserve" transform="matrix(1.0099504 0 -0 .99014756 0 792)" font-size="11.017651" font-family="LMRoman10"><tspan y="-702.41256" x="85.09329 89.99615 95.50497 104.68267 110.80849 116.317317 120.60318 123.66609 129.79192 132.85482 142.8919 150.84665 153.90955 158.1954 169.45546 174.96428 181.0901 184.153 193.3307 198.83954 207.04769 214.69393 219.59679 222.6597 226.0311 231.53993 235.85884 245.89594 251.40477 257.53059 268.80165 274.92747 285.5705 291.6963 297.2051 306.6252 311.52806 315.847 320.74983 326.25865 330.54454 340.58158 346.7074 352.8332 362.0109 367.5197 373.6455 379.15434 384.66316 389.56599 400.82603 405.14497 408.20787 412.54884 418.36616 426.9489 431.85176 437.66908 441.95497 446.2739 451.78269 456.68556 460.9714 464.03434 469.54313 475.66896 484.2517 489.76054 499.2247 508.40238 511.4653 515.8063 520.1472 523.21017 528.71896">compatiblewithanimalwelfareanddonotcreateunmanagedrisk,extraction,ormission</tspan></text>
<text xml:space="preserve" transform="matrix(1 0 -0 1 0 792)" font-size="10.9091" font-family="LMRoman10"><tspan y="-681.943" x="85.94 88.97273 94.732738 100.18728 105.041828 109.31819 113.61638 116.64911 122.10366 128.16912">inversion.</tspan></text>
<text xml:space="preserve" transform="matrix(1 0 -0 1 0 792)" font-size="10.9091" font-family="LMRoman10" font-weight="bold"><tspan y="-653.132" x="72 78.272739 81.75274 88.025478 91.50548">4.1.4</tspan></text>
<text xml:space="preserve" transform="matrix(1 0 -0 1 0 792)" font-size="10.9091" font-family="LMRoman10" font-weight="bold"><tspan y="-653.132" x="107.192768 116.607318 120.08732 127.058238 137.50916 143.78189 152.83644 161.9019 168.17464 178.62555 188.72737 195.69829 202.6692 206.1492 210.67649 221.4874 228.45832 233.62923 239.90196 246.1747 251.34561 257.4438 267.8947 277.02565 281.902 288.87294 293.7493 298.92024 302.40025 307.9748 312.85118 316.33119 327.1312 334.4512 340.72395 347.69486 354.66578 361.6367 367.38578 374.3567 382.0258 386.97853 392.7276 399.69853 405.7967 410.9676 417.06578 424.03669 427.5167 433.26579 440.92399 445.8767 451.97489 455.804 461.55308 466.08036 472.70219 476.88038 480.3658 483.8513 489.02223 493.97496 498.85133">Ring4:Communityprograms(Strictlybounded,separable,safety-first)</tspan></text>
<text xml:space="preserve" transform="matrix(1.0004999 0 -0 .9995003 0 792)" font-size="10.914554" font-family="LMRoman10"><tspan y="-632.8552" x="71.560237 83.38069 89.7548 95.212078 101.28056 107.34906 113.41755 118.27453 127.98849 132.28882 137.1458 145.02611 150.48339 157.4687 162.31476 167.77204 176.86386 185.661 191.72948 197.79798 200.83223 204.77239 210.53527 214.16982 217.50968 222.96695 227.82393 230.85817 236.92668 246.01851 252.09793 256.3655 261.82279 267.28004 271.55854 277.0158 286.10765 294.05345 303.14527 308.2969 317.69435 322.55134 328.3142 331.34849 335.6488 343.54005 351.42036 357.48887 362.34584 366.62434 375.11585 379.41618 384.87345 388.2133 393.07029 397.01045 406.4188 411.87608 417.94456 427.64759 433.10487 439.47898 444.33595 448.61445 454.07173 458.31748 461.3517 466.809 472.8775 478.33476 485.00355 489.3039 494.16087 500.22938 505.6866 509.96513 515.4224 521.4909 524.52517 527.5594 530.5937 534.5447">Aboundedsetofcommunity-facingprogramsmayexistwheresafetyandoperationalseparability</tspan></text>
<text xml:space="preserve" transform="matrix(1 0 -0 1 0 792)" font-size="10.9091" font-family="LMRoman10"><tspan y="-618.99" x="72 76.85455 82.309108 92.00729 98.37821 106.865489 112.93095 117.20731 122.06186 126.36005 131.2146 135.49097 140.95644 145.81099 151.87645">canbepreserved:</tspan></text>
<text xml:space="preserve" transform="matrix(1 0 -0 1 0 792)" font-size="10.9091" font-family="LMRoman10"><tspan y="-592.68899" x="72">&#x2022;</tspan></text>
<text xml:space="preserve" transform="matrix(.9904545 0 -0 1.0096376 0 792)" font-size="10.804966" font-family="LMRoman10"><tspan y="-587.03146" x="86.76825 92.77581 98.17829 102.41384 106.61697 112.624538 117.43274 121.66829 125.925449 131.93302 134.9368 140.94435 148.86438 156.66558 159.66936 163.87248 173.54293 177.80008 182.60829 188.01076 192.2463 196.75199 202.75954 206.35759 211.76006 217.76761 223.77518 227.37322 231.60877 236.41698 240.67414 245.48235 251.4899 259.961 265.3635 271.37107 281.04154 286.44404 292.4516 298.45918 302.69474 308.09724 314.1048 318.34037 321.34413 326.7466 330.94978 339.42085 346.9195 352.32197 356.55754 362.26258 365.26634 371.2739 376.6764 380.27449 386.28205 391.68455 400.7499 406.1524 410.38798 415.79048 421.19294 427.2005 430.20429 435.01249 440.41499 444.6181 447.6219 453.02439 459.03196 466.952 471.15516 474.1589 480.1665 484.97468 487.97846 493.98603 499.9936 502.99739 509.00495 518.0703 524.3803 529.7828 532.78659 535.79037 540.5986">partnershipswithsearch-and-rescueandappropriateworking-dogorganizations(includingpolice</tspan></text>
<text xml:space="preserve" transform="matrix(1.0099504 0 -0 .99014756 0 792)" font-size="11.017651" font-family="LMRoman10"><tspan y="-584.90176" x="85.09329 93.66502 103.04105 109.16687 115.29268 118.35559 122.64146 126.982418 135.1465 140.65532 146.78115 149.84404 159.52855 167.48329 173.6091 178.51197 182.83087 191.60092 195.8868 200.2057 205.71454 208.77744 214.90326 217.96616 224.09198 233.47902 236.54193 244.75008 249.65294 255.16176 264.33946 270.46528 275.97407 280.25996 283.32286 289.44868 292.51158 301.28163 309.23637 312.2993 316.58515 326.57817 334.2354 339.13829 342.20118 345.57258 351.08137 355.4003 364.17036 369.67918 375.80497 385.809 391.9348 394.9977 400.50654 406.63236 409.69526 413.68367 423.36817 428.87699 435.0028 444.9958 448.05873 456.2779 460.61885 464.90473 469.22367 475.34947 480.25233 484.53819 490.664 494.98295 499.88578 509.87879 514.1646 523.5407 529.964">K9units)onlywheretrainingiscompatiblewithwelfareanddignityandisstructuredtobe</tspan></text>
<text xml:space="preserve" transform="matrix(1 0 -0 1 0 792)" font-size="10.9091" font-family="LMRoman10"><tspan y="-565.59" x="85.94 92.00546 98.07092 104.13638 107.16911 110.20184 115.0564 118.08913 127.48186 130.51459 135.36914 140.82369 143.85642 149.92188 152.9546 161.4528 166.90735 172.97281 182.671 187.52556 193.59102 199.65648 204.51103 209.96558 214.20922 217.24195 222.69649 228.76195 234.21649 240.88196 245.15833 250.61287 254.8565 260.92198 265.77653 273.69654 277.9402 284.00566 289.4602 299.1584 304.61296 310.6784 316.13298 321.89299 327.95845 332.813">publiclylegibleandeducationalratherthanopaque,</tspan></text>
<text xml:space="preserve" transform="matrix(1 0 -0 1 0 792)" font-size="10.9091" font-family="LMRoman10"><tspan y="-543.27407" x="72">&#x2022;</tspan></text>
<text xml:space="preserve" transform="matrix(1.0099504 0 -0 .99014756 0 792)" font-size="11.017651" font-family="LMRoman10"><tspan y="-548.6799" x="85.09329 89.37916 94.28201 103.45972 109.88301 115.39183 119.71075 125.21958 129.5385 139.24504 145.37085 150.87969 157.0055 161.34647 164.40937 170.53519 179.93325 185.44208 191.56789 201.58293 207.10279 212.90908 217.81194 223.32077 227.60663 230.66953 236.17836 242.30417 247.813 254.76514 260.89094 266.39976 270.68565 276.51396 284.16023 289.37156 295.18888 303.41908 306.79048 312.2993 320.50743 326.01625 332.14207 338.26786 341.33079 345.61665 353.84684 359.35566 364.86445 367.92738 374.05317 383.4512 388.96003 395.08586 403.26094 408.76976 416.01936 419.40177 424.91059 429.25157 433.5374 438.44029 446.63743 451.54026 457.04908 461.368 466.27085 473.30015 476.36305 485.5407 491.66654 494.72944 499.62126 508.79896 513.70187 519.5302 523.81607 528.7189">temporaryhousingandvocationalpathwaysforadultsagingoutoffostercare,implemented</tspan></text>
<text xml:space="preserve" transform="matrix(1 0 -0 1 0 792)" font-size="10.9091" font-family="LMRoman10"><tspan y="-529.725" x="85.94 91.394557 97.460018 100.492748 109.885478 117.76185 120.79458 125.038219 134.74732 139.60187 142.6346 147.48915 152.9437 160.8528 165.15099 170.60553 173.94371 178.79827 184.2528 190.31827 195.77281 200.04918 206.11464 210.41283 217.0783 221.37648 227.44194 233.81285 238.6674 242.94377 248.70378 251.73651 256.0347 259.0674 264.52198 270.58744 277.2638 282.71836 288.7838 298.482 304.54747 310.002 316.06748 319.7002 324.55476 330.31477 334.5584 338.83479 344.28935 349.1439 353.38755 356.42027 361.87483 370.3621 374.66029 378.90394 384.3585 390.43486 396.5003 401.95487 406.23124 412.2967 416.59489">onlywithclearsafeguards,supervision,andnon-extractivestandards,</tspan></text>
<text xml:space="preserve" transform="matrix(1 0 -0 1 0 792)" font-size="10.9091" font-family="LMRoman10"><tspan y="-507.408" x="72">&#x2022;</tspan></text>
<text xml:space="preserve" transform="matrix(.9964939 0 -0 1.0035185 0 792)" font-size="10.870851" font-family="LMRoman10"><tspan y="-505.62898" x="86.24238 90.52549 95.36302 100.20055 106.244739 110.50611 118.99624 123.225009 128.06253 137.11795 143.4665 148.90193 153.1633 158.59873 162.8601 172.25252 176.53563 181.97106 188.01525 192.85277 197.08153 203.12572 208.56114 212.82251 222.22579 225.2479 230.9877 237.03189 242.46732 245.48941 251.5336 260.6216 263.94813 269.38356 277.29753 281.58064 287.62486 291.8862 297.62605 300.64814 306.0836 311.519 315.7804 323.727 329.1624 336.1415 342.1857 347.62117 356.67658 361.5141 365.7972 370.02598 373.04808 381.53819 387.278 390.3001 395.73558 398.75767 403.59519 409.63938 414.4769 419.31443 425.9891 429.01124 438.06666 444.11085 447.13298 451.97047 461.0259 465.8634 471.60325 475.832 480.66954 490.36634 495.80177 501.85685 504.87895 514.27139 522.1201 528.1643 533.00186 537.26327">securetemporarysanctuarylodgingforsurvivorsofdomesticviolence,implementedonlywhere</tspan></text>
<text xml:space="preserve" transform="matrix(1 0 -0 1 0 792)" font-size="10.9091" font-family="LMRoman10"><tspan y="-493.859" x="85.94 90.794559 96.24911 102.31457 105.3473 108.38003 114.44549 119.30003 125.060039 129.30368 132.33641 137.79096 140.82369 143.85642 147.7946 157.19826 162.6528 168.71826 178.41646 182.71465 188.16919 191.50737 196.36193 200.30011 209.70377 214.55832 220.01287 229.71106 236.08197 244.56926 250.63472 254.91109 259.76564 264.0638 268.91838 273.19474 278.6493 283.50386 293.21296 301.08934 304.12205 308.3657 314.43116 319.8857 325.95118 333.82756 338.6821 344.13667 353.22395 359.2894 363.56578 369.02033 378.1076 381.14033 385.4385 388.47123 394.53669 403.62397 407.8676 413.94398 422.43125 431.51853 434.55125 438.84944 443.1476 446.18034 451.6349 461.33308 466.18763 471.64219 475.91856 480.7731">confidentialityandsafetycanbepreservedwithoutcompromisingthemissioncore.</tspan></text>
<text xml:space="preserve" transform="matrix(1.0049875 0 -0 .9950372 0 792)" font-size="10.96351" font-family="LMRoman10"><tspan y="-469.89" x="71.25164 79.16729 85.263 90.14176 94.46138 102.947139 109.04285 113.340549 118.822299 124.304058 128.60176 134.08351 143.21611 151.14273 156.62448 160.9222 169.39699 172.44484 178.24456 182.50936 187.3881 193.48383 199.57953 204.45829 214.161 219.64275 227.56937 233.05113 239.14684 245.24256 248.29042 252.55522 255.60306 261.0848 269.5706 275.6663 281.76203 287.85777 290.9056 293.95347 302.43925 308.83097 313.70976 319.80549 324.68424 327.7321 330.77998 335.04478 341.69963 347.79533 353.2771 361.14888 370.23765 374.5353 379.4141 385.50984 388.55769 394.03944 398.9182 403.79698 412.9296 417.80836 423.5971 431.46894 440.60154 443.64939 447.969 452.2886 455.33647 460.8182 466.91395 473.56877 479.05055 485.14625 494.849 503.6856 509.78129 514.10098 521.96176 528.05746 533.5392">Theseprogramsareintendedasadditivepublicbenefit,notareplacementmission,andmustnot</tspan></text>
<text xml:space="preserve" transform="matrix(1 0 -0 1 0 792)" font-size="10.9091" font-family="LMRoman10"><tspan y="-454.009" x="72 76.85455 82.309108 91.396389 97.461849 101.73821 107.192768 116.280048 119.312778 123.61096 132.09825 136.34189 142.40735 150.90555 156.97101 162.42555 171.51284 179.08376 183.93831 186.97104 190.30922 195.76377 200.04013 208.52742 213.38198 218.83652 223.11289 227.96744">compromisethedogwelfarecore.</tspan></text>
<text xml:space="preserve" transform="matrix(1 0 -0 1 0 792)" font-size="14.3462" font-family="LMRoman12" font-weight="bold"><tspan y="-419.641" x="72">5</tspan></text>
<text xml:space="preserve" transform="matrix(.9899495 0 -0 1.0101525 0 792)" font-size="14.202014" font-family="LMRoman12" font-weight="bold"><tspan y="-415.42347" x="93.10981 105.11051 113.98677 119.31253 125.61822 130.06345 136.28392 148.51186 158.97875 166.74726 173.28018 179.50066 188.37693 195.66254 207.12358 217.60466 224.70566 232.7014 239.0213 247.45729 253.763 259.9835 267.2691 285.5187 291.73918 300.61546 313.93693 321.7054 326.15065 335.53819 346.8998 355.77607 362.08177 366.52699 375.40324 382.68885 388.99455 400.24253 408.01106 416.8873 430.69166 442.76338 449.29627 455.51676 459.96199 466.26768 474.03617 487.85475 495.68006 504.55635 511.84196 518.3749 526.81088 531.2561 538.3571">On-sitePartnerEcosystem(SmallBusinessandArtisan&#x201c;Service</tspan></text>
<text xml:space="preserve" transform="matrix(1 0 -0 1 0 792)" font-size="14.3462" font-family="LMRoman12" font-weight="bold"><tspan y="-401.708" x="92.174 103.83746 111.914379 125.37111 138.82785 146.90476 155.87113 162.24085 170.1456">Commons&#x201d;)</tspan></text>
<text xml:space="preserve" transform="matrix(1 0 -0 1 0 792)" font-size="11.9552" font-family="LMRoman12" font-weight="bold"><tspan y="-374.768" x="72 78.73078 82.47276">5.1</tspan></text>
<text xml:space="preserve" transform="matrix(1 0 -0 1 0 792)" font-size="11.9552" font-family="LMRoman12" font-weight="bold"><tspan y="-374.768" x="99.29373 108.48728 115.95928 121.45867 129.30127 136.03205 141.34015 151.95636 158.49585 165.96785 177.92305 185.76566 192.49643 199.96843 207.44043 214.91243 221.45192 226.95131 230.69329 236.8263">Purposeandboundaries</tspan></text>
<text xml:space="preserve" transform="matrix(1.0099504 0 -0 .99014756 0 792)" font-size="11.017651" font-family="LMRoman10"><tspan y="-357.69923" x="71.290637 79.55387 84.45672 96.42189 104.83938 110.348209 115.85703 121.36587 126.268718 130.58765 133.65055 139.15938 145.28519 155.41042 158.47332 166.82469 169.8876 175.71595 180.0018 184.90467 191.03047 197.1563 202.05916 212.19539 216.48125 225.98947 232.1153 237.62412 241.96509 250.26136 259.78059 266.2039 271.7127 277.83854 283.96434 290.09016 294.99299 305.1292 310.03208 314.9349 320.44374 324.7847 330.60203 334.94297 339.22886 344.13169 357.3198 362.8286 370.19944 375.70826 381.83406 385.50294 389.8439 392.9068 397.1927 406.10594 412.23176 417.74058 422.0595 426.34538 432.4712 437.37403 441.69297 446.03395 457.05158 461.39256 470.57026 476.07905 479.14198 486.21528 492.3411 498.46693 502.80787 505.8708 511.9966 516.8995 521.2405 525.5814 530.4843">NewDoggerlandisintendedtohostaboundedecosystemofon-sitepartners&#x2014;smallbusinesses</tspan></text>
<text xml:space="preserve" transform="matrix(.9969955 0 -0 1.0030136 0 792)" font-size="10.876323" font-family="LMRoman10"><tspan y="-339.60258" x="72.21697 77.65513 83.70237 93.39317 98.83134 103.09486 107.325748 110.34936 114.634639 120.07279 126.12003 130.4053 141.28162 149.13433 155.18157 160.61974 164.90502 173.38854 179.43578 183.69928 188.53925 192.82453 197.66449 203.71173 208.5517 217.02436 223.0716 226.0952 230.3587 235.19867 240.03864 244.26953 247.29315 256.6794 260.9647 267.0119 273.05915 279.4109 284.84904 289.11256 293.3434 301.27229 306.71043 313.0622 317.90214 322.16566 327.6038 331.8347 334.8583 340.29646 346.34367 350.62895 357.29615 361.55964 366.3996 372.4468 378.49406 383.33399 388.17393 396.0919 403.64006 409.07823 413.36347 417.59437 422.4343 429.1015 432.1251 438.17234 443.01228 447.2758 452.11576 457.5539 461.83918 466.6791 474.60798 478.8715 483.71144 487.9967 491.02033 494.0439 497.06755 501.90748 507.9547 512.7947 517.6346 524.2909 529.72909 535.7872">andartisans&#x2014;whosepresencedirectlysupportsoperations,reduceswaste,increasesresilience,and</tspan></text>
<text xml:space="preserve" transform="matrix(1.0099504 0 -0 .99014756 0 792)" font-size="11.017651" font-family="LMRoman10"><tspan y="-330.33158" x="71.290637 75.631587 79.91745 84.236377 89.13922 95.26504 100.77386 105.05972 111.18554 116.088397 122.2142 130.37828 133.4412 139.2475 144.15035 149.65918 156.55623 161.45909 166.35094 171.85977 177.9966 183.50543 192.68314 195.73503 204.47203 210.59784 216.10668 220.4256 224.71146 227.77436 232.67722 235.74013 241.86594 247.37477 251.66063 254.72356 260.23237 266.3582 274.88584 282.8406 288.9664 292.02934 300.2044 306.33024 311.83906 316.15797 320.44386 326.56968 331.4725 339.61457 342.6775 347.8888 353.39765 358.3005 366.44258 369.50547 377.68058 383.80638 389.3152 397.4242 402.933 412.88197 415.94486 422.07069 428.1965 433.09934 439.52265 444.42549 450.5513 456.67713 461.57997 467.4083 475.5173 481.0261 487.4604 490.8318 495.73466 500.62648 504.91233 507.97526 513.49508 518.39797 526.93667 530.91409">strengthenslocaleconomicparticipation.Thispartnerlayerisnotanindependentobjective.It</tspan></text>
<text xml:space="preserve" transform="matrix(1 0 -0 1 0 792)" font-size="10.9091" font-family="LMRoman10"><tspan y="-313.528" x="72 76.85455 82.614559 85.647289 89.94547 94.18911 102.120029 107.57458 113.64004 116.67277 126.07641 130.32006 139.40734 143.70552 149.77098 155.83644 162.20735 167.6619 171.93827 179.81464 188.90192 191.93465 196.23284 200.53102 203.56375 209.0183 218.7274 223.58196 229.34197 234.19652 239.05107 245.11653 249.36017 252.3929 257.84745 263.9129 270.57835 274.87654 279.12019 283.97474 291.54566 297.0002 301.27659 307.34205 311.64024 317.7057 320.7384 326.80387 333.48023 338.93479 345.00025 354.69844 357.73115 363.7966 368.0948 372.33845 375.37117 379.6148 385.68028 389.92393 392.95664 398.4112 404.47666 409.9312 416.59666 422.673 428.73847 433.01484 438.4694 444.53486 447.56758 450.60029 453.633 457.5712 462.41487">existsonlytosupportmissionexecution,stewardship,andinstitutionaldurability.</tspan><tspan y="-293.204" x="72 75.93819 78.97092 82.00365 88.06911 92.367298 96.61093 100.8873 106.34185 110.58549 113.61822 119.07276 127.560039 133.6364 139.09095 143.36731 147.61095 153.6764 158.53096 166.44007 171.29462 176.74916 180.9928 185.84735 191.3019 196.75644 201.0328 204.06554 208.92009 216.85102 225.9383 231.08739 240.49105 243.52378 249.58924 254.44379 257.4656 263.54197 269.60743 274.46199">Illustrativepartnercategoriesmayinclude:</tspan></text>
<text xml:space="preserve" transform="matrix(1 0 -0 1 0 792)" font-size="10.9091" font-family="LMRoman10"><tspan y="-266.902" x="72">&#x2022;</tspan></text>
<text xml:space="preserve" transform="matrix(1 0 -0 1 0 792)" font-size="10.9091" font-family="LMRoman10"><tspan y="-266.902" x="85.94183 89.28002 95.04003 100.80004 110.49823 116.56369 120.84006 125.98915 131.74916 134.78189 139.08008 142.11281 147.56735 153.63282 156.66555 162.731 171.8292 177.28374 183.3492 193.0474 197.90195 203.35649 206.69467 211.54923 219.48015 223.72379 231.60016 237.66562 242.52017 246.79654 255.29474 260.1493 265.60386 274.69114 280.7566 286.21116 290.4548 293.48753 299.55299 302.5857 311.07298 318.94935 321.98207 326.2257 335.9239 340.16755 346.233 354.7312 359.0294 362.0621 366.30577 374.79304 380.2476 386.31306 396.01124 402.0767 408.14216 414.2076 417.24034 420.27305 428.77125 431.80397 437.56398 441.80763 446.66218 450.93855 454.27674 459.7313 464.58586 469.4404 473.68406">foodprovisioningandcaf&#x00e9;s(wherecompatiblewiththesiteandpublicinterface),</tspan></text>
<text xml:space="preserve" transform="matrix(1 0 -0 1 0 792)" font-size="10.9091" font-family="LMRoman10"><tspan y="-244.58602" x="72">&#x2022;</tspan></text>
<text xml:space="preserve" transform="matrix(1 0 -0 1 0 792)" font-size="10.9091" font-family="LMRoman10"><tspan y="-244.58602" x="85.94183 90.2182 95.072757 101.138217 106.592769 109.625499 117.53459 122.98914 129.0546 138.7637 147.85099 153.30553 156.33826 162.09827 166.3419 171.19646 177.26192 182.71646 188.78192 193.63648 202.12377 206.42195 211.2765 215.55287 221.31288 224.34561 229.20017 234.05472 241.98564 246.22928 250.50565 255.3602 261.42567 266.88023 269.91294 277.83296 285.40388 290.85844 295.1348 300.8948 305.193 311.25846 316.713 322.77848 329.4439 332.7821 338.23667 344.30213 348.5785 351.6112 356.46577 361.92033 366.16398 369.1967 374.65126 380.7167 386.17127 395.25856 400.1131 404.35676 409.8113 412.84403 420.41496 425.8695 430.14588 435.90589 440.14955">repairandmaintenanceservices(repairworkshop,fabrication/metalwork),</tspan></text>
<text xml:space="preserve" transform="matrix(1 0 -0 1 0 792)" font-size="10.9091" font-family="LMRoman10"><tspan y="-222.27002" x="72">&#x2022;</tspan></text>
<text xml:space="preserve" transform="matrix(1 0 -0 1 0 792)" font-size="10.9091" font-family="LMRoman10"><tspan y="-222.27002" x="85.94183 92.00729 98.072757 102.34912 107.80367 113.86913 116.90186 125.38914 130.84369 136.60369 142.36368 148.42914 156.36006 161.8146 167.88007 177.58917 183.65464 189.7201 192.75283 196.091 201.54555 205.82192 214.9092 220.36374 226.73465 232.48374 237.93828 245.82556 250.10193 254.95648 261.02195 266.4765 269.50923 277.4183 282.87287 290.78196 296.8474 301.12379 306.8838 312.94926 319.0147 323.86927 328.1129 331.14564 336.6002 346.3093 350.55296 356.91297 362.67298 368.12754 372.3712 381.45848 386.91304 392.36759 397.22215 401.4985 406.95307 409.98579 414.84034 420.2949 424.53855 430.604 435.45857 439.73493 447.30586 452.7604 457.03678 462.50224 467.35679 471.62226 475.8659">durablegoodsanduniform/bootrepairorproduction(bootmaker/leatherworker),</tspan></text>
<text xml:space="preserve" transform="matrix(1 0 -0 1 0 792)" font-size="10.9091" font-family="LMRoman10"><tspan y="-199.95302" x="72">&#x2022;</tspan></text>
<text xml:space="preserve" transform="matrix(1.006479 0 -0 .99356278 0 792)" font-size="10.979779" font-family="LMRoman10"><tspan y="-201.24848" x="85.38677 94.53293 97.58531 101.91135 106.23739 109.289768 114.779659 120.884418 124.54068 128.86672 134.97147 141.07624 147.48845 152.97834 157.2824 161.55353 164.60591 170.71068 179.81291 185.91768 190.22176 196.00809 202.11284 208.2176 213.10363 217.37476 220.42714 225.91703 235.63414 239.90528 244.79129 247.84368 253.33354 256.38594 263.05064 268.5405 274.64527 277.69764 286.84379 292.33369 298.99839 304.79573 310.90049 315.1716 319.47569 322.52806 326.7992 329.85154 335.34144 345.05854 351.1633 355.46739 360.3534 366.45817 371.94804 376.2521 381.742 386.01313 389.0655 394.55537 400.66014 408.5436 414.03349 420.13825 423.1906 432.60029 440.52769 446.63246 451.51847 455.82255 464.3209 469.20689 474.69679 480.80155 485.12757 488.17994 492.50599 496.7771 501.66313 507.47145 515.35488 523.2823 526.33468 530.60586">mission-supportingproduction(e.g.,animalnutritionpreparation)onlywhereconsistentwith</tspan></text>
<text xml:space="preserve" transform="matrix(1 0 -0 1 0 792)" font-size="10.9091" font-family="LMRoman10"><tspan y="-186.404" x="85.547 93.11791 97.97246 101.00519 104.343379 109.79793 114.074298 122.56158 127.41612 132.87067 138.93613 143.23432 147.47795 151.75432 157.20886 160.2416 166.01251 170.25615 178.18708 183.64162 189.70708 199.41619 203.68164 208.5362 213.99074 220.0562 223.08893 228.54347 232.78711 238.24166 242.51802 251.92168 256.7762 262.23078 271.31806 277.3835 280.41624 283.44895 288.9035 294.96897 299.82353 304.67808">welfareconstraintsandregulatorycompliance.</tspan></text>
<text xml:space="preserve" transform="matrix(1 0 -0 1 0 792)" font-size="11.9552" font-family="LMRoman12" font-weight="bold"><tspan y="-157.195" x="72 78.73078 82.47276">5.2</tspan></text>
<text xml:space="preserve" transform="matrix(1 0 -0 1 0 792)" font-size="11.9552" font-family="LMRoman12" font-weight="bold"><tspan y="-157.195" x="99.29373 104.30296 111.77496 116.25816 123.35955 127.10153 134.57353 146.52873 152.02812 158.16114 165.26253 174.9821 181.52159 191.3129 197.85239 205.32439 212.79639 216.53836 221.77474 228.31423 235.78623 239.5282 250.14441 256.27745 263.3788 268.97386 276.44587 282.98536 290.45735 297.1881">In-kindrentasauditableexchange</tspan></text>
<text xml:space="preserve" transform="matrix(.9944848 0 -0 1.0055457 0 792)" font-size="10.848934" font-family="LMRoman10"><tspan y="-135.84864" x="71.84022 82.99292 89.02493 93.85271 98.105487 106.58935 112.01381 118.05667 124.08868 128.34146 133.76593 139.79793 144.0507 147.06671 152.49118 156.71141 161.52834 168.21129 174.24329 179.66776 183.92053 188.14076 194.17276 199.00054 203.25333 211.19474 220.2319 225.35259 234.73691 239.01139 244.43585 248.65608 251.6721 255.94658 259.27723 268.66157 277.753 284.08879 289.51325 293.76606 297.98628 301.00227 306.42677 316.11488 321.53935 328.52607 332.77885 337.60664 343.33488 351.22206 355.4423 361.4743 365.7271 371.15159 377.1836 382.6081 392.29618 395.3122 401.3442 404.9569 410.68516 413.70115 419.73316 429.43214 435.46415 439.71696 444.83766 450.5659 453.58189 457.85639 460.87239 466.29685 472.32887 475.34486 481.37687 490.46833 495.8928 502.86866 508.29313 514.02139 519.76046 525.7924 533.72299 539.14749">Whereappropriate,partnersmaysatisfyaportionofrentthroughin-kindprovisioningofgoodsor</tspan></text>
<text xml:space="preserve" transform="matrix(.99548986 0 -0 1.0045307 0 792)" font-size="10.859898" font-family="LMRoman10"><tspan y="-122.498" x="72.3262 76.604999 81.43765 85.694728 91.42876 94.44781 99.280467 104.11311 112.02998 118.068088 121.087139 125.34421 130.17687 135.0095 139.23401 142.25305 151.636 157.6741 161.9529 166.78556 176.46172 182.19573 191.56783 199.71274 204.54538 216.03516 224.3321 229.76206 235.192 240.62195 245.45459 249.71169 252.73073 258.16069 264.19877 273.8749 279.30488 285.64704 290.47969 294.73677 300.16673 304.3912 307.41026 312.8402 318.8783 326.80604 331.03053 335.85234 338.87138 344.3013 347.32038 353.98835 360.02644 365.4564 370.88633 375.719 379.97608 389.34815 395.38624 399.6433 404.7692 410.5032 413.52226 417.80107 420.8201 426.25004 432.28816 435.3072 441.34529 450.42417 453.74729 459.17726 467.07237 472.50233 478.5404 482.15678 486.43556 489.4546 493.6791 502.16069 505.4838 510.91377 515.7464 518.75466 521.7737 524.7927 529.0172 532.03628 536.8689 541.1477">servicesdirectlyusedbyNewDoggerlandoperations(e.g.,bakeryprovisioningforon-sitefacilities;</tspan></text>
<text xml:space="preserve" transform="matrix(.9899495 0 -0 1.0101526 0 792)" font-size="10.799458" font-family="LMRoman10"><tspan y="-108.40342" x="72.73098 76.98596 81.18695 86.58668 89.73472 96.37098 102.67787 108.39078 113.79051 117.9915 125.7347 134.73065 140.13039 143.13263 148.83475 153.03574 158.43547 161.43772 167.44222 172.24799 181.7407 187.14044 193.14495 202.63767 206.87107 211.67682 217.68132 223.08106 226.0833 230.31668 235.12245 241.12696 247.67142 256.66737 261.47315 265.6741 271.07383 277.5643 280.56657 283.5688 289.2709 293.4719 299.47639 303.70976 308.5155 316.2587 319.56336 324.96308 330.96757 335.20094 338.2032 343.00895 348.40867 352.60966 357.41539 366.9081 372.30784 378.31233 387.80506 392.03843 396.84419 402.84867 408.24839 411.25065 415.484 420.28977 426.29426 430.49525 438.33564 444.34016 450.34465 454.848 464.3407 469.74046 473.97383 478.20719 483.6069 489.61143 495.01115 499.8169 508.81285 513.6186 519.32077 523.52169 531.2649 536.6646 540.8981">staffbootsmaintainedandrepaired;metalfixturesfabricatedandrepaired).Sucharrangementsare</tspan></text>
<text xml:space="preserve" transform="matrix(1.0004999 0 -0 .9995003 0 792)" font-size="10.914554" font-family="LMRoman10"><tspan y="-96.002979" x="71.96403 74.998279 80.76116 85.00693 89.8639 95.932399 102.000888 106.857868 116.5609 120.80666 129.88758 136.26166 144.74227 148.98802 153.26653 158.1235 163.58078 167.82654 172.68352 182.37566 187.83293 195.76782 201.8363 206.1148 209.14907 214.00603 218.863 224.93152 231.58939 237.04668 243.11518 249.18367 252.21793 256.46369 261.92097 267.98948 271.0237 279.51524 284.3722 290.1351 294.68647 300.75498 306.21223 312.28074 317.738 322.59498 330.51896 334.79747 340.25474 344.5005 350.569 355.42597 363.33903 367.58479 373.6533 379.11054 388.8027 391.83695 397.90547 401.2453 406.70259 410.98106 420.0729 425.53016 432.18806 438.25657 443.7138 447.9923 452.2381 457.09507 461.37358 469.25389 477.1342 483.20268 488.05967 497.4462 506.24336 512.3118 516.6122 524.48159 530.55007 536.0073">intendedtobetreatedaspriced,auditableexchangesratherthaninformalbarter.Theymustnot</tspan></text>
<text xml:space="preserve" transform="matrix(1 0 -0 1 0 792)" font-size="10.9091" font-family="LMRoman10"><tspan y="-82.405" x="72 78.37092 83.225467 88.08002 93.53457 102.62185 111.10912 115.65821 121.72367 127.17822 133.24369 139.30915 144.1637 147.19643 155.13826 158.47644 163.93099 171.84009 177.90555 180.93828 187.00374 193.0692 197.92375 207.62195 212.4765 217.93105 227.01833 233.38924 238.24379 244.30925 248.60744 254.06198 258.30564 261.33836 266.7929 272.85838 279.53474 285.6002 289.87657 292.90928 298.05839 303.51295 307.7566 316.24388 322.61479 327.46934 333.5348 338.38935 341.42207 344.4548 348.69847 355.3639 358.7021 363.8621 369.31666 374.7712 379.04759 382.0803 386.32395 389.35667 393.65486 402.74214 409.40757 414.86213 422.78215 425.80397 431.8803 435.2185 440.67308 444.94944 454.0367 459.49128 466.1567 471.61128 477.67674 481.92039 487.98585 493.4404 497.71678 500.74949 504.68769 509.54225">becomechannelsforhiddencompensation,privatebenefit,favoritism,orinformalauthority.</tspan></text>
<text xml:space="preserve" transform="matrix(1 0 -0 1 0 792)" font-size="10.9091" font-family="LMRoman10"><tspan y="-42.112" x="303.273">6</tspan></text>
</svg>
