<svg xmlns="http://www.w3.org/2000/svg" xmlns:xlink="http://www.w3.org/1999/xlink" xmlns:inkscape="http://www.inkscape.org/namespaces/inkscape" version="1.1" width="612" height="792" viewBox="0 0 612 792">
<text xml:space="preserve" transform="matrix(1 0 -0 1 0 792)" font-size="10.9091" font-family="LMRoman10"><tspan y="-709.041" x="72">&#x2022;</tspan></text>
<text xml:space="preserve" transform="matrix(1 0 -0 1 0 792)" font-size="10.9091" font-family="LMRoman10"><tspan y="-709.041" x="85.94183 92.31275 97.1673 101.443668 110.530948 115.9855 122.05096 126.9055 132.66551 136.90915 139.94188 149.33463 154.78917 157.8219 162.06554 166.92009 174.8401 179.68375 185.13829 194.22557 200.59648 205.45104 211.5165 215.81468 221.26923 225.51287 228.5456 234.00014 243.70925 249.7747 255.22925 259.5056 268.5929">permanentlyaltercompensationnorms</tspan></text>
<text xml:space="preserve" transform="matrix(1 0 -0 1 0 792)" font-size="10.9091" font-family="LMRoman10"><tspan y="-686.72506" x="72">&#x2022;</tspan></text>
<text xml:space="preserve" transform="matrix(1 0 -0 1 0 792)" font-size="10.9091" font-family="LMRoman10"><tspan y="-686.72506" x="85.94183 90.2182 95.072757 99.37094 104.225498 112.10186 121.18914 126.64369 130.92006 136.37462 141.22917 149.11646 155.48737 160.33101 166.40738 170.95648 177.02194 186.10923 191.56377 195.84014 201.60015 209.53107 215.59653 220.74562 228.622 234.39292 241.96384 247.41838 251.69475">resetmarketbenchmarksdownward</tspan></text>
<text xml:space="preserve" transform="matrix(1 0 -0 1 0 792)" font-size="10.9091" font-family="LMRoman10"><tspan y="-664.408" x="72">&#x2022;</tspan></text>
<text xml:space="preserve" transform="matrix(1 0 -0 1 0 792)" font-size="10.9091" font-family="LMRoman10"><tspan y="-664.408" x="85.94183 90.79639 96.55639 100.800029 105.07639 110.530948 115.3855 123.26186 129.32732 135.39278 141.45824 146.91278 149.94551 159.65462 162.68735 168.14189 174.5128 179.96735">extractunpaidlabor</tspan></text>
<text xml:space="preserve" transform="matrix(1 0 -0 1 0 792)" font-size="10.9091" font-family="LMRoman10"><tspan y="-642.09207" x="72">&#x2022;</tspan></text>
<text xml:space="preserve" transform="matrix(1 0 -0 1 0 792)" font-size="10.9091" font-family="LMRoman10"><tspan y="-642.09207" x="85.94183 90.2182 95.072757 101.138217 104.170948 109.625499 114.48004 122.96732 126.30551 131.76006 134.79279 142.7128 147.55644 153.01099 162.09827 168.46918 173.32373 179.38919 183.68738 189.14192 193.38556 196.41829 201.87284 211.58194 217.03649 223.10195 226.13468 229.1674 234.62195 240.07649 244.32013 247.35286 252.8074 258.87287">replacefaircompensationobligations</tspan></text>
<text xml:space="preserve" transform="matrix(.99095919 0 -0 1.0091233 0 792)" font-size="10.810472" font-family="LMRoman10"><tspan y="-610.22378" x="72.24919 80.35705 86.06498 95.42685 104.43197 107.43728 111.69661 117.70723 121.96656 126.777217 133.44728 142.4524 145.4577 149.71703 153.95473 158.7654 164.77602 169.01372 173.82437 178.08371 182.89437 188.6023 192.80757 198.2128 202.41808 205.42337 210.82862 216.83924 223.49849 228.30915 234.0279 238.82775 243.06543 247.8761 250.8814 256.28666 262.29728 268.96736 274.37257 282.27503 286.53437 291.34504 294.35035 299.1502 303.9609 308.16618 311.1715 316.57673 325.05216 330.45738 336.468 342.47859 345.48393 348.48924 353.2999 358.70515 362.9104 365.9049 371.31016 380.9855 386.39073 393.3635 397.5688 403.5794 406.58473 414.498 422.30314 427.40568 432.80009 437.61076 443.62138 449.02659 454.7345 462.60456 467.41523 472.82044 478.83106 483.0904 487.2957 490.301 494.5063 500.51689 504.72218 509.53285 517.4461 523.4567 527.69448 530.69979 539.7049">Anymisuse,misrepresentation,coercion,orselectiveapplicationofthisCovenantconstitutesprima</tspan></text>
<text xml:space="preserve" transform="matrix(1 0 -0 1 0 792)" font-size="10.9091" font-family="LMRoman10"><tspan y="-602.242" x="72 75.33819 80.79274 85.64729 88.68002 97.167308 102.02185 107.78185 110.81458 116.88004 121.73459 127.80005 132.6546 141.14189 146.59644 153.57826 161.76009 167.82555 173.891 178.1892 186.67649 192.74195 198.8074 204.87287 209.72742 217.64743 223.71289 228.56745 233.422 237.66564 240.69837 246.15291">facieevidenceofAbuseunderSection</tspan></text>
<text xml:space="preserve" transform="matrix(1 0 -0 1 0 792)" font-size="10.9091" font-family="LMRoman10"><tspan y="-602.242" x="255.8511 261.30567 266.76023 269.79295">18.4</tspan></text>
<text xml:space="preserve" transform="matrix(1 0 -0 1 0 792)" font-size="10.9091" font-family="LMRoman10"><tspan y="-602.242" x="275.2475">.</tspan><tspan y="-581.918" x="72 82.00365 88.06911 92.312747 97.767299 103.832759 106.865489 109.89822 112.93095 116.869129 122.62913 130.5164 138.69823 144.76369 149.31279 155.37825 160.8328 166.89826 172.3528 177.20735 182.6619 188.72736 191.76009">Mutability:Unchangeable</tspan></text>
<text xml:space="preserve" transform="matrix(1 0 -0 1 0 792)" font-size="14.3462" font-family="LMRoman12" font-weight="bold"><tspan y="-547.55007" x="72 80.07691">13</tspan></text>
<text xml:space="preserve" transform="matrix(1 0 -0 1 0 792)" font-size="14.3462" font-family="LMRoman12" font-weight="bold"><tspan y="-547.55007" x="100.26202 111.29424 117.89349 125.970409 132.25405 139.61365 146.78675 153.07038 160.42998 174.77617 186.81264 194.17224 200.54196 205.03232 213.99869 221.35829 229.87993 236.16356 240.65392 248.50128 258.37147 270.0349 278.11183 286.6191 292.90275 297.3931 305.91474 314.8811 319.37147 325.21037">ProtectedResidentialContinuity</tspan></text>
<text xml:space="preserve" transform="matrix(1 0 -0 1 0 792)" font-size="11.9552" font-family="LMRoman12" font-weight="bold"><tspan y="-520.61007" x="72 78.73078 85.46156 89.203548">13.1</tspan></text>
<text xml:space="preserve" transform="matrix(1 0 -0 1 0 792)" font-size="11.9552" font-family="LMRoman12" font-weight="bold"><tspan y="-520.61007" x="106.02451 113.35305 120.08383 127.55583 135.02783 142.49983 148.63285 158.61544 168.335 175.06578 182.16718 187.40355 191.14553 198.23496 205.70696 209.44893 214.3147 225.89929 235.9297 242.06272 247.37082 251.1128 258.58479 264.7178 272.18983 278.16743">FounderContinuityResidence</tspan></text>
<text xml:space="preserve" transform="matrix(1.0099504 0 -0 .99014756 0 792)" font-size="11.017651" font-family="LMRoman10"><tspan y="-504.99244" x="70.901508 78.85625 84.98206 93.60889 99.117717 103.43663 108.945468 114.45429 120.5801 123.64301 128.54587 134.0547 138.34056 141.40348 146.9123 156.7731 165.9508 171.16217 180.70345 186.82926 191.14818 196.35953 202.17685 205.23975 211.36557 219.99239 229.2362 235.36202 240.87085 246.99666 250.66555 254.95142 259.27037 264.77919 270.90498 275.24595 278.61735 283.52018 287.8391 293.34794 299.47373 302.53666 311.16346 316.67228 322.79808 326.46696 330.80793 333.87083 338.1567 346.79454 351.11347 356.0163 360.35728 363.42018 369.546 374.44883 380.57466 385.47749 394.1043 398.39018 407.63398 411.91987 418.04566 426.6725 432.96354 438.47236 444.59819 450.724 456.8498 461.75267 469.80659 474.09245 479.60127 487.66618 493.792 498.69483 501.75773 504.82066 510.94648 515.84939 525.71017 528.7731">Theorganizationmayprovideanon-transferableon-siteresidencetotheFounder(asdefinedin</tspan></text>
<text xml:space="preserve" transform="matrix(1 0 -0 1 0 792)" font-size="10.9091" font-family="LMRoman10"><tspan y="-486.468" x="72 78.06546 82.92001 87.77457 92.0182 95.050937 100.505489">Section</tspan></text>
<text xml:space="preserve" transform="matrix(1 0 -0 1 0 792)" font-size="10.9091" font-family="LMRoman10"><tspan y="-486.468" x="110.203678 115.658229 118.690959">4.1</tspan></text>
<text xml:space="preserve" transform="matrix(1 0 -0 1 0 792)" font-size="10.9091" font-family="LMRoman10"><tspan y="-486.468" x="124.14551 132.03279 136.33098 141.78553 144.81826 149.6728 152.70554 162.09828 166.34192 175.4292 181.49466 185.77103 190.62558 194.92377 199.77832 204.05469 209.50925 218.00745 223.46199 227.73836 233.1929 238.64745 244.7129 247.74564 252.60019 258.05476 262.2984 265.33113 270.78569 276.85115 282.3057 288.97114 293.82569 299.28025 305.04026 309.2839 312.31663 318.07664 324.1421 327.1748 331.1239 335.96757 342.64393 346.9421 351.79667 356.6512 362.71669 366.99305 370.02577 373.96397 378.80763 385.48399 390.93855 397.004 406.70219 409.7349 415.18946 421.2549 426.70948 430.3422 436.40766 441.8622 446.13859 449.1713 454.02586 459.4804 469.1895 473.4877 477.73136 482.5859 490.15684 495.6114 499.88777 505.95323 510.2514 516.31686 519.34957 525.415">)solelytopreserveorganizationalcontinuity,security,andlong-horizonstewardship.</tspan><tspan y="-466.14399" x="71.607 79.483379 85.548839 88.581569 96.51248 100.78885 105.6434 109.94159 112.97432 119.03978 123.89433 129.9598 134.81435 139.6689">Thisresidence:</tspan></text>
<text xml:space="preserve" transform="matrix(1 0 -0 1 0 792)" font-size="10.9091" font-family="LMRoman10"><tspan y="-439.843" x="72">&#x2022;</tspan></text>
<text xml:space="preserve" transform="matrix(1 0 -0 1 0 792)" font-size="10.9091" font-family="LMRoman10"><tspan y="-439.843" x="85.94183 90.79639 96.25094 102.3164 105.65459 110.50914 114.78551 122.71642 128.78188 137.88007 143.02916 150.90554 156.971 161.82555 166.10192 170.4001 176.46556 179.49829 189.19649 192.22922 198.00014 202.24378 207.09833 211.3747 216.21834 220.52744">confersnoownershipinterest</tspan></text>
<text xml:space="preserve" transform="matrix(1 0 -0 1 0 792)" font-size="10.9091" font-family="LMRoman10"><tspan y="-417.526" x="72">&#x2022;</tspan></text>
<text xml:space="preserve" transform="matrix(1 0 -0 1 0 792)" font-size="10.9091" font-family="LMRoman10"><tspan y="-417.526" x="85.94183 90.79639 96.25094 102.3164 105.65459 110.50914 114.78551 122.71642 128.78188 137.88007 142.73462 148.49463 154.56009 157.59282 161.531 166.38556 173.05103 176.08376 182.14922 188.21468 193.06923 197.3456 200.37833 204.62197 210.0765 216.14197 220.99652 225.85108 232.51654 237.97109 245.88019 250.17838 256.25474 261.0984 265.95295 270.8075 275.10569 279.40388 282.43659 287.89115 297.60026 301.87663 304.90934 310.3639 316.1239">confersnoequity,inheritance,orsuccessionright</tspan></text>
<text xml:space="preserve" transform="matrix(1 0 -0 1 0 792)" font-size="10.9091" font-family="LMRoman10"><tspan y="-395.21" x="72">&#x2022;</tspan></text>
<text xml:space="preserve" transform="matrix(1 0 -0 1 0 792)" font-size="10.9091" font-family="LMRoman10"><tspan y="-395.21" x="85.94183 88.97456 96.90548 102.97094 108.42549 116.31277 120.556407 124.83277 130.28733 136.35279 140.65097 143.98915 148.8437 153.12007 158.57462 164.64008 167.6728">isnottransferable</tspan></text>
<text xml:space="preserve" transform="matrix(1 0 -0 1 0 792)" font-size="10.9091" font-family="LMRoman10"><tspan y="-372.89399" x="72">&#x2022;</tspan></text>
<text xml:space="preserve" transform="matrix(1 0 -0 1 0 792)" font-size="10.9091" font-family="LMRoman10"><tspan y="-372.89399" x="85.94183 94.723659 100.789119 105.0873 112.97458 118.73458 124.80004 130.2546 133.28733 136.32006 139.65824 149.05098 154.50553 162.43645 167.89099 177.6001 181.53829 187.60375 193.6692 198.52376 204.89467 209.74922 215.81468 221.88014 226.7347 232.4947 236.73834 239.77108 249.16382 256.4402 261.89476 264.92747 270.99293 275.84748 285.54566 293.72749 299.18205 305.2475 309.5457 312.5784 318.64387 327.74208 335.4657 340.32026 346.3857 351.24028 354.27299 357.30574 365.1821 369.42576 374.8803 382.81123 388.87669 393.73124 396.76396 399.7967 405.87306 410.7167 420.4258 423.45854 433.1567 439.22218 444.07673 448.93128 453.17494 456.20765 461.6622">mustqualifyasanIndependentlyValuedHousingBenefit(asdefinedinSection</tspan></text>
<text xml:space="preserve" transform="matrix(1 0 -0 1 0 792)" font-size="10.9091" font-family="LMRoman10"><tspan y="-372.89399" x="471.3713 476.82588 479.8477 485.30226">4.22</tspan></text>
<text xml:space="preserve" transform="matrix(1 0 -0 1 0 792)" font-size="10.9091" font-family="LMRoman10"><tspan y="-372.89399" x="490.7568">)</tspan><tspan y="-346.59199" x="72 79.4291 83.70547 88.85456 94.61456 97.64729 101.94548 104.97821 110.43276 120.14186 125.59641 132.56734 136.81098 142.87644 145.90917 153.84009 158.11646 162.97101 167.2692 170.30193 176.36739 181.22194 187.2874 192.14196 200.64015 204.91652 209.77108 215.53108 221.59654 224.62928 228.90564 233.74929 238.05838">Provisionofthisresidencerequires:</tspan></text>
<text xml:space="preserve" transform="matrix(1 0 -0 1 0 792)" font-size="10.9091" font-family="LMRoman10"><tspan y="-320.291" x="72">&#x2022;</tspan></text>
<text xml:space="preserve" transform="matrix(1 0 -0 1 0 792)" font-size="10.9091" font-family="LMRoman10"><tspan y="-320.291" x="85.94183 91.396389 101.094577 104.127307 110.192768 116.258228 121.11278 127.483699 132.33824 138.4037 144.46916 149.32372 155.08373 162.97101 166.30919 171.76374 174.79647 179.07283 182.70557 191.79285 197.24739 201.52376 206.97832 211.83287 219.70925 223.98561 228.84017 234.61109 238.85472 244.30927 250.97473 256.12385 261.5784 264.6111 270.67658 276.13114 280.3748 283.4075 288.86207">anindependentfair-marketrentalvaluation</tspan></text>
<text xml:space="preserve" transform="matrix(1 0 -0 1 0 792)" font-size="10.9091" font-family="LMRoman10"><tspan y="-297.97499" x="72">&#x2022;</tspan></text>
<text xml:space="preserve" transform="matrix(1 0 -0 1 0 792)" font-size="10.9091" font-family="LMRoman10"><tspan y="-297.97499" x="85.94183 95.02911 101.094577 106.85458 111.70914 117.7746 126.86188 131.71643 137.47644 141.72008 146.57463 156.28374 162.3492 168.41466 172.71285 175.74558 181.81104 186.66559 190.96378 195.26197 198.8947 204.96016 209.81472 214.66927 219.52382 223.822 228.1202 231.15293 235.09111 244.48386 248.76023 254.21477 258.4584 261.49113 266.94569 273.01115 278.4657 281.4984 289.9966 295.45118 301.51664 306.9712 313.03666 317.2803 322.13487 331.83305 337.59306 346.9967 351.24037 357.30583 365.7931 374.35673 379.50584 384.97129 389.81495 394.0913 400.15678 403.18949 409.26585 418.35313 426.07676 431.83677 437.90223">adocumentedbusiness-necessityrationaleadoptedbytheGoverningBody</tspan></text>
<text xml:space="preserve" transform="matrix(1 0 -0 1 0 792)" font-size="10.9091" font-family="LMRoman10"><tspan y="-275.658" x="72">&#x2022;</tspan></text>
<text xml:space="preserve" transform="matrix(1 0 -0 1 0 792)" font-size="10.9091" font-family="LMRoman10"><tspan y="-275.658" x="85.94183 90.79639 96.25094 102.3164 105.34913 108.38186 111.41459 116.269138 120.51277 124.1455 129.60005 132.93824 136.57097 139.6037 145.36371 149.60735 154.4619 158.73827 163.59282 167.891 175.77829 180.05466 184.8983 190.65831 193.69104 198.5456 210.06562 217.94199 220.97472 225.21836 234.91655 239.16019 245.22565 253.71294 259.93113 265.38569 271.45115 277.5166 283.58207 288.4366 296.35664 299.69483 305.76029 308.793 311.8257 321.21846 325.4948 330.34938 335.20393 341.26939 345.56758 350.42213">conflict-of-interestreviewwiththeFounderfullyrecused</tspan></text>
<text xml:space="preserve" transform="matrix(1 0 -0 1 0 792)" font-size="10.9091" font-family="LMRoman10"><tspan y="-253.342" x="72">&#x2022;</tspan></text>
<text xml:space="preserve" transform="matrix(1 0 -0 1 0 792)" font-size="10.9091" font-family="LMRoman10"><tspan y="-253.342" x="85.94183 88.97456 94.734569 98.9782 103.83275 108.109119 114.174579 119.62913 126.3055 132.37096 135.40369 139.70188 144.55643 147.58916 153.0437 157.34189 163.40735 167.68372 176.171 180.41464 189.50193 193.80011 198.04375 203.49829 206.6783">internaldisclosuretostaff</tspan></text>
<text xml:space="preserve" transform="matrix(1 0 -0 1 0 792)" font-size="10.9091" font-family="LMRoman10"><tspan y="-231.026" x="72">&#x2022;</tspan></text>
<text xml:space="preserve" transform="matrix(1 0 -0 1 0 792)" font-size="10.9091" font-family="LMRoman10"><tspan y="-231.026" x="85.94183 92.00729 97.461849 103.527309 108.98186 113.258228 116.89095 120.22914 125.68369 130.53824 133.57097 139.63643 148.72371 154.78917 157.8219 162.131 166.97464 170.00737 175.46192 179.7601 185.83647 190.11284 198.60013 204.05467 211.93105 221.01833 224.05106 228.90561 234.37108 239.22563 245.8911 250.18929 256.25474 259.2838 262.3129 265.342 270.19657 273.22929 278.08384 283.84385 291.7202 295.96388 305.06208 310.21119 315.66575 321.1203 324.153 333.86213 342.9494 345.98213 350.2803 354.55668 359.41123 365.47669 369.75306 374.5967 378.9058 383.74946 389.52037 393.764 399.21858 403.46223 406.49494 411.9495">donor-facingdisclosureatalevelsufficienttoavoidmisrepresentation</tspan></text>
<text xml:space="preserve" transform="matrix(1 0 -0 1 0 792)" font-size="11.9552" font-family="LMRoman12" font-weight="bold"><tspan y="-201.817" x="72 78.73078 85.46156 89.203548">13.2</tspan></text>
<text xml:space="preserve" transform="matrix(1 0 -0 1 0 792)" font-size="11.9552" font-family="LMRoman12" font-weight="bold"><tspan y="-201.817" x="106.02451 114.835498 120.98047 126.47986 130.22183 137.32321 144.79521 148.53719 158.99799 169.0284 175.1614 182.2628 186.00478 192.13779">PeriodicReview</tspan></text>
<text xml:space="preserve" transform="matrix(1.0099504 0 -0 .99014756 0 792)" font-size="11.017651" font-family="LMRoman10"><tspan y="-183.02727" x="70.901508 78.85625 84.98206 93.81822 100.120319 105.62914 111.75495 117.88077 124.006587 128.90944 137.16167 145.1164 150.62523 156.45357 160.73943 163.80234 169.63068 175.7565 178.8194 182.8078 192.55841 200.6674 205.57027 209.91123 212.97414 219.09995 224.0028 230.12862 235.03148 243.86765 252.74788 258.8737 263.21467 271.43385 277.86814 286.70429 291.02323 295.92607 301.74339 304.8063 309.70915 317.3664 322.26927 332.32838 338.4542 347.8963 350.9592 355.86207 360.203 368.4883 371.8597 376.17863 381.08149 386.8988 393.02464 397.92747 403.7558 408.04167 411.10459 420.8552 425.14109 431.2669 436.7757 446.83485 452.34364 458.4805 463.3723 472.21949 477.1223 482.64216 487.53398 491.8529 501.61457 504.67747 507.7404 513.26028 522.0964 526.3822 531.89108">TheFounderContinuityResidencemustbereviewednolessfrequentlythanonceeveryfive(5)</tspan></text>
<text xml:space="preserve" transform="matrix(1 0 -0 1 0 792)" font-size="10.9091" font-family="LMRoman10"><tspan y="-167.674" x="71.716 77.17055 82.0251 87.47965 91.75602 99.697849 103.94148 113.02876 117.883319 123.33787 129.40332 132.43605 135.46878 139.74515 152.46517 156.7088 162.77426 168.2288 172.47245">yearstoconfirmthat:</tspan></text>
<text xml:space="preserve" transform="matrix(1 0 -0 1 0 792)" font-size="10.9091" font-family="LMRoman10"><tspan y="-141.373" x="72">&#x2022;</tspan></text>
<text xml:space="preserve" transform="matrix(1 0 -0 1 0 792)" font-size="10.9091" font-family="LMRoman10"><tspan y="-141.373" x="85.94183 90.18547 96.25093 104.73821 110.80367 116.86913 121.16732 124.20005 130.2655 135.12006 139.41825 143.72734 147.36008 153.42554 158.28009 163.13465 167.97829 172.28739 176.58557 179.6183 183.55649 192.94924 197.2256 202.68015 206.92378 209.95652 215.41106 221.47652 226.93106 229.96379 238.45108 242.72745 247.582 256.66929 262.12385 265.15657 271.22203 279.16386 284.31297 289.76753 292.80024 295.83296">thebusiness-necessityrationaleremainsvalid</tspan></text>
<text xml:space="preserve" transform="matrix(1 0 -0 1 0 792)" font-size="10.9091" font-family="LMRoman10"><tspan y="-119.057" x="72">&#x2022;</tspan></text>
<text xml:space="preserve" transform="matrix(1 0 -0 1 0 792)" font-size="10.9091" font-family="LMRoman10"><tspan y="-119.057" x="85.94183 90.18547 96.25093 104.73821 109.89822 115.35277 118.3855 124.45096 129.9055 134.14914 137.18187 142.63642 152.33461 156.61098 161.46553 170.55281 176.00736 179.04009 185.10555 193.03647 197.89102 203.95648 208.23285 212.50922 217.36377 223.13469">thevaluationremainscurrent</tspan></text>
<text xml:space="preserve" transform="matrix(1 0 -0 1 0 792)" font-size="10.9091" font-family="LMRoman10"><tspan y="-96.74" x="72">&#x2022;</tspan></text>
<text xml:space="preserve" transform="matrix(1 0 -0 1 0 792)" font-size="10.9091" font-family="LMRoman10"><tspan y="-96.74" x="85.94183 92.00729 101.094577 107.160037 111.4364 114.46913 119.629138 125.08369 129.32733 137.81462 144.18553 149.04009 155.10555 159.9601 162.99283 166.02556 173.90193 179.96739 185.42194 193.36377 198.81832 203.67287 208.52742 212.80379 218.86925 223.7238 233.422 239.79291 244.64746 250.10202 255.55657 261.622 271.3202 279.19657 285.26203 290.71659 298.60389 301.6366 309.5675 315.93843 320.79298 325.06935 334.15663 337.18934 341.43299 345.67665 350.5312">noprivatebenefithasaccruedbeyondwhatispermitted</tspan></text>
<text xml:space="preserve" transform="matrix(1 0 -0 1 0 792)" font-size="10.9091" font-family="LMRoman10"><tspan y="-42.112" x="300.54499 305.99955">42</tspan></text>
</svg>
