<svg xmlns="http://www.w3.org/2000/svg" xmlns:xlink="http://www.w3.org/1999/xlink" xmlns:inkscape="http://www.inkscape.org/namespaces/inkscape" version="1.1" width="612" height="792" viewBox="0 0 612 792">
<text xml:space="preserve" transform="matrix(1 0 -0 1 0 792)" font-size="10.9091" font-family="LMRoman10"><tspan y="-709.041" x="72">&#x2022;</tspan></text>
<text xml:space="preserve" transform="matrix(.9899495 0 -0 1.0101526 0 792)" font-size="10.799458" font-family="LMRoman10"><tspan y="-701.91476" x="86.81251 92.212238 98.216739 104.22124 108.45462 113.55196 118.63851 124.03824 130.11833 135.51807 141.90055 147.30027 153.30477 158.99608 165.00058 170.40032 176.4804 180.73538 186.73989 192.74439 196.99936 200.00162 206.00612 209.00836 214.4081 218.64148 227.42144 233.42594 239.43044 245.43494 250.83467 255.64043 259.8414 267.17424 272.57395 278.57847 287.6608 292.46656 297.86628 303.87077 306.87303 311.074 316.47373 322.54304 327.3488 332.7485 341.74446 350.74043 353.74269 357.94364 366.9396 371.74537 377.44749 381.64845 388.98127 394.38099 400.68788 405.78523 411.18495 419.05775 426.85496 432.85948 438.2592 442.49256 446.69355 451.49928 455.73265 459.3289 465.33338 470.13914 473.1414 476.14363 482.14814 486.9539 496.03623 500.23719 506.2417 510.47508 515.2808 519.5358 525.54037 530.94009 533.94229 539.9468 544.2018">approvalofannualsubsidiarybudgetsandcapitalcommitmentsaboveCharter-definedthresholds,</tspan></text>
<text xml:space="preserve" transform="matrix(1 0 -0 1 0 792)" font-size="10.9091" font-family="LMRoman10"><tspan y="-686.725" x="72">&#x2022;</tspan></text>
<text xml:space="preserve" transform="matrix(1 0 -0 1 0 792)" font-size="10.9091" font-family="LMRoman10"><tspan y="-686.725" x="85.94183 91.396389 97.461849 103.83276 109.287319 112.320049 118.08005 122.323688 131.41097 136.26552 142.02553 149.91281 155.36736 163.27646 167.55283 172.40738 181.49466 186.64376 191.80376 197.2583 203.92377 209.37831 216.34923 220.64742 226.71288 232.77834 237.07653 240.10926 246.17472 249.20745 254.66199 258.93836 268.342 277.4293 282.88386 288.9493 294.40388 299.85844 304.71299 308.98936 316.92027 322.37483 330.2839 336.34938 339.38209 343.65846 348.513 353.36756 357.6112 363.06578 367.34214 375.28398 380.73854 386.804 389.8367 399.22944 404.684 412.6149 418.9858 423.84037 428.11674 437.204 440.23674 444.48039 448.72404 453.57859 463.27677 469.04768 478.4404 482.68406 488.7495 497.2368 505.11317 511.17863 516.6332 520.90957 525.1532 530.00778 534.2841">appointmentorremovalofsubsidiarymanagersordirectorsonlyaspermittedbytheCharter,</tspan></text>
<text xml:space="preserve" transform="matrix(1 0 -0 1 0 792)" font-size="10.9091" font-family="LMRoman10"><tspan y="-664.40798" x="72">&#x2022;</tspan></text>
<text xml:space="preserve" transform="matrix(1 0 -0 1 0 792)" font-size="10.9091" font-family="LMRoman10"><tspan y="-664.40798" x="85.94183 90.2182 95.072757 100.832759 103.865489 108.72003 120.22913 125.683689 132.66551 138.42552 144.49098 149.94553 154.2219 158.46553 163.32009 167.58554 170.61827 180.02193 184.2983 189.15285 195.52376 200.9783 205.25467 209.4983 217.42923 221.7056 226.56015 232.32016 238.38562 241.41835 245.69472 250.54927 260.24745 266.00746 275.4111 281.47657 286.33113 291.18568 295.42933 298.46205 303.9166">reviewofquarterlyreportsrequiredbySection</tspan></text>
<text xml:space="preserve" transform="matrix(1 0 -0 1 0 792)" font-size="10.9091" font-family="LMRoman10"><tspan y="-664.40798" x="313.61479 319.06935 322.10206">6.5</tspan></text>
<text xml:space="preserve" transform="matrix(1 0 -0 1 0 792)" font-size="10.9091" font-family="LMRoman10"><tspan y="-664.40798" x="331.18934 336.6439 342.70936 352.41847 358.48393 363.33848 368.19303 372.43669 375.4694 380.92396">andSection</tspan></text>
<text xml:space="preserve" transform="matrix(1 0 -0 1 0 792)" font-size="10.9091" font-family="LMRoman10"><tspan y="-664.40798" x="390.62214 396.0767 399.1094">6.7</tspan></text>
<text xml:space="preserve" transform="matrix(1 0 -0 1 0 792)" font-size="10.9091" font-family="LMRoman10"><tspan y="-664.40798" x="404.56398">,</tspan></text>
<text xml:space="preserve" transform="matrix(1 0 -0 1 0 792)" font-size="10.9091" font-family="LMRoman10"><tspan y="-642.092" x="72">&#x2022;</tspan></text>
<text xml:space="preserve" transform="matrix(1 0 -0 1 0 792)" font-size="10.9091" font-family="LMRoman10"><tspan y="-642.092" x="85.94183 90.79639 96.86185 100.200038 105.65459 109.930957 114.78551 119.64006 128.72734 133.5819 139.3419 147.21828 152.67282 157.52738 161.77101 164.80374 170.25829 176.32375 184.26558 189.72013 195.78559 205.48378 209.78197 215.55289 221.61835 225.86199 231.92745 237.07654 244.95291 251.01837 256.47294 262.5384 265.5711 271.02568 275.88023 280.1784 284.42207 293.50935 298.3639 304.1239 312.0112 317.46577 322.3203 326.56398 329.59669 335.05125 341.1167 349.0476 355.11308 361.17854 367.244 372.09855 380.00764 386.08399 390.92765 395.7822 400.02586 403.05857 408.51313">enforcementactionsandshutdown/divestmentactionsunderSection</tspan></text>
<text xml:space="preserve" transform="matrix(1 0 -0 1 0 792)" font-size="10.9091" font-family="LMRoman10"><tspan y="-642.092" x="418.22224 423.6768 426.7095">6.6</tspan></text>
<text xml:space="preserve" transform="matrix(1 0 -0 1 0 792)" font-size="10.9091" font-family="LMRoman10"><tspan y="-642.092" x="432.16407">.</tspan></text>
<text xml:space="preserve" transform="matrix(1.0099504 0 -0 .99014756 0 792)" font-size="11.017651" font-family="LMRoman10"><tspan y="-621.91848" x="71.290637 78.793659 84.61098 89.51383 94.41668 100.542499 109.40069 112.77209 118.280918 127.172168 131.45803 137.58383 147.048 152.25936 157.7792 162.68207 167.00098 171.34194 174.40485 179.91368 185.74202 194.60022 197.97162 204.09743 210.22325 215.1261 219.41197 222.47487 227.9837 234.10951 243.02281 247.91466 253.73198 259.86885 262.92073 265.9836 270.88645 273.94938 278.23524 281.29817 291.6878 296.59065 302.41899 308.5448 317.72248 322.62535 326.94425 332.45307 336.73896 341.64179 352.33995 355.40284 366.10099 370.38688 376.51268 379.5756 388.47785 392.81883 398.95567 405.08146 409.42243 414.3253 419.22813 423.51399 426.56587 432.07469 442.77284 448.28166 454.40748 465.1056 468.16853 478.86668 483.15254 489.27836 498.7535 504.26234 510.38819 516.514 519.5769 522.63986 527.54269 533.0515">Exceptfortheoversightfunctionsexplicitlyenumeratedinthissubsectionandintheapplica-</tspan><tspan y="-608.2346" x="71.290637 77.41644 80.47935 89.45873 95.58455 101.710369 107.836177 112.17713 115.240039 121.36585 124.42876 129.93759 134.2565 144.15035 152.7992 157.99953 163.51938 168.42223 172.74115 178.86696 184.3758 190.5016 195.40447 204.38387 212.3386 218.46442 223.97324 228.29216 232.57802 237.48088 241.79979 249.04941 253.33527 259.4611 268.44047 277.08934 282.30067 287.8095 292.71235 297.03129 303.15708 306.22 312.3458 321.93116 329.73167 335.53794 341.6748 351.55763 360.43785 366.56364 370.9046 379.267 385.39283 390.90165 399.26405 405.38987 408.45277 412.7717 417.67454 422.5774 430.92878 437.0546 442.2659 448.08326 451.7521 456.038 461.5468 465.21568 471.3415 476.55284 486.4467 490.78767 496.91346 503.03929 507.38023 510.4431 516.5689 519.63186 525.1407 529.4596">bleSubsidiaryGovernanceCharter,theGoverningBodymustnotdirectday-to-daysubsidiary</tspan></text>
<text xml:space="preserve" transform="matrix(1 0 -0 1 0 792)" font-size="10.9091" font-family="LMRoman10"><tspan y="-588.692" x="72 77.45455 83.82547 88.68002 92.95639 98.41094 102.65458 105.68731 111.14186 117.20732 121.50551">operations.</tspan></text>
<text xml:space="preserve" transform="matrix(.995992 0 -0 1.0040242 0 792)" font-size="10.8653759" font-family="LMRoman10"><tspan y="-566.091" x="72.28974 80.438777 89.51136 93.79232 99.833469 105.87462 110.16644 113.176158 119.228168 122.24874 127.68143 131.9298 141.31749 146.75019 151.87865 157.31134 162.14644 166.40567 172.44683 177.87952 183.92066 188.75576 197.23076 200.25133 206.29248 210.57343 214.80005 219.05928 225.10044 234.15129 238.98639 244.72332 248.94995 255.62129 261.96665 267.39936 270.41993 273.44047 278.27555 283.0889 289.76026 295.19294 303.09208 309.1332 313.39244 318.82514 323.66023 327.88685 330.9074 335.7425 344.21748 353.2683 358.3968 367.7845 374.12986 382.60484 386.83146 391.0907 395.92579 401.35847 405.58509 410.42018 420.10124 425.5339 433.46565 438.30073 442.55998 447.39506 452.82774 457.05436 460.06404 466.11607 475.18867 480.62135 486.6625 490.88914 496.93028 502.36299 506.6222 509.64277 513.5651 522.94198 528.0704 533.50308 538.33816">Nosubsidiarygovernanceinstrument,policy,orpracticemaybetreatedascreatingauthorityover</tspan></text>
<text xml:space="preserve" transform="matrix(1 0 -0 1 0 792)" font-size="10.9091" font-family="LMRoman10"><tspan y="-554.819" x="72 80.18182 85.03638 96.54548 104.880039 110.33459 115.78914 121.24369 126.098239 130.3746 133.40734 138.86188 144.92734 154.63645 160.99645 165.851 171.31647 176.77101 182.83647 192.53467 196.7783 202.84377 211.33106 216.7856 221.9456 227.40016 232.25472 236.53108 242.59654 245.62928 251.69474 260.782 266.84748 269.8802 274.73475 279.0111 284.46568 288.74205 293.29115 299.05116 308.4548 311.48753 321.1857 327.25117 332.1057 336.96028 341.20393 344.23664 349.6912">NewDoggerlandbeyondthegoverninghierarchyinSection</tspan></text>
<text xml:space="preserve" transform="matrix(1 0 -0 1 0 792)" font-size="10.9091" font-family="LMRoman10"><tspan y="-554.819" x="359.38938">2</tspan></text>
<text xml:space="preserve" transform="matrix(1 0 -0 1 0 792)" font-size="10.9091" font-family="LMRoman10"><tspan y="-554.819" x="364.84394">.</tspan><tspan y="-534.496" x="72 82.00365 88.06911 92.312747 97.767299 103.832759 106.865489 109.89822 112.93095 116.869129 122.62913 130.5164 138.69823 144.76369 149.31279 155.37825 160.8328 166.89826 172.3528 177.20735 182.6619 188.72736 191.76009">Mutability:Unchangeable</tspan></text>
<text xml:space="preserve" transform="matrix(1 0 -0 1 0 792)" font-size="11.9552" font-family="LMRoman12" font-weight="bold"><tspan y="-505.287" x="72 78.73078 82.47276">6.4</tspan></text>
<text xml:space="preserve" transform="matrix(1 0 -0 1 0 792)" font-size="11.9552" font-family="LMRoman12" font-weight="bold"><tspan y="-505.287" x="99.29373 106.76573 114.23773 121.70973 127.01784 130.75981 138.23181 141.97379 148.51328 154.01267 165.59726 175.31684 182.0476 189.5196 193.25562 196.99161 200.73358 206.71118 211.94756 221.73886 228.27835 235.75035 247.70555 257.73597 263.869 267.61097 274.15046 279.38685 285.51988 292.99189 297.4751 306.29804 312.83753 318.3369 323.19075 334.77534 343.01246 348.51185 355.05134 362.52333 367.83143 374.3709 380.3485 385.5849 389.32688 396.05766 403.52967">SubsidiaryConflictsandRelated-PartyTransactions</tspan></text>
<text xml:space="preserve" transform="matrix(1.0099504 0 -0 .99014756 0 792)" font-size="11.017651" font-family="LMRoman10"><tspan y="-489.51698" x="70.89061 79.15385 82.21676 90.05031 98.1593 103.06216 106.12506 111.63389 115.91976 120.82261 126.948429 130.6173 137.82286 143.33168 147.6506 151.63899 162.22695 169.27825 173.59717 179.10599 185.24283 189.58379 195.0926 199.99547 204.28133 207.33322 212.84206 218.97888 228.09049 232.37635 237.88518 246.99678 253.1226 258.02546 261.08836 264.15126 270.27708 275.1799 286.0874 289.1503 300.04676 306.17259 311.07545 315.97828 320.26417 323.32707 328.83589">AllRelated-PartyTransactions(asdefinedinSection</tspan></text>
<text xml:space="preserve" transform="matrix(1.0099504 0 -0 .99014756 0 792)" font-size="11.017651" font-family="LMRoman10"><tspan y="-489.51698" x="339.73234 345.24116 348.30406 353.81288">4.18</tspan></text>
<text xml:space="preserve" transform="matrix(1.0099504 0 -0 .99014756 0 792)" font-size="11.017651" font-family="LMRoman10"><tspan y="-489.51698" x="359.3217 368.38923 373.29209 378.80088 384.9267 389.26768 393.55354 396.61647 400.9023 407.02815 411.314 420.9875 431.09068 436.5995 440.88536 445.7882 450.10716 453.17005 458.67887 466.51243 474.47816 479.381 483.66688 486.7298 492.23863 498.3644 507.48707 513.61288 519.7387 525.8645 530.7674">)constituteMaterialActionsunder</tspan></text>
<text xml:space="preserve" transform="matrix(1 0 -0 1 0 792)" font-size="10.9091" font-family="LMRoman10"><tspan y="-471.144" x="72 78.06546 82.92001 87.77457 92.0182 95.050937 100.505489">Section</tspan></text>
<text xml:space="preserve" transform="matrix(1 0 -0 1 0 792)" font-size="10.9091" font-family="LMRoman10"><tspan y="-471.144" x="110.203678 115.658229 118.690959 124.14551">4.10</tspan></text>
<text xml:space="preserve" transform="matrix(1 0 -0 1 0 792)" font-size="10.9091" font-family="LMRoman10"><tspan y="-471.144" x="133.2437 138.69824 144.7637 154.4619 158.73827 163.59282 169.35283 175.41829 178.45102 182.72739 191.21468 200.31287 208.34197 213.19652 218.04016 223.4947 227.77108 233.83654 238.69109 248.40019 256.73475 261.5893 266.44386 269.47657 273.77476 276.80747 282.26203 291.9602 299.08387 304.53843 308.78208 314.55299 322.1239 327.273 336.66575 342.7312 348.80757 354.87303 359.72758 367.63667 373.70213 378.55668 383.41123 387.65489 390.6876 396.14216">andrequireaRecordedDecisionPathwayunderSection</tspan></text>
<text xml:space="preserve" transform="matrix(1 0 -0 1 0 792)" font-size="10.9091" font-family="LMRoman10"><tspan y="-471.144" x="405.84034 411.2949 414.3276 419.78218">4.11</tspan></text>
<text xml:space="preserve" transform="matrix(1 0 -0 1 0 792)" font-size="10.9091" font-family="LMRoman10"><tspan y="-471.144" x="425.23674">.</tspan><tspan y="-450.821" x="72 80.18182 89.269107 97.2982 102.152759 105.185489 110.64004 114.883678 119.73822 125.80368 129.43642 136.57097 142.02552 146.30188 150.24007 159.63282 166.60373 170.8801 176.33464 182.4001 186.69829 192.15283 197.00739 201.25102 204.28376 209.7383 219.4365 228.52378 233.67287 243.07653 249.43653 257.93473 263.38929 269.45475 275.5202 279.79658 284.94569 290.40025 295.2548 304.9639 311.02937 317.09483 320.12754 324.9821 329.28028 333.57847">NoRelated-PartyTransactionmaybeapprovedunless:</tspan></text>
<text xml:space="preserve" transform="matrix(1 0 -0 1 0 792)" font-size="10.9091" font-family="LMRoman10"><tspan y="-424.519" x="72">&#x2022;</tspan></text>
<text xml:space="preserve" transform="matrix(.9929753 0 -0 1.0070744 0 792)" font-size="10.832467" font-family="LMRoman10"><tspan y="-421.53697" x="86.54798 91.96422 94.97565 101.648448 107.97461 112.79505 117.04138 121.30938 126.72562 132.74846 140.67783 148.49886 151.51029 155.72412 165.41918 174.49678 184.43016 189.8464 194.06024 198.88069 203.12702 206.13843 211.55467 218.22747 225.30106 228.31249 234.33533 239.75157 245.77443 250.59488 253.6063 259.02253 265.6953 269.60585 275.32539 279.5392 284.34886 288.59516 293.41563 297.6836 305.56965 309.78349 315.1997 323.12907 329.15193 333.97236 336.98377 339.9952 346.01805 350.8385 360.5227 363.53413 373.21833 379.24119 384.0616 388.88209 393.09593 396.10734 401.52357">allpersonswithaMaterialFinancialInterest(asdefinedinSection</tspan></text>
<text xml:space="preserve" transform="matrix(.9929753 0 -0 1.0070744 0 792)" font-size="10.832467" font-family="LMRoman10"><tspan y="-421.53697" x="411.20777 416.624 419.6354 425.05165">4.21</tspan></text>
<text xml:space="preserve" transform="matrix(.9929753 0 -0 1.0070744 0 792)" font-size="10.832467" font-family="LMRoman10"><tspan y="-421.53697" x="430.46788 438.34306 443.75929 448.00559 456.48744 459.80216 465.82499 468.8364 471.84785 481.22874 487.25157 490.263 494.53099 499.35145 502.36286 507.77909 512.04708 516.8675 526.55178 531.96798 538.00167">)arefullydisclosedand</tspan></text>
<text xml:space="preserve" transform="matrix(1 0 -0 1 0 792)" font-size="10.9091" font-family="LMRoman10"><tspan y="-410.97" x="85.94 89.27819 95.34365 98.37638 101.40911 110.80184 115.07821 119.932758 124.78731 130.85277 135.15096 140.00551 149.71462 153.0528 157.32917 162.7837 175.50373 181.56919 184.60192 188.9001 193.75466 199.82012 204.1183 208.41649 211.44922 216.90377 222.96923 229.63469 232.66742 238.74379 241.77652 244.80925 250.87471 255.72927 261.7947 266.64927 271.5038 278.16926 283.6238 289.68928 299.38746 304.842 310.29658 314.54023 319.39479">fullyrecusedfromdiscussion,influence,andvote,</tspan></text>
<text xml:space="preserve" transform="matrix(1 0 -0 1 0 792)" font-size="10.9091" font-family="LMRoman10"><tspan y="-388.654" x="72">&#x2022;</tspan></text>
<text xml:space="preserve" transform="matrix(1.0099504 0 -0 .99014756 0 792)" font-size="11.017651" font-family="LMRoman10"><tspan y="-392.5213" x="85.09329 89.37916 95.504978 104.29706 108.582927 112.90185 118.41067 124.536479 128.87744 134.38628 139.28913 143.575 146.6379 152.14673 162.16178 165.22469 173.46588 179.5917 185.398 190.30086 196.42668 205.60439 210.50724 216.33559 220.62145 225.5243 235.53936 241.04817 249.27837 252.64978 258.1586 261.22154 265.54045 272.5697 278.69554 284.20436 290.33018 293.99903 298.9019 304.7192 309.0051 313.324 318.83283 323.7357 328.02156 331.08448 336.6043 341.50715 348.5254 354.0342 360.17106 370.18608 375.6949 383.87 389.37879 397.58695 404.01026 408.9131 413.19898 417.48484 422.3877 430.60688 434.89274 441.01856 446.52738 456.5424 465.7201 471.2289 475.54786 481.0677 485.97053 494.14564 498.4315 503.33436 507.65327 516.831 525.06118 529.347">thetransactionisdocumentedasfair,non-extractive,andatorbetterthanmarkettermsto</tspan></text>
<text xml:space="preserve" transform="matrix(1 0 -0 1 0 792)" font-size="10.9091" font-family="LMRoman10"><tspan y="-375.105" x="85.94 94.121829 98.97638 110.48548 118.82004 124.27459 129.72914 135.18369 140.03824 144.3146 147.34734 152.80188 158.86734 168.57645 174.03099 181.9401 186.18373 192.24919 200.73648 206.19103 209.37104 212.55103 217.40558 222.26013 226.50377 231.35832 241.05652 245.3547 251.43108 257.49653 261.7947 264.82743 270.89289 273.9256 279.38017 283.65653 288.50019">NewDoggerlandortheaffectedsubsidiary,</tspan></text>
<text xml:space="preserve" transform="matrix(1 0 -0 1 0 792)" font-size="10.9091" font-family="LMRoman10"><tspan y="-352.78804" x="72">&#x2022;</tspan></text>
<text xml:space="preserve" transform="matrix(1 0 -0 1 0 792)" font-size="10.9091" font-family="LMRoman10"><tspan y="-352.78804" x="85.94183 90.18547 96.25093 104.76003 113.32368 118.47277 123.927318 128.78186 133.05823 139.12369 142.15642 148.22188 157.33097 165.05461 170.8037 176.86916 186.2837 190.56008 195.41463 200.26918 205.72373 210.00009 216.06555 224.01828 228.26192 234.32738 242.82558 248.89104 254.34558 258.64378 261.67649 269.6292 272.9674 278.42198 286.35289 289.69108 295.14564 298.17835 302.4547 308.52018 313.37474 317.6729 325.61476 330.4693 335.92387 341.68388 345.92753 350.78208 359.86936 366.24028 371.69483 375.9712 381.42576 387.4912 392.34577 397.80033 403.86579 408.16398 411.1967 420.61125 423.64396 433.36396 437.6076 443.67308 452.17127 460.20036 465.0549 469.90946 475.364 479.64039 485.70585 490.5604 500.2804 508.61497 513.4695 518.32406 521.35678 525.6549 528.6876 534.14218">theGoverningBodyrecordsthebasisforfairnesscontemporaneouslyintheRecordedDecision</tspan><tspan y="-339.239" x="85.94 93.063648 98.518199 102.76183 108.532749 116.10366 121.252758 126.1073">Pathway.</tspan></text>
<text xml:space="preserve" transform="matrix(.9969955 0 -0 1.0030136 0 792)" font-size="10.876323" font-family="LMRoman10"><tspan y="-311.99775" x="71.81175 83.634319 89.68155 95.72879 101.776027 106.0613 109.084918 115.13216 118.15577 123.59393 127.85745 137.26548 145.8034 150.93703 156.3752 161.21517 165.47869 171.52591 176.96408 183.01132 187.85129 196.34569 204.1984 210.24564 215.6838 219.94731 224.1782 229.01818 236.94702 245.70247 251.7497 256.03498 263.93119 266.9548 273.002 277.84196 280.86558 286.91279 292.96003 301.4544 310.55787 319.61784 324.4578 328.9932 335.04045 340.47859 346.5258 349.5494 354.38935 359.8275 366.51643 371.34553 376.78367 382.84178 385.8654 388.88899 391.9126 396.75254 404.63786 408.92314 413.7631 418.02659 422.86656 427.70649 433.75373 436.7773 442.82456 451.928 459.47618 464.91435 469.17784 474.92054 477.94416 480.96775 486.10136 497.61936 503.05754 509.10475 518.80648 527.5619 533.60916 537.8944">ASubsidiaryGovernanceChartermustincludeamechanicalconflictscreeningworkflowandmust</tspan></text>
<text xml:space="preserve" transform="matrix(1.0099504 0 -0 .99014756 0 792)" font-size="11.017651" font-family="LMRoman10"><tspan y="-302.36708" x="71.290637 77.41644 81.73536 87.244197 93.37 96.432918 102.55872 105.62163 113.840808 116.90371 123.029529 126.400928 131.90976 136.22867 145.40637 150.9152 157.92243 163.43126 171.68349 177.8093 183.9351 190.06093 195.86722 200.77008 206.89589 216.07361 220.97646 226.80481 231.09067 235.99353 246.06366 251.57248 255.8914 260.21034 265.71916 271.84498 277.3538 282.25663 291.43434 296.32615 302.15446 306.44035 314.72563 321.14894 326.05177 330.04017 337.68644 342.58927 347.49214 357.56227 365.8255 370.72834 382.6164 391.0339 396.54273 402.0515 407.56034 412.4632 416.7821 419.84504 425.35386 431.47966 441.53877 447.04759 453.1734 463.24354 468.75236 474.5807 484.33134 492.28608 497.7949 503.62324 507.90907 512.22799 517.7368 520.79977 523.8626 528.7655">prohibitinformalorundocumentedarrangementsbetweenNewDoggerlandandanyControlled</tspan></text>
<text xml:space="preserve" transform="matrix(1 0 -0 1 0 792)" font-size="10.9091" font-family="LMRoman10"><tspan y="-285.839" x="72 78.06546 84.13092 90.19638 94.49457 97.5273 103.59276 106.62549 112.08004 116.35641 121.21095">Subsidiary.</tspan><tspan y="-265.51499" x="72 82.00365 88.06911 92.312747 97.767299 103.832759 106.865489 109.89822 112.93095 116.869129 122.62913 130.5164 138.69823 144.76369 149.31279 155.37825 160.8328 166.89826 172.3528 177.20735 182.6619 188.72736 191.76009">Mutability:Unchangeable</tspan></text>
<text xml:space="preserve" transform="matrix(1 0 -0 1 0 792)" font-size="11.9552" font-family="LMRoman12" font-weight="bold"><tspan y="-236.30599" x="72 78.73078 82.47276">6.5</tspan></text>
<text xml:space="preserve" transform="matrix(1 0 -0 1 0 792)" font-size="11.9552" font-family="LMRoman12" font-weight="bold"><tspan y="-236.30599" x="99.29373 106.76573 114.23773 121.70973 127.01784 130.75981 138.23181 141.97379 148.51328 154.01267 165.59726 174.7908 180.29019 187.02097 190.75696 194.49297 204.21254 214.51793 218.2599 223.56801 228.80438 234.30377 238.04575 245.51775 252.98975 258.22615 261.9681 268.69889 280.6541 287.1936 294.6656 306.6208 316.6512 322.78425 328.09236 334.22538 339.72477 346.45555 357.07179 365.8947 372.6255 376.36747 380.10945 386.08705">SubsidiaryProfitDistributionandReservePolicy</tspan></text>
<text xml:space="preserve" transform="matrix(.9899495 0 -0 1.0101526 0 792)" font-size="10.799458" font-family="LMRoman10"><tspan y="-213.54595" x="72.73098 80.08541 85.48514 89.98851 99.643238 107.44044 112.84017 118.54228 122.74327 126.97666 132.3764 135.37865 138.3809 143.18666 152.84137 158.84587 164.85037 170.85488 175.10987 178.1121 184.11661 187.11887 192.51859 196.75199 206.11511 214.79787 220.81317 225.06815 232.91936 238.31908 244.62596 249.43173 253.66512 259.06483 263.2658 271.73255 277.73707 283.74156 289.74607 294.5518 302.4354 311.49613 317.5006 323.20274 328.00849 334.01298 343.00895 347.8147 353.51679 357.71778 362.52354 372.17823 378.18275 382.4161 387.81584 390.81809 393.82035 401.6823 407.6868 410.68907 414.94404 419.14503 423.3784 426.38066 432.38514 438.38966 442.5906 445.59288 450.99259 460.6473 466.04704 472.06233 481.71705 485.9504 490.75617 495.01115 499.8169 504.05027 509.44999 517.906 524.2128 529.61257 532.6148 535.617 540.4227">EachControlledSubsidiarymustoperateunderadocumentedprofitdistributionandreservepolicy</tspan></text>
<text xml:space="preserve" transform="matrix(1 0 -0 1 0 792)" font-size="10.9091" font-family="LMRoman10"><tspan y="-202.164" x="72 76.85455 82.309108 88.06911 92.312747 97.767299 100.800029 106.865489 111.72003 121.42913 124.46186 134.16005 137.19278 141.43642 149.36734 155.4328 161.49826 167.56372 171.86191 174.89464 180.97101 183.99283 189.44738 193.72374 203.1274 211.69104 216.84014 222.2947 227.14925 231.42562 237.49108 242.94562 249.01108 253.86563 262.3529 270.22929 276.30564 281.7602 286.02568 290.26933 295.12388 299.40025">containedinitsSubsidiaryGovernanceCharter.</tspan></text>
<text xml:space="preserve" transform="matrix(.99949988 0 -0 1.0005003 0 792)" font-size="10.903644" font-family="LMRoman10"><tspan y="-181.75008" x="71.64284 79.51527 85.5777 94.06073 100.12315 104.97527 108.31179 113.76361 119.82604 122.857257 130.71878 137.0865 141.93863 146.21286 155.2956 158.3268 162.56832 166.80983 171.66196 181.34439 187.4068 190.43802 194.71225 199.56438 204.4165 208.65802 211.68923 217.14105 226.8344 232.28621 239.24274 244.40018 249.85199 252.88321 258.94563 267.41777 271.6593 275.93354 281.38536 287.44776 291.7438 295.0803 299.93244 307.8376 310.86878 318.78483 322.12135 326.39558 331.84739 344.561 348.85707 354.91947 360.9819 365.27793 368.30915 374.37156 377.40278 382.85459 387.1288 396.51686 400.7584 409.8302 418.00794 422.86009 434.3634 442.69383 448.14564 453.59748 459.0493 463.9014 468.16474 471.19596 476.64778 482.7211 488.7835 496.65596 503.6234 507.89765 513.3494 519.41189 523.7079 527.0444 531.8965 536.1707">ThedefaultpermitteddirectionofvaluetransferisfromsubsidiarytoNewDoggerland.Transfers</tspan></text>
<text xml:space="preserve" transform="matrix(1 0 -0 1 0 792)" font-size="10.9091" font-family="LMRoman10"><tspan y="-168.291" x="72 75.33819 79.614559 85.06911 97.789119 105.97094 110.825489 122.3455 130.68006 136.1346 141.58914 147.04369 151.89824 156.1746 159.20734 164.66188 170.72734 180.42554 184.66918 193.75646 199.211 204.98192 214.37467 222.25104 227.70558 233.46559 237.70923 241.9856 247.44014 250.47287 253.5056 258.36015 268.05833 274.12379 280.18925 286.2656 290.56379 293.5965 299.66197 302.69468 308.14924 312.4256 321.81834 327.2729 331.54927 340.03654 346.102 350.37837 355.83293 361.89839 364.9311 370.99656 374.02928 378.27293 383.12748 392.83659 398.90205 404.9675 408.0002 412.85478 417.15296 421.45115">fromNewDoggerlandtoanyControlledSubsidiaryareprohibitedunless:</tspan></text>
<text xml:space="preserve" transform="matrix(1 0 -0 1 0 792)" font-size="10.9091" font-family="LMRoman10"><tspan y="-141.99" x="72">&#x2022;</tspan></text>
<text xml:space="preserve" transform="matrix(1 0 -0 1 0 792)" font-size="10.9091" font-family="LMRoman10"><tspan y="-141.99" x="85.94183 90.24002 94.48366 98.760028 104.825489 109.68004 113.923679 119.989139 124.2655 129.12006 138.81826 144.2728 152.21463 161.30191 169.17829 173.45465 176.48738 180.73102 184.97466 189.82921 195.89467 202.56014 211.64742 217.10196 221.37833 226.8438 231.68744 235.93108 239.56381 243.84018 249.29473 253.53836 262.03657 265.06929 270.52384 275.9784 285.67658 291.13114 299.04023 305.10569 310.8657 315.72026 321.7857 330.873 335.72755 341.48756 345.7312 350.58576 360.29487 365.1494 370.60398 376.66944 379.70216 383.9458 389.40037 396.0658 400.92036 406.3749 412.13493 416.37858 420.65495 423.68766 429.7531 435.81858 440.06224 443.09495 448.5495 454.61497">structuredasawritten,market-rateloanordocumentedcapitalcontribution,</tspan></text>
<text xml:space="preserve" transform="matrix(1 0 -0 1 0 792)" font-size="10.9091" font-family="LMRoman10"><tspan y="-119.674" x="72">&#x2022;</tspan></text>
<text xml:space="preserve" transform="matrix(1 0 -0 1 0 792)" font-size="10.9091" font-family="LMRoman10"><tspan y="-119.674" x="85.94183 91.396389 97.461849 103.527309 107.80367 112.95277 118.41822 123.261859 132.97097 138.4255 146.35643 155.45462 165.45827 170.91281 175.15645 180.00009 184.27646 187.30919 192.76374 199.44011 207.31649 212.17104 216.41468 219.4474 224.90195 234.60015 240.37107 249.76381 255.82927 261.8947 268.26564 273.12019 277.39656 286.48384 292.23295 295.58204 301.0366 305.31297 308.33479 312.28388 321.6766 327.13117 332.58573 336.82939 345.32759 351.39305 357.4585 363.52397 368.3785 376.2876 382.35307 387.2076 392.06217 396.30583 399.33854 404.7931">approvedasaMaterialActionbySupermajorityvoteunderSection</tspan></text>
<text xml:space="preserve" transform="matrix(1 0 -0 1 0 792)" font-size="10.9091" font-family="LMRoman10"><tspan y="-119.674" x="414.49128 419.94584 422.97856">4.5</tspan></text>
<text xml:space="preserve" transform="matrix(1 0 -0 1 0 792)" font-size="10.9091" font-family="LMRoman10"><tspan y="-119.674" x="428.4331">,</tspan></text>
<text xml:space="preserve" transform="matrix(1 0 -0 1 0 792)" font-size="10.9091" font-family="LMRoman10"><tspan y="-97.357" x="72">&#x2022;</tspan></text>
<text xml:space="preserve" transform="matrix(1 0 -0 1 0 792)" font-size="10.9091" font-family="LMRoman10"><tspan y="-97.357" x="85.94183 92.00729 97.7673 102.62186 108.68732 117.7746 122.62915 128.38916 132.6328 137.48735 147.18555 155.06192 158.09465 162.33829 172.0474 181.13468 189.16378 194.01833 198.87288 204.32743 208.60379 214.66925 219.5238 229.222 237.55655 242.4111 247.26566 250.29839 254.59658 257.6293 263.08387 272.79298 279.91664 285.3712 289.61485 295.37486 302.94578 308.10578 317.4985 323.56398 329.62944 335.6949 340.54945 348.45854 354.524 359.37855 364.2331 368.47676 371.50947 376.96403">documentedwithaRecordedDecisionPathwayunderSection</tspan></text>
<text xml:space="preserve" transform="matrix(1 0 -0 1 0 792)" font-size="10.9091" font-family="LMRoman10"><tspan y="-97.357" x="386.67314 392.1277 395.1604 400.61497">4.11</tspan></text>
<text xml:space="preserve" transform="matrix(1 0 -0 1 0 792)" font-size="10.9091" font-family="LMRoman10"><tspan y="-97.357" x="406.06953">,</tspan></text>
<text xml:space="preserve" transform="matrix(1 0 -0 1 0 792)" font-size="10.9091" font-family="LMRoman10"><tspan y="-42.112005" x="300.54499 305.99955">21</tspan></text>
</svg>
