<svg xmlns="http://www.w3.org/2000/svg" xmlns:xlink="http://www.w3.org/1999/xlink" xmlns:inkscape="http://www.inkscape.org/namespaces/inkscape" version="1.1" width="612" height="792" viewBox="0 0 612 792">
<text xml:space="preserve" transform="matrix(1 0 -0 1 0 792)" font-size="10.9091" font-family="LMRoman10" font-weight="bold"><tspan y="-709.041" x="72 78.97092 83.84728 89.94547 94.82184 101.792758 106.74548">Status:</tspan></text>
<text xml:space="preserve" transform="matrix(1 0 -0 1 0 792)" font-size="10.9091" font-family="LMRoman10"><tspan y="-709.041" x="115.06913 123.25095 128.7055 134.78188 138.41461 144.48007 147.5128 153.57826 159.64373 162.67646 168.74192 177.8292 181.16738 186.62192 192.68738 198.75284 204.8183 209.67285 213.94922 217.58196 223.0365 227.31287 230.3456 235.80014 238.83287 248.53107 253.38562 259.14564 265.2111 268.2438 273.69837 279.77473 285.22929 289.47294 294.9275 299.19297 308.59663 314.66209 320.4221 325.27665 331.3421 340.42939 345.28395 351.04396 358.92033 363.16398 369.22944 374.08399 378.36036 381.39308 386.84764 391.70219 397.76765">Non-bindingfounder-originexplanatorydocument(derived)</tspan></text>
<text xml:space="preserve" transform="matrix(1.0029956 0 -0 .9970134 0 792)" font-size="10.941778" font-family="LMRoman10" font-weight="bold"><tspan y="-697.57546" x="71.309398 80.46766 87.45945 92.350429 99.342227 105.63375 110.82015 114.310588 118.862369 125.50402">Authority:</tspan></text>
<text xml:space="preserve" transform="matrix(1.0029956 0 -0 .9970134 0 792)" font-size="10.941778" font-family="LMRoman10"><tspan y="-697.57546" x="133.81978 139.90341 145.98703 152.37703 157.84792 162.1371 168.22072 171.26255 177.34618 182.81707 187.07341 195.56424 199.8206 208.91323 214.07775 222.28408 227.15317 238.6858 247.04534 252.51622 257.9871 263.45799 268.31614 272.60533 275.64714 281.118 287.20167 296.91798 306.01057 313.91053 319.3814 325.46507 329.77613 335.247 338.28883 341.33067 347.41429 352.88517 357.14155 362.01063 371.71598 380.30528 385.4807 390.9516 395.82069 400.10987 406.1935 411.6644 417.74806 422.61714 431.1079 439.46745 445.24467 450.11378 456.1974 465.31193 470.181 475.95829 483.83634 489.6136 495.08448 498.1263 503.5972 506.639 512.1099 520.8962 526.36709 532.45077">Subordinateto&#x201c;NewDoggerland&#x2013;ConsolidatedGovernanceDocumentv0.5.2&#x201d;and</tspan></text>
<text xml:space="preserve" transform="matrix(1 0 -0 1 0 792)" font-size="10.9091" font-family="LMRoman10"><tspan y="-681.943" x="72 77.45455 80.48728 87.15274 93.2182 96.25093 102.31639 108.38185 111.41458 117.48004 126.57823 130.87642 135.42552 141.49098 146.34554 152.411 158.47646 161.50919 166.36374 174.29467 179.7492 185.81467 195.52378 200.97832 207.34923 212.20378 216.48015 221.9347 226.17833 229.21106 234.6656 240.73107 246.18561 252.85108 261.93836 267.3929 273.15293 279.21839 284.67295 287.70567">allbindingschedulesandoperationalmanuals</tspan></text>
<text xml:space="preserve" transform="matrix(1.0054849 0 -0 .9945449 0 792)" font-size="10.968936" font-family="LMRoman10" font-weight="bold"><tspan y="-672.0602" x="71.60725 80.22882 87.23797 92.43725 99.79739 106.10454 111.084438 116.86506">Purpose:</tspan></text>
<text xml:space="preserve" transform="matrix(1.0054849 0 -0 .9945449 0 792)" font-size="10.968936" font-family="LMRoman10"><tspan y="-672.0602" x="125.17951 133.4062 137.70604 141.97295 145.02231 149.90348 156.00222 159.05158 164.53604 168.80297 177.30388 182.18505 188.28379 198.00228 202.32402 206.59093 212.07541 216.34232 221.2235 227.88162 233.98036 238.86154 243.18329 246.23265 251.71714 261.43565 264.48503 270.28758 274.55448 279.43565 285.22727 289.49418 296.1633 305.30046 310.7849 315.05183 318.1012 323.28953 328.774 333.0409 336.09028 341.57475 347.67347 351.9952 358.66438 364.14884 370.24757 379.96604 384.2878 388.55473 394.03919 399.52366 404.3939 414.11238 420.2111 425.69557 429.9625 435.76506 443.37748 448.5658 457.97715 465.89674 468.9461 473.213 479.31175 484.7962 490.89494 498.77064 503.6518 507.95164 512.8328 518.31729 522.58419 525.63357 531.7323">Articulateendstate,designintent,motivations,andstagedpathwaywithoutcreating</tspan></text>
<text xml:space="preserve" transform="matrix(1 0 -0 1 0 792)" font-size="10.9091" font-family="LMRoman10"><tspan y="-654.844" x="72 77.45455 83.52001 87.76365 93.82911 99.28366 103.56003 106.59276 110.53094">authority</tspan></text>
<text xml:space="preserve" transform="matrix(1 0 -0 1 0 792)" font-size="10.9091" font-family="LMRoman10" font-weight="bold"><tspan y="-641.295" x="72 81.81819 85.298198 91.04729 96.2182 102.31639 107.487308 112.71276 119.33459 125.95641">Hierarchy:</tspan></text>
<text xml:space="preserve" transform="matrix(1 0 -0 1 0 792)" font-size="10.9091" font-family="LMRoman10"><tspan y="-641.295" x="134.29097 142.62552 147.48007 151.75644 154.77826 160.24373 165.09828 174.79648 179.07285 183.9274 189.99286 194.26923 199.12378 203.42197 208.27652 214.03653 218.28017 223.73471 227.97835 231.01108 236.46562 242.53108 249.20746 254.0511 259.50566 265.582 268.9202 273.77476 278.04023 285.98207 292.04753 301.1348 304.1675 310.23298 316.29844 321.15299 327.5239 332.37846 338.4439 344.50938 349.36393 355.12394 363.01124 368.4658 374.53126 378.7749 384.84037 390.29493 394.5713 397.604 401.5422">Derivedrepresentation;confersnoindependentauthority</tspan></text>
<text xml:space="preserve" transform="matrix(1 0 -0 1 0 792)" font-size="10.9091" font-family="LMRoman10" font-weight="bold"><tspan y="-627.746" x="72 83.912738 90.88365 95.76002 101.85821 108.829128 112.30913 115.78913 119.269138 123.79641 130.41823">Mutability:</tspan></text>
<text xml:space="preserve" transform="matrix(1 0 -0 1 0 792)" font-size="10.9091" font-family="LMRoman10"><tspan y="-627.746" x="138.75278 146.78188 151.63643 157.39644 160.42917 164.72736 170.1819 176.24736 179.28009 187.76738 192.01102 198.07648 203.53102 209.59648 213.22922 219.29468 222.32741 228.39287 234.45833 237.49106 243.55652 249.01107 253.2547 259.93107 264.22926 270.2947 276.65473 279.99293 284.84748 289.70204 297.58934 301.83299 310.92027 315.1639 321.22938 329.71665 338.0512 342.90577 347.18214 350.21485 355.37486 360.8294 365.07307 368.10578 373.56034 383.2585 388.71308 394.77854 404.4767 412.3531 417.80766 426.89494 432.97129 437.24766 442.0913 446.4004 450.69859 453.7313 459.18586 468.88404 476.31315 480.5895 483.62223 489.68769 494.54225 497.57496 503.6404 506.67314">Revisable(non-binding),subjecttotheDerivationandCompressionPrinciple</tspan></text>
<text xml:space="preserve" transform="matrix(1 0 -0 1 0 792)" font-size="14.3462" font-family="LMRoman12" font-weight="bold"><tspan y="-593.378" x="72">1</tspan></text>
<text xml:space="preserve" transform="matrix(1 0 -0 1 0 792)" font-size="14.3462" font-family="LMRoman12" font-weight="bold"><tspan y="-593.378" x="92.185108 104.80976 112.88667 121.85305 127.23288 138.96808 147.93445 154.21808 163.18445 171.26136 177.86061 182.35097 188.18987 202.09133 213.75479 218.24515 226.09252 235.05889 241.4286 254.16803 260.45167 272.48814 279.84773 288.36936 297.33573 301.82609 308.42533 315.7849 324.75129">Non-AuthorityClause(Required)</tspan></text>
<text xml:space="preserve" transform="matrix(1 0 -0 1 0 792)" font-size="10.9091" font-family="LMRoman10"><tspan y="-569.028" x="71.607 79.483379 85.548839 88.581569 96.51248 102.57794 108.33795 113.192508 119.257968 128.34525 133.1998 138.95981 143.20345">Thisdocument:</tspan></text>
<text xml:space="preserve" transform="matrix(1 0 -0 1 0 792)" font-size="10.9091" font-family="LMRoman10"><tspan y="-542.727" x="72">&#x2022;</tspan></text>
<text xml:space="preserve" transform="matrix(.9939819 0 -0 1.0060546 0 792)" font-size="10.843447" font-family="LMRoman10"><tspan y="-539.46078" x="86.46033 92.48929 98.21462 103.039958">does</tspan></text>
<text xml:space="preserve" transform="matrix(.9939819 0 -0 1.0060546 0 792)" font-size="10.843447" font-family="LMRoman10" font-weight="bold"><tspan y="-539.46078" x="110.977359 117.90632 124.1413">not</tspan></text>
<text xml:space="preserve" transform="matrix(.9939819 0 -0 1.0060546 0 792)" font-size="10.843447" font-family="LMRoman10"><tspan y="-539.46078" x="132.64255 138.06429 142.31491 147.73665 153.46199 161.33432 166.75606 172.78502 177.00312 183.03208 188.4538 192.70444 195.71892 199.6334 204.44789 211.11663 215.94196 220.19258 225.01792 230.43965 234.65775 243.14818 248.5699 254.59886 257.6133 260.6278 266.04954 271.47126 275.68937 278.70387 284.12559 290.15455 294.42686 301.09559 310.12818 315.85353 321.88249 324.89698 328.21507 337.6055 341.8236 347.85258 352.10319 356.92854 361.20085 367.2298 372.65153 375.66603 381.69496 385.9673 392.63603 397.46138 401.71199 406.5373 411.95906 416.17713 424.65675 431.00013 435.82548 440.07609 449.10868 452.11235 456.39549 460.66783 463.68229 469.10404 475.13298 479.4053 486.07405 491.49577 499.40065 504.82237 510.86216 515.08029 521.10928 526.53097 530.78158 533.796 538.6105">grantauthority,createobligations,modifythresholds,createpermissions,orauthorize</tspan></text>
<text xml:space="preserve" transform="matrix(1 0 -0 1 0 792)" font-size="10.9091" font-family="LMRoman10"><tspan y="-529.178" x="85.94 91.394557 96.2491 100.49274 103.52547 108.98002 115.04548 119.343669">actions;</tspan></text>
<text xml:space="preserve" transform="matrix(1 0 -0 1 0 792)" font-size="10.9091" font-family="LMRoman10"><tspan y="-506.861" x="72">&#x2022;</tspan></text>
<text xml:space="preserve" transform="matrix(1 0 -0 1 0 792)" font-size="10.9091" font-family="LMRoman10"><tspan y="-506.861" x="85.94183 92.00729 97.7673 102.62186">does</tspan></text>
<text xml:space="preserve" transform="matrix(1 0 -0 1 0 792)" font-size="10.9091" font-family="LMRoman10" font-weight="bold"><tspan y="-506.861" x="110.55277 117.52369 123.796428">not</tspan></text>
<text xml:space="preserve" transform="matrix(1 0 -0 1 0 792)" font-size="10.9091" font-family="LMRoman10"><tspan y="-506.861" x="132.30553 136.61463 142.68009 149.04009 153.89464 158.171 162.4692 167.32375 173.3892 181.8874 187.34195 193.10196 202.4947 208.56017 211.5929 217.65836 223.72382 226.75655 232.822 241.9202 247.37474 252.52384 257.9784 262.83296 267.1093 273.17478 278.62934 284.6948 289.54936 298.03663 304.10209 309.8621 314.71665 320.7821 329.8694 334.72395 340.48396 344.7276 351.40397 355.70216 360.25126 366.3167 371.17127 377.23674 383.3022 386.3349 391.18946 397.8549 403.30946 411.22947 416.68403 423.04405 427.8986 432.17497 437.62953 441.87318 444.90589 450.36045 456.4259 461.88047 468.55683 477.6441 483.09867 488.85868 494.92414 500.3787 503.4114">supersedeanybindinggovernancedocument,schedule,oroperationalmanual;</tspan></text>
<text xml:space="preserve" transform="matrix(1 0 -0 1 0 792)" font-size="10.9091" font-family="LMRoman10"><tspan y="-484.54499" x="72">&#x2022;</tspan></text>
<text xml:space="preserve" transform="matrix(.995992 0 -0 1.0040242 0 792)" font-size="10.8653759" font-family="LMRoman10"><tspan y="-482.60298" x="86.285839 92.32699 98.0639 102.898998">does</tspan></text>
<text xml:space="preserve" transform="matrix(.995992 0 -0 1.0040242 0 792)" font-size="10.8653759" font-family="LMRoman10" font-weight="bold"><tspan y="-482.60298" x="110.819858 117.762828 124.01042">not</tspan></text>
<text xml:space="preserve" transform="matrix(.995992 0 -0 1.0040242 0 792)" font-size="10.8653759" font-family="LMRoman10"><tspan y="-482.60298" x="132.49628 137.33138 141.5906 146.4257 151.8584 156.08502 164.56002 170.60117 174.86038 179.6955 184.5306 189.36569 195.40683 200.24193 205.97885 213.84539 219.27808 225.31922 234.98941 243.73604 249.78806 254.069 261.92469 267.96583 273.39854 281.26506 287.6104 296.0854 300.34465 305.17973 308.20027 311.22084 316.0559 325.7261 331.76728 338.1235 343.5562 353.2264 357.45304 366.52565 372.56678 377.40187 381.62849 386.46357 390.72279 399.77366 402.79423 408.83537 417.31034 421.56959 424.59013 430.02284 435.75975 439.9864 444.26734 450.92778 456.96894 463.01008 467.2367 470.25727 475.09236 479.3733 486.03376 492.37916 497.21424 501.47346 510.52433 513.54489 517.8258 522.10678 525.1274 530.56 536.60116 540.8821">createprecedentandmustnotbereliedupontodeterminerights,duties,permissions,</tspan></text>
<text xml:space="preserve" transform="matrix(1 0 -0 1 0 792)" font-size="10.9091" font-family="LMRoman10"><tspan y="-470.996" x="85.94 92.00546 96.28183 101.73638 107.80184 110.83457 116.90003 119.93276 124.1764 127.20913 132.66368 138.72914 143.02733 149.6928 155.14734 163.06735 167.9219 173.98737 177.32555 182.78009 187.05646 191.91101 196.76557 205.85285 210.7074 216.4674 224.34378 229.79833 235.86379 240.10742 244.96198 250.41652 259.50379 264.35835 268.65653">prohibitions,orenforcementoutcomes.</tspan></text>
<text xml:space="preserve" transform="matrix(1.0099504 0 -0 .99014756 0 792)" font-size="11.017651" font-family="LMRoman10"><tspan y="-449.11997" x="71.290637 75.268009 82.89222 88.40105 94.22938 104.2885 109.19135 114.70018 120.826 123.8889 126.951808 130.01471 134.91757 139.20343 146.68442 152.19326 161.06246 167.18827 170.25118 175.76 181.88582 184.94872 188.93712 193.862 201.33197 206.84079 215.41254 218.47544 224.60126 229.5041 235.01294 241.13875 245.47972 248.54262 252.88358 257.16947 262.0723 268.19813 273.10096 283.16007 288.06294 293.88026 296.94316 301.28413 305.57 314.1638 320.58708 325.48994 329.4783 337.1356 342.03843 346.94126 357.30888 361.59477 367.72056 370.78346 379.37724 385.50306 391.30937 396.2122 402.338 411.51573 416.41856 422.2469 430.78559 436.29438 442.4202 452.79884 457.08473 463.2105 472.35517 480.3099 485.81874 491.94453 496.2965 501.80534 504.8572 507.92015 514.05697 519.5658 523.8516 528.74349">Ifanyconflict,ambiguity,orinconsistencyexistsbetweenthisdocumentandtheConsolidated</tspan><tspan y="-435.43513" x="71.290637 79.93949 85.15083 90.67068 95.562519 99.88143 106.00725 111.516078 117.6529 122.54474 132.46062 140.87812 146.69545 151.5873 157.72412 166.90183 171.79367 177.62201 186.9209 191.20676 196.71559 206.04755 211.55637 217.38472 228.21506 234.34087 237.40378 242.91262 249.03842 253.94127 258.2602 261.92909 267.4379 271.75685 277.88264 282.7855 292.11747 295.18037 301.30619 305.64714 309.933 314.25196 320.37776 329.55546 334.45829 340.27565 344.5615 348.84739 357.27589 361.56175 367.68757 377.60346 383.72926 386.79219 392.301 398.4268 403.32966 407.64857 411.31745 416.82627 421.1452 427.271 432.17387 441.50584 444.56874 450.69456 455.03553 459.32139 463.64033 469.76615 478.94383 483.84669 489.675 498.9739 504.48274 509.68305 515.2029 520.1058 524.4247 530.5505">GovernanceDocument(oranyhigher-orderinstrument),thehigher-orderinstrumentgoverns</tspan></text>
<text xml:space="preserve" transform="matrix(1 0 -0 1 0 792)" font-size="10.9091" font-family="LMRoman10"><tspan y="-417.596" x="71.607 79.483379 82.516109 86.75974 92.8252 98.279758 104.345218 112.22158 117.076129 122.83613 127.690677 132.54523 138.61069 142.85433 145.88706 151.3416 157.40706">withoutexception.</tspan></text>
<text xml:space="preserve" transform="matrix(1 0 -0 1 0 792)" font-size="14.3462" font-family="LMRoman12" font-weight="bold"><tspan y="-383.228" x="72">2</tspan></text>
<text xml:space="preserve" transform="matrix(1 0 -0 1 0 792)" font-size="14.3462" font-family="LMRoman12" font-weight="bold"><tspan y="-383.228" x="92.185108 103.21733 112.18371 118.78296 128.19406 136.27097 142.64069 155.38011 163.45702 173.77193 184.99066 193.95703 198.44739 210.19693 222.56336 231.08499 238.25809 247.22446 260.68119 268.04078 276.5624">PurposeofThisDocument</tspan></text>
<text xml:space="preserve" transform="matrix(1.0084641 0 -0 .99160686 0 792)" font-size="11.001436" font-family="LMRoman10"><tspan y="-361.91664" x="71.3957 79.646778 84.54242 96.09393 104.49903 109.999759 115.50047 121.0012 125.89683 130.2094 133.26779 138.76851 144.88532 154.61058 157.66899 165.61203 168.67043 174.49019 178.76975 183.66538 189.48514 193.7647 196.8231 202.3238 208.44062 213.94133 216.99974 220.05814 229.47536 235.88922 240.78485 243.84326 249.96007 259.06925 265.18605 271.30287 274.36128 277.41966 285.3077 293.25074 296.3091 300.58869 310.31398 319.42317 324.92387 330.12754 335.63923 340.53486 344.8474 350.96424 356.46495 362.58174 367.4774 372.37303 376.0365 379.0949 382.1533 386.46586 390.8004 398.68846 404.18919 408.50175 413.08934 419.20616 422.26454 426.5441 431.43977 436.3354 440.61497 446.73176 451.0443 455.93995 463.817 471.76 477.8768 480.9352 488.87825 494.99507 500.80378 505.69944 511.8162 520.9804 525.87606 531.68478">NewDoggerlandisintentionallybeingbuiltwithagovernance-firstarchitecture.Thisdocument</tspan></text>
<text xml:space="preserve" transform="matrix(1 0 -0 1 0 792)" font-size="10.9091" font-family="LMRoman10"><tspan y="-345.329" x="72 76.85455 82.614559 85.647289 89.94547 94.18911 102.120029 106.36366 115.46185 119.76004 125.8255 131.89096 137.95642 140.98915 150.3819 158.25827 164.32373 169.77828 177.66556 183.1201 188.2692 193.72376 198.57831 202.85468 208.92014 214.37468 220.44014 225.2947 233.78199 239.84745 245.60744 250.46199 256.52745 265.61473 270.46928 276.22929 280.47294 288.41477 293.86933 298.1457 306.63298 312.69844 318.15299 326.02937 332.09483 336.94938 341.24757 344.28028 349.73484 355.8003 360.65486 370.36396 374.6076 383.6949 389.76036 395.2149 398.24763 404.31309">existstosupplywhatgovernancedocumentsarenotdesignedtohold:</tspan></text>
<text xml:space="preserve" transform="matrix(1 0 -0 1 0 792)" font-size="10.9091" font-family="LMRoman10"><tspan y="-319.028" x="72">&#x2022;</tspan></text>
<text xml:space="preserve" transform="matrix(1 0 -0 1 0 792)" font-size="10.9091" font-family="LMRoman10"><tspan y="-319.028" x="85.94183 90.18547 96.25093 104.73821 107.77094 113.541858 117.78549 122.640048 128.7055 134.77097 139.62552 149.32372 158.411 163.86554 168.10918 174.17464 178.451 186.9383 191.79285 197.8583 207.56742 211.8656 216.10924 221.56378 225.80742 234.29471 238.53835 243.68744 251.56381 257.62928 263.08384 270.9602 275.20387 281.26933 289.76753 292.80024 298.8657 303.16389 307.40754 310.44026 314.6839 320.74937 324.993 328.02574 333.4803 343.17848 349.54939 354.40394 359.25849 364.71305 373.80033 378.65489 382.95307 388.10218 392.34584">theintendedmatureendstate(&#x201c;whattheinstitutionbecomes&#x201d;),</tspan></text>
<text xml:space="preserve" transform="matrix(1 0 -0 1 0 792)" font-size="10.9091" font-family="LMRoman10"><tspan y="-296.712" x="72">&#x2022;</tspan></text>
<text xml:space="preserve" transform="matrix(1 0 -0 1 0 792)" font-size="10.9091" font-family="LMRoman10"><tspan y="-296.712" x="85.94183 90.18547 96.25093 104.73821 113.82549 119.280048 123.52368 126.55641 131.71642 137.17096 141.4146 144.44733 150.51279 159.60007 165.66553 170.52008 174.81827 177.851 183.30554 193.01465 198.4692 202.73465 205.76738 211.22193 214.25466 223.96376 228.2074 233.35649 241.23287 246.99288 256.38563 260.62928 266.69474 269.72746 277.66929 281.00749 286.46205 290.7384 299.82569 304.9748 309.21846">themotivatingdesignorigin(&#x201c;whythisform&#x201d;),</tspan></text>
<text xml:space="preserve" transform="matrix(1 0 -0 1 0 792)" font-size="10.9091" font-family="LMRoman10"><tspan y="-274.39503" x="72">&#x2022;</tspan></text>
<text xml:space="preserve" transform="matrix(1 0 -0 1 0 792)" font-size="10.9091" font-family="LMRoman10"><tspan y="-274.39503" x="85.94183 90.18547 96.25093 104.73821 109.59276 115.04731 121.11277 125.967319 130.82187 136.88733 141.13097 147.19643 152.65097 159.32735 162.36008 167.81462 173.26917 176.3019 184.78919 190.24373 197.21465 203.2801 208.44011 219.94922 224.19286 230.25832 238.7456 244.81107 247.8438 252.69835 257.5529 262.40745 270.33836 274.61473 279.46928 282.50199 287.95655 292.2002 300.6984 304.94206 310.09117 316.15663 321.30574 332.81483 335.84754 343.73484 348.03303 352.27668 357.42579 363.1858 371.1167 375.97126 381.4258 387.49128 392.34584 396.6222 401.47676 407.23677 411.4804 416.62953 420.87318">theconceptuallogicofhowthepiecesrelate(&#x201c;howitstayscoherent&#x201d;),</tspan></text>
<text xml:space="preserve" transform="matrix(1 0 -0 1 0 792)" font-size="10.9091" font-family="LMRoman10"><tspan y="-252.07903" x="72">&#x2022;</tspan></text>
<text xml:space="preserve" transform="matrix(1 0 -0 1 0 792)" font-size="10.9091" font-family="LMRoman10"><tspan y="-252.07903" x="85.94183 90.18547 96.25093 104.73821 109.0364 113.28004 118.73459 124.18914 129.04369 138.75279 144.81826 150.2728 154.51644 160.27645 167.84737 172.99646 182.40012 186.64376 191.79285 197.8583 203.0074 214.51651 217.54924 225.43653 228.46926 236.40018 239.4329 245.19292 249.43656 254.2911 260.35658 266.42204 271.27659 280.9857 285.22935 294.31663 300.68754 309.1748 315.24028 321.30574 324.33845 327.37117 335.25846 343.13484 346.15666 350.4003 356.47666 361.9312 367.99668 375.87306 381.02217 386.4767 391.33128 395.60765 399.884 404.73857 410.1931 414.74223 420.80769 425.9568 430.20045">thestagedpathway(&#x201c;howitisintendedtobebuiltwithoutoverreach&#x201d;),</tspan></text>
<text xml:space="preserve" transform="matrix(1 0 -0 1 0 792)" font-size="10.9091" font-family="LMRoman10"><tspan y="-229.76303" x="72">&#x2022;</tspan></text>
<text xml:space="preserve" transform="matrix(1 0 -0 1 0 792)" font-size="10.9091" font-family="LMRoman10"><tspan y="-229.76303" x="85.94183 91.396389 97.461849 107.160037 111.40367 117.46913 125.96732 132.1746 137.62915 143.69461 149.77098 155.83644 160.691 164.95645 168.6001 171.62192 177.69829 181.33103 186.78557 192.85103 197.14922 202.00377 207.76378 212.00742 215.04015 224.12743 227.16016 232.92017 237.1638 242.01836 247.78928 255.66565 259.9093 265.0584 271.12388 276.27299 287.793 290.8257 298.7021 302.97846 307.833 316.9203 322.37486 325.40757 331.47303 339.40394 342.74214 348.8076 354.87306 359.7276 363.97126 367.00398 372.45854 378.524 383.97856 390.6549 398.53129 401.564 405.80766 411.8731 417.32768 423.39314 431.2695 435.51316 441.5786 450.0659 456.2841 461.73866 467.8041 473.86958 479.93504 484.78959 489.06596 494.21507 498.4587">andtheFounder-in-absentiaintent(&#x201c;howitremainsfunctionalwithouttheFounder&#x201d;).</tspan></text>
<text xml:space="preserve" transform="matrix(1.0099504 0 -0 .99014756 0 792)" font-size="11.017651" font-family="LMRoman10"><tspan y="-205.48554" x="70.901508 78.85625 84.98206 88.04497 96.13192 102.25774 108.07506 112.977909 119.10372 128.28144 133.18428 139.0016 147.04448 150.10739 158.19435 166.1491 170.468 173.53092 177.81678 182.10263 187.0055 196.87732 201.16318 210.41802 216.85233 225.50119 228.56409 233.46695 238.97579 242.0387 248.1645 251.2274 259.87626 264.16215 273.41694 277.7579 282.04377 287.55259 290.76423 293.9759 300.82887 305.16984 309.45573 314.35856 322.0158 327.52464 331.84358 337.9694 342.31034 349.15229 352.52369 358.6495 364.7753 370.90113 375.804 380.1229 384.46388 391.31684 396.82566 402.95149 409.0773 412.1402 416.4261 421.93489 426.2538 430.5948 437.44776 443.57359 449.0824 453.40135 457.6872 463.81303 468.71586 473.0348 477.37577 484.2177 489.72654 495.85234 505.73518 509.10658 515.23239 519.5182 525.64407 529.96298">Thisdocumentiswrittentobelegibletostaff,stewards,funders,auditors,partners,andfuture</tspan></text>
<text xml:space="preserve" transform="matrix(1 0 -0 1 0 792)" font-size="10.9091" font-family="LMRoman10"><tspan y="-189.912" x="72 76.29819 82.36365 87.2182 92.072757 96.92731 101.225498 105.52368 110.97823 115.2546 119.55279 126.21825 134.09462 140.16008 143.19281 146.22554 154.72374 159.0001 163.85466 172.94194 178.39649 181.42922 187.49468 190.5274 196.59287 205.68015 211.7456 217.20015 223.26561 226.89835 232.9638 235.99654 242.062 248.12746 251.16019 257.22566 266.32386 271.7784 277.84388 287.54206 291.84025 297.9057 304.2766 309.73118 314.00755 320.073 323.1057 329.17118 334.62574 338.8694 343.72395">successors,whileremainingnon-bindingandsubordinate.</tspan></text>
<text xml:space="preserve" transform="matrix(1 0 -0 1 0 792)" font-size="14.3462" font-family="LMRoman12" font-weight="bold"><tspan y="-155.544" x="72">3</tspan></text>
<text xml:space="preserve" transform="matrix(1 0 -0 1 0 792)" font-size="14.3462" font-family="LMRoman12" font-weight="bold"><tspan y="-155.544" x="92.185108 104.55153 111.91113 118.280849 122.77121 130.84812 145.1943 157.31685 163.9161 168.40647 176.48337 180.97373 195.31992 203.16728 212.13365 226.47985 241.78723 249.86414 256.14778 260.63813 268.25596 276.10334 282.38697 286.87733 294.95423 309.3004 315.58406 328.2087 336.2856 345.25199 350.6318 359.59819 364.08854 373.0549 382.02128 386.51164 395.478 408.93473 417.9011 425.74848 432.34773 438.94697 446.79435 453.07798 457.56834 465.64524 473.00483">DesignOriginandMotivation(Non-bindingnarrative)</tspan></text>
<text xml:space="preserve" transform="matrix(1 0 -0 1 0 792)" font-size="11.9552" font-family="LMRoman12" font-weight="bold"><tspan y="-128.604" x="72 78.73078 82.47276">3.1</tspan></text>
<text xml:space="preserve" transform="matrix(1 0 -0 1 0 792)" font-size="11.9552" font-family="LMRoman12" font-weight="bold"><tspan y="-128.604" x="99.29373 108.6427 116.1147 126.73092 130.8435 137.57428 143.07367 154.28765 160.82714 166.0635 169.80548 176.53627 187.15248 192.65187 198.78488 202.89748 209.03049 214.52988 220.66289 228.13489 234.11249">Theformativereference</tspan></text>
<text xml:space="preserve" transform="matrix(1.0099504 0 -0 .99014756 0 792)" font-size="11.017651" font-family="LMRoman10"><tspan y="-109.08577" x="71.290637 79.55387 84.45672 96.047298 104.464778 109.97361 115.48244 120.991268 125.89412 130.21305 133.27596 138.78478 144.9106 151.0364 154.09932 162.08713 165.45853 170.96736 175.28627 188.09981 191.1627 199.15052 202.21343 208.33924 212.68019 218.80602 221.86891 226.18784 231.0907 240.85233 246.68067 256.14485 260.7392 266.86503 269.92793 272.9908 279.11665 285.24247 291.05976 296.86607 306.6277 311.53053 317.34785 323.78215 328.685 333.00395 336.06684 340.95866 347.0955 351.9873 356.89015 364.87797 367.94087 377.7025 385.2055 391.34236 395.65028 401.15907 407.59336 412.49623 418.00505 427.76667 431.13807 436.64686 440.9658 445.86866 450.2096 458.14234 462.46128 467.3641 471.70509 477.21388 481.5328 485.8187 493.79548 499.9213 504.82414 509.16508 512.22799 517.7368 523.8626 528.7655">NewDoggerland&#x2019;sformisinspiredbychildhoodexperiencesinEuropeanforestresortsdesigned</tspan><tspan y="-95.40195" x="71.290637 76.79946 81.11838 86.627208 92.75302 98.87884 109.81937 115.32819 126.26872 132.39453 138.52036 143.42322 148.93204 158.10974 167.28745 172.79628 183.73682 189.55413 192.61704 198.74285 209.67237 215.1812 223.36731 227.70829 233.2171 236.58852 241.49137 245.47977 251.29708 261.58757 271.9001 278.33439 283.8432 289.969 296.09483 302.22065 307.12348 318.064 322.96684 328.78419 334.6015 337.6644 341.98335 347.49217 353.61796 362.79566 367.6985 373.52684 382.6274 390.58216 393.64506 397.93095 408.87147 413.7743 419.90013 425.40895 431.53474 437.04356 447.98408 454.1099 458.4288 463.33168 469.45747 472.5204 477.42323 481.7091 487.21794 493.34373 496.40666 499.46955 502.52143 506.5098 517.14187 522.6507 528.7765">aroundanuncommonkindofsafety:aboundedenvironmentwithenoughpredictabilityand</tspan><tspan y="-81.71813" x="71.290637 76.19348 81.7023 90.88001 97.3033 102.206157 106.49202 111.394878 117.52069 122.42354 131.90975 136.1956 142.33243 147.84125 156.71047 162.83628 168.34511 172.66402 177.56688 183.39522 187.68109 196.6054 201.50826 207.01708 213.1429 216.2058 226.92598 232.4348 235.49771 238.5496 243.76096 256.31007 260.90443 267.03025 270.09315 273.15605 279.28187 283.6008 288.50364 299.22383 308.4015 313.30436 318.81318 324.93898 328.0019 334.1277 339.6365 343.0079 349.1337 356.77995 360.15135 364.47029 369.3731 374.27598 380.40177 385.91059 399.68266 407.6374 410.7003 414.98619 421.112 426.6208 432.7466 441.6158 446.51869 452.0275 458.1533 462.49427 466.78013 472.28895 478.11729 486.98649 490.35789 495.2607 500.76954 505.08848 515.9188 523.87356 529.9994">competencethatparentscouldallowchildrenmeaningfulfreedomwithoutconstantfear.The</tspan></text>
<text xml:space="preserve" transform="matrix(1 0 -0 1 0 792)" font-size="10.9091" font-family="LMRoman10"><tspan y="-42.112" x="303.273">3</tspan></text>
</svg>
