<svg xmlns="http://www.w3.org/2000/svg" xmlns:xlink="http://www.w3.org/1999/xlink" xmlns:inkscape="http://www.inkscape.org/namespaces/inkscape" version="1.1" width="612" height="792" viewBox="0 0 612 792">
<text xml:space="preserve" transform="matrix(.99548986 0 -0 1.0045307 0 792)" font-size="10.859898" font-family="LMRoman10"><tspan y="-705.843" x="71.76768 82.931659 85.95071 90.1752 96.2133 99.23235 108.91939 113.14388 119.181987 127.66357 135.50443 140.33707 144.61588 148.84037 154.87847 159.71112 163.93561 166.95467 175.4471 181.48519 185.70969 190.54235 198.06824 203.49819 207.75527 213.79337 218.08304 224.12114 227.14019 236.8272 245.12416 250.55411 259.6004 265.03034 268.04939 274.0875 280.75547 284.97996 291.01808 299.49964 305.67897 311.1089 317.14698 323.1851 329.22319 334.05583 341.96186 347.99995 352.22444 357.0571 364.59385 370.0238 374.28089 383.97877 393.02507 398.15095 407.53388 413.572 418.40464 422.62913 427.46177 431.71888 440.76518 443.7842 449.8223 458.3039 466.1447 472.18284 477.01548 481.23997 487.27809 492.11073 500.01673 506.05485 510.31193 515.7419 522.0841 527.51406 531.79287 536.6255">WithintheAestheticStewardshipDomain,theFounderStewardmaydeterminewhetherproposed</tspan></text>
<text xml:space="preserve" transform="matrix(1.0099504 0 -0 .99014756 0 792)" font-size="11.017651" font-family="LMRoman10"><tspan y="-702.41256" x="71.290637 77.41644 82.3193 86.66025 89.72316 95.23199 101.357799 105.69875 114.53491 119.43776 124.94659 131.0724 135.41336 139.69922 144.01815 150.14395 155.04682 159.33267 162.39557 167.9044 174.03022 178.37119 187.20734 192.11019 197.93854 203.75585 206.81876 211.13767 216.6465 222.77231 231.95001 236.85288 242.6702 246.95606 251.30803 260.13319 265.642 275.3045 281.4303 285.74925 290.6521 294.99305 299.8959 305.7242 310.0101 315.51893 319.80479 322.8677 328.3765 334.50233 344.1758 349.68464 354.00358 364.24998 369.7588 374.66163 379.0026 383.28846 389.41429 394.3171 398.603 401.6659 406.5577 412.06654 415.12944 418.19236 429.35325 434.25608 439.7649 448.94258 455.0684 460.5772 464.86308 467.926 474.0518 477.11473 487.35008 495.30485 498.36775 502.65364 514.123 522.3862 527.2891">designs,constructions,environments,orpresentationsareaestheticallycompatiblewithNew</tspan></text>
<text xml:space="preserve" transform="matrix(1 0 -0 1 0 792)" font-size="10.9091" font-family="LMRoman10"><tspan y="-681.943" x="72 80.33455 85.7891 91.24365 96.698207 101.55275 105.82912 108.86185 114.3164 120.38186 126.44732">Doggerland.</tspan></text>
<text xml:space="preserve" transform="matrix(1.0069758 0 -0 .9930726 0 792)" font-size="10.985198" font-family="LMRoman10"><tspan y="-666.23428" x="71.11095 79.04226 85.150028 88.20391 96.13522 101.62782 107.735599 112.00884 118.11661 123.60921 127.91541 130.9693 134.94594 144.33827 149.83087 155.94963 162.0574 165.1113 168.16518 173.04262 180.97394 185.24718 194.34293 199.83553 204.14173 208.73354 214.84131 217.8952 222.16844 227.05686 231.94527 236.21852 242.32628 246.63249 252.12509 258.7821 261.836 267.32859 273.43638 278.92897 285.03675 290.52937 296.02195 304.50254 309.99513 316.1029 325.8138 334.9645 340.4571 344.73033 349.61875 353.92497 356.97886 362.47145 365.52534 369.85353 376.51054 379.56443 385.057 391.1648 397.28358 401.61174 406.50016 411.98179 418.39714 426.88868 431.1619 435.4681 440.35655 445.84913 450.12236 459.27305 464.16145 469.96168 477.838 483.33064 489.4384 499.14933 504.03773 509.8489 515.6491 518.703 523.00918 528.5018 534.60958">Thisauthorityappliestoarchitecturallanguageandmaterials;landscapetreatmentandenviron-</tspan></text>
<text xml:space="preserve" transform="matrix(.9899495 0 -0 1.0101526 0 792)" font-size="10.799458" font-family="LMRoman10"><tspan y="-641.5565" x="72.73098 81.72692 86.532688 92.2348 96.43579 101.83552 108.35839 111.67382 117.07355 121.29614 130.2921 136.87976 141.13474 144.137 149.53673 155.54122 160.94095 166.34069 174.67786 180.37998 183.38222 187.6372 193.64171 199.04145 205.5751 210.97484 215.20822 220.60796 229.6039 238.59984 243.99958 251.75359 257.15333 263.1578 272.69377 275.696 278.69825 281.7005 287.70503 296.70097 299.70323 305.7077 311.10746 315.3084 318.31068 323.7104 333.24635 337.5013 341.3999 347.10203 350.10429 354.91 361.48689 367.4914 373.49589 376.49815 379.80278 385.2025 389.43589 398.43183 406.21827 411.61799 417.6225 427.15843 433.16294 439.16743 445.1719 448.17417 451.17643 455.98219 459.5784 462.88304 468.28279 473.0885 476.09077 482.09529 491.02644 496.42616 502.43067 508.73756 513.5433 518.943 523.1764 528.5762 534.5806 539.3864 544.19216">mentalform;signagevisualgrammarandilluminationstyle;uniformsandpublic-facingappearance;</tspan></text>
<text xml:space="preserve" transform="matrix(1 0 -0 1 0 792)" font-size="10.9091" font-family="LMRoman10"><tspan y="-634.521" x="72 76.29819 81.75274 87.8182 93.88366 99.94912 104.24731 109.10185 114.556407 120.92732 129.41461 134.86916 140.93462 150.64373 156.09827 164.8801 170.94556 173.97829 178.83284 184.59285 192.48014 196.77832 201.63288 207.69834 211.99652 217.45107 221.72743 231.12018 237.18564 242.04019 246.33838 249.37111 254.82566 260.8911 267.55656 273.0111 279.07658 288.78569 293.02934 299.0948 307.58207 312.4366 318.19664 324.56755 329.4221 333.69847 336.73118 341.58573 347.34574 351.5894 354.6221 360.07667 366.7421 370.98576 376.4403 382.50578 391.00398 396.45854 403.42945 408.884 414.94947 419.80403 424.1022 428.34587 431.97859 437.43315 442.2877 447.14225 451.9968 456.29499 460.59318 463.6259 469.69136 472.72407 481.21134 485.50953 491.57499 497.02955 501.8841 506.73866 511.03684">soundscapeandambientsensorydesign;andtheexperientialtoneofguest-accessiblespaces.</tspan></text>
<text xml:space="preserve" transform="matrix(1.0094553 0 -0 .9906332 0 792)" font-size="11.012249" font-family="LMRoman10"><tspan y="-620.0045" x="70.925388 78.887248 83.78769 88.12652 92.410289 98.5331 103.43355 107.717319 110.778728 119.29119 125.414 129.69777 134.59822 142.25173 147.75785 152.07465 158.19747 162.5363 168.65912 171.72052 181.45534 186.96147 193.08428 197.36804 203.49086 208.99698 213.31378 216.37519 220.36162 229.7881 238.66397 244.78679 249.12561 257.0214 263.1442 268.65034 276.55714 281.45759 286.9637 292.7782 297.06196 301.37876 306.8849 313.56935 319.69215 325.81495 331.93775 337.44389 342.34434 346.62809 350.96693 357.64036 366.51625 372.63905 376.97789 384.88468 391.00749 396.5136 404.40943 410.53224 413.59364 417.91044 422.81089 427.7113 435.60713 441.11326 447.5334 452.43385 456.7506 462.25675 466.54054 469.60194 475.10807 481.23088 485.5697 492.25416 501.13005 507.25288 511.59169 519.4875 525.6103 531.1164">AestheticStewardshipauthoritymustnotcontrolbudgets;mustnotdirectoperations;mustnot</tspan></text>
<text xml:space="preserve" transform="matrix(1.0014988 0 -0 .9985033 0 792)" font-size="10.925451" font-family="LMRoman10"><tspan y="-601.54837" x="71.89225 80.99315 86.45588 92.530429 97.99316 103.45589 111.95589 118.32543 123.187259 127.47003 131.77466 137.2374 143.31194 149.3974 154.2483 157.28559 163.96103 172.76696 178.8415 183.14614 191.0234 197.09796 202.56069 210.44889 215.6057 221.07935 225.94118 230.22396 234.50675 237.544 243.61858 252.10765 257.57038 263.64494 269.10765 275.1822 279.4322 284.29405 294.00675 300.38719 305.8499 308.8872 311.9245 316.78633 322.55497 329.2304 338.0254 344.0999 348.40455 356.29273 362.36726 367.83 375.70726 380.0228 386.09736 390.40196 396.7715 401.63334 407.70787 417.42057 421.7252 427.18794 430.53114 435.39295 439.33705 444.19886 450.8743 456.33705 461.19886 466.0607 470.92253 475.2271 479.53175 482.56904 488.64356 491.68086 494.71815 497.75544 501.69953 506.56135 513.2368 516.27407 521.73678 528.11727 533.57998 537.86276">managepersonnel;mustnotoverrideadoptedpolicy;mustnotsuspendsafety,accessibility,labor,</tspan></text>
<text xml:space="preserve" transform="matrix(1.0099504 0 -0 .99014756 0 792)" font-size="11.017651" font-family="LMRoman10"><tspan y="-592.93997" x="71.290637 76.19348 81.7023 87.82812 90.89102 97.01684 102.525669 109.356609 114.86544 122.93036 127.238269 132.14113 137.64995 143.77577 146.83867 152.3475 156.63336 162.1422 166.4611 176.02443 180.92729 186.43611 195.61383 201.73964 204.80255 207.86545 213.37429 219.50009 224.40296 229.30582 236.16982 241.67864 247.80446 257.66526 266.54548 272.67127 277.01225 285.0331 291.1589 296.66773 304.6996 309.60246 313.9214 318.8132 324.322 328.60789 337.2567 343.38255 346.44544 352.57127 358.69706 361.75999 367.88578 377.12959 382.6384 388.76423 391.82713 394.89 400.39884 405.90766 410.19355 413.25645 418.76527 424.89106 432.967 438.47584 444.60166 448.8875 453.2285 456.29139 462.4172 471.06605 475.35194 481.47773 490.11558 498.0813 502.98417 507.3251 511.61094 517.73678 522.63967 526.9255 529.9884">zoning,orregulatorycompliance;andmustnotcreatebindingobligationsoutsidetheAesthetic</tspan></text>
<text xml:space="preserve" transform="matrix(1 0 -0 1 0 792)" font-size="10.9091" font-family="LMRoman10"><tspan y="-573.549" x="72 78.06546 82.3091 87.16365 94.734569 100.18912 104.465488 110.530948 114.82913 120.89459 123.92732 133.63643 141.97098 147.42552 156.5128 161.96735 165.00008 171.06554">StewardshipDomain.</tspan></text>
<text xml:space="preserve" transform="matrix(.9964939 0 -0 1.0035185 0 792)" font-size="10.870851" font-family="LMRoman10"><tspan y="-551.2853" x="71.84791 79.69666 84.53419 88.8173 93.04607 99.090259 103.92779 108.15655 111.17864 119.66877 125.71297 129.94173 134.77925 142.32363 147.75905 152.02042 158.0646 162.35858 168.40277 171.42488 181.12168 186.5571 192.60128 196.83003 202.87422 208.30965 212.57102 215.59311 219.51749 228.92078 237.9762 243.10724 252.49965 258.54386 263.97929 271.87153 278.2201 286.71025 292.75444 297.59196 300.61405 305.45158 310.887 316.32246 320.5512 325.3887 331.43293 338.1185 342.4016 348.4458 354.7944 360.8386 363.8607 369.60054 372.62263 378.66685 383.50434 389.54856 396.22328 401.6587 409.58357 414.42106 420.1609 424.9984 429.25978 434.0973 437.1194 441.4025 446.24003 455.93684 461.67665 471.07997 475.91749 481.3529 490.40834 499.46379 502.48588 506.71464 510.9434 515.7701 520.6076 528.5216 536.67477">AestheticStewardshipauthoritymaynotbedelegated,subdivided,orexercisedbycommittee.No</tspan></text>
<text xml:space="preserve" transform="matrix(1 0 -0 1 0 792)" font-size="10.9091" font-family="LMRoman10"><tspan y="-539.676" x="72 77.45455 81.69819 87.76365 92.618198 100.52729 104.80366 110.25821 113.29094 121.78913 130.8764 136.0255 145.41825 150.2728 153.30553 158.76007 161.7928 174.51282 179.96736 184.82192 189.1201 193.36374 199.4292 204.28376 208.52739 211.56012 220.05832 225.51287 231.57833 235.82196 241.88742 247.34197 251.61833 254.65106 258.58927 267.982 273.742 283.14567 288.60023 294.66569 300.12025 303.15296 308.6075 314.06208 323.4548 328.90937 336.81846 342.8839 347.16029 352.01484 356.8694 361.72395 367.7894 372.64396 378.41487 382.6585">otherrolemayclaimaestheticauthoritybyanalogyorprecedent.</tspan></text>
<text xml:space="preserve" transform="matrix(.9899495 0 -0 1.0101526 0 792)" font-size="10.799458" font-family="LMRoman10"><tspan y="-514.1322" x="72.73098 76.62958 83.02286 91.52203 96.32779 101.72752 107.732028 110.734279 113.73652 116.73877 121.54453 128.83417 134.2339 138.46729 141.46955 145.72454 150.53029 157.87392 164.1916 168.99738 172.88516 180.37999 185.18575 189.99152 199.08466 206.88187 211.68762 215.94261 220.1436 226.1481 230.95386 235.15485 238.1571 246.0515 252.056 256.257 261.06275 268.5576 273.9573 278.19068 284.1952 288.45018 294.45466 297.4569 306.55009 311.9498 317.9543 327.05827 331.31324 336.71296 340.0176 344.82334 348.71116 357.5127 361.7461 366.54106 372.24317 378.25846 381.26069 385.48329 390.28904 399.28498 404.09074 409.79286 413.99385 418.2488 424.4585 429.85823 434.66398 439.46974 444.27546 448.53047 452.78544 455.7877 461.79219 464.79444 467.7967 470.79893 474.6975 483.48829 487.72166 492.5274 498.22953 504.23405 507.23628 511.46965 516.2754 525.2713 530.0771 535.77926 539.98019 544.23519">IfaconflictarisesbetweenAestheticStewardshipandsafetyrequirements,accessibilityrequirements,</tspan><tspan y="-500.7194" x="72.73098 75.73323 80.53899 85.93872 91.33845 97.14856 102.54829 109.58953 113.82292 118.628688 124.02841 130.03292 133.03517 138.43489 142.63588 148.03562 152.269 160.77896 166.1787 172.194 175.19626 178.1877 183.58744 188.98715 193.18814 196.1904 201.59012 207.59462 211.86042 217.84333 223.24304 230.28429 235.9864 241.9909 250.98685 256.38658 265.19895 270.59867 277.6399 283.0396 289.04414 292.04637 301.04234 306.44206 312.25218 318.25666 321.2589 326.65864 332.66316 335.66539 339.56398 348.07395 354.07844 358.31184 363.71156 367.9125 372.71827 377.52403 381.72499 384.72724 390.12696 396.13148 400.38645 406.38017 410.58116 416.58564 424.19923 430.20375 435.60346 441.60798 445.2042 450.6039 455.40968 459.66465 463.86564 469.87013 474.67588 478.87687 481.8791 489.4927 493.72608 498.53184 504.23393 510.23844 513.24069 517.47409 522.27987 531.27578 536.0815 541.7836">legalorregulatoryobligations,orhumanoranimaldignityprotections,thenon-aestheticrequirement</tspan></text>
<text xml:space="preserve" transform="matrix(1 0 -0 1 0 792)" font-size="10.9091" font-family="LMRoman10"><tspan y="-492.254" x="72 78.06546 82.34183 87.19638 92.345478 97.800029 100.832759 103.865489 111.80731 117.26186 123.327327 127.57096 133.02552 142.1128 147.56734 151.81098 154.8437 159.69826 165.1528 168.18553 171.21826 176.0619 183.94919 192.13101 201.21829 204.55648 210.62194 214.92012 219.16376 222.19649 225.22922 228.26195 233.1165 238.57105 242.81468 245.84741 251.30196 261.01106 264.04377 271.97468 276.25105 281.1056 286.8656 292.93107 295.96379 300.24015 305.0947 311.16017">prevailsautomatically.Nojustificationisrequired.</tspan><tspan y="-471.93" x="72 82.00365 88.06911 92.312747 97.767299 103.832759 106.865489 109.89822 112.93095 116.869129 122.62913 130.5164 138.5455 143.40006 149.16007 152.1928 156.49098 161.94553 168.01099 171.04372 179.531 184.98555 191.05101 194.08374 203.47649 209.2474 218.64015 226.06925 231.82926 236.07289 240.34926 245.8038 251.25835 255.53472 261.60017 264.63288 270.69834 276.1529 280.42927 289.822 297.2511 301.52748 307.28749 312.14204 316.99659 321.29478">Mutability:RevisableonlybyExtraordinaryProcess</tspan></text>
<text xml:space="preserve" transform="matrix(1 0 -0 1 0 792)" font-size="10.9091" font-family="LMRoman10" font-weight="bold"><tspan y="-443.12" x="72 78.272739 81.75274 88.025478 94.29821 97.77821">6.11.4</tspan></text>
<text xml:space="preserve" transform="matrix(1 0 -0 1 0 792)" font-size="10.9091" font-family="LMRoman10" font-weight="bold"><tspan y="-443.12" x="113.4655 123.087329 126.56733 131.73825 137.48735 143.0619 147.93828 151.41828 157.69101 164.66193 170.76012 178.4183 188.28014 194.55287 200.65106 208.30925 215.28017 220.15654 225.90564 234.63292 240.73111 245.90203 252.87294 257.82569 264.7966 268.2766">DirectionalGoalStewardship</tspan></text>
<text xml:space="preserve" transform="matrix(.9899495 0 -0 1.0101526 0 792)" font-size="10.799458" font-family="LMRoman10"><tspan y="-418.28038" x="72.33399 80.131198 86.1357 94.472888 100.60697 106.00671 112.01121 118.01571 124.0202 128.82598 136.57997 142.58448 146.78546 151.59123 159.08605 164.48578 168.71916 178.25508 187.25104 192.33757 201.5711 206.97083 211.20423 215.40522 218.40746 223.21323 229.21773 232.21997 237.6197 241.8207 250.15787 256.16239 259.1646 263.39799 268.20375 273.0095 277.21046 280.2127 285.61244 291.61695 297.01667 303.53953 308.93928 314.339 319.7387 322.74098 330.52738 336.5319 341.33763 345.59263 350.39836 354.63175 357.63398 363.6385 366.64076 372.64524 381.5764 389.3736 395.3781 400.77784 408.49943 416.599 421.40476 432.7334 440.9842 446.38395 451.78367 457.18339 461.98915 466.2225 469.22477 474.62449 480.629 490.16493 493.16719 500.94279 507.26045 512.06619 516.87197 522.2716 531.2676 534.2698 540.2743">TheFounderStewardmayarticulatedirectionalgoalsdescribingwhatNewDoggerlandisbecoming</tspan></text>
<text xml:space="preserve" transform="matrix(1 0 -0 1 0 792)" font-size="10.9091" font-family="LMRoman10"><tspan y="-408.978" x="72 77.14909 82.60364 87.45819 95.3782 99.62183 102.654567 111.741847 116.59639 124.47276 132.80731 135.84004 140.11641 144.97097 149.82552 154.06916 157.10189 162.55643 168.62189 174.07643 180.7419 186.19644 191.65099 197.10553 200.13826 208.0801 214.14556 219.0001 223.2983 228.15285 232.42922 235.46195 241.82195 250.32015 255.77469 260.05107 263.08378 267.93833 273.69834 277.942 283.39656 287.6402 290.6729 296.12748 302.19294 308.85838 314.92384 320.3784 328.2657 333.10935 338.86936 343.7239 348.57847 354.64393 358.88758 361.9203 367.37486 373.4403">overtime.Directionalgoalsdescribeorientation,notexecution.</tspan></text>
<text xml:space="preserve" transform="matrix(1.0099504 0 -0 .99014756 0 792)" font-size="11.017651" font-family="LMRoman10"><tspan y="-392.5213" x="71.290637 79.708118 82.77103 87.08994 91.99279 96.895648 101.18151 104.24442 109.75325 115.87907 121.38789 128.6375 134.14633 140.27214 144.55802 150.68383 156.19264 160.51157 163.57448 167.55184 177.55585 186.43608 192.5619 196.90287 205.37543 211.50124 217.01007 225.48264 231.60845 235.92737 240.83023 245.17119 250.07405 254.39298 257.45588 263.87919 272.96873 282.14643 287.04927 291.33515 297.46098 303.26725 309.39308 313.73405 321.2701 330.1503 336.27613 340.61708 349.08967 355.21549 360.72428 369.19688 378.37455 383.88337 390.0092 396.135 401.6438 405.9297 415.01924 419.3051 422.368 431.54573 436.44856 439.51145 442.57438 448.70018 453.60304 457.94398 465.48005 474.36027 480.48609 484.82704 493.29963 499.4254 504.93424 513.3958 519.5216 522.58456 528.7103">Directionalauthoritymustnotprescribemethods;mustnotmandatetimelines;mustnotbind</tspan></text>
<text xml:space="preserve" transform="matrix(1 0 -0 1 0 792)" font-size="10.9091" font-family="LMRoman10"><tspan y="-375.105" x="72 78.06546 84.13092 90.19638 95.65093 100.50548 104.749118 109.0473 115.73458 124.5164 130.58187 134.88005 142.76734 148.8328 154.28734 162.17462 167.02918 172.48372 181.571 187.94191 192.79647 199.47284 204.92739 211.2983 216.15285 220.42922 225.88376 230.1274 233.16013 238.61467 244.68013 250.13468 256.81105 262.2656 267.12016 271.3638 274.3965 279.85108 285.91654 290.21473 296.89109 302.34565 308.4111 318.1202 326.91294 332.9784 337.27659 345.16389 351.22935 356.6839 364.5712 369.7203 375.17488 380.02943 384.3058 388.58216 391.61488 397.68034 406.17854 414.74217 419.90217 425.35673 430.21128 434.48765 440.5531 443.58583 449.65129 458.74949 466.4731 472.23313 478.29859 487.70225 493.1568 498.3059 503.76048 508.61503 512.89138 518.9568 524.4113 530.47677 535.3313">budgets;mustnotcompeloperationalactions;andmustnotoverrideGoverningBodygovernance</tspan><tspan y="-361.55503" x="72 77.45455 85.36365 88.39638 91.42911 97.49457 103.56003 108.41458 111.44731 116.90186 121.17823 130.58188 136.64734 142.7128 146.65099 151.50554">orfiduciaryduty.</tspan></text>
<text xml:space="preserve" transform="matrix(.9899495 0 -0 1.0101526 0 792)" font-size="10.799458" font-family="LMRoman10"><tspan y="-337.8024" x="72.33399 80.131198 86.1357 94.570079 100.70417 106.1039 112.1084 118.1129 124.11739 128.92316 136.79598 142.80048 147.00147 151.79642 159.29123 164.69097 168.92435 178.55747 187.55342 192.65076 201.98149 206.23648 210.43747 215.83719 220.03818 228.47257 232.67356 238.68886 244.08858 251.9182 260.94654 266.95106 271.18443 276.58415 282.89103 288.29075 292.54576 297.94548 304.58714 307.5894 315.473 321.4775 324.47978 328.71315 333.5189 338.32463 342.5256 345.52784 350.92759 356.93208 362.33183 365.33406 368.3363 377.66706 380.6693 386.6738 391.47956 396.87928 405.87525 411.87974 417.27949 421.48045 424.4827 430.48719 433.48945 441.92384 449.72105 452.72328 456.92427 466.55738 474.65699 479.46275 490.89936 499.15016 504.5499 509.94963 515.34939 520.1551 524.3777 527.37997 532.77969 538.7949 544.79946">TheFounderStewardmaystatethataproposalisdirectionallyincompatiblewithNewDoggerland.</tspan></text>
<text xml:space="preserve" transform="matrix(.9969955 0 -0 1.0030136 0 792)" font-size="10.876323" font-family="LMRoman10"><tspan y="-326.69746" x="72.21697 78.264209 84.31145 88.84688 98.52681 107.597667 111.88293 116.113819 121.55198 125.78287 130.62282 139.6828 144.52277 150.26548 158.13994 164.18717 169.92987 174.75896 182.68779 188.73503 194.17319 202.03679 208.08403 211.10764 216.85034 221.38578 230.76117 236.19933 242.24657 247.68474 253.73198 257.96287 260.98649 266.42463 272.47187 279.12815 285.17536 290.91807 295.758 303.67597 309.72319 315.16133 323.0358 326.0594 331.8021 336.9357 342.37388 345.39747 348.42109 354.4683 359.90647 364.13734 372.60997 376.84086 382.88807 391.3607 397.40794 401.67143 407.1096 413.46134 418.89949 423.18476 428.62294 431.6465 438.30284 443.74098 449.78819 459.46809 468.23439 474.28163 478.5669 486.43046 492.7822 501.25483 505.51835 510.35829 515.19827 520.6364 524.89999 530.9472 535.7872">Suchastatementdoesnotblockadoption,doesnotinvalidatetheproposal,andmustberecorded</tspan></text>
<text xml:space="preserve" transform="matrix(1 0 -0 1 0 792)" font-size="10.9091" font-family="LMRoman10"><tspan y="-314.133" x="72 77.45455 80.48728 85.94183 92.00729 97.461849 101.76003 104.79276 110.85822 119.3455 123.589138 129.65459 138.15279 144.21825 149.0728 153.92736 156.96009 161.25827 164.291 169.74555 179.44374 182.47647 189.44739 193.69103 199.75649 208.25469 214.32015 218.59651 224.05106 230.42197 235.87651 240.1747 245.62924 252.29471 258.36018 262.63655 268.39656 273.2511 278.10566 282.9602 289.02568 293.32386">alongsidethedecisioniftheproposalproceeds.</tspan><tspan y="-293.809" x="72 82.00365 88.06911 92.312747 97.767299 103.832759 106.865489 109.89822 112.93095 116.869129 122.62913 130.5164 138.5455 143.40006 149.16007 152.1928 156.49098 161.94553 168.01099 171.04372 179.531 184.98555 191.05101 194.08374 203.47649 209.2474 218.64015 226.06925 231.82926 236.07289 240.34926 245.8038 251.25835 255.53472 261.60017 264.63288 270.69834 276.1529 280.42927 289.822 297.2511 301.52748 307.28749 312.14204 316.99659 321.29478">Mutability:RevisableonlybyExtraordinaryProcess</tspan></text>
<text xml:space="preserve" transform="matrix(1 0 -0 1 0 792)" font-size="10.9091" font-family="LMRoman10" font-weight="bold"><tspan y="-264.999" x="72 78.272739 81.75274 88.025478 94.29821 97.77821">6.11.5</tspan></text>
<text xml:space="preserve" transform="matrix(1 0 -0 1 0 792)" font-size="10.9091" font-family="LMRoman10" font-weight="bold"><tspan y="-264.999" x="113.4655 122.59642 129.56734 136.18917 139.66916 144.62189 150.89463 156.06554 166.86556 175.93102 182.20375 188.82558 193.70195 197.18195 203.80377 210.77469 214.25469 218.78197 229.58199 238.15654 243.32746 249.60019 254.47657 260.22566 265.8002 270.67658 274.16749 280.44023">AdvisoryContinuityProtection</tspan></text>
<text xml:space="preserve" transform="matrix(1.0099504 0 -0 .99014756 0 792)" font-size="11.017651" font-family="LMRoman10"><tspan y="-246.83797" x="70.89061 79.15385 82.525249 86.81111 91.71397 100.616237 104.957187 109.24305 114.145908 120.27172 123.9406 130.06642 135.27777 143.23253 153.93068 159.4395 168.34177 172.66069 178.16951 181.23242 190.70761 194.99347 199.3124 204.82122 210.94704 215.288 218.3509 222.63677 225.69966 231.2085 237.3343 245.22295 249.5088 255.63463 265.1208 271.41188 276.9207 283.0465 289.1723 295.29814 300.20097 309.10325 315.22904 319.51493 324.41777 332.06404 337.57286 341.89179 352.60093 356.91987 361.8227 366.10859 371.6174 374.6803 380.80613 389.7304 394.01628 400.1421 409.61729 413.9362 416.9991 422.50794 428.33625 437.20545 441.49134 451.57249 457.0813 460.29295 463.50459 468.40745 477.3097 483.43553 488.94435 495.07014 498.739 504.86485 507.92774 514.0535 520.1794 523.24227 529.3681">Afterstep-downorroletransition,theFounderStewardretainstherighttooffernon-binding</tspan></text>
<text xml:space="preserve" transform="matrix(1 0 -0 1 0 792)" font-size="10.9091" font-family="LMRoman10"><tspan y="-230.857" x="72 77.45455 83.52001 89.280017 92.312747 96.61093 102.06548 106.34185 115.73458 118.76731 124.83277 130.89823 136.96369 144.85097 150.30551 160.00371 165.45825 170.3128 174.611 178.85463 184.92009 189.77465 194.01828 197.05101 205.5383 210.99285 217.06922 226.76741 232.83287 235.8656 240.14197 244.99652 249.85108 254.09471 257.12745 262.582 268.64747 274.10203 280.76747 289.85475 295.3093 299.55296 303.7966 308.65116 312.92753 317.2257">advisoryinputonaestheticanddirectionalmatters.</tspan></text>
<text xml:space="preserve" transform="matrix(1.001998 0 -0 .998006 0 792)" font-size="10.930896" font-family="LMRoman10"><tspan y="-210.95366" x="71.85644 80.05461 89.13819 95.521839 100.386089 104.671 108.97777 114.443218 124.13892 129.60439 137.51834 143.89107 149.66257 155.74015 165.14073 174.24616 179.40555 188.79518 193.0801 197.94435 202.25113 206.50325 210.78816 213.82695 218.6912 226.56145 232.02689 236.89113 241.75537 246.61962 250.92639 255.23319 261.90104 271.00648 276.47193 280.75685 286.2223 289.26109 295.33866 300.8041 303.8429 306.8817 311.74595 320.22834 326.3059 331.77137 336.05628 340.30839 343.34718 348.21144 351.2502 357.3278 362.79325 367.04539 370.08418 375.54963 381.6272 388.28413 394.66777 399.532 405.6096 411.07505 414.11384 417.15263 422.01689 430.49928 435.3635 441.135 447.21263 451.4975 456.36177 460.66853 464.97529 468.01408 473.47953 479.5571 486.22499 491.69044 499.59349 503.8784 508.7426 512.99478 518.4602 521.499 524.5378 530.00326 534.2554">Nopersonorbodymayrestrictaccess,marginalizeparticipation,penalizeexpression,orretaliate</tspan></text>
<text xml:space="preserve" transform="matrix(.9899495 0 -0 1.0101526 0 792)" font-size="10.799458" font-family="LMRoman10"><tspan y="-195.00418" x="72.73098 78.13071 83.53043 88.93016 91.93241 97.93691 102.191898 109.99991 114.2009 120.2054 128.60738 134.74147 140.1412 146.1457 152.16101 158.16551 162.97127 170.80088 176.80538 181.00637 185.81214 193.30695 198.70668 202.94007 212.55159 215.85623 221.25595 229.08557 234.48529 237.63333 240.78137 245.58715 249.82053 252.82277 258.82728 267.834 273.23377 279.23826 284.94038 287.94264 292.1976 297.59733 301.83073 311.13984 314.1421 320.1466 326.1511 332.1556 339.9528 347.75 350.75227 354.95326 360.95774 363.96 373.5715 377.82649 382.63224 388.03196 394.34965 399.1554 405.76466 410.5704 416.27253 421.07829 425.884 431.88853 439.6965 447.4937 453.49824 458.30397 462.53733 470.9501 475.18348 479.98924 485.69136 491.69584 494.6981 498.93147 503.7372 513.33798 519.04006 528.3491 531.3514 536.43789 544.2351">againsttheFounderStewardforofferingadvisoryinputwithinscope,exceptwhererequiredbylaw,</tspan></text>
<text xml:space="preserve" transform="matrix(1 0 -0 1 0 792)" font-size="10.9091" font-family="LMRoman10"><tspan y="-183.435" x="72 76.27637 81.13092 86.89092 92.95638 95.98911 100.26548 105.120029 114.818218 118.1564 123.610958 131.53096 134.56369 143.65097 152.73825 157.5928 163.65827 166.691 172.14554 176.38918 184.87647 189.17465 194.6292 197.96738 202.82193 206.76012 211.61467 218.28014 223.73468 231.64379 235.92015 240.7747 246.53472 252.60018 255.6329 259.90928 264.76383 274.47294 280.23295 289.62568 298.72389 301.7566 304.78935 310.8548 316.30937 322.9748 326.0075 329.04026 335.1057 341.17118 344.2039 350.26936 359.35664 364.8112 371.79304 379.97486 386.0403 392.10578 396.40397 404.89125 410.9567 417.02217 423.08763 427.94218 435.86219 441.92765 446.7822 451.63676 455.8804 458.91313 464.36769">requiredforimmediatesafety,orrequiredbyafinalfindingofAbuseunderSection</tspan></text>
<text xml:space="preserve" transform="matrix(1 0 -0 1 0 792)" font-size="10.9091" font-family="LMRoman10"><tspan y="-183.435" x="474.06587 479.52043 484.97499 488.0077">18.4</tspan></text>
<text xml:space="preserve" transform="matrix(1 0 -0 1 0 792)" font-size="10.9091" font-family="LMRoman10"><tspan y="-183.435" x="493.46226">.</tspan></text>
<text xml:space="preserve" transform="matrix(.99849888 0 -0 1.0015034 0 792)" font-size="10.892724" font-family="LMRoman10"><tspan y="-162.86617" x="72.108249 80.277797 89.38412 93.67585 99.73221 104.579479 109.42674 114.26311 118.56574 122.857479 128.30384 132.57378 139.25102 147.8018 152.95407 158.40044 163.2477 167.51764 173.57399 176.60218 182.65853 191.75394 199.46599 205.21735 211.2737 216.12096 222.7982 228.24456 236.17447 241.62082 244.64537 247.66992 250.69446 255.54172 260.38899 268.308 271.33616 279.28785 283.5578 288.40507 294.15644 300.2128 303.24098 307.51094 312.3582 322.06364 326.30088 335.40718 338.74034 344.18669 347.21485 350.243 355.38438 366.90888 372.35523 380.27424 383.6074 389.66377 393.95549 398.19276 401.22093 404.55409 413.9654 418.23536 423.0826 426.41578 431.26307 436.11033 440.34757 443.37574 448.82209 458.52754 463.97389 470.96699 476.41334 482.46968 488.22105 491.2492 495.54093 500.98728 505.25724 514.65768 517.68588 523.7422 529.7985 535.85488 540.0921">Nosuccessor,GoverningBody,orofficerisrequiredtofolloworjustifyrejectionofadvisoryinput.</tspan></text>
<text xml:space="preserve" transform="matrix(1 0 -0 1 0 792)" font-size="10.9091" font-family="LMRoman10"><tspan y="-149.562" x="71.596 79.47237 85.53783 91.29783 94.33056 98.628749 104.0833 108.359668 117.763309 123.21786 128.0724 132.92696 137.7706 142.0797 150.01062 156.07608 161.83608 166.69063 174.62155 180.68701 186.14156 194.01793 198.87248 203.14885 208.0034 213.45795 217.70159 226.19979 231.65433 237.71979 241.96343 248.02889 253.48343 257.7598 260.7925 264.7307 269.58528">Advisoryaccessdoesnotcreateauthority.</tspan><tspan y="-129.23799" x="72 82.00365 88.06911 92.312747 97.767299 103.832759 106.865489 109.89822 112.93095 116.869129 122.62913 130.5164 138.5455 143.40006 149.16007 152.1928 156.49098 161.94553 168.01099 171.04372 179.531 184.98555 191.05101 194.08374 203.47649 209.2474 218.64015 226.06925 231.82926 236.07289 240.34926 245.8038 251.25835 255.53472 261.60017 264.63288 270.69834 276.1529 280.42927 289.822 297.2511 301.52748 307.28749 312.14204 316.99659 321.29478">Mutability:RevisableonlybyExtraordinaryProcess</tspan></text>
<text xml:space="preserve" transform="matrix(1 0 -0 1 0 792)" font-size="10.9091" font-family="LMRoman10"><tspan y="-42.11199" x="300.54499 305.99955">29</tspan></text>
</svg>
