<svg xmlns="http://www.w3.org/2000/svg" xmlns:xlink="http://www.w3.org/1999/xlink" xmlns:inkscape="http://www.inkscape.org/namespaces/inkscape" version="1.1" width="612" height="792" viewBox="0 0 612 792">
<text xml:space="preserve" transform="matrix(1 0 -0 1 0 792)" font-size="10.9091" font-family="LMRoman10"><tspan y="-709.041" x="72 82.00365 88.06911 92.312747 97.767299 103.832759 106.865489 109.89822 112.93095 116.869129 122.62913 130.5164 138.5455 143.40006 149.16007 152.1928 156.49098 161.94553 168.01099 171.04372">Mutability:Revisable</tspan></text>
<text xml:space="preserve" transform="matrix(1 0 -0 1 0 792)" font-size="14.3462" font-family="LMRoman12" font-weight="bold"><tspan y="-674.67306" x="72">9</tspan></text>
<text xml:space="preserve" transform="matrix(1 0 -0 1 0 792)" font-size="14.3462" font-family="LMRoman12" font-weight="bold"><tspan y="-674.67306" x="92.185108 102.7726 116.22933 123.588939 130.18819 138.26509 145.6247 154.59107 161.76416 175.66562 184.63199 191.80509 199.88199 209.29309 222.03252 234.06899 241.42859 249.5055 253.99585 260.36558 266.6492 273.24845">EmergencyScopeRegistry</tspan></text>
<text xml:space="preserve" transform="matrix(1.0099504 0 -0 .99014756 0 792)" font-size="11.017651" font-family="LMRoman10"><tspan y="-656.79409" x="71.290637 78.793659 87.97136 92.874217 97.19313 102.70195 107.604808 113.73062 118.63347 128.10865 133.61748 139.74329 144.02915 150.15497 155.66379 159.98271 163.04563 167.02298 176.49816 181.40102 187.21833 190.28124 194.6222 198.90805 206.90688 212.41571 218.54152 221.60443 231.0796 236.58844 244.58727 249.47911 255.29644 261.4333 264.48518 267.54808 272.4509 275.51383 279.79969 282.86259 292.33778 298.4636 303.36643 306.42933 309.49226 315.61805 320.5209 330.30458 333.36747 343.15113 347.437 353.5628 356.62574 364.62455 368.96549 373.86836 378.76017 383.04603 386.10896 391.61775 401.4014 406.91023 413.03605 422.8197 431.99739 437.2087 446.6839 453.10719 461.66789 466.57075 472.38807 477.27989 481.59883 486.50166 489.56455 493.90553 498.80836 508.592 512.933 518.44186 521.50479 526.4076 529.4705">Emergencyauthorityexistsonlyasexplicitlydefinedinthissectionandmaybeexercisedsolely</tspan></text>
<text xml:space="preserve" transform="matrix(1 0 -0 1 0 792)" font-size="10.9091" font-family="LMRoman10"><tspan y="-636.774" x="71.607 79.483379 82.516109 86.75974 92.8252 95.85793 105.55612 109.79976 115.86522 124.36341 129.21796 134.6725 138.91614 143.77069 149.22524 154.67978 158.95615 161.98888 166.84343 174.77436 179.6289 185.38892 191.45438 200.54166 205.39621 209.67258 215.12712 219.37076 224.22531 233.92351 240.29442 245.14897 248.1817 253.3308 261.20716">withinthecategoriesenumeratedbelow.</tspan></text>
<text xml:space="preserve" transform="matrix(1.0099504 0 -0 .99014756 0 792)" font-size="11.017651" font-family="LMRoman10"><tspan y="-622.585" x="71.290637 77.58171 83.09053 92.29026 97.50162 103.010448 108.519268 111.58218 117.707988 123.21682 129.35364 134.24549 144.02916 149.538 157.79022 163.91603 169.42487 175.55068 181.67649 185.96234 194.22559 198.51145 204.63726 207.70017 216.91094 221.25189 226.15476 231.0576 235.34348 238.40637 243.9152 254.92183 261.04765 265.9505 269.0134 272.0763 278.20213 283.10496 292.32676 296.6126 302.73844 312.51106 317.4139 323.23124 328.1341 331.197 337.32279 341.66377 344.72666 350.24653 360.03019 364.933 370.4308 374.7277 379.6195 385.12834 390.63716 394.9561 398.01899 402.92185 412.14363 417.65245 423.77824 434.78489 437.84779 440.91069 450.08839 453.15129 457.43717 466.64793 470.01933 475.52815 484.72789 489.63075 498.8084 503.71128 508.03019 513.539 518.4419 524.5677 529.4706">Foravoidanceofdoubt,thissectiondefinestheexclusivecategoriesandlimitsforemergency</tspan></text>
<text xml:space="preserve" transform="matrix(1 0 -0 1 0 792)" font-size="10.9091" font-family="LMRoman10"><tspan y="-602.901" x="72 77.45455 83.52001 87.76365 93.82911 99.28366 103.56003 106.59276 110.53094 119.93458 126.00004 132.06549 138.13095 142.9855 150.8946 155.13825 161.2037 164.23644 172.16736 178.23282 183.99282 188.84737 194.91283 204.0001 208.85466 214.61467 218.8583">authorityunderthisdocument.</tspan><tspan y="-582.578" x="71.607 79.483379 85.548839 94.03611 101.46521 110.55249 115.40704 119.68341 125.13796 129.99251 136.05797 140.91252 150.31618 156.38164 161.23619 166.69074 173.05074 181.54894 189.57804 194.43259 199.88713 202.91986 207.21805 211.46169 215.73805 221.49806">TheEmergencyScopeRegistry:</tspan></text>
<text xml:space="preserve" transform="matrix(1 0 -0 1 0 792)" font-size="10.9091" font-family="LMRoman10"><tspan y="-556.276" x="72">&#x2022;</tspan></text>
<text xml:space="preserve" transform="matrix(1 0 -0 1 0 792)" font-size="10.9091" font-family="LMRoman10"><tspan y="-556.276" x="85.94183 92.00729 96.86185 99.89458 102.92731 108.99277 113.84732 121.77824 126.02187 132.08733 140.58553 145.44008 151.20009 156.05464 159.08737 165.15283 169.45102 172.48375 177.93831 186.4256 191.28015 196.7347 200.97834 205.83289 211.28743 216.74198 221.01834 224.05107 228.90563 236.83655 242.90201 248.96747 255.04384 259.88749 267.8075 275.68388 281.74934 284.78205 289.33116 299.02934 303.88389 312.97117 317.8257 322.10209 327.55665 332.4112 338.47666 343.3312 352.73487 358.18943 364.25489 368.49855 374.564 380.01856 384.29493 387.32765 391.26585 400.65858 409.74586 414.89497 424.2986 430.65864 439.15684 442.18955 447.94956 453.4041 458.85868 464.31324 469.1678 475.23326">definestheexclusivecategoriesunderwhichemergencyauthoritymaybeinvoked,</tspan></text>
<text xml:space="preserve" transform="matrix(1 0 -0 1 0 792)" font-size="10.9091" font-family="LMRoman10"><tspan y="-533.96" x="72">&#x2022;</tspan></text>
<text xml:space="preserve" transform="matrix(.9929753 0 -0 1.0070744 0 792)" font-size="10.832467" font-family="LMRoman10"><tspan y="-530.20919" x="86.54798 90.81598 97.14214 101.962589 106.783039 109.79446 112.805889 115.817317 120.63776 128.5563 132.77013 138.79299 147.26398 153.60097 158.42142 162.66774 171.69118 174.7026 178.91645 183.13028 187.95073 197.62412 203.04036 207.86081 212.07465 215.08606 220.5023 226.52516 230.79315 237.45511 240.76984 246.18607 250.43239 256.45524 259.46669 265.4895 271.51237 276.3328 286.0062 291.42243 296.2429 300.45674 303.46815 308.88435 314.9072 319.17518 325.84797 330.0618 334.30815 337.31956 342.73579 348.15199 352.97245 360.86933 365.1373 369.35115 374.76737 380.7902 386.81306 392.22926 396.4756 402.4984 406.76643 413.42839 417.69639 421.91023 427.32643 437.01066 441.8311 447.2473 453.27015 459.293 462.3044 466.51826 469.52967 474.9459 480.96873 485.23674 491.89869 497.3149 503.33775 513.0111 517.83157 523.55117 529.574 532.5854 536.8317 542.2479">specifiesthepermittedactions,forbiddenactions,triggerstandards,stopconditions,andexpira-</tspan></text>
<text xml:space="preserve" transform="matrix(1 0 -0 1 0 792)" font-size="10.9091" font-family="LMRoman10"><tspan y="-520.411" x="85.94 90.18364 93.21637 98.67092 108.36911 111.40184 114.43457 123.52185 126.55458 130.79822 138.74005 142.07823 147.53278 155.44188 160.29644 165.75098 170.30008 179.99828 184.85283 190.30738 194.55101 199.40557 204.8601 210.31465 214.59102 219.44557">tionlimitsforeachcategory,</tspan></text>
<text xml:space="preserve" transform="matrix(1 0 -0 1 0 792)" font-size="10.9091" font-family="LMRoman10"><tspan y="-498.09403" x="72">&#x2022;</tspan></text>
<text xml:space="preserve" transform="matrix(1 0 -0 1 0 792)" font-size="10.9091" font-family="LMRoman10"><tspan y="-498.09403" x="85.94183 88.97456 92.00729 101.094577 104.127307 108.37094 116.30186 121.1564 130.24369 135.09824 139.3746 144.82915 149.6837 155.74916 160.60372 169.99646 175.451 181.52738 185.77101 191.83647 197.29102 201.56739 204.5892 208.5383 217.93105 222.17469 231.26197 237.32743 241.60379 246.45835 251.92382 256.77836 262.53837 266.782 269.81474 275.2693 284.96748 290.42204 297.40388 300.43659 309.52388 318.61116 321.63298 327.70933 332.55299 338.32389 346.20027 352.26573 357.72029 361.99665 374.71665 380.1712 386.23667 389.26939 394.12394">limitsemergencyauthoritytopreventionofimminentharmonly,</tspan></text>
<text xml:space="preserve" transform="matrix(1 0 -0 1 0 792)" font-size="10.9091" font-family="LMRoman10"><tspan y="-475.778" x="72">&#x2022;</tspan></text>
<text xml:space="preserve" transform="matrix(1.0099504 0 -0 .99014756 0 792)" font-size="11.017651" font-family="LMRoman10"><tspan y="-480.51228" x="85.09329 91.21911 97.02541 101.92826 110.3788 116.504619 122.01344 130.40889 135.31175 140.82059 146.9464 150.32881 155.22066 163.66019 169.169 174.36934 179.88919 184.79206 189.11096 195.23677 200.7456 206.87142 211.77428 220.78673 226.29557 232.42137 236.70723 242.83306 248.34188 252.6608 255.7237 259.7121 264.62599 271.93067 278.0565 281.1194 285.46034 290.3632 293.4261 299.5519 302.6148 305.6777 311.80354 317.31236 321.6313 331.5582 337.06703 343.19285 347.4787 353.60453 359.11335 363.43226 366.49519 370.48356 375.39744 382.70213 389.12544 394.63426 397.69715 400.76008 405.6629 415.5898 421.09864 427.22447 431.5103 437.63615 443.14497 447.4639 450.5268 454.51518 459.42906 466.73377 472.24256 480.67109 485.57395 491.08274 496.9001 501.18595 505.50489 511.01374 515.9166 520.20248 523.2654 529.3912">doesnotconfergovernanceauthority,disciplinaryauthority,policyauthority,orcontracting</tspan></text>
<text xml:space="preserve" transform="matrix(1 0 -0 1 0 792)" font-size="10.9091" font-family="LMRoman10"><tspan y="-462.229" x="85.94 91.394557 97.460018 101.70365 107.76911 113.22366 117.50003 120.53276 124.47094 129.32549">authority.</tspan></text>
<text xml:space="preserve" transform="matrix(1.0099504 0 -0 .99014756 0 792)" font-size="11.017651" font-family="LMRoman10"><tspan y="-440.2647" x="71.290637 79.55387 89.51383 94.41668 103.59438 108.48622 112.805149 118.31397 123.21683 129.34265 134.2455 144.51395 150.02278 154.92565 159.2115 162.2744 167.78324 178.36019 187.53789 192.73822 203.00667 209.42995 218.78394 223.0698 228.57863 234.09847 239.00133 249.56726 255.0761 261.2019 265.54289 270.4457 276.27406 285.01106 290.2224 295.73124 298.79414 301.85704 312.434 317.94279 324.0686 328.3545 334.4803 339.9891 344.30805 347.37095 351.35935 361.61677 367.74259 373.8684 379.9942 384.89707 393.6671 403.61604 411.725 416.62788 422.1367 425.1996 429.54057 433.82643 438.14537 448.41383 453.31666 458.82548 463.11137 468.0142 473.523 479.03184 483.35075 488.26463 498.66529 506.63105 511.53388 515.8197 518.8826 524.3915 530.5173">NoemergencyactionmaybetakenabsentvalidauthorityunderaRegistrycategory.Actions</tspan></text>
<text xml:space="preserve" transform="matrix(1 0 -0 1 0 792)" font-size="10.9091" font-family="LMRoman10"><tspan y="-422.378" x="72 77.45455 83.52001 87.76365 92.06184 95.09457 101.16003 109.6473 113.89094 119.9564 128.45459 136.48369 141.33824 146.79279 149.82552 154.1237 158.36734 162.6437 172.03646 177.491 181.76737 190.25466 196.32012 202.38558 207.84012 213.90558 218.14922 224.21468 229.66922 233.94559 236.97832 241.83287 246.68743 256.3965 261.85108 267.91654 277.61473 283.68019 287.95655 293.4111 299.47657 302.50929 308.57475 311.60746 315.8511 320.70567 330.40385 336.4802 342.54566 348.6111 353.46568 361.37477 365.6184 371.68388 374.71659 382.6475 388.71296 394.47297 399.3275 405.39299 414.48027 419.3348 425.09483 429.33848">outsidetheRegistryareunauthorizedandprohibitedunderthisdocument.</tspan><tspan y="-402.054" x="72 79.4291 84.88365 89.43275 99.141849 103.9964 113.08368 117.93823 122.20369 127.65824 132.51279 138.57825 143.4328 152.83646 155.86919 161.6292 167.08376 172.84375 177.6983 183.15285 187.39649 190.42922 195.88376 201.94922">Eachemergencyinvocation:</tspan></text>
<text xml:space="preserve" transform="matrix(1 0 -0 1 0 792)" font-size="10.9091" font-family="LMRoman10"><tspan y="-375.753" x="72">&#x2022;</tspan></text>
<text xml:space="preserve" transform="matrix(1 0 -0 1 0 792)" font-size="10.9091" font-family="LMRoman10"><tspan y="-375.753" x="85.94183 94.723659 100.789119 105.0873 112.97458 117.250949 122.1055 125.44369 130.29824 134.5746 139.41825 145.49462 150.33826 158.83646 167.92374 173.08374 178.53829 181.57102 184.59284 194.30194 202.33104 207.1856 212.64014 215.67287 219.97106 224.21469 228.49106 237.8838 242.73836 248.1929 252.43654 257.29109 262.74565 268.2002 272.47657 281.8693 286.72386 292.48387 298.54933 303.40388">mustreferenceavalidRegistrycategorycode,</tspan></text>
<text xml:space="preserve" transform="matrix(1 0 -0 1 0 792)" font-size="10.9091" font-family="LMRoman10"><tspan y="-353.43699" x="72">&#x2022;</tspan></text>
<text xml:space="preserve" transform="matrix(.9964939 0 -0 1.0035185 0 792)" font-size="10.870851" font-family="LMRoman10"><tspan y="-352.1978" x="86.24238 94.993419 101.037609 105.320728 113.18035 117.44172 122.27924 125.60573 130.44326 134.70462 139.54216 145.58634 150.42388 158.90314 164.33856 167.50742 170.67629 175.50295 180.34047 184.56923 189.40676 199.09268 207.09363 211.93117 217.3666 220.38869 224.67182 228.90056 233.16193 242.53261 247.96802 254.31659 257.64308 262.4806 267.3181 271.54689 279.46086 285.50505 289.78816 292.81028 298.85447 307.93165 312.1604 318.2046 326.67298 331.5105 336.94593 342.68577 346.91453 351.17588 356.61134 359.63343 362.65553 367.49305 377.1681 382.60356 388.34336 393.18089 398.61634 404.66053 410.7047 413.72685 419.16227 423.42366 432.80519 438.8494 443.68693 446.709 449.7311 455.7753 460.61283 470.2879 473.31 482.98509 487.2138 493.25804 501.73728 509.73823 514.57577 520.0112 523.03329 527.3164 531.54519 535.8066 540.6332">mustreferenceaffectedRegistryobjectsusingthecontrolledvocabularydefinedintheRegistry,</tspan></text>
<text xml:space="preserve" transform="matrix(1 0 -0 1 0 792)" font-size="10.9091" font-family="LMRoman10"><tspan y="-331.12" x="72">&#x2022;</tspan></text>
<text xml:space="preserve" transform="matrix(1 0 -0 1 0 792)" font-size="10.9091" font-family="LMRoman10"><tspan y="-331.12" x="85.94183 94.723659 100.789119 105.0873 112.97458 117.82913 123.28368 132.37097 138.43643 141.46916 150.86191 158.73828 161.77101 166.01465 175.71285 179.95648 186.02194 194.52014 199.3747 205.1347 211.20017 214.2329 218.50926 223.9638 228.20745 231.24018 236.69472 246.39292 251.84746 257.9129 267.61109 271.90928 276.15293 281.60749 291.3166 296.17115 301.6257 307.69117 313.75663 316.78935 321.033 324.0657 329.52027 335.58573 343.51664 348.9712 355.95304 360.1967 366.26216 374.74943 380.20399 386.26945 392.3349 395.3676 398.40034 403.25489 408.70945 414.7749 417.80763 426.2949 431.14945 436.604 440.84767 445.7022 451.15678 456.61134 460.8877 465.74226">mustcomplywiththeexpirationandstopconditionsoftheapplicablecategory,</tspan></text>
<text xml:space="preserve" transform="matrix(1 0 -0 1 0 792)" font-size="10.9091" font-family="LMRoman10"><tspan y="-308.804" x="72">&#x2022;</tspan></text>
<text xml:space="preserve" transform="matrix(1 0 -0 1 0 792)" font-size="10.9091" font-family="LMRoman10"><tspan y="-308.804" x="85.94183 94.723659 100.789119 105.0873 112.97458 119.33459 127.83277 130.8655 136.32004 141.77458 147.22913 152.08368 161.78188 167.23642 175.16735 184.26554 194.26918 199.72373 203.96736 208.82192 213.09828 216.13101 221.58556 228.25102 236.1274 240.98195 245.22559 248.25832 253.71286 263.42198 269.48744 273.7856 276.81834 282.8838 291.97108 297.42564 307.1238 311.97837 321.06565 325.9202 330.19657 335.65113 340.50569 346.57115 351.4257 360.81843 363.85115 369.3057 378.4039 382.7021 386.94575 393.0112 402.70939 408.16395 416.10578 422.17124 427.0258 430.0585 433.09126 439.1567 444.01127 453.70945 456.74217 466.44035 472.5058 477.36036 482.2149 486.45857 489.49128 494.94584">mustbeloggedasaMaterialActionusinganemergencylogstubasdefinedinSection</tspan></text>
<text xml:space="preserve" transform="matrix(1 0 -0 1 0 792)" font-size="10.9091" font-family="LMRoman10"><tspan y="-308.804" x="504.65495 510.1095 513.1422 518.59677">4.11</tspan></text>
<text xml:space="preserve" transform="matrix(1 0 -0 1 0 792)" font-size="10.9091" font-family="LMRoman10"><tspan y="-308.804" x="524.0513">.</tspan><tspan y="-282.503" x="72 79.4291 88.51638 93.370929 97.64729 103.101848 107.95639 114.02185 118.8764 128.26914 133.72368 139.78914 144.03278 150.09824 155.55278 159.82915 162.86188 166.81098 176.20372 184.98555 191.05101 195.3492 203.22557 209.30194 214.75649 222.63286 229.00377 237.49106 243.55652 247.8547 252.70926 262.40745 266.6511 272.10566">Emergencyauthoritymustnotbeusedto:</tspan></text>
<text xml:space="preserve" transform="matrix(1 0 -0 1 0 792)" font-size="10.9091" font-family="LMRoman10"><tspan y="-256.201" x="72">&#x2022;</tspan></text>
<text xml:space="preserve" transform="matrix(1 0 -0 1 0 792)" font-size="10.9091" font-family="LMRoman10"><tspan y="-256.201" x="85.94183 90.2182 95.072757 100.5273 105.98185 111.43639 119.93458 125.38913 130.24369 135.09824 139.94188 144.25098 152.1819 156.45827 159.491 164.94554 170.70555 174.94919 179.24738 185.91284 190.7674 196.5274 199.56014 204.41469 208.65833 215.3347 221.40016 226.8547 232.92017 239.58563 245.04018 252.94928 257.19294 261.4693 266.32386 270.62205 276.6875 282.14207 286.44026 294.38209 299.83665 305.59666 314.98939 321.3603 326.21485 330.4912 334.7894 340.24397 346.30943">revokeaccessrights,evict,ban,ortrespassanyperson,</tspan></text>
<text xml:space="preserve" transform="matrix(1 0 -0 1 0 792)" font-size="10.9091" font-family="LMRoman10"><tspan y="-233.885" x="72">&#x2022;</tspan></text>
<text xml:space="preserve" transform="matrix(1 0 -0 1 0 792)" font-size="10.9091" font-family="LMRoman10"><tspan y="-233.885" x="85.94183 92.00729 95.04002 99.33821 104.192768 107.225498 113.290958 116.323688 119.356418 125.421878 133.90917 138.20735 142.45099 147.90554 151.08554 157.90918 163.36373 171.27283 177.33829 182.79283 187.0692 191.31284 194.34557 199.20012 202.23285 208.29831 213.75286 219.51287 223.7565 228.05469">disciplinestafforparticipants,</tspan></text>
<text xml:space="preserve" transform="matrix(1 0 -0 1 0 792)" font-size="10.9091" font-family="LMRoman10"><tspan y="-211.569" x="72">&#x2022;</tspan></text>
<text xml:space="preserve" transform="matrix(1 0 -0 1 0 792)" font-size="10.9091" font-family="LMRoman10"><tspan y="-211.569" x="85.94183 95.02911 100.78912 106.85458 109.887317 113.2255 122.61823 128.98914 134.44368 137.47641 140.50914 145.3637 150.21825 156.88372 162.94918 167.22554 172.98554 177.84009 182.69464 188.7601 194.82556 199.10193 203.95648 210.62195 216.07649 223.9856 229.44014 234.58924 240.0547 244.90926 249.18563 255.25109 260.70564 266.7711 271.62565 280.1129 284.38929 290.45475 293.48747 298.342 302.6402">modifypolicy,procedure,orgovernancerules,</tspan></text>
<text xml:space="preserve" transform="matrix(1 0 -0 1 0 792)" font-size="10.9091" font-family="LMRoman10"><tspan y="-189.252" x="72">&#x2022;</tspan></text>
<text xml:space="preserve" transform="matrix(1 0 -0 1 0 792)" font-size="10.9091" font-family="LMRoman10"><tspan y="-189.252" x="85.94183 91.396389 97.461849 101.70548 107.77094 113.225498 117.50186 120.53459 125.389148 133.87644 138.73099 144.18553 149.94554 154.18918 158.46555 163.92009 168.77465 173.01828 177.31647 183.99285 190.0583 195.51285 199.78922 204.03285 210.09832 214.95287 222.86197 227.71652 233.17107 242.25835 251.34563 254.37836 258.622 267.7093 272.56385 278.32386 282.5675 286.8657 293.54206 298.9966 306.9057 312.97117 317.8257 329.3348 332.36753 335.40028 341.46574 346.9203 352.98576 357.8403 360.87303 366.32759 373.00395 378.4585 384.52397 387.55668 390.5894 396.04396 401.4985 405.74217 408.77488 414.22944 420.2949 424.59309">authorizecontracts,partnercommitments,ornewfinancialobligations,</tspan></text>
<text xml:space="preserve" transform="matrix(1 0 -0 1 0 792)" font-size="10.9091" font-family="LMRoman10"><tspan y="-166.936" x="72">&#x2022;</tspan></text>
<text xml:space="preserve" transform="matrix(1 0 -0 1 0 792)" font-size="10.9091" font-family="LMRoman10"><tspan y="-166.936" x="85.94183 92.31275 97.1673 101.443668 104.78185 110.236408 114.51277 127.23278 132.68733 138.44734 147.851 153.30554 158.1601 162.40373 165.43647 170.891 180.5892 183.62194 187.8983 192.17467 197.02922 202.48378 207.33834 211.6147 215.91289 218.94562 225.01108 228.04381 236.5311 244.40747 247.4402 251.68384 257.7493 263.20387 269.26933 277.15663 285.72026 290.86936 296.3239 301.17848 305.45484 311.5203 314.553 320.61848 329.70576 337.42939 343.1894 349.25486 358.6585 364.11308 370.17854 376.244 380.52037 385.66947 390.81858 396.27314 399.30586">performanyactionirreversiblewithoutGoverningBodyapproval.</tspan></text>
<text xml:space="preserve" transform="matrix(1.0034939 0 -0 .99651828 0 792)" font-size="10.947215" font-family="LMRoman10"><tspan y="-141.12636" x="71.74931 79.20437 88.3234 93.194919 97.48623 102.95983 107.831348 113.918 118.78951 128.19318 133.66678 139.75345 144.01192 150.09856 155.57218 159.86348 162.9068 166.85875 176.2624 182.36002 188.1292 193.0007 200.93744 207.02408 212.4977 220.37969 225.2512 229.54251 234.41403 239.88764 244.1461 252.64115 258.7278 263.0191 267.89064 272.76213 277.6336 283.72026 288.59178 294.38285 302.26484 307.73844 313.8251 323.53529 332.34779 338.43443 342.74763 350.62965 356.71629 362.18989 370.0719 376.46507 384.9601 389.8316 392.8749 397.1334 402.00489 411.71507 417.1887 425.12544 430.59904 436.6857 440.94416 447.0308 452.5044 456.79573 459.83906 464.71055 470.18415 474.44264 477.48594 482.95957 492.66975 496.01957 501.4932 509.40806 512.75796 518.84457 523.10299 529.18966 533.4809">Emergencyauthoritydoesnotcreateprecedentandmustnotbecitedasauthorizationforfuture</tspan></text>
<text xml:space="preserve" transform="matrix(1 0 -0 1 0 792)" font-size="10.9091" font-family="LMRoman10"><tspan y="-127.085" x="72 77.45455 82.3091 86.552738 89.585468 95.040019 101.10548 105.40366">actions.</tspan></text>
<text xml:space="preserve" transform="matrix(.995992 0 -0 1.0040242 0 792)" font-size="10.8653759" font-family="LMRoman10"><tspan y="-106.3341" x="72.28974 80.28666 85.12175 90.554439 93.57501 97.85597 102.0826 106.341838 115.74038 120.57547 126.31239 130.53903 134.79825 137.81884 142.65393 150.59651 156.0292 160.28844 168.78517 171.80574 180.85662 189.60324 195.6444 199.87102 205.30371 211.34487 214.36544 222.87303 228.91419 234.95534 239.21456 242.23514 248.27629 257.3706 262.80329 268.54023 277.93876 282.77384 291.8247 296.6598 300.919 306.3517 311.1868 317.22795 322.06303 326.88728 334.81898 342.81593 347.651 353.08369 356.09336 360.3852 364.61183 368.87107 378.2696 383.10469 388.84159 393.06825 397.32746 400.34803 405.1831 413.12568 422.1765 427.305 436.70353 443.04893 451.54563 456.9783 463.01948 469.0606 473.8957 479.93684 486.62989 490.88914 495.7242 504.7751 509.90354 515.3362 520.17129 526.2124 532.89468 538.32736">Registryentriesareimmutableduringanyemergency.Registryentriesmaybeadded,removed,or</tspan></text>
<text xml:space="preserve" transform="matrix(1 0 -0 1 0 792)" font-size="10.9091" font-family="LMRoman10"><tspan y="-93.212" x="72 81.08728 86.84729 92.91275 95.94548 98.97821 102.01094 106.86549 116.56368 122.018238 128.0837 131.11643 140.52008 146.28009 155.67284 161.7383 166.01467 169.0474 174.50194 182.41104 190.97469 196.13469 201.58925 206.4438 210.72017 216.78563 219.81836 225.88382 234.9711 242.69475 248.45475 254.5202 263.91294 269.3675 275.43296 281.4984 285.77479 290.93479 296.0839 301.53846 308.2039 313.65846 319.7239 329.433 338.21485 344.2803 348.5785 356.45487 362.53123 367.98579 375.86216 382.23307 390.72035 396.1749 399.2076 403.45127 408.30583 412.58219 417.43675 427.13493 431.4113 436.26585 440.5095 444.78587 450.24043 455.69499 460.54954 464.79319 467.8259 473.28047 478.135 481.16773 486.02229">modifiedonlybypriorGoverningBodyapprovalandmustnotbealteredretroactively.</tspan></text>
<text xml:space="preserve" transform="matrix(1 0 -0 1 0 792)" font-size="10.9091" font-family="LMRoman10"><tspan y="-42.112" x="300.54499 305.99955">33</tspan></text>
</svg>
