<svg xmlns="http://www.w3.org/2000/svg" xmlns:xlink="http://www.w3.org/1999/xlink" xmlns:inkscape="http://www.inkscape.org/namespaces/inkscape" version="1.1" width="612" height="792" viewBox="0 0 612 792">
<text xml:space="preserve" transform="matrix(1 0 -0 1 0 792)" font-size="11.9552" font-family="LMRoman12" font-weight="bold"><tspan y="-709.041" x="72 78.73078 82.47276 89.203548">4.16</tspan></text>
<text xml:space="preserve" transform="matrix(1 0 -0 1 0 792)" font-size="11.9552" font-family="LMRoman12" font-weight="bold"><tspan y="-709.041" x="106.02451 115.744098 122.47488 129.5643 134.80068 140.30007 147.03084 150.77281 154.51479 160.65975 172.61495 180.08695 187.55895 195.03095 200.33905 204.08103 211.55303 215.295 221.83449 227.33388">ControlledSubsidiary</tspan></text>
<text xml:space="preserve" transform="matrix(1 0 -0 1 0 792)" font-size="10.9091" font-family="LMRoman10"><tspan y="-688.448" x="71.596 83.41055 91.28693 96.74148 102.51239 106.75603 111.032398 116.486949 119.51968 122.55241 127.40695 137.10515 143.17061 149.23607 155.30153 159.59972 162.63245 168.6979 171.73064 177.18518 181.46155 190.8543 193.88703 201.82886 207.2834 213.04341 222.43616 225.46889 230.32344 235.77799 241.23253 247.9089 252.76346 258.52348 262.76713 265.79985 269.73805 279.13078 282.16349 291.8726 299.74897 305.81443 308.84715 313.39625 323.09443 331.27626 336.1308 347.65083 355.98539 361.43995 366.8945 372.34907 377.19273 381.4691 384.5018 389.95637 396.02183 405.73094 411.7964 414.8291 419.10548 423.96003 428.81459 433.05824 436.09095 445.48368 450.93824 458.84733 461.88005 467.9455 474.01097 477.04368 481.32005 486.1746 491.02915 495.2728 498.3055 504.06553">AControlledSubsidiaryisanylegalentityinwhichNewDoggerlanddirectlyorindirectly:</tspan></text>
<text xml:space="preserve" transform="matrix(1 0 -0 1 0 792)" font-size="10.9091" font-family="LMRoman10"><tspan y="-662.147" x="72">&#x2022;</tspan></text>
<text xml:space="preserve" transform="matrix(.997998 0 -0 1.002006 0 792)" font-size="10.8872599" font-family="LMRoman10"><tspan y="-660.82138" x="86.112407 91.25119 99.11179 105.16511 113.10192 122.17101 127.61464 131.88245 140.3636 144.59876 150.65207 156.09572 165.79625 168.8229 171.84958 175.18108 179.11138 188.50708 194.86524 199.71007 203.97788 208.82271 213.66753 219.41602 227.29839 231.53353 236.97716 242.42079 251.48989 259.3614 264.80503 271.78376 276.6286 282.37709 288.4304 291.45704 295.38734 300.22129 306.89518 315.96427 320.8091 329.57337 335.93153 340.77638 345.04417 349.33375 355.38706 358.41374 368.11427 371.14094 376.8894 381.12455 385.9694 390.23719 395.082 399.3716 403.60676 407.89634 414.57023 420.01387 427.918 433.36164 438.80528 443.0404 446.06706 452.12037 461.21125 466.0561 471.49974 477.2482 481.48335 485.75114 491.19477 497.86866 502.13645 505.1631 510.60673 516.35519 520.59036 524.87997 531.55386 536.99746">ownsmorethanfiftypercent(50%)ofequity,membershipinterests,orvotingcontrolrights,or</tspan></text>
<text xml:space="preserve" transform="matrix(1 0 -0 1 0 792)" font-size="10.9091" font-family="LMRoman10"><tspan y="-639.83" x="72">&#x2022;</tspan></text>
<text xml:space="preserve" transform="matrix(1.0099504 0 -0 .99014756 0 792)" font-size="11.017651" font-family="LMRoman10"><tspan y="-646.19668" x="85.09329 91.21911 96.727939 105.310688 110.21354 115.72236 121.5507 125.83656 130.15549 135.6643 140.56717 144.85303 150.97884 156.48767 163.79238 170.21566 175.42702 183.08429 187.98715 196.54785 200.83373 210.58434 216.09317 222.21898 228.64226 234.1511 237.214 243.04235 251.56999 261.33164 270.5093 276.3156 279.687 285.19584 289.51475 292.57768 296.55506 306.6252 312.134 319.7472 325.256 330.46736 335.9762 340.87904 345.19798 351.32377 354.3867 360.51249 370.27415 379.4518 384.96064 391.08647 396.59526 402.10408 407.00694 411.31483 415.6668 423.12577 429.2516 432.31449 436.63343 441.53627 446.43913 450.72499 456.2338 460.55274 464.89369 472.36366 477.87248 486.43318 491.33604 497.15336 503.27919 506.34208 511.5534 517.06228 520.1252 525.028 530.8564">hascontractualpowertoappointamajorityofgoverningmanagers,directors,orequivalent</tspan></text>
<text xml:space="preserve" transform="matrix(1 0 -0 1 0 792)" font-size="10.9091" font-family="LMRoman10"><tspan y="-626.281" x="85.94 90.794559 96.24911 102.00911 106.25275 110.52911 115.983669 119.016399 122.049129 125.081859 131.14731 140.23459 146.31096 151.1546 156.00916 159.04189 163.34008 166.3728 171.82735 177.8928 181.52555 190.61283 196.06737 201.53284 206.38739 210.66376 214.96195 221.62741 227.08196">controllingdecision-makers,or</tspan></text>
<text xml:space="preserve" transform="matrix(1 0 -0 1 0 792)" font-size="10.9091" font-family="LMRoman10"><tspan y="-603.965" x="72">&#x2022;</tspan></text>
<text xml:space="preserve" transform="matrix(1 0 -0 1 0 792)" font-size="10.9091" font-family="LMRoman10"><tspan y="-603.965" x="85.94183 92.00729 97.461849 105.38185 110.236408 113.416408 116.59641 121.45096 126.30551 130.54915 133.58188 139.03644 147.52373 152.37828 157.83283 163.59284 167.83647 172.11284 177.56739 184.22194 189.37104 194.82559 199.68015 207.58925 213.65471 219.72017 225.78563 231.24018 236.09473 243.96019 249.41474 255.4802 261.54566 265.82203 270.97114 276.13114 281.5857 284.6184 291.27296 297.3384 301.61479 307.06935 310.10206 313.1348 321.00028 327.06575 330.09846 334.39665 338.6403 342.91667 345.94938 352.01484 358.0803 362.32395 365.35667 370.81123 380.5094 386.57487 391.4294 396.28398 399.31669 403.61488 406.64759 412.10215 418.1676 422.4658 429.12034 434.5749 442.47309 445.5058 448.5385 454.29853 460.36399 463.3967 469.46217 474.91673 479.16038 482.19309 487.64765 497.34584 503.4113 508.26585 513.12039 516.1531 520.45126 523.48397 528.9385 535.0039 539.30209">haseffectivecontroloverbudgetapproval,profitdistributiondecisions,orliquidationdecisions.</tspan><tspan y="-577.664" x="72 78.218189 83.67274 91.58183 96.73093 102.18547 107.64002 110.67275 116.73821 122.192768 128.25823 133.11278 141.61098 147.06552 154.03644 160.1019 165.55644 171.6219 177.68737 181.931 188.60738 197.69466 201.03284 206.48738 210.76375 214.39649 220.46195 224.73831 230.19286 233.22559 236.25832 244.13469 248.98925 254.76016 259.0038 262.03654 265.97474 275.36747 284.45475 289.60386 299.0075 305.36753 313.86573 322.953 330.82939 336.28395 342.04396 346.2876 350.56398 356.01853 359.05125 362.08396 366.9385 376.6476 382.71308 388.77854 394.844 399.14219 402.1749 408.24037 411.27308 416.72764 421.004 425.84767">Foravoidanceofdoubt,afor-profitentitymaybeaControlledSubsidiary.</tspan><tspan y="-557.34" x="72 82.00365 88.06911 92.312747 97.767299 103.832759 106.865489 109.89822 112.93095 116.869129 122.62913 130.5164 138.69823 144.76369 149.31279 155.37825 160.8328 166.89826 172.3528 177.20735 182.6619 188.72736 191.76009">Mutability:Unchangeable</tspan></text>
<text xml:space="preserve" transform="matrix(1 0 -0 1 0 792)" font-size="11.9552" font-family="LMRoman12" font-weight="bold"><tspan y="-528.13107" x="72 78.73078 82.47276 89.203548">4.17</tspan></text>
<text xml:space="preserve" transform="matrix(1 0 -0 1 0 792)" font-size="11.9552" font-family="LMRoman12" font-weight="bold"><tspan y="-528.13107" x="106.02451 113.49651 120.96851 128.44052 133.74863 137.4906 144.9626 148.70458 155.24407 160.74346 172.32805 182.89646 189.25662 195.97545 202.10846 207.60785 215.07985 221.61934 229.09134 235.06894 245.68515 255.40473 262.8767 269.4162 274.9156 280.15199 286.285">SubsidiaryGovernanceCharter</tspan></text>
<text xml:space="preserve" transform="matrix(1.0099504 0 -0 .99014756 0 792)" font-size="11.017651" font-family="LMRoman10"><tspan y="-512.58828" x="70.89061 83.06512 89.19093 95.31674 101.44256 105.78351 108.84642 114.97223 118.03514 123.54396 127.86288 137.58045 146.2293 151.44065 156.9605 161.86336 166.18227 172.30808 177.81691 183.94272 188.84558 197.6597 205.61446 211.74027 217.2491 221.56803 225.85388 230.75675 238.9759 242.0388 250.29103 259.71113 267.66587 271.9738 275.03669 279.32258 283.60844 288.5113 298.54838 301.61128 307.7371 312.07807 316.36393 320.68287 326.8087 335.98637 340.88923 346.71754 354.9147 360.4235 366.54933 372.05815 378.18397 382.46983 387.37269 397.3987 403.22706 412.95567 417.24156 423.36735 432.18147 440.83033 446.03068 451.5505 456.45335 460.77229 466.8981 469.961 476.08683 485.5069 493.3074 499.1137 505.23954 514.9681 519.25399 525.37979 530.8886">ASubsidiaryGovernanceCharterisawritteninstrumentadoptedbytheGoverningBodythat</tspan></text>
<text xml:space="preserve" transform="matrix(1 0 -0 1 0 792)" font-size="10.9091" font-family="LMRoman10"><tspan y="-493.989" x="72 78.06546 82.92001 85.95274 88.98547 95.050937 99.90549 107.8364 112.08004 118.1455 126.643688 130.94187 137.00733 143.07279 147.37097 150.4037 156.46916 159.50189 164.95644 169.2328 174.99282 178.02555 182.32373">definesthesubsidiary&#x2019;s:</tspan></text>
<text xml:space="preserve" transform="matrix(1 0 -0 1 0 792)" font-size="10.9091" font-family="LMRoman10"><tspan y="-467.687" x="72">&#x2022;</tspan></text>
<text xml:space="preserve" transform="matrix(1 0 -0 1 0 792)" font-size="10.9091" font-family="LMRoman10"><tspan y="-467.687" x="85.94183 92.00729 98.072757 102.34912 108.72004 114.17459 118.47278 126.96006 132.41461 138.48007 148.18918 154.54918 159.40373 163.6801 172.76738 175.80011 180.04375 184.28739 189.14194 198.85105 204.30559 209.16014 213.40378 216.43651 222.19652 225.22925 229.16744 238.56018 242.85837 247.71292 253.16747 259.53837 264.3929">purposeandpermittedactivityscope,</tspan></text>
<text xml:space="preserve" transform="matrix(1 0 -0 1 0 792)" font-size="10.9091" font-family="LMRoman10"><tspan y="-445.371" x="72">&#x2022;</tspan></text>
<text xml:space="preserve" transform="matrix(1 0 -0 1 0 792)" font-size="10.9091" font-family="LMRoman10"><tspan y="-445.371" x="85.94183 91.396389 96.54548 102.00002 106.85457 111.130939 117.196399 122.65095 128.7164 133.57096 142.06916 146.36734 150.61098 154.88735 160.9528 165.80736 170.051 176.11646 180.39282 188.88011 194.33466 200.40012 210.09832 215.55286 221.61832 227.98923 233.44377 236.4765 242.24742 246.49106 255.57834 260.422 266.1929 274.06929 283.15657 288.0111 292.25477 298.32023 304.08024 310.1457">governancestructureandappointmentmethod,</tspan></text>
<text xml:space="preserve" transform="matrix(1 0 -0 1 0 792)" font-size="10.9091" font-family="LMRoman10"><tspan y="-423.055" x="72">&#x2022;</tspan></text>
<text xml:space="preserve" transform="matrix(1 0 -0 1 0 792)" font-size="10.9091" font-family="LMRoman10"><tspan y="-423.055" x="85.94183 91.09093 96.54547 101.400028 105.67639 109.97458 113.00731 118.46186 124.23277 132.10915 137.56369 143.62915 153.32735 157.60372 162.45827 168.82918 174.28372 178.56009 182.80373 185.83646 191.90192 200.9892 206.44374 212.52011 215.54193 218.57466 224.0292 229.48375 233.72739 236.76012 242.21466 248.28012 256.22196 260.4656 269.5529 277.7347 282.58927 294.09837 302.43293 307.88749 313.34205 318.7966 323.65116 327.92753 330.96025 336.4148 342.48027 348.54573">oversightandreportingobligationstoNewDoggerland,</tspan></text>
<text xml:space="preserve" transform="matrix(1 0 -0 1 0 792)" font-size="10.9091" font-family="LMRoman10"><tspan y="-400.738" x="72">&#x2022;</tspan></text>
<text xml:space="preserve" transform="matrix(1 0 -0 1 0 792)" font-size="10.9091" font-family="LMRoman10"><tspan y="-400.738" x="85.94183 90.79639 96.25094 102.3164 105.34913 108.38186 111.41459 116.269138 120.51277 124.1455 129.60005 132.93824 136.57097 139.6037 145.36371 149.60735 154.4619 158.73827 163.59282 167.891 175.77829 181.23284 187.2983 196.99649 201.27286 206.12741 209.16014 214.61469 218.85832 223.71288 229.77834 233.41107 239.47653 244.93108 249.20745 253.14563 262.5493 266.79295 271.0584 276.51298 282.58934 286.8875 292.34208 297.19664 301.44029 304.4621 309.91667 319.62577 323.90214 329.9676 333.0003 337.85487 342.15306">conflict-of-interestandrelated-partytransactionrules,</tspan></text>
<text xml:space="preserve" transform="matrix(1 0 -0 1 0 792)" font-size="10.9091" font-family="LMRoman10"><tspan y="-378.422" x="72">&#x2022;</tspan></text>
<text xml:space="preserve" transform="matrix(1 0 -0 1 0 792)" font-size="10.9091" font-family="LMRoman10"><tspan y="-378.422" x="85.94183 92.00729 96.28366 101.73821 104.77094 107.80367 115.68004 121.7455 124.77823 129.07642 133.32006 137.59642 140.62915 146.69461 152.77098 157.01462 160.03644 165.49098 175.20009 180.65464 186.7201 196.41829 200.69466 205.54921 209.8474 214.70195 218.97832 224.43288 232.93108 239.30199 244.75653 247.77835 250.81108 255.66564 260.52018">profitdistributionandreservepolicy,</tspan></text>
<text xml:space="preserve" transform="matrix(1 0 -0 1 0 792)" font-size="10.9091" font-family="LMRoman10"><tspan y="-356.106" x="72">&#x2022;</tspan></text>
<text xml:space="preserve" transform="matrix(1 0 -0 1 0 792)" font-size="10.9091" font-family="LMRoman10"><tspan y="-356.106" x="85.94183 90.24002 96.00002 102.06548 106.30912 112.37458 117.534587 125.41096 131.47641 138.14188 144.20734 147.24007 152.69463 157.54918 161.84737 166.091 175.17829 180.03284 185.79285 190.03649 196.71286 202.1674 210.0765 216.14197 219.1747 223.47289 227.77108 233.22562 236.25835 242.3238 246.56745 249.60018 255.05472 264.76383 269.00749 273.28385 276.31657 281.77113 287.22569 292.06935 296.3457 304.28755 309.7421 315.80757 325.50575 331.5712 335.84757 341.60758 346.46214 351.31669 355.61488 359.91307">shutdown,divestment,ordissolutiontriggersandprocess.</tspan></text>
<text xml:space="preserve" transform="matrix(1.0099504 0 -0 .99014756 0 792)" font-size="11.017651" font-family="LMRoman10"><tspan y="-333.0857" x="70.89061 84.34316 90.46898 96.59479 102.720607 107.07257 110.135478 116.26129 119.324199 124.83303 129.15195 140.15857 148.80742 154.01879 159.5276 164.43047 168.74938 174.87519 180.38402 186.52085 191.41269 201.51589 209.47061 215.59644 221.10526 225.42418 229.71004 234.6129 244.12114 247.18404 256.72535 261.06629 267.1921 273.61543 279.1242 283.44316 289.56898 292.63188 298.7577 304.2665 308.55238 318.65556 322.94145 333.63954 337.9254 344.05125 347.11415 356.65544 364.61018 370.119 376.2448 380.58576 386.09458 389.1575 392.2204 398.34623 403.855 408.1409 413.04374 424.35887 433.00773 438.21907 443.7389 448.64173 452.96067 459.0865 464.5953 470.7211 475.62397 485.7161 494.1336 499.93989 504.84275 510.9686 520.1463 525.0492 530.87759">ASubsidiaryGovernanceCharterissubordinatetothisConsolidatedGovernanceDocument</tspan></text>
<text xml:space="preserve" transform="matrix(1 0 -0 1 0 792)" font-size="10.9091" font-family="LMRoman10"><tspan y="-316.255" x="72 78.06546 84.13092 88.40729 92.705478 98.770938 104.22549 109.98549 117.872768 122.1164 131.20369 137.26915 142.1237 146.97826 151.2219 154.25463 159.70917">pursuanttoSection</tspan></text>
<text xml:space="preserve" transform="matrix(1 0 -0 1 0 792)" font-size="10.9091" font-family="LMRoman10"><tspan y="-316.255" x="169.40737">2</tspan></text>
<text xml:space="preserve" transform="matrix(1 0 -0 1 0 792)" font-size="10.9091" font-family="LMRoman10"><tspan y="-316.255" x="174.86191">.</tspan><tspan y="-295.931" x="72 82.00365 88.06911 92.312747 97.767299 103.832759 106.865489 109.89822 112.93095 116.869129 122.62913 130.5164 138.69823 144.76369 149.31279 155.37825 160.8328 166.89826 172.3528 177.20735 182.6619 188.72736 191.76009">Mutability:Unchangeable</tspan></text>
<text xml:space="preserve" transform="matrix(1 0 -0 1 0 792)" font-size="11.9552" font-family="LMRoman12" font-weight="bold"><tspan y="-266.722" x="72 78.73078 82.47276 89.203548">4.18</tspan></text>
<text xml:space="preserve" transform="matrix(1 0 -0 1 0 792)" font-size="11.9552" font-family="LMRoman12" font-weight="bold"><tspan y="-266.722" x="106.02451 116.054927 122.18794 125.929927 132.46942 137.7058 143.8388 151.3108 155.794 164.60498 171.14447 176.64386 181.50963 193.09423 201.33136 206.83075 213.37024 220.84224 226.15035 232.68984 238.66744 243.90381 247.64579 254.37656">Related-PartyTransaction</tspan></text>
<text xml:space="preserve" transform="matrix(.9899495 0 -0 1.0101526 0 792)" font-size="10.799458" font-family="LMRoman10"><tspan y="-243.65526" x="72.322879 83.899898 91.84829 96.65405 99.6563 105.05603 109.25702 114.06278 120.06728 123.663509 130.71555 136.11527 140.34867 144.24727 153.4268 160.30606 164.53945 169.93918 175.94368 180.19866 185.59839 190.40415 194.60514 197.60739 203.00713 212.49985 215.5021 223.23451 228.63423 234.33635 243.51589 247.71688 251.95027 257.35 263.3545 267.60948 273.00923 277.81495 282.01594 285.0182 290.4179 296.4224 302.94529 307.751 313.15077 318.85289 323.05384 327.2872 332.68696 337.49269 341.69367 348.21653 351.21879 356.0245 361.42427 365.67924 370.485 377.00785 381.26283 386.06858 390.30195 396.00407 399.00633 403.81205 412.0952 417.49497 422.89469 427.12806 431.9338 436.73954 445.7355 450.54127 456.24339 460.44435 466.9672 469.96946 475.36918 480.76893 486.7734 493.29627 497.49726 501.73063 507.13035 513.1348 517.3899 520.6945 525.50027 529.73367 536.2565 541.6562">ARelated-PartyTransactionisanytransaction,contract,lease,serviceagreement,loan,transfer,or</tspan></text>
<text xml:space="preserve" transform="matrix(1 0 -0 1 0 792)" font-size="10.9091" font-family="LMRoman10"><tspan y="-232.58" x="72 75.03273 81.09819 84.73092 90.49092 93.52365 99.58911 109.2873 114.74185 119.01822 123.294589 128.74913 134.81459 140.26914 145.12369 154.21097 159.06552 164.83644 172.71282 179.08373 183.93828 187.87647 195.44739 200.30194 205.1565 211.22196">in-kindarrangementbetween:</tspan></text>
<text xml:space="preserve" transform="matrix(1 0 -0 1 0 792)" font-size="10.9091" font-family="LMRoman10"><tspan y="-206.279" x="72">&#x2022;</tspan></text>
<text xml:space="preserve" transform="matrix(1 0 -0 1 0 792)" font-size="10.9091" font-family="LMRoman10"><tspan y="-206.279" x="85.94183 94.12366 98.97821 110.48731 118.82187 124.27642 129.73097 135.18552 140.04007 144.31644 147.34917 152.80371 158.86917 168.57828 174.03282 180.09828 189.79648 198.88376 206.76013 212.21468 217.9856 222.22924 226.5056 231.96015 234.99288 238.0256 242.88016 252.57836 258.6438 264.70927 270.77473 275.0729 278.10563 284.17109 287.2038 292.65837 296.93473 301.78929">NewDoggerlandandaControlledSubsidiary,</tspan></text>
<text xml:space="preserve" transform="matrix(1 0 -0 1 0 792)" font-size="10.9091" font-family="LMRoman10"><tspan y="-183.962" x="72">&#x2022;</tspan></text>
<text xml:space="preserve" transform="matrix(1 0 -0 1 0 792)" font-size="10.9091" font-family="LMRoman10"><tspan y="-183.962" x="85.94183 89.88001 97.45093 106.54912 112.00367 119.912769 129.00005 134.45459 138.73096 147.21825 155.09462 160.54917 166.32009 170.56372 174.84009 180.29463 183.32736 186.36009 191.20374 200.91284 206.9783 213.04376 219.10923 223.40741 226.44014 232.5056 235.53833 240.99288 245.26924 248.30197 253.15653 257.4547">twoormoreControlledSubsidiaries,</tspan></text>
<text xml:space="preserve" transform="matrix(1 0 -0 1 0 792)" font-size="10.9091" font-family="LMRoman10"><tspan y="-161.64601" x="72">&#x2022;</tspan></text>
<text xml:space="preserve" transform="matrix(.99849888 0 -0 1.0015034 0 792)" font-size="10.892724" font-family="LMRoman10"><tspan y="-161.40337" x="86.069217 94.238758 99.08602 110.58873 118.910778 124.35713 129.8035 135.24985 140.0971 144.36705 147.39524 152.8416 158.89795 168.58158 174.02793 181.93604 191.02057 198.88512 204.33148 210.08284 214.32012 218.59006 224.0364 227.06459 230.09278 234.94004 244.63455 250.6909 256.74726 262.80363 267.09535 270.1235 276.17988 279.20805 284.6544 288.92436 298.3139 303.76023 309.8166 319.51115 323.7484 329.80479 338.27934 344.48817 349.9345 355.99089 362.04725 368.1036 372.95088 377.22084 383.88719 390.08515 395.5315 401.58787 407.64424 413.7006 418.54786 426.456 432.51237 436.7496 441.5969 449.15647 454.6028 458.87278 464.92915 471.5955 477.0418 482.79319 492.18275 500.73356 505.8749 511.3213 516.1686 520.43856 526.4949 529.523 535.57937">NewDoggerlandoraControlledSubsidiaryandtheFounder,FounderSteward,anyGoverning</tspan></text>
<text xml:space="preserve" transform="matrix(1 0 -0 1 0 792)" font-size="10.9091" font-family="LMRoman10"><tspan y="-148.097" x="85.94 93.66364 99.42365 105.48911 114.88184 123.969127 128.82367 137.6055 143.97641 148.83097 153.10733 159.7728 165.22734 170.99826 180.391 185.24556 191.00557 195.86013 200.71468 206.78014 211.02378 214.0565 219.51107 227.99835 232.29654 236.54018 241.99472 245.17473 248.35472 255.0311 260.48567 268.39476 273.8493 279.6093 289.01298 298.10026 302.9548 311.73664 318.10755 322.9621 330.8712 336.32575 343.29667 347.5403 353.60578 358.46034 361.49305 369.40214 375.4785 380.93305 386.9985 391.2967 396.15126 402.2167 407.67127 410.70399 416.76945 421.06764">Bodymember,anyexecutivestaff,oranymemberoftheirhouseholds,</tspan></text>
<text xml:space="preserve" transform="matrix(1 0 -0 1 0 792)" font-size="10.9091" font-family="LMRoman10"><tspan y="-125.781" x="72">&#x2022;</tspan></text>
<text xml:space="preserve" transform="matrix(1.0079683 0 -0 .99209478 0 792)" font-size="10.996026" font-family="LMRoman10"><tspan y="-126.78324" x="85.26061 93.50764 98.40086 109.9467 118.34766 123.84567 129.34369 134.8417 139.73493 144.04537 147.10227 152.60028 158.71407 168.43456 173.93257 181.8497 190.95442 198.89356 204.39157 210.19747 214.47492 218.78536 224.28337 227.34027 230.39716 235.29039 245.01088 251.12467 257.23847 263.36326 267.69569 270.7526 276.86637 279.92329 285.42127 289.73173 299.14433 304.64234 310.7561 320.4766 325.9746 331.78053 341.1931 346.08634 351.90327 356.1807 359.2376 363.21815 372.63075 375.68766 385.40815 393.34727 399.46107 402.51799 407.1033 416.8238 422.3218 428.1387 437.5513 443.04933 450.02079 454.29823 460.41203 468.91197 474.40995 480.82063 486.02174 491.53077 500.03068 506.44139 511.33464 515.6451 519.9775 525.47549 531.5893">NewDoggerlandoraControlledSubsidiaryandanyentityinwhichanyoftheabovepersons</tspan></text>
<text xml:space="preserve" transform="matrix(1 0 -0 1 0 792)" font-size="10.9091" font-family="LMRoman10"><tspan y="-112.231" x="85.94 92.00546 97.460018 100.492748 106.558208 114.48912 123.58731 133.59096 139.0455 143.28914 148.14369 152.42006 155.45279 160.90734 167.5728 174.69644 177.72917 183.79463 189.24918 195.31464 200.16919 203.20192 208.65647 215.32193 219.26012 225.03104 229.27468 234.11832 238.39469 243.24924 247.54743 255.43471 259.67835 265.1329 273.0638 279.12928 283.98384 287.01655 290.0493 296.11476 300.9693 310.6784 313.71113 323.4093 329.47477 334.3293 339.18388 343.42753 346.46025 351.9148">holdsaMaterialFinancialInterest(asdefinedinSection</tspan></text>
<text xml:space="preserve" transform="matrix(1 0 -0 1 0 792)" font-size="10.9091" font-family="LMRoman10"><tspan y="-112.231" x="361.61299 367.06755 370.10026 375.5548">4.21</tspan></text>
<text xml:space="preserve" transform="matrix(1 0 -0 1 0 792)" font-size="10.9091" font-family="LMRoman10"><tspan y="-112.231" x="381.00938 385.25303">).</tspan><tspan y="-85.93" x="72 82.00365 88.06911 92.312747 97.767299 103.832759 106.865489 109.89822 112.93095 116.869129 122.62913 130.5164 138.69823 144.76369 149.31279 155.37825 160.8328 166.89826 172.3528 177.20735 182.6619 188.72736 191.76009">Mutability:Unchangeable</tspan></text>
<text xml:space="preserve" transform="matrix(1 0 -0 1 0 792)" font-size="10.9091" font-family="LMRoman10"><tspan y="-42.112" x="300.54499 305.99955">14</tspan></text>
</svg>
