<svg xmlns="http://www.w3.org/2000/svg" xmlns:xlink="http://www.w3.org/1999/xlink" xmlns:inkscape="http://www.inkscape.org/namespaces/inkscape" version="1.1" width="612" height="792" viewBox="0 0 612 792">
<text xml:space="preserve" transform="matrix(1.0099504 0 -0 .99014756 0 792)" font-size="11.017651" font-family="LMRoman10"><tspan y="-716.0963" x="70.89061 78.250408 83.75923 88.66208 94.170909 99.99924 108.97862 113.31958 118.22243 123.73126 128.01712 132.35808 140.37894 145.2818 151.0991 157.22492 160.28783 164.60675 169.5096 180.31792 184.60378 189.50664 193.82556 203.00327 207.34423 215.37609 220.88492 227.01073 237.81905 242.16 247.06287 252.5717 256.85758 265.89207 270.233 276.35884 282.78215 286.1535 291.05638 295.9592 304.9386 309.2245 319.4158 322.7872 328.29603 332.61497 341.79264 347.30146 355.0579 359.39884 365.52467 369.86564 376.2889 381.19178 387.31758 391.65855 394.72145 400.23027 411.04963 416.5584 425.55986 431.68568 434.74858 439.08955 444.90687 451.0437 456.55253 459.6044 462.6673 465.7302 468.80415 473.69596 479.20478 483.49067 486.55357 492.06239 502.8817 509.00758 519.20999 525.33578 530.8446">Vacantseats,expiredterms,andseatssubjecttoformalsuspensionordisqualificationdonot</tspan><tspan y="-702.41256" x="71.290637 76.19348 81.7023 87.82812 92.169078 96.45494 99.517848 103.80371 109.92953 114.21539 124.09823 132.064 136.96686 141.25272 144.31563 149.83547 159.71829 167.08911 172.59793 176.8838 179.9467 186.07253 196.56133 202.68714 207.59 213.09882 217.38469 226.71665 230.08806 235.59688 244.89577 251.02159 257.1474 261.46635 267.88963 273.39845 277.75044 282.64225 291.9742 297.483 305.8454 311.66273 317.78855 323.29737 327.61628 333.7421 342.9198 351.30424 357.43003 363.56687 369.99018 374.89305 379.21195 388.38966 394.19596 397.56736 403.07615 407.39509 410.45799 414.44639 425.2437 430.14656 435.65538 438.71827 443.6211 449.74693 452.8098 458.31864 462.60453 465.66743 471.17625 477.30207 481.643 490.03846 495.54728 504.8462 510.36607 515.8749 520.16079 523.22366 529.3495">constituteActiveVotingSeatsforpurposesofquorum,Supermajoritycalculations,orvoting</tspan></text>
<text xml:space="preserve" transform="matrix(1 0 -0 1 0 792)" font-size="10.9091" font-family="LMRoman10"><tspan y="-681.943" x="72 76.24364 82.3091 86.585468 91.44002 95.738208 101.803668 107.25822 110.29095 116.35641 124.28732 130.3637 136.42916 139.46189 144.30553 148.61463 156.54555 160.78919 166.85465 169.88738 177.8183 183.88376 189.64376 194.4983 200.56377 209.65105 214.5056 220.26561 228.1529 233.00745 238.76746 244.83292 247.86565 250.89838 255.75293 258.78565 263.0293 266.062 275.45475 279.75294 283.99659 289.45115 293.6948 298.54936 306.48027 311.9348 316.17848 322.24394 327.09849 331.37486 339.25123 342.28395 346.58213 351.43669">thresholdsunlessthisdocumentexplicitlystatesotherwise.</tspan><tspan y="-661.619" x="72 82.00365 88.06911 92.312747 97.767299 103.832759 106.865489 109.89822 112.93095 116.869129 122.62913 130.5164 138.69823 144.76369 149.31279 155.37825 160.8328 166.89826 172.3528 177.20735 182.6619 188.72736 191.76009">Mutability:Unchangeable</tspan></text>
<text xml:space="preserve" transform="matrix(1 0 -0 1 0 792)" font-size="11.9552" font-family="LMRoman12" font-weight="bold"><tspan y="-632.41006" x="72 78.73078 82.47276">4.8</tspan></text>
<text xml:space="preserve" transform="matrix(1 0 -0 1 0 792)" font-size="11.9552" font-family="LMRoman12" font-weight="bold"><tspan y="-632.41006" x="99.29373 108.48728 113.98667 120.71745 128.56006 134.69307 140.19246 143.93444 155.51903 165.54944 171.68245 178.78385 186.25585 192.38886 197.69696 202.93334 209.06635 221.02155 233.77774 239.91075 246.04376 251.28014 255.02211 262.4941">ProperlyRequestedMeeting</tspan></text>
<text xml:space="preserve" transform="matrix(.9899495 0 -0 1.0101526 0 792)" font-size="10.799458" font-family="LMRoman10"><tspan y="-605.6679" x="72.322879 83.93229 91.28673 95.52011 100.919849 107.22673 112.03249 116.26588 119.26813 128.48007 136.42848 141.23424 146.93636 152.94086 157.74662 162.0016 166.20259 171.00835 180.52268 190.42578 195.23154 200.0373 204.2383 207.24054 213.24504 222.15459 225.15685 232.91085 241.8204 250.29796 255.39531 260.795 265.60078 269.83415 275.83866 278.84089 284.8454 293.75495 301.40098 307.1031 313.10758 322.31953 331.3155 336.12126 340.92698 345.12797 348.13023 354.1347 363.04426 367.27763 372.0726 377.7747 383.78999 388.58497 392.8507 397.0517 401.84666 411.36097 414.36323 423.87757 429.27729 434.08305 438.88877 444.2885 448.52189 454.52638 459.9261 465.9306 470.73637 479.0519 486.84913 489.85139 494.05235 503.56669 508.9664 511.96867 518.4807 523.88046 530.6949 534.8959 540.9004">AProperlyRequestedMeetingisaGoverningBodymeetingrequestedinaccordancewithallofthe</tspan></text>
<text xml:space="preserve" transform="matrix(1 0 -0 1 0 792)" font-size="10.9091" font-family="LMRoman10"><tspan y="-598.268" x="72 75.33819 80.79274 83.82547 86.8582 92.00729 99.88367 102.9164 108.98186 118.08005 122.9346 128.38915 134.4546 140.52007 143.5528 147.79644 150.82917 156.2837 162.34917 166.64736">followingconditions:</tspan></text>
<text xml:space="preserve" transform="matrix(1 0 -0 1 0 792)" font-size="10.9091" font-family="LMRoman10"><tspan y="-571.966" x="72">&#x2022;</tspan></text>
<text xml:space="preserve" transform="matrix(1 0 -0 1 0 792)" font-size="10.9091" font-family="LMRoman10"><tspan y="-571.966" x="85.94183 90.18547 96.25093 104.73821 109.01458 113.869129 119.62913 125.69459 130.54914 134.84732 142.7346 145.76734 153.69826 162.78554 168.24008 174.30554 182.79283 185.82556 195.53467 203.41104 207.68741 210.72014 214.96378 217.9965 224.06197">therequestismadeinwriting</tspan></text>
<text xml:space="preserve" transform="matrix(1 0 -0 1 0 792)" font-size="10.9091" font-family="LMRoman10"><tspan y="-549.65" x="72">&#x2022;</tspan></text>
<text xml:space="preserve" transform="matrix(1 0 -0 1 0 792)" font-size="10.9091" font-family="LMRoman10"><tspan y="-549.65" x="85.94183 90.18547 96.25093 104.73821 109.01458 113.869129 119.62913 125.69459 130.54914 134.84732 142.7346 147.03279 153.4037 158.24735 163.1019 166.13463 169.16736 172.20009 177.05464 184.99648 189.24011 195.30558 203.79286 212.88014 218.33469 222.57833 226.82196 231.67652 235.95288 243.8838 248.12744 257.22563 263.59654 272.0838 277.53837 283.60383 289.66929 293.94566 298.8002 303.0984 307.39659 312.25114">therequestspecifiesthematterstobeaddressed</tspan></text>
<text xml:space="preserve" transform="matrix(1 0 -0 1 0 792)" font-size="10.9091" font-family="LMRoman10"><tspan y="-527.33407" x="72">&#x2022;</tspan></text>
<text xml:space="preserve" transform="matrix(1 0 -0 1 0 792)" font-size="10.9091" font-family="LMRoman10"><tspan y="-527.33407" x="85.94183 90.18547 96.25093 104.73821 109.01458 113.869129 119.62913 125.69459 130.54914 134.84732 142.7346 145.76734 153.69826 159.76372 164.61827 167.651 170.68373 176.13829 180.99285 185.26921 190.12377 199.82196 204.0656 213.16379 217.40743 223.47289 231.96018 240.52382 245.67292 251.13838 255.98203 260.2584 266.32386 269.35658 275.43293 284.5202 292.24385 298.00386 304.0693 313.46205 321.3384 327.40388 332.85844 335.89115 343.80024 349.2548 355.32026 365.02937 370.48393 373.51664 380.18208 385.63664 391.0912 395.33485 398.36756 404.433 413.53123 422.6185 427.47306 436.25489 442.6258 447.48036 451.7567">therequestisdeliveredtotheGoverningBodyChairandallvotingmembers</tspan></text>
<text xml:space="preserve" transform="matrix(1 0 -0 1 0 792)" font-size="10.9091" font-family="LMRoman10"><tspan y="-505.01707" x="72">&#x2022;</tspan></text>
<text xml:space="preserve" transform="matrix(1 0 -0 1 0 792)" font-size="10.9091" font-family="LMRoman10"><tspan y="-505.01707" x="85.94183 90.18547 96.25093 104.73821 109.01458 113.869129 119.62913 125.69459 130.54914 134.84732 142.7346 145.76734 153.69826 157.99645 164.0619 170.12737 176.49828 181.95282 186.22919 190.47283 195.32738 205.02558 210.7965 220.18924 226.2547 231.70925 239.58562 242.61835 247.4729 251.77109 259.71293 263.95658 270.02204 275.4766 285.17478 290.62934 296.6948 301.54936 305.18208 309.42573 315.49119 318.5239 322.80027 332.49845 336.7421 342.19667 347.6512 353.10578 360.99308 366.44764 373.41856 378.8731 381.90583 388.57127 394.02583 398.88038 403.12403 406.15675 411.6222 420.10948 425.56404 431.0186 435.26225 438.29496 444.3604 453.4477 462.53498 467.38954 476.18226 482.54228 487.39683 491.6732">therequestissupportedbynotlessthanone-third(1/3)ofallactivevotingmembers</tspan></text>
<text xml:space="preserve" transform="matrix(1 0 -0 1 0 792)" font-size="10.9091" font-family="LMRoman10"><tspan y="-482.70106" x="72">&#x2022;</tspan></text>
<text xml:space="preserve" transform="matrix(1.0059822 0 -0 .9940535 0 792)" font-size="10.974359" font-family="LMRoman10"><tspan y="-485.58854" x="85.42895 89.697978 95.79971 104.30485 108.60679 113.49038 119.28484 125.38658 130.27017 134.59406 138.86309 143.74668 153.46996 162.6116 167.4952 172.3788 176.64781 179.69869 185.80043 194.89817 200.99991 206.48709 210.75612 219.26126 222.31214 230.25756 236.3593 241.84648 249.73706 252.78792 257.6715 261.9954 269.94084 274.20985 280.31159 285.79878 295.52204 299.84596 304.72953 310.22773 315.1003 324.82359 329.09263 334.57978 342.4703 348.57206 353.76298 359.55744 367.50285 372.99003 379.09178 388.81504 394.91676 400.40397 408.2945 417.43614 422.92329 427.22526 435.71943 439.98844 446.09019 451.5774 461.30067 465.56968 471.67143 474.7223 479.02424 482.99696 492.41297 496.68199 502.16914 507.65635 515.5469 521.6486 526.8285 532.6229">therequestedmeetingdateisnotlessthanseven(7)daysandnotmorethanthirty(30)days</tspan></text>
<text xml:space="preserve" transform="matrix(1 0 -0 1 0 792)" font-size="10.9091" font-family="LMRoman10"><tspan y="-469.152" x="85.94 89.27819 93.55456 99.00911 111.72912 115.972759 122.038219 130.5364 136.60187 142.05641 146.30005 154.78734 160.24188 167.2128 171.48917 176.34372 182.10373 188.16919 193.02375 197.32193">fromthedateofrequest</tspan></text>
<text xml:space="preserve" transform="matrix(.9899495 0 -0 1.0101526 0 792)" font-size="10.799458" font-family="LMRoman10"><tspan y="-438.4001" x="72.73098 78.86507 84.26479 87.267047 90.269298 96.273799 100.50719 108.498798 114.200908 123.08887 127.289859 133.29434 141.28595 149.76352 154.86086 160.26059 165.05554 169.28894 175.29344 178.29569 184.31099 192.89656 200.54257 206.24469 212.24919 221.13715 228.93436 234.93886 240.33858 243.34084 250.77086 254.97185 263.5574 268.36317 273.76289 279.4542 284.85395 289.65968 295.66419 303.65577 312.2413 319.59574 323.8291 329.22886 335.5465 340.35227 344.58564 347.5879 356.47584 364.42427 369.22999 374.9321 380.9366 385.74235 389.99736 394.1983 399.00407 408.1944 418.09748 422.90324 427.70896 431.90995 434.9122 440.9167 449.50227 457.29945 460.3017 464.5027 470.50718 473.50944 482.69978 486.90074 492.90525 500.90763 505.141 509.94676 515.64889 521.6534 526.4591 530.7141 534.91506 539.7208">FailurebytheGoverningBodyChairtoconveneaProperlyRequestedMeetingwithintherequested</tspan></text>
<text xml:space="preserve" transform="matrix(1 0 -0 1 0 792)" font-size="10.9091" font-family="LMRoman10"><tspan y="-429.301" x="71.607 79.483379 82.516109 88.581569 94.647029 99.79612 111.31613 116.170688 121.62524 127.6907 131.98888 136.23252 139.26525 143.50888 149.57434 153.81798 158.67253 166.60346 170.87982 175.73438 179.07256 185.13802 189.4362 194.89075 201.55622 204.8944 210.34894 218.26895 224.33441 230.39987 234.67624 241.04715 246.5017 250.79988 255.65444 263.58534 269.0399 276.0108 281.46537 287.23628 296.629 302.69447 306.97084 312.73085 317.5854 322.43995 328.5054 334.57087 338.84724 344.3018 350.96723 357.03269 362.48725 367.03636 372.79637 377.09455 381.3382 386.79277 396.50187 399.53459 409.23277 413.4764 419.54188 422.5746 430.5055 436.58186 442.33097 447.18553 453.25099 462.33827 467.1928 472.9637 477.20738">windowconstitutesrefusalforpurposesofanyproceduralbackstopinthisdocument.</tspan><tspan y="-408.978" x="72 82.00365 88.06911 92.312747 97.767299 103.832759 106.865489 109.89822 112.93095 116.869129 122.62913 130.5164 138.69823 144.76369 149.31279 155.37825 160.8328 166.89826 172.3528 177.20735 182.6619 188.72736 191.76009">Mutability:Unchangeable</tspan></text>
<text xml:space="preserve" transform="matrix(1 0 -0 1 0 792)" font-size="11.9552" font-family="LMRoman12" font-weight="bold"><tspan y="-379.768" x="72 78.73078 82.47276">4.9</tspan></text>
<text xml:space="preserve" transform="matrix(1 0 -0 1 0 792)" font-size="11.9552" font-family="LMRoman12" font-weight="bold"><tspan y="-379.768" x="99.29373 112.04993 118.589427 123.825809 129.95882 135.4582 139.20018 145.73967 149.48165 153.22362 164.80821 174.97014 178.89145 182.81275 188.94576 194.92336 200.15973">MateriallyAffects</tspan></text>
<text xml:space="preserve" transform="matrix(1.0084641 0 -0 .99160686 0 792)" font-size="11.001436" font-family="LMRoman10"><tspan y="-362.21614" x="70.995098 82.84364 88.96044 93.85608 98.75171 101.81011 106.144687 109.20309 114.703807 124.418079 133.58228 139.08298 143.36254 148.25818 152.57074 155.62914 161.12985 164.18825 167.24666 176.65288 182.1536 185.36052 188.56743 193.46308 198.3587 202.63826 210.5703 219.66847 226.09333 230.98897 235.30153 239.6361 245.13681 251.25362 257.9095 263.41023 267.74479 272.0793 276.97499 281.25456 287.91044 294.02723 299.52796 308.69215 314.19285 317.25126 323.36805 330.0349 335.53565 343.44569 348.94639 355.0632 358.1216 361.18 366.68074 372.18144 376.461 379.5194 385.0201 394.7344 397.79283 404.7567 407.81513 415.69218 424.85639 429.752 434.64765 438.92723 446.85926 452.35997 458.47679 466.96989 472.4706 480.38066 489.54484 495.04554 499.3581 507.85124 513.352 520.3269 524.6065 530.7233">Adecisionmateriallyaffectsaperson,asset,domain,orobligationifitmeetsoneormoreofthe</tspan></text>
<text xml:space="preserve" transform="matrix(1 0 -0 1 0 792)" font-size="10.9091" font-family="LMRoman10"><tspan y="-345.626" x="72 75.33819 80.79274 83.82547 86.8582 92.00729 99.88367 102.9164 108.98186 118.08005 122.9346 128.38915 134.4546 140.52007 143.5528 147.79644 150.82917 156.2837 162.34917 166.64736">followingconditions:</tspan></text>
<text xml:space="preserve" transform="matrix(1 0 -0 1 0 792)" font-size="10.9091" font-family="LMRoman10"><tspan y="-319.325" x="72">&#x2022;</tspan></text>
<text xml:space="preserve" transform="matrix(1 0 -0 1 0 792)" font-size="10.9091" font-family="LMRoman10"><tspan y="-319.325" x="85.94183 90.79639 95.072757 99.92731 105.38186 109.625499 114.48004 118.77823 125.44369 134.53098 140.29097 146.35643 149.38916 152.42189 155.45462 160.30918 164.60736 171.27283 176.72737 184.64739 188.89102 193.74558 198.02194 207.10923 210.14196 216.20742 221.66196 225.9056 230.76015 238.69107 247.77835 252.05472 255.08745 260.542 266.302 270.54566 277.22203 283.28749 289.35295 293.29115 298.1457 304.81114 310.8766 315.15296 320.6075 324.85118 329.70573 334.56028 338.80393 341.83665 347.2912 353.35667 360.0221 365.47666 373.39668 377.67304 382.5276 386.82579 391.06944 395.3458 398.3785 403.22218 407.46583 410.49855 415.9531">creates,modifies,orterminatesaright,duty,protection,orrestriction</tspan></text>
<text xml:space="preserve" transform="matrix(1 0 -0 1 0 792)" font-size="10.9091" font-family="LMRoman10"><tspan y="-297.009" x="72">&#x2022;</tspan></text>
<text xml:space="preserve" transform="matrix(1 0 -0 1 0 792)" font-size="10.9091" font-family="LMRoman10"><tspan y="-297.009" x="85.94183 91.396389 94.429119 98.67275 103.5273 107.803668 115.73458 120.03277 125.48732 128.8255 133.68006 137.62915 147.0219 151.87645 157.331 163.39646 169.46192 172.49465 176.73828 179.77101 185.22556 191.29102 195.5892 202.25467 209.8365 214.68015 217.71288 221.05106 226.5056 230.78197 239.28017 244.73471 250.80017 255.04381 259.89836 265.3529 274.4402 279.29475 283.59294 290.25837 295.71293 303.622 309.68748 312.72019 318.17475 324.2402 327.27293 331.22203 340.61476 346.6802 350.95658 356.41114 360.6548 365.50935 370.3639 374.60755 377.64027 383.09483 389.16029">alterssafetyconditions,welfareoutcomes,ordignityprotections</tspan></text>
<text xml:space="preserve" transform="matrix(1 0 -0 1 0 792)" font-size="10.9091" font-family="LMRoman10"><tspan y="-274.69203" x="72">&#x2022;</tspan></text>
<text xml:space="preserve" transform="matrix(1 0 -0 1 0 792)" font-size="10.9091" font-family="LMRoman10"><tspan y="-274.69203" x="85.94183 90.79639 96.25094 105.33822 114.4255 117.45823 121.701869 126.00005 132.66551 136.90915 141.18552 146.64006 152.70552 157.00371 160.34189 165.19644 169.47281 173.771 180.44738 185.30193 191.36739 196.22194 202.2874 211.06923 217.44014 222.2947 226.57106 230.86925 237.53472 242.98926 250.89836 255.17473 258.20747 262.50566 268.26567 276.2075 281.66206 285.93843 291.39299 296.84754 302.913 305.9457 310.80027 316.25483 320.49848 323.5312 328.98576 335.0512 340.50578 347.1712 352.62577 356.92396 361.22215 366.0767 370.32035 378.25126 383.7058 391.62583 394.65855 400.1131 406.17857">commits,transfers,encumbers,orrisksorganizationalassetsorland</tspan></text>
<text xml:space="preserve" transform="matrix(1 0 -0 1 0 792)" font-size="10.9091" font-family="LMRoman10"><tspan y="-252.37602" x="72">&#x2022;</tspan></text>
<text xml:space="preserve" transform="matrix(1 0 -0 1 0 792)" font-size="10.9091" font-family="LMRoman10"><tspan y="-252.37602" x="85.94183 90.79639 95.094577 99.33821 104.79276 110.85822 113.89095 116.92368 121.22187 127.28733 132.14188 140.0728 146.13826 150.41463 155.26918 160.12374 164.97829 171.04375 175.8983 181.66922 189.5456 193.78923 199.85469 205.30924 213.18561 220.75653 226.21108 232.28745 235.32018 245.01837 249.29474 254.14929 259.60386 263.90205 269.3566 275.42207 280.87663 286.94209 289.9748 299.36753 302.40025 308.4657 311.4984 314.53117 320.59663 325.45118 331.51664 336.3712 344.8694 348.20759 354.27305 358.5167 364.58216 368.85853 377.3458 383.41127 388.2658 393.12037 396.15309 400.45127 403.48399 408.93855 415.004 422.9349 428.38948 435.3713 444.4586 448.75679 451.7895 460.87678 463.9095 466.9422 472.39677 480.30586 484.25495 490.01496 496.37498">establishesprecedentthatwouldreasonablyinfluencefuturedecisionsofasimilartype</tspan></text>
<text xml:space="preserve" transform="matrix(1 0 -0 1 0 792)" font-size="10.9091" font-family="LMRoman10"><tspan y="-230.06003" x="72">&#x2022;</tspan></text>
<text xml:space="preserve" transform="matrix(1 0 -0 1 0 792)" font-size="10.9091" font-family="LMRoman10"><tspan y="-230.06003" x="85.94183 90.49093 96.55639 102.01094 108.0764 113.53095 118.3855 126.327327 131.78188 136.93097 142.38553 147.24008 151.51645 157.58191 163.03646 169.10192 173.95647 182.44376 186.74195 190.98558 195.26195 201.32741 206.18196 210.4256 216.49106 220.76743 225.62198 232.29836 237.7529 243.81836 248.062 254.12746 259.582 263.85838 266.89109 270.82929 280.22203 285.67658 288.7093 291.742 297.502 302.35658 307.81114 312.05479 315.0875 320.54206 326.6075 333.27296 338.7275 346.6366 350.91297 355.76753 361.52754 364.56025 369.4148 380.9348 385.17848 391.24394 395.5203 400.37486 404.67304 410.7385 416.19306 419.22578 425.29124">changesgovernancestructure,authorityallocation,orreviewthresholds</tspan></text>
<text xml:space="preserve" transform="matrix(.9899495 0 -0 1.0101526 0 792)" font-size="10.799458" font-family="LMRoman10"><tspan y="-201.71012" x="72.322879 84.06188 90.06638 94.87215 99.67791 102.68016 106.93514 109.93739 115.33712 124.99184 133.68541 139.68991 143.94489 151.78531 158.0922 166.54816 170.74915 174.98255 179.7883 185.18804 189.38903 194.19478 203.8387 209.23844 217.14363 226.13957 231.5393 235.7403 240.54605 244.77945 247.77089 253.17061 256.17286 259.1751 268.52745 273.92716 277.0752 280.22328 285.029 289.83476 294.0357 297.03797 303.04249 312.08164 315.08387 322.03874 326.2721 331.07786 336.47758 340.73255 346.1323 352.13679 357.5365 363.54103 366.54328 374.98844 380.99293 383.99519 388.25016 393.6499 399.04963 403.283 408.08876 412.89448 421.89045 426.6962 432.39833 440.2387 445.04444 450.74656 453.7488 458.00379 462.20478 470.09919 475.4989 483.4041 487.60508 496.64424 499.64649 503.84745 511.75267 514.7549 523.75088 529.7554 535.1551 539.9608 544.1618">Adecisionmustbetreatedasmateriallyaffectingifreasonabledisagreementexistsastoitsimpact,</tspan><tspan y="-188.29729" x="72.73098 78.73548 82.968868 88.06621 93.768329 96.77058 102.77508 107.58083 117.267948 121.46894 127.473438 132.87317 140.75676 144.95777 150.96225 159.45063 165.45513 168.45738 172.71237 178.11209 183.51183 187.74521 192.55097 197.35674 206.35268 211.15845 216.86055 224.74416 227.7464 235.684 241.08373 245.31713 250.71685 256.72135 262.72584 268.73036 273.53608 283.2232 286.22544 295.91258 301.91706 304.9193 310.31904 316.32356 320.57853 323.58079 329.58528 332.58753 337.39326 344.08894 350.0934 355.49314 361.49766 365.09388 369.34886 375.65577 380.4615 385.26725 391.27174 394.274 399.6737 403.8747 406.87696 412.27668 420.765 425.57078 428.7188 431.86689 436.6726 441.47837 445.67936 453.61695 461.41416 464.41639 468.61738 474.62187 477.6241 487.31123 496.39356 500.62696 505.43269 510.83244 515.0874 520.4871 526.4916 531.8913 537.8958 540.8981">providedthatthedisagreementisgroundedinplausible,non-speculativeeffectswithinareasonable</tspan></text>
<text xml:space="preserve" transform="matrix(1.0099504 0 -0 .99014756 0 792)" font-size="11.017651" font-family="LMRoman10"><tspan y="-178.41786" x="71.290637 76.79946 83.22275 88.1256 92.44452 97.953357 102.23922 105.302127 110.81095 116.93676 122.44559 130.191 134.47687 137.53977 146.71747 156.29183 162.41764 167.92647 172.24538 175.30829 180.21115 185.71997 196.52829 202.65412 208.16294 212.50389 217.40676 228.21508 233.7239 244.52121 247.89261 253.40145 258.3043 262.59016 271.61363 277.43095 283.55677 288.7681 296.72285 307.52015 313.02897 322.0304 326.3493 331.25218 336.761 341.10194 346.61076 352.73658 358.2454 364.3712 367.4341 377.9229 383.13423 388.35664 393.86546 396.92835 399.99125 405.50007 411.6259 414.68879 424.2631 429.7719 438.7403 443.02616 449.15199 458.7263 463.01219 466.07508 475.25279 480.1556 491.2504 499.5136 505.63945 509.98039 514.26626 518.58517 524.09396 528.9968 533.28268">operationaltimehorizonbasedonfactsknownorreasonablyavailableatthetime.Abstract,</tspan></text>
<text xml:space="preserve" transform="matrix(1.0084641 0 -0 .99160686 0 792)" font-size="11.001436" font-family="LMRoman10"><tspan y="-164.4916" x="71.3957 77.21546 83.02422 89.43806 94.938777 99.21834 105.33514 110.23077 114.51033 117.56873 122.46436 127.96508 131.02349 137.67935 143.18007 151.09009 157.2069 163.3347 167.64727 172.53189 175.5903 185.00753 191.12433 196.31699 204.26003 210.37683 214.71141 218.99097 223.30353 228.19916 233.69988 246.47254 252.58934 255.64774 259.9823 265.483 270.9837 275.29627 280.1919 285.08757 294.25175 299.13636 304.95613 312.83317 318.94999 324.75874 329.65437 337.5864 343.7032 349.20393 353.4835 360.13938 365.95915 375.36537 378.42378 382.70335 387.0379 391.93354 394.9919 398.35838 405.01426 409.3268 414.22245 420.33924 426.46708 431.35169 439.2727 444.77345 454.4877 459.98844 464.88407 469.16365 472.22206 477.72276 487.43705 496.60124 502.10194 506.3815 511.2772 515.5897 518.64816 524.14889 527.2073 530.2657">hypothetical,orpurelydownstreamdisagreementdoesnot,byitself,renderanactionmaterially</tspan></text>
<text xml:space="preserve" transform="matrix(1 0 -0 1 0 792)" font-size="10.9091" font-family="LMRoman10"><tspan y="-149.562" x="72 77.45455 80.63455 83.81456 88.66911 93.52367 97.7673 100.80003 106.86549 112.320049">affecting.</tspan><tspan y="-129.23799" x="72 82.00365 88.06911 92.312747 97.767299 103.832759 106.865489 109.89822 112.93095 116.869129 122.62913 130.5164 138.69823 144.76369 149.31279 155.37825 160.8328 166.89826 172.3528 177.20735 182.6619 188.72736 191.76009">Mutability:Unchangeable</tspan></text>
<text xml:space="preserve" transform="matrix(1 0 -0 1 0 792)" font-size="10.9091" font-family="LMRoman10"><tspan y="-42.11199" x="300.54499 305.99955">10</tspan></text>
</svg>
