<svg xmlns="http://www.w3.org/2000/svg" xmlns:xlink="http://www.w3.org/1999/xlink" xmlns:inkscape="http://www.inkscape.org/namespaces/inkscape" version="1.1" width="612" height="792" viewBox="0 0 612 792">
<text xml:space="preserve" transform="matrix(.9944848 0 -0 1.0055457 0 792)" font-size="10.848934" font-family="LMRoman10"><tspan y="-705.13058" x="71.993068 80.12977 88.86316 94.895168 97.91117 103.33563 109.367649 112.383647 116.30011 125.67359 131.09806 134.11406 139.53853 145.57053 154.04355 160.07555 165.80379 170.63156 178.55127 184.58327 190.00774 197.87322 202.70099 208.12546 214.15746 218.43193 222.65216 225.66817 229.88842 235.92041 240.14064 248.61367 253.44144 258.8659 264.89793 267.9139 270.94084 273.94596 278.7737 282.99397 290.8811 299.3216 305.36448 308.3696 317.75395 323.78596 326.80195 331.05476 335.8825 340.69944 348.57575 351.59175 357.62376 362.45155 367.876 373.90803 378.18254 381.19853 385.473 389.69325 394.52104 400.55305 405.3808 414.7543 421.0901 425.91789 429.83436 437.3635 442.19129 447.00819 456.6963 462.7283 466.9811 472.1018 477.83006 480.8352 485.12055 488.13655 493.561 499.59306 507.5128 511.73304 515.98587 519.00186 524.4263 529.8507 534.6785 538.9313">Ambiguityalonedoesnotconstituteconflict.Onlydirectinconsistencybetweenprovisionstriggers</tspan></text>
<text xml:space="preserve" transform="matrix(1 0 -0 1 0 792)" font-size="10.9091" font-family="LMRoman10"><tspan y="-695.492" x="72 78.06546 81.09819 85.95274 90.22911 95.68366 99.96003 104.50912 110.57458 113.60731 118.46185 123.916408 130.58187 135.74187 141.19643 146.05098 150.32735 154.60372 157.63645 163.7019 168.55646">hierarchicaloverride.</tspan><tspan y="-675.168" x="72 82.00365 88.06911 92.312747 97.767299 103.832759 106.865489 109.89822 112.93095 116.869129 122.62913 130.5164 138.69823 144.76369 149.31279 155.37825 160.8328 166.89826 172.3528 177.20735 182.6619 188.72736 191.76009">Mutability:Unchangeable</tspan></text>
<text xml:space="preserve" transform="matrix(1 0 -0 1 0 792)" font-size="14.3462" font-family="LMRoman12" font-weight="bold"><tspan y="-640.80007" x="72">3</tspan></text>
<text xml:space="preserve" transform="matrix(1 0 -0 1 0 792)" font-size="14.3462" font-family="LMRoman12" font-weight="bold"><tspan y="-640.80007" x="92.185108 104.55153 111.91113 118.51038 123.00075 130.61858 138.46595 144.74958 149.23993 157.31684 171.66303 179.51039 188.47676 202.82295 214.48642 222.56333 236.02007 244.98644 251.5857 258.94529 265.315 271.68473 276.17509 284.25199 298.59819 309.6304 316.22966 320.72 329.68638 336.85948 341.34983 350.3162 354.80656">DerivationandCompressionPrinciple</tspan></text>
<text xml:space="preserve" transform="matrix(.9924717 0 -0 1.0075854 0 792)" font-size="10.826972" font-family="LMRoman10"><tspan y="-611.8102" x="72.139087 80.259319 83.26921 89.927799 95.341289 101.361087 105.57278 111.592578 117.006069 121.25024 124.26013 128.16867 137.54483 145.36191 148.37181 152.58351 158.6033 161.6132 171.28168 179.4019 184.21991 195.68567 203.95748 209.37096 214.78444 220.19792 225.01593 229.2601 232.27 237.68349 243.70328 253.3826 258.79609 263.04026 266.05015 271.46366 274.47355 280.49336 285.90687 290.11857 294.93656 302.85108 307.66908 313.3857 318.20375 321.21363 327.23344 331.49928 334.50917 339.92268 344.74067 347.75059 357.1159 360.42897 364.67314 370.08665 382.76499 386.97669 392.9965 401.4632 406.87669 411.98704 417.4005 422.21855 426.4627 432.4825 435.4924 441.5122 450.5744 456.5942 459.60414 464.42213 468.6663 474.07978 478.32395 482.8388 488.55546 497.9208 503.9406 508.7586 511.7685 514.77847 520.7982 525.6162 535.29556 538.3055">AllauthoritywithinNewDoggerlandoriginatesexclusivelyfromthegoverninghierarchydefinedin</tspan></text>
<text xml:space="preserve" transform="matrix(1 0 -0 1 0 792)" font-size="10.9091" font-family="LMRoman10"><tspan y="-602.901" x="72 78.06546 82.92001 87.77457 92.0182 95.050937 100.505489">Section</tspan></text>
<text xml:space="preserve" transform="matrix(1 0 -0 1 0 792)" font-size="10.9091" font-family="LMRoman10"><tspan y="-602.901" x="110.203678">2</tspan></text>
<text xml:space="preserve" transform="matrix(1 0 -0 1 0 792)" font-size="10.9091" font-family="LMRoman10"><tspan y="-602.901" x="115.658229">.</tspan></text>
<text xml:space="preserve" transform="matrix(.9899495 0 -0 1.0101526 0 792)" font-size="10.799458" font-family="LMRoman10"><tspan y="-576.7227" x="72.322879 80.42247 83.42472 89.8504 98.846347 104.24607 108.44706 113.25282 117.48621 120.488468 125.88819 128.89044 136.57967 140.78066 146.78516 152.18489 159.80931 165.20903 169.44243 177.68242 183.68692 189.08666 196.71108 202.71558 208.1153 212.3487 219.98392 225.38364 232.11171 236.3127 242.3172 247.71692 255.35214 261.35664 264.3589 269.16465 273.398 278.79774 283.0311 287.52369 293.2258 298.00996 304.48963 307.49189 313.49638 318.30213 321.30439 327.30888 333.3134 336.31565 342.32014 351.14329 357.14778 363.15229 370.78749 376.792 382.1917 389.8161 392.81837 395.8206 404.81657 407.81883 412.01979 416.82554 426.26429 430.46525 439.2884 444.09416 449.49388 458.4898 464.49433 469.89405 475.89857 478.9008 484.30055 493.73927 499.74378 505.4459 510.25163 516.2561 525.2521 530.05789 535.76 539.96096 544.21597">Allmaterialsthatarenotpartofthathierarchy,includingbutnotlimitedtocompaniondocuments,</tspan></text>
<text xml:space="preserve" transform="matrix(1.0099504 0 -0 .99014756 0 792)" font-size="11.017651" font-family="LMRoman10"><tspan y="-574.6901" x="71.290637 77.41644 83.54226 89.66807 92.73098 95.793888 104.63004 110.75585 115.65871 119.99966 124.90251 129.22144 132.28433 138.41016 142.69602 145.75891 151.26775 157.39356 161.73453 168.81888 173.15984 177.4457 182.95453 186.16617 193.31111 199.43694 204.94576 211.07157 217.19739 223.6317 229.438 234.94683 240.76415 245.1051 252.18946 256.4753 260.79426 266.30308 269.36598 275.4918 278.5547 284.6805 294.12263 303.30033 308.8091 313.095 317.99784 322.31678 325.3797 330.8885 333.95143 338.29237 345.3657 349.71769 355.8435 365.02119 374.19889 379.7077 384.02665 387.08955 391.98136 396.33335 403.40669 407.74763 410.81056 416.31935 421.82817 427.33699 433.4628 437.80375 444.8881 451.01393 455.91676 462.04258 466.3615 469.4244 473.76539 478.05125 481.11418 486.017 490.35798 497.44233 502.34516 508.47099 511.53388 515.8197 521.94558 526.26449 531.7733">publicdescriptions,staffhandbooks,trainingmaterials,summaries,slogans,heuristics,cultural</tspan></text>
<text xml:space="preserve" transform="matrix(1.0004999 0 -0 .9995003 0 792)" font-size="10.914554" font-family="LMRoman10"><tspan y="-555.7567" x="71.96403 77.42131 81.699817 85.94558 88.97983 92.31968 97.77696 102.63394 106.87971 111.18004 117.84883 123.30611 129.3746 139.08856 142.1228 148.1913 151.53116 156.98844 161.26694 170.35877 175.81606 182.48485 187.94213 194.01062 197.04488 203.11338 208.57067 214.63915 219.49613 224.3531 231.0219 236.47917 240.75768 249.2492 253.54955 259.61805 265.99214 271.4494 275.7279 281.7964 284.83067 290.89915 296.3564 300.60218 309.0937 314.55097 320.61946 330.3334 339.42524 344.5769 353.97434 358.83134 364.5942 367.62849 371.9288 379.8091 385.2664 391.33488 394.36915 403.77748 409.23475 417.16963 423.23814 428.0951 432.3736 435.40785 440.86515 445.7221 455.42515 459.70365 464.56065 470.62913 474.90763 479.76463 484.06495 488.92195 494.6848 498.9306 504.38786 508.63365 511.66789 517.1252 523.2046 531.13949 536.59677">artifacts,andinformalguidance,aresubordinateandmayexistonlyasderivedrepresentationsof</tspan></text>
<text xml:space="preserve" transform="matrix(1 0 -0 1 0 792)" font-size="10.9091" font-family="LMRoman10"><tspan y="-541.93" x="72 78.06546 81.09819 86.55274 92.6182 97.47275 101.749118 105.38184 110.836399 115.11276 121.17822 126.032779 133.94188 140.00734 145.76734 150.62189 156.68735 165.77463 170.62918 176.38919 180.63283 184.93102">higher-orderdocuments.</tspan></text>
<text xml:space="preserve" transform="matrix(.9934788 0 -0 1.0065641 0 792)" font-size="10.837958" font-family="LMRoman10"><tspan y="-518.20449" x="72.47261 80.75281 85.57571 89.82418 92.83713 98.25611 103.07901 112.7573 121.785327 127.20431 131.42028 136.24317 140.49166 143.5046 148.92357 151.93653 159.8699 168.89794 174.0026 183.38826 187.65842 193.68433 202.71234 211.74036 217.15933 221.40782 224.42078 229.24367 234.06656 240.7319 245.00206 248.015 257.04304 263.0689 266.08189 269.09486 272.4113 277.22334 283.89955 288.13716 292.96006 297.2302 301.44618 306.86515 311.08113 315.90403 322.5802 327.99919 335.90007 340.72294 346.1419 355.16993 361.19584 365.4443 370.26719 374.53736 382.47074 387.29365 393.01609 396.02903 400.2992 404.51518 407.52815 413.55403 422.6254 426.87385 432.89976 435.91273 440.73564 448.669 454.08799 460.11387 469.79219 475.21116 481.23704 484.25 487.26298 492.68196 498.10093 502.3169 505.32987 510.7488 516.7747 521.04489 527.72109 533.74697 539.7729">Derivedmaterialsmaysummarize,simplify,restate,orcompressexistingrulesandobligations,but</tspan></text>
<text xml:space="preserve" transform="matrix(1.0099504 0 -0 .99014756 0 792)" font-size="11.017651" font-family="LMRoman10"><tspan y="-513.1124" x="71.290637 80.17086 86.29667 90.63763 99.00003 105.12584 110.63466 119.00808 124.5169 128.83582 131.89873 137.40755 140.47046 146.59627 152.1051 156.39096 165.37036 171.49617 176.39904 188.44133 193.95015 200.07598 204.36183 210.48764 215.99648 220.31539 223.3783 227.36669 232.28057 239.54119 244.44405 248.76297 253.6658 259.17463 263.4605 272.4509 278.57673 283.47956 295.51084 301.01966 307.14549 310.20838 313.2713 318.7801 324.2889 328.5748 331.6377 337.1465 343.27235 347.61329 354.88493 360.39375 364.71269 370.2215 376.0498 384.41224 390.8355 395.73838 400.0573 409.235 412.2979 416.63887 420.97984 424.04273 429.55155 435.67738 440.0183 447.28996 451.89533 458.02113 463.52995 469.65577 475.16459 484.14396 488.4298 494.55564 498.87458 503.7774 508.11836 514.24417 519.753 522.8159 528.9417 533.28268">mustnotoriginatenewauthority,createnewobligations,grantpermissions,changethresholds,</tspan></text>
<text xml:space="preserve" transform="matrix(1 0 -0 1 0 792)" font-size="10.9091" font-family="LMRoman10"><tspan y="-494.508" x="72 81.08728 86.84729 92.91275 95.94548 99.28367 108.6764 112.97459 118.42914 121.76733 126.62187 132.07642 138.14188 143.59642 147.87279 153.93825 158.23644 164.91281 170.36736 178.27646 183.42555 188.88011 193.73467 198.01103 202.2874 205.32013 211.38559 219.88379 225.94925 228.98198 234.43653 240.50199 245.35654 249.6329 253.26564 258.72019 262.99656 269.062 273.91658 281.82566 286.0693 290.92387 296.68388 300.92753">modifysafeguards,oroverridehigher-ordertext.</tspan></text>
<text xml:space="preserve" transform="matrix(.9924717 0 -0 1.0075854 0 792)" font-size="10.826972" font-family="LMRoman10"><tspan y="-470.6142" x="72.54615 80.817958 85.635959 89.88013 92.89002 98.30351 103.12151 112.79 121.808879 127.22237 131.43405 136.25206 140.49623 143.50614 148.91962 151.92952 159.84404 168.54894 174.56873 178.83455 186.69495 192.72556 198.13904 205.99942 212.32236 220.78907 225.03324 229.85124 232.86115 235.87105 240.68906 250.35753 256.37733 262.7003 268.11378 277.78227 281.99397 291.05616 297.07597 301.89396 306.10566 310.92369 315.16786 324.1867 327.1966 333.2164 341.6831 345.92729 348.93717 354.35069 360.06733 364.27903 368.54484 375.20344 381.22325 387.24305 391.45475 394.46464 399.28266 403.54847 410.20707 416.53004 421.34803 425.5922 434.61106 437.62098 441.88679 446.1526 449.1625 454.576 460.5958 464.87245 471.53105 477.55085 481.795 487.2085 493.2283 496.23823 502.25804 505.2679 509.4796 512.4895 517.903 523.92288 528.18869 534.8472 540.26077">Derivedmaterialsmustnotbereliedupontodeterminerights,duties,permissions,prohibitions,or</tspan></text>
<text xml:space="preserve" transform="matrix(1 0 -0 1 0 792)" font-size="10.9091" font-family="LMRoman10"><tspan y="-460.635" x="72 76.85455 82.92001 86.2582 91.71275 95.98912 100.84367 105.69823 114.78551 119.64006 125.40006 133.27645 138.73099 144.80736 149.051 153.89464 159.34918 168.43647 173.29102 177.5892">enforcementoutcomes.</tspan></text>
<text xml:space="preserve" transform="matrix(1.0044899 0 -0 .9955302 0 792)" font-size="10.95808" font-family="LMRoman10"><tspan y="-442.28797" x="71.67818 75.63404 82.60337 88.08241 93.86828 103.27031 108.14665 113.625698 119.71838 122.76473 125.81107 128.85742 133.73377 137.99646 144.64801 150.12706 158.95928 165.05197 168.09832 173.57736 179.67005 182.7164 186.67227 191.55957 198.21114 203.69017 211.6019 214.64826 220.74095 225.6173 231.09635 237.18904 241.50653 244.55289 248.87036 253.13306 258.00944 264.1021 268.9785 278.38053 283.2569 289.0428 292.08915 296.40663 300.6693 308.59205 314.99156 319.86793 323.8238 331.43965 336.316 341.19236 350.89027 359.98548 366.0782 369.12455 374.60359 380.69627 385.57264 389.8682 393.51725 398.99629 403.29185 409.38456 414.2609 422.16169 428.25437 434.04023 438.9166 445.00929 454.13737 459.01374 464.79963 472.67848 478.1575 484.2502 493.9591 503.04335 509.13606 514.0124 518.308 521.3543 526.8443 531.72067">Ifanyconflict,ambiguity,orinconsistencyexistsbetweenahigher-orderdocumentandaderived</tspan></text>
<text xml:space="preserve" transform="matrix(1 0 -0 1 0 792)" font-size="10.9091" font-family="LMRoman10"><tspan y="-426.762" x="72 81.08728 86.54183 90.78547 95.640018 99.91638 102.94911 108.40366 111.43639 118.10185 122.34549 128.41095 136.90915 142.97461 146.00734 151.46189 157.52735 162.3819 166.64736 170.291 175.74555 180.011 186.08737 190.93102 198.85103 204.91649 210.67649 215.53104 221.5965 230.68378 235.53833 241.29834 249.17472 254.62926 259.77836 265.2438 270.09837 274.37474 280.4402 288.3711 296.24748 299.28019 303.52384 309.5893 315.04386 321.1093 328.9857 333.84025 339.60026 344.4548 349.30937 355.37483 359.61848 362.65119 368.10575 374.1712">material,thehigher-orderdocumentgovernswithoutexception.</tspan><tspan y="-406.438" x="72 80.18182 89.269107 94.12366 100.18912 103.22185 107.465488 113.530948 117.80731 123.26186 126.29459 132.97097 136.0037 142.06916 145.40734 150.86188 155.13825 164.22553 169.68007 172.7128 179.37827 184.83281 192.74192 197.0401 202.80011 211.58194 217.95285 223.4074 226.44013 229.47286 237.97106 242.8256 248.58562 254.65108 258.92744 263.7711 268.08018 272.37837 275.41108 280.86564 290.5638 296.62928 302.08384 310.01475 313.04747 319.1129 325.17839 330.03294 336.40385 341.2584 347.32386 353.3893 358.24388 364.00389 371.89118 377.34574 383.4112 387.65486 393.7203 399.17488 403.45124 406.48396 410.42216 419.81489 425.26945 433.18946 436.22218 441.98219 446.22584 451.08039 455.35676 461.4222 465.69859 470.55314 474.79679 477.8295 483.28407 491.77134 499.35316 504.1968 507.22953 512.6841 518.45498 522.6986">Nocultural,informal,orsymbolicexpressionhasindependentauthorityorinterpretiveweight.</tspan></text>
<text xml:space="preserve" transform="matrix(1.0099504 0 -0 .99014756 0 792)" font-size="11.017651" font-family="LMRoman10"><tspan y="-389.95606" x="71.290637 78.793659 84.61098 88.89684 93.7997 98.118618 104.24443 109.75325 117.663928 123.172748 127.5137 131.86568 137.9915 142.31041 147.81925 153.94506 158.84792 168.59854 174.72437 180.53066 185.43352 191.55934 200.73705 205.6399 211.46825 215.7541 224.94284 229.2287 232.29161 238.41742 243.32028 246.38318 252.509 258.63484 261.69773 267.83457 278.19117 284.31697 289.82579 295.9516 301.46043 305.77934 314.00953 318.32847 323.2313 328.7401 334.86595 337.92884 343.43766 347.7235 353.23234 357.55128 365.78144 371.29026 380.45695 385.96577 392.09159 398.2174 401.2803 405.56617 411.07499 420.24168 424.58265 430.70848 439.88615 449.06385 454.57267 458.89158 461.9545 466.85734 471.1983 480.34297 485.85179 490.17073 499.92134 506.04713 510.94999 515.26889 518.3318 523.8516 528.7545">Externalassurancedocuments(includingdonor,regulator,orauditorsummaries)arederived</tspan></text>
<text xml:space="preserve" transform="matrix(1 0 -0 1 0 792)" font-size="10.9091" font-family="LMRoman10"><tspan y="-372.565" x="72 76.27637 81.13092 87.19638 91.47275 96.3273 100.62549 105.48004 111.24004 115.48368 120.93823 125.18187 128.2146 133.66915 139.7346 147.67644 153.13098 159.19644 168.89464 173.74919 179.20374 185.2692 188.60738 193.46193 201.37104 207.4365 216.53469 221.98923 228.05469 232.29833 238.36379 243.81833 248.0947 251.12743 255.06562 259.92018">representationsandconfernoauthority.</tspan><tspan y="-352.241" x="72 82.00365 88.06911 92.312747 97.767299 103.832759 106.865489 109.89822 112.93095 116.869129 122.62913 130.5164 138.69823 144.76369 149.31279 155.37825 160.8328 166.89826 172.3528 177.20735 182.6619 188.72736 191.76009">Mutability:Unchangeable</tspan></text>
<text xml:space="preserve" transform="matrix(1 0 -0 1 0 792)" font-size="14.3462" font-family="LMRoman12" font-weight="bold"><tspan y="-317.873" x="72">4</tspan></text>
<text xml:space="preserve" transform="matrix(1 0 -0 1 0 792)" font-size="14.3462" font-family="LMRoman12" font-weight="bold"><tspan y="-317.873" x="92.185108 104.55153 111.91113 116.39432 120.87751 129.84389 134.33425 140.61788 145.10823 153.18514 162.1515">Definitions</tspan></text>
<text xml:space="preserve" transform="matrix(1 0 -0 1 0 792)" font-size="11.9552" font-family="LMRoman12" font-weight="bold"><tspan y="-290.93299" x="72 78.73078 82.47276">4.1</tspan></text>
<text xml:space="preserve" transform="matrix(1 0 -0 1 0 792)" font-size="11.9552" font-family="LMRoman12" font-weight="bold"><tspan y="-290.93299" x="99.29373 106.62227 113.35305 120.82505 128.29706 135.76906 141.90207">Founder</tspan></text>
<text xml:space="preserve" transform="matrix(.99548986 0 -0 1.0045307 0 792)" font-size="10.859898" font-family="LMRoman10"><tspan y="-269.1207" x="71.93142 79.77226 85.81037 94.30281 100.48209 105.91204 111.95014 117.98825 124.02635 128.859 136.77588 139.79492 147.74437 156.83409 162.8722 167.70484 170.72389 173.74294 179.78104 184.61368 194.31157 199.74152 203.9986 209.42855 214.85849 220.89658 223.91564 228.74828 234.17823 238.40273 241.42177 246.85172 252.88982 258.31977 265.00947 269.26655 274.68565 277.70469 286.20799 290.46507 295.2977 299.5765 305.91868 311.3486 317.38673 321.6655 324.68455 330.72267 333.7417 342.23414 345.55726 350.9872 358.90409 364.334 368.5911 371.61015 377.0401 380.05915 386.09724 391.5272 395.75169 398.77073 404.80885 413.90943 419.33937 425.37745 435.07536 439.35414 443.5786 448.4113 455.94804 461.378 465.63508 471.67317 474.69224 480.73033 489.82005 494.04457 500.08265 508.57508 511.8982 517.3281 523.3662 529.40438 535.4533 540.88327">TheFounderisadefinedorganizationalroleresponsiblefororiginatingandstewardingthefounda-</tspan></text>
<text xml:space="preserve" transform="matrix(1 0 -0 1 0 792)" font-size="10.9091" font-family="LMRoman10"><tspan y="-256.791" x="72 76.24364 79.27637 84.73092 90.79638 96.25093 102.91639 107.21458 111.45821 115.73458 121.80004 126.65459 130.89823 136.96369 141.24005 146.0946 152.77098 161.85826 164.89099 169.18918 173.48737 176.5201 181.97464 191.67284 197.12738 201.40375 205.64739 208.68012 213.53467 219.60013 222.63286 228.0874 232.33104 235.36377 240.81832 246.88378 253.54924 259.00379 265.06925 274.77836 277.81108 283.26564 289.3311 294.78565 298.41838 304.48384 309.9384 314.21476 317.24748 322.10203 327.55659 337.25477 342.1093 347.56388 353.62934 358.4839 362.76026 367.6148 373.68028 378.53483 387.0221 392.47666 399.4585 407.64033 412.49488 424.00398 432.33854 437.7931 443.24766 448.7022 453.55677 457.83314 460.86585 466.3204 472.38587 478.45133">tionalstructure,missionarticulation,andlong-horizoncoherenceofNewDoggerland.</tspan></text>
<text xml:space="preserve" transform="matrix(.99196776 0 -0 1.0080973 0 792)" font-size="10.821475" font-family="LMRoman10"><tspan y="-234.56763" x="72.18683 79.99993 86.01668 94.50072 97.50909 103.525829 106.5342 110.74375 113.75213 119.162868 125.839717 131.98633 137.39707 143.4138 149.44136 155.4581 160.27365 168.18415 171.19252 179.12467 183.3342 189.35095 197.83498 203.85172 209.26245 213.472 219.48874 223.73076 229.1415 235.81835 242.13809 246.95365 251.19567 255.45932 260.87007 270.55528 278.36839 284.3851 293.46434 298.2799 302.54356 306.7531 312.16386 318.18058 321.18894 324.1973 328.46095 334.4777 339.29325 348.97846 357.09458 361.91014 373.3917 381.6593 387.07005 392.48078 397.8915 402.7071 406.9491 409.95747 415.3682 421.38496 431.081 436.49174 442.50849 452.1937 455.20207 463.13417 466.14253 472.15928 476.97483 482.68858 486.89814 489.9065 492.91487 495.92323 500.7388 510.424 515.8348 523.7669 528.0306 534.0473 538.5599">TheinitialFounderisthenaturalpersonwhoestablishedNewDoggerlandandisidentifiedassuch</tspan></text>
<text xml:space="preserve" transform="matrix(1 0 -0 1 0 792)" font-size="10.9091" font-family="LMRoman10"><tspan y="-222.918" x="72 75.03273 84.73092 88.974559 95.040019 103.5382 108.99275 113.26912 118.72367 124.17822 130.24369 133.27642 138.13097 143.58551 147.82915 150.86188 156.31642 162.38188 165.41461 173.34554 176.68372 182.13826 186.41463 195.5019 200.95645 205.20009 208.23282 213.68737 223.38556 227.66193 232.51648 237.37104 242.82558 247.10195 253.1674 257.46559">intheorganization&#x2019;sformationrecords.</tspan><tspan y="-202.594" x="71.607 79.483379 85.548839 94.03611 100.254299 105.70885 111.77431 117.83977 123.90523 128.75978 136.66889 140.94525 146.3998 149.43253 154.28708">TheFounderrole:</tspan></text>
<text xml:space="preserve" transform="matrix(1 0 -0 1 0 792)" font-size="10.9091" font-family="LMRoman10"><tspan y="-176.293" x="72">&#x2022;</tspan></text>
<text xml:space="preserve" transform="matrix(1 0 -0 1 0 792)" font-size="10.9091" font-family="LMRoman10"><tspan y="-176.293" x="85.94183 88.97456 96.90548 101.20367 104.2364 110.30186 115.75641 121.82187 124.8546 130.30915 138.22916 143.6837 149.74916 159.44736 168.53464 173.68373 183.08739 189.4583 197.94559 203.70558 208.56014 213.41469 219.48015 225.54561 228.57834 233.43289 243.13109 248.8911 258.29475 263.7493 269.81477 272.84748 282.2402 287.69477 293.76023 302.2475 308.6184 313.47297 317.74934 322.04753 327.50209 337.20027 342.65483 350.5421 359.6294 363.87306 366.90577 375.99305">issingularandmaybeoccupiedbyonlyonepersonatatime</tspan></text>
<text xml:space="preserve" transform="matrix(1 0 -0 1 0 792)" font-size="10.9091" font-family="LMRoman10"><tspan y="-153.977" x="72">&#x2022;</tspan></text>
<text xml:space="preserve" transform="matrix(1 0 -0 1 0 792)" font-size="10.9091" font-family="LMRoman10"><tspan y="-153.977" x="85.94183 92.00729 97.7673 102.62186 110.55277 116.61823 122.072788 129.96007 134.80371 140.25826 146.33463 150.63282 154.87645 157.90918 162.15282 168.21828 172.46192 180.9492 186.40375 196.10195 201.55649 204.58559 207.61469 210.64377 215.49832 220.35288 227.01834 232.47289 235.50199 238.53108 241.56017 246.41472 251.26927 259.18928 265.56019 271.01475 275.31294 278.34565 282.5893 285.622 291.07658 297.14204 303.80747 308.95658 316.83296 322.8984 327.75297 332.02934 336.3275 342.39299 345.4257 355.1348 358.15663 363.92753 368.17118 373.02574 377.3021 382.15666 386.45484 390.6985 397.36393 402.81849 410.72758 416.18214 421.33125 426.7967 431.65126 435.9276 441.99308 447.44764 453.5131 458.36766 466.85493 471.1531 476.00767 481.46223">doesnotconstituteanoffice,officerposition,ownershipinterest,orgovernanceseat</tspan></text>
<text xml:space="preserve" transform="matrix(1 0 -0 1 0 792)" font-size="10.9091" font-family="LMRoman10"><tspan y="-131.66" x="72">&#x2022;</tspan></text>
<text xml:space="preserve" transform="matrix(1 0 -0 1 0 792)" font-size="10.9091" font-family="LMRoman10"><tspan y="-131.66" x="85.94183 90.79639 96.25094 102.3164 105.65459 110.50914 114.78551 122.71642 128.78188 137.88007 143.33463 148.78917 153.0328 156.06554 162.131 171.21828 177.58919 182.73828 190.32012 195.17467 199.44013 206.1165 211.57106 216.42562 220.66925 229.75653 236.12744 241.27654 248.85837 253.71292 257.9784 264.65476 270.1093 278.0184 284.08387 290.14933 293.18205 296.21476 301.6693 305.91297 310.76753 315.04389 320.49845 327.16389 332.61845 338.6839 342.92756 348.993 354.44758 358.72395 361.75666 365.70576">confersnovotingpower,vetopower,orunilateralauthority</tspan></text>
<text xml:space="preserve" transform="matrix(1 0 -0 1 0 792)" font-size="10.9091" font-family="LMRoman10"><tspan y="-109.344" x="72">&#x2022;</tspan></text>
<text xml:space="preserve" transform="matrix(1 0 -0 1 0 792)" font-size="10.9091" font-family="LMRoman10"><tspan y="-109.344" x="85.94183 92.00729 97.461849 100.494579 106.560039 114.49095 118.73459 124.80005 133.29825 139.36371 144.81826 150.88372 154.51645 159.97101 165.42555 169.66919 172.70192 178.76738 187.85466 196.4183 201.57831 207.03287 211.88742 216.16379 222.22925 225.26198 231.32744 240.41472 248.13837 253.89836 259.9638 269.35655 277.2329 283.29838 288.75294 291.78565 299.70567 303.98204 309.43659 312.4693 320.95658 326.71659 336.12025 342.1857 347.04026 350.37846 355.833 361.89848 364.93119 372.80757 378.87303 384.93849 387.9712 392.82575 397.12394 405.05485 411.1203 415.97486 420.8294 423.86213 426.89485 432.9603 437.81486 447.52397 450.55668 460.25486 468.13124 472.4076 475.4403 479.68397 482.71669 488.78215">holdsthenon-votingGoverningBodyChairrolebydefaultunlessdeclinedinwriting</tspan></text>
<text xml:space="preserve" transform="matrix(1 0 -0 1 0 792)" font-size="10.9091" font-family="LMRoman10"><tspan y="-87.028" x="72">&#x2022;</tspan></text>
<text xml:space="preserve" transform="matrix(1 0 -0 1 0 792)" font-size="10.9091" font-family="LMRoman10"><tspan y="-87.028" x="85.94183 95.02911 100.17821 109.58185 115.94186 124.44004 129.58913 135.04367 139.89823 145.35277 149.5964 154.45096 160.51642 167.18189 171.45825 176.3128 180.55644 183.58917 187.86554 192.7201 202.4292 205.76738 210.04375 215.49829 224.58557 231.25104 236.70558 244.61469 248.89105 253.7456 259.20018 263.49836 267.79655 270.82926 276.2838 282.34928 287.20384 296.91294 302.3675 308.43296 311.46568 320.8584 323.8911 333.5893 339.04386 343.8984 348.75297 354.20753 358.4839 364.54936 370.0039 376.06938 380.92393 389.4112 397.28758 400.32029 404.56394 414.27305 418.5167 424.58216 427.61488 435.54579 441.61125 447.37126 452.2258 458.29127 467.37855 472.2331 477.9931">maybevacated,retiredfrom,orreassignedonlyinaccordancewiththisdocument</tspan></text>
<text xml:space="preserve" transform="matrix(1 0 -0 1 0 792)" font-size="10.9091" font-family="LMRoman10"><tspan y="-42.112" x="303.273">6</tspan></text>
</svg>
