<svg xmlns="http://www.w3.org/2000/svg" xmlns:xlink="http://www.w3.org/1999/xlink" xmlns:inkscape="http://www.inkscape.org/namespaces/inkscape" version="1.1" width="612" height="792" viewBox="0 0 612 792">
<text xml:space="preserve" transform="matrix(1 0 -0 1 0 792)" font-size="10.9091" font-family="LMRoman10"><tspan y="-709.041" x="72 82.00365 88.06911 92.312747 97.767299 103.832759 106.865489 109.89822 112.93095 116.869129 122.62913 130.5164 138.69823 144.76369 149.31279 155.37825 160.8328 166.89826 172.3528 177.20735 182.6619 188.72736 191.76009">Mutability:Unchangeable</tspan></text>
<text xml:space="preserve" transform="matrix(1 0 -0 1 0 792)" font-size="11.9552" font-family="LMRoman12" font-weight="bold"><tspan y="-679.83206" x="72 78.73078 82.47276">3.3</tspan></text>
<text xml:space="preserve" transform="matrix(1 0 -0 1 0 792)" font-size="11.9552" font-family="LMRoman12" font-weight="bold"><tspan y="-679.83206" x="99.29373 109.013309 115.74409 122.83352 128.0699 133.56929 140.10878 146.08638 151.32276 161.126 167.65355 175.12555 187.08075 197.18289 204.65489 211.38567 218.11644 221.85842 229.33042 240.54439 250.64653 258.11854 261.8605 265.60249 272.33326 278.87275 284.10914 287.8511 294.58189 302.0539">ContractsandOngoingObligations</tspan></text>
<text xml:space="preserve" transform="matrix(1 0 -0 1 0 792)" font-size="10.9091" font-family="LMRoman10"><tspan y="-659.239" x="71.596 79.777828 85.53783 94.94147 99.79602 105.25057 111.010578 115.25421 119.53058 124.98513 129.83968 134.08332 140.74878 143.78151 148.63607 154.0906 158.3888 163.24335 169.90882 174.207 179.06156 183.33792 189.09793 192.13066 196.98522 205.4725 210.92705 216.38159 220.65796 225.51251 230.36707 239.45435 244.3089 250.07982 254.32346 260.9889 266.44346 274.35255 278.65074 284.7162 290.78166 295.07984 299.9344 304.21076 307.24348 313.30894 317.55259 320.5853 326.03987 335.74897 339.9926 346.05809 351.51264 355.7563">Anycontract,lease,serviceagreement,orsubscriptionthat:</tspan></text>
<text xml:space="preserve" transform="matrix(1 0 -0 1 0 792)" font-size="10.9091" font-family="LMRoman10"><tspan y="-632.938" x="72">&#x2022;</tspan></text>
<text xml:space="preserve" transform="matrix(1 0 -0 1 0 792)" font-size="10.9091" font-family="LMRoman10"><tspan y="-632.938" x="85.94183 90.79639 96.55639 101.410938 106.26549 111.12004 117.1855 125.11642 129.4146 132.44733 141.85099 146.09462 151.54917 159.42554 168.51282 173.96736 179.72737 183.97101 190.03647 197.9783 201.01103 210.70923 216.77469 222.84015 227.11652 232.57106 236.8147 239.84743 245.30197 251.36743 258.0329 263.48747">exceedssix(6)monthsinduration,or</tspan></text>
<text xml:space="preserve" transform="matrix(1 0 -0 1 0 792)" font-size="10.9091" font-family="LMRoman10"><tspan y="-610.621" x="72">&#x2022;</tspan></text>
<text xml:space="preserve" transform="matrix(1 0 -0 1 0 792)" font-size="10.9091" font-family="LMRoman10"><tspan y="-610.621" x="85.94183 90.79639 95.072757 99.92731 105.38186 109.625499 114.48004 122.41096 127.86551 133.93097 138.1746 143.62915 152.71643 158.17098 162.41461 165.44734 173.94554 178.211 183.06555 189.13101 193.98557 201.5674 207.02194 210.05467 216.72014 222.17469">createsautomaticrenewal,or</tspan></text>
<text xml:space="preserve" transform="matrix(1 0 -0 1 0 792)" font-size="10.9091" font-family="LMRoman10"><tspan y="-588.305" x="72">&#x2022;</tspan></text>
<text xml:space="preserve" transform="matrix(1 0 -0 1 0 792)" font-size="10.9091" font-family="LMRoman10"><tspan y="-588.305" x="85.94183 90.79639 96.25094 102.3164 108.38186 113.83641 121.712779 128.0837 136.57099 140.81462 145.66918 149.94554 159.03282 162.06555 168.13101 173.58556 177.8292 182.68375 192.39286 200.26923 203.30196 207.5456 213.61106 219.0656 225.13106 233.00743 239.37834 244.2329 250.29836 255.7529 258.7856 262.72383">cannotbeterminatedwithoutpenalty</tspan><tspan y="-562.00399" x="72 75.03273 82.963649 92.06184 102.06548 107.520038 111.76367 116.618228 120.89459 123.92732 129.38187 136.04734 143.9237 148.77826 153.0219 156.05463 161.50917 171.20737 175.48374 180.33829 185.79283 191.24738 195.52375 201.5892 204.62194 209.47649 213.77468 221.7165 227.17105 234.14197 240.20743 245.66197 248.6947 251.72743 257.18199 265.09107 270.25108 275.70564 278.73835 284.8038 289.65837">isaMaterialActionregardlessofdollarvalue.</tspan><tspan y="-541.68" x="72 82.00365 88.06911 92.312747 97.767299 103.832759 106.865489 109.89822 112.93095 116.869129 122.62913 130.5164 138.69823 144.76369 149.31279 155.37825 160.8328 166.89826 172.3528 177.20735 182.6619 188.72736 191.76009">Mutability:Unchangeable</tspan></text>
<text xml:space="preserve" transform="matrix(1 0 -0 1 0 792)" font-size="14.3462" font-family="LMRoman12" font-weight="bold"><tspan y="-507.31199" x="72">4</tspan></text>
<text xml:space="preserve" transform="matrix(1 0 -0 1 0 792)" font-size="14.3462" font-family="LMRoman12" font-weight="bold"><tspan y="-507.31199" x="92.185108 102.758258 110.1322 116.73145 123.101169 131.17807 140.14444 149.11081 156.47042 166.34059 174.18796 183.15433 197.50052 209.16399 217.24089 230.69763 240.10874 247.46834 256.43473 262.80445 270.65184 276.93547 281.4258 289.50273">PersonnelandCompensation</tspan></text>
<text xml:space="preserve" transform="matrix(1 0 -0 1 0 792)" font-size="10.9091" font-family="LMRoman10"><tspan y="-482.96199" x="71.607 79.483379 85.548839 94.03611 97.3743 102.82885 105.86158 108.89431 114.05431 121.93069 124.96342 131.02887 140.11615 145.5707 150.42525 154.66889 157.70162 163.15616 169.22162 177.15254 182.60709 186.88346 195.38166 205.3853 210.83985 215.08348 219.92713 224.20349 227.23622 232.69077 239.36714 247.24352 252.09807 256.3417 259.37443 264.82899 270.89445 275.19264">ThefollowingactionsareMaterialActions:</tspan></text>
<text xml:space="preserve" transform="matrix(1 0 -0 1 0 792)" font-size="10.9091" font-family="LMRoman10"><tspan y="-456.66099" x="72">&#x2022;</tspan></text>
<text xml:space="preserve" transform="matrix(1 0 -0 1 0 792)" font-size="10.9091" font-family="LMRoman10"><tspan y="-456.66099" x="85.94183 90.79639 95.072757 99.92731 105.38186 109.625499 112.658229 118.11278 127.81097 133.26552 141.18553 146.02918 149.0619 152.09464 161.18192 164.21465 170.2801 175.73465 179.97829 183.01102 188.46556 198.17467 203.62921 210.60013 219.69832 225.76378 231.21833 234.25106 243.94925 248.22562 253.68016 256.7129">creationoreliminationofapaidrole</tspan></text>
<text xml:space="preserve" transform="matrix(1 0 -0 1 0 792)" font-size="10.9091" font-family="LMRoman10"><tspan y="-434.34498" x="72">&#x2022;</tspan></text>
<text xml:space="preserve" transform="matrix(1 0 -0 1 0 792)" font-size="10.9091" font-family="LMRoman10"><tspan y="-434.34498" x="85.94183 91.396389 97.15639 106.56003 111.41458 116.86913 125.95641 132.3164 137.17096 143.23642 147.5346 152.98915 157.23279 160.26552 165.72006 175.42917 180.88372 186.94918 190.28736 196.35282 200.651 204.89464 213.98192 218.83647 224.59648 232.48377 237.32741 243.08742 247.94197 252.79653 257.65107 263.71653 266.74925 272.8147 281.9129 286.15657 291.0111 300.7093 307.0802 311.93476 316.21113 321.06568 325.92024 331.68025 339.5566 343.80027 349.25483 354.70939 363.79667 371.68397 377.13853 383.20399 388.964 395.02946 400.484 403.51673 406.54945">anycompensationadjustmentexceedingtenpercent(10%)annually</tspan></text>
<text xml:space="preserve" transform="matrix(1 0 -0 1 0 792)" font-size="10.9091" font-family="LMRoman10"><tspan y="-412.02799" x="72">&#x2022;</tspan></text>
<text xml:space="preserve" transform="matrix(1 0 -0 1 0 792)" font-size="10.9091" font-family="LMRoman10"><tspan y="-412.02799" x="85.94183 92.00729 96.28366 101.432758 107.19276 110.22549 114.523677 117.556407 123.010959 132.72006 138.1746 145.14553 151.21099 156.66553 162.73099 167.02918 170.0619 176.12737 181.58191 188.24738 192.55648 196.80011 199.82193 206.19284 211.0474 217.11286 223.17832 227.4765 234.15288 239.60742 247.51653 253.58199 259.03654 265.102 268.7347 273.58927 279.04383 283.342 293.05113 299.41114 304.2657 310.33116 315.1857 318.2184 321.25117 325.4948 333.43666 338.8912 344.95668 349.20033 353.4985 356.53123 362.59669 371.08396 375.38215 379.6258 385.08036 391.1458 397.21128 402.66584 406.9422 416.6513 422.71678 427.86589 433.6259 437.90226 443.3568 446.38954">provisionofhousing,stipends,ornon-cashbenefitsoutsidestandardpayroll</tspan></text>
<text xml:space="preserve" transform="matrix(1 0 -0 1 0 792)" font-size="10.9091" font-family="LMRoman10"><tspan y="-389.71199" x="72">&#x2022;</tspan></text>
<text xml:space="preserve" transform="matrix(1 0 -0 1 0 792)" font-size="10.9091" font-family="LMRoman10"><tspan y="-389.71199" x="85.94183 91.396389 97.15639 106.56003 111.41458 116.86913 125.95641 132.3164 137.17096 143.23642 147.5346 152.98915 157.23279 160.26552 165.72006 175.42917 180.88372 188.79282 195.16373 200.01828 206.08374 210.9383 213.97103 217.00376 224.88013 227.91286 233.67287 239.13834 244.59288 247.62561 253.38562 256.41835 262.4838 271.57109 275.81474 281.8802 290.36747 296.58567 302.04023 308.10569 314.17115 320.2366 325.09117 333.00025 338.4548 346.37483 355.4621 359.73847 364.59303 367.62574 373.0803 377.32395 382.1785 391.87669 397.94215 403.3967 407.67308 411.62217">anycompensationorbenefitinvolvingtheFounderorarelatedparty</tspan><tspan y="-363.41099" x="72 82.00365 88.06911 92.312747 97.767299 103.832759 106.865489 109.89822 112.93095 116.869129 122.62913 130.5164 138.69823 144.76369 149.31279 155.37825 160.8328 166.89826 172.3528 177.20735 182.6619 188.72736 191.76009">Mutability:Unchangeable</tspan></text>
<text xml:space="preserve" transform="matrix(1 0 -0 1 0 792)" font-size="14.3462" font-family="LMRoman12" font-weight="bold"><tspan y="-329.04298" x="72">5</tspan></text>
<text xml:space="preserve" transform="matrix(1 0 -0 1 0 792)" font-size="14.3462" font-family="LMRoman12" font-weight="bold"><tspan y="-329.04298" x="92.185108 104.37937 110.749088 117.1188 124.4784 130.76204 142.51158 150.35895 159.32532 173.67151 183.36954 191.2169 200.18328">AssetsandLand</tspan></text>
<text xml:space="preserve" transform="matrix(1 0 -0 1 0 792)" font-size="10.9091" font-family="LMRoman10"><tspan y="-304.69297" x="71.596 79.777828 85.53783 94.94147 100.39602 105.250568 109.4942 112.52693 117.98148 127.67967 130.7124 136.47241 141.92697 147.38152 150.41425 156.17426 159.20699 165.27245 170.72699">Anyactioninvolving:</tspan></text>
<text xml:space="preserve" transform="matrix(1 0 -0 1 0 792)" font-size="10.9091" font-family="LMRoman10"><tspan y="-278.39198" x="72">&#x2022;</tspan></text>
<text xml:space="preserve" transform="matrix(1 0 -0 1 0 792)" font-size="10.9091" font-family="LMRoman10"><tspan y="-278.39198" x="85.94183 91.396389 96.25093 102.01093 108.07639 111.10912 115.40731 118.44004 122.68368 125.71641 131.17096 137.23642 143.90189 148.20008 153.65462 156.68735 161.5419 168.21828 171.251 176.10556 181.5601 185.85829 190.71285 197.37831 202.83286 210.74196 215.59651 221.66197 226.51653 232.58199 241.36382 247.42928 251.70565 257.1602 263.22566 268.0802 276.5784 282.03297 289.00389 292.0366 297.49116 303.5566">acquisition,sale,lease,orencumbranceofland</tspan></text>
<text xml:space="preserve" transform="matrix(1 0 -0 1 0 792)" font-size="10.9091" font-family="LMRoman10"><tspan y="-256.07499" x="72">&#x2022;</tspan></text>
<text xml:space="preserve" transform="matrix(1 0 -0 1 0 792)" font-size="10.9091" font-family="LMRoman10"><tspan y="-256.07499" x="85.94183 91.396389 96.25093 102.01093 108.07639 111.10912 115.40731 118.44004 122.68368 125.71641 131.17096 140.86916 146.3237 154.24372 160.30918 163.3419 167.64009 174.011 179.46555 183.76374 189.21828 195.88375 201.33829 208.3092 213.76375 218.06194 222.36013 227.21468 231.45832 239.40015 244.54924 250.00379 253.03652 259.10197 263.9565 273.66563 279.12019 285.4802 290.6402 296.09477 304.58204 310.0366 315.49116 318.52388 323.97843 329.43299">acquisitionordisposalofassetsvaluedabove$5,000</tspan></text>
<text xml:space="preserve" transform="matrix(1 0 -0 1 0 792)" font-size="10.9091" font-family="LMRoman10"><tspan y="-233.75899" x="72">&#x2022;</tspan></text>
<text xml:space="preserve" transform="matrix(1 0 -0 1 0 792)" font-size="10.9091" font-family="LMRoman10"><tspan y="-233.75899" x="85.94183 91.396389 95.67275 101.127307 106.88731 111.13094 114.16367 120.22913 129.32733 134.78188 141.75279 146.60735 152.06189 156.36008 161.21463 170.30191 175.15647 180.91648 185.16011 189.4583 196.13468 201.58922 206.43286 211.28742 216.14197 220.44016 228.38199 232.65836 235.69109 241.14563 246.90564 251.14928 255.44747 262.1129 267.56748 275.4875 278.5202 283.97477 290.04023 295.49479 299.1275 303.37117 308.2257 312.50209 325.22209 331.28755 335.58573 344.073 348.34938 351.38209 356.83665 362.60755 366.8512">grantingofeasements,accessrights,orlong-termuserights</tspan><tspan y="-207.458" x="72 75.03273 82.963649 92.06184 102.06548 107.520038 111.76367 116.618228 120.89459 123.92732 129.38187 136.04734 143.9237 148.77826 153.0219 156.05463 161.50917 167.57463">isaMaterialAction.</tspan><tspan y="-187.13399" x="72 82.00365 88.06911 92.312747 97.767299 103.832759 106.865489 109.89822 112.93095 116.869129 122.62913 130.5164 138.69823 144.76369 149.31279 155.37825 160.8328 166.89826 172.3528 177.20735 182.6619 188.72736 191.76009">Mutability:Unchangeable</tspan></text>
<text xml:space="preserve" transform="matrix(1 0 -0 1 0 792)" font-size="14.3462" font-family="LMRoman12" font-weight="bold"><tspan y="-152.76599" x="72">6</tspan></text>
<text xml:space="preserve" transform="matrix(1 0 -0 1 0 792)" font-size="14.3462" font-family="LMRoman12" font-weight="bold"><tspan y="-152.76599" x="92.185108 104.55153 111.91113 116.4015 123.7611 131.83802 139.68538 145.96901 150.45937 158.53627 172.88246 180.72983 189.6962 204.04239 215.77759 224.74396 231.02759 239.99396 248.07086 254.67012 259.1605 264.9994">DelegationandAuthority</tspan></text>
<text xml:space="preserve" transform="matrix(1 0 -0 1 0 792)" font-size="10.9091" font-family="LMRoman10"><tspan y="-128.41599" x="71.607 79.483379 85.548839 94.03611 97.3743 102.82885 105.86158 108.89431 114.05431 121.93069 124.96342 131.02887 140.11615 144.9707 150.42525 156.4907 160.7889 165.03253 168.06526 172.3089 178.37436 182.618 191.10529 201.10894 206.56348 210.80712 215.66167 219.93804 222.97077 228.42531 235.09078 242.97806 247.83261 252.07625 255.10898 260.56355 266.629 270.9272">ThefollowingconstituteMaterialActions:</tspan></text>
<text xml:space="preserve" transform="matrix(1 0 -0 1 0 792)" font-size="10.9091" font-family="LMRoman10"><tspan y="-102.11498" x="72">&#x2022;</tspan></text>
<text xml:space="preserve" transform="matrix(1 0 -0 1 0 792)" font-size="10.9091" font-family="LMRoman10"><tspan y="-102.11498" x="85.94183 90.79639 95.072757 99.92731 105.38186 109.625499 112.658229 118.11278 124.17824 130.8437 139.93099 145.69098 151.75644 154.78917 157.8219 160.85463 165.70919 171.16373 175.40737 178.4401 183.89464 189.9601 196.62557 202.08011 210.00012 214.27649 219.13105 224.5856 230.3456 235.20015 240.6547 244.89833 247.92015 253.3747 263.0838 268.53837 275.50929 281.57475 286.4293 289.462 294.31657 299.77113 305.22569 309.46934 314.32389 324.02207 329.47663 335.55299 341.61845 345.8948 351.0439 356.19303 361.64759 368.32395 373.7785 379.84397 384.08763 390.15309 395.60765 399.884 402.91673 406.85493">creation,modification,orrevocationofdelegatedapprovalauthority</tspan></text>
<text xml:space="preserve" transform="matrix(1 0 -0 1 0 792)" font-size="10.9091" font-family="LMRoman10"><tspan y="-79.79898" x="72">&#x2022;</tspan></text>
<text xml:space="preserve" transform="matrix(1 0 -0 1 0 792)" font-size="10.9091" font-family="LMRoman10"><tspan y="-79.79898" x="85.94183 91.396389 95.67275 101.127307 106.88731 111.13094 114.16367 120.22913 129.32733 135.39279 140.84734 146.9128 156.30554 161.76009 166.61464 171.4692 176.32375 180.62194 184.92012 191.58559 195.88378 198.9165 204.37105 210.43651 213.46924 219.5347 228.63289 234.08744 240.1529 244.39653 250.46199 255.91654 260.1929 263.22563 267.16383 272.01838 278.6838 284.13838 292.04747 296.34565 302.10566 306.40385 310.6475 315.50205 328.23298 333.68754 339.753 348.84028 351.873 357.93846 360.97117 365.26936 369.513 373.78938 379.24394 383.48759 388.94215 396.85124 401.1276 404.1603 409.61488 415.37489 419.61854">grantingbankaccess,signingauthority,orsystemadministratorrights</tspan></text>
<text xml:space="preserve" transform="matrix(1 0 -0 1 0 792)" font-size="10.9091" font-family="LMRoman10"><tspan y="-42.11198" x="303.273">3</tspan></text>
</svg>
