<svg xmlns="http://www.w3.org/2000/svg" xmlns:xlink="http://www.w3.org/1999/xlink" xmlns:inkscape="http://www.inkscape.org/namespaces/inkscape" version="1.1" width="612" height="792" viewBox="0 0 612 792">
<text xml:space="preserve" transform="matrix(1 0 -0 1 0 792)" font-size="11.9552" font-family="LMRoman12" font-weight="bold"><tspan y="-709.041" x="72 78.73078 82.47276 89.203548">4.19</tspan></text>
<text xml:space="preserve" transform="matrix(1 0 -0 1 0 792)" font-size="11.9552" font-family="LMRoman12" font-weight="bold"><tspan y="-709.041" x="106.02451 111.033748 118.505748 125.977748 132.11077 139.95337 146.08638 153.55838 161.03038 167.16339 174.26479 183.98436 191.45636 198.92836 206.77097 212.90398 218.40337 225.50476 229.24674 234.55484 241.28562 251.2682 259.3499 265.5188 272.24958 278.3826">IndependentSupervisorLayer</tspan></text>
<text xml:space="preserve" transform="matrix(1.0049875 0 -0 .9950372 0 792)" font-size="10.96351" font-family="LMRoman10"><tspan y="-691.8817" x="71.24069 79.463329 89.176998 93.13483 99.23054 105.32625 110.20501 116.59673 121.475498 127.571208 133.66692 138.54567 144.34539 152.21718 158.31288 164.4086 170.81128 175.69005 179.98775 185.77649 188.82436 193.14398 198.62574 206.53043 213.38263 218.56838 224.05014 228.9289 236.84456 239.89243 247.81905 256.91877 263.31053 268.79228 274.888 283.9877 287.03556 290.08345 296.17918 304.66496 308.98457 315.0803 321.483 326.36177 330.65946 336.44819 339.49604 343.81565 349.2974 353.5951 362.9908 367.2885 372.77027 375.8181 384.31486 388.57966 394.67539 400.15715 408.02897 412.34858 417.83033 422.09513 425.14299 429.4626 432.51045 435.5583 440.43708 448.37467 453.8564 456.90428 463.5591 469.04087 476.01368 480.27848 486.3742 494.86 498.2148 503.69657 506.74443 509.7923 514.978 522.8937 525.9415 532.03726">AnIndependentSupervisorLayerisabonafidesupervisoryrolethatsatisfiesallofthefollowing</tspan></text>
<text xml:space="preserve" transform="matrix(1 0 -0 1 0 792)" font-size="10.9091" font-family="LMRoman10"><tspan y="-674.899" x="72 76.85455 82.309108 88.374568 94.440029 97.472759 101.71639 104.74912 110.203678 116.269138 120.56732">conditions:</tspan></text>
<text xml:space="preserve" transform="matrix(1 0 -0 1 0 792)" font-size="10.9091" font-family="LMRoman10"><tspan y="-648.59799" x="72">&#x2022;</tspan></text>
<text xml:space="preserve" transform="matrix(1 0 -0 1 0 792)" font-size="10.9091" font-family="LMRoman10"><tspan y="-648.59799" x="85.94183 90.18547 96.25093 104.73821 109.0364 115.10186 121.47278 126.32733 130.6037 136.36371 139.39644 143.69463 149.14917 157.05828 160.091 168.03284 174.0983 179.55284 187.42922 196.5274 205.61469 210.46924 219.25107 225.62198 230.47653 238.38564 243.84018 250.8111 255.05474 261.12019 269.61839 278.182 283.33113 288.78569 293.64024 297.9166 303.98207 307.01478 313.08024 322.1675 329.89115 335.65116 341.7166">thesupervisorisnotamemberoftheGoverningBody</tspan></text>
<text xml:space="preserve" transform="matrix(1 0 -0 1 0 792)" font-size="10.9091" font-family="LMRoman10"><tspan y="-626.28097" x="72">&#x2022;</tspan></text>
<text xml:space="preserve" transform="matrix(1 0 -0 1 0 792)" font-size="10.9091" font-family="LMRoman10"><tspan y="-626.28097" x="85.94183 90.18547 96.25093 104.73821 109.0364 115.10186 121.47278 126.32733 130.6037 136.36371 139.39644 143.69463 149.14917 157.05828 160.091 168.03284 174.0983 179.55284 187.42922 191.67285 197.73831 206.23651 212.44379 217.89833 223.96379 230.02925 236.09471 240.94927 248.86928 254.32382 262.2329 268.4511 273.90568 279.97114 286.0366 292.10206 296.9566 304.8657 310.93116 315.1748 320.02937 327.60029 333.05485 337.3312">thesupervisorisnottheFounderorFounderSteward</tspan></text>
<text xml:space="preserve" transform="matrix(1 0 -0 1 0 792)" font-size="10.9091" font-family="LMRoman10"><tspan y="-603.96499" x="72">&#x2022;</tspan></text>
<text xml:space="preserve" transform="matrix(1 0 -0 1 0 792)" font-size="10.9091" font-family="LMRoman10"><tspan y="-603.96499" x="85.94183 90.18547 96.25093 104.73821 109.0364 115.10186 121.47278 126.32733 130.6037 136.36371 139.39644 143.69463 149.14917 157.05828 163.13465 168.88373 173.73828 181.68012 187.74558 193.20012 201.07649 205.35286 210.20742 216.57833 222.03287 226.30924 234.18561 238.42925 247.51653 251.76016 257.82563 266.32383 270.622 276.68748 283.05839 287.91294 292.1893 297.9493 300.98204 305.2802 310.13478 319.83296 326.20387 331.0584 335.33479 339.63298 345.08753">thesupervisordoesnotreporttothesupervisedperson</tspan></text>
<text xml:space="preserve" transform="matrix(1 0 -0 1 0 792)" font-size="10.9091" font-family="LMRoman10"><tspan y="-581.649" x="72">&#x2022;</tspan></text>
<text xml:space="preserve" transform="matrix(1.0099504 0 -0 .99014756 0 792)" font-size="11.017651" font-family="LMRoman10"><tspan y="-587.4367" x="85.09329 89.37916 95.504978 105.63019 109.971149 116.096958 122.52025 127.4231 131.74202 137.55933 140.62224 144.9632 150.47203 160.01332 166.13913 171.64797 181.2113 187.33712 193.15444 198.0573 204.1831 213.36083 218.26367 224.081 228.36685 233.26972 244.6179 250.12673 256.26359 260.54948 266.67527 272.18409 276.50303 279.56593 283.54335 294.583 298.8689 309.60008 314.5029 319.72529 325.2341 328.297 334.42283 339.93165 344.2175 354.3427 360.76603 365.66886 369.9878 373.3592 378.86799 383.18693 392.36463 397.87345 403.99925 408.9021 413.80494 422.49787 427.4007 433.52653 436.89793 442.4067 446.72566 451.6285 461.7537 466.09468 470.38053 475.88935 482.01518 488.141 493.64979 497.96873 504.09455 508.4355 517.1284 522.63729 528.76309">thesupervisorhasdocumentedauthoritytoevaluateperformance,enforcestandards,and</tspan></text>
<text xml:space="preserve" transform="matrix(1 0 -0 1 0 792)" font-size="10.9091" font-family="LMRoman10"><tspan y="-568.099" x="85.94 90.21637 95.07092 99.925479 105.38003 114.46731 123.55459 128.40914 134.4746 144.17279 150.23825 153.27098 157.56917 162.42372 165.45645 171.52191 174.55464 177.58737 183.65283 192.15103 197.60558 205.51468 209.75832 214.61287 218.88924 227.97652 231.00925 237.0747 242.52925 246.77289 249.80562 255.26016">recommenddisciplineortermination</tspan></text>
<text xml:space="preserve" transform="matrix(1 0 -0 1 0 792)" font-size="10.9091" font-family="LMRoman10"><tspan y="-545.783" x="72">&#x2022;</tspan></text>
<text xml:space="preserve" transform="matrix(.9929753 0 -0 1.0070744 0 792)" font-size="10.832467" font-family="LMRoman10"><tspan y="-541.9491" x="86.54798 90.76181 96.78467 105.25565 109.52365 115.54651 121.872669 126.693119 130.93944 136.659 139.67041 143.9384 149.35463 153.60095 156.61238 164.5309 169.35135 174.7676 183.79103 190.12802 194.94849 200.97133 205.23932 210.65557 214.8694 217.88082 223.29706 229.3199 235.98186 240.22818 245.64443 248.65584 257.12684 261.39485 266.2153 271.03575 277.0586 281.3049 284.3163 288.22685 293.0256 299.68757 305.1038 311.12666 320.81086 325.6313 330.7334 336.14964 339.16105 345.18388 350.6001 354.81394 357.82536 363.24159 372.91499 378.33119 382.5775 391.04853 397.07136 402.48759 410.3628 415.18324 420.59947 426.30818 430.522 434.7683 440.18455 443.19596 446.2074 451.02784 460.70124 466.42076 475.79084 480.00468 486.02754 494.49855 498.77735 504.80018 511.1263 515.9467 520.19308 525.9126 528.9241 533.1921 538.0125">thesupervisor&#x2019;scompensation,rolesecurity,andevaluationarenotcontrolledbythesupervised</tspan></text>
<text xml:space="preserve" transform="matrix(1 0 -0 1 0 792)" font-size="10.9091" font-family="LMRoman10"><tspan y="-532.234" x="85.94 92.31092 97.16547 101.44183 105.74002 111.19457">person</tspan></text>
<text xml:space="preserve" transform="matrix(1.0014988 0 -0 .9985033 0 792)" font-size="10.925451" font-family="LMRoman10"><tspan y="-506.69139" x="71.48885 83.32112 89.39567 94.8584 103.9593 106.99657 113.07112 118.53385 121.57113 128.23566 133.09748 137.9593 142.24208 147.10391 156.20482 161.66754 167.7421 170.77936 176.2421 179.27936 185.95482 191.41754 199.32758 204.18939 209.65213 215.72669 218.76396 221.80124 224.8385 229.70034 233.95034 238.81217 248.5249 252.82953 258.90409 265.27363 270.13545 274.4182 280.18684 283.22413 287.52876 292.99147 297.27424 306.68104 312.14378 316.4265 320.7093 326.17204 332.24659 337.7093 342.5711 351.672 356.53385 362.30247 370.19065 376.2652 382.02293 386.88475 394.8275 400.90208 406.36479 414.24208 419.10389 424.5666 430.64115 434.94578 439.19578 442.23307 446.48307 452.55763 456.80763 465.30763 470.77033 480.47215 484.41624 490.5017 496.57627 501.43809 507.80763 512.6695 518.7441 524.8186 529.6805 535.4601">Anominal,ceremonial,orconflictedsupervisoryarrangementdoesnotconstituteanIndependent</tspan></text>
<text xml:space="preserve" transform="matrix(1 0 -0 1 0 792)" font-size="10.9091" font-family="LMRoman10"><tspan y="-492.383" x="72 78.06546 84.13092 90.50184 95.356388 99.63275 105.39275 108.42548 112.72367 118.17822 126.08732 132.9055 138.0546 143.52007 148.37462 152.65099">SupervisorLayer.</tspan><tspan y="-472.06" x="72 82.00365 88.06911 92.312747 97.767299 103.832759 106.865489 109.89822 112.93095 116.869129 122.62913 130.5164 138.69823 144.76369 149.31279 155.37825 160.8328 166.89826 172.3528 177.20735 182.6619 188.72736 191.76009">Mutability:Unchangeable</tspan></text>
<text xml:space="preserve" transform="matrix(1 0 -0 1 0 792)" font-size="11.9552" font-family="LMRoman12" font-weight="bold"><tspan y="-442.851" x="72 78.73078 82.47276 89.203548">4.20</tspan></text>
<text xml:space="preserve" transform="matrix(1 0 -0 1 0 792)" font-size="11.9552" font-family="LMRoman12" font-weight="bold"><tspan y="-442.851" x="106.02451 115.744098 121.243488 127.3765 134.84851 138.59049 146.06249 149.80446 160.42067 165.4299 176.64388 184.11588 190.65537 194.39734 199.89673 211.1107 217.24372 224.34511">CredibleImpairment</tspan></text>
<text xml:space="preserve" transform="matrix(1.0069758 0 -0 .9930726 0 792)" font-size="10.985198" font-family="LMRoman10"><tspan y="-425.20353" x="71.50122 79.43253 83.73873 88.627147 94.73492 97.788799 103.89657 106.950458 115.44201 119.40767 128.55834 134.6661 140.1587 143.2126 147.5188 156.66948 161.55789 167.36905 175.24546 178.29933 186.23065 195.3264 201.43418 206.32259 215.47327 220.96587 227.07363 231.40181 235.67505 239.98125 245.47385 251.58162 254.63552 263.12705 268.01548 273.5081 279.61585 285.72364 288.77754 293.05076 296.10466 301.59727 311.31919 315.5924 321.7002 327.19279 335.06916 344.21983 349.71244 353.98567 358.87406 363.18028 366.23417 371.72676 374.78065 377.83454 387.23786 393.34565 397.65184 402.54026 408.03285 412.92127 418.73246 423.00569 430.93699 440.0327 446.44807 451.3365 455.6427 459.97087 465.46348 475.17439 478.53587 482.84205 488.33467 501.08845 505.39466 510.28309 513.337 516.39089 521.8834 527.9912 531.0451">CredibleImpairmentisademonstrableconditionthatmateriallypreventsapersonfromreliably</tspan></text>
<text xml:space="preserve" transform="matrix(1 0 -0 1 0 792)" font-size="10.9091" font-family="LMRoman10"><tspan y="-408.708" x="72 78.37092 83.225467 87.50183 90.84002 96.29457 100.57094 109.65822 112.69095 118.75641 127.84369 132.08733 138.15279 146.64008 151.49463 155.79282 160.091 164.94556 170.71648 174.96012 177.99285 183.44739 190.11286 196.17832 202.24378 206.48741 209.52014 214.3747 222.30562 227.76016 234.74199 238.98563 245.05109 249.90564 252.93837 260.84745 265.1238 270.57838 273.61109 278.46565">performingtheessentialdutiesoftheirrole.</tspan><tspan y="-388.385" x="71.596 83.41055 86.44328 89.47601 95.54147 101.61784 104.63966 110.716037 119.803318 125.257869 132.22879 140.10517 144.38153 149.23609 155.30155 158.33428 164.39974 167.43247 175.91976 179.85794 188.94522 195.02159 200.47614 203.50887 207.77433 216.8616 221.71616 227.48708 235.36345 239.63982 244.49437 250.25438 256.31983 259.35255 263.6289 268.48347 276.41438 282.47984 288.23985 293.0944 299.15986 308.24714 313.10169 318.8617 323.10536 327.9599 337.669 342.52357 348.28358 351.31629 357.38175 362.2363 368.30177 373.1563 381.6436 387.09815 394.06907 399.52363 405.58909 414.08729 419.54185 427.45094 436.5382 441.99278 446.26914 454.7564 460.21098 467.1819 471.42555 477.5019 485.98918 489.32737 494.78193 497.81465 500.84736 505.99647 513.8728 516.9055 522.97097 528.4255">AfindingofCredibleImpairmentrequiresdocumentedevidenceofoneormoreofthefollowing:</tspan></text>
<text xml:space="preserve" transform="matrix(1 0 -0 1 0 792)" font-size="10.9091" font-family="LMRoman10"><tspan y="-362.083" x="72">&#x2022;</tspan></text>
<text xml:space="preserve" transform="matrix(1 0 -0 1 0 792)" font-size="10.9091" font-family="LMRoman10"><tspan y="-362.083" x="85.94183 92.31275 97.1673 101.443668 105.74185 108.77458 113.07277 117.31641 122.17096 127.93096 135.80735 138.84008 144.90554 150.36008 156.42554 159.45827 162.491 165.52373 169.47283 178.86557 183.1092 192.19649 198.26195 203.71649 207.99286 212.2365 215.26923 220.12378 223.15651 229.22197 234.67652 238.92015 247.41835 256.5056 261.34928 266.80384 272.8802 275.902 281.97837 287.43293 290.77113 296.83659 299.8693 302.902 312.29475 315.32746 325.02565 329.302 334.15657 339.91658 345.98204 349.01475 353.2911 358.14567 367.85478 373.92024 379.9857 384.22935 387.26206 392.1166">persistentinabilitytoparticipatemeaningfullyinrequiredduties</tspan></text>
<text xml:space="preserve" transform="matrix(1 0 -0 1 0 792)" font-size="10.9091" font-family="LMRoman10"><tspan y="-339.767" x="72">&#x2022;</tspan></text>
<text xml:space="preserve" transform="matrix(.9899495 0 -0 1.0101526 0 792)" font-size="10.799458" font-family="LMRoman10"><tspan y="-336.35215" x="86.81251 91.06749 97.07199 101.32697 105.52796 110.92769 113.92994 119.93444 124.740207 133.54177 138.34754 143.74726 149.14699 155.15149 158.15373 162.35472 165.35698 170.7459 175.55167 181.52376 187.52826 193.23038 198.9325 203.18747 206.18973 210.99549 216.39522 219.39746 225.36957 230.7693 237.78894 243.79344 248.04843 253.75054 258.2539 264.25843 269.65815 272.6604 278.06013 283.45985 286.4621 291.26786 296.66758 302.45613 305.45835 308.4606 317.45658 320.4588 324.6598 330.0595 334.2605 337.26274 342.66249 351.46403 356.86378 360.0118 363.15986 367.9656 372.77137 376.97233 379.97459 385.97908 394.16508 397.46974 403.4742 409.47874 414.87846 423.87443 428.68016 434.38227 438.58326 444.55534 448.78874 453.59446 456.5967 459.59898 464.9987 471.0032 474.00544 477.0077 480.00996 483.89775 488.68193 494.65403 500.05375 507.08418 511.88993 517.2897 523.2942 528.6939 533.49966 536.5019 540.38967">sustainedcognitive,physical,orpsychologicallimitationaffectingjudgment,reliability,orcapacity</tspan></text>
<text xml:space="preserve" transform="matrix(1 0 -0 1 0 792)" font-size="10.9091" font-family="LMRoman10"><tspan y="-317.451" x="72">&#x2022;</tspan></text>
<text xml:space="preserve" transform="matrix(1 0 -0 1 0 792)" font-size="10.9091" font-family="LMRoman10"><tspan y="-317.451" x="85.94183 95.02911 99.88367 105.94913 108.98186 113.83641 119.29096 122.32369 125.35642 134.74916 140.81462 146.57462 151.42917 157.49463 166.58191 171.43647 177.19647 181.44011 186.29467 196.00377 199.0365 205.10196 209.95652 215.41106 221.47652 226.93106 231.78562 234.81835 238.75653 248.14928 252.42565 257.28019 260.3129 265.16746 270.31657 275.77113 281.54203 289.4184 293.66206 302.74934 307.0257 312.48027 315.51298 324.01118 330.3712 335.22575 339.5021 342.8403 348.29487 352.57124 361.6585 367.11308 373.17854 378.03309">medicallydocumentedincapacityrelevanttoroleperformance</tspan></text>
<text xml:space="preserve" transform="matrix(1 0 -0 1 0 792)" font-size="10.9091" font-family="LMRoman10"><tspan y="-295.134" x="72">&#x2022;</tspan></text>
<text xml:space="preserve" transform="matrix(1 0 -0 1 0 792)" font-size="10.9091" font-family="LMRoman10"><tspan y="-295.134" x="85.94183 90.2182 95.072757 101.44367 106.29822 111.75277 115.99641 120.85095 130.54915 133.88733 139.34188 142.3746 145.40734 151.4728 155.74916 164.23645 168.48009 177.57828 186.66556 191.52011 196.37467 204.25104 208.5274 213.98195 217.01468 225.50197 230.95652 237.02198 240.0547 243.08744 248.54198 253.99652 258.24018 261.2729 266.72746 272.7929 280.73475 286.8002 291.65476 295.95295 302.0184 305.05113 309.29478 317.78205 322.0584 326.91297 332.36753 336.6657 342.12028 348.18574 353.6403 359.70576 362.73847 371.22575 376.6803 381.53486 386.3894 391.84397 400.93125 410.01853 415.77854 421.844 427.29856 431.5422 434.57493 440.02949">repeatedfailuretomeetroleobligationsdespitereasonableaccommodation</tspan><tspan y="-268.833" x="72 79.87637 84.15274 89.00729 95.072757 98.105487 104.170948 107.203678 115.690959 119.62914 128.71643 134.78189 140.23644 143.26917 147.54553 156.63282 161.48737 167.24738 175.13466 183.91649 189.98195 194.28014 202.15651 208.22197 213.67652 221.5638 227.93471 236.422 242.48746 247.942 252.24019 257.09474 266.7929 271.0911 276.54566 279.57838 284.43293 287.46565 296.8693 302.32386 308.3893">CredibleImpairmentmustnotbebasedsolelyon:</tspan></text>
<text xml:space="preserve" transform="matrix(1 0 -0 1 0 792)" font-size="10.9091" font-family="LMRoman10"><tspan y="-242.53202" x="72">&#x2022;</tspan></text>
<text xml:space="preserve" transform="matrix(1 0 -0 1 0 792)" font-size="10.9091" font-family="LMRoman10"><tspan y="-242.53202" x="85.94183 92.00729 95.04002 99.33821 104.79276 110.247318 114.52368 119.378238 124.23279 133.32007 138.17462 143.93463 148.17827 154.84374 160.9201 163.94193 168.25102 172.54921 177.40377 183.16378 187.40741 194.07288 199.52742 207.43653 213.50199 219.57836 225.93836 231.3929 237.45836 243.52382 246.55655 252.0111 259.93113 266.30204 271.7566 276.05479 279.0875 283.33116 286.36387 291.81843 297.88389">disagreement,dissent,orunpopularpositions</tspan></text>
<text xml:space="preserve" transform="matrix(1 0 -0 1 0 792)" font-size="10.9091" font-family="LMRoman10"><tspan y="-220.21501" x="72">&#x2022;</tspan></text>
<text xml:space="preserve" transform="matrix(1 0 -0 1 0 792)" font-size="10.9091" font-family="LMRoman10"><tspan y="-220.21501" x="85.94183 91.396389 96.85094 101.70549 108.37095 114.43641 117.46914 121.76733 127.22188 133.28734 136.32007 139.3528 142.38553 146.33463 155.72737 160.02556 164.2692 169.72374 173.96738 180.03284 184.33103 190.99649 196.45104 204.37105 210.43651 214.71288 220.16742 224.41106 229.26561 234.12017 238.3638 243.20745 252.91655 257.46565 263.5311 268.98567 273.26203 278.71659 283.57115 287.8148 292.66935 296.9457 299.97843 304.2766 308.52027 311.55299 316.40754">age,disabilitystatus,orprotectedcharacteristics</tspan></text>
<text xml:space="preserve" transform="matrix(1 0 -0 1 0 792)" font-size="10.9091" font-family="LMRoman10"><tspan y="-197.89902" x="72">&#x2022;</tspan></text>
<text xml:space="preserve" transform="matrix(1 0 -0 1 0 792)" font-size="10.9091" font-family="LMRoman10"><tspan y="-197.89902" x="85.94183 90.18547 95.04002 104.127307 110.49822 115.952777 120.22914 125.68369 129.96006 139.3528 142.38553 145.41826 148.45099 154.51645 159.371 163.66919 167.96738 174.63285 178.93103 183.17467 187.45104 192.30559 196.60378 200.90196 207.57834 213.03289 220.94199 223.97472 228.2729 233.72745 236.76018 242.21472 246.45836 251.31291 261.01109 264.0438 270.10926 274.9638 277.99653 284.06199 288.91654 294.68745 298.9311">temporaryillness,stress,orisolatedincidents</tspan></text>
<text xml:space="preserve" transform="matrix(1 0 -0 1 0 792)" font-size="10.9091" font-family="LMRoman10"><tspan y="-175.58303" x="72">&#x2022;</tspan></text>
<text xml:space="preserve" transform="matrix(1 0 -0 1 0 792)" font-size="10.9091" font-family="LMRoman10"><tspan y="-175.58303" x="85.94183 92.00729 98.072757 102.92731 108.38186 112.658229 116.93459 122.389148 128.76006 134.2146 138.49097 143.94551 148.18915 153.0437 162.7419 168.19644 171.22917 174.2619 179.11646 184.571 190.02555 194.26918 197.30191 202.75646 208.82192 216.75284 222.20738 230.1274 234.42559 240.49105 246.86196 250.20014 255.05469 259.90925 264.1529 267.1856 272.64018 281.12745 284.16017 293.24745 299.3129 303.58927 308.44383 312.742 317.0402 320.0729 325.52748 331.59294">uncorroboratedallegationsorsubjectiveimpressions</tspan></text>
<text xml:space="preserve" transform="matrix(1.0099504 0 -0 .99014756 0 792)" font-size="11.017651" font-family="LMRoman10"><tspan y="-150.76644" x="70.89061 79.15385 84.982189 94.4794 100.60522 105.50807 109.79394 114.69679 119.01571 128.1934 131.25632 137.38213 142.89096 147.17682 150.23972 155.74855 165.56528 171.07411 178.12541 186.08017 190.39908 195.30194 201.42775 204.49066 210.61647 213.67938 222.26213 226.2395 235.4172 241.54303 247.05185 250.11476 254.43369 263.61137 268.51423 274.34254 282.30833 291.18855 297.31434 301.6553 309.63209 316.0554 324.63813 330.76396 336.58125 341.4841 347.6099 356.7876 361.69044 367.50779 371.79365 376.6965 382.8223 389.59819 393.9171 398.81996 404.63728 407.68916 412.592 420.24928 425.7581 431.88389 434.9468 439.84965 446.61448 452.1233 458.2491 468.06584 472.4068 478.5326 484.9559 488.3273 493.23014 498.133 506.10978 510.3956 519.58438 523.8702 529.996">AnydeterminationofCredibleImpairmentmustbedocumented,reviewable,andsubjecttothe</tspan></text>
<text xml:space="preserve" transform="matrix(1 0 -0 1 0 792)" font-size="10.9091" font-family="LMRoman10"><tspan y="-135.732" x="72 76.29819 81.75274 90.84002 99.32729 105.39275 109.66912 115.42913 120.283679 125.13823 131.20369 137.26915 141.54552 147.00006 153.66553 157.96372 163.41826 166.75644 171.611 177.06554 183.131 188.58554 192.86191 198.93828 206.8692 212.32375 218.3892 224.45467 227.4874 230.52013 235.37468 240.82923 246.89469 249.92742 258.4147 262.65837 271.75657 276.02204 280.8766 289.96388 295.12388 300.27299 305.72755 312.39299 315.73118 321.18574 329.10575 333.9603 339.41487 345.48033 349.7785 354.63307">sameproceduralsafeguardsapplicabletoremovalforcause.</tspan><tspan y="-115.408" x="72 82.00365 88.06911 92.312747 97.767299 103.832759 106.865489 109.89822 112.93095 116.869129 122.62913 130.5164 138.69823 144.76369 149.31279 155.37825 160.8328 166.89826 172.3528 177.20735 182.6619 188.72736 191.76009">Mutability:Unchangeable</tspan></text>
<text xml:space="preserve" transform="matrix(1 0 -0 1 0 792)" font-size="10.9091" font-family="LMRoman10"><tspan y="-42.112" x="300.54499 305.99955">15</tspan></text>
</svg>
