<svg xmlns="http://www.w3.org/2000/svg" xmlns:xlink="http://www.w3.org/1999/xlink" xmlns:inkscape="http://www.inkscape.org/namespaces/inkscape" version="1.1" width="612" height="792" viewBox="0 0 612 792">
<text xml:space="preserve" transform="matrix(1 0 -0 1 0 792)" font-size="10.9091" font-family="LMRoman10"><tspan y="-709.041" x="72">&#x2022;</tspan></text>
<text xml:space="preserve" transform="matrix(1 0 -0 1 0 792)" font-size="10.9091" font-family="LMMono10"><tspan y="-709.041" x="85.94183 91.66911 103.12367 114.57823 120.30551 126.03279 131.76007 137.48735 143.21463 154.66919 160.39647 166.12375 171.85103 177.57831 189.03287 194.76015 200.48743 206.2147 211.94199 217.66927 223.39655 229.12383 234.8511 246.30567 252.03295 257.76023 263.4875 269.21476 280.66929 286.39656 292.1238 297.85108 309.3056 315.03288 320.76014 326.4874 332.21467 337.94194 349.39646 355.12373 360.85099 366.57826 378.03279 383.76005 395.21458 400.94184 406.6691 412.39637 418.12364 423.8509 429.57817 435.30543 441.03269 446.75996 452.4872">IFahazardposesimmediaterisk,THENaccessmustberestricted.</tspan></text>
<text xml:space="preserve" transform="matrix(1 0 -0 1 0 792)" font-size="10.9091" font-family="LMRoman10"><tspan y="-686.72506" x="72">&#x2022;</tspan></text>
<text xml:space="preserve" transform="matrix(1 0 -0 1 0 792)" font-size="10.9091" font-family="LMMono10"><tspan y="-686.72506" x="85.94183 91.66911 103.12367 108.85095 114.57823 120.30551 126.03279 131.76007 137.48735 143.21463 148.94191 154.66919 166.12375 171.85103 177.57831 183.30559 189.03287 194.76015 206.2147 211.94199 223.39655 234.8511 240.57839 246.30567 252.03295 263.4875 269.21476 274.94203 280.66929 286.39656 292.1238 303.57835 309.3056 315.03288 320.76014 332.21467 337.94194 343.6692 349.39646 355.12373 360.85099 366.57826 372.3055 378.03279 383.76005 389.4873 395.21458 406.6691 412.39637 418.12364 429.57817 435.30543 446.75996 452.4872 458.21449 463.94175 469.669 475.39628 481.12355">IFconditionsreturntoasafestate,THENrestrictionsmaybelifted.</tspan></text>
<text xml:space="preserve" transform="matrix(1 0 -0 1 0 792)" font-size="14.3462" font-family="LMRoman12" font-weight="bold"><tspan y="-652.35708" x="72 84.12254 99.42994 104.80977 112.88668 124.55015 136.67269 144.74959 152.10919 158.70845 165.30771 169.79807 178.76444 186.12404 197.87358 215.80634 226.39383 234.91547 242.08856 249.44817 258.41456 264.69819 269.18855 277.26545 286.2318">OM-7.Overrides&#x0026;Exceptions</tspan></text>
<text xml:space="preserve" transform="matrix(1 0 -0 1 0 792)" font-size="10.9091" font-family="LMRoman10"><tspan y="-628.0071" x="72">&#x2022;</tspan></text>
<text xml:space="preserve" transform="matrix(1 0 -0 1 0 792)" font-size="10.9091" font-family="LMMono10"><tspan y="-628.0071" x="85.94183 91.66911 103.12367 108.85095 120.30551 126.03279 131.76007 137.48735 143.21463 148.94191 154.66919 160.39647 171.85103 177.57831 189.03287 194.76015 200.48743 206.2147 211.94199 217.66927 223.39655 229.12383 240.57839 246.30567 257.76023 263.4875 269.21476 274.94203 280.66929 286.39656 292.1238 303.57835 309.3056 315.03288 320.76014 326.4874 332.21467 337.94194 343.6692 349.39646 360.85099 366.57826 372.3055 378.03279 383.76005 395.21458 400.94184 406.6691 412.39637 423.8509 429.57817 441.03269 446.75996 452.4872 458.21449 469.669 475.39628 486.8508 492.57807 498.30534 504.0326 509.75987 515.4871 521.2144 526.9417 532.669 538.3963">IFanoverrideisrequiredtopreventimmediateharm,THENitmustbedocumented</tspan><tspan y="-614.45809" x="85.653 91.38028 97.10756 102.83484 114.2894 120.01668 125.74396 131.47124 137.19852 142.9258 148.65308 160.10764 165.83492 171.5622 177.28948 183.01676 188.74404 200.1986 205.92588 211.65316 223.10771 228.83499 234.56227 240.28955 246.01683 251.74411 257.47138 263.19865 268.9259">withreason,scope,andduration.</tspan></text>
<text xml:space="preserve" transform="matrix(1 0 -0 1 0 792)" font-size="10.9091" font-family="LMRoman10"><tspan y="-592.1421" x="72">&#x2022;</tspan></text>
<text xml:space="preserve" transform="matrix(1 0 -0 1 0 792)" font-size="10.9091" font-family="LMMono10"><tspan y="-592.1421" x="85.94183 91.66911 103.12367 108.85095 120.30551 126.03279 131.76007 137.48735 143.21463 148.94191 154.66919 160.39647 171.85103 177.57831 189.03287 194.76015 200.48743 206.2147 211.94199 217.66927 223.39655 229.12383 234.8511 240.57839 246.30567 252.03295 257.76023 269.21476 274.94203 280.66929 286.39656 297.85108 303.57835 315.03288 320.76014 332.21467 337.94194 343.6692 349.39646 355.12373 360.85099 366.57826 372.3055">IFanoverrideisundocumented,THENitisinvalid.</tspan></text>
<text xml:space="preserve" transform="matrix(1 0 -0 1 0 792)" font-size="10.9091" font-family="LMRoman10"><tspan y="-569.8251" x="72">&#x2022;</tspan></text>
<text xml:space="preserve" transform="matrix(1 0 -0 1 0 792)" font-size="10.9091" font-family="LMMono10"><tspan y="-569.8251" x="85.94183 91.66911 103.12367 108.85095 120.30551 126.03279 131.76007 137.48735 143.21463 148.94191 154.66919 160.39647 171.85103 177.57831 183.30559 189.03287 194.76015 200.48743 206.2147 217.66927 223.39655 229.12383 234.8511 240.57839 246.30567 252.03295 257.76023 263.4875 269.21476 280.66929 286.39656 292.1238 297.85108 309.3056 315.03288 326.4874 332.21467 337.94194 343.6692 355.12373 360.85099 372.3055 378.03279 383.76005 389.4873 395.21458 400.94184 406.6691 412.39637 418.12364">IFanoverrideexceedsnecessity,THENitmustbereversed.</tspan></text>
<text xml:space="preserve" transform="matrix(1 0 -0 1 0 792)" font-size="10.9091" font-family="LMRoman10"><tspan y="-547.5091" x="72">&#x2022;</tspan></text>
<text xml:space="preserve" transform="matrix(1 0 -0 1 0 792)" font-size="10.9091" font-family="LMMono10"><tspan y="-547.5091" x="85.94183 91.66911 103.12367 108.85095 120.30551 126.03279 131.76007 137.48735 143.21463 148.94191 154.66919 160.39647 171.85103 177.57831 183.30559 189.03287 194.76015 200.48743 206.2147 217.66927 223.39655 229.12383 234.8511 246.30567 252.03295 263.4875 269.21476 274.94203 280.66929 292.1238 297.85108 309.3056 315.03288 320.76014 326.4874 332.21467 337.94194 343.6692 349.39646 355.12373 360.85099 372.3055 378.03279 383.76005 389.4873 395.21458 406.6691 412.39637 418.12364 429.57817 435.30543 441.03269 446.75996 452.4872 458.21449 463.94175 469.669 475.39628 481.12355 486.8508 492.57807 498.30534 504.0326 515.4871 521.2144 526.9417 532.669 538.3963 544.1236 549.8509 555.5782 561.3055 567.0328 572.7601 578.48739 584.21469 589.94198 595.66928">IFanoverrideoccurs,THENitmustbeclassifiedundertheConstitution&#x2019;sClassification,</tspan><tspan y="-533.9601" x="85.653 91.38028 97.10756 102.83484 108.56212 114.2894 120.01668 125.74396 131.47124 137.19852 142.9258 148.65308 160.10764 165.83492 171.5622 183.01676 188.74404 194.47132 200.1986 205.92588 211.65316 217.38043 223.10771 228.83499 234.56227 240.28955 246.01683 251.74411 257.47138 268.9259 274.65318 280.38044 286.1077 291.83497 297.56224 303.2895 309.01676 314.74403 320.47129 326.19856">Arbitration,andAccountabilityprovisions.</tspan></text>
<text xml:space="preserve" transform="matrix(1 0 -0 1 0 792)" font-size="14.3462" font-family="LMRoman12" font-weight="bold"><tspan y="-499.59208" x="72 84.12254 99.42994 104.80977 112.88668 124.55015 134.42034 141.01959 148.86696 157.83333 164.20305 173.16942 181.01679 187.61605 194.97565 203.94202 211.11511 225.01657 242.94933 252.64736 260.72428 268.80119 276.87809 281.36845 290.3348">OM-8.Transparency&#x0026;Logging</tspan></text>
<text xml:space="preserve" transform="matrix(1 0 -0 1 0 792)" font-size="10.9091" font-family="LMRoman10"><tspan y="-475.24208" x="72">&#x2022;</tspan></text>
<text xml:space="preserve" transform="matrix(1 0 -0 1 0 792)" font-size="10.9091" font-family="LMMono10"><tspan y="-475.24208" x="85.94183 91.66911 103.12367 114.57823 120.30551 126.03279 131.76007 137.48735 143.21463 148.94191 154.66919 166.12375 171.85103 177.57831 183.30559 189.03287 194.76015 206.2147 211.94199 217.66927 223.39655 229.12383 234.8511 240.57839 252.03295 257.76023 263.4875 269.21476 280.66929 286.39656 297.85108 303.57835 309.3056 315.03288 326.4874 332.21467 343.6692 349.39646 355.12373 360.85099 366.57826 372.3055 378.03279">IFamaterialactionoccurs,THENitmustbelogged.</tspan></text>
<text xml:space="preserve" transform="matrix(1 0 -0 1 0 792)" font-size="10.9091" font-family="LMRoman10"><tspan y="-452.92607" x="72">&#x2022;</tspan></text>
<text xml:space="preserve" transform="matrix(1 0 -0 1 0 792)" font-size="10.9091" font-family="LMMono10"><tspan y="-452.92607" x="85.94183 91.66911 103.12367 108.85095 120.30551 126.03279 131.76007 137.48735 143.21463 148.94191 160.39647 166.12375 171.85103 177.57831 183.30559 189.03287 200.48743 206.2147 217.66927 223.39655 229.12383 234.8511 240.57839 246.30567 257.76023 263.4875 274.94203 280.66929 286.39656 297.85108 303.57835 309.3056 315.03288 320.76014 326.4874 332.21467 343.6692 349.39646 355.12373 360.85099 366.57826 372.3055 378.03279 389.4873 395.21458 400.94184 406.6691 418.12364 423.8509 435.30543 441.03269 446.75996 452.4872 463.94175 469.669 475.39628 486.8508 492.57807 498.30534 504.0326 509.75987 515.4871 526.9417 532.669 538.3963 544.1236 549.8509 555.5782">IFanactioncannotbeloggedintheprimarysystem,THENitmustnotoccur,EXCEPT</tspan><tspan y="-439.37705" x="85.653 91.38028 97.10756 102.83484 108.56212 120.01668 125.74396 137.19852 142.9258 148.65308 160.10764 165.83492 171.5622 177.28948 183.01676 188.74404 200.1986 205.92588 217.38043 223.10771 228.83499 234.56227 240.28955 246.01683 251.74411 257.47138 268.9259 274.65318 280.38044 286.1077 291.83497 297.56224 303.2895 309.01676 314.74403 320.47129 326.19856 337.65309 343.38035 349.1076 360.56214 366.2894 372.01667 377.74394 383.4712 389.19847 400.65299 406.38026 412.1075 417.83479 429.2893 435.01658 440.74385 446.4711 452.19837 457.92564 469.38017 475.10743 480.8347 486.56196 498.01649 503.74375 509.471 520.9256 526.6529 532.3802 538.1075 543.8348 549.5621">THAT:IFtheactionisroutine,reversible,andwithinrolescope,THENtheaction</tspan><tspan y="-425.82804" x="85.94 91.66728 97.39456 108.84912 114.5764 120.30368 126.03096 131.75824 137.48552 143.2128 154.66736 160.39464 166.12192 171.8492 183.30376 189.03104 200.4856 206.21288 211.94016 223.39472 229.122 234.84928 240.57656 246.30384 257.7584 263.48567 269.21293 274.9402 280.66746 286.3947 292.12199 303.5765 309.30378 320.7583 326.48558 332.21284 337.9401 343.66737 349.39463 355.1219 366.57643 372.30369 378.03096 389.48548 395.21275 400.94 406.66728 418.1218 423.84907 435.3036 441.03086 446.75813 452.48539 463.9399 469.66719 481.1217 486.84898 492.57624 498.3035 504.03077 509.75804 521.2126 526.9399 532.6672 538.3945 544.12179 549.84909 555.57638 561.30368 567.03097 572.75827">mayproceedONLYIFtheactorcreatesanofflinelogstubattimeofactioncontaining</tspan><tspan y="-412.27806" x="85.94 91.66728 97.39456 103.12184 108.84912 114.5764 120.30368 126.03096 131.75824 137.48552 148.94008 154.66736 160.39464 166.12192 171.8492 177.57648 189.03104 194.75832 200.4856 206.21288 211.94016 217.66744 229.122 234.84928 240.57656 246.30384 252.03112 257.7584 269.21293 274.9402 280.66746 286.3947 292.12199 303.5765 309.30378 315.03105 326.48558 332.21284 337.9401 343.66737 349.39463 355.1219 360.84916 366.57643 372.30369 378.03096 389.48548 395.21275 400.94 406.66728 412.39454 418.1218 429.57633 435.3036 441.03086 452.48539 458.21266 463.9399 475.39445 481.1217 486.84898 492.57624 504.03077 509.75804 521.2126 526.9399 532.6672 538.3945 544.12179 549.84909">timestamp,actor,scope,reasoncode,andinvocationbasis,andthestubisstored</tspan><tspan y="-398.72904" x="85.94 91.66728 103.12184 114.5764 120.30368 126.03096 131.75824 137.48552 143.2128 148.94008 154.66736 160.39464 166.12192 171.8492 177.57648 183.30376 189.03104 200.4856 206.21288 211.94016 217.66744 223.39472 229.122 240.57656 246.30384 252.03112 257.7584 263.48567 269.21293 274.9402 280.66746 286.3947 292.12199 303.5765 309.30378 320.7583 326.48558 332.21284 337.9401 343.66737 349.39463 355.1219 360.84916 366.57643 372.30369 383.7582 389.48548 395.21275 400.94 406.66728 412.39454 418.1218 423.84907 435.3036 446.75813 452.48539 458.21266 463.9399 469.66719 475.39445 481.1217 486.84898">inatamper-evidentmannerdesignatedbyGovernanceScheduleD(10.40).</tspan></text>
<text xml:space="preserve" transform="matrix(1 0 -0 1 0 792)" font-size="10.9091" font-family="LMRoman10"><tspan y="-376.41304" x="72">&#x2022;</tspan></text>
<text xml:space="preserve" transform="matrix(1 0 -0 1 0 792)" font-size="10.9091" font-family="LMMono10"><tspan y="-376.41304" x="85.94183 91.66911 103.12367 108.85095 120.30551 126.03279 131.76007 137.48735 143.21463 148.94191 154.66919 166.12375 171.85103 177.57831 183.30559 194.76015 200.48743 211.94199 217.66927 223.39655 229.12383 234.8511 246.30567 252.03295 257.76023 263.4875 274.94203 280.66929 286.39656 297.85108 303.57835 309.3056 315.03288 320.76014 332.21467 337.94194 343.6692 349.39646 360.85099 366.57826 372.3055 378.03279 383.76005 395.21458 400.94184 406.6691 418.12364 423.8509 429.57817 435.30543 446.75996 452.4872 458.21449 463.94175 475.39628 481.12355 486.8508 498.30534 504.0326 509.75987 515.4871 521.2144 526.9417 532.669 544.1236 549.8509 555.5782 561.3055 567.0328 572.7601">IFanofflinestubisused,THENtheactormustenterthestubintotheprimarysystem</tspan><tspan y="-362.864" x="85.653 91.38028 97.10756 102.83484 108.56212 114.2894 125.74396 131.47124 142.9258 148.65308 154.38036 160.10764 165.83492 177.28948 183.01676 194.47132 200.1986 205.92588 211.65316 217.38043 223.10771 228.83499 234.56227 246.01683 251.74411 257.47138 263.19865 268.9259 274.65318 280.38044 291.83497 297.56224 303.2895 309.01676 314.74403 320.47129 326.19856 331.9258 337.65309 343.38035 349.1076 360.56214 366.2894 377.74394 383.4712 389.19847 394.92573 400.65299 406.38026 412.1075 417.83479 429.2893 435.01658 446.4711 452.19837 457.92564 463.6529 469.38017 475.10743 480.8347 486.56196 492.2892 498.01649 509.471 515.1983 520.9256 526.6529 532.3802 538.1075 543.8348 549.5621">within72hoursofrestoredloggingcapability,asrequiredbyGovernanceSchedule</tspan><tspan y="-349.31404" x="85.94 97.39456 103.12184 108.84912 114.5764 120.30368 126.03096 131.75824 137.48552">D(10.40).</tspan></text>
<text xml:space="preserve" transform="matrix(1 0 -0 1 0 792)" font-size="10.9091" font-family="LMRoman10"><tspan y="-326.99803" x="72">&#x2022;</tspan></text>
<text xml:space="preserve" transform="matrix(1 0 -0 1 0 792)" font-size="10.9091" font-family="LMMono10"><tspan y="-326.99803" x="85.94183 91.66911 103.12367 108.85095 114.57823 120.30551 126.03279 131.76007 137.48735 148.94191 154.66919 160.39647 166.12375 177.57831 183.30559 189.03287 194.76015 200.48743 211.94199 217.66927 223.39655 229.12383 234.8511 240.57839 252.03295 257.76023 263.4875 269.21476 274.94203 280.66929 292.1238 297.85108 303.57835 309.3056 315.03288 320.76014 326.4874 337.94194 343.6692 349.39646 355.12373 360.85099 372.3055 378.03279 389.4873 395.21458 400.94184 412.39637 418.12364 423.8509 429.57817 435.30543 441.03269 446.75996 452.4872 463.94175 469.669 475.39628 481.12355 492.57807 498.30534 504.0326 509.75987 515.4871 526.9417 532.669 544.1236 549.8509 555.5782 561.3055 567.0328 572.7601 578.48739 584.21469">IFofflinestubusagerecursbeyonddefinednormsORanyrequiredstubfieldismissing,</tspan><tspan y="-313.449" x="85.653 91.38028 97.10756 102.83484 114.2894 120.01668 125.74396 131.47124 137.19852 142.9258 148.65308 154.38036 160.10764 171.5622 177.28948 183.01676 188.74404 194.47132 200.1986 211.65316 217.38043 228.83499 234.56227 240.28955 246.01683 251.74411 257.47138 263.19865 268.9259 274.65318 286.1077 291.83497 297.56224 303.2895 309.01676 320.47129 326.19856 331.9258 337.65309 343.38035 354.83488 360.56214 372.01667 377.74394 383.4712 394.92573 400.65299 406.38026 412.1075 417.83479 423.56205 429.2893 435.01658 440.74385 446.4711 452.19837 457.92564 463.6529 469.38017 480.8347 486.56196 492.2892 498.01649 503.74375 509.471 515.1983 520.9256 526.6529 532.3802 538.1075 543.8348 549.5621 555.28939 561.01669">THENautomaticreviewistriggeredunderOM-11ortheConstitution&#x2019;sClassification,</tspan><tspan y="-299.9" x="85.653 91.38028 97.10756 102.83484 108.56212 114.2894 120.01668 125.74396 131.47124 137.19852 142.9258 148.65308 160.10764 165.83492 171.5622 183.01676 188.74404 194.47132 200.1986 205.92588 211.65316 217.38043 223.10771 228.83499 234.56227 240.28955 246.01683 251.74411 257.47138 268.9259 274.65318 280.38044 286.1077 291.83497 297.56224 303.2895 309.01676 314.74403 320.47129 331.9258 337.65309 349.1076 354.83488 360.56214 366.2894 372.01667 377.74394 383.4712 389.19847 394.92573 400.65299 406.38026">Arbitration,andAccountabilityprovisionsasapplicable.</tspan></text>
<text xml:space="preserve" transform="matrix(1 0 -0 1 0 792)" font-size="10.9091" font-family="LMRoman10"><tspan y="-277.583" x="72">&#x2022;</tspan></text>
<text xml:space="preserve" transform="matrix(1 0 -0 1 0 792)" font-size="10.9091" font-family="LMMono10"><tspan y="-277.583" x="85.94183 91.66911 103.12367 108.85095 114.57823 120.30551 126.03279 131.76007 137.48735 148.94191 154.66919 160.39647 171.85103 177.57831 183.30559 189.03287 194.76015 200.48743 206.2147 211.94199 217.66927 223.39655 229.12383 240.57839 246.30567 252.03295 257.76023 269.21476 274.94203 280.66929 286.39656 292.1238 297.85108 303.57835 309.3056 315.03288 320.76014 326.4874 337.94194 343.6692 355.12373 360.85099 366.57826 372.3055 378.03279 383.76005 389.4873 395.21458 400.94184">IFrecordsareincomplete,THENremediationisrequired.</tspan></text>
<text xml:space="preserve" transform="matrix(1 0 -0 1 0 792)" font-size="10.9091" font-family="LMRoman10"><tspan y="-255.26702" x="72">&#x2022;</tspan></text>
<text xml:space="preserve" transform="matrix(1 0 -0 1 0 792)" font-size="10.9091" font-family="LMMono10"><tspan y="-255.26702" x="85.94183 91.66911 103.12367 108.85095 120.30551 126.03279 131.76007 137.48735 143.21463 148.94191 154.66919 160.39647 166.12375 177.57831 183.30559 189.03287 194.76015 200.48743 206.2147 211.94199 217.66927 229.12383 234.8511 240.57839 246.30567 252.03295 257.76023 263.4875 269.21476 274.94203 286.39656 292.1238 297.85108 303.57835 309.3056 315.03288 320.76014 332.21467 337.94194 343.6692 349.39646 360.85099 366.57826 372.3055 378.03279 383.76005 389.4873 400.94184 406.6691 412.39637 423.8509 429.57817 435.30543 441.03269 446.75996 452.4872 458.21449 469.669 475.39628 481.12355 486.8508 492.57807 498.30534 504.0326 515.4871 521.2144 526.9417 532.669 538.3963">IFanemergencyrequiresimmediateaction,THENactionmayproceedwithoutprior</tspan><tspan y="-241.71802" x="85.94 91.66728 97.39456 103.12184 108.84912 114.5764 120.30368 131.75824 137.48552 143.2128 148.94008 154.66736 160.39464 171.8492 177.57648 189.03104 194.75832 200.4856 206.21288 211.94016 217.66744 223.39472 234.84928 240.57656 246.30384 252.03112 257.7584 263.48567 269.21293 274.9402 286.3947 292.12199 297.84925 303.5765 309.30378">loggingsolelytopreventimminentharm.</tspan></text>
<text xml:space="preserve" transform="matrix(1 0 -0 1 0 792)" font-size="10.9091" font-family="LMRoman10"><tspan y="-219.40203" x="72">&#x2022;</tspan></text>
<text xml:space="preserve" transform="matrix(1 0 -0 1 0 792)" font-size="10.9091" font-family="LMMono10"><tspan y="-219.40203" x="85.94183 91.66911 103.12367 108.85095 114.57823 120.30551 126.03279 131.76007 137.48735 148.94191 154.66919 166.12375 171.85103 177.57831 183.30559 189.03287 194.76015 200.48743 211.94199 217.66927 223.39655 229.12383 234.8511 240.57839 252.03295 257.76023 263.4875 274.94203 280.66929 286.39656 292.1238 297.85108 303.57835 309.3056 315.03288 320.76014 332.21467 337.94194 343.6692 349.39646 355.12373 360.85099 366.57826 378.03279 383.76005 389.4873 395.21458 406.6691 412.39637 418.12364 429.57817 435.30543 441.03269 446.75996 452.4872 458.21449 469.669 475.39628 481.12355 486.8508 498.30534 504.0326 509.75987 515.4871 521.2144 526.9417 532.669 544.1236 549.8509 555.5782 561.3055 567.0328 572.7601 578.48739 584.21469 589.94198 595.66928 601.39657 607.12387 612.85116 618.5784">IFloggingisdelayedbeyondtheemergencywindow,THENtheactionmustundergoclassification</tspan><tspan y="-205.85202" x="85.94 91.66728 97.39456 103.12184 108.84912 114.5764 126.03096 131.75824 137.48552 143.2128 148.94008 160.39464 166.12192 171.8492 177.57648 183.30376 189.03104">reviewunderOM-11.</tspan></text>
<text xml:space="preserve" transform="matrix(1 0 -0 1 0 792)" font-size="10.9091" font-family="LMRoman10"><tspan y="-183.53603" x="72">&#x2022;</tspan></text>
<text xml:space="preserve" transform="matrix(1 0 -0 1 0 792)" font-size="10.9091" font-family="LMMono10"><tspan y="-183.53603" x="85.94183 91.66911 97.39639 103.12367 108.85095 114.57823 120.30551 131.76007 137.48735 148.94191 154.66919 160.39647 166.12375 171.85103 177.57831 183.30559 189.03287 194.76015 206.2147 211.94199 223.39655 229.12383 234.8511 240.57839 252.03295 257.76023 269.21476 274.94203 280.66929 286.39656 292.1238 297.85108 309.3056 315.03288 326.4874 332.21467 337.94194 343.6692 349.39646 355.12373 360.85099 366.57826 378.03279 383.76005 395.21458 406.6691 412.39637 418.12364 423.8509 429.57817 435.30543 441.03269 452.4872 458.21449 463.94175 475.39628 481.12355 486.8508 492.57807 504.0326 509.75987 515.4871 521.2144 526.9417 532.669 538.3963 544.1236 549.8509 555.5782">Loggingissatisfiedattimeofactionbycreationofaminimallogstubcontaining</tspan><tspan y="-169.98703" x="85.94 91.66728 97.39456 103.12184 108.84912 114.5764 120.30368 126.03096 131.75824 137.48552 148.94008 154.66736 160.39464 166.12192 171.8492 177.57648 189.03104 194.75832 200.4856 206.21288 211.94016 217.66744 229.122 234.84928 240.57656 246.30384 252.03112 257.7584 269.21293 274.9402 280.66746 286.3947 292.12199 303.5765 309.30378 315.03105 326.48558 332.21284 337.9401 343.66737 349.39463 355.1219 360.84916 366.57643 372.30369 378.03096 389.48548 395.21275 400.94 406.66728 412.39454 418.1218 435.30363 441.03089 446.75816 452.4854 463.93995 469.6672 475.39448 481.12174 486.849 492.57627 498.30354 504.0308 509.75807 521.21267 526.93997 532.66726 538.39456 544.1218 549.8491 555.5764">timestamp,actor,scope,reasoncode,andinvocationbasis.Fullnarrativelogging</tspan><tspan y="-156.43804" x="85.94 91.66728 97.39456 108.84912 114.5764 126.03096 131.75824 137.48552 143.2128 148.94008 154.66736 160.39464 166.12192 171.8492 183.30376 189.03104 194.75832 200.4856 206.21288 217.66744 223.39472 234.84928 240.57656 246.30384 252.03112 257.7584 263.48567 269.21293 274.9402 280.66746 292.12199 297.84925 303.5765 309.30378 315.03105 320.7583 326.48558 332.21284 337.9401 349.39463 355.1219 366.57643 372.30369 378.03096 383.7582 395.21275 400.94 406.66728 412.39454 418.1218 423.84907 429.57633">maybecompletedlateraspermittedelsewhereinthisManual.</tspan></text>
<text xml:space="preserve" transform="matrix(1 0 -0 1 0 792)" font-size="10.9091" font-family="LMRoman10"><tspan y="-134.12104" x="72">&#x2022;</tspan></text>
<text xml:space="preserve" transform="matrix(1 0 -0 1 0 792)" font-size="10.9091" font-family="LMMono10"><tspan y="-134.12104" x="85.658199 97.112758 102.840038 108.567317 114.29459 120.02187 131.47643 137.2037 142.93099 148.65827 154.38555 160.11283 165.8401 171.56739 177.29467 188.74922 194.4765 200.20378 211.65834 217.38562 223.1129 228.84018 240.29474 246.02202 251.7493 257.47657 268.9311 274.65837 280.38563 286.11289 291.84016 297.5674 303.29469 309.02195 314.7492 326.20375 337.65827 343.38554 349.1128 354.84007 360.56733 366.2946 372.02186 377.7491 383.47639 389.20365 394.9309 406.38545 412.1127 417.83998 423.56724 429.2945 435.02177 440.74903 446.4763 452.20356 463.65809 469.38536 475.1126 480.83988 486.56715 492.2944 498.02168 503.74894 515.2035 520.9308 526.6581 532.3854 543.83999 549.56729 555.29458">Avalidemergencylogstubmustreferenceapre-definedemergencycategorycodeand</tspan><tspan y="-120.57204" x="85.94 91.66728 97.39456 103.12184 108.84912 114.5764 120.30368 126.03096 137.48552 143.2128 148.94008 154.66736 160.39464 166.12192 171.8492 177.57648 189.03104 194.75832 200.4856 206.21288 211.94016 217.66744 223.39472 229.122 246.30384 252.03112 257.7584 263.48567 269.21293 274.9402 280.66746 286.3947 292.12199 297.84925 303.5765 309.30378 315.03105 320.7583 332.21284 337.9401 343.66737 349.39463 355.1219 366.57643 372.30369 378.03096 389.48548 395.21275 400.94 406.66728 412.39454 418.1218 423.84907 429.57633">affectedregistryobjects.Free-text-onlystubsareinvalid.</tspan></text>
<text xml:space="preserve" transform="matrix(1 0 -0 1 0 792)" font-size="10.9091" font-family="LMRoman10"><tspan y="-42.112039" x="303.273">6</tspan></text>
</svg>
