<svg xmlns="http://www.w3.org/2000/svg" xmlns:xlink="http://www.w3.org/1999/xlink" xmlns:inkscape="http://www.inkscape.org/namespaces/inkscape" version="1.1" width="612" height="792" viewBox="0 0 612 792">
<text xml:space="preserve" transform="matrix(1 0 -0 1 0 792)" font-size="17.2154" font-family="LMRoman17"><tspan y="-665.305" x="248.826 260.7563 267.74574 284.44465 296.61595 304.5178 312.41966 320.3215 327.31095 333.40519 337.70906 345.6109 354.40797">NewDoggerland</tspan><tspan y="-643.38699" x="230.09401 242.59239 250.04666 257.94853 264.93797 271.0322 279.82926 287.7311 296.52818 303.5176 315.70613 324.50318 331.0278 339.82487 346.8143 355.61137 364.40843 368.71229 375.70173">GovernanceSchedules</tspan><tspan y="-621.469" x="147.81801 156.61508 163.15694 171.95401 178.94347 187.74054 196.53762 200.84146 213.02997 229.7117 240.1098 252.2811 259.27055 263.5744 270.56385 278.4657 286.36756 292.4618 296.76567 304.6675 318.66365 326.5655 335.36256 349.35865 361.2889 370.08598 378.88304 384.97727 392.43153 399.88578 407.78764 417.29054 431.9236 439.82548 445.9197 452.01396 456.3178">ScheduleC-DelegationandApprovalMatrix</tspan></text>
<text xml:space="preserve" transform="matrix(1 0 -0 1 0 792)" font-size="14.3462" font-family="LMRoman12" font-weight="bold"><tspan y="-532.403" x="72.00001 83.66347 91.74038 100.262027 106.54566 113.905269 122.42691 128.71054">Contents</tspan></text>
<text xml:space="preserve" transform="matrix(1 0 -0 1 0 792)" font-size="10.9091" font-family="LMRoman10" font-weight="bold"><tspan y="-503.919" x="72.00001 88.36366 96.93822 103.909137 109.08005 116.400058 122.67279 127.62552">1Purpose</tspan></text>
<text xml:space="preserve" transform="matrix(1 0 -0 1 0 792)" font-size="10.9091" font-family="LMRoman10" font-weight="bold"><tspan y="-503.919" x="533.727">2</tspan></text>
<text xml:space="preserve" transform="matrix(1 0 -0 1 0 792)" font-size="10.9091" font-family="LMRoman10" font-weight="bold"><tspan y="-479.461" x="72 88.363658 98.22548 103.97457 110.94549 116.69458 121.86549 127.963687 135.62187 144.19643 149.36734 152.84734 159.81826 165.3928 168.8728 175.84372 179.33463 185.08373">2GeneralPrinciples</tspan></text>
<text xml:space="preserve" transform="matrix(1 0 -0 1 0 792)" font-size="10.9091" font-family="LMRoman10" font-weight="bold"><tspan y="-479.461" x="533.71676">2</tspan></text>
<text xml:space="preserve" transform="matrix(1 0 -0 1 0 792)" font-size="10.9091" font-family="LMRoman10" font-weight="bold"><tspan y="-455.003" x="72 87.88365 97.36366 104.33458 111.3055 116.47641 122.400058 128.3237 134.42189 142.09098 151.50553 157.77826 161.25826 167.00736">3ApprovalRoles</tspan></text>
<text xml:space="preserve" transform="matrix(1 0 -0 1 0 792)" font-size="10.9091" font-family="LMRoman10" font-weight="bold"><tspan y="-455.003" x="533.727">2</tspan></text>
<text xml:space="preserve" transform="matrix(1 0 -0 1 0 792)" font-size="10.9091" font-family="LMRoman10" font-weight="bold"><tspan y="-430.54499" x="72 88.363658 96.26184 99.741847 106.71276 112.81095 119.78187 125.356418 128.83641 134.9346 142.59279 150.85099 157.4619 164.7819 170.531 177.50193 184.47284 187.95284 192.82921 199.80013 204.97104 214.90924 224.38925 231.36017 238.33109 243.502 249.42565 255.34928 261.44746 264.92747">4FinancialExpenditureApprovals</tspan></text>
<text xml:space="preserve" transform="matrix(1 0 -0 1 0 792)" font-size="10.9091" font-family="LMRoman10" font-weight="bold"><tspan y="-430.54499" x="533.72769">2</tspan></text>
<text xml:space="preserve" transform="matrix(1 0 -0 1 0 792)" font-size="10.9091" font-family="LMRoman10"><tspan y="-416.995" x="88.364 93.81855 96.85128 113.45493 121.48403 126.93858 133.00405 137.24768 140.28041 146.34587 151.20043 157.86589 165.58954 171.66591 177.73137 183.18592 188.04047 192.2841 197.12775 206.83686 214.26595 220.02596 226.39687 231.25142 237.31688 243.38234 246.41507 250.6587 256.72416 261.00053 265.85508">4.1Routine,BudgetedExpenditures</tspan></text>
<text xml:space="preserve" transform="matrix(1 0 -0 1 0 792)" font-size="10.9091" font-family="LMRoman10"><tspan y="-416.995" x="278.45509 286.94236 295.42964 303.9169 312.39326 320.88053 329.3678 337.85508 346.34236 354.82963 363.3169 371.80418 380.29145 388.77873 397.266 405.75328 414.24055 422.7278 431.2151 439.70237 448.18965 456.6769 465.16419 473.65147 482.13874 490.626 499.11329 507.60057 516.0878">.............................</tspan></text>
<text xml:space="preserve" transform="matrix(1 0 -0 1 0 792)" font-size="10.9091" font-family="LMRoman10"><tspan y="-416.995" x="534.6987">2</tspan></text>
<text xml:space="preserve" transform="matrix(1 0 -0 1 0 792)" font-size="10.9091" font-family="LMRoman10"><tspan y="-403.44599" x="88.364 93.81855 96.85128 113.45493 121.63676 127.39676 133.46222 139.53859 145.60405 151.0586 155.91315 160.15679 165.00043 174.70954 180.16408 188.07318 195.94956 202.01502 210.79685 216.8623 219.89504 225.34958 229.59322 232.62595 238.09142 246.5787 254.0078 259.7678 266.1387 270.99327 277.05873 283.12419 286.1569 290.40055 296.466 300.74238 305.59693">4.2UnbudgetedorCumulativeExpenditures</tspan></text>
<text xml:space="preserve" transform="matrix(1 0 -0 1 0 792)" font-size="10.9091" font-family="LMRoman10"><tspan y="-403.44599" x="320.89149 329.37876 337.86604 346.3533 354.84059 363.32786 371.81513 380.3024 388.78968 397.27696 405.76423 414.24058 422.72785 431.21513 439.7024 448.18968 456.67695 465.1642 473.6515 482.13877 490.62605 499.1133 507.6006 516.0878">........................</tspan></text>
<text xml:space="preserve" transform="matrix(1 0 -0 1 0 792)" font-size="10.9091" font-family="LMRoman10"><tspan y="-403.44599" x="534.70968">3</tspan></text>
<text xml:space="preserve" transform="matrix(1 0 -0 1 0 792)" font-size="10.9091" font-family="LMRoman10" font-weight="bold"><tspan y="-378.98799" x="72 88.363658 97.429119 103.70185 110.32368 115.20004 120.37096 126.46915 132.0437 136.92008 143.89099 149.98918 157.64737 166.71283 172.98557 183.43648 193.88739 197.36739 202.24376 212.69467 218.44377 225.0765 229.95288">5ContractualCommitments</tspan></text>
<text xml:space="preserve" transform="matrix(1 0 -0 1 0 792)" font-size="10.9091" font-family="LMRoman10" font-weight="bold"><tspan y="-378.98799" x="533.7168">3</tspan></text>
<text xml:space="preserve" transform="matrix(1 0 -0 1 0 792)" font-size="10.9091" font-family="LMRoman10" font-weight="bold"><tspan y="-354.52998" x="72 88.363658 96.58912 102.33821 107.509128 112.46185 118.73459 125.705509 132.67642 138.42552 146.08371 152.1819 159.15282 170.31284 179.3783 185.65103 196.10195 203.42195 209.17105 216.14197 221.0947 227.19289 232.06926 235.54926 241.82199 252.9711 262.10203 267.67658 272.55296 276.03297 282.3057 289.2766">6PersonnelandCompensationActions</tspan></text>
<text xml:space="preserve" transform="matrix(1 0 -0 1 0 792)" font-size="10.9091" font-family="LMRoman10" font-weight="bold"><tspan y="-354.52998" x="533.7277">3</tspan></text>
<text xml:space="preserve" transform="matrix(1 0 -0 1 0 792)" font-size="10.9091" font-family="LMRoman10" font-weight="bold"><tspan y="-330.07099" x="72 87.88365 97.36366 102.31639 107.26912 113.01821 122.08367 131.7055 135.1855 140.13823 147.45824 153.73097 158.6837 162.1637 167.04007 170.52007 176.7928 187.94191 194.0401 201.01102 212.16013 220.40741 227.37833 232.95288 239.9238 250.02562 256.99653 262.16743 268.2656 275.2365 280.81108">7AssetDispositionandEncumbrance</tspan></text>
<text xml:space="preserve" transform="matrix(1 0 -0 1 0 792)" font-size="10.9091" font-family="LMRoman10" font-weight="bold"><tspan y="-330.07099" x="533.7385">3</tspan></text>
<text xml:space="preserve" transform="matrix(1 0 -0 1 0 792)" font-size="10.9091" font-family="LMRoman10" font-weight="bold"><tspan y="-305.61299" x="72 88.363658 96.61093 107.06185 112.81094 117.98186 124.25459 130.0037 136.97461 142.54917 153.34918 162.4801 168.05466 172.93103 176.41103 182.68376 189.65468">8EmergencyActions</tspan></text>
<text xml:space="preserve" transform="matrix(1 0 -0 1 0 792)" font-size="10.9091" font-family="LMRoman10" font-weight="bold"><tspan y="-305.61299" x="533.7277">3</tspan></text>
<text xml:space="preserve" transform="matrix(1 0 -0 1 0 792)" font-size="10.9091" font-family="LMRoman10" font-weight="bold"><tspan y="-281.15498" x="72 88.363658 97.2873 103.38549 110.35641 116.97823 120.45824 127.42915 137.88008 143.97827 150.94919 162.10919 171.24011 176.81467 182.38922 188.66196 195.63288 202.2547 211.30927 220.44019 226.01474 231.5893 237.3384 242.29113">9BankingandAccountAccess</tspan></text>
<text xml:space="preserve" transform="matrix(1 0 -0 1 0 792)" font-size="10.9091" font-family="LMRoman10" font-weight="bold"><tspan y="-281.15498" x="533.7277">4</tspan></text>
<text xml:space="preserve" transform="matrix(1 0 -0 1 0 792)" font-size="10.9091" font-family="LMRoman10" font-weight="bold"><tspan y="-256.69697" x="72 78.272739 88.363658 96.93821 102.10912 108.38186 115.352779 118.83278 125.803699 129.28369 134.16007 139.90917 151.05828 160.6801 166.4292 169.9092 175.6583 181.93103 188.02922 192.9056 196.3965 202.66924 209.64015">10ProhibitedDelegations</tspan></text>
<text xml:space="preserve" transform="matrix(1 0 -0 1 0 792)" font-size="10.9091" font-family="LMRoman10" font-weight="bold"><tspan y="-256.69697" x="533.7168">4</tspan></text>
<text xml:space="preserve" transform="matrix(1 0 -0 1 0 792)" font-size="10.9091" font-family="LMRoman10" font-weight="bold"><tspan y="-232.23796" x="72 78.272739 88.363658 93.120029 99.74185 104.61822 110.36731 115.53822 122.50914 127.68005 133.42916 138.30553 141.78553 148.05826 157.98555 167.05101 174.02193 177.51284">11InterpretiveRule</tspan></text>
<text xml:space="preserve" transform="matrix(1 0 -0 1 0 792)" font-size="10.9091" font-family="LMRoman10" font-weight="bold"><tspan y="-232.23796" x="533.72769">4</tspan></text>
<text xml:space="preserve" transform="matrix(1 0 -0 1 0 792)" font-size="10.9091" font-family="LMRoman10" font-weight="bold"><tspan y="-207.77997" x="72 78.272739 87.88366 97.36367 107.81459 113.56368 120.5346 127.505519 137.95644 143.70554 150.32736 159.39282 165.49102 172.46193 183.61104 193.02559 198.77469 205.39652 208.87651 214.62561">12AmendmentandReview</tspan></text>
<text xml:space="preserve" transform="matrix(1 0 -0 1 0 792)" font-size="10.9091" font-family="LMRoman10" font-weight="bold"><tspan y="-207.77997" x="533.7168">4</tspan></text>
<text xml:space="preserve" transform="matrix(1 0 -0 1 0 792)" font-size="10.9091" font-family="LMRoman10"><tspan y="-42.11197" x="303.273">1</tspan></text>
</svg>
