<svg xmlns="http://www.w3.org/2000/svg" xmlns:xlink="http://www.w3.org/1999/xlink" xmlns:inkscape="http://www.inkscape.org/namespaces/inkscape" version="1.1" width="612" height="792" viewBox="0 0 612 792">
<text xml:space="preserve" transform="matrix(1 0 -0 1 0 792)" font-size="10.9091" font-family="LMRoman10"><tspan y="-709.041" x="72">&#x2022;</tspan></text>
<text xml:space="preserve" transform="matrix(.9899495 0 -0 1.0101526 0 792)" font-size="10.799458" font-family="LMRoman10"><tspan y="-701.91476" x="86.81251 92.212238 98.216739 102.417728 108.422229 113.82195 118.05534 121.057598 125.86335 134.24375 139.64347 143.89846 148.15343 152.9592 160.724 166.7393 169.74156 173.99654 180.30342 185.70316 189.95815 192.96039 197.16138 200.16364 205.56336 211.56786 218.16632 221.16858 226.5683 232.5728 242.14113 248.15644 252.4114 260.781 265.28437 271.28886 276.68858 282.69309 288.0928 292.89857 297.15354 303.752 310.0589 315.45866 318.46089 321.46315 326.2689 335.54563 344.5416 350.2437 356.2482 359.25047 362.25273 365.25495 370.0607 375.46043 379.6614 382.66365 388.0634 394.06788 400.66636 406.0661 413.8633 419.26304 424.96516 434.24189 439.6416 444.44737 448.64833 451.65058 457.0503 466.62944 472.63395 476.8673 482.26704 488.27156 491.27378 497.2783 500.28056 504.4815 509.28727 518.8556 524.87088 530.87539 536.8799 541.6856">authorizeassetdisposition,landusechanges,policymodification,oranyactionprohibitedunder</tspan></text>
<text xml:space="preserve" transform="matrix(1 0 -0 1 0 792)" font-size="10.9091" font-family="LMRoman10"><tspan y="-695.492" x="85.94 93.816379 99.27093 105.03093 109.27457 112.3073 118.0673 124.14367 127.1764 131.1146 140.50734 148.38372 154.44918 158.69281 164.75827 170.21282 174.48918 177.52191 181.47101">ContinuityAuthority</tspan></text>
<text xml:space="preserve" transform="matrix(1.0099504 0 -0 .99014756 0 792)" font-size="11.017651" font-family="LMRoman10"><tspan y="-675.8498" x="70.89061 79.15385 82.21676 90.30371 94.28109 100.10943 104.395298 109.29815 113.617069 116.67997 130.88173 140.98493 144.04782 148.33368 151.39659 156.90543 162.41425 166.7001 169.76302 175.27185 186.4217 191.93053 198.05635 202.34221 208.46802 213.97686 218.29576 221.35868 226.26154 231.77037 236.05623 239.11913 244.62796 250.75377 260.11878 265.6276 271.75343 282.90327 287.2222 292.12504 298.25086 303.1537 310.79997 316.30879 319.3717 328.7367 337.6169 343.7427 348.08369 357.3936 363.82789 373.7548 376.8177 382.9435 387.84635 390.89823 397.03507 403.1609 408.06373 419.2136 422.2765 433.42637 437.71223 443.83805 453.76493 459.89076 466.01655 472.14237 475.20527 478.2682 488.19508 494.3209 497.3838 501.72477 506.6276 509.69053 515.1994 519.54037 525.66616 529.98507">AllInterimMitigationauthorizationsandrenewalsmustbeincludedinthepublicdisclosure</tspan></text>
<text xml:space="preserve" transform="matrix(1 0 -0 1 0 792)" font-size="10.9091" font-family="LMRoman10"><tspan y="-655.641" x="72 81.08728 86.54183 90.78547 95.640018 99.91638 102.94911 108.40366 111.43639 119.36731 122.7055 128.16005 136.08007 140.3237 146.38916 154.87645 162.90555 167.7601 173.82556 179.2801 182.31284 186.5892">materialsfortheRepair.</tspan><tspan y="-635.318" x="72 82.00365 88.06911 92.312747 97.767299 103.832759 106.865489 109.89822 112.93095 116.869129 122.62913 130.5164 138.69823 144.76369 149.31279 155.37825 160.8328 166.89826 172.3528 177.20735 182.6619 188.72736 191.76009">Mutability:Unchangeable</tspan></text>
<text xml:space="preserve" transform="matrix(1 0 -0 1 0 792)" font-size="11.9552" font-family="LMRoman12" font-weight="bold"><tspan y="-606.108" x="72 78.73078 85.46156 89.203548">19.6</tspan></text>
<text xml:space="preserve" transform="matrix(1 0 -0 1 0 792)" font-size="11.9552" font-family="LMRoman12" font-weight="bold"><tspan y="-606.108" x="106.02451 116.329898 122.46291 126.204898 132.37378 143.95838 150.49787 157.96987 169.92507 180.23046 183.97243 189.28054 195.25814 199.0001 205.73088 211.03899 218.51099 224.01038">DelayandDisclosure</tspan></text>
<text xml:space="preserve" transform="matrix(1 0 -0 1 0 792)" font-size="10.9091" font-family="LMRoman10"><tspan y="-585.516" x="71.596 79.777828 85.843288 91.908748 96.18511 101.334209 106.79966 111.643299 121.352397 130.43967 136.19966 142.26512 145.29785 148.33058 151.36331 156.21787 161.67241 165.91605 168.94878 174.40332 180.46878 188.41062 197.20336 203.26882 207.567 215.45429 221.81429 230.31249 234.61067 240.67613 247.04705 250.38523 255.23978 260.09434 267.98164 272.22529 281.3235 290.4217 299.50898 304.96354 311.029 317.09446 322.549 326.79267 332.24723 336.5236 345.92726 351.9927 358.05818 364.12364 367.15635 370.18907 378.68727 384.75273 387.78544 392.08363 396.93818 399.9709 405.42546 409.72364 415.7891 420.06547 428.56367 434.01823 440.08369 449.7928 455.85826 460.7128 463.7455 468.89463 478.29829 484.6692 489.52375 493.8001 496.83283 502.59284 512.30197 517.7565 524.7383 530.8037 536.25827">Approvedmodificationsmustbesubjecttoamandatorypublicdisclosureanddelayperiodofnot</tspan><tspan y="-571.966" x="72 75.03273 79.88728 84.18547 92.11639 96.36002 102.42548 107.880039 117.589138 121.88732 124.92005 130.68006 134.61824 144.01099 150.07645 155.23645 160.99646 168.92739 174.99285 179.26921 182.30194 187.75649 195.66559 199.90923 209.00742 213.86197 217.04198 220.22197 225.07653 229.92017 234.1638">lessthansixtydayspriortoeffect.</tspan></text>
<text xml:space="preserve" transform="matrix(.9899495 0 -0 1.0101526 0 792)" font-size="10.799458" font-family="LMRoman10"><tspan y="-546.0987" x="72.33399 80.131198 86.1357 94.224498 100.229 103.23125 107.48623 112.291988 115.294239 120.69397 124.94895 130.95345 135.18685 143.28644 151.9692 157.9737 162.22867 169.7235 172.72574 178.73024 183.53601 186.53826 192.54276 198.54726 206.63607 210.83705 216.84156 224.93036 228.23499 234.23949 237.24175 243.53783 247.73882 252.53377 258.23588 265.7307 271.13044 277.7181 281.91908 287.92359 296.01234 302.01686 306.2502 311.64994 317.96763 323.36735 327.62236 332.42808 341.7156 346.21897 352.22349 357.6232 363.6277 369.02745 373.83317 380.19407 384.39506 390.39955 398.4883 402.72169 407.52745 412.3332 417.7329 421.96629 427.9708 432.77653 442.0749 447.4638 452.86357 457.0645 461.87028 466.12525 472.49693 477.89668 483.90116 493.1887 497.38966 503.39418 511.48295 519.28018 523.51358 526.51577 530.71676 534.9177 539.72348">Thedisclosuremustincludethefulltextoftheproposedchange,therecordedvotes,andthewritten</tspan></text>
<text xml:space="preserve" transform="matrix(1 0 -0 1 0 792)" font-size="10.9091" font-family="LMRoman10"><tspan y="-538.093" x="72 75.03273 78.06546 84.13092 90.19638 93.22911 99.29457 104.74912 109.04731">findings.</tspan><tspan y="-517.77" x="72 82.00365 88.06911 92.312747 97.767299 103.832759 106.865489 109.89822 112.93095 116.869129 122.62913 130.5164 138.69823 144.76369 149.31279 155.37825 160.8328 166.89826 172.3528 177.20735 182.6619 188.72736 191.76009">Mutability:Unchangeable</tspan></text>
<text xml:space="preserve" transform="matrix(1 0 -0 1 0 792)" font-size="11.9552" font-family="LMRoman12" font-weight="bold"><tspan y="-488.56105" x="72 78.73078 85.46156 89.203548">19.7</tspan></text>
<text xml:space="preserve" transform="matrix(1 0 -0 1 0 792)" font-size="11.9552" font-family="LMRoman12" font-weight="bold"><tspan y="-488.56105" x="106.02451 114.835498 121.56628 126.886348 132.12273 136.60593 146.63634 152.76935 160.24135 166.78084 170.52281 180.5054 190.52387 196.66883 203.77022 207.51219 213.6452">Post-RepairReview</tspan></text>
<text xml:space="preserve" transform="matrix(.9899495 0 -0 1.0101526 0 792)" font-size="10.799458" font-family="LMRoman10"><tspan y="-463.26463" x="72.169338 83.27118 86.27342 90.47442 96.47891 99.48116 109.02789 112.915699 120.410518 125.21628 128.21852 133.61826 141.95543 150.95137 156.3511 162.05323 166.25421 172.25872 180.0451 185.44484 192.2917 197.69142 203.39354 212.62708 216.86046 221.66623 227.67073 233.07045 236.07271 243.84832 248.0493 253.44904 259.15116 262.1534 268.1579 277.09986 281.9056 285.05366 288.2017 292.99665 297.8024 302.00337 308.58024 312.78123 318.7857 327.1229 335.60047 340.6978 346.08677 350.8925 355.12586 361.13038 364.13264 370.13713 379.07908 386.7251 392.42723 398.4317 407.67607 416.36964 422.3741 426.62913 434.3615 439.16728 444.567 453.56297 462.55894 465.56117 469.81617 474.07115 477.0734 482.4731 492.01985 497.41957 506.96629 509.96855 515.973 521.97756 526.78329 533.09017 537.8959 543.9004">Withintwelvemonthsofanyrepairtakingeffect,theGoverningBodymustcommissionanindepen-</tspan></text>
<text xml:space="preserve" transform="matrix(1 0 -0 1 0 792)" font-size="10.9091" font-family="LMRoman10"><tspan y="-454.418" x="72 78.06546 82.92001 88.680019 96.56729 100.84366 105.69821 111.45821 114.480037 119.33458 130.8546 136.30915 140.60733 144.90552 149.76007 154.05826 158.35645 161.38918 167.45464 172.90918">dentreviewassessing:</tspan></text>
<text xml:space="preserve" transform="matrix(1 0 -0 1 0 792)" font-size="10.9091" font-family="LMRoman10"><tspan y="-428.117" x="72">&#x2022;</tspan></text>
<text xml:space="preserve" transform="matrix(1 0 -0 1 0 792)" font-size="10.9091" font-family="LMRoman10"><tspan y="-428.117" x="85.5491 93.425479 99.49094 104.34549 108.58913 114.65459 119.50914 127.418239 131.66188 137.72734 146.22554 150.5019 155.35646 161.42192 166.87647 169.9092 177.8183 182.11649 188.18195 193.0365 197.89105 202.7456 207.0438 211.34198 214.68016 220.74562 223.77835 226.81108 236.20383 241.05838 244.09111 247.12384 256.21113 259.24385 265.3093 270.76387 275.0075 279.86207 289.57118 293.81483 299.88029 308.36756 311.40028 317.46574 322.32029 328.0803 332.32395 335.35667 338.38938 341.42213 346.27668 355.97486 362.0512 367.50578 371.77125">whethertherepairsuccessfullyeliminatedtheidentifiedharm</tspan></text>
<text xml:space="preserve" transform="matrix(1 0 -0 1 0 792)" font-size="10.9091" font-family="LMRoman10"><tspan y="-405.801" x="72">&#x2022;</tspan></text>
<text xml:space="preserve" transform="matrix(1 0 -0 1 0 792)" font-size="10.9091" font-family="LMRoman10"><tspan y="-405.801" x="85.5491 93.425479 99.49094 104.34549 108.58913 114.65459 119.50914 127.418239 133.48369 139.54915 142.58188 148.3528 152.59644 157.45099 163.51645 169.58191 174.43647 184.13466 188.98921 194.44376 200.50922 204.8074 209.66196 215.42197 221.48743 226.34198 232.40744 237.262 242.11655 250.04747 255.80747 260.66203 265.51658 271.58204 275.8584 280.13478 284.98933">whetherunintendedconsequencesoccurred</tspan></text>
<text xml:space="preserve" transform="matrix(1 0 -0 1 0 792)" font-size="10.9091" font-family="LMRoman10"><tspan y="-383.484" x="72">&#x2022;</tspan></text>
<text xml:space="preserve" transform="matrix(1 0 -0 1 0 792)" font-size="10.9091" font-family="LMRoman10"><tspan y="-383.484" x="85.5491 93.425479 99.49094 104.34549 108.58913 114.65459 119.50914 127.418239 131.66188 137.72734 146.22554 150.5019 155.35646 161.42192 166.87647 169.9092 177.8183 182.67285 188.1274 197.82559 204.1965 212.68379 218.74925 224.2038 228.48017 232.75653 237.91654 245.48746 250.34201 260.0402 265.49476 273.40385 277.6802 282.53477 287.98933 292.84388 297.12025 301.41844 306.27299">whethertherepaircanbenarrowedorreversed</tspan><tspan y="-357.183" x="71.607 79.483379 85.548839 94.03611 98.31248 103.16702 108.927028 111.959758 116.8143 128.33432 137.11615 143.18161 147.4798 155.35617 161.72708 170.21437 176.27983 182.34529 188.41075 191.44348 194.47621 198.7744 204.83986 209.69441 219.40352 222.43625 232.13445 235.47263 241.53809 244.57082 247.60355">Thereviewmustbepublishedinfull.</tspan><tspan y="-336.859" x="72 82.00365 88.06911 92.312747 97.767299 103.832759 106.865489 109.89822 112.93095 116.869129 122.62913 130.5164 138.69823 144.76369 149.31279 155.37825 160.8328 166.89826 172.3528 177.20735 182.6619 188.72736 191.76009">Mutability:Unchangeable</tspan></text>
<text xml:space="preserve" transform="matrix(1 0 -0 1 0 792)" font-size="10.9091" font-family="LMRoman10"><tspan y="-42.112" x="300.54499 305.99955">53</tspan></text>
</svg>
