<svg xmlns="http://www.w3.org/2000/svg" xmlns:xlink="http://www.w3.org/1999/xlink" xmlns:inkscape="http://www.inkscape.org/namespaces/inkscape" version="1.1" width="612" height="792" viewBox="0 0 612 792">
<text xml:space="preserve" transform="matrix(1 0 -0 1 0 792)" font-size="11.9552" font-family="LMRoman12" font-weight="bold"><tspan y="-709.041" x="72 78.73078 82.47276">5.3</tspan></text>
<text xml:space="preserve" transform="matrix(1 0 -0 1 0 792)" font-size="11.9552" font-family="LMRoman12" font-weight="bold"><tspan y="-709.041" x="99.29373 109.81431 116.54509 124.01709 128.50029 135.97229 142.70307 153.91704 157.65901 165.13101 171.6705 179.1425 185.1201 195.73632 202.2758 209.7478 221.703 228.2425 235.33193 240.5683 244.31027 248.79347 254.77108 261.31059 268.7826 274.01899 281.49098 286.99037 297.6066 301.34858 308.44996 313.68635 319.81938 326.92079">Non-dominanceandanti-captureintent</tspan></text>
<text xml:space="preserve" transform="matrix(.9944848 0 -0 1.0055457 0 792)" font-size="10.848934" font-family="LMRoman10"><tspan y="-684.6511" x="72.00413 79.83706 85.86907 94.36378 100.39579 105.82025 110.07303 114.29327 120.32528 125.15305 133.08362 137.91139 142.73917 148.16364 152.43811 158.16634 162.44081 166.66104 171.48882 184.19292 187.20893 195.15035 198.16635 203.89458 208.11483 212.9426 218.9746 225.00659 229.83437 239.53331 243.75354 252.85579 257.10859 261.93635 270.97349 276.39799 279.41398 289.11296 293.38743 297.60768 301.86048 304.87648 309.70423 313.92448 316.94047 326.33567 330.61015 336.64216 342.97795 348.40245 352.6552 358.68724 361.70326 367.74613 373.1706 377.39085 385.88557 390.1058 399.19725 403.41746 409.44947 417.9442 426.98139 429.99739 434.27186 438.54637 441.56236 446.98683 456.69664 461.5244 466.94889 471.2017 479.6964 485.12089 491.1529 500.85188 509.58525 515.61727 519.8918 527.7898 533.8218 539.2462">Thepartnerecosystemisintendedtoremainstrictlysubordinatetothemissioncoreandmustnot</tspan></text>
<text xml:space="preserve" transform="matrix(.9964939 0 -0 1.0035185 0 792)" font-size="10.870851" font-family="LMRoman10"><tspan y="-672.5327" x="72.25333 78.601909 83.43943 88.276958 93.71238 102.76779 111.247058 116.68248 123.03106 127.86858 132.12995 137.56537 141.79413 144.81624 150.25165 156.29584 161.73126 164.75337 167.77547 177.15702 183.2012 188.63661 197.69203 200.71414 206.75832 212.19374 217.93355 222.16231 230.05455 233.97893 241.84943 250.60045 256.64466 260.92778 268.79826 274.84245 280.2779 288.15925 292.9859 297.24726 302.08479 307.52024 311.74897 320.2391 325.67454 330.8056 336.24104 341.07856 345.33995 351.38414 356.81959 362.86378 367.7013 376.18055 381.01808 386.4535 392.4977 396.72645 402.77067 407.032 415.5113 419.77265 422.79475 427.07786 432.8177 439.4815 442.50364 448.54783 451.8743 457.30976 461.5711 470.62657 476.06199 482.72584 488.16127 494.20549 498.4342 504.47843 509.91386 514.17526 517.1973 521.1217 525.95919 532.623 538.0584">becomeoperationallydominant.Itmustnotcreategovernancecapturerisk,informalauthority,or</tspan></text>
<text xml:space="preserve" transform="matrix(1 0 -0 1 0 792)" font-size="10.9091" font-family="LMRoman10"><tspan y="-661.35" x="72 81.08728 84.12001 88.4182 92.716388 95.749118 101.20367 110.901859 113.934589 119.7055 125.16004 130.01459 134.29096 138.58914 141.62187 147.07642 153.14188 161.01825 168.1528 173.60735 177.88372 182.12735 188.19281 193.04737 197.32373 205.25466 210.1092 215.86922 218.90195 223.20014 231.0765 235.32015 244.41834 249.56743 252.90561 257.76017 262.60383 272.31294 275.34565 281.10566 285.3493 294.43659 298.68025 304.7457 313.2439 317.54209 323.3021 327.60029 331.84394 336.6985 345.78578 348.81849 357.6003 363.66578 369.12034 377.00764 381.25129 390.33857 396.40403 401.25859 404.2913 407.32405 413.3895 421.87678 426.12043 432.18589 440.68409 444.98228 450.74229 455.04048 459.28413 464.13868 473.22596">missioninversion.Partnersexistto&#x201c;feedintothesystem,&#x201d;nottodefinethesystem.</tspan></text>
<text xml:space="preserve" transform="matrix(1 0 -0 1 0 792)" font-size="11.9552" font-family="LMRoman12" font-weight="bold"><tspan y="-632.141" x="72 78.73078 82.47276">5.4</tspan></text>
<text xml:space="preserve" transform="matrix(1 0 -0 1 0 792)" font-size="11.9552" font-family="LMRoman12" font-weight="bold"><tspan y="-632.141" x="99.29373 109.013309 112.75529 119.48607 124.794178 130.92719 138.39919 142.88239 146.62436 153.72574 160.45652 172.41172 176.15369 183.62569 187.73828 193.23767 199.77716 205.08527 210.32164 215.82103 223.29303 229.27063 234.507 241.979 247.4784 258.0946 263.331 272.67997 279.21946 284.52757 289.76396 295.89698 300.3802 305.61659 312.34736 316.83058 324.30256 330.43559 336.97508 342.21147 351.93107 358.47056 368.26188 373.56999 378.80638 384.9394 394.28837 400.82786 406.32725 413.79927 419.10737 426.57936 430.32133 437.79335 446.01853 451.99613 458.7269 466.1989 473.6709 477.41288 482.64927 486.39125 493.122 500.594 507.13349">Closed-loopinfrastructure(waste-to-heat)asstewardship,conditional</tspan></text>
<text xml:space="preserve" transform="matrix(.9899495 0 -0 1.0101526 0 792)" font-size="10.799458" font-family="LMRoman10"><tspan y="-605.40158" x="72.169338 83.27118 89.27567 94.081439 98.31483 106.76 109.76225 114.568019 119.96774 125.36747 128.36972 131.37197 140.7135 146.11324 152.11774 161.76166 166.56742 170.7684 176.7729 179.77516 184.58092 189.98065 192.9829 195.98514 205.32668 208.63132 213.42627 218.826 223.0918 226.09404 232.09854 235.1008 239.89575 246.54822 254.6478 259.45356 270.8902 279.141 284.5407 289.94047 295.34019 300.14595 304.3793 307.38157 312.78129 318.78578 328.4297 331.43196 337.13407 341.33506 346.14079 352.1453 358.14979 366.0442 370.24519 379.28434 385.28883 391.29335 395.5267 399.78169 405.78617 414.23136 419.63108 425.6356 429.2318 433.4868 436.48905 440.69 449.1352 455.13969 459.37306 465.07518 469.88093 474.68669 478.94166 483.19664 486.19889 492.20338 501.24253 506.64228 513.5863 519.28848 525.29299 534.2889 539.6886">Wherelegallyandethicallyfeasible,NewDoggerlandintendstopursueon-siteprocessingofhuman</tspan></text>
<text xml:space="preserve" transform="matrix(1.0099504 0 -0 .99014756 0 792)" font-size="11.017651" font-family="LMRoman10"><tspan y="-603.9494" x="71.290637 76.79946 82.92527 92.75302 98.26185 104.387668 107.45057 116.62827 122.13711 128.90195 136.5482 142.05702 146.409 150.69487 159.28865 167.2434 170.3063 174.59217 184.4199 190.54573 195.44858 200.95742 208.9452 213.26413 218.16698 223.06984 228.2812 233.79003 238.69287 243.0118 252.53104 256.81694 266.02769 270.3466 275.24946 281.37525 287.50108 292.4039 301.0087 305.29457 311.42039 320.01414 324.91697 331.0428 335.94566 340.26457 345.77339 355.29264 358.66404 364.47035 369.97917 374.265 380.40187 384.70979 387.77268 393.601 401.5888 407.09764 414.17097 419.6908 424.59364 430.10246 434.4214 438.09028 442.4092 447.918 454.04383 460.16966 469.99739 474.33836 480.15568 484.49665 488.7825 493.68537 502.86305 507.20399 515.35708 523.6203 529.44869">andanimalwastewithheatrecoverytoreducetheenergyfootprintofyear-roundsystems.Any</tspan><tspan y="-590.2645" x="71.290637 75.631587 81.7574 86.36277 96.16848 100.50944 106.32676 110.66771 114.95358 119.85643 132.72505 141.60529 147.7311 152.07207 160.03781 166.46109 175.05487 179.95774 185.46657 194.64427 200.77008 203.833 206.89589 212.40473 218.23307 222.51894 229.28377 232.34668 238.47249 244.5983 249.50116 255.92447 260.8273 266.95314 273.07893 277.98179 283.81013 288.09599 291.15888 300.6671 304.98606 309.87788 315.6952 318.75813 323.66096 331.3182 336.82704 342.95286 346.01576 350.9186 357.68345 363.82029 369.3291 375.4549 379.12379 385.2496 390.75843 395.07734 404.25505 407.62644 413.75224 416.81517 423.58 429.7058 432.7687 438.27754 444.40333 447.46626 451.45463 457.27198 460.94084 467.06666 471.3856 476.28843 480.6294 485.53224 489.85118 495.6685 498.7314 504.8572 510.36607 517.1309 522.6398 528.76559">suchsystemmustbecompliant,independentlyreviewable,non-harmful,dignity-preserving,and</tspan></text>
<text xml:space="preserve" transform="matrix(1 0 -0 1 0 792)" font-size="10.9091" font-family="LMRoman10"><tspan y="-570.9" x="72 77.45455 83.82547 88.68002 92.95639 98.41094 102.65458 105.68731 111.14186 117.20732 122.66187 125.6946 128.72733 138.12007 141.1528 146.00736 151.4619 154.49463 160.56009 163.59282 168.44738">operationallylegible.</tspan></text>
<text xml:space="preserve" transform="matrix(1 0 -0 1 0 792)" font-size="14.3462" font-family="LMRoman12" font-weight="bold"><tspan y="-536.53207" x="72">6</tspan></text>
<text xml:space="preserve" transform="matrix(.9964938 0 -0 1.0035185 0 792)" font-size="14.2959" font-family="LMRoman12" font-weight="bold"><tspan y="-534.6509" x="92.49832 104.120899 113.05583 117.53046 123.79205 132.727 139.30312 147.12297 157.00144 168.43816 175.77196 183.59181 190.73976 198.78836 213.11284 220.9327 229.86763 244.20642 255.829 260.30363 268.7954 273.27003 285.82185 298.1449 305.47868 318.88825 326.93687 335.8718 342.21919 348.4808 355.05693 362.8768 369.1384 373.613 381.66163 395.98616 402.24775 414.82817 422.87675 431.8117 440.74668 448.56654 455.14268 461.40428 465.87889 472.22627 480.04615 494.38496 498.85957 507.337 513.59866 520.93246 529.4242 535.6858">CulturalBeaconandCivicDemonstration(Nonpartisanintent)</tspan></text>
<text xml:space="preserve" transform="matrix(.9899495 0 -0 1.0101526 0 792)" font-size="10.799458" font-family="LMRoman10"><tspan y="-507.03526" x="72.73098 80.83057 85.63633 96.53298 104.78377 110.183498 115.58322 120.98295 125.78871 130.0221 133.02434 138.42407 144.42858 153.54332 156.54557 163.9 166.90225 172.60436 176.80535 181.61112 187.61562 193.62012 198.42588 207.52983 211.73082 220.24079 226.54767 234.45288 243.44882 248.84856 253.08194 260.99797 265.19895 271.20344 276.60316 285.70713 294.21708 298.47206 303.8718 309.87629 314.68205 318.883 324.8875 330.28724 334.5206 343.32218 348.7219 354.7264 363.84117 372.8371 378.23686 382.4702 390.3754 394.5764 400.58088 405.98063 415.09535 423.5945 429.59904 434.40476 438.65977 442.86073 445.86299 451.8675 457.2672 461.46818 464.47044 469.87016 475.87467 483.58549 487.4841 494.78456 497.78678 505.152 508.15428 513.8456 518.0466 522.8523 528.8568 534.8721 539.66708">NewDoggerlandisintendedtobemorethanasanctuaryandmorethanadestination.Itisintended</tspan><tspan y="-493.62144" x="72.73098 76.93197 85.83072 92.14841 100.45319 109.36275 114.1685 120.173007 123.175258 127.37624 133.38074 137.61414 143.01386 149.51512 155.822 160.62778 166.0275 170.83327 176.23299 182.23749 190.05629 198.95505 201.95729 204.95955 210.35927 215.16504 224.66855 230.67305 235.47882 244.47476 249.87448 255.87899 260.14479 264.34577 268.56834 273.96809 278.16905 281.1713 286.571 296.08534 300.28633 306.2908 311.69056 319.39057 328.3001 332.55509 338.2572 342.51219 346.71318 351.51893 364.01393 368.81965 374.2194 383.7337 389.7382 393.9716 399.67369 405.6782 411.68269 416.48844 424.80403 429.00498 433.22758 439.24287 443.49784 447.69883 454.23249 458.4875 463.8872 467.19184 471.9976 475.89619 480.68037 487.21403 492.61378 498.61827 508.13258 511.43724 515.6706 520.4764 525.2821 531.2866 536.68637">tobeaculturalbeacon:aliveddemonstrationthatasystemcanproducetrust,safety,andfreedom</tspan></text>
<text xml:space="preserve" transform="matrix(1 0 -0 1 0 792)" font-size="10.9091" font-family="LMRoman10"><tspan y="-485.084" x="72 76.24364 82.3091 86.585468 92.040019 98.10548 103.56003 113.25822 118.11276 121.14549 126.000049 131.45459 139.3746 144.22916 149.6837 155.74916 160.04735 164.29099 168.56735 174.0219 177.05463 182.81464 187.05828 191.35646 198.02193 204.08739 207.12012 212.57466 218.64012 221.67285 225.62195 235.0147 241.08016 245.35652 250.81107 255.0547 259.90925 264.7638 269.00746 272.04017 277.49473 283.56019 287.85838 294.5238 299.97837 306.04383 315.75294 320.0293 325.48387 331.54933 335.79298 338.82569 344.89115 353.37843 358.83299 363.68754 368.54209 373.99665 380.0621 385.8221 390.06578 395.52033 401.5858 404.6185 407.6512 410.68394 414.62214 419.47669">throughclearconstraints,dignityprotections,androutineaccountability.</tspan></text>
<text xml:space="preserve" transform="matrix(.9899495 0 -0 1.0101526 0 792)" font-size="10.799458" font-family="LMRoman10"><tspan y="-460.0889" x="72.33399 80.131198 86.1357 89.13795 96.76236 102.16209 105.16434 117.51891 120.521167 128.14557 132.95133 138.65345 144.65795 147.6602 150.66245 155.4682 158.47046 162.67145 165.67369">Thisaimisexplicitly</tspan></text>
<text xml:space="preserve" transform="matrix(.9899495 0 -0 1.0101526 0 792)" font-size="10.799458" font-family="LMRoman10" font-weight="bold"><tspan y="-460.0889" x="174.83164 181.7325 187.94219 194.84304 201.7439 207.78079 212.89972 217.72708 221.1721 226.07508 232.11197">nonpartisan</tspan></text>
<text xml:space="preserve" transform="matrix(.9899495 0 -0 1.0101526 0 792)" font-size="10.799458" font-family="LMRoman10"><tspan y="-460.0889" x="242.42545 247.82518 253.82968">and</tspan></text>
<text xml:space="preserve" transform="matrix(.9899495 0 -0 1.0101526 0 792)" font-size="10.799458" font-family="LMRoman10" font-weight="bold"><tspan y="-460.0889" x="263.1928 270.09367 276.30335 283.20417 287.34037 293.0317 296.4767 302.16807 307.68659 312.51396 318.72364 323.8426 329.8795">non-electoral</tspan></text>
<text xml:space="preserve" transform="matrix(.9899495 0 -0 1.0101526 0 792)" font-size="10.799458" font-family="LMRoman10"><tspan y="-460.0889" x="333.32453 341.1217 349.2213 354.02708 365.1937 373.4445 378.84425 384.24397 389.64369 394.44944 398.6828 401.68507 407.08479 413.0893 422.46324 428.4677 434.16984 438.9756 446.6 452.6045 458.00425 465.57466 470.3696 476.07173 479.07398 483.32896 490.89936 495.10035 503.86949 509.26924 515.27377 520.67349 526.37557 531.18136 536.58108 540.782">.NewDoggerlanddoesnotexisttoadvocate</tspan></text>
<text xml:space="preserve" transform="matrix(1.0099504 0 -0 .99014756 0 792)" font-size="11.017651" font-family="LMRoman10"><tspan y="-455.70079" x="71.290637 74.66203 80.17085 89.07311 95.50742 101.01624 104.07915 107.14206 111.427928 114.49083 119.393688 124.90251 132.54877 138.67458 144.18341 148.50232 152.7882 155.85109 160.75395 165.09491 172.99457 177.89743 183.40625 189.53208 195.65789 198.7208 204.8466 210.35543 214.6413 219.54415 223.88512 231.78476 237.2936 246.19586 249.25876 255.38459 260.2874 265.79624 268.85914 274.36796 279.87678 284.79066 295.621 299.59837 308.46757 313.3704 319.18775 322.25065 326.59159 330.87748 339.8128 344.09867 354.19084 363.3685 369.1748 375.30064 380.20347 387.86073 392.76359 395.82649 401.6438 404.70674 414.1929 419.09574 424.60456 433.78224 440.20555 445.1084 449.39427 454.29713 460.4229 465.32579 470.2286 480.06739 486.1932 491.4045 503.9426 510.36589 515.26876 520.7776 526.9034 529.9663">forpoliticalparties,candidates,orideology.Itexiststomodelciviccompetence:howpeople</tspan><tspan y="-442.01695" x="71.290637 76.19348 81.7023 92.00381 96.344768 102.47057 107.97939 112.29832 121.376857 125.71781 131.84363 137.35245 142.25531 147.15818 154.52898 158.8479 163.75077 168.09172 173.60056 176.66345 182.1833 191.26186 197.38767 203.51348 208.41634 213.3192 217.6381 221.92398 227.4328 230.49571 236.32405 240.3014 245.2263 252.60813 258.11695 264.24278 274.53324 283.71095 289.21977 294.7396 303.81816 309.94395 314.8468 319.74964 322.81257 327.1535 330.21644 335.72523 341.85105 350.3677 354.6536 358.97254 364.48133 370.60716 374.94813 381.0739 386.58274 390.90168 395.8045 401.63285 405.9187 408.98164 418.96363 426.91838 429.9813 434.26716 440.39299 445.9018 452.03865 460.4892 463.5521 469.67793 473.0493 478.5581 482.87705 492.05473 497.56355 504.80216 511.22544 516.4368 524.09408 528.99697 533.31588">cansharespace,resolveuncertainty,andmakedecisionstransparentlywithoutinformalpower,</tspan></text>
<text xml:space="preserve" transform="matrix(1 0 -0 1 0 792)" font-size="10.9091" font-family="LMRoman10"><tspan y="-424.113" x="72 76.27637 81.13092 85.37456 90.82911 93.86184 96.89457 102.34912 106.59276 109.62549 115.08004 121.1455 127.81096 133.2655 141.18552 146.02916 151.78917 156.0328 160.30918 165.76372 170.61827 174.86191 177.89464 183.34918 189.41464">retaliation,orextraction.</tspan></text>
<text xml:space="preserve" transform="matrix(1.0099504 0 -0 .99014756 0 792)" font-size="11.017651" font-family="LMRoman10"><tspan y="-407.80693" x="71.290637 75.268009 85.690708 89.97657 96.10239 99.16529 107.81415 112.1551 117.05795 123.18377 127.52472 132.42758 139.96366 148.22689 153.12975 165.38138 173.79886 179.3077 184.81653 190.32535 195.22821 199.54714 202.61003 208.11887 214.24468 224.66739 227.73029 236.37915 239.44207 245.25937 249.54523 254.44809 260.5739 266.6997 271.60258 282.0363 286.32215 296.12785 302.55116 311.75086 317.25968 327.6934 332.59626 338.41358 343.9224 353.10008 359.2259 362.2888 371.48854 376.9973 384.6656 389.86595 395.99174 401.20307 413.45469 419.88899 425.3978 428.46073 431.52363 435.80949 438.8724 443.77525 452.4131 457.31593 462.82475 473.24745 480.9047 486.4135 490.73246 496.54978 506.04698 509.1099 519.5326 523.8184 529.9443">Inthissense,NewDoggerlandisintendedtobeanexampleof&#x201c;howpoliticscanwork&#x201d;inthe</tspan></text>
<text xml:space="preserve" transform="matrix(.997998 0 -0 1.002006 0 792)" font-size="10.8872599" font-family="LMRoman10"><tspan y="-389.45875" x="72.14444 81.213527 86.65716 90.94673 98.81822 104.87154 110.31517 114.61563 117.63141 126.12347 135.19255 140.03739 145.48102 151.53433 154.56099 160.6143 169.69429 175.13793 182.11666 186.35179 192.40512 200.88628 208.44205 213.88567 218.15348 224.20679 232.08916 238.14249 243.28128 254.78911 263.86909 268.7139 274.15754 283.22663 291.99089 298.04423 304.09754 307.12419 311.05448 320.45018 325.89384 331.03263 336.47627 341.3211 345.5889 351.6422 359.56816 362.5948 366.82994 371.1195 375.96437 378.99104 382.3225 390.20494 398.06553 404.11885 412.6109 418.66426 424.71757 430.77088 433.79753 436.8242 445.30537 448.33204 454.0805 458.31565 463.1605 467.42829 470.75978 476.2034 481.04826 489.52943 493.76457 498.6094 504.66273 510.71604 515.56088 521.0045 525.2397 528.2663 533.7099 539.76327">mostbasicmeaningoftheword:howacommunitygovernsitself.Thepublicinterface(education,</tspan></text>
<text xml:space="preserve" transform="matrix(.99146357 0 -0 1.00861 0 792)" font-size="10.815974" font-family="LMRoman10"><tspan y="-373.4754" x="72.33348 78.04432 81.051158 85.312648 88.31948 94.33317 97.340007 105.819728 111.83341 117.2414 121.48126 125.68868 131.70236 136.51546 140.75533 145.01682 151.0305 154.03734 160.05101 164.3125 170.98596 176.39394 182.40763 192.07709 198.09078 201.09761 206.50559 212.51927 215.52611 219.43067 225.1415 228.74321 234.75688 238.99675 243.80986 248.07135 252.88446 257.12434 262.83515 265.84199 271.85569 280.93028 286.33827 291.15138 295.96449 300.77763 305.03913 309.30064 317.16386 321.977 327.6878 330.69465 334.95616 339.16358 347.0917 350.09855 359.77885 365.7925 371.2005 375.44038 383.3036 387.51103 396.58564 405.59535 411.00334 416.4113 424.88023 429.08766 435.10133 439.91447 444.17597 452.6557 458.66938 462.90925 465.91609 471.92976 476.7429 479.74974 485.7634 488.77024 493.58335 501.51148 504.5183 509.33143 514.73947 517.7355 523.75997 526.76687 535.2357 539.4432">visiblepartnerships,anddignity-preservingaccess)existsinparttomaketheseprincipleslegibleto</tspan></text>
<text xml:space="preserve" transform="matrix(1 0 -0 1 0 792)" font-size="10.9091" font-family="LMRoman10"><tspan y="-363.142" x="72 77.45455 81.73092 87.79638 90.82911 96.89457 102.34912 106.62549 116.01822 121.77822 124.81095 129.10913 132.14186 136.3855 141.84004 146.11641 150.4146 157.09098 163.15644 168.61098 176.48735 181.9419 188.00736 191.04009 200.43283 204.67647 213.77466 219.2292 225.29467 231.36013 234.39286 238.63649 244.09104 248.3674 252.66559">ordinaryvisitors,notonlytoauditors.</tspan></text>
<text xml:space="preserve" transform="matrix(1 0 -0 1 0 792)" font-size="14.3462" font-family="LMRoman12" font-weight="bold"><tspan y="-328.773" x="72">7</tspan></text>
<text xml:space="preserve" transform="matrix(1 0 -0 1 0 792)" font-size="14.3462" font-family="LMRoman12" font-weight="bold"><tspan y="-328.773" x="92.185108 100.979328 109.05624 118.02261 126.98899 135.95537 143.31497 149.91423 155.29405 159.78441 168.75078 174.1306 186.32488 195.29125 201.66097 209.02057 217.5422 223.82584 228.3162 241.54338 253.9098 261.2694 267.63914 272.1295 280.2064 294.55259 306.919 314.2786 321.4517 325.94206 333.78944 340.38868 348.23606 354.51969 359.01005 367.08695">Founder-in-AbsentiaDesignDeclaration</tspan></text>
<text xml:space="preserve" transform="matrix(1.006479 0 -0 .99356278 0 792)" font-size="10.979779" font-family="LMRoman10"><tspan y="-306.39634" x="71.14604 79.07344 85.1782 93.676548 99.94599 105.43588 111.54064 117.6454 123.75015 128.63617 136.55258 139.60497 147.55434 150.60672 156.40404 160.67517 165.56119 171.36949 175.64064 178.69303 184.1829 190.28768 195.77754 198.82993 201.88231 211.29199 217.39676 222.28276 226.6088 229.66118 235.15106 241.25583 244.30821 250.41298 259.5152 267.75004 272.63606 284.18675 292.5753 298.0652 303.55506 309.04496 313.91999 318.22407 321.27644 326.76634 332.87107 342.59916 346.9252 356.0274 360.29853 366.4033 371.8932 379.77665 382.829 390.72346 395.60948 401.09934 410.81645 414.17628 420.28105 426.3858 431.2718 435.54295 438.5953 444.08518 453.80229 458.6883 462.9594 469.06419 472.11656 477.00254 482.49244 485.5448 488.59718 498.00685 503.49674 511.44609 514.4984 521.4706 525.74179 531.8465">TheFounderisintentionallydesigningNewDoggerlandsothatitcanfunctionethicallyasifthe</tspan></text>
<text xml:space="preserve" transform="matrix(1.0099504 0 -0 .99014756 0 792)" font-size="11.017651" font-family="LMRoman10"><tspan y="-293.76936" x="71.290637 77.58171 83.09053 89.21635 95.342159 101.46797 106.37082 114.99764 118.06055 126.69839 132.20722 138.33303 142.67398 147.57685 153.40518 157.69104 165.23815 168.30104 174.42687 179.32973 182.3816 188.51845 194.64426 197.70717 203.83298 213.63869 219.14752 225.27333 229.6143 234.51715 240.64298 245.54584 254.75658 260.8824 267.0082 276.20793 280.4938 290.31053 294.6184 299.52128 303.80714 306.87007 311.189 316.09184 325.26954 330.17237 336.0007 340.28657 347.82264 350.88554 357.01136 361.91419 367.423 373.54884 379.05766 383.96049 387.02339 391.01179 395.92567 403.47276 409.59858 414.5014 420.01023 424.29609 430.4219 437.95799 442.8608 448.36964 454.49546 457.55836 460.62129 463.68418 468.587 472.8729 480.41999 485.9288 494.54463 500.0534 504.37236 510.49818 513.5611 519.6869 525.19577 529.51467">Founderisabsent,includingabsenceduetoretirement,incapacity,death,conflict,orordinary</tspan></text>
<text xml:space="preserve" transform="matrix(1 0 -0 1 0 792)" font-size="10.9091" font-family="LMRoman10"><tspan y="-277.326" x="72 76.24364 82.3091 86.585468 92.650928 97.80002 103.26547 108.109119 112.38548">turnover.</tspan><tspan y="-257.00199" x="71.607 79.483379 85.548839 94.03611 99.49066 104.650669 110.10521 114.95976 119.23613 125.30159 130.75614 136.8216 141.67615 150.16344 155.61798 161.68344 171.38164 176.83618 183.20709 188.06165 192.33802 197.79256 202.0362 205.06893 210.52347 216.58893 222.04347 228.71985 233.01804 237.26168 242.71622 247.26532 256.65806 259.69078 267.62168 270.6544 276.4253 280.66896 285.5235 291.58897 297.65443 302.50898 312.20716 316.4508 321.90538">Thegovernanceandoperationalstackisintendedto:</tspan></text>
<text xml:space="preserve" transform="matrix(1 0 -0 1 0 792)" font-size="10.9091" font-family="LMRoman10"><tspan y="-230.69998" x="72">&#x2022;</tspan></text>
<text xml:space="preserve" transform="matrix(1 0 -0 1 0 792)" font-size="10.9091" font-family="LMRoman10"><tspan y="-230.69998" x="85.94183 92.00729 96.28366 101.138217 106.59276 111.44731 117.20731 125.09459 128.12732 134.19278 137.53096 142.9855 147.26187 156.34915 161.8037 168.46916 173.9237 179.98917 184.2328 190.29827 195.7528 200.02918 203.0619 207.00009 216.40375 219.74193 224.0183 229.47284 242.19286 246.49105 252.5565 258.62196 262.92015 267.1638 270.1965 274.44017 280.5056 284.74928 287.78199 293.84745 302.94566 306.28385 311.7384 319.6475 323.92387 329.98933 333.02204 337.8766 342.17478">preventinformalauthorityfromsubstitutingforrules,</tspan></text>
<text xml:space="preserve" transform="matrix(1 0 -0 1 0 792)" font-size="10.9091" font-family="LMRoman10"><tspan y="-208.38399" x="72">&#x2022;</tspan></text>
<text xml:space="preserve" transform="matrix(1 0 -0 1 0 792)" font-size="10.9091" font-family="LMRoman10"><tspan y="-208.38399" x="85.94183 92.00729 96.28366 101.138217 105.4364 110.290958 114.56732 120.021869 128.50916 137.59644 140.62917 144.92736 149.23645 152.25827 157.71282 167.42192 170.45465 176.21465 180.76375 190.1565 195.61104 200.46559 204.74196 210.1965 214.49469 222.42562 225.45835 230.3129 235.76744 241.8329 246.68746 250.96382 255.26201 261.32746 264.36018 274.06929 278.31294 282.5893 288.04386 294.1093 298.4075 301.44023 305.68388 308.71659 314.17115 320.2366 324.5348">preservemissionlockacrossleadershiptransitions,</tspan></text>
<text xml:space="preserve" transform="matrix(1 0 -0 1 0 792)" font-size="10.9091" font-family="LMRoman10"><tspan y="-186.068" x="72">&#x2022;</tspan></text>
<text xml:space="preserve" transform="matrix(1 0 -0 1 0 792)" font-size="10.9091" font-family="LMRoman10"><tspan y="-186.068" x="85.94183 95.02911 100.483669 105.93821 114.43639 123.523677 129.27277 132.61095 138.06549 145.9855 152.05097 156.90552 161.76007 164.7928 169.09099 172.12372 177.57826 183.64373 191.57465 195.85102 200.70557 205.56012 211.01467 217.08013 221.37831 225.62195 229.89832 235.96378 240.81833 245.06197 250.51651 256.58198 259.6147 268.10197 272.3456 278.41108 282.68745 288.142 294.20747 299.66203 309.37113 312.40385 317.8584 323.31297 331.24388 336.69844 342.7639 352.46208 356.73844 361.593 366.44755 371.9021 376.17848 382.24394 387.09849 396.8076 402.87306 408.3276 412.57127 418.33128 425.9022 431.0513 436.8113 441.1095">makemajordecisionsreconstructablethroughlogsandrecordedpathways,</tspan></text>
<text xml:space="preserve" transform="matrix(1 0 -0 1 0 792)" font-size="10.9091" font-family="LMRoman10"><tspan y="-163.75099" x="72">&#x2022;</tspan></text>
<text xml:space="preserve" transform="matrix(1 0 -0 1 0 792)" font-size="10.9091" font-family="LMRoman10"><tspan y="-163.75099" x="85.94183 91.396389 97.461849 107.160037 111.4364 116.290958 120.58914 123.62187 127.92006 135.80735 140.6619 146.11644 152.1819 156.42554 162.491 166.76737 175.25466 181.01467 190.41832 196.48378 201.93833 208.00379 211.63652 214.9747 220.42925 223.46198 227.70561 237.40381 242.85836 247.7129 251.95655 257.4111 261.68748 269.61839 275.07295 282.99296 289.0584 293.33479 296.3675 299.7057 307.58207 313.64753 319.71299 325.77845 330.633 338.553 341.58573 344.61848 350.68394 356.1385 362.20396 367.0585 370.09123 375.54579 382.2112 388.27668 392.55305 397.4076 401.70579 406.00398 412.06944 416.3458 421.20036">andresistcapturebybad-faithactorsordriftunderfinancialpressure.</tspan></text>
<text xml:space="preserve" transform="matrix(.99899956 0 -0 1.0010015 0 792)" font-size="10.898185" font-family="LMRoman10"><tspan y="-137.31249" x="71.67872 79.5472 85.6066 94.09628 100.29735 105.746448 111.80584 117.86523 123.92462 128.7743 136.6864 140.9585 146.4076 149.43727 157.91605 160.94574 168.87963 174.3287 178.6008 183.14534 189.20475 192.23442 196.47382 201.3235 206.17319 210.41259 216.47197 220.74408 229.23375 234.68283 240.74224 250.44162 253.4713 258.92039 264.97978 270.42887 274.05796 280.1173 285.5664 289.8385 292.8682 297.7179 303.167 312.85548 317.70518 323.15425 329.21363 334.06333 338.33543 343.18513 349.24449 354.09419 358.94389 365.6136 371.67298 377.12205 385.00144 389.85115 395.3002 401.05445 405.29383 409.56593 415.015 418.0447 425.9241 429.85835 436.8332 441.07258 447.13197 455.61076 458.64045 464.69984 468.99369 473.23307 476.2628 480.50218 486.56153 490.8009 493.83064 499.2797 508.97908 513.8288 519.2779 525.3373 531.3967 536.8458">TheFounderroleisarchitectureandlong-horizoncoherence,notcontrol.Iftheinstitutioncannot</tspan></text>
<text xml:space="preserve" transform="matrix(1 0 -0 1 0 792)" font-size="10.9091" font-family="LMRoman10"><tspan y="-123.901" x="72 75.33819 81.40365 87.46911 92.323657 96.56729 99.60002 105.05457 114.75276 119.607318 123.85095 129.91641 132.94915 137.8037 143.25824 146.29097 149.3237 158.72736 166.60373 169.63646 173.8801 179.94556 185.4001 191.46556 199.34194 202.68012 208.13466 214.20012 220.26558 226.33104 231.1856 239.1056 245.17107 249.44744 254.29108 258.60017 263.44383 269.52018 274.36384 279.21839 285.89476 288.92747 296.80384 299.83656 307.76747 312.622 318.07658 324.14204 328.44023 331.47294 337.5384 342.39295 346.6693 351.52388 361.23298 365.53117 369.7748 374.05119 380.11665 384.9712 389.21485 395.2803 399.55668 405.01124 408.04396 411.07667 420.4694 423.5021 429.56758 434.42213 439.87669 448.96397 455.02943 458.06214 462.9167 467.16035 472.0149">functionethicallywithoutfounderpresence,itisconsideredstructurallyincomplete.</tspan></text>
<text xml:space="preserve" transform="matrix(1 0 -0 1 0 792)" font-size="10.9091" font-family="LMRoman10"><tspan y="-42.112" x="303.273">7</tspan></text>
</svg>
