<svg xmlns="http://www.w3.org/2000/svg" xmlns:xlink="http://www.w3.org/1999/xlink" xmlns:inkscape="http://www.inkscape.org/namespaces/inkscape" version="1.1" width="612" height="792" viewBox="0 0 612 792">
<text xml:space="preserve" transform="matrix(1 0 -0 1 0 792)" font-size="14.3462" font-family="LMRoman12" font-weight="bold"><tspan y="-707.447" x="72 84.62466 92.256839 109.300128 115.58376 129.0405 138.00687 144.37659 157.11602 163.39965 172.36602 176.85637 188.60591 202.06266 209.91002 218.43166 227.39803 235.24539">Howtousethismanual</tspan></text>
<text xml:space="preserve" transform="matrix(1 0 -0 1 0 792)" font-size="10.9091" font-family="LMRoman10"><tspan y="-683.098" x="71.607 79.483379 85.548839 88.581569 96.51248 105.59976 111.05431 116.825229 122.890689 128.34523 135.0107 138.04343 145.97435 153.85073 158.12709 161.15982 165.40346 169.6471 174.50165 184.21076 187.54894 193.00348 200.91259 205.76714 211.52715 216.3817 221.23625 227.30171 231.54535 234.57808 240.03263 246.09809 253.97446 257.91264 265.79994 268.83265 276.76356 282.2181 286.49449 291.94905 297.4036 303.46907 306.50178 311.35633 316.21089 325.90907 330.20726 339.30546 344.76 350.21458 359.91276 364.7673 370.22187 376.28733">Thismanualiswrittenforexecution.Itisorganizedsoyoucan:</tspan></text>
<text xml:space="preserve" transform="matrix(1 0 -0 1 0 792)" font-size="10.9091" font-family="LMRoman10"><tspan y="-656.796" x="72">&#x2022;</tspan></text>
<text xml:space="preserve" transform="matrix(1 0 -0 1 0 792)" font-size="10.9091" font-family="LMRoman10"><tspan y="-656.796" x="85.94183 88.97456 92.00729 98.072757 107.77094 112.01458 118.09095 126.578227 130.85459 135.70914 138.74187 143.59642 148.74552 154.20006 159.96007 167.84735 173.91281 178.18918 183.93827 188.79282 193.64737 199.71283 205.77829 210.05466 218.55286 224.31287 230.37833 233.41106 237.96016 243.72017 246.7529 251.60746">findtherelevantprocedurequickly,</tspan></text>
<text xml:space="preserve" transform="matrix(1 0 -0 1 0 792)" font-size="10.9091" font-family="LMRoman10"><tspan y="-634.48007" x="72">&#x2022;</tspan></text>
<text xml:space="preserve" transform="matrix(1 0 -0 1 0 792)" font-size="10.9091" font-family="LMRoman10"><tspan y="-634.48007" x="85.94183 92.00729 98.072757 104.138217 108.99277 113.269138 117.56732 121.81096 127.26551 133.33097 143.04007 150.91645 156.9819 162.43645 170.31282 179.09465 185.16011 189.4583 197.34558 203.70558 212.20378 218.26924 223.72379 229.78925 238.27654 244.03655 248.33473 255.0002 262.87657 268.94203 274.39659 282.28388 291.37117 296.52027 305.913 312.2839 320.77119 326.22575 332.3021 337.75666 343.8221 348.06578 352.90943 358.98579 365.6512 371.10578 377.17124">understandwhatmustbedonevs.whatmaybeadapted,and</tspan></text>
<text xml:space="preserve" transform="matrix(1 0 -0 1 0 792)" font-size="10.9091" font-family="LMRoman10"><tspan y="-612.16409" x="72">&#x2022;</tspan></text>
<text xml:space="preserve" transform="matrix(1 0 -0 1 0 792)" font-size="10.9091" font-family="LMRoman10"><tspan y="-612.16409" x="85.94183 91.701839 97.767299 102.91639 114.4364 122.312778 128.37824 133.23279 142.93099 147.17462 156.2619 161.11646 165.41464 170.2692 175.72374 178.75647 184.21102 188.45465 193.3092">knowwhentoescalate.</tspan></text>
<text xml:space="preserve" transform="matrix(1 0 -0 1 0 792)" font-size="11.9552" font-family="LMRoman12" font-weight="bold"><tspan y="-582.9551" x="72 80.22518 89.57415 96.30493 100.78813 108.26013 114.79963 120.10774 129.89905 135.39844 141.53145 148.07094 155.54294 159.28491 166.75691">Two-passreading</tspan></text>
<text xml:space="preserve" transform="matrix(1 0 -0 1 0 792)" font-size="10.9091" font-family="LMRoman10"><tspan y="-562.36209" x="72 77.45455">1.</tspan></text>
<text xml:space="preserve" transform="matrix(1 0 -0 1 0 792)" font-size="10.9091" font-family="LMRoman10" font-weight="bold"><tspan y="-562.36209" x="85.94183 93.84002 97.32002 102.49094 107.443668 116.498218 123.46913 129.56732 134.52005 143.66187 148.53824 154.81098 161.08371 167.35645 173.62918 184.08011 194.53102 198.01102 204.63285 211.60376 216.48014 222.22924 227.18196 232.05834">Firstpass(15&#x2013;20minutes):</tspan></text>
<text xml:space="preserve" transform="matrix(1 0 -0 1 0 792)" font-size="10.9091" font-family="LMRoman10"><tspan y="-562.36209" x="240.39289 244.69107 250.45108 253.48381 266.20384 270.502 275.35658 280.21113 284.45478 287.4875 292.94206 302.64024 308.7057 313.56025 319.0148 325.08027 328.11299 334.17845 339.633 347.57484 351.81849 360.90577 363.93849 368.79304 374.2476 378.52397 388.22215 396.0985 402.16398 407.01853 411.2949 419.7931 424.03675 430.1022 433.13493 439.20039 444.65495 452.58586 455.61857 458.65129 464.10585 468.9604">skimsectionheadingstolearnwherethingslive.</tspan></text>
<text xml:space="preserve" transform="matrix(1 0 -0 1 0 792)" font-size="10.9091" font-family="LMRoman10"><tspan y="-540.04507" x="72 77.45455">2.</tspan></text>
<text xml:space="preserve" transform="matrix(1.0049875 0 -0 .9950372 0 792)" font-size="10.96351" font-family="LMRoman10" font-weight="bold"><tspan y="-542.7385" x="85.51251 92.5182 98.295978 103.89832 110.20234 117.20803 128.37985 135.38553 141.51413 146.49156 155.62416 160.52484 166.65345 171.63088 175.82991 182.83559 188.61336 194.39112 201.39679 207.17456 214.18024 219.08092">Secondpass(as-needed):</tspan></text>
<text xml:space="preserve" transform="matrix(1.0049875 0 -0 .9950372 0 792)" font-size="10.96351" font-family="LMRoman10"><tspan y="-542.7385" x="227.4132 233.5089 237.82852 246.32524 250.59004 256.68577 265.18254 269.50215 274.3809 279.25968 283.52449 286.57234 292.05409 301.7678 306.0326 312.1283 317.61009 325.49284 334.62547 340.1072 344.372 348.95478 355.0505 359.92927 367.86686 372.13166 378.2274 386.72413 390.98893 396.47068 400.7903 410.197 415.68974 421.17149 430.88517 436.3669 440.6646 449.16136 455.25709 460.73884 463.78669 469.88243 475.36418 482.03 488.1257 497.22544 503.32118 508.80293 516.6967 520.9834 525.8622 531.34396">usethesectionthatmatchesthetaskyouaredoing;donotread</tspan></text>
<text xml:space="preserve" transform="matrix(1 0 -0 1 0 792)" font-size="10.9091" font-family="LMRoman10"><tspan y="-526.496" x="85.939 88.97173 92.00446 98.06992 102.92447 108.37902 112.65539 115.68812 125.08085 131.1463 137.21176 140.24449 145.09905 149.39723 157.33907 162.79361 168.55362 174.92453 180.37908 185.83362 190.10999 196.17545 199.20818 205.27364 210.72818">linearlyunlessonboarding.</tspan></text>
<text xml:space="preserve" transform="matrix(1 0 -0 1 0 792)" font-size="11.9552" font-family="LMRoman12" font-weight="bold"><tspan y="-497.287" x="72 81.6598 89.1318 92.87378 103.49 110.22078 118.81657 124.05295 131.15435 138.62635 149.45775 161.41295 165.52555 172.25632 182.2389 188.37192 193.68003 199.65763 206.19712 209.93909 216.47858 221.71495 225.45693 232.1877">Ruleofthumbforescalation</tspan></text>
<text xml:space="preserve" transform="matrix(1 0 -0 1 0 792)" font-size="10.9091" font-family="LMRoman10"><tspan y="-476.694" x="72 79.4291 83.72729 88.58183 94.036388 97.069118 102.52367 106.7673 115.254589 123.13096 129.19641 134.05097 143.76007 149.21462 154.97463 164.36737 169.82192 176.80374 181.04738 187.11284 195.60013 198.93831 204.39286 207.42559 210.45832 215.6074 223.48378 226.51651 232.58197 241.68016 247.1347 251.41107 259.89836 264.142 268.41838 274.48384 279.33839">Escalatewhenanyofthefollowingaretrue:</tspan></text>
<text xml:space="preserve" transform="matrix(1 0 -0 1 0 792)" font-size="10.9091" font-family="LMRoman10"><tspan y="-450.393" x="72">&#x2022;</tspan></text>
<text xml:space="preserve" transform="matrix(1 0 -0 1 0 792)" font-size="10.9091" font-family="LMRoman10"><tspan y="-450.393" x="85.94183 90.18547 96.25093 104.73821 110.80367 115.65822 120.51277 123.5455 127.84369 130.87642 136.33097 146.04007 149.0728 157.00373 166.091 171.54555 175.78919 180.64374 184.9201 187.95284 193.40738 196.44011 199.47284 208.86559 211.89832 216.17469 220.45105 225.3056 230.76016 235.61472 239.89109 244.18927 247.222 253.28746 256.3202 261.17475">thedecisionismateriallyirreversible,</tspan></text>
<text xml:space="preserve" transform="matrix(1 0 -0 1 0 792)" font-size="10.9091" font-family="LMRoman10"><tspan y="-428.07603" x="72">&#x2022;</tspan></text>
<text xml:space="preserve" transform="matrix(1 0 -0 1 0 792)" font-size="10.9091" font-family="LMRoman10"><tspan y="-428.07603" x="85.94183 90.18547 96.25093 104.73821 110.80367 115.65822 120.51277 123.5455 127.84369 130.87642 136.33097 146.04007 155.12735 160.5819 164.82553 169.68009 173.95645 176.98918 182.44373 185.47646 188.50919 197.90193 203.35648 206.53649 209.71648 214.57103 219.42559 223.66922 231.60015 237.6656 243.12015 252.21834 259.78926 264.6438 267.6765 271.0147 276.46928 280.74565 285.6002 292.26564 298.02565 304.0911 313.17839 318.63294 328.34205 334.4075 337.44023 342.89479 348.96025 351.99296 355.93116 360.7857 367.45115 372.9057 380.8148 383.8475 389.30207 395.36753 400.82209 404.4548 410.52027 415.97483 420.2512 423.2839 428.13847 433.59303 443.30213 447.6003 451.84397 456.69853 464.26945 469.724 474.00038 480.06584 484.364 490.42948 493.4622 499.52766">thedecisionmateriallyaffectsdogwelfare,humandignity,orlong-horizonstewardship,</tspan></text>
<text xml:space="preserve" transform="matrix(1 0 -0 1 0 792)" font-size="10.9091" font-family="LMRoman10"><tspan y="-405.76" x="72">&#x2022;</tspan></text>
<text xml:space="preserve" transform="matrix(1 0 -0 1 0 792)" font-size="10.9091" font-family="LMRoman10"><tspan y="-405.76" x="85.94183 90.18547 96.25093 104.73821 110.80367 115.65822 120.51277 123.5455 127.84369 130.87642 136.33097 146.04007 150.89463 155.17099 160.02555 165.48009 169.72373 174.56737 182.5092 191.59648 197.66194 201.93831 206.79286 211.64742 216.50197 222.56743 227.42198 233.18199 241.06928 246.52382 250.76746 256.83293 261.68748 265.96385 273.89476 281.77113 284.80384 287.83656 294.50199 298.77836 303.6329 306.66563 316.05836 321.5129 327.58927">thedecisioncreatesaprecedentotherswillrelyon,</tspan></text>
<text xml:space="preserve" transform="matrix(1 0 -0 1 0 792)" font-size="10.9091" font-family="LMRoman10"><tspan y="-383.444" x="72">&#x2022;</tspan></text>
<text xml:space="preserve" transform="matrix(1 0 -0 1 0 792)" font-size="10.9091" font-family="LMRoman10"><tspan y="-383.444" x="85.658199 91.11274 96.56729 106.27639 111.130939 116.58549 122.65095 128.7164 134.17095 142.04732 146.90187 152.66188 158.72734 161.76007 167.21462 170.24735 179.94554 184.18918 190.25464 198.75284 203.30194 209.3674 214.82195 217.85468 222.70923 231.19652 234.22925 243.92745 253.02564 260.59657 265.74568 275.14933 279.39299 285.45845 290.913 298.78938 306.3603 311.81486 317.8803 320.91304 330.62214 334.92033 340.37489 344.61854 347.65126 351.94944 355.28764 364.68037 373.76765 379.2222 384.9822 390.74223 396.80769 400.4404 403.7786 409.23316 412.26588 416.50953 426.2077 430.48408 435.33863 441.09864 444.13136 448.9859 456.55683 461.41139 465.68775">youcannotexplainthechoiceinawaythatwouldsatisfyagood-faithreviewer.</tspan></text>
<text xml:space="preserve" transform="matrix(.9939819 0 -0 1.0060546 0 792)" font-size="10.843447" font-family="LMRoman10"><tspan y="-354.99266" x="71.87656 83.02362 89.05258 93.877918 103.55028 106.56476 116.237117 122.266078 127.68779 133.71675 139.74571 143.9638 151.847 156.36872 162.39768 168.12302 173.54474 177.81707 186.2858 190.5039 196.53287">Whenindoubt:choosethe</tspan></text>
<text xml:space="preserve" transform="matrix(.9939819 0 -0 1.0060546 0 792)" font-size="10.843447" font-family="LMRoman10" font-weight="bold"><tspan y="-354.99266" x="205.0016 215.38962 221.6246 226.54753 235.58013 244.24404 249.95853 253.41759 257.22364 263.28514 268.42494 274.1394 278.29246 285.22145 290.3612 296.0757 300.99867 306.71318 311.85298 318.43495 321.89399 328.82295">mostwelfare-preserving</tspan></text>
<text xml:space="preserve" transform="matrix(.9939819 0 -0 1.0060546 0 792)" font-size="10.843447" font-family="LMRoman10"><tspan y="-354.99266" x="338.80973 344.23149 350.27128">and</tspan></text>
<text xml:space="preserve" transform="matrix(.9939819 0 -0 1.0060546 0 792)" font-size="10.843447" font-family="LMRoman10" font-weight="bold"><tspan y="-354.99266" x="359.93278 363.3918 369.10633 375.1678 380.09074 389.13417 396.41014 402.2981 410.95118 416.66569 421.80546 425.9585 431.673 438.25498 445.18397 451.24543 458.17439 465.10337 468.5624 475.49137">leastpower-expanding</tspan></text>
<text xml:space="preserve" transform="matrix(.9939819 0 -0 1.0060546 0 792)" font-size="10.843447" font-family="LMRoman10"><tspan y="-354.99266" x="485.489 490.91075 496.9397 501.1578 504.17228 509.594 515.623 522.2808 526.4989 532.52786 537.35317">option,then</tspan></text>
<text xml:space="preserve" transform="matrix(1 0 -0 1 0 792)" font-size="10.9091" font-family="LMRoman10"><tspan y="-343.593" x="72 76.27637 81.13092 86.89092 92.95638 97.81093 102.109119 109.98548 114.26185 119.116397 124.876399 127.90913 132.76367 140.64005">requestreview.</tspan></text>
<text xml:space="preserve" transform="matrix(1 0 -0 1 0 792)" font-size="14.3462" font-family="LMRoman12" font-weight="bold"><tspan y="-309.22499" x="72 84.12254 99.42994 104.80977 112.88668 124.55015 137.2322 144.5918 153.55817 160.91777 167.51703 175.3644 185.23458 197.35712 206.76822 214.12783 220.72708 228.57445 234.85808 239.34844 248.3148 261.77156 273.36329 282.32966 286.82 294.1796">OM-0.GeneralOperatingRules</tspan></text>
<text xml:space="preserve" transform="matrix(1 0 -0 1 0 792)" font-size="10.9091" font-family="LMRoman10"><tspan y="-284.87599" x="72">&#x2022;</tspan></text>
<text xml:space="preserve" transform="matrix(1 0 -0 1 0 792)" font-size="10.9091" font-family="LMMono10"><tspan y="-284.87599" x="85.94183 91.66911 103.12367 108.85095 120.30551 126.03279 131.76007 137.48735 143.21463 148.94191 154.66919 160.39647 166.12375 171.85103 177.57831 189.03287 194.76015 200.48743 206.2147 211.94199 217.66927 223.39655 229.12383 234.8511 240.57839 246.30567 257.76023 263.4875 269.21476 274.94203 280.66929 286.39656 292.1238 297.85108 303.57835 315.03288 320.76014 326.4874 332.21467 343.6692 349.39646 355.12373 366.57826 372.3055 378.03279 383.76005 389.4873 395.21458 400.94184 406.6691 412.39637 418.12364 423.8509 429.57817 435.30543 446.75996 452.4872 458.21449 463.94175 475.39628 481.12355 486.8508 498.30534 504.0326 509.75987 515.4871 521.2144 526.9417 532.669 538.3963 544.1236 549.8509 555.5782">IFanoperationalinstructionconflictswiththeConstitution,THENtheinstruction</tspan><tspan y="-271.326" x="85.94 91.66728 103.12184 108.84912 114.5764 120.30368 131.75824 137.48552 143.2128 154.66736 160.39464 166.12192 171.8492 183.30376 189.03104 194.75832 206.21288 211.94016 223.39472 229.122 234.84928 240.57656 246.30384 252.03112 257.7584 263.48567 269.21293">isvoidandmustnotbefollowed.</tspan></text>
<text xml:space="preserve" transform="matrix(1 0 -0 1 0 792)" font-size="10.9091" font-family="LMRoman10"><tspan y="-249.01" x="72">&#x2022;</tspan></text>
<text xml:space="preserve" transform="matrix(1 0 -0 1 0 792)" font-size="10.9091" font-family="LMMono10"><tspan y="-249.01" x="85.94183 91.66911 103.12367 108.85095 120.30551 126.03279 131.76007 137.48735 143.21463 148.94191 154.66919 160.39647 166.12375 171.85103 177.57831 189.03287 194.76015 200.48743 206.2147 211.94199 217.66927 223.39655 229.12383 234.8511 240.57839 246.30567 257.76023 263.4875 269.21476 274.94203 280.66929 286.39656 292.1238 297.85108 303.57835 315.03288 320.76014 326.4874 332.21467 343.6692 349.39646 355.12373 360.85099 372.3055 378.03279 383.76005 389.4873 400.94184 406.6691 412.39637 423.8509 429.57817 435.30543 441.03269 446.75996 452.4872 458.21449 463.94175 469.669 475.39628 481.12355 492.57807 498.30534 504.0326 509.75987 521.2144 526.9417 538.3963 544.1236 549.8509 555.5782 561.3055 567.0328 572.7601 578.48739 584.21469">IFanoperationalinstructionconflictswithlaw,THENtheinstructionmustbeescalated</tspan><tspan y="-235.461" x="85.94 91.66728 103.12184 108.84912 114.5764 120.30368 126.03096 131.75824 137.48552 143.2128 148.94008 160.39464 166.12192 171.8492 177.57648 189.03104 194.75832 200.4856 211.94016 217.66744 223.39472 229.122 234.84928 240.57656 246.30384 252.03112 257.7584 263.48567 269.21293">toGoverningBodyforcorrection.</tspan></text>
<text xml:space="preserve" transform="matrix(1 0 -0 1 0 792)" font-size="10.9091" font-family="LMRoman10"><tspan y="-213.145" x="72">&#x2022;</tspan></text>
<text xml:space="preserve" transform="matrix(1 0 -0 1 0 792)" font-size="10.9091" font-family="LMMono10"><tspan y="-213.145" x="85.94183 91.66911 103.12367 108.85095 120.30551 126.03279 131.76007 137.48735 143.21463 148.94191 154.66919 160.39647 166.12375 171.85103 177.57831 189.03287 194.76015 200.48743 211.94199 217.66927 229.12383 234.8511 240.57839 246.30567 252.03295 257.76023 263.4875 269.21476 274.94203 280.66929 286.39656 297.85108 303.57835 309.3056 315.03288 326.4874 332.21467 337.94194 343.6692 349.39646 360.85099 366.57826 372.3055 378.03279 389.4873 395.21458 400.94184 406.6691 418.12364 423.8509 429.57817 435.30543 441.03269 446.75996 452.4872 458.21449 463.94175 469.669 475.39628 481.12355 486.8508 498.30534 504.0326 509.75987 515.4871 521.2144 526.9417 538.3963 544.1236 549.8509">IFanoperationalgapisdiscovered,THENstaffmusthaltdiscretionaryactionand</tspan><tspan y="-199.595" x="85.94 91.66728 97.39456 103.12184 108.84912 114.5764 120.30368 126.03096 137.48552 143.2128 148.94008 160.39464 166.12192 171.8492 177.57648 183.30376 189.03104 194.75832 200.4856 206.21288 217.66744 223.39472 229.122 234.84928 240.57656 246.30384 257.7584 263.48567 269.21293 274.9402 280.66746 292.12199 297.84925 309.30378 315.03105 320.7583 332.21284 337.9401 343.66737 349.39463 355.1219 360.84916 366.57643 372.30369 383.7582 389.48548 395.21275 400.94 406.66728 412.39454 423.84907 429.57633 441.03086 446.75813 452.48539 458.21266 463.9399 469.66719 475.39445 481.1217 492.57624 498.3035 504.03077 509.75804 515.4853 521.2126 526.9399 532.6672 538.3945 544.12179 549.84909">escalateforguidance,EXCEPTTHAT:IFtheaffectedactionisroutine,reversible,</tspan><tspan y="-186.046" x="85.94 91.66728 97.39456 108.84912 114.5764 120.30368 126.03096 131.75824 137.48552 148.94008 154.66736 160.39464 171.8492 177.57648 183.30376 189.03104 194.75832 200.4856 206.21288 217.66744 223.39472 229.122 234.84928 246.30384 252.03112 257.7584 263.48567 269.21293 274.9402 286.3947 292.12199 297.84925 303.5765 315.03105 320.7583 326.48558 337.9401 343.66737 349.39463 355.1219 360.84916 372.30369 378.03096 383.7582 395.21275 400.94 406.66728 412.39454 418.1218 423.84907 429.57633 435.3036 441.03086 452.48539 463.9399 469.66719 475.39445 481.1217 486.84898 492.57624 498.3035 504.03077 509.75804 521.2126 526.9399 532.6672 538.3945 544.12179 549.84909 555.57638">andwithintheactor&#x2019;srolescope,THENtheactormayimplementatemporarybounded</tspan><tspan y="-172.49701" x="85.94 91.66728 97.39456 103.12184 108.84912 114.5764 120.30368 131.75824 137.48552 143.2128 148.94008 160.39464 166.12192 177.57648 183.30376 189.03104 200.4856 206.21288 211.94016 217.66744 223.39472 229.122 234.84928 246.30384 252.03112 257.7584 263.48567 269.21293 274.9402 280.66746 292.12199 297.84925 309.30378 315.03105 320.7583 326.48558 332.21284 337.9401 343.66737 355.1219 360.84916 366.57643 372.30369 378.03096 383.7582 389.48548 395.21275 400.94 406.66728 412.39454 423.84907 429.57633 435.3036 441.03086 446.75813 452.48539 458.21266 463.9399 469.66719 481.1217 486.84898 498.3035 504.03077 509.75804 515.4853 521.2126 532.6672 538.3945">controlONLYIFthecontrolcreatesnolastingobligation,transfersorrisksno</tspan><tspan y="-158.94802" x="85.94 91.66728 97.39456 103.12184 108.84912 114.5764 120.30368 131.75824 137.48552 148.94008 154.66736 160.39464 166.12192 171.8492 177.57648 183.30376 189.03104 194.75832 200.4856 211.94016 217.66744 223.39472 229.122 234.84928 240.57656 246.30384 257.7584 263.48567 269.21293 274.9402 280.66746 286.3947 292.12199 297.84925 303.5765 315.03105 320.7583 326.48558 332.21284 343.66737 349.39463 355.1219 360.84916 366.57643 372.30369 378.03096 383.7582 389.48548 400.94 406.66728 418.1218 423.84907 429.57633 435.3036 441.03086 446.75813 458.21266 463.9399 475.39445 481.1217 486.84898 492.57624 504.03077 509.75804 521.2126 526.9399 532.6672 538.3945 544.12179 549.84909">assets,isreversiblewithoutGoverningBodyapproval,isloggedattimeofaction</tspan><tspan y="-145.39902" x="85.653 91.38028 97.10756 102.83484 114.2894 125.74396 131.47124 137.19852 142.9258 148.65308 154.38036 160.10764 165.83492 171.5622 177.28948 188.74404 194.47132 200.1986 205.92588 211.65316 217.38043 228.83499 234.56227 240.28955 246.01683 257.47138 263.19865 268.9259 280.38044 286.1077 297.56224 303.2895 309.01676 314.74403 320.47129 326.19856 331.9258 337.65309 349.1076 354.83488 360.56214 366.2894 372.01667 377.74394 383.4712 389.19847 394.92573 400.65299 412.1075 417.83479 423.56205 429.2893 440.74385 446.4711 452.19837 463.6529 469.38017 475.10743 480.8347 486.56196 492.2892 498.01649 503.74375 509.471 520.9256 526.6529 538.1075 543.8348 549.5621 555.28939 561.01669 566.74398">withaGAP-BRIDGEreasoncodeandanexplicitexpirationtimenotexceeding72hours,</tspan><tspan y="-131.84902" x="85.653 91.38028 97.10756 108.56212 114.2894 120.01668 131.47124 137.19852 142.9258 148.65308 154.38036 160.10764 165.83492 171.5622 177.28948 188.74404 194.47132 200.1986 205.92588 217.38043 223.10771 234.56227 240.28955 246.01683 251.74411 257.47138 263.19865 268.9259 274.65318 286.1077 291.83497 297.56224 309.01676 314.74403 320.47129 326.19856 331.9258 337.65309 349.1076 354.83488 366.2894 372.01667 377.74394 383.4712 394.92573 400.65299 412.1075 417.83479 423.56205 429.2893 435.01658 440.74385 446.4711 452.19837 457.92564">ANDtheGoverningBodyisnotifiedforreviewassoonasfeasible.</tspan></text>
<text xml:space="preserve" transform="matrix(1 0 -0 1 0 792)" font-size="10.9091" font-family="LMRoman10"><tspan y="-109.53301" x="72">&#x2022;</tspan></text>
<text xml:space="preserve" transform="matrix(1 0 -0 1 0 792)" font-size="10.9091" font-family="LMMono10"><tspan y="-109.53301" x="85.94183 91.66911 97.39639 108.85095 114.57823 120.30551 126.03279 131.76007 137.48735 143.21463 148.94191 160.39647 166.12375 177.57831 183.30559 189.03287 194.76015 206.2147 211.94199 217.66927 223.39655 229.12383 234.8511 240.57839 246.30567 257.76023 263.4875 274.94203 280.66929 286.39656 292.1238 297.85108 303.57835 309.3056 315.03288 320.76014 326.4874 332.21467 343.6692 349.39646 355.12373 366.57826 372.3055 378.03279 383.76005 389.4873 395.21458 406.6691 412.39637 418.12364 423.8509 435.30543 441.03269 446.75996 452.4872 463.94175 469.669 481.12355 486.8508 492.57807 498.30534 504.0326 509.75987 515.4871 521.2144 532.669 538.3963 544.1236 549.8509 555.5782 561.3055 567.0328 572.7601 578.48739 584.21469 589.94198 595.66928">Forpurposesofthissection,anoperationalgapexistsonlywhennoexistinginstruction,</tspan><tspan y="-95.98401" x="85.94 91.66728 97.39456 103.12184 114.5764 120.30368 126.03096 131.75824 137.48552 148.94008 154.66736 166.12192 171.8492 177.57648 183.30376 189.03104 200.4856 206.21288 211.94016 217.66744 223.39472 229.122 234.84928 240.57656 252.03112 257.7584 263.48567 269.21293 274.9402 280.66746 286.3947 292.12199 303.5765 309.30378 315.03105 320.7583 326.48558 332.21284 337.9401 349.39463 355.1219 360.84916 366.57643 372.30369 378.03096 383.7582 389.48548 395.21275 400.94 412.39454 418.1218 423.84907 429.57633 435.3036 441.03086 446.75813 458.21266 463.9399 475.39445 481.1217 486.84898 498.3035 504.03077 509.75804 515.4853 521.2126 526.9399 538.3945 544.12179">rolenorm,orpriorrecordeddecisionpathwayreasonablyappliestotheactionas</tspan><tspan y="-82.43501" x="85.94 91.66728 97.39456 103.12184 108.84912 114.5764 120.30368 126.03096 131.75824">executed.</tspan></text>
<text xml:space="preserve" transform="matrix(1 0 -0 1 0 792)" font-size="10.9091" font-family="LMRoman10"><tspan y="-42.11201" x="303.273">3</tspan></text>
</svg>
