<svg xmlns="http://www.w3.org/2000/svg" xmlns:xlink="http://www.w3.org/1999/xlink" xmlns:inkscape="http://www.inkscape.org/namespaces/inkscape" version="1.1" width="612" height="792" viewBox="0 0 612 792">
<text xml:space="preserve" transform="matrix(1 0 -0 1 0 792)" font-size="11.9552" font-family="LMRoman12" font-weight="bold"><tspan y="-709.041" x="72 82.10214 94.85834 99.34154 109.503459 113.24544 124.45942 134.48984 141.22061 144.96259 151.0956 155.5788 163.6605 167.40248 178.61646 182.35843 187.5948 193.72782 205.68302 215.47434 222.94634 228.18271 235.65471 242.38549 247.88488 251.62685 256.4926 268.0772 273.3136 283.619 289.7759 296.8773 301.3605 308.09129">OM-A.2Role-LimitedAuthority(Day-1)</tspan></text>
<text xml:space="preserve" transform="matrix(1 0 -0 1 0 792)" font-size="10.9091" font-family="LMMono10"><tspan y="-688.448" x="72 77.72728 89.18184 94.90912 100.6364 112.09096 117.81824 123.54552 129.2728 135.00008 140.72736 146.45464 157.9092 163.63648 175.09104 180.81832 186.5456 192.27288 198.00016 203.72743 215.18199 220.90927 232.36383 238.09111 249.54567 255.27295 261.0002 266.72749 272.45475 278.182 283.90928 289.63655 295.3638 301.09107 306.81834 318.27287 324.00013 329.7274 335.45466 341.18193 346.90919 352.63645 358.3637 364.09098 375.5455 381.27278 387.00004 392.7273 404.18183 409.9091 415.63636 427.09089 432.81816 438.5454 444.27268 449.99995 455.7272 461.45448 472.909 478.63627 484.36354 495.81806 501.54533 507.27259 512.9999 518.7272 524.45449 530.18179 541.63638 547.36367 553.09097 558.81826">IFtheFounderisactinginanoperationalcapacity,THENtheFoundermayexecuteonly</tspan><tspan y="-674.899" x="72 77.72728 83.45456 89.18184 94.90912 100.6364 106.36368 112.09096 123.54552 129.2728 135.00008 140.72736 146.45464 152.18192 157.9092 163.63648 169.36376 175.09104 180.81832 192.27288 198.00016 203.72743 209.45471 215.18199 220.90927 226.63655 232.36383 238.09111 243.81839 249.54567 261.0002 266.72749 272.45475 278.182 283.90928 289.63655 295.3638 306.81834 312.5456 318.27287 324.00013 329.7274 335.45466 341.18193 346.90919 352.63645 364.09098 369.81825 375.5455 387.00004 392.7273 398.45457 404.18183 409.9091 421.36363 427.09089 432.81816 438.5454 444.27268 449.99995 455.7272 467.18174 472.909 484.36354 490.0908 495.81806 501.54533 507.27259 512.9999 518.7272 524.45449 530.18179 535.90908 541.63638 547.36367">routine,reversible,role-scopedactionsnecessaryforcare,safety,ormaintenance.</tspan><tspan y="-654.575" x="72 77.72728 89.18184 94.90912 100.6364 106.36368 112.09096 117.81824 123.54552 129.2728 135.00008 146.45464 152.18192 157.9092 163.63648 169.36376 175.09104 180.81832 186.5456 192.27288 203.72743 209.45471 220.90927 226.63655 232.36383 238.09111 243.81839 249.54567 255.27295 261.0002 272.45475 278.182 283.90928 289.63655 301.09107 306.81834 318.27287 324.00013 329.7274 335.45466 346.90919 352.63645 358.3637 364.09098 369.81825 375.5455 387.00004 392.7273 398.45457 404.18183 409.9091 421.36363 427.09089 432.81816 438.5454 449.99995 455.7272 461.45448 472.909 478.63627 484.36354 490.0908 495.81806 501.54533 507.27259 512.9999 518.7272 530.18179 535.90908 541.63638 547.36367 553.09097 558.81826 564.54556 570.2728 576.0001 581.7274">IFEmergencyAuthorityisinvoked,THENitmustcomplyfullywiththeEmergencyInvocation</tspan><tspan y="-641.026" x="72 77.72728 83.45456 94.90912 100.6364 106.36368 112.09096 117.81824 123.54552 129.2728 135.00008 140.72736 152.18192 157.9092 163.63648 169.36376 175.09104 186.5456 192.27288 198.00016 203.72743 209.45471 215.18199 220.90927 226.63655 238.09111 243.81839 249.54567 255.27295 261.0002 266.72749 272.45475 278.182 283.90928 289.63655 295.3638">andEmergencyScopeRegistryprovisions.</tspan><tspan y="-620.702" x="72 77.72728 89.18184 94.90912 106.36368 112.09096 117.81824 123.54552 129.2728 135.00008 146.45464 152.18192 157.9092 163.63648 169.36376 180.81832 186.5456 192.27288 198.00016 203.72743 209.45471 220.90927 226.63655 238.09111 243.81839 249.54567 255.27295 261.0002 266.72749 272.45475 278.182 283.90928 289.63655 295.3638 306.81834 312.5456 318.27287 324.00013 329.7274 335.45466 341.18193 346.90919 352.63645 364.09098 369.81825 375.5455 381.27278 387.00004 392.7273 398.45457 404.18183 409.9091 415.63636 421.36363 427.09089 438.5454 444.27268 449.99995 455.7272 461.45448 467.18174 472.909 484.36354 490.0908 495.81806 501.54533 507.27259 512.9999 518.7272 524.45449 530.18179 535.90908 547.36367 553.09097">IFanactionwouldcreateanobligation,contract,disciplinaryeffect,exclusion,or</tspan><tspan y="-607.153" x="72 77.72728 83.45456 89.18184 94.90912 100.6364 106.36368 112.09096 117.81824 123.54552 129.2728 135.00008 146.45464 152.18192 157.9092 163.63648 169.36376 175.09104 180.81832 186.5456 192.27288 198.00016 203.72743 215.18199 220.90927 226.63655 232.36383 243.81839 249.54567 255.27295 266.72749 272.45475 278.182 283.90928 289.63655 295.3638 306.81834 312.5456 318.27287 324.00013 335.45466 341.18193 346.90919 358.3637 364.09098 375.5455 381.27278 387.00004 392.7273 398.45457 404.18183">irreversiblecommitment,THENtheactionmustnotbetaken.</tspan><tspan y="-586.82907" x="72 77.72728 89.18184 94.90912 100.6364 112.09096 117.81824 123.54552 129.2728 135.00008 146.45464 152.18192 157.9092 163.63648 169.36376 175.09104 186.5456 192.27288 203.72743 209.45471 215.18199 220.90927 226.63655 232.36383 238.09111 249.54567 255.27295 266.72749 278.182 283.90928 289.63655 295.3638 301.09107 306.81834 312.5456 324.00013 329.7274 335.45466 341.18193 346.90919 352.63645 358.3637 364.09098 369.81825 375.5455 387.00004 392.7273 404.18183 409.9091 415.63636 421.36363 427.09089 432.81816 438.5454 444.27268 449.99995 455.7272 467.18174 472.909 478.63627 484.36354 490.0908 495.81806 501.54533 507.27259 512.9999 524.45449 530.18179 535.90908 541.63638">IFanyotherpersonispresentinahelper,volunteer,orcontractorcapacity,THEN</tspan><tspan y="-573.28" x="72 77.72728 83.45456 89.18184 100.6364 106.36368 112.09096 117.81824 123.54552 129.2728 140.72736 146.45464 152.18192 163.63648 169.36376 175.09104 186.5456 192.27288 198.00016 203.72743 215.18199 220.90927 226.63655 232.36383 238.09111 249.54567 255.27295 261.0002 266.72749 272.45475 278.182 283.90928 289.63655 301.09107 306.81834 312.5456 318.27287 324.00013 329.7274 335.45466 341.18193 346.90919 352.63645 358.3637 369.81825 375.5455 381.27278 387.00004 392.7273 398.45457 404.18183 409.9091 415.63636 421.36363 427.09089 438.5454 444.27268 455.7272 461.45448 467.18174 472.909 478.63627 484.36354 490.0908 495.81806 501.54533 512.9999 518.7272 524.45449 530.18179 535.90908 541.63638 547.36367 553.09097 558.81826 564.54556">thatpersonmayactonlyunderexplicitrole-scopedinstructionorEmergencyAuthority.</tspan><tspan y="-552.95608" x="72 77.72728 89.18184 94.90912 100.6364 106.36368 112.09096 117.81824 123.54552 129.2728 135.00008 146.45464 152.18192 163.63648 169.36376 175.09104 180.81832 186.5456 192.27288 198.00016 203.72743 215.18199 220.90927 226.63655 232.36383 243.81839 249.54567 255.27295 266.72749 272.45475 278.182 283.90928 289.63655 295.3638 306.81834 312.5456 318.27287 324.00013 335.45466 341.18193 346.90919 352.63645 364.09098 369.81825 375.5455 381.27278 387.00004 392.7273 404.18183 409.9091 421.36363 427.09089 438.5454 444.27268 449.99995 455.7272 461.45448 467.18174 472.909 478.63627 490.0908 495.81806 501.54533 507.27259 512.9999 518.7272 524.45449 530.18179 535.90908 541.63638 547.36367">IFauthorityisunclear,THENtheactionmusthaltunlessitisroutine,reversible,</tspan><tspan y="-539.40707" x="72 77.72728 83.45456 94.90912 100.6364 106.36368 112.09096 117.81824 123.54552 135.00008 140.72736 152.18192 157.9092 163.63648 169.36376 175.09104 180.81832 186.5456 192.27288 198.00016 203.72743 209.45471 220.90927 226.63655 232.36383 238.09111 243.81839 255.27295 261.0002 266.72749 272.45475 278.182 283.90928 289.63655 295.3638 301.09107 306.81834 318.27287 324.00013 329.7274 335.45466 341.18193 346.90919">andloggedasprovisionalunderGAP-BRIDGErules.</tspan></text>
<text xml:space="preserve" transform="matrix(1 0 -0 1 0 792)" font-size="11.9552" font-family="LMRoman12" font-weight="bold"><tspan y="-510.19807" x="72 82.10214 94.85834 99.34154 109.503459 113.24544 124.45942 137.21562 143.75511 151.22711 158.69911 165.2386 170.47498 177.20575 182.70514 194.28974 202.37145 209.10222 215.833 222.56377 226.30574 233.77774 244.99172 255.02213 261.15516 268.25654 275.72853 279.4705 284.96989 291.1029 302.3169 308.44993 315.55134 320.78773">OM-A.3MandatoryLoggingRequirements</tspan></text>
<text xml:space="preserve" transform="matrix(1 0 -0 1 0 792)" font-size="10.9091" font-family="LMMono10"><tspan y="-489.60508" x="72 77.72728 89.18184 94.90912 100.6364 112.09096 117.81824 129.2728 135.00008 140.72736 152.18192 157.9092 163.63648 169.36376 175.09104 180.81832 186.5456 192.27288 198.00016 209.45471 215.18199 220.90927 226.63655 232.36383 238.09111 249.54567 255.27295 261.0002 266.72749 278.182 283.90928 289.63655 301.09107 306.81834 312.5456 318.27287 324.00013 329.7274 341.18193 346.90919 352.63645 358.3637 369.81825 375.5455 387.00004 392.7273 398.45457 404.18183 409.9091 415.63636 427.09089 432.81816 444.27268 449.99995 455.7272 467.18174 472.909 478.63627 484.36354 495.81806 501.54533 512.9999 518.7272 524.45449 530.18179 535.90908 541.63638">IFanyofthefollowingoccur,THENtheactionmustbeloggedatthetimeofaction</tspan><tspan y="-476.05607" x="72 77.72728 89.18184 94.90912 100.6364 106.36368 112.09096 117.81824 123.54552 129.2728 135.00008 140.72736 146.45464 157.9092 163.63648 169.36376 175.09104 186.5456 192.27288 198.00016 203.72743 209.45471 215.18199 220.90927 226.63655 232.36383 238.09111 243.81839 249.54567 255.27295 261.0002">orimmediatelyuponstabilization:</tspan></text>
<text xml:space="preserve" transform="matrix(1 0 -0 1 0 792)" font-size="10.9091" font-family="LMRoman10"><tspan y="-449.75407" x="72">&#x2022;</tspan></text>
<text xml:space="preserve" transform="matrix(1 0 -0 1 0 792)" font-size="10.9091" font-family="LMRoman10"><tspan y="-449.75407" x="85.94183 93.37093 102.45821 107.31276 111.58913 117.04368 121.898227 127.963687 132.81824 142.21099 150.08736 156.16373 160.40737 166.47283 171.92737 176.20374 179.23647 183.17465 192.5674 195.60013 201.36014 206.8256 212.57469 217.42925 222.88379 227.12743 230.16016 235.6147">EmergencyAuthorityinvocation</tspan></text>
<text xml:space="preserve" transform="matrix(1 0 -0 1 0 792)" font-size="10.9091" font-family="LMRoman10"><tspan y="-427.43806" x="72">&#x2022;</tspan></text>
<text xml:space="preserve" transform="matrix(1 0 -0 1 0 792)" font-size="10.9091" font-family="LMRoman10"><tspan y="-427.43806" x="85.94183 93.37093 97.6473 102.796398 108.5564 111.58913 115.887317 118.920047 124.374599 130.44005 135.89459 142.57097 148.02552 155.93462 164.49826 172.68009 180.10918 183.74192 191.46556 199.49466 203.43285 211.7674 220.33104 231.39287 236.24742 241.70197 247.47289 251.71652 255.99289 261.44746 268.11289 274.17835 278.47654">ProvisionalorGAP-BRIDGEcontroluse</tspan></text>
<text xml:space="preserve" transform="matrix(1 0 -0 1 0 792)" font-size="10.9091" font-family="LMRoman10"><tspan y="-405.12205" x="72">&#x2022;</tspan></text>
<text xml:space="preserve" transform="matrix(1 0 -0 1 0 792)" font-size="10.9091" font-family="LMRoman10"><tspan y="-405.12205" x="85.53819 93.72002 99.48002 108.88366 114.33821 119.192768 123.4364 126.46913 131.92368 141.62187 147.07642 150.25643 153.43642 158.29097 163.14553 167.38916 170.42189 176.48735 185.57463 191.64009 197.09464 206.19283 213.76375 218.6183 221.65103 224.98921 230.44376 234.72013">Anyactionaffectingdogwelfare</tspan></text>
<text xml:space="preserve" transform="matrix(1 0 -0 1 0 792)" font-size="10.9091" font-family="LMRoman10"><tspan y="-382.80604" x="72">&#x2022;</tspan></text>
<text xml:space="preserve" transform="matrix(1 0 -0 1 0 792)" font-size="10.9091" font-family="LMRoman10"><tspan y="-382.80604" x="85.53819 93.72002 99.48002 108.88366 114.33821 119.192768 123.4364 126.46913 131.92368 141.62187 147.07642 150.25643 153.43642 158.29097 163.14553 167.38916 170.42189 176.48735 185.57463 191.33464 197.4001 206.48738 211.94193 221.65103 227.71649 230.74922 236.20377 242.26923 245.30196 249.24015">Anyactionaffectinghumandignity</tspan></text>
<text xml:space="preserve" transform="matrix(1 0 -0 1 0 792)" font-size="10.9091" font-family="LMRoman10"><tspan y="-360.48905" x="72">&#x2022;</tspan></text>
<text xml:space="preserve" transform="matrix(1 0 -0 1 0 792)" font-size="10.9091" font-family="LMRoman10"><tspan y="-360.48905" x="85.53819 93.72002 99.48002 108.88366 114.33821 119.192768 124.04732 128.89096 133.20006 141.13098 145.40735 150.2619 154.56009 158.80373 163.0801 166.11283 170.96738 175.21102 178.24375 183.69829">Anyaccessrestriction</tspan></text>
<text xml:space="preserve" transform="matrix(1 0 -0 1 0 792)" font-size="10.9091" font-family="LMRoman10"><tspan y="-338.17304" x="72">&#x2022;</tspan></text>
<text xml:space="preserve" transform="matrix(1 0 -0 1 0 792)" font-size="10.9091" font-family="LMRoman10"><tspan y="-338.17304" x="85.53819 93.72002 99.48002 108.88366 113.18185 118.6364 121.97459 126.82913 130.76732 140.16007 145.01462 150.46916 156.53462 162.60009 165.63282 169.87645 172.90918 178.36373">Anysafetycondition</tspan></text>
<text xml:space="preserve" transform="matrix(1 0 -0 1 0 792)" font-size="10.9091" font-family="LMRoman10"><tspan y="-315.85704" x="72">&#x2022;</tspan></text>
<text xml:space="preserve" transform="matrix(1 0 -0 1 0 792)" font-size="10.9091" font-family="LMRoman10"><tspan y="-315.85704" x="85.53819 93.72002 99.48002 108.88366 114.33821 118.6364 122.934589 127.78914 135.66551 141.73097 146.02916 154.51645 160.88736 165.74192 171.19647 176.65102 182.71648 192.42559 196.66922 200.94559 203.97832 209.73833 212.77106 218.2256 224.89107 229.74562 235.20017 241.26563 245.56381 251.62928 260.71656 266.782 271.02568 274.05839 279.51295">Anyassetusebeyondtrivialconsumption</tspan><tspan y="-289.55503" x="72 82.00365 85.03638 91.10184 94.13457 102.91639 108.98185 121.71277 125.989139 130.84369 136.6037 142.66916 145.70189 149.97826 154.8219 164.531 167.56374 173.01828 182.10556 185.13829 188.17102 193.02558 196.0583 202.12377 210.0656 216.13106 222.19652 226.47289 229.50562 235.57108 244.65836 250.72382 255.00019 259.85475 263.48747 267.76383 272.61839 278.07295 281.10566 285.40385 289.6475 293.92387 299.37843 303.62208 306.6548 312.10935 318.1748">Minimumrequiredlogfieldsduringpre-registration:</tspan></text>
<text xml:space="preserve" transform="matrix(1 0 -0 1 0 792)" font-size="10.9091" font-family="LMRoman10"><tspan y="-263.25404" x="72">&#x2022;</tspan></text>
<text xml:space="preserve" transform="matrix(1 0 -0 1 0 792)" font-size="10.9091" font-family="LMRoman10"><tspan y="-263.25404" x="85.5491 93.425479 96.458209 105.54549 110.40004 114.69823 118.941867 124.396419 133.4837">Timestamp</tspan></text>
<text xml:space="preserve" transform="matrix(1 0 -0 1 0 792)" font-size="10.9091" font-family="LMRoman10"><tspan y="-240.93703" x="72">&#x2022;</tspan></text>
<text xml:space="preserve" transform="matrix(1 0 -0 1 0 792)" font-size="10.9091" font-family="LMRoman10"><tspan y="-240.93703" x="85.53819 93.41456 98.269107 102.51274 107.96729">Actor</tspan></text>
<text xml:space="preserve" transform="matrix(1 0 -0 1 0 792)" font-size="10.9091" font-family="LMRoman10"><tspan y="-218.62104" x="72">&#x2022;</tspan></text>
<text xml:space="preserve" transform="matrix(1 0 -0 1 0 792)" font-size="10.9091" font-family="LMRoman10"><tspan y="-218.62104" x="85.94183 93.665477 99.120029 105.185489 111.250949 117.31641 122.17096 131.86916 135.21825 140.67279 145.51644 149.76007 155.83644 161.29099 167.95645 174.02191 178.87647 183.17465 188.0292 192.30558 195.3383 201.40377 205.6474 208.68013 214.13468">Boundedfactualdescription</tspan></text>
<text xml:space="preserve" transform="matrix(1 0 -0 1 0 792)" font-size="10.9091" font-family="LMRoman10"><tspan y="-196.30504" x="72">&#x2022;</tspan></text>
<text xml:space="preserve" transform="matrix(1 0 -0 1 0 792)" font-size="10.9091" font-family="LMRoman10"><tspan y="-196.30504" x="85.94183 93.97093 98.825489 104.28004 108.578227 114.032779 123.730968 128.58551 134.3455 140.41097 148.89826 153.14189 160.57099 170.57463 178.01464 185.73828 194.30193 201.73102 209.91284 217.78922 229.60378 238.69106 246.13106 253.8547 262.03654 270.21836 274.15653 280.222 284.16017 292.64744 300.82926 309.01109 319.46199 328.56019 336.2838 344.7711 352.9529 360.82929 364.76747 372.94929 380.3784">Reasoncode(EMERGENCY/PROVISIONAL/ROUTINE)</tspan></text>
<text xml:space="preserve" transform="matrix(1 0 -0 1 0 792)" font-size="10.9091" font-family="LMRoman10"><tspan y="-173.98804" x="72">&#x2022;</tspan></text>
<text xml:space="preserve" transform="matrix(1 0 -0 1 0 792)" font-size="10.9091" font-family="LMRoman10"><tspan y="-173.98804" x="85.94183 93.37093 99.130939 105.196399 108.229129 111.261859 116.11641 119.14914 127.025508 131.88005 137.64006 143.70552 146.73825 151.01462 156.46916 160.7128 163.74553 169.20008 175.26554 181.94191 184.97464 191.94556 197.4001 203.46556 209.53102 212.56375 215.59648 220.45104 225.90558 231.97104 235.00377">Explicitexpiration,ifapplicable</tspan></text>
<text xml:space="preserve" transform="matrix(1 0 -0 1 0 792)" font-size="10.9091" font-family="LMMono10"><tspan y="-147.68704" x="72 77.72728 89.18184 94.90912 100.6364 106.36368 112.09096 117.81824 123.54552 129.2728 135.00008 146.45464 152.18192 157.9092 163.63648 169.36376 175.09104 180.81832 192.27288 198.00016 209.45471 215.18199 220.90927 232.36383 238.09111 243.81839 249.54567 255.27295 261.0002 266.72749 272.45475 283.90928 289.63655 295.3638 306.81834 312.5456 324.00013 329.7274 335.45466 341.18193 346.90919 352.63645 364.09098 369.81825 375.5455 381.27278 392.7273 398.45457 404.18183 409.9091 415.63636 421.36363 427.09089 432.81816 438.5454 444.27268 449.99995 461.45448 467.18174 472.909 478.63627 490.0908 495.81806 501.54533 507.27259 512.9999 518.7272 524.45449 535.90908 541.63638 547.36367 553.09097">IFimmediateloggingisnotpossibleduetoactiveharmprevention,THENloggingmust</tspan><tspan y="-134.13805" x="72 77.72728 83.45456 89.18184 94.90912 106.36368 112.09096 123.54552 129.2728 135.00008 140.72736 152.18192 157.9092 169.36376 175.09104 180.81832 192.27288 198.00016 203.72743 209.45471 215.18199 220.90927 226.63655 232.36383 238.09111 249.54567 255.27295 261.0002 266.72749 272.45475 278.182 283.90928 289.63655 295.3638 301.09107 312.5456 318.27287 324.00013 335.45466 341.18193 346.90919 352.63645 364.09098 369.81825 375.5455 381.27278 387.00004 398.45457 404.18183 409.9091 421.36363 427.09089 432.81816 438.5454 444.27268 455.7272 461.45448 467.18174 472.909 478.63627 484.36354 490.0908">occurassoonastheconditionstabilizesandmuststatethedelayreason.</tspan><tspan y="-113.81405" x="72 77.72728 83.45456 89.18184 100.6364 106.36368 112.09096 117.81824 129.2728 135.00008 146.45464 152.18192 157.9092 163.63648 169.36376 175.09104 180.81832 186.5456 198.00016 203.72743 209.45471 215.18199 220.90927 226.63655 232.36383 238.09111 243.81839 249.54567 255.27295 261.0002 272.45475 278.182 289.63655 295.3638 301.09107 306.81834 312.5456 318.27287 324.00013 329.7274 341.18193 346.90919 352.63645 358.3637 364.09098 369.81825 375.5455 381.27278 387.00004 392.7273 404.18183 409.9091 415.63636 421.36363 427.09089 432.81816 438.5454 449.99995 455.7272 461.45448 467.18174 478.63627 484.36354 490.0908 501.54533 507.27259 512.9999 524.45449 530.18179 541.63638 547.36367 553.09097 558.81826 564.54556 570.2728 576.0001">Logsmustbereviewedperiodicallytoidentifycumulativeeffectsthatmaynotbeevident</tspan><tspan y="-100.265048" x="72 77.72728 83.45456 89.18184 100.6364 106.36368 112.09096 117.81824 123.54552 129.2728 135.00008 140.72736 146.45464 152.18192 163.63648 169.36376 175.09104 180.81832 186.5456 192.27288 198.00016 203.72743">fromindividualactions.</tspan></text>
<text xml:space="preserve" transform="matrix(1 0 -0 1 0 792)" font-size="10.9091" font-family="LMRoman10"><tspan y="-42.112047" x="300.54499 305.99955">10</tspan></text>
</svg>
