<svg xmlns="http://www.w3.org/2000/svg" xmlns:xlink="http://www.w3.org/1999/xlink" xmlns:inkscape="http://www.inkscape.org/namespaces/inkscape" version="1.1" width="612" height="792" viewBox="0 0 612 792">
<text xml:space="preserve" transform="matrix(1.0099504 0 -0 .99014756 0 792)" font-size="11.017651" font-family="LMRoman10"><tspan y="-716.0963" x="71.290637 77.58171 83.09053 86.153438 89.21635 95.342159 99.66107 108.68453 112.9704 122.58881 127.49166 133.00049 142.17819 148.30402 151.36692 156.26978 160.55564 169.5791 175.08794 183.51644 189.64226 195.44855 200.35141 206.47722 215.65494 220.55779 226.38614 234.7926 244.41103 248.72994 253.63278 259.4501 265.57594 268.63883 272.95777 277.8606 288.10704 292.42594 297.3288 303.14613 306.198 311.10084 323.17619 328.685 334.81083 339.09669 344.6055 353.7832 359.292 363.57789 366.64079 371.54365 377.05244 380.11537 383.17826 393.10517 397.44615 403.57197 407.92396 414.34724 419.2501 425.3759 431.5017 439.95228 444.23814 450.36396 459.3874 465.51319 469.83213 475.34095 479.62684 484.52967 489.4325 493.71839 496.78129 502.2901 512.52548 518.6513 524.4797 528.7655 531.8284">Failuretocompleteordocumentarequiredreviewautomaticallysuspendstheprotectionuntil</tspan></text>
<text xml:space="preserve" transform="matrix(1 0 -0 1 0 792)" font-size="10.9091" font-family="LMRoman10"><tspan y="-695.492" x="72 76.85455 82.92001 87.19638 92.050937 98.116397">cured.</tspan></text>
<text xml:space="preserve" transform="matrix(1 0 -0 1 0 792)" font-size="11.9552" font-family="LMRoman12" font-weight="bold"><tspan y="-666.283" x="72 78.73078 85.46156 89.203548">13.3</tspan></text>
<text xml:space="preserve" transform="matrix(1 0 -0 1 0 792)" font-size="11.9552" font-family="LMRoman12" font-weight="bold"><tspan y="-666.283" x="106.02451 113.49651 120.96851 126.4679 133.56929 137.31127 144.04206 150.77283 160.75542 170.85756 176.83516 182.81276 190.28476 197.75676 204.29625 211.76825 217.74585 229.33045 237.55562 243.05501 249.5945 257.0665 262.3746 266.11659 271.35298 275.09495 281.8257">SurvivorOccupancyTransition</tspan></text>
<text xml:space="preserve" transform="matrix(.9899495 0 -0 1.0101526 0 792)" font-size="10.799458" font-family="LMRoman10"><tspan y="-639.20046" x="72.73098 80.83057 87.13746 92.537189 102.07311 106.2741 112.2786 120.61579 126.74988 132.1496 138.1541 144.1586 150.1631 154.96886 159.20226 162.2045 169.9909 175.9954 180.80117 186.2009 190.40189 196.40639 202.96167 211.8928 216.1478 222.1523 226.38568 232.0878 235.09004 240.79216 243.79442 249.79892 258.73008 262.98506 269.29197 274.69169 280.69618 284.95118 293.28834 302.2843 307.38166 316.60438 321.41014 326.80986 332.51197 336.71293 339.71519 345.4173 351.4218 359.74818 365.46107 370.2668 375.07255 381.07707 386.76838 392.4705 395.47276 401.47724 410.40843 414.60939 420.6139 428.95106 433.18446 437.99018 442.24519 445.2474 451.25193 456.05766 462.06217 466.86793 475.20509 478.50975 483.90946 491.66346 494.66569 497.66795 500.97257 505.77833 512.3444 516.59939 522.6039 528.91079 532.2154 537.0211 541.8269">UpontheFounder&#x2019;sdeath,asurvivingspousemaycontinueoccupyingtheresidenceforlife,subject</tspan></text>
<text xml:space="preserve" transform="matrix(1 0 -0 1 0 792)" font-size="10.9091" font-family="LMRoman10"><tspan y="-632.141" x="72 76.24364 85.33092 89.574558 95.640018 104.13821 108.99275 114.4473 120.512767 124.81095 129.0546 133.33097 138.7855 141.81824 147.57825 151.82189 159.7528 166.12372 170.97827 174.011 179.1601 187.03647 193.71285 199.16739 205.23285 214.93105 223.71288 229.77834 234.07653 241.9638 248.02927 253.48381 261.36018 267.73109 276.21836 282.2838 285.31654 289.61473 295.68019 298.7129 304.16746 309.022 313.87657 323.58567 327.88386 333.3384 336.37113 341.22569 344.2475 353.65116 359.7166 365.78208 374.26936 378.513 387.6112 391.85487 397.92033 406.4076 412.6258 418.08036 424.1458 430.21128 436.27674 441.1313 445.40766 448.44038 456.37129 462.43675 467.2913 472.74586 476.9895 483.05497">totheconstraintsbelow,andmustnotbedisplacedsolelyduetotheFounder&#x2019;sdeath.</tspan><tspan y="-611.817" x="72 78.06546 84.13092 88.680019 98.389118 103.24367 108.69822 114.45822 118.70186 121.73459 127.49459 133.56005 138.4146 148.1128 153.87279 158.72734 163.5819 169.64736 175.71282 181.16736 187.23282 192.08737 197.84738">Suchcontinuedoccupancy:</tspan></text>
<text xml:space="preserve" transform="matrix(1 0 -0 1 0 792)" font-size="10.9091" font-family="LMRoman10"><tspan y="-585.516" x="72">&#x2022;</tspan></text>
<text xml:space="preserve" transform="matrix(1.0099504 0 -0 .99014756 0 792)" font-size="11.017651" font-family="LMRoman10"><tspan y="-591.34219" x="85.09329 88.1562 97.34492 107.701519 112.02043 116.92329 121.26424 124.32714 130.45298 135.35582 141.48165 146.38449 157.04959 163.1754 167.49433 173.00315 177.289 182.19187 187.09473 191.38059 194.4435 199.95232 210.9259 216.43474 222.56055 225.62346 236.28855 241.79738 247.92319 258.8968 263.79963 269.30845 275.13679 280.65663 285.55946 291.37678 300.5655 306.6913 317.04789 322.25923 330.21397 336.33979 341.2426 345.55055 349.90254 356.02833 359.09126 365.21705 373.43626 378.94505 384.15638 389.66523 394.56806 398.887 405.01283 410.52165 416.64744 421.5503 431.3009 436.8097 442.93553 447.2214 453.3472 458.85603 463.17497 466.23786 470.22627 475.14015 483.3703 486.4332 492.55903 497.46186 502.97068 512.1484 517.0513 525.27047 530.7793">isaresidencyprotectiononlyandconveysnoownership,governanceauthority,income,or</tspan></text>
<text xml:space="preserve" transform="matrix(1 0 -0 1 0 792)" font-size="10.9091" font-family="LMRoman10"><tspan y="-571.966" x="85.94 90.18364 94.46001 99.91456 105.98002 110.278209 113.616397 118.47095 122.747318 128.20186 134.26732 137.30005 140.33278 143.36551 147.3037 152.15825">transferability,</tspan></text>
<text xml:space="preserve" transform="matrix(1 0 -0 1 0 792)" font-size="10.9091" font-family="LMRoman10"><tspan y="-549.65" x="72">&#x2022;</tspan></text>
<text xml:space="preserve" transform="matrix(1 0 -0 1 0 792)" font-size="10.9091" font-family="LMRoman10"><tspan y="-549.65" x="85.94183 94.723659 100.789119 105.0873 112.97458 119.04004 124.49459 132.37097 141.45825 146.9128 151.15644 156.01099 160.28736 163.32009 168.77463 171.80736 174.84009 184.23284 187.26557 193.02558 197.26921 202.12377 206.40013 209.73831 214.59287 218.86923 227.36743 235.2438 238.27654 242.52017 252.21837 257.6729 264.04383 268.89839 273.17475 278.6293 282.87297 285.90568 291.36024 297.4257 305.3566 310.81117 318.72026 323.01844 328.473 331.82209 336.66575 340.61485 345.4585">mustnotmateriallyinterferewithoperationsorsafety,</tspan></text>
<text xml:space="preserve" transform="matrix(1 0 -0 1 0 792)" font-size="10.9091" font-family="LMRoman10"><tspan y="-527.33407" x="72">&#x2022;</tspan></text>
<text xml:space="preserve" transform="matrix(1 0 -0 1 0 792)" font-size="10.9091" font-family="LMRoman10"><tspan y="-527.33407" x="85.94183 94.723659 100.789119 105.0873 112.97458 119.04004 124.49459 132.37097 138.13098 141.16371 146.61826 149.65099 155.10553 159.34917 167.83646 173.90192 176.93465 183.0001 189.06557 192.0983 198.16376 207.26195 213.32741 217.60378 223.05832 229.12378 232.15651 238.22197 241.2547 245.49834 248.53107 253.98561 260.05107 267.98197 274.04743 280.11289 286.17835 291.0329 298.9529 303.19657 309.26203 312.29475 320.22566 326.2911 332.05113 336.90568 342.97114 352.0584 356.91297 362.67298 370.54936 376.0039 383.92393 389.37849 395.44395 401.5094 404.5421 407.57484 412.42939 417.88395 423.9494 426.98213 435.4694 438.5021 443.6512 451.5276">mustnotviolatebindingprohibitionsunderthisdocumentorapplicablelaw,</tspan></text>
<text xml:space="preserve" transform="matrix(1 0 -0 1 0 792)" font-size="10.9091" font-family="LMRoman10"><tspan y="-505.01707" x="72">&#x2022;</tspan></text>
<text xml:space="preserve" transform="matrix(1 0 -0 1 0 792)" font-size="10.9091" font-family="LMRoman10"><tspan y="-505.01707" x="85.94183 94.723659 100.789119 105.0873 112.97458 119.04004 123.31641 128.17096 132.46915 137.3237 141.60007 147.05463 155.54192 161.60738 164.6401 170.09465 176.16011 179.19284 183.13103 192.53469 197.98923 204.05469 213.75289 219.81835 225.27289 231.33835 235.63654 238.66927 244.73473 253.83292 258.1311 262.37477 267.8293 273.89479 276.9275 279.9602 282.99293 286.93113 296.32386 299.66206 305.1166 313.03663 317.28028 323.34574 331.833 336.1312 342.19667 346.47303 352.23304 355.26576 361.02577 364.05848 370.12394 379.2112 383.5094 389.8803 395.33488 401.40034 405.69853 410.55308">mustpreservedignityandhousingstabilityforthesurvivingspouse.</tspan></text>
<text xml:space="preserve" transform="matrix(1.0099504 0 -0 .99014756 0 792)" font-size="11.017651" font-family="LMRoman10"><tspan y="-483.47947" x="70.901508 78.85625 84.98206 94.53437 103.18323 108.38355 113.9034 118.80625 123.12517 129.25098 132.31389 138.4397 148.59798 156.39847 162.20478 168.33058 178.79735 187.97505 193.18642 203.64215 206.70507 215.88277 222.30605 227.81488 232.15584 241.70815 246.02707 250.92992 256.43876 260.77973 266.28855 272.41435 277.92317 284.04899 287.11189 292.0147 299.98048 306.1063 311.92359 316.82643 322.95225 332.12995 337.03279 342.8501 347.136 352.03883 362.8141 367.71693 373.22575 379.35157 385.47737 388.54029 392.82615 395.88908 401.3979 407.52369 416.5141 420.85505 426.36387 429.4268 434.32963 437.39253 447.8483 452.1342 462.29246 468.41825 472.73719 477.64 481.981 486.88383 491.20277 496.72264 506.2639 510.60484 516.11367 519.4961 524.388 528.37637 533.3012">TheGoverningBodymayimposereasonable,documentedconditionssolelytopreservesafety,</tspan><tspan y="-469.79566" x="71.290637 76.79946 83.22275 88.1256 92.44452 97.953357 102.23922 105.302127 110.81095 116.93676 122.44559 129.45282 134.35569 139.8645 145.68183 149.96768 153.03058 158.85894 164.98474 168.04766 172.03604 176.9499 184.04529 189.55411 197.80634 200.86923 205.7721 211.28093 216.78977 223.78597 228.68883 234.19766 243.37537 249.50118 252.56409 255.627 261.13584 267.26164 272.1645 277.06733 284.1627 290.28849 296.4143 304.63349 313.5137 319.6395 323.98048 332.21067 338.3365 343.8453 352.06449 355.12739 364.30509 370.72837 376.23719 380.57817 389.42533 393.7112 396.7741 405.9518 414.78797 417.85087 420.91377 430.09147 433.15437 437.44026 441.7812 448.87657 453.76838 459.58567 464.48854 468.80744 473.7103 476.7732 482.28205 491.1292 495.4151 500.31794 504.63688 513.8146 518.1556 525.2399 530.7488">operationalcontinuity,orlegalcompliance,butmustnotimposetimelimits,coerciveterms,or</tspan></text>
<text xml:space="preserve" transform="matrix(1 0 -0 1 0 792)" font-size="10.9091" font-family="LMRoman10"><tspan y="-451.618" x="72 78.06546 81.09819 85.39638 91.46184 94.49457 99.94912 104.803668 109.65822 118.7455 123.60005 129.36006 137.24735 142.70189 148.76735 153.06554 157.92009 163.6801 171.55648 175.85466 181.92012 186.46923 196.17833 202.24379 207.09835 211.9529 216.80745 221.10564 225.40383 228.43656 232.37474 237.2293">displacementabsentsuchnecessity.</tspan></text>
<text xml:space="preserve" transform="matrix(1 0 -0 1 0 792)" font-size="11.9552" font-family="LMRoman12" font-weight="bold"><tspan y="-422.409" x="72 78.73078 85.46156 89.203548">13.4</tspan></text>
<text xml:space="preserve" transform="matrix(1 0 -0 1 0 792)" font-size="11.9552" font-family="LMRoman12" font-weight="bold"><tspan y="-422.409" x="106.02451 113.49651 119.62953 125.12892 132.23032 135.97229 141.94989 148.0829 152.5661 162.13027 168.66976 173.97786 180.11087 192.06607 202.16822 208.14582 214.12342 221.59542 229.06742 235.6069 243.0789 249.0565">Service-BasedOccupancy</tspan></text>
<text xml:space="preserve" transform="matrix(.9899495 0 -0 1.0101526 0 792)" font-size="10.799458" font-family="LMRoman10"><tspan y="-397.77754" x="72.322879 83.97549 90.28238 95.088138 99.321529 103.57651 108.97624 118.53376 122.76715 128.16687 131.16912 135.4241 140.22986 149.7874 152.78964 162.34717 166.54816 172.55266 180.90065 187.03475 192.43448 198.43898 204.44348 210.45879 215.25374 219.48712 222.48938 230.2974 236.3019 241.70162 247.70612 251.9611 256.76689 262.77137 268.17109 271.17335 280.73088 289.7268 294.82417 304.07929 309.7814 314.58717 319.39289 325.3974 331.09953 340.34385 344.54484 350.56013 358.90809 363.14146 367.9472 372.20219 375.20445 381.20893 386.01469 392.0192 396.82493 405.1837 410.5834 416.58793 419.59019 428.8453 436.6425 442.647 445.64927 448.6515 456.99949 463.01478 468.4145 471.41676 477.42124 480.4235 486.42799 495.36994 504.3227 507.62733 513.63186 516.6341 519.6363 523.23257 527.4335 530.4357 539.43167 544.23739">ApersonraisedintheFounder&#x2019;shouseholdmayoccupytheresidenceonlywhileholdingafull-time,</tspan></text>
<text xml:space="preserve" transform="matrix(1 0 -0 1 0 792)" font-size="10.9091" font-family="LMRoman10"><tspan y="-388.267" x="72 78.37092 83.82547 89.89093 98.97821 102.01094 105.04367 111.10913 119.60732 127.17824 132.63278 136.90915 142.66916 145.70189 151.76735 160.85463 167.22554 172.68009 176.97827 180.011 184.25464 187.28737 192.74192 202.44011 210.31649 213.34922 217.59285 227.30196 231.5456 237.61106 246.09835 251.55289 255.82926 261.2838 266.73838 272.80384 275.83656 280.6911 286.14567 290.3893 293.42204 298.8766 308.57478 314.64024 320.7057 326.77116 331.6257 339.54573 343.8439 348.08757 353.5421 359.60758 365.67304 371.1276 375.40397 385.10215 389.9567 399.04399 405.10945 408.14216 413.29127 419.05128 428.13856 432.9931 438.764 446.64039 450.88404 455.7386 460.01496 469.10224 473.40043">bonafideworkingpositionwiththeorganizationunderstandardemploymentterms.</tspan><tspan y="-367.943" x="71.607 79.483379 85.548839 88.581569 96.51248 102.27249 107.127048 111.9816 118.04706 124.11252 129.56707 135.63253 140.48708 146.24709">Thisoccupancy:</tspan></text>
<text xml:space="preserve" transform="matrix(1 0 -0 1 0 792)" font-size="10.9091" font-family="LMRoman10"><tspan y="-341.641" x="72">&#x2022;</tspan></text>
<text xml:space="preserve" transform="matrix(1 0 -0 1 0 792)" font-size="10.9091" font-family="LMRoman10"><tspan y="-341.641" x="85.94183 90.18547 95.04002 99.31639 108.40367 111.4364 117.50186 122.95641 127.20005 132.0546 139.98552 145.44007 151.50553 155.74916 161.2037 170.29099 175.74553 179.98917 183.0219 187.87645 193.331 196.36373 199.39646 208.80011 214.86557 221.22557 226.68012 236.38922 241.24378 246.09833 250.39652 254.6947 260.14927 264.3929 267.42564 272.8802 282.57838 288.03294 295.01478 298.35298 304.41844 307.45115 310.48387 314.11659 318.36024 321.39295 330.48023 338.9675 343.2657 348.12025 352.3966 358.15663 361.18934 366.04389">terminatesautomaticallyuponcessationoffull-timeservice</tspan></text>
<text xml:space="preserve" transform="matrix(1 0 -0 1 0 792)" font-size="10.9091" font-family="LMRoman10"><tspan y="-319.32499" x="72">&#x2022;</tspan></text>
<text xml:space="preserve" transform="matrix(1 0 -0 1 0 792)" font-size="10.9091" font-family="LMRoman10"><tspan y="-319.32499" x="85.94183 90.79639 96.25094 102.3164 105.65459 110.50914 114.78551 122.71642 128.78188 137.88007 143.02916 150.90554 156.971 161.82555 166.10192 170.4001 176.46556 179.49829 189.19649 194.65103 202.57105 206.86923 212.9347 217.78925 222.6438 227.49835 231.79654 236.09473 239.12746 244.582 254.2802 258.55659 261.5893 267.04386 272.80387">confersnoownershiporsuccessionright</tspan></text>
<text xml:space="preserve" transform="matrix(1 0 -0 1 0 792)" font-size="10.9091" font-family="LMRoman10"><tspan y="-297.00898" x="72">&#x2022;</tspan></text>
<text xml:space="preserve" transform="matrix(1 0 -0 1 0 792)" font-size="10.9091" font-family="LMRoman10"><tspan y="-297.00898" x="85.94183 88.97456 96.90548 101.20367 107.26913 113.640048 116.97823 121.83278 126.68733 134.57462 138.81826 147.90554 152.14917 158.21463 166.70192 171.0001 176.45465 185.54193 194.04013 200.40013 205.25469 209.53105 212.86923 218.32378 222.60015 231.68743 237.14197 243.20743 248.06198 256.56019 262.01475 268.0802 277.77839 282.63294 288.0875 294.15296 300.2184 306.28388 311.13844 319.0148 323.313 327.55665 333.0112 339.08757 345.153 350.60758 354.88395 360.9494 368.8803 374.33488 382.26579 387.72035 393.49125 402.88398 408.33854 412.58219 418.64765 423.5022 431.4113 436.26585 445.35313 451.41859 454.4513 459.6004 465.06587 469.9204">issubjecttothesameperformanceandconductstandardsasanyotheremployee</tspan></text>
<text xml:space="preserve" transform="matrix(1 0 -0 1 0 792)" font-size="11.9552" font-family="LMRoman12" font-weight="bold"><tspan y="-267.8" x="72 78.73078 85.46156 89.203548">13.5</tspan></text>
<text xml:space="preserve" transform="matrix(1 0 -0 1 0 792)" font-size="11.9552" font-family="LMRoman12" font-weight="bold"><tspan y="-267.8" x="106.02451 116.54509 123.27587 130.74787 135.23107 144.054 151.1554 158.6274 165.16689 172.63889 177.94699 181.68897 188.41974 200.37494 206.91443 214.38643 226.34163 236.50356 243.60495 248.84133 252.5833 257.0665 266.26005 271.75944 277.89247 283.87007 290.00309 297.4751 303.60813 310.69758 320.41719 330.077 337.549 341.291">Non-ExpansionandAnti-PrecedentRule</tspan></text>
<text xml:space="preserve" transform="matrix(1 0 -0 1 0 792)" font-size="10.9091" font-family="LMRoman10"><tspan y="-247.20699" x="72 80.18182 89.269107 93.54547 98.400028 102.69821 105.73094 111.7964 116.650959 122.42187 126.665508 129.69823 135.15277 141.81824 146.0946 149.12734 154.58188 160.34189 168.21826 174.28372 180.34918 186.42555 191.2692 199.18921 203.43285 209.4983 212.53104 220.46196 224.76015 229.6147 234.46926 238.71289 241.74562 247.20017 253.26563">Noresidentialrightunderthissection:</tspan></text>
<text xml:space="preserve" transform="matrix(1 0 -0 1 0 792)" font-size="10.9091" font-family="LMRoman10"><tspan y="-220.90499" x="72">&#x2022;</tspan></text>
<text xml:space="preserve" transform="matrix(1 0 -0 1 0 792)" font-size="10.9091" font-family="LMRoman10"><tspan y="-220.90499" x="85.94183 95.02911 100.17821 109.58185 115.94186 124.44004 129.29459 135.0546 139.29824 144.15279 150.21825 156.2837 161.13826 170.83646 175.0801 184.16738 189.62192 195.68738 201.75284 204.78557 209.0292 212.06194 217.51648 223.58194 229.03649 235.71286 242.08377 246.93833 251.20378 255.51288 260.96745 267.0329">maybeextendedtoadditionalpersons</tspan></text>
<text xml:space="preserve" transform="matrix(1 0 -0 1 0 792)" font-size="10.9091" font-family="LMRoman10"><tspan y="-198.58899" x="72">&#x2022;</tspan></text>
<text xml:space="preserve" transform="matrix(1 0 -0 1 0 792)" font-size="10.9091" font-family="LMRoman10"><tspan y="-198.58899" x="85.94183 95.02911 100.17821 109.58185 115.94186 124.44004 129.89459 134.74915 140.8146 145.66916 149.94553 155.40007 158.4328 161.46553 166.30918 171.16373 180.87284 187.24375 192.0983 197.55286 203.0074 209.07286 218.77106 221.80379 226.04743 233.98926 240.05472 245.8038 250.65836 256.72383 265.8111 270.66566 276.43656 280.6802 285.53477 295.23295 301.2984 306.15296 311.0075 315.86207 320.16026 324.45845 327.49116 331.42936">maybegeneralizedbeyonditsdocumentednecessity</tspan></text>
<text xml:space="preserve" transform="matrix(1 0 -0 1 0 792)" font-size="10.9091" font-family="LMRoman10"><tspan y="-176.273" x="72">&#x2022;</tspan></text>
<text xml:space="preserve" transform="matrix(1 0 -0 1 0 792)" font-size="10.9091" font-family="LMRoman10"><tspan y="-176.273" x="85.94183 95.02911 100.17821 109.58185 115.94186 124.44004 130.5055 134.80368 139.65824 149.35643 154.81098 162.7419 168.81827 173.08373 177.93828 182.79283 187.64739 193.71285 198.5674 204.33832 212.21469 215.55287 221.00742 228.91652 232.2547 238.32016 242.5638 248.62926 252.90563 261.4038 267.46928 272.92384 278.9893 283.28749 286.3202 292.38566 301.47294 306.9275 311.20387 315.48023 320.93479 327.00025 332.4548 337.30937 346.39665 351.2512 357.0112 361.25486">maybeusedasprecedentforfuturehousingarrangements</tspan></text>
<text xml:space="preserve" transform="matrix(1 0 -0 1 0 792)" font-size="11.9552" font-family="LMRoman12" font-weight="bold"><tspan y="-147.064" x="72 78.73078 85.46156 89.203548">13.6</tspan></text>
<text xml:space="preserve" transform="matrix(1 0 -0 1 0 792)" font-size="11.9552" font-family="LMRoman12" font-weight="bold"><tspan y="-147.064" x="106.02451 116.18643 123.65843 131.13043 136.43854 147.05475 157.36014 161.10211 166.41022 173.51161 180.98361 187.5231 191.26508 195.00705 198.74304 202.47905 208.45665 214.99614 220.23252 223.97449 230.70526">AbuseDisqualification</tspan></text>
<text xml:space="preserve" transform="matrix(1.0099504 0 -0 .99014756 0 792)" font-size="11.017651" font-family="LMRoman10"><tspan y="-127.729457" x="70.89061 79.15385 84.982189 94.567539 97.63044 100.69335 106.81917 112.32799 119.16995 122.23286 125.29576 131.42159 137.5474 140.6103 146.73612 156.01299 161.5218 168.66126 176.92449 183.0503 189.18712 193.52809 202.19898 208.3248 214.4506 220.57642 225.47928 233.56624 239.69205 244.59491 249.49776 253.78363 256.84654 262.35536">AnyfinalfindingofAbuseunderSection</tspan></text>
<text xml:space="preserve" transform="matrix(1.0099504 0 -0 .99014756 0 792)" font-size="11.017651" font-family="LMRoman10"><tspan y="-127.729457" x="272.2602 277.769 283.27784 286.3297">18.4</tspan></text>
<text xml:space="preserve" transform="matrix(1.0099504 0 -0 .99014756 0 792)" font-size="11.017651" font-family="LMRoman10"><tspan y="-127.729457" x="295.61759 298.68049 307.8582 317.03587 321.93873 328.0645 331.12745 336.63624 340.92213 345.82496 348.88789 358.47325 362.75914 367.66197 371.9809 381.1586 384.2215 390.34733 395.8561 400.142 405.04484 413.15385 418.66267 421.7256 428.56755 434.69334 439.01228 444.5211 448.80699 453.7098 458.60163 462.8875 465.9504 471.45924 477.58503 485.70506 491.83085 497.95668 504.0825 508.98533 517.07229 521.3581 527.48397 530.5468">immediatelyterminatesallprotectionsunderthis</tspan></text>
<text xml:space="preserve" transform="matrix(1 0 -0 1 0 792)" font-size="10.9091" font-family="LMRoman10"><tspan y="-112.922" x="72 76.29819 81.15274 86.00729 90.25093 93.28366 98.73821 108.4364 111.77459 117.22914 125.14915 129.39279 135.45825 143.94554 149.40009 152.5801 155.76009 160.61464 166.6801 172.74556 175.77829 181.84375 190.93103 193.96376 200.02922 206.09468 209.12741 214.88742 217.92015 223.98561 230.06198 235.51653 238.53835">sectionfortheoffendingindividual.</tspan><tspan y="-92.598" x="72 82.00365 88.06911 92.312747 97.767299 103.832759 106.865489 109.89822 112.93095 116.869129 122.62913 130.5164 138.69823 144.76369 149.31279 155.37825 160.8328 166.89826 172.3528 177.20735 182.6619 188.72736 191.76009">Mutability:Unchangeable</tspan></text>
<text xml:space="preserve" transform="matrix(1 0 -0 1 0 792)" font-size="10.9091" font-family="LMRoman10"><tspan y="-42.112" x="300.54499 305.99955">43</tspan></text>
</svg>
