<svg xmlns="http://www.w3.org/2000/svg" xmlns:xlink="http://www.w3.org/1999/xlink" xmlns:inkscape="http://www.inkscape.org/namespaces/inkscape" version="1.1" width="612" height="792" viewBox="0 0 612 792">
<text xml:space="preserve" transform="matrix(1 0 -0 1 0 792)" font-size="17.2154" font-family="LMRoman17"><tspan y="-665.305" x="248.826 260.7563 267.74574 284.44465 296.61595 304.5178 312.41966 320.3215 327.31095 333.40519 337.70906 345.6109 354.40797">NewDoggerland</tspan><tspan y="-643.38699" x="230.09401 242.59239 250.04666 257.94853 264.93797 271.0322 279.82926 287.7311 296.52818 303.5176 315.70613 324.50318 331.0278 339.82487 346.8143 355.61137 364.40843 368.71229 375.70173">GovernanceSchedules</tspan><tspan y="-621.469" x="164.77701 173.57408 180.11594 188.91301 195.90247 204.69954 213.49662 217.80046 229.98897 247.10108 257.49919 272.13227 280.03413 286.12837 293.1178 299.21205 303.5159 311.41777 320.92066 332.40333 339.39277 345.487 349.79087 357.69273 371.68885 383.18873 391.98579 398.08003 405.06947 411.2498 420.04685 427.9487 432.25257 441.04963">ScheduleA-MaterialActionThresholds</tspan></text>
<text xml:space="preserve" transform="matrix(1 0 -0 1 0 792)" font-size="14.3462" font-family="LMRoman12" font-weight="bold"><tspan y="-532.403" x="72.00001 83.66347 91.74038 100.262027 106.54566 113.905269 122.42691 128.71054">Contents</tspan></text>
<text xml:space="preserve" transform="matrix(1 0 -0 1 0 792)" font-size="10.9091" font-family="LMRoman10" font-weight="bold"><tspan y="-503.919" x="72.00001 88.36366 95.33458 100.210948 106.309139 111.1855 118.15642 127.28733 133.38552 140.35643 151.51645 160.64737 167.61829 172.49466 179.46558 185.73831 190.90923 194.38922 198.9165">1StatusandAuthority</tspan></text>
<text xml:space="preserve" transform="matrix(1 0 -0 1 0 792)" font-size="10.9091" font-family="LMRoman10" font-weight="bold"><tspan y="-503.919" x="533.72769">2</tspan></text>
<text xml:space="preserve" transform="matrix(1 0 -0 1 0 792)" font-size="10.9091" font-family="LMRoman10" font-weight="bold"><tspan y="-479.461" x="72.00001 88.36366 98.22549 103.97458 110.945499 116.69459 121.8655 127.96369 135.62189 144.68735 151.65827 155.13826">2GeneralRule</tspan></text>
<text xml:space="preserve" transform="matrix(1 0 -0 1 0 792)" font-size="10.9091" font-family="LMRoman10" font-weight="bold"><tspan y="-479.461" x="533.727">2</tspan></text>
<text xml:space="preserve" transform="matrix(1 0 -0 1 0 792)" font-size="10.9091" font-family="LMRoman10" font-weight="bold"><tspan y="-455.003" x="72 88.363658 96.26184 99.741847 106.71276 112.81095 119.78187 125.356418 128.83641 134.9346 142.59279 151.65825 157.93099 168.3819 178.83281 182.32372 187.20009 197.651 203.4001 210.02193 214.8983 224.02922 230.12741 237.09833 248.24744 255.21836 262.53837 268.28746 275.25837 282.22929 285.7093 292.6802">3FinancialCommitmentsandSpending</tspan></text>
<text xml:space="preserve" transform="matrix(1 0 -0 1 0 792)" font-size="10.9091" font-family="LMRoman10" font-weight="bold"><tspan y="-455.003" x="533.7168">2</tspan></text>
<text xml:space="preserve" transform="matrix(1 0 -0 1 0 792)" font-size="10.9091" font-family="LMRoman10"><tspan y="-441.45399" x="88.364 93.81855 96.85128 113.45493 119.52039 122.55312 128.61858 134.07312 137.10585 145.60405 153.03314 158.79315 165.15316 170.0077 176.07317 182.13863 185.17136 189.415 195.48046 199.75682 208.25502 216.1314 222.19686 226.47322 231.32778 235.62596 241.69142 247.14597 250.1787 256.24415">3.1SingleExpenditureThresholds</tspan></text>
<text xml:space="preserve" transform="matrix(1 0 -0 1 0 792)" font-size="10.9091" font-family="LMRoman10"><tspan y="-441.45399" x="269.95689 278.44416 286.93144 295.4187 303.90599 312.39326 320.88053 329.3678 337.85508 346.34236 354.82963 363.3169 371.80418 380.29145 388.77873 397.266 405.75328 414.24055 422.7278 431.2151 439.70237 448.18965 456.6769 465.16419 473.65147 482.13874 490.626 499.11329 507.60057 516.0769">..............................</tspan></text>
<text xml:space="preserve" transform="matrix(1 0 -0 1 0 792)" font-size="10.9091" font-family="LMRoman10"><tspan y="-441.45399" x="534.6987">2</tspan></text>
<text xml:space="preserve" transform="matrix(1 0 -0 1 0 792)" font-size="10.9091" font-family="LMRoman10"><tspan y="-427.904" x="88.364 93.81855 96.85128 113.05129 121.233119 126.68767 132.14221 136.41858 141.27313 146.72768 152.18222 156.42586 164.91315 170.9786 177.34952 182.20407 188.26953 194.33499 197.36772 203.43318 212.53137 220.40775 226.4732 230.74958 235.60413 239.90232 245.96778 251.42232 254.45505 260.5205">3.2AggregateSpendingThresholds</tspan></text>
<text xml:space="preserve" transform="matrix(1 0 -0 1 0 792)" font-size="10.9091" font-family="LMRoman10"><tspan y="-427.904" x="269.94599 278.43327 286.92054 295.4078 303.89509 312.38236 320.86964 329.3569 337.84419 346.33146 354.81874 363.29508 371.78236 380.26963 388.7569 397.24418 405.73146 414.21873 422.706 431.19328 439.68055 448.16783 456.6551 465.14237 473.62965 482.1169 490.6042 499.09147 507.57875 516.066">..............................</tspan></text>
<text xml:space="preserve" transform="matrix(1 0 -0 1 0 792)" font-size="10.9091" font-family="LMRoman10"><tspan y="-427.904" x="534.6769">2</tspan></text>
<text xml:space="preserve" transform="matrix(1 0 -0 1 0 792)" font-size="10.9091" font-family="LMRoman10"><tspan y="-414.35499" x="88.364 93.81855 96.85128 113.45493 121.33131 126.78586 132.54587 136.7895 141.06587 146.52042 151.37497 155.6186 163.56044 169.01499 175.08045 184.77864 193.26592 199.33138 204.78592 210.24047 213.2732 219.33866 228.43685 236.92412 242.98958 246.02231 249.05504 254.50959 259.96415 264.2078 267.2405 272.69508 278.76054">3.3ContractsandOngoingObligations</tspan></text>
<text xml:space="preserve" transform="matrix(1 0 -0 1 0 792)" font-size="10.9091" font-family="LMRoman10"><tspan y="-414.35499" x="286.8987 295.386 303.87327 312.36054 320.8478 329.33509 337.82237 346.30964 354.7969 363.28419 371.77146 380.25874 388.746 397.23329 405.72056 414.20783 422.6951 431.18238 439.65873 448.146 456.63328 465.12055 473.60783 482.0951 490.58238 499.06965 507.55693 516.0442">............................</tspan></text>
<text xml:space="preserve" transform="matrix(1 0 -0 1 0 792)" font-size="10.9091" font-family="LMRoman10"><tspan y="-414.35499" x="534.666">3</tspan></text>
<text xml:space="preserve" transform="matrix(1 0 -0 1 0 792)" font-size="10.9091" font-family="LMRoman10" font-weight="bold"><tspan y="-389.89698" x="72 88.363658 96.58912 102.33821 107.509128 112.46185 118.73459 125.705509 132.67642 138.42552 146.08371 152.1819 159.15282 170.31284 179.3783 185.65103 196.10195 203.42195 209.17105 216.14197 221.0947 227.19289 232.06926 235.54926 241.82199">4PersonnelandCompensation</tspan></text>
<text xml:space="preserve" transform="matrix(1 0 -0 1 0 792)" font-size="10.9091" font-family="LMRoman10" font-weight="bold"><tspan y="-389.89698" x="533.73867">3</tspan></text>
<text xml:space="preserve" transform="matrix(1 0 -0 1 0 792)" font-size="10.9091" font-family="LMRoman10" font-weight="bold"><tspan y="-365.43898" x="72 87.88365 97.36366 102.31639 107.26912 113.01821 117.89458 127.0364 133.13459 140.1055 151.25461 158.80371 164.9019 171.87282">5AssetsandLand</tspan></text>
<text xml:space="preserve" transform="matrix(1 0 -0 1 0 792)" font-size="10.9091" font-family="LMRoman10" font-weight="bold"><tspan y="-365.43898" x="533.7386">3</tspan></text>
<text xml:space="preserve" transform="matrix(1 0 -0 1 0 792)" font-size="10.9091" font-family="LMRoman10" font-weight="bold"><tspan y="-340.97999" x="72 88.363658 97.98548 103.73457 107.21458 112.96367 119.236408 125.334598 130.21097 133.69097 139.9637 151.11281 157.211 164.18192 175.34192 184.47284 191.44376 196.32013 203.29105 209.56378 214.7347 218.21469 222.74198">6DelegationandAuthority</tspan></text>
<text xml:space="preserve" transform="matrix(1 0 -0 1 0 792)" font-size="10.9091" font-family="LMRoman10" font-weight="bold"><tspan y="-340.97999" x="533.7168">3</tspan></text>
<text xml:space="preserve" transform="matrix(1 0 -0 1 0 792)" font-size="10.9091" font-family="LMRoman10" font-weight="bold"><tspan y="-316.52198" x="72 88.363658 96.61093 107.06185 112.81094 117.98186 124.25459 130.0037 136.97461 142.54917 153.34918 159.44738 166.41829 177.57831 185.82559 192.44742 198.02198 203.77108 210.74199 215.61837 219.09836 225.3711 236.5202 246.17476 251.12749">7EmergencyandExceptionUse</tspan></text>
<text xml:space="preserve" transform="matrix(1 0 -0 1 0 792)" font-size="10.9091" font-family="LMRoman10" font-weight="bold"><tspan y="-316.52198" x="533.73867">4</tspan></text>
<text xml:space="preserve" transform="matrix(1 0 -0 1 0 792)" font-size="10.9091" font-family="LMRoman10" font-weight="bold"><tspan y="-292.06398" x="72 88.363658 93.120029 99.74185 104.61822 110.36731 115.53822 121.63641 127.21096 132.08733 135.56732 141.84006 152.98917 165.96009 169.44008 174.31645 185.47647 194.90193 202.22194 207.97104 213.14196 219.24015 224.11652 227.59651 233.86925 240.84017 246.93836 254.59654 266.50929 272.60746 279.22929 286.2002 292.29838 295.77839">8InteractionWithOperationalManuals</tspan></text>
<text xml:space="preserve" transform="matrix(1 0 -0 1 0 792)" font-size="10.9091" font-family="LMRoman10" font-weight="bold"><tspan y="-292.06398" x="533.7168">4</tspan></text>
<text xml:space="preserve" transform="matrix(1 0 -0 1 0 792)" font-size="10.9091" font-family="LMRoman10"><tspan y="-42.11197" x="303.273">1</tspan></text>
</svg>
