<svg xmlns="http://www.w3.org/2000/svg" xmlns:xlink="http://www.w3.org/1999/xlink" xmlns:inkscape="http://www.inkscape.org/namespaces/inkscape" version="1.1" width="612" height="792" viewBox="0 0 612 792">
<text xml:space="preserve" transform="matrix(1 0 -0 1 0 792)" font-size="10.9091" font-family="LMRoman10"><tspan y="-709.041" x="72">&#x2022;</tspan></text>
<text xml:space="preserve" transform="matrix(1 0 -0 1 0 792)" font-size="10.9091" font-family="LMMono10"><tspan y="-709.041" x="85.94183 91.66911 97.39639 103.12367 108.85095 114.57823 120.30551 126.03279 131.76007 137.48735 143.21463 148.94191 154.66919 160.39647">SPACE.BUILDING</tspan></text>
<text xml:space="preserve" transform="matrix(.9899495 0 -0 1.0101526 0 792)" font-size="10.799458" font-family="LMRoman10"><tspan y="-701.91476" x="167.80754">,</tspan></text>
<text xml:space="preserve" transform="matrix(1 0 -0 1 0 792)" font-size="10.9091" font-family="LMMono10"><tspan y="-709.041" x="171.515 177.24228 182.96956 188.69684 194.42412 200.1514 205.87868 211.60596 217.33324 223.06052">SPACE.ROOM</tspan></text>
<text xml:space="preserve" transform="matrix(.9899495 0 -0 1.0101526 0 792)" font-size="10.799458" font-family="LMRoman10"><tspan y="-701.91476" x="231.11075">,</tspan></text>
<text xml:space="preserve" transform="matrix(1 0 -0 1 0 792)" font-size="10.9091" font-family="LMMono10"><tspan y="-709.041" x="234.182 239.90929 245.63657 251.36385 257.09114 262.8184 268.54566 274.27293 280.00019 285.72746 291.4547 297.18199 302.90925 308.6365">SPACE.CORRIDOR</tspan></text>
<text xml:space="preserve" transform="matrix(.9899495 0 -0 1.0101526 0 792)" font-size="10.799458" font-family="LMRoman10"><tspan y="-701.91476" x="317.55458">,</tspan></text>
<text xml:space="preserve" transform="matrix(1 0 -0 1 0 792)" font-size="10.9091" font-family="LMMono10"><tspan y="-709.041" x="319.757 325.48426 331.21153 336.93879 342.66606 348.3933 354.12059 359.84785 365.5751 371.30238 377.02964">SPACE.TRAIL</tspan></text>
<text xml:space="preserve" transform="matrix(.9899495 0 -0 1.0101526 0 792)" font-size="10.799458" font-family="LMRoman10"><tspan y="-701.91476" x="386.6429">,</tspan></text>
<text xml:space="preserve" transform="matrix(1 0 -0 1 0 792)" font-size="10.9091" font-family="LMMono10"><tspan y="-709.041" x="388.151 393.87828 399.60554 405.3328 411.06007 416.78733 422.5146 428.24186 433.96913 439.69639 445.42366">SPACE.FIELD</tspan></text>
<text xml:space="preserve" transform="matrix(.9899495 0 -0 1.0101526 0 792)" font-size="10.799458" font-family="LMRoman10"><tspan y="-701.91476" x="455.7313">,</tspan></text>
<text xml:space="preserve" transform="matrix(1 0 -0 1 0 792)" font-size="10.9091" font-family="LMMono10"><tspan y="-709.041" x="456.545 462.27229 467.99955 473.7268 479.45408 485.18135 490.9086 496.63587 502.36314 508.0904 513.8177 519.545 525.2723 530.9996 536.72689 542.45419 548.18148 553.90878 559.63607">SPACE.WATER_FEATURE</tspan></text>
<text xml:space="preserve" transform="matrix(.9899495 0 -0 1.0101526 0 792)" font-size="10.799458" font-family="LMRoman10"><tspan y="-701.91476" x="571.1018">,</tspan></text>
<text xml:space="preserve" transform="matrix(1 0 -0 1 0 792)" font-size="10.9091" font-family="LMMono10"><tspan y="-695.492" x="85.94 91.66728 97.39456 103.12184 108.84912 114.5764 120.30368 126.03096 131.75824 137.48552 143.2128 148.94008 154.66736">SPACE.PARKING</tspan></text>
<text xml:space="preserve" transform="matrix(1 0 -0 1 0 792)" font-size="10.9091" font-family="LMRoman10"><tspan y="-673.176" x="72">&#x2022;</tspan></text>
<text xml:space="preserve" transform="matrix(1 0 -0 1 0 792)" font-size="10.9091" font-family="LMMono10"><tspan y="-673.176" x="85.658199 91.385478 97.112758 102.840038 108.567317 114.29459 120.02187 125.74915 131.47643 137.2037 142.93099 148.65827 154.38555 160.11283 165.8401 171.56739 177.29467">ASSET.UTILITY.GAS</tspan></text>
<text xml:space="preserve" transform="matrix(.9899495 0 -0 1.0101526 0 792)" font-size="10.799458" font-family="LMRoman10"><tspan y="-666.4102" x="184.87508">,</tspan></text>
<text xml:space="preserve" transform="matrix(1 0 -0 1 0 792)" font-size="10.9091" font-family="LMMono10"><tspan y="-673.176" x="189.375 195.10228 200.82956 206.55684 212.28412 218.0114 223.73868 229.46596 235.19324 240.92052 246.6478 252.37508 258.10237 263.82963 269.5569 275.28416 281.0114 286.73869 292.46595 298.1932 303.92048 309.64775">ASSET.UTILITY.ELECTRIC</tspan></text>
<text xml:space="preserve" transform="matrix(.9899495 0 -0 1.0101526 0 792)" font-size="10.799458" font-family="LMRoman10"><tspan y="-666.4102" x="318.57685">,</tspan></text>
<text xml:space="preserve" transform="matrix(1 0 -0 1 0 792)" font-size="10.9091" font-family="LMMono10"><tspan y="-673.176" x="321.733 327.46028 333.18754 338.9148 344.64207 350.36933 356.0966 361.82386 367.55113 373.27839 379.00566 384.7329 390.46018 396.18745 401.9147 407.64198 413.36924 419.0965 424.82377">ASSET.UTILITY.WATER</tspan></text>
<text xml:space="preserve" transform="matrix(.9899495 0 -0 1.0101526 0 792)" font-size="10.799458" font-family="LMRoman10"><tspan y="-666.4102" x="434.92216">,</tspan></text>
<text xml:space="preserve" transform="matrix(1 0 -0 1 0 792)" font-size="10.9091" font-family="LMMono10"><tspan y="-673.176" x="436.909 442.63627 448.36354 454.0908 459.81806 465.54533 471.27259 476.99986 482.7271 488.45439 494.18165 499.9089 505.63618 511.36344 517.0907 522.818 528.5453 534.2726">ASSET.UTILITY.HVAC</tspan></text>
<text xml:space="preserve" transform="matrix(1 0 -0 1 0 792)" font-size="10.9091" font-family="LMRoman10"><tspan y="-650.859" x="72">&#x2022;</tspan></text>
<text xml:space="preserve" transform="matrix(1 0 -0 1 0 792)" font-size="10.9091" font-family="LMMono10"><tspan y="-650.859" x="85.658199 91.385478 97.112758 102.840038 108.567317 114.29459 120.02187 125.74915 131.47643 137.2037 142.93099 148.65827 154.38555 160.11283 165.8401 171.56739 177.29467 183.02194 188.74922 194.4765 200.20378">ASSET.SAFETY.FIRE_EXT</tspan></text>
<text xml:space="preserve" transform="matrix(.9899495 0 -0 1.0101526 0 792)" font-size="10.799458" font-family="LMRoman10"><tspan y="-644.3175" x="208.01665">,</tspan></text>
<text xml:space="preserve" transform="matrix(1 0 -0 1 0 792)" font-size="10.9091" font-family="LMMono10"><tspan y="-650.859" x="211.32 217.04729 222.77457 228.50185 234.22913 239.9564 245.68369 251.41097 257.13825 262.8655 268.59278 274.32005 280.0473 285.77458 291.50184 297.2291">ASSET.SAFETY.AED</tspan></text>
<text xml:space="preserve" transform="matrix(.9899495 0 -0 1.0101526 0 792)" font-size="10.799458" font-family="LMRoman10"><tspan y="-644.3175" x="306.03175">,</tspan></text>
<text xml:space="preserve" transform="matrix(1 0 -0 1 0 792)" font-size="10.9091" font-family="LMMono10"><tspan y="-650.859" x="308.35 314.07728 319.80455 325.5318 331.25907 336.98634 342.7136 348.44087 354.16813 359.8954 365.62266 371.3499 377.07719 382.80445 388.5317 394.25898 399.98625 405.7135 411.44078 417.16804 422.8953 428.62257">ASSET.SAFETY.FIRST_AID</tspan></text>
<text xml:space="preserve" transform="matrix(.9899495 0 -0 1.0101526 0 792)" font-size="10.799458" font-family="LMRoman10"><tspan y="-644.3175" x="438.7587">,</tspan></text>
<text xml:space="preserve" transform="matrix(1 0 -0 1 0 792)" font-size="10.9091" font-family="LMMono10"><tspan y="-650.859" x="439.743 445.47029 451.19755 456.9248 462.65208 468.37934 474.1066 479.83387 485.56114 491.2884 497.01567 502.74293 508.47019 514.19747 519.92477 525.65206 531.37936 537.1066 542.8339 548.5612 554.2885 560.0158 565.7431 571.4704 577.1977 582.925">ASSET.SAFETY.BARRICADE_KIT</tspan></text>
<text xml:space="preserve" transform="matrix(.9899495 0 -0 1.0101526 0 792)" font-size="10.799458" font-family="LMRoman10"><tspan y="-644.3175" x="594.62826">,</tspan></text>
<text xml:space="preserve" transform="matrix(1 0 -0 1 0 792)" font-size="10.9091" font-family="LMMono10"><tspan y="-637.31" x="85.653 91.38028 97.10756 102.83484 108.56212 114.2894 120.01668 125.74396 131.47124 137.19852 142.9258 148.65308 154.38036 160.10764 165.83492 171.5622 177.28948 183.01676 188.74404 194.47132">ASSET.SAFETY.SIGNAGE</tspan></text>
<text xml:space="preserve" transform="matrix(1 0 -0 1 0 792)" font-size="10.9091" font-family="LMRoman10"><tspan y="-614.994" x="72">&#x2022;</tspan></text>
<text xml:space="preserve" transform="matrix(1 0 -0 1 0 792)" font-size="10.9091" font-family="LMMono10"><tspan y="-614.994" x="85.94183 91.66911 97.39639 103.12367 108.85095 114.57823 120.30551 126.03279 131.76007 137.48735 143.21463 148.94191 154.66919 160.39647 166.12375 171.85103 177.57831 183.30559 189.03287 194.76015 200.48743">SYSTEM.ACCESS_CONTROL</tspan></text>
<text xml:space="preserve" transform="matrix(1 0 -0 1 0 792)" font-size="10.9091" font-family="LMRoman10"><tspan y="-592.677" x="72">&#x2022;</tspan></text>
<text xml:space="preserve" transform="matrix(1 0 -0 1 0 792)" font-size="10.9091" font-family="LMMono10"><tspan y="-592.677" x="85.94183 91.66911 97.39639 103.12367 108.85095 114.57823 120.30551 126.03279 131.76007 137.48735 143.21463 148.94191 154.66919 160.39647 166.12375 171.85103 177.57831 183.30559 189.03287 194.76015 200.48743 206.2147">SYSTEM.LOGGING_PRIMARY</tspan></text>
<text xml:space="preserve" transform="matrix(1 0 -0 1 0 792)" font-size="10.9091" font-family="LMRoman10"><tspan y="-592.677" x="211.94199">,</tspan></text>
<text xml:space="preserve" transform="matrix(1 0 -0 1 0 792)" font-size="10.9091" font-family="LMMono10"><tspan y="-592.677" x="218.60746 224.33473 230.06201 235.78929 241.51657 247.24385 252.97113 258.6984 264.42567 270.15293 275.8802 281.60746 287.33473 293.06199 298.78926 304.5165 310.24378 315.97105 321.6983 327.42558 333.15284 338.8801">SYSTEM.LOGGING_OFFLINE</tspan></text>
<text xml:space="preserve" transform="matrix(1 0 -0 1 0 792)" font-size="10.9091" font-family="LMRoman10"><tspan y="-566.376" x="72 78.218189 82.49455 87.349109 92.20366 95.83639 100.080028 104.93457 110.69457 118.57094 124.02549 130.3964 133.73458 138.58913 143.44368 151.32006 155.59642 160.45098 163.78916 168.6437 172.92008 177.77463 183.84009 188.69464 193.5492 201.48012 206.93466 211.21103 219.69832 222.73105 228.50197 233.65106 239.1056 242.13834 245.17107 251.23653">Free-textobjectreferencesareinvalid.</tspan></text>
<text xml:space="preserve" transform="matrix(1 0 -0 1 0 792)" font-size="11.9552" font-family="LMRoman12" font-weight="bold"><tspan y="-537.167" x="72 78.73078 82.47276">9.4</tspan></text>
<text xml:space="preserve" transform="matrix(1 0 -0 1 0 792)" font-size="11.9552" font-family="LMRoman12" font-weight="bold"><tspan y="-537.167" x="99.29373 108.11667 112.59987 119.33065 126.06143 137.2754 146.2418 151.25104 162.46501 173.67899 179.812 187.284 191.02597 197.56546 202.80184 213.41805 226.17424 232.30725 239.77925 243.52123 249.49883 256.03834 264.26353 273.08647 284.30046 290.43348 295.93287 302.66365 308.79667 316.26869 322.24629 333.83088 339.06727 349.58784 357.0598 368.2738 374.8133 382.28529">E-001-ImmediateMedicalEmergency(Human)</tspan></text>
<text xml:space="preserve" transform="matrix(1.0099504 0 -0 .99014756 0 792)" font-size="11.017651" font-family="LMRoman10" font-weight="bold"><tspan y="-521.7142" x="70.85595 78.634418 83.85678 87.371417 93.70656 100.04171 105.84801 116.94278 123.98306 128.90796 135.06684 142.10712 149.1474 155.30626 160.52864 167.56893">TriggerStandard:</tspan></text>
<text xml:space="preserve" transform="matrix(1.0099504 0 -0 .99014756 0 792)" font-size="11.017651" font-family="LMRoman10"><tspan y="-521.7142" x="178.9061 187.47783 193.60364 197.94461 202.84746 207.16638 212.37773 217.88655 224.02338 227.08629 237.09032 241.43129 244.49419 250.00302 256.12886 265.582 271.09083 279.5744 282.6373 285.7002 289.0716 293.97444 297.6433 301.9292 308.055 312.37394 317.2768 322.78559 327.07148 331.9743 338.10014 341.16304 347.28886 357.89884 363.40763 372.83876 378.96458 383.2835 388.79234 393.69517 399.5235 408.92155 418.09925 422.99107 429.1279 432.1908 437.0826 442.59144 450.76655 456.89234 459.95527 464.2962 468.5821 472.90104 477.80387 482.14485 491.59797 495.9169 500.81977 506.6371 512.76296 515.8258 520.1447 523.20767 529.33346">Observablesignsoflife-threateningorurgentmedicaldistressrequiring</tspan></text>
<text xml:space="preserve" transform="matrix(1 0 -0 1 0 792)" font-size="10.9091" font-family="LMRoman10"><tspan y="-503.025" x="72 75.03273 84.12001 93.20729 98.061847 104.127307 107.160037 112.614589 116.85822 125.3455 128.37822 134.13823 138.38187 143.23642 147.51279 152.97826 157.83281 163.59282 167.83646 170.86919 176.32373 182.38919">immediateintervention.</tspan></text>
<text xml:space="preserve" transform="matrix(1 0 -0 1 0 792)" font-size="10.9091" font-family="LMRoman10" font-weight="bold"><tspan y="-482.701" x="72 80.225467 85.974559 91.14547 101.59639 105.07639 109.95276 114.829128 120.57822 131.72733 140.85825 146.4328 151.30918 154.80008 161.07282 168.04373 172.99646">PermittedActions:</tspan></text>
<text xml:space="preserve" transform="matrix(1 0 -0 1 0 792)" font-size="10.9091" font-family="LMRoman10"><tspan y="-456.4" x="72">&#x2022;</tspan></text>
<text xml:space="preserve" transform="matrix(1 0 -0 1 0 792)" font-size="10.9091" font-family="LMRoman10"><tspan y="-456.4" x="85.94183 93.81821 99.27276 102.30549 108.97095 113.8255 122.91278 127.767337 132.0437 137.49825 142.3528 148.41826 153.27281 162.66556 171.75284 176.60739 182.67285 185.70558 190.56014 196.01468 202.69106 206.98925 211.8438 216.12017 221.88018 224.9129 229.76746 234.62201 238.9202">Callemergencymedicalservices.</tspan></text>
<text xml:space="preserve" transform="matrix(1 0 -0 1 0 792)" font-size="10.9091" font-family="LMRoman10"><tspan y="-434.083" x="72">&#x2022;</tspan></text>
<text xml:space="preserve" transform="matrix(1 0 -0 1 0 792)" font-size="10.9091" font-family="LMRoman10"><tspan y="-434.083" x="85.94183 94.27638 99.130939 105.196399 108.229129 113.37822 122.78186 125.81459 128.84732 133.12369 137.42188 141.66551 145.29825 150.75279 153.78553 163.48372 168.93827 176.84737 185.02919 192.45829 204.43648 209.29103 215.05104 221.1165 224.14923 230.21469 239.30197 244.15653 249.91654 257.7929 265.66929 268.702 272.94566 279.0111 282.04383 291.75294 295.99659 300.27296 305.7275 308.76023 314.82569 317.8584 323.92387 333.01115 337.30934 342.16389 347.61845 353.98936 358.8439">Deployfirst-aidorAEDequipmentwithintrainingscope.</tspan></text>
<text xml:space="preserve" transform="matrix(1 0 -0 1 0 792)" font-size="10.9091" font-family="LMRoman10"><tspan y="-411.767" x="72">&#x2022;</tspan></text>
<text xml:space="preserve" transform="matrix(1 0 -0 1 0 792)" font-size="10.9091" font-family="LMRoman10"><tspan y="-411.767" x="85.5491 92.52002 97.37457 106.46185 112.82186 118.27641 122.55278 128.00733 132.28369 135.31642 138.34915 147.7528 152.60736 155.64009 160.49465 165.94919 173.85829 179.31284 185.3783 195.07649 199.93105 205.38559 211.1456 215.38924 219.6656 225.12015 231.79653 237.86199 242.71654 248.17108 252.44745 258.20747 267.6002 271.89839 277.96385 283.4184 288.27296 296.77116 301.0148 310.10209 316.16755 320.4439 325.29847 329.59666 334.4512 338.72758 344.18214 352.6694 356.9676 362.42216 365.77125 370.6149 374.564 383.95674 389.4113 395.47676 405.17494 411.25129 414.2731 419.72767 425.80403 428.83674 432.77494 437.6186">Temporarilyclearandcontrolnearbyspacetopreservesafetyanddignity.</tspan></text>
<text xml:space="preserve" transform="matrix(1 0 -0 1 0 792)" font-size="10.9091" font-family="LMRoman10" font-weight="bold"><tspan y="-385.466" x="72 78.850917 85.12365 90.29456 97.26548 100.74548 107.7164 114.68732 120.43641 131.59642 140.72734 146.3019 151.17827 154.65827 160.931 167.90192 172.85465">ForbiddenActions:</tspan></text>
<text xml:space="preserve" transform="matrix(1 0 -0 1 0 792)" font-size="10.9091" font-family="LMRoman10"><tspan y="-359.164" x="72">&#x2022;</tspan></text>
<text xml:space="preserve" transform="matrix(1 0 -0 1 0 792)" font-size="10.9091" font-family="LMRoman10"><tspan y="-359.164" x="85.53819 93.41456 99.48002 108.5673 111.60003 117.66549 120.69822 124.99641 129.24005 133.51642 138.97097 143.2146 146.24733 151.70188 161.41098 166.86553 173.83644 182.92372 187.77828 193.84374 196.87647 201.73102 207.18556 211.4292 214.46193 219.91648 229.61467 235.98558 240.84014 246.2947 251.74924 257.8147 267.5238 271.76747 276.04383 281.49839 284.5311 290.59657 293.62928 299.69474 305.1493">Administrationofmedicationbeyondtraining.</tspan></text>
<text xml:space="preserve" transform="matrix(1 0 -0 1 0 792)" font-size="10.9091" font-family="LMRoman10"><tspan y="-336.848" x="72">&#x2022;</tspan></text>
<text xml:space="preserve" transform="matrix(1 0 -0 1 0 792)" font-size="10.9091" font-family="LMRoman10"><tspan y="-336.848" x="85.94183 93.97093 98.825489 103.12367 107.36731 111.64368 117.09823 120.13096 125.89096 133.77825 138.62189 144.3819 149.23645 154.091 160.15647 168.04375 172.28739 181.37467 187.44013 191.71649 196.57105 202.0256 206.88016 212.65108 220.52745 223.56018 232.64746 241.73474 246.5893 252.65476 255.68749 261.14204 265.38569 273.87297 278.17115 283.0257 286.0584 289.3966 293.02934 299.0948 304.54936 308.8257 317.913">Restraintexcepttopreventimmediateself-harm.</tspan></text>
<text xml:space="preserve" transform="matrix(1 0 -0 1 0 792)" font-size="10.9091" font-family="LMRoman10"><tspan y="-314.53199" x="72">&#x2022;</tspan></text>
<text xml:space="preserve" transform="matrix(1 0 -0 1 0 792)" font-size="10.9091" font-family="LMRoman10"><tspan y="-314.53199" x="85.94183 93.97093 98.825489 103.68004 109.13459 113.41096 119.47642 122.50915 128.5746 134.02915 140.69461 146.76007 152.82553 158.28008 162.52371 167.97826 173.4328 177.70917 183.16371 189.22917 195.29463 198.32736 204.39282 209.84737 216.52375 221.97829 229.88739 235.95285 242.01831 248.08377 251.1165 254.14923 259.00379 262.0365 266.89106 269.92378 275.98924 285.0765 289.32017 295.38563 303.88383 308.73838 314.19294 319.0475 324.8075 329.05116">Recording,photographing,orpublicizingtheevent.</tspan></text>
<text xml:space="preserve" transform="matrix(1 0 -0 1 0 792)" font-size="10.9091" font-family="LMRoman10" font-weight="bold"><tspan y="-288.22999" x="72 78.97092 83.84728 90.12002 101.26912 110.33458 116.607318 123.57823 130.54915 134.02915 138.90552 142.38552 148.65825 155.62917">StopCondition:</tspan></text>
<text xml:space="preserve" transform="matrix(1 0 -0 1 0 792)" font-size="10.9091" font-family="LMRoman10"><tspan y="-288.22999" x="163.96372 172.14554 177.60009 183.66555 189.731 195.18555 198.36556 205.17829 209.42192 218.52011 227.60739 232.46195 238.5274 241.56014 246.41469 251.86923 258.5347 263.98927 270.05473 274.29838 280.36384 285.8184 290.09477 293.12748 297.06568 306.46934 311.9239 319.83299 324.13117 328.37483 333.82939 339.89485 342.92756 345.96028 348.99299 353.84754 359.3021 363.54576 366.57847 372.03303 381.7312 389.60758 392.6403 396.88395 406.58213 410.8585 415.71305 419.05125 425.1276 429.42579 434.88035 441.54579 447.00035 453.97126 457.30946 463.3749 467.65129 471.89494 477.9604 482.81495 490.73497 495.5895 501.04408 505.32044 510.1641">Handofftomedicalauthorityorstabilizationwithrefusaloffurthercare.</tspan></text>
<text xml:space="preserve" transform="matrix(1 0 -0 1 0 792)" font-size="10.9091" font-family="LMRoman10" font-weight="bold"><tspan y="-267.90599" x="72 83.912738 90.010929 96.63275 100.112758 110.214588 117.1855 131.8146 140.06189 146.68372 153.65464 157.13463 162.30554 168.40373 173.2801 176.7601 183.03284 190.00376">MaximumExpiration:</tspan></text>
<text xml:space="preserve" transform="matrix(1 0 -0 1 0 792)" font-size="10.9091" font-family="LMRoman10"><tspan y="-267.90599" x="198.3383 204.55649 210.01103 216.07649 223.9856 228.22924 233.68378 241.56015 247.62561 253.08016 259.1456 263.42198 267.72016">Four(4)hours.</tspan></text>
<text xml:space="preserve" transform="matrix(1 0 -0 1 0 792)" font-size="11.9552" font-family="LMRoman12" font-weight="bold"><tspan y="-238.69698" x="72 78.73078 82.47276">9.5</tspan></text>
<text xml:space="preserve" transform="matrix(1 0 -0 1 0 792)" font-size="11.9552" font-family="LMRoman12" font-weight="bold"><tspan y="-238.69698" x="99.29373 108.11667 112.59987 119.33065 126.06143 137.2754 146.2418 151.25104 162.46501 173.67899 179.812 187.284 191.02597 197.56546 202.80184 213.41805 226.17424 232.30725 239.77925 243.52123 249.49883 256.03834 264.26353 273.08647 284.30046 290.43348 295.93287 302.66365 308.79667 316.26869 322.24629 333.83088 339.06727 349.2292 356.70118 360.44316 371.65715 378.19664 381.9386">E-002-ImmediateMedicalEmergency(Animal)</tspan></text>
<text xml:space="preserve" transform="matrix(1 0 -0 1 0 792)" font-size="10.9091" font-family="LMRoman10" font-weight="bold"><tspan y="-218.10498" x="71.561 79.241008 84.41192 87.89192 94.16466 100.43739 106.186489 115.54649 122.51741 127.393779 133.49196 140.46288 147.43379 153.53199 158.7029 165.67382">TriggerStandard:</tspan></text>
<text xml:space="preserve" transform="matrix(1 0 -0 1 0 792)" font-size="10.9091" font-family="LMRoman10"><tspan y="-218.10498" x="173.99745 182.17928 188.24474 191.27747 200.36475 205.81929 212.48476 215.51749 225.2266 230.68114 235.53569 241.60115 245.84479 254.33208 260.39753 263.43025 267.72843 271.97209 276.24845 281.103 285.40119 293.3321 298.18666 302.463 307.31758 312.77214 317.01579 320.0485 326.11396 335.21217 338.24488 347.33216 356.41944 359.45216 365.5176 370.37217 376.13218 384.00856 388.2849 391.31764 395.6158 405.01948 409.26313 418.3504 421.38313 424.41584 427.75404 436.2413 441.69587 449.60496 453.90315 458.7577 464.22315 469.0777 473.35408 481.84135 484.87406 490.9395 494.2777 500.34318 504.61955 509.4741">Animalinacutedistresscreatingimminentrisktolifeorsevereinjury.</tspan></text>
<text xml:space="preserve" transform="matrix(1 0 -0 1 0 792)" font-size="10.9091" font-family="LMRoman10" font-weight="bold"><tspan y="-197.78098" x="72 80.225467 85.974559 91.14547 101.59639 105.07639 109.95276 114.829128 120.57822 131.72733 140.85825 146.4328 151.30918 154.80008 161.07282 168.04373 172.99646">PermittedActions:</tspan></text>
<text xml:space="preserve" transform="matrix(1 0 -0 1 0 792)" font-size="10.9091" font-family="LMRoman10"><tspan y="-171.47898" x="72">&#x2022;</tspan></text>
<text xml:space="preserve" transform="matrix(1 0 -0 1 0 792)" font-size="10.9091" font-family="LMRoman10"><tspan y="-171.47898" x="85.94183 93.97093 98.825489 107.912769 113.06186 118.5164 127.014598 130.04732 139.1346 148.22188 153.07643 159.14189 162.17462 167.62917 171.8728 180.36009 186.42555 191.8801 196.73465 202.1892 206.46556 212.53102">Removeimmediatehazard.</tspan></text>
<text xml:space="preserve" transform="matrix(1 0 -0 1 0 792)" font-size="10.9091" font-family="LMRoman10"><tspan y="-149.16298" x="72">&#x2022;</tspan></text>
<text xml:space="preserve" transform="matrix(1 0 -0 1 0 792)" font-size="10.9091" font-family="LMRoman10"><tspan y="-149.16298" x="85.94183 93.97093 98.825489 101.858219 107.618228 112.47278 117.92733 122.17097 130.65825 136.1128 142.17826 145.21099 154.29827 159.7528 166.41828 170.66191 179.7601 185.82556 190.68012 196.13466 200.41103 205.26558 209.56377 217.44014 221.73833 227.19287 230.53105 239.01834 243.8729 249.32744 255.09836 259.342 264.79658 267.8184 273.89476 282.98204 287.82569 293.5966 301.47297 306.92753 314.8366 319.08027 323.35664 328.21119 333.66575 337.9094 346.99668 351.85124 357.62214 361.86579 365.4985 369.77488 374.61854 380.0731 386.14945 395.54219 400.99674 405.2731 410.12767 415.5822">Relocateanimaltonearestsafecontainmentortreatment-readyarea.</tspan></text>
<text xml:space="preserve" transform="matrix(1 0 -0 1 0 792)" font-size="10.9091" font-family="LMRoman10"><tspan y="-126.84698" x="72">&#x2022;</tspan></text>
<text xml:space="preserve" transform="matrix(1 0 -0 1 0 792)" font-size="10.9091" font-family="LMRoman10"><tspan y="-126.84698" x="85.94183 93.81821 99.27276 105.03276 109.2764 114.73095 119.585498 127.47277 133.53823 137.81459 142.66915 146.30188 151.75643 157.82189 163.88735 168.16371 173.3128 178.76737 183.62192 193.32012 198.17467 207.26195 212.1165 216.39287 221.84741 226.70197 232.76743 237.62198 247.02564 252.4802 257.33476 261.5784 266.43296 270.70933 273.74205 279.8075 285.26206 289.53843 298.93116 303.20753 308.06208 312.36027 317.81483 323.88029 328.15666 333.0112 337.86576 342.16395">Contactpre-approvedemergencyveterinaryresources.</tspan></text>
<text xml:space="preserve" transform="matrix(1 0 -0 1 0 792)" font-size="10.9091" font-family="LMRoman10" font-weight="bold"><tspan y="-100.544979" x="72 78.850917 85.12365 90.29456 97.26548 100.74548 107.7164 114.68732 120.43641 131.59642 140.72734 146.3019 151.17827 154.65827 160.931 167.90192 172.85465">ForbiddenActions:</tspan></text>
<text xml:space="preserve" transform="matrix(1 0 -0 1 0 792)" font-size="10.9091" font-family="LMRoman10"><tspan y="-74.24397" x="72">&#x2022;</tspan></text>
<text xml:space="preserve" transform="matrix(1 0 -0 1 0 792)" font-size="10.9091" font-family="LMRoman10"><tspan y="-74.24397" x="85.94183 93.37093 99.130939 105.501857 110.3564 114.63277 117.6655 126.75278 131.60733 137.36734 141.61098 147.06552 153.73099 157.97463 162.25099 167.10555 172.56009 176.80373 185.891 190.74556 196.50557 200.7492">Experimentaltreatment.</tspan></text>
<text xml:space="preserve" transform="matrix(1 0 -0 1 0 792)" font-size="10.9091" font-family="LMRoman10"><tspan y="-42.111974" x="300.54499 305.99955">36</tspan></text>
</svg>
