<svg xmlns="http://www.w3.org/2000/svg" xmlns:xlink="http://www.w3.org/1999/xlink" xmlns:inkscape="http://www.inkscape.org/namespaces/inkscape" version="1.1" width="612" height="792" viewBox="0 0 612 792">
<text xml:space="preserve" transform="matrix(1 0 -0 1 0 792)" font-size="11.9552" font-family="LMRoman12" font-weight="bold"><tspan y="-709.041" x="72 82.10214 94.85834 99.34154 109.503459 113.24544 124.45942 137.21562 143.75511 151.22711 158.69911 165.2386 170.47498 177.20575 182.70514 194.28974 203.11267 208.42078 214.39838 220.93787 224.67984 231.21933 236.4557 240.19768 246.92845 258.88368 268.60325 275.334 282.80604 290.278 294.02 299.25639 302.99836 309.72914 317.2011">OM-A.4MandatoryEscalationConditions</tspan></text>
<text xml:space="preserve" transform="matrix(1 0 -0 1 0 792)" font-size="10.9091" font-family="LMMono10"><tspan y="-688.448" x="72 77.72728 89.18184 94.90912 106.36368 112.09096 117.81824 123.54552 129.2728 135.00008 146.45464 152.18192 163.63648 169.36376 175.09104 186.5456 192.27288 198.00016 203.72743 209.45471 215.18199 220.90927 226.63655 232.36383 238.09111 243.81839 255.27295 261.0002 266.72749 272.45475 283.90928 289.63655 301.09107 306.81834 312.5456 318.27287 329.7274 335.45466 346.90919 352.63645 358.3637 364.09098 369.81825 375.5455 381.27278 387.00004 392.7273 398.45457">IFanactionisnotreversible,THENitmustbeescalated.</tspan><tspan y="-668.124" x="72 77.72728 89.18184 94.90912 106.36368 112.09096 117.81824 123.54552 129.2728 135.00008 146.45464 152.18192 157.9092 163.63648 169.36376 175.09104 180.81832 192.27288 198.00016 203.72743 209.45471 215.18199 220.90927 226.63655 232.36383 238.09111 243.81839 255.27295 261.0002 266.72749 272.45475 283.90928 289.63655 301.09107 306.81834 312.5456 318.27287 329.7274 335.45466 346.90919 352.63645 358.3637 364.09098 369.81825 375.5455 381.27278 387.00004 392.7273 398.45457">IFanactioncreatesprecedent,THENitmustbeescalated.</tspan><tspan y="-647.801" x="72 77.72728 89.18184 94.90912 106.36368 112.09096 117.81824 123.54552 129.2728 135.00008 146.45464 152.18192 157.9092 163.63648 169.36376 175.09104 180.81832 192.27288 198.00016 203.72743 209.45471 215.18199 220.90927 226.63655 232.36383 243.81839 249.54567 255.27295 261.0002 266.72749 272.45475 278.182 289.63655 295.3638 301.09107 306.81834 312.5456 318.27287 324.00013 329.7274 335.45466 341.18193 346.90919 358.3637 364.09098 375.5455 381.27278 387.00004 392.7273 398.45457 404.18183 409.9091 415.63636 421.36363 427.09089 438.5454 444.27268 449.99995 455.7272 467.18174 472.909 484.36354 490.0908 495.81806 501.54533 512.9999 518.7272 530.18179 535.90908 541.63638 547.36367 553.09097 558.81826 564.54556 570.2728 576.0001 581.7274">IFanactionaffectshousing,access,discipline,orexclusion,THENitmustbeescalated.</tspan><tspan y="-627.47708" x="72 77.72728 89.18184 94.90912 100.6364 112.09096 117.81824 123.54552 129.2728 135.00008 146.45464 152.18192 157.9092 163.63648 169.36376 175.09104 186.5456 192.27288 198.00016 203.72743 209.45471 215.18199 220.90927 232.36383 238.09111 243.81839 255.27295 261.0002 266.72749 272.45475 278.182 283.90928 295.3638 301.09107 312.5456 324.00013 329.7274 335.45466 341.18193 346.90919 352.63645 358.3637 369.81825 375.5455 381.27278 387.00004 392.7273 398.45457 404.18183 409.9091 421.36363 427.09089 432.81816 438.5454 444.27268 449.99995 455.7272 467.18174 472.909 478.63627 484.36354 490.0908 495.81806 501.54533 507.27259 512.9999 518.7272 524.45449 530.18179 535.90908 541.63638">IFtheactorcannotexplaintheactiontoaneutralreviewerwithoutdefensiveness,</tspan><tspan y="-613.92807" x="71.714 77.44128 83.16856 88.895839 100.350399 106.077678 111.804958 123.259517 128.98679 134.71407 140.44135 146.16863 151.8959 163.35047 169.07775 174.80503 180.5323 191.98686 197.71414 209.1687 214.89598 220.62326 226.35054 232.07782 237.8051 243.53238 249.25966 254.98694 260.7142">THENtheactionmustbeescalated.</tspan><tspan y="-593.60409" x="72 77.72728 89.18184 94.90912 106.36368 112.09096 117.81824 123.54552 129.2728 135.00008 140.72736 146.45464 152.18192 157.9092 169.36376 175.09104 180.81832 186.5456 198.00016 203.72743 209.45471 215.18199 220.90927 226.63655 232.36383 243.81839 249.54567 255.27295 261.0002 272.45475 278.182 283.90928 295.3638 301.09107 306.81834 312.5456 318.27287 329.7274 335.45466 341.18193 346.90919 358.3637 364.09098 369.81825 375.5455 387.00004 392.7273 398.45457 404.18183 409.9091 415.63636 427.09089 432.81816 438.5454 444.27268 449.99995 455.7272 461.45448 467.18174 478.63627 484.36354 490.0908 495.81806 507.27259 512.9999 518.7272 524.45449 530.18179 535.90908 541.63638">IFnoescalationbodyexists,THENtheactormusthaltunlessimminentharmexists,</tspan><tspan y="-580.05508" x="72 77.72728 89.18184 94.90912 100.6364 106.36368 112.09096 123.54552 129.2728 135.00008 140.72736 152.18192 157.9092 163.63648 175.09104 180.81832 186.5456 192.27288 198.00016 203.72743 209.45471 215.18199 220.90927 226.63655 238.09111 243.81839 249.54567 255.27295 261.0002 266.72749 272.45475 283.90928 289.63655 295.3638 301.09107 312.5456 318.27287 329.7274 335.45466 341.18193 346.90919 358.3637 364.09098 369.81825 375.5455 387.00004 392.7273 398.45457 404.18183 409.9091 415.63636 421.36363 427.09089 438.5454 444.27268 449.99995 455.7272 461.45448 467.18174 472.909 478.63627 484.36354 490.0908 501.54533 507.27259 512.9999 524.45449 530.18179 535.90908 541.63638 547.36367 553.09097 558.81826 564.54556 570.2728 576.0001 581.7274 587.4547 593.182">inwhichcasetheGAP-BRIDGEpathwaymustbeusedwithexplicitexpirationandnotification.</tspan></text>
<text xml:space="preserve" transform="matrix(1 0 -0 1 0 792)" font-size="11.9552" font-family="LMRoman12" font-weight="bold"><tspan y="-551.18008" x="72 82.10214 94.85834 99.34154 109.503459 113.24544 124.45942 134.62134 142.09334 147.40145 154.13222 157.87419 165.34619 170.58257 181.19878 190.39232 195.89171 202.62248 210.09449 213.83646 221.30846 225.05043 230.2868 234.02878 240.75955 248.23155">OM-A.5AbsoluteProhibitions</tspan></text>
<text xml:space="preserve" transform="matrix(1 0 -0 1 0 792)" font-size="10.9091" font-family="LMRoman10"><tspan y="-530.58706" x="71.607 79.483379 85.548839 94.03611 97.3743 102.82885 105.86158 108.89431 114.05431 121.93069 124.96342 131.02887 140.11615 145.5707 150.42525 154.66889 157.70162 163.15616 169.22162 177.15254 182.60709 186.88346 195.38166 201.44712 205.72348 211.17803 217.24349 220.27622 226.34168 229.3744 233.61804 238.4726 248.17079 253.62534 261.5017 266.95628 269.98899 276.66535 280.909 283.9417 293.029 297.87266 302.18174 308.84718 311.87989 317.94535 322.7999 325.8326 331.89808 337.96354 340.99626 347.0617 356.149 362.21446 368.2799 372.55628 375.589 381.65446 390.75267 395.6072 404.6945 409.54905 413.8254 419.27998 424.12364 430.19999 435.04365 438.07637 442.9309 447.2291">Thefollowingactionsareprohibitedatalltimes,includingduringemergencies:</tspan></text>
<text xml:space="preserve" transform="matrix(1 0 -0 1 0 792)" font-size="10.9091" font-family="LMMono10"><tspan y="-510.26405" x="72 77.72728 83.45456 89.18184 94.90912 100.6364 106.36368 112.09096 123.54552 129.2728 135.00008 140.72736 146.45464 152.18192 157.9092 163.63648 169.36376 180.81832 186.5456 192.27288 198.00016 203.72743 209.45471 215.18199 226.63655 232.36383 238.09111 249.54567 255.27295 261.0002 266.72749 272.45475 278.182 283.90928 289.63655 295.3638 301.09107 306.81834">Unloggedemergencyactionsareprohibited.</tspan><tspan y="-489.94004" x="72 77.72728 83.45456 89.18184 94.90912 100.6364 106.36368 112.09096 123.54552 129.2728 135.00008 140.72736 146.45464 157.9092 163.63648 169.36376 175.09104 180.81832 186.5456 192.27288 198.00016 203.72743 209.45471 220.90927 226.63655 238.09111 243.81839 249.54567 255.27295 261.0002 266.72749 278.182 283.90928 289.63655 295.3638 301.09107 306.81834 312.5456 318.27287 324.00013 329.7274 335.45466 346.90919 352.63645 358.3637 369.81825 375.5455 381.27278 387.00004 392.7273 398.45457 404.18183 409.9091 415.63636 421.36363 427.09089">Informalbans,evictions,oraccessrevocationsareprohibited.</tspan><tspan y="-469.61604" x="72 77.72728 83.45456 89.18184 94.90912 100.6364 106.36368 112.09096 117.81824 123.54552 129.2728 135.00008 140.72736 146.45464 152.18192 157.9092 163.63648 169.36376 175.09104 180.81832 186.5456 192.27288 198.00016 203.72743 209.45471 220.90927 226.63655 232.36383 238.09111 243.81839 249.54567 255.27295 261.0002 266.72749 272.45475 278.182 283.90928 295.3638 301.09107 306.81834 318.27287 324.00013 329.7274 335.45466 341.18193 346.90919 352.63645 358.3637 364.09098 369.81825 375.5455">Compensation-by-sacrificeexpectationsareprohibited.</tspan><tspan y="-449.29203" x="72 77.72728 83.45456 89.18184 94.90912 100.6364 106.36368 112.09096 117.81824 129.2728 135.00008 140.72736 146.45464 152.18192 157.9092 169.36376 175.09104 180.81832 186.5456 192.27288 198.00016 203.72743 215.18199 226.63655 232.36383 238.09111 243.81839 249.54567 255.27295 266.72749 272.45475 278.182 289.63655 295.3638 301.09107 306.81834 312.5456 318.27287 324.00013 329.7274 335.45466 341.18193 346.90919">Consensusclaimswithoutarecordareprohibited.</tspan><tspan y="-428.96903" x="72 77.72728 83.45456 89.18184 94.90912 100.6364 112.09096 117.81824 129.2728 135.00008 140.72736 146.45464 152.18192 157.9092 163.63648 169.36376 180.81832 186.5456 192.27288 198.00016 203.72743 209.45471 215.18199 220.90927 226.63655 238.09111 243.81839 249.54567 261.0002 266.72749 272.45475 278.182 283.90928 289.63655 295.3638 301.09107 306.81834 312.5456 318.27287">Silentorinformaloverridesareprohibited.</tspan><tspan y="-408.64503" x="72 77.72728 89.18184 94.90912 106.36368 112.09096 117.81824 123.54552 129.2728 135.00008 146.45464 152.18192 163.63648 169.36376 175.09104 180.81832 186.5456 192.27288 198.00016 203.72743 209.45471 215.18199 220.90927 226.63655 238.09111 243.81839 249.54567 255.27295 261.0002 266.72749 272.45475 278.182 283.90928 289.63655 295.3638 306.81834 312.5456 318.27287 324.00013 335.45466 341.18193 352.63645 358.3637 364.09098 369.81825 381.27278 387.00004 392.7273 404.18183 409.9091 421.36363 427.09089 432.81816 438.5454 444.27268 455.7272 461.45448 467.18174 472.909 478.63627 484.36354 490.0908 495.81806 501.54533 507.27259 518.7272 524.45449 535.90908 541.63638 547.36367 553.09097 558.81826 564.54556 570.2728 576.0001 581.7274">IFanactionisprocedurallyprohibited,THENitmustnotbetakenregardlessofperceived</tspan><tspan y="-395.096" x="72 77.72728 83.45456 89.18184 94.90912 106.36368 112.09096 117.81824 123.54552 129.2728 135.00008 140.72736 146.45464 152.18192 157.9092 163.63648 169.36376 175.09104 180.81832">moraljustification.</tspan></text>
<text xml:space="preserve" transform="matrix(1 0 -0 1 0 792)" font-size="11.9552" font-family="LMRoman12" font-weight="bold"><tspan y="-366.221" x="72 82.10214 94.85834 99.34154 109.503459 113.24544 124.45942 131.78795 138.51873 145.99073 151.49011 155.97332 166.4939 173.22467 180.69667 190.67926 199.5022 210.71617 216.84918 222.34857 229.07935 235.21236 242.68436 248.66196 260.24656 268.32829 272.07026 283.28425 287.0262 292.2626 298.8021 304.03849 307.78047 314.51124">OM-A.6Four-HourEmergencyLimitation</tspan></text>
<text xml:space="preserve" transform="matrix(1 0 -0 1 0 792)" font-size="10.9091" font-family="LMMono10"><tspan y="-345.62803" x="72 77.72728 89.18184 94.90912 100.6364 106.36368 112.09096 117.81824 123.54552 129.2728 135.00008 146.45464 152.18192 157.9092 163.63648 169.36376 175.09104 180.81832 186.5456 192.27288 203.72743 209.45471 220.90927 226.63655 232.36383 238.09111 243.81839 249.54567 255.27295 261.0002 272.45475 278.182 283.90928 289.63655 301.09107 306.81834 312.5456 318.27287 324.00013 329.7274 335.45466 346.90919 352.63645 358.3637 364.09098 375.5455 381.27278 392.7273 398.45457 404.18183 409.9091 415.63636 421.36363 427.09089 432.81816 444.27268 449.99995 455.7272 461.45448 467.18174 472.909 484.36354 490.0908 501.54533 512.9999 518.7272 524.45449 530.18179 535.90908 541.63638">IFEmergencyAuthorityisinvoked,THENactionsmustbenarrowlyscopedtoasingle</tspan><tspan y="-332.079" x="72 77.72728 83.45456 89.18184 100.6364 106.36368 112.09096 117.81824 123.54552 129.2728 135.00008 140.72736 146.45464 152.18192">harmcondition.</tspan><tspan y="-311.755" x="72 77.72728 89.18184 94.90912 100.6364 106.36368 117.81824 123.54552 129.2728 135.00008 140.72736 152.18192 157.9092 163.63648 169.36376 175.09104 180.81832 192.27288 198.00016 203.72743 209.45471 215.18199 226.63655 232.36383 238.09111 243.81839 249.54567 255.27295 261.0002 266.72749 272.45475 283.90928 289.63655 295.3638 301.09107 306.81834 312.5456 318.27287 324.00013 329.7274 341.18193 346.90919 352.63645 358.3637 364.09098 369.81825 375.5455 381.27278 387.00004 392.7273 398.45457 409.9091 415.63636 421.36363 427.09089 438.5454 444.27268 449.99995 455.7272 461.45448 467.18174 478.63627 484.36354 490.0908 501.54533 507.27259 512.9999 518.7272 524.45449 530.18179 535.90908 541.63638 547.36367">IFfourhourselapseafterEmergencyAuthorityinvocation,THENeithertheemergency</tspan><tspan y="-298.206" x="72 77.72728 83.45456 89.18184 100.6364 106.36368 117.81824 123.54552 129.2728 135.00008 140.72736 146.45464 152.18192 157.9092 169.36376 175.09104 180.81832 186.5456 192.27288 198.00016 203.72743 209.45471 220.90927 226.63655 238.09111 243.81839 249.54567 261.0002 266.72749 272.45475 278.182 283.90928 289.63655 301.09107 306.81834 312.5456 318.27287 329.7274 335.45466 341.18193 346.90919 352.63645 358.3637 364.09098 369.81825 375.5455 381.27278 392.7273 398.45457 409.9091 415.63636 421.36363 427.09089 432.81816 438.5454 444.27268 449.99995 455.7272 461.45448 467.18174 472.909 478.63627 484.36354 490.0908 495.81806 507.27259 512.9999 518.7272 524.45449 530.18179 535.90908 541.63638 547.36367 553.09097">mustbedeclaredresolvedorthemattermusttransitiontogovernance-levelhandling.</tspan><tspan y="-277.882" x="72 77.72728 83.45456 89.18184 94.90912 100.6364 106.36368 112.09096 117.81824 129.2728 135.00008 140.72736 146.45464 152.18192 157.9092 163.63648 169.36376 175.09104 186.5456 192.27288 198.00016 203.72743 215.18199 220.90927 226.63655 238.09111 243.81839 255.27295 261.0002 266.72749 272.45475 283.90928 289.63655 301.09107 306.81834 312.5456 318.27287 324.00013 329.7274 335.45466 341.18193 346.90919 358.3637 364.09098 369.81825 375.5455 381.27278 387.00004 392.7273 398.45457 404.18183 409.9091 421.36363 427.09089 432.81816 438.5454 444.27268 449.99995 455.7272 461.45448 467.18174 472.909 478.63627">EmergencyAuthoritymustnotbeusedtonormalizeunresolvedconditions.</tspan></text>
<text xml:space="preserve" transform="matrix(1 0 -0 1 0 792)" font-size="14.3462" font-family="LMRoman12" font-weight="bold"><tspan y="-243.84899" x="72 84.12254 99.42994 104.80977 116.28673 126.15692 137.18915 143.7884 151.14801 156.52783 168.5643 175.9239 184.00081 188.49117 194.86089 201.14452 207.74378 215.59114 221.87477 226.36513 234.44203 248.78823 259.82048 264.31083 268.80119 276.87809 288.54154 301.22358 310.18995 314.6803 323.64668 331.49406 340.46043 347.6335 360.37294 366.65657 376.79933 381.28968 387.88893 394.25865 405.9221 413.999 427.45573 439.82215 447.2248 455.74644 462.11616">OM-B.Pre-RegistrationPilotGuidance(First30Days)</tspan></text>
<text xml:space="preserve" transform="matrix(1 0 -0 1 0 792)" font-size="10.9091" font-family="LMRoman10" font-weight="bold"><tspan y="-219.49999" x="72 78.97092 83.84728 89.94547 94.82184 101.792758 106.74548">Status:</tspan></text>
<text xml:space="preserve" transform="matrix(1 0 -0 1 0 792)" font-size="10.9091" font-family="LMRoman10"><tspan y="-219.49999" x="115.06913 123.25095 128.7055 134.78188 138.41461 144.48007 147.5128 153.57826 159.64373 162.67646 168.74192 177.8292 182.68375 188.44376 193.29831 198.15287 204.21833 208.46196 211.49469 216.94924 226.64743 232.10198 238.16744 241.20017 247.26563 252.72017 258.7856 263.64018">Non-bindingexecutionguidance</tspan></text>
<text xml:space="preserve" transform="matrix(1 0 -0 1 0 792)" font-size="10.9091" font-family="LMRoman10" font-weight="bold"><tspan y="-205.94998" x="71.523 80.65392 87.62484 92.501209 99.47212 105.74486 110.91577 114.395778 118.92305 125.544879">Authority:</tspan></text>
<text xml:space="preserve" transform="matrix(1 0 -0 1 0 792)" font-size="10.9091" font-family="LMRoman10"><tspan y="-205.94998" x="133.87943 139.94489 146.01035 152.38126 157.8358 162.11217 168.17763 171.21036 177.27582 182.73036 186.974 195.46129 199.70493 208.7922 217.27948 223.65039 228.50495 232.78131 238.23586 242.47949 245.51222 250.96677 257.03224 262.4868 269.15223 279.15586 284.6104 290.38133 296.44679 301.90135">SubordinatetoOperationalManual</tspan></text>
<text xml:space="preserve" transform="matrix(1 0 -0 1 0 792)" font-size="10.9091" font-family="LMRoman10" font-weight="bold"><tspan y="-192.40099" x="72 78.850917 85.82183 92.79275 98.367298 103.24366 106.72366 112.9964 119.967319">Function:</tspan></text>
<text xml:space="preserve" transform="matrix(1 0 -0 1 0 792)" font-size="10.9091" font-family="LMRoman10"><tspan y="-192.40099" x="128.30187 135.73096 138.76369 144.21823 150.28369 156.34915 159.38188 165.44734 174.53462 179.98917 186.05463 195.76374 200.61829 203.65102 209.10556 213.40375 217.70194 220.73467 223.7674 226.80013 231.65468 237.10923 241.35286 244.38559 249.84014 259.53834 264.9929 268.0256 277.7238 283.17835 289.2438 292.27653">Planningandclassificationaidonly</tspan></text>
<text xml:space="preserve" transform="matrix(1 0 -0 1 0 792)" font-size="11.9552" font-family="LMRoman12" font-weight="bold"><tspan y="-163.52698" x="72 82.10214 94.85834 99.34154 108.9057 112.64768 123.861667 133.65299 139.63059 144.86696 152.33896 158.87845 167.10363 177.13404 183.8648 187.60678 193.73979 203.5311 208.76747 219.28806 230.50203 240.66396 245.97206 251.28017 258.75218 269.96617 276.09919 288.05439 297.8457 305.3177 310.55409 318.02607 324.75685 330.25624 333.9982 338.85203 345.9534">OM-B.1ActualRoles(NoAssumedAuthority)</tspan></text>
<text xml:space="preserve" transform="matrix(1 0 -0 1 0 792)" font-size="10.9091" font-family="LMRoman10"><tspan y="-142.93398" x="72 80.0291 84.88365 89.738208 95.19276 100.64731 106.71277 109.7455 114.60005 119.454608 129.1528 133.42917 138.88372 141.91645 146.771 154.70192 160.77829 166.84375 171.12012 174.15285 180.2183 189.30559 195.37105 199.64742 204.50197 208.1347 212.41107 217.26563 222.72017 225.7529 230.05109 234.29473 238.57109 244.02564 248.26927 251.302 256.75657 266.45475 271.9093 276.18568 284.67295 287.70567 290.73838 299.82566 302.85838 307.10203 311.95658 321.66569 325.90934 331.3639">Recognizedrolesduringpre-registrationarelimitedto:</tspan></text>
<text xml:space="preserve" transform="matrix(1 0 -0 1 0 792)" font-size="10.9091" font-family="LMRoman10"><tspan y="-116.63297" x="72">&#x2022;</tspan></text>
<text xml:space="preserve" transform="matrix(1 0 -0 1 0 792)" font-size="10.9091" font-family="LMRoman10"><tspan y="-116.63297" x="85.94183 92.16002 97.61457 103.68003 109.74549 115.81095 120.6655 128.5746 134.02915 138.8837 143.12734 146.16007 152.22553 161.3128 166.76735 174.70919 180.16373 186.53464 191.38919 195.65465 201.10919 205.35283 208.38556 213.8401 219.91648 225.37102 232.03649 236.33467 240.57831 246.03285 249.21286">Founderactingasoperationalstaff</tspan></text>
<text xml:space="preserve" transform="matrix(1 0 -0 1 0 792)" font-size="10.9091" font-family="LMRoman10"><tspan y="-94.31597" x="72">&#x2022;</tspan></text>
<text xml:space="preserve" transform="matrix(1 0 -0 1 0 792)" font-size="10.9091" font-family="LMRoman10"><tspan y="-94.31597" x="85.94183 94.12366 98.97821 102.01094 108.38186 113.236408 121.1455 126.60005 134.50916 139.97463 145.42917 148.45099 154.52736 160.28737 164.531 169.38556 174.24011 182.14922 190.02559 193.05832 197.30196 207.00016 213.06562 222.1638 225.19654 231.262 237.32746 242.182 248.55292 253.40747 259.47294 265.5384 270.39295 276.15296 284.02934 290.0948 293.1275 297.4257 302.28025 306.5566 311.41117 315.65483 318.68754 324.1421">Helperorvolunteerwithnoindependentdiscretion</tspan></text>
<text xml:space="preserve" transform="matrix(1 0 -0 1 0 792)" font-size="10.9091" font-family="LMRoman10"><tspan y="-71.99997" x="72">&#x2022;</tspan></text>
<text xml:space="preserve" transform="matrix(1 0 -0 1 0 792)" font-size="10.9091" font-family="LMRoman10"><tspan y="-71.99997" x="85.94183 94.27638 99.730937 108.818218 114.272769 118.54913 124.30914 129.76369 138.85097 143.70552 151.61463 155.85826 158.89099 165.87282 169.211 174.66555 179.5201 182.55283 185.58556 188.61829 192.86193 195.89466 200.7492 208.68013 214.13468 218.41104 226.89833 232.96379 237.24016 242.09471 246.3929 251.24745 257.00746 261.2511">Doggroomer(iffacilitiesarepresent)</tspan></text>
<text xml:space="preserve" transform="matrix(1 0 -0 1 0 792)" font-size="10.9091" font-family="LMRoman10"><tspan y="-42.11197" x="300.54499 305.99955">11</tspan></text>
</svg>
