<svg xmlns="http://www.w3.org/2000/svg" xmlns:xlink="http://www.w3.org/1999/xlink" xmlns:inkscape="http://www.inkscape.org/namespaces/inkscape" version="1.1" width="612" height="792" viewBox="0 0 612 792">
<text xml:space="preserve" transform="matrix(1 0 -0 1 0 792)" font-size="10.9091" font-family="LMRoman10"><tspan y="-709.041" x="72 79.4291 83.70547 89.46548 94.32002 99.174579 105.240039 111.3055 115.58186 120.43642 128.36734 133.82189 141.73099 146.02918 151.78919 156.08737 160.33101 165.18556 174.27285 182.21468 186.45832 192.52378 197.97832 205.85469 210.13106 214.98561 218.01834 227.41109 232.86563 242.57474 246.81838 251.09474 257.1602 261.45838 269.33476 274.7893 277.82203 283.27659 289.34205 297.84025 303.9057 312.99299 319.05845 324.513 332.38938 336.68757 342.14213 346.38578 349.4185 353.71669 357.05488 366.45854 370.70219 376.76765 379.80036 387.73127 392.00764 396.86219 402.6222 408.68766 411.72038 415.99674 420.8513 429.93858 434.79313 440.55314 444.79679">Proceduresorsystemsthatrelyontrustalonedonotsatisfythisrequirement.</tspan></text>
<text xml:space="preserve" transform="matrix(1 0 -0 1 0 792)" font-size="14.3462" font-family="LMRoman12" font-weight="bold"><tspan y="-674.67306" x="72">8</tspan></text>
<text xml:space="preserve" transform="matrix(1 0 -0 1 0 792)" font-size="14.3462" font-family="LMRoman12" font-weight="bold"><tspan y="-674.67306" x="92.185108 103.920299 111.0934 118.2665 125.64045 132.01016 143.7597 155.42317 163.50008 172.00737 178.291 184.89026 192.96717 197.45752 209.20706 217.05443 226.0208 240.36699 249.33336 256.69297 264.76988 271.3691 278.7287 286.8056 294.65299 300.9366 305.42698 313.50389 327.85008 335.92698 346.24189 358.6083 367.57469 373.8583 378.34867 385.70826">AccessControlsandSegregationofDuties</tspan></text>
<text xml:space="preserve" transform="matrix(1 0 -0 1 0 792)" font-size="10.9091" font-family="LMRoman10"><tspan y="-650.32308" x="72 80.18182 89.269107 92.301837 98.367298 104.432758 107.465488 113.22549 116.25822 122.32368 128.38913 133.84368 140.52005 149.60733 154.75643 160.51644">Noindividualmay:</tspan></text>
<text xml:space="preserve" transform="matrix(1 0 -0 1 0 792)" font-size="10.9091" font-family="LMRoman10"><tspan y="-624.02206" x="72">&#x2022;</tspan></text>
<text xml:space="preserve" transform="matrix(1 0 -0 1 0 792)" font-size="10.9091" font-family="LMRoman10"><tspan y="-624.02206" x="85.94183 92.31275 97.7673 102.01094 111.70913 116.563678 122.32368 127.17822 132.03278 138.09824 142.34188 150.82917 156.2837 162.34917 172.05828 177.51282 183.57828 189.64374 193.9201 199.0692 204.52376 213.02196 217.2656 223.33106 231.81835 236.11653 241.57108 250.65836 259.14564 262.17835 267.6329 273.08747 278.54203 283.39659 293.10569 298.56025 303.4148 307.65846 310.69117 316.14573 322.21119">bothexecuteandapprovethesameloggedaction,</tspan></text>
<text xml:space="preserve" transform="matrix(1 0 -0 1 0 792)" font-size="10.9091" font-family="LMRoman10"><tspan y="-601.70608" x="72">&#x2022;</tspan></text>
<text xml:space="preserve" transform="matrix(1 0 -0 1 0 792)" font-size="10.9091" font-family="LMRoman10"><tspan y="-601.70608" x="85.94183 92.31275 97.7673 102.01094 111.70913 117.16368 123.22914 132.31642 135.34915 141.41461 144.44734 148.74553 152.98917 157.84372 165.76374 170.00737 176.07283 184.56012 187.59285 193.0474 198.50194 203.95648 206.98921 213.05467 222.14196 226.44014 232.20015 236.49834 240.74198 245.59653 258.32746 263.782 269.84748 279.54566 285.0002 291.06568 295.30934 301.3748 306.82936 311.1057 314.13844 318.99299 327.48027 332.9348 337.78938 342.03303 345.06575 350.5203 356.58576 364.5276 367.5603 373.01487 378.46943 383.92399 388.77854 398.4767 402.72038 408.78584 413.64039 417.91676 422.7713 425.80403 431.86949">bothadministertheloggingsystemandauthorizeactionsloggedtherein.</tspan><tspan y="-575.40408" x="71.596 79.47237 84.32692 89.18147 94.036029 98.33421 106.27604 110.55241 113.57423 119.02878 124.79969 129.04334 136.97426 145.75609 151.82155 156.11974 164.00702 170.37793 178.86522 183.14159 187.99614 193.75615 196.78888 201.64344 209.21436 214.06891 223.7671 229.22165 237.10894 240.14167 244.99622 250.45076 254.74895 262.6253 268.07987 274.14533 279.90534 285.9708 291.42536 294.45808 297.49079 306.89445 312.349 318.41447 328.11265 334.1781 340.549 346.00358 355.70176 359.97813 365.43269 368.4654 376.95268 381.51268 387.57814 393.03269 399.09815 404.5527 409.40727">Accessrightsmustbereviewedatleastannuallyanduponrolechange.</tspan></text>
<text xml:space="preserve" transform="matrix(1 0 -0 1 0 792)" font-size="14.3462" font-family="LMRoman12" font-weight="bold"><tspan y="-541.0361" x="72">9</tspan></text>
<text xml:space="preserve" transform="matrix(1 0 -0 1 0 792)" font-size="14.3462" font-family="LMRoman12" font-weight="bold"><tspan y="-541.0361" x="92.185108 104.221569 111.58117 117.86481 125.22441 133.74605 140.02968 144.52004 152.59694 166.94313 174.7905 183.75687 198.10306 209.58002 217.42739 224.1414 232.66304 241.62941">RetentionandBackup</tspan></text>
<text xml:space="preserve" transform="matrix(.9924717 0 -0 1.0075854 0 792)" font-size="10.826972" font-family="LMRoman10"><tspan y="-512.79727" x="72.139087 80.259319 83.26921 89.949459 92.95935 98.37283 103.78632 111.722499 120.43821 126.45801 130.72385 138.6059 144.92884 153.41719 157.66136 162.47937 166.69107 172.10456 175.11446 181.13425 185.95226 195.6424 198.95546 204.36893 212.28345 221.36728 230.38616 233.39606 239.41585 242.42575 251.14147 257.16127 269.85047 275.26396 282.24736 286.51316 291.33119 296.73384 301.55186 311.24198 316.6555 321.47349 326.887 331.13117 339.06733 345.08714 351.10694 354.11683 358.93486 363.20066 371.1368 380.22065 383.23054 388.64405 394.66386 400.07734 404.89537 412.80986 419.1328 423.9508 428.19499 431.2049 436.92155 446.61167 449.62159 457.55775 461.8019 466.6199 472.33656 478.35636 481.36628 485.61045 490.42848 500.1186 505.83525 515.2222 518.2321 523.3424 534.82986 540.24337">Alllogsmustberetainedforaminimumofsevenyearsunlessalongerperiodisrequiredbylawor</tspan></text>
<text xml:space="preserve" transform="matrix(1 0 -0 1 0 792)" font-size="10.9091" font-family="LMRoman10"><tspan y="-503.138" x="72 78.37092 83.82547 86.8582 89.89093 94.74548 99.58912">policy.</tspan><tspan y="-482.814" x="72 79.72364 85.17819 89.72729 95.48729 101.55275 111.26185 115.538219 120.39276 126.15276 132.21822 135.25095 139.52732 144.37096 153.45824 158.31279 164.08371 168.32735 172.62554">Backuprequirements:</tspan></text>
<text xml:space="preserve" transform="matrix(1 0 -0 1 0 792)" font-size="10.9091" font-family="LMRoman10"><tspan y="-456.512" x="72">&#x2022;</tspan></text>
<text xml:space="preserve" transform="matrix(1 0 -0 1 0 792)" font-size="10.9091" font-family="LMRoman10"><tspan y="-456.512" x="85.94183 90.2182 95.072757 100.527309 106.592769 109.625499 115.08005 122.98914 128.4437 134.50916 138.75279 144.20734 153.29462 158.74916 162.9928 167.84735 177.55646 183.62192 189.07646 193.62557 199.38558 205.45104 211.5165 215.81468">regularautomatedbackups,</tspan></text>
<text xml:space="preserve" transform="matrix(1 0 -0 1 0 792)" font-size="10.9091" font-family="LMRoman10"><tspan y="-434.19599" x="72">&#x2022;</tspan></text>
<text xml:space="preserve" transform="matrix(1 0 -0 1 0 792)" font-size="10.9091" font-family="LMRoman10"><tspan y="-434.19599" x="85.94183 91.396389 94.576389 97.75639 101.38912 105.68731 108.72004 112.96368 121.45095 126.9055 134.82552 137.85825 143.31279 148.76734 151.80007 156.65462 162.10916 165.14189 168.16371 177.56737 180.6001 184.89829 190.35283 193.38556 198.8401 203.08374 207.9383 217.63649 221.93468 226.17832 231.63286 235.90923 241.36377 246.81832 251.67287">off-siteorlogicallyisolatedstorage,</tspan></text>
<text xml:space="preserve" transform="matrix(1 0 -0 1 0 792)" font-size="10.9091" font-family="LMRoman10"><tspan y="-411.87998" x="72">&#x2022;</tspan></text>
<text xml:space="preserve" transform="matrix(1 0 -0 1 0 792)" font-size="10.9091" font-family="LMRoman10"><tspan y="-411.87998" x="85.94183 92.31275 97.1673 101.443668 104.476398 110.225498 116.301868 119.334598 127.82188 132.09824 136.95279 141.25098 145.49462 150.94916 155.22553 160.68007 164.9237 167.95644 173.41098 183.10918 187.35282 192.20737 196.50556 200.74919 203.78192 209.84738 215.30193">periodicrestorationtesting.</tspan></text>
<text xml:space="preserve" transform="matrix(1 0 -0 1 0 792)" font-size="14.3462" font-family="LMRoman12" font-weight="bold"><tspan y="-377.51197" x="72 80.07691">10</tspan></text>
<text xml:space="preserve" transform="matrix(1 0 -0 1 0 792)" font-size="14.3462" font-family="LMRoman12" font-weight="bold"><tspan y="-377.51197" x="100.26202 111.99721 120.963588 129.92996 134.42032 146.08377 153.93114 162.8975 177.2437 189.28017 196.63977 205.17575 209.6661 217.02571">AuditandReview</tspan></text>
<text xml:space="preserve" transform="matrix(1 0 -0 1 0 792)" font-size="10.9091" font-family="LMRoman10"><tspan y="-353.16197" x="71.596 79.47237 85.53783 89.78146 95.846927 101.301479 105.57784 108.61057 113.46512 118.31967 128.02878 133.48332 139.54878 145.61425 148.64698 152.89061 158.34516 162.62152 170.55245 179.63973 184.78882 190.54883">Authorizedauditorsmay:</tspan></text>
<text xml:space="preserve" transform="matrix(1 0 -0 1 0 792)" font-size="10.9091" font-family="LMRoman10"><tspan y="-326.86097" x="72">&#x2022;</tspan></text>
<text xml:space="preserve" transform="matrix(1 0 -0 1 0 792)" font-size="10.9091" font-family="LMRoman10"><tspan y="-326.86097" x="85.94183 91.396389 96.25093 101.105487 105.96004 110.258228 118.18914 122.46551 127.32005 132.7746 138.84006 142.4728 147.92734 153.9928 157.02553 166.42919 169.46192 174.91646 184.00374 188.85829 194.6183 200.98921 206.44376 210.72013 214.96376 219.26195">accessread-onlylogexports,</tspan></text>
<text xml:space="preserve" transform="matrix(1 0 -0 1 0 792)" font-size="10.9091" font-family="LMRoman10"><tspan y="-304.54399" x="72">&#x2022;</tspan></text>
<text xml:space="preserve" transform="matrix(1 0 -0 1 0 792)" font-size="10.9091" font-family="LMRoman10"><tspan y="-304.54399" x="85.658199 91.11274 95.967288 100.24365 103.27638 106.61457 116.0073 119.04003 124.81094 129.05458 133.90914 139.36368 143.64005 146.67278 150.61096 160.00371 164.55281 170.61827 175.47283 180.03284 185.79285 190.09104">verifyintegritychecks,</tspan></text>
<text xml:space="preserve" transform="matrix(1 0 -0 1 0 792)" font-size="10.9091" font-family="LMRoman10"><tspan y="-282.22798" x="72">&#x2022;</tspan></text>
<text xml:space="preserve" transform="matrix(1 0 -0 1 0 792)" font-size="10.9091" font-family="LMRoman10"><tspan y="-282.22798" x="85.94183 90.18547 94.46184 99.91639 104.770938 113.25822 121.287319 126.14186 130.99642 136.45096 140.72733 146.79279 151.64734 161.34554 169.68009 174.53464 179.38919 182.42192 186.72011 189.75284 195.20738 204.91649 212.04013 217.49468 221.73831 227.49832 235.06925 240.22925 245.98926 253.92018 258.77473 264.84019 270.90565 274.53837 278.782 284.23658 287.8693 292.72386 298.7893 304.85478">traceRecordedDecisionPathwaysend-to-end.</tspan><tspan y="-255.92697" x="72 80.48728 86.55274 90.85093 95.09457 99.37093 105.43639 110.29094 114.53458 117.56731 123.02186 132.72005 138.17459 145.15642 150.61096 156.67642 162.74188 165.77462 173.65099 179.10553 183.96009 188.81464 193.66919 197.96738 205.8983 210.75286 216.2074 222.27286 226.58196 230.82559 233.85832 238.10196 244.16742 248.41106 253.26561 261.1965 270.28379 275.73835 280.88746 286.3529 291.20747 295.48384 301.5493 307.00386 313.0693 317.92387 326.41114 332.17115 335.20387 340.65843 343.69114 349.1457 353.38935 356.42207 361.87663 367.94209">Obstructionofauditaccessconstitutesagovernanceviolation.</tspan></text>
<text xml:space="preserve" transform="matrix(1 0 -0 1 0 792)" font-size="14.3462" font-family="LMRoman12" font-weight="bold"><tspan y="-221.55898" x="72 80.07691">11</tspan></text>
<text xml:space="preserve" transform="matrix(1 0 -0 1 0 792)" font-size="14.3462" font-family="LMRoman12" font-weight="bold"><tspan y="-221.55898" x="100.26202 106.27307 114.78037 121.06401 128.43796 135.03722 144.00359 150.60285 157.96245 164.24608 168.73644 176.799 189.53842 201.13016 210.09653 214.58689">InterpretiveRule</tspan></text>
<text xml:space="preserve" transform="matrix(1 0 -0 1 0 792)" font-size="10.9091" font-family="LMRoman10"><tspan y="-197.20897" x="71.607 79.483379 85.548839 88.581569 96.51248 103.64703 109.101589 112.134319 115.167049 120.02159 129.41432 138.19615 144.26161 148.5598 156.44709 162.80709 171.30529 174.33802 180.09803 184.34166 189.19622 193.47258 199.53804 203.8144 208.66896 212.9126 217.76715 227.46535 233.5308 238.98535 243.26172 247.53809 252.68718 260.56355 263.59626 268.4508 276.32716 287.54173 293.60719 298.46174 302.7381 311.2363 316.69087 325.4727 331.53816 334.57087 340.02543 346.09089 349.1236 353.0618 362.45454 367.30909 373.0691 376.1018 380.4 384.64366 388.95274 395.61817 398.65089 404.4109 408.65455 413.5091 417.78547 423.85093 428.1273 432.98185 437.2255 442.68006 446.9237 449.95643 455.41099 465.10917 473.9019 479.96736 484.26554 492.1419 495.4801 500.6292 506.08378 511.53834 515.8147">ThisPolicymustbeinterpretednarrowly.Whereambiguityexists,interpretationmustfavor:</tspan></text>
<text xml:space="preserve" transform="matrix(1 0 -0 1 0 792)" font-size="10.9091" font-family="LMRoman10"><tspan y="-170.90798" x="72">&#x2022;</tspan></text>
<text xml:space="preserve" transform="matrix(1 0 -0 1 0 792)" font-size="10.9091" font-family="LMRoman10"><tspan y="-170.90798" x="85.94183 91.396389 95.67275 100.5273 105.98185 110.22549 115.08003 122.98913 128.44368 134.50914 140.5746 143.60733 147.85097 153.30551 159.37097 162.4037 165.43643 168.46916 172.40735 177.2619">greaterauditability,</tspan></text>
<text xml:space="preserve" transform="matrix(1 0 -0 1 0 792)" font-size="10.9091" font-family="LMRoman10"><tspan y="-148.59098" x="72">&#x2022;</tspan></text>
<text xml:space="preserve" transform="matrix(1 0 -0 1 0 792)" font-size="10.9091" font-family="LMRoman10"><tspan y="-148.59098" x="85.94183 92.00729 97.461849 103.527309 107.160037 111.4364 116.290958 121.7455 126.60005 130.87642 135.1746 138.20734 144.2728 147.30553 150.33826 153.37099 157.30918 166.71283 172.16738 179.13829 182.17102 187.62557 196.71285 202.7783 205.81104 210.10923 214.35286 219.8074 224.08377 228.93833">non-reversibilityofloghistory,</tspan></text>
<text xml:space="preserve" transform="matrix(1 0 -0 1 0 792)" font-size="10.9091" font-family="LMRoman10"><tspan y="-126.27497" x="72">&#x2022;</tspan></text>
<text xml:space="preserve" transform="matrix(1 0 -0 1 0 792)" font-size="10.9091" font-family="LMRoman10"><tspan y="-126.27497" x="85.94183 90.79639 95.094577 99.94913 105.40368 108.43641 113.89096 118.1346 121.16733 126.62188 136.32007 140.59644 146.05098 150.29462 156.36008 161.21463 169.13465 173.37828 179.44374 184.89829 194.59648 200.05103 209.1383 212.17104 216.46923 220.76741 223.80014 229.25469 235.32015">escalationratherthanomission.</tspan></text>
<text xml:space="preserve" transform="matrix(1 0 -0 1 0 792)" font-size="10.9091" font-family="LMRoman10"><tspan y="-42.11197" x="303.273">4</tspan></text>
</svg>
