<svg xmlns="http://www.w3.org/2000/svg" xmlns:xlink="http://www.w3.org/1999/xlink" xmlns:inkscape="http://www.inkscape.org/namespaces/inkscape" version="1.1" width="612" height="792" viewBox="0 0 612 792">
<text xml:space="preserve" transform="matrix(.9899495 0 -0 1.0101526 0 792)" font-size="10.799458" font-family="LMRoman10"><tspan y="-701.91476" x="86.81251 92.81701 97.622768 101.877758 104.88 110.27973 116.28423 121.68396 125.88495 134.17894 143.0669 148.76902 154.77352 160.17324 163.17549 166.17774 169.17998 172.18224 176.988 186.46993 192.78762 197.59339 201.82677 206.08176 211.48148 220.97422 225.1752 234.05236 238.85811 244.56023 249.366 254.17176 260.17625 264.37724 272.67118 278.07093 284.0754 287.07768 296.268 300.46897 306.47349 314.76744 319.0224 325.32929 330.13505 334.9408 337.94306 340.9453 343.94755 352.2415 356.44248 360.67585 363.6781 369.07783 374.47758 379.2833 383.51667 388.32243 397.80436 401.11979 407.12428 413.12879 417.9345 422.1355 425.13777 430.53749 436.54197 443.06486 447.31983 453.3243 459.6312 462.93586 467.74159 472.54734 480.2365 484.4375 493.32545 496.63008 502.63459 505.63685 512.1273 515.1295 520.5293 525.929 531.32876 534.33096 540.33547">designateaqualifiedpersontoexecuteonlythespecifictriggeredfunction,subjecttofulllogging</tspan></text>
<text xml:space="preserve" transform="matrix(1 0 -0 1 0 792)" font-size="10.9091" font-family="LMRoman10"><tspan y="-695.492" x="85.94 91.394557 97.460018 107.1582 111.43457 116.28912 122.049129 125.081859 129.9364 137.81278">andreview.</tspan></text>
<text xml:space="preserve" transform="matrix(.9899495 0 -0 1.0101526 0 792)" font-size="10.799458" font-family="LMRoman10"><tspan y="-662.4652" x="72.73098 78.86507 84.26479 92.05121 98.05571 104.06021 108.293598 114.61128 120.01101 124.26599 129.07175 136.87978 142.2795 149.14795 153.34896 159.35344 162.3557 170.16371 174.41869 180.42319 186.42769 190.68268 195.48844 200.2942 204.4952 207.49744 212.89717 218.90167 225.48934 229.52832 232.53058 236.76396 240.99735 245.80312 251.19203 255.9978 260.2312 264.48619 267.48844 273.49293 276.49519 284.86476 290.86927 296.26899 300.50236 309.49833 317.09034 326.0863 330.89204 336.29179 342.29627 350.11509 356.1196 361.51933 365.7527 378.30168 382.50263 388.50715 393.90687 401.67167 406.47743 411.87715 417.88166 423.88615 429.2859 437.03987 443.34675 451.71635 460.71229 466.11204 470.313 475.11875 479.3521 482.35438 487.7541 490.75636 493.7586 503.01374 507.2471 512.05288 521.04879 525.8545 531.859 534.86129 539.667">Forpurposesofthissubsection,"irreversibleharm"meansharmthatcannotbemateriallyremedied</tspan></text>
<text xml:space="preserve" transform="matrix(1 0 -0 1 0 792)" font-size="10.9091" font-family="LMRoman10"><tspan y="-655.641" x="71.607 79.483379 82.516109 86.75974 92.8252 95.85793 105.55612 109.79976 115.86522 118.89795 123.17432 127.123409 136.51615 140.75978 146.21433 151.66887 159.54524 165.6107 170.7707 176.53072 184.46164 190.22165 199.6253 202.65804 207.80713 215.6835 219.02169 225.08715 231.75261 236.60717 242.36717 248.73809 253.59264 259.65809 265.72355 268.75627 272.9999 279.06538 283.34175 288.1963 294.86174 303.949 308.80357 314.86903 317.90174 322.7563 328.21086 334.87629 337.909 343.6799 347.92356 352.7781 357.05448 362.50904 367.3636 373.1236 377.36726 380.39997 385.85453 391.91999 398.58543 404.03999 411.96 417.41456 423.77458 428.62913 432.9055 438.36006 442.6037 445.6364 451.09098 457.15644 462.611 469.28736 474.1419 479.59648 483.87284 488.1492 493.00376 497.8583 502.10197 505.13468 510.58924 516.65469">withinthirty(30)daysbylawfulexpenditure,medicalintervention,oroperationalcorrection.</tspan></text>
<text xml:space="preserve" transform="matrix(1.0099504 0 -0 .99014756 0 792)" font-size="11.017651" font-family="LMRoman10"><tspan y="-641.6397" x="71.290637 75.268009 82.64983 86.9357 93.061519 101.97479 110.62365 115.835 121.35484 126.2577 130.57662 136.70243 139.76534 145.89115 155.4104 163.21089 169.01718 175.143 184.97074 188.34215 193.85097 196.91388 199.97678 208.32816 212.61403 222.13327 227.6421 233.76792 240.20223 245.71106 248.77396 254.5913 262.89863 268.40745 278.54368 281.60658 287.4239 291.70979 296.6126 300.93156 303.99446 317.18257 323.30839 327.59428 332.4971 340.15437 345.66319 349.98213 360.11836 368.0731 371.13603 375.42189 381.5477 384.6106 394.74684 398.11824 403.62705 409.75285 414.07179 418.35768 423.2605 428.16337 438.2996 442.58546 448.09428 453.6031 461.9104 468.03623 473.23655 479.05387 487.40525 493.53108 499.6679 508.5812 512.9222 518.431 521.4939 526.3968 529.4597">IftheGoverningBodyfailstoappointaninterimStewardwithinfourteen(14)daysduesolely</tspan></text>
<text xml:space="preserve" transform="matrix(1.0094553 0 -0 .9906332 0 792)" font-size="11.012249" font-family="LMRoman10"><tspan y="-627.6471" x="71.3256 75.60937 84.727519 87.78892 93.91173 99.41786 105.540668 108.60207 111.66348 114.72489 118.711338 128.13782 132.42159 141.53972 145.85652 150.75698 156.26309 160.85521 170.60105 176.72386 182.84668 189.26683 194.16728 198.48409 207.65729 213.46074 216.83049 222.33661 226.65341 229.71482 233.70125 238.6127 245.28612 249.56989 255.69269 260.5931 270.32795 275.83409 285.57994 291.70274 296.9005 306.32704 309.38844 312.44984 315.83058 320.11436 325.00379 329.90425 339.65007 343.93385 349.43998 354.9461 362.84193 367.1257 373.24848 381.76097 390.40559 395.60337 401.1205 406.02098 410.33775 416.46055 419.52198 425.64479 434.7629 442.5596 448.36308 454.48588 463.91236 472.78825 478.91105 483.24989 491.14567 496.0461 499.10755 503.3913 509.51414 514.4146 522.3434 526.6272 532.1333">toinabilitytoreachSupermajority,thenondayfifteen(15)theGoverningBodymusteither(1)</tspan></text>
<text xml:space="preserve" transform="matrix(.99899956 0 -0 1.0010015 0 792)" font-size="10.898185" font-family="LMRoman10"><tspan y="-607.6105" x="72.072109 77.5212 83.58059 89.94514 95.394229 98.42393 104.17817 112.06846 117.517559 127.22784 130.25754 136.01178 140.25118 145.10086 149.37296 152.40265 165.13172 171.19112 175.4305 180.28018 187.84352 193.29262 197.5647 207.27497 213.02922 222.43434 226.72824 229.75794 238.83612 244.89551 247.9252 256.42579 265.50395 271.25819 274.59303 280.0421 284.3142 287.3439 291.27815 300.68327 304.01814 309.4672 317.3902 326.4902 335.56837 341.01747 346.77168 349.8014 358.5744 364.6338 377.36286 380.39259 386.1468 390.38618 395.23588 399.50798 402.5377 415.26676 419.50614 424.35585 428.62794 441.357 446.8061 453.79185 458.08573 461.11543 466.86967 470.8039 480.209 484.4484 489.8975 495.34657 503.23686 509.29624 514.4402 520.1944 524.49917 531.17977 536.62887">appointaninterimStewardbysimplemajorityforamaximuminterimtermofsixty(60)days,or</tspan></text>
<text xml:space="preserve" transform="matrix(.9964939 0 -0 1.0035185 0 792)" font-size="10.870851" font-family="LMRoman10"><tspan y="-592.585" x="70.97284 75.2016 80.637027 88.50752 91.52962 97.26943 102.70486 108.140277 113.5757 122.065837 126.29459 132.33878 140.81806 148.2211 153.9609 158.18965 163.02719 167.28856 173.33275 178.76818 185.432 193.96562 199.09667 204.53209 209.36962 213.631 219.67517 225.1106 231.15479 235.99233 244.48247 252.6356 256.8861 262.94117 265.9524 270.19203 275.01869 282.93266 291.98808 296.8256 301.35874 307.40293 312.83839 318.88258 321.90467 326.18778 335.24324 341.90705 349.7558 352.7779 357.00666 366.6926 370.92137 376.9764 385.4557 388.47779 394.2176 399.65306 405.39286 410.23039 415.6658 419.89457 422.91667 428.3521 438.03807 441.06016 446.49559 451.93104 457.36647 462.20399 471.88993 477.32536 483.36958 493.06639 497.29515 503.33934 511.81858 516.07998 520.9175 526.3529 530.63607 536.0715">(2)invoketheExternalGovernanceArbitermechanism,withtheinvocationloggedandthereason</tspan></text>
<text xml:space="preserve" transform="matrix(1 0 -0 1 0 792)" font-size="10.9091" font-family="LMRoman10"><tspan y="-581.121" x="72 76.29819 80.541828 85.996379 90.24001 95.09456 101.16002">stated.</tspan></text>
<text xml:space="preserve" transform="matrix(.9899495 0 -0 1.0101526 0 792)" font-size="10.799458" font-family="LMRoman10"><tspan y="-555.16067" x="72.73098 80.83057 87.13746 92.537189 101.56553 105.76652 110.57228 114.80567 126.82546 131.63123 137.33335 143.33785 146.34009 150.57347 155.9732 160.1742 163.17646 168.57617 174.58068 180.73638 184.93737 190.94187 198.76068 204.76519 208.96617 213.77193 221.26676 226.66648 230.89987 236.90436 241.15935 247.16385 250.1661 259.19447 263.42784 268.82759 271.8298 279.65943 285.9663 290.77207 295.5778 300.97755 309.97349 314.77925 322.05809 327.14463 332.54438 337.3501 342.74986 348.45195 355.66596 361.67048 367.67497 370.67723 375.48298 379.73796 387.01679 391.21778 397.22227 405.05189 411.05638 415.25736 420.06309 427.55793 432.95765 437.191 446.20857 452.21305 457.6128 464.89164 471.2093 476.01506 480.8208 489.83836 494.07173 498.87745 504.2772 510.28169 516.59939 521.99917 525.00137 530.6926 534.8936 539.69937">Upontermexpiration,theStewardshiprolebecomesvacantunlesstheStewardhasbeenreappointed</tspan></text>
<text xml:space="preserve" transform="matrix(1 0 -0 1 0 792)" font-size="10.9091" font-family="LMRoman10"><tspan y="-547.248" x="72 78.37092 83.225467 86.56365 92.0182 96.29457 104.78185 109.02549 115.09095 123.578227 128.43277 134.19278 140.25824 143.29097 147.56734 153.02188 157.26552 160.29825 165.75279 175.4619 179.70554 182.73827 191.82555 196.6801 200.97829 205.22193 210.67647 219.76375 225.82921 232.49468 235.5274 245.2256 253.10198 259.16743 262.20014 266.76014 276.4583 281.31288 286.76744 291.0656 299.5529 303.79655 309.862 318.3602 324.42567 329.2802 340.7893 345.03297 349.8875 354.16389 366.88389 373.2548 378.10935 383.5639 386.59663 392.66209 400.593 403.6257 412.71299 421.80027 426.65483 432.72029 435.753 441.20756 445.4512 450.30577 453.33848 462.74214 468.8076 475.1676 480.62217 490.33128 495.18583 500.94584 507.0113 510.044 514.3204 519.7749 524.01858 527.0513 532.5058 538.5712">beforetheexpirationtimestamp,inwhichcasethenewtermbeginsimmediatelyuponexpiration.</tspan><tspan y="-526.924" x="72 82.00365 88.06911 92.312747 97.767299 103.832759 106.865489 109.89822 112.93095 116.869129 122.62913 130.5164 138.69823 144.76369 149.31279 155.37825 160.8328 166.89826 172.3528 177.20735 182.6619 188.72736 191.76009">Mutability:Unchangeable</tspan></text>
<text xml:space="preserve" transform="matrix(1 0 -0 1 0 792)" font-size="11.9552" font-family="LMRoman12" font-weight="bold"><tspan y="-497.71504" x="72 78.73078 82.47276">4.5</tspan></text>
<text xml:space="preserve" transform="matrix(1 0 -0 1 0 792)" font-size="11.9552" font-family="LMRoman12" font-weight="bold"><tspan y="-497.71504" x="99.29373 106.76573 114.23773 122.080348 128.21337 133.71276 144.92673 151.83683 155.94942 162.68019 168.17958 171.92156 176.78733">Supermajority</tspan></text>
<text xml:space="preserve" transform="matrix(.9929753 0 -0 1.0070744 0 792)" font-size="10.832467" font-family="LMRoman10"><tspan y="-473.77043" x="72.10251 83.89906 89.92192 95.94477 102.270938 107.091388 111.33771 120.36116 126.0807 129.39545 134.81168 139.058 142.06941 145.97995 155.36086 158.37229 166.31247 171.72872 181.41294 186.82918 189.83699 192.8448 195.85262 200.09894 209.12238 214.5386 218.75244 221.76387 227.1801 235.66193 241.07817 246.4944 250.70824 259.2009 264.61714 271.5932 277.61607 283.0323 290.91835 293.92976 298.7502 303.0182 310.94755 315.16139 321.18424 326.60044 336.2955 340.20603 347.71296 353.12919 356.74723 360.96107 366.9839 369.9953 374.2308 380.26448 388.19386 392.40769 397.82389 403.2401 408.65635 416.5424 421.95863 428.93473 434.35093 437.36238 444.046 449.4514 454.27186 458.4857 461.4971 466.91334 475.406 480.8222 486.23844 490.45228 493.45289 499.48655 508.56413 512.8321 517.6526 523.0688 527.2826 535.22286 540.63906">ASupermajorityisanaffirmativevoteofnotlessthantwo-thirds(2/3)ofallactivevotingseatsof</tspan></text>
<text xml:space="preserve" transform="matrix(1 0 -0 1 0 792)" font-size="10.9091" font-family="LMRoman10"><tspan y="-463.573" x="72 76.24364 82.3091 90.79638 99.36002 104.52003 109.97457 114.82912 119.105487 125.170948 128.20368 134.26914 143.35642 151.08007 156.84006 162.90552 167.76007 174.42554 178.7019 184.15645 190.22191 196.28737 202.35283 207.20738 216.90558 222.97104 232.68015 236.92378 246.01107 250.2547 256.32017 264.80744 270.8729 275.72746 281.48747 289.37477 297.25114 303.3166 308.77116 311.80387 320.29115 326.05116 332.1166 340.90934 347.26936 352.1239 360.0439 367.9203 373.98576 378.8403 383.11668 391.60395 397.6694 402.52397 407.3785 412.23307 416.53126 420.82945 426.284 430.56037 435.41493">theGoverningBody,roundeduptothenextwholenumberwherenecessary.</tspan></text>
<text xml:space="preserve" transform="matrix(1.0069758 0 -0 .9930726 0 792)" font-size="10.985198" font-family="LMRoman10"><tspan y="-446.34095" x="71.10002 79.33892 85.446689 89.77486 94.0481 98.936519 104.74769 109.02092 112.07481 117.567409 123.67518 128.00334 134.66039 140.15299 146.27173 150.5999 155.48831 161.59609 166.4845 171.36193 175.70108 182.35813 186.66432 191.55274 196.44116 202.54892 206.87709 212.36969 215.42357 219.75176 226.41977 231.91237 238.02014 247.74205 252.93804 258.43064 263.31907 268.81166 274.91944 279.80787 282.86174 287.75016 295.68147 301.78926 310.89598 317.00376 322.49638 330.38374 334.6899 339.57835 345.68614 351.7939 356.6823 365.17387 369.44709 375.55488 384.05744 389.8686 395.97639 404.8195 411.23484 416.12327 424.0326 429.5252 436.5008 442.00437 447.49699 451.7702 456.6586 464.5899 468.89613 473.78456 479.58473 485.6925 488.7464 493.05259 497.941 507.66294 513.7707 519.8785 522.9324 527.82077 532.1489">Abstentions,absences,recusals,andvacanciesdonotreducethenumberofvotesrequiredunless</tspan></text>
<text xml:space="preserve" transform="matrix(1 0 -0 1 0 792)" font-size="10.9091" font-family="LMRoman10"><tspan y="-429.7" x="72 76.24364 82.3091 85.34183 93.27274 99.3382 105.09821 109.95276 116.01822 125.1055 129.96006 135.72006 143.60735 148.4619 154.22191 160.28737 163.3201 166.35283 171.20738 174.24011 178.48375 181.51648 190.90923 195.20742 199.45105 204.9056 209.14923 214.00379 221.93471 227.38925 231.63289 237.69835 242.5529 246.82927 254.70565 257.73838 262.03657 266.8911">thisdocumentexplicitlystatesotherwise.</tspan><tspan y="-409.376" x="72 82.00365 88.06911 92.312747 97.767299 103.832759 106.865489 109.89822 112.93095 116.869129 122.62913 130.5164 138.69823 144.76369 149.31279 155.37825 160.8328 166.89826 172.3528 177.20735 182.6619 188.72736 191.76009">Mutability:Unchangeable</tspan></text>
<text xml:space="preserve" transform="matrix(1 0 -0 1 0 792)" font-size="11.9552" font-family="LMRoman12" font-weight="bold"><tspan y="-380.167" x="72 78.73078 82.47276">4.6</tspan></text>
<text xml:space="preserve" transform="matrix(1 0 -0 1 0 792)" font-size="11.9552" font-family="LMRoman12" font-weight="bold"><tspan y="-380.167" x="99.29373 108.11667 115.218059 120.45444 125.95383 132.49332 139.22409 144.72348 152.19548 155.93746 163.40946 169.94895 175.44834 187.03293 196.22647 201.72586 208.82724 214.80484 220.93785 226.24596">ExtraordinaryProcess</tspan></text>
<text xml:space="preserve" transform="matrix(1 0 -0 1 0 792)" font-size="10.9091" font-family="LMRoman10"><tspan y="-359.574" x="71.596 79.777828 89.47601 96.90511 102.665119 106.90875 111.18512 116.63967 122.09422 126.37059 132.43605 135.46878 141.53424 146.98879 151.26515 160.66881 168.0979 172.37427 178.13426 182.98882 187.83246 192.14156 200.07248 203.10521 211.03614 220.13433 229.2216 234.97069 241.03615 244.06888 247.10161 250.13434 254.98889 260.44346 264.6871 267.71983 273.17439 282.88349 288.94895 293.2253 298.98533 303.82899 308.68354 312.98173 320.92356 325.1672 331.23268 336.68724 344.5636 348.83998 353.69453 359.45454 365.52 368.5527 372.82908 377.68363 385.61454 391.0691 394.1018 400.77818 406.23274 413.20365 417.4473 423.51277 432.00004 435.34913 440.80369 443.8364 446.85823 452.01823 459.8946 462.9273 468.99278 474.44734">AnExtraordinaryProcessisamodificationprocessthatrequiresallofthefollowing:</tspan></text>
<text xml:space="preserve" transform="matrix(1 0 -0 1 0 792)" font-size="10.9091" font-family="LMRoman10"><tspan y="-333.273" x="72">&#x2022;</tspan></text>
<text xml:space="preserve" transform="matrix(1 0 -0 1 0 792)" font-size="10.9091" font-family="LMRoman10"><tspan y="-333.273" x="85.94183 95.02911 101.094577 107.160037 113.53095 118.3855 122.661869 131.74915 137.50914 140.84732 146.30187 150.57823 153.61096 157.54915 166.9419 172.40737 177.86191 182.10555 190.59284 196.04738 203.0183 207.26194 213.3274 221.82559 230.38924 235.53833 240.99289 245.84745 250.12381 256.18928 259.222 265.28746 274.37474 282.09837 287.85838 293.92384 299.68385">aSupermajorityvoteoftheGoverningBody;</tspan></text>
<text xml:space="preserve" transform="matrix(1 0 -0 1 0 792)" font-size="10.9091" font-family="LMRoman10"><tspan y="-310.95603" x="72">&#x2022;</tspan></text>
<text xml:space="preserve" transform="matrix(.9899495 0 -0 1.0101526 0 792)" font-size="10.799458" font-family="LMRoman10"><tspan y="-307.8307" x="86.81251 92.212238 98.216739 103.303279 108.70301 114.70751 119.51327 127.95844 135.75565 139.98905 142.99129 147.19228 151.39327 156.19904 165.83216 171.84746 177.24718 181.44817 184.45043 189.24538 197.69057 203.09029 210.03435 214.23534 220.23984 228.67423 234.67873 238.91211 244.31185 250.62953 256.02928 260.28425 265.09 274.7231 283.7191 289.43199 295.4365 298.43876 301.441 304.44325 309.249 314.6487 318.84968 321.85194 327.25169 333.25617 339.89784 345.90235 350.70808 353.71034 356.7126 362.1123 366.91807 371.15144 375.95719 385.5903 389.7913 398.83045 403.0314 409.03593 417.48109 425.95866 431.0452 436.44493 441.25068 445.48405 451.48857 454.49079 460.4953 469.53446 477.18049 482.8826 488.8871 498.22865 506.02586 512.03036 517.43008 520.4323 528.2943 533.69406 539.69857">advancewrittennoticeoftheproposedmodification,deliveredtotheGoverningBodyChairand</tspan></text>
<text xml:space="preserve" transform="matrix(1 0 -0 1 0 792)" font-size="10.9091" font-family="LMRoman10"><tspan y="-297.407" x="85.94 91.394557 94.427288 101.09274 106.547298 111.40184 115.64548 118.67821 124.13275 132.63095 138.08551 143.54006 147.78369 150.81642 156.88188 165.96916 175.05644 179.911 188.69283 195.06374 199.91829 204.19466 208.49285">allactivevotingmembers;</tspan></text>
<text xml:space="preserve" transform="matrix(1 0 -0 1 0 792)" font-size="10.9091" font-family="LMRoman10"><tspan y="-275.091" x="72">&#x2022;</tspan></text>
<text xml:space="preserve" transform="matrix(1 0 -0 1 0 792)" font-size="10.9091" font-family="LMRoman10"><tspan y="-275.091" x="85.94183 90.79639 96.55639 102.62185 105.65458 108.68731 113.541858 116.574588 124.45095 127.48368 133.54914 138.40369 144.1637 148.40734 151.44007 154.4728 157.50553 162.36008 167.81462 172.05826 175.09099 180.54553 190.25464 195.70919 202.6801 206.92374 212.9892 221.47649 226.33104 229.36377 234.81832 240.88378 245.19287 250.03652 257.97834 263.4329 266.61289 269.7929 274.64747 279.502 283.74568 288.60023 298.2984 303.75297 309.81843 319.52754 323.77119 329.83665 334.6912 337.713 345.63304 350.48759 356.55305 360.8294 365.10578 369.96034 375.72035 383.5967 392.37855 398.4549 402.69856 408.1531 414.21858 417.25129 420.284 423.3167 427.2549 436.64765 441.5022 444.5349 449.98948 454.28767 458.58586 461.61857 464.65129 467.68403 472.53858 477.99314 482.2368 485.2695 490.72407 496.78953">explicitidentificationoftheclausesaffectedandtheircurrentmutabilityclassification;</tspan></text>
<text xml:space="preserve" transform="matrix(1 0 -0 1 0 792)" font-size="10.9091" font-family="LMRoman10"><tspan y="-252.77501" x="72">&#x2022;</tspan></text>
<text xml:space="preserve" transform="matrix(.9899495 0 -0 1.0101526 0 792)" font-size="10.799458" font-family="LMRoman10"><tspan y="-250.23445" x="86.81251 95.26848 99.50187 104.307628 109.11339 114.513118 118.746509 124.75101 129.55677 138.61751 141.92215 147.92665 152.18164 156.38263 159.38488 162.38712 165.38938 170.19513 175.59487 179.79586 182.79811 188.19783 197.25858 201.51357 205.71456 211.11428 215.31528 218.31752 224.32202 232.778 240.5752 246.26651 255.02487 261.02937 265.28437 273.14637 278.54609 284.90699 290.3067 299.36747 306.7219 312.424 316.625 320.85838 326.2581 331.65785 335.8912 341.8957 344.89796 350.90245 356.3022 360.53556 369.2939 376.64836 380.88175 386.58387 391.3896 396.19535 400.45033 407.76158 410.76383 418.07508 422.30845 427.11418 432.81629 438.8208 441.82307 446.05644 450.86216 459.9229 464.1239 472.5799 478.58439 482.81776 488.2175 492.41847 497.2242 502.02998 509.2872 518.28317 521.28536 525.54037 529.7953 532.79757 538.19729 544.2018">arecordedjustificationstatingwhyuseofanExtraordinaryProcessisrequiredtoprotectmission,</tspan></text>
<text xml:space="preserve" transform="matrix(1 0 -0 1 0 792)" font-size="10.9091" font-family="LMRoman10"><tspan y="-239.225" x="85.94 90.23819 95.69274 99.03093 103.88548 107.82366 112.67821 119.343669 125.40913 128.44185 133.8964 139.96186 142.99459 146.93277 151.78733 158.45279 163.90734 171.82735 176.12554 180.36917 185.22373 192.79465 198.24919 202.52556 208.59102 212.8892 218.95467 221.9874 231.6856 236.54015 241.99469 248.06015 252.35834 256.602 260.87837 266.33293 269.36564 275.13655 279.3802 287.3111 293.37657 299.44203 305.50749 310.36204 318.27113 322.51478 328.59114 331.61296 339.55479 345.62025 351.38026 356.2348 362.30027 371.38755 376.2421 382.0021 386.24577">safety,dignity,orstewardshipconstraintsunderthisdocument.</tspan></text>
<text xml:space="preserve" transform="matrix(.9939819 0 -0 1.0060546 0 792)" font-size="10.843447" font-family="LMRoman10"><tspan y="-211.64258" x="72.02948 80.16206 89.86695 97.25134 102.976688 107.194789 111.44542 116.86714 122.288867 126.5395 132.56845 135.58293 141.6119 147.03362 151.28426 160.68553 168.06992 172.32054 178.0459 182.87123 187.69657 191.96889 199.91715 208.6461 214.67507 218.94739 226.85227 232.88123 238.30295 246.19698 252.52956 261.0308 265.85615 271.27787 280.31047 286.33943 289.3539 294.17924 298.39735 303.2227 312.92756 317.14567 323.17463 327.42524 332.847 338.87596 344.29768 354.00257 358.82789 367.86048 372.68583 376.93644 382.35816 387.1835 393.21247 398.03779 407.43907 412.86079 418.88975 423.10786 429.1368 434.55854 438.80915 441.82365 445.73814 450.5526 457.24305 463.272 468.09733 471.11183 475.93714 481.35887 486.78059 490.9987 494.01319 499.4349 505.46388 512.1651 517.5868 523.6158 532.6483 535.66287 541.6918">AnExtraordinaryProcessmustnotbecompletedthroughemergencyauthority,delegation,admin-</tspan></text>
<text xml:space="preserve" transform="matrix(1 0 -0 1 0 792)" font-size="10.9091" font-family="LMRoman10"><tspan y="-199.375" x="72 75.03273 79.33092 83.574558 87.85092 93.30547 97.54911 100.58184 106.036388 114.52366 119.97821 124.83276 129.0764 132.10913 137.56368 143.62914 150.30551 155.76006 163.66916 169.73462 174.01099 179.77098 184.62554 189.48009 195.54555 201.61101 205.88738 211.34192 218.00739 222.30558 228.37104 233.82558 238.10195 242.34558 247.20014 253.2656 257.50926">istrativeaction,orproceduralshortcut.</tspan><tspan y="-179.051" x="72 82.00365 88.06911 92.312747 97.767299 103.832759 106.865489 109.89822 112.93095 116.869129 122.62913 130.5164 138.69823 144.76369 149.31279 155.37825 160.8328 166.89826 172.3528 177.20735 182.6619 188.72736 191.76009">Mutability:Unchangeable</tspan></text>
<text xml:space="preserve" transform="matrix(1 0 -0 1 0 792)" font-size="11.9552" font-family="LMRoman12" font-weight="bold"><tspan y="-149.842" x="72 78.73078 82.47276">4.7</tspan></text>
<text xml:space="preserve" transform="matrix(1 0 -0 1 0 792)" font-size="11.9552" font-family="LMRoman12" font-weight="bold"><tspan y="-149.842" x="99.29373 109.07308 115.05068 120.28706 124.029048 130.75983 141.37604 150.42613 157.1569 162.39328 166.13526 173.60726 184.82123 192.29323 198.42624 204.96573 210.2021">ActiveVotingSeats</tspan></text>
<text xml:space="preserve" transform="matrix(1.0099504 0 -0 .99014756 0 792)" font-size="11.017651" font-family="LMRoman10"><tspan y="-130.53508" x="70.89061 78.85637 83.759227 88.04509 91.107997 96.61683 105.16652 112.526309 118.03513 122.321 125.3839 131.50972 140.6654 146.79122 151.69408 157.20291 161.48877 169.47658 174.98542 179.30432 187.843 196.49185 201.70322 207.22306 212.12592 216.44484 222.57065 225.63355 231.75937 240.904 248.70452 254.51082 260.63664 270.1008 274.44178 279.34465 284.85343 289.1393 297.1271 301.413 307.53883 313.04765 320.96934 326.47813 330.79707 339.34678 344.2496 350.37544 354.69435 359.01329 363.91615 369.74446 374.03034 377.0822 386.5464 389.60929 392.6722 395.7351 398.798 403.70088 413.4735 419.29084 428.75505 437.9327 442.83558 451.71577 458.13908 463.0419 467.36085 475.34867 483.3034 489.42924 494.93803 499.279 507.8177 512.1035 517.0064 521.3253 530.50308">ActiveVotingSeatsareGoverningBodyseatsthatarecurrentlyfilledbymemberswhoseterms</tspan><tspan y="-116.85127" x="71.290637 76.79946 81.11838 90.88001 96.09136 101.60018 104.66309 107.726 118.7106 124.21943 130.35626 141.34085 147.46668 152.9755 162.12015 166.4611 172.58693 176.92789 183.35117 188.25403 194.37984 200.50566 205.40851 216.39311 221.90195 231.07965 237.20546 240.26837 244.60933 250.42665 256.55247 262.06129 265.12419 268.18708 271.24998 274.3129 279.21577 290.20036 296.32618 302.45198 312.2136 316.49949 326.8671 331.186 336.08888 345.26655 350.47789 355.70027 361.20909 364.272 372.50218 376.8211 381.72395 386.0649 389.1278 394.63664 400.76246 406.27128 410.55714 413.62004 419.12886 425.25468 433.49589 441.45063 445.76957 450.6724 456.79823 459.8611 465.98695 469.04985 478.8115 482.78886 491.96653 498.09236 503.60118 506.66407 510.98298 520.1607 525.06356 530.88088">arevalidandnotsuspendedordisqualifiedduetoremoval,resignation,CredibleImpairment</tspan></text>
<text xml:space="preserve" transform="matrix(1 0 -0 1 0 792)" font-size="10.9091" font-family="LMRoman10"><tspan y="-102.151" x="72 78.06546 82.92001 87.16365 92.0182 96.29457 105.38185 108.41458 114.48004 119.93459 124.17823 127.21096 132.66551 138.73097 145.39644 150.25099 153.28372 158.73827 163.03646 167.33464 170.36737 173.4001 176.43283 181.28739 186.74193 190.98557 194.0183 199.47284 205.5383 209.17104 213.4474 218.30196 221.33469 226.78923 231.03287 235.88742 245.59653 249.89472 255.96018 260.25837 266.62928 271.47294 277.5493 281.84748 284.8802 290.33476 296.4002 303.06565 308.5202 316.4293 321.28385 327.04386 333.1093 336.14204 340.4184 345.87297 350.1166 353.14933 358.60389 368.313 373.76756 380.73847 384.98213 389.83668 394.11305 403.20033">determination,classification-relatedsuspension,orexpirationofterm.</tspan></text>
<text xml:space="preserve" transform="matrix(1 0 -0 1 0 792)" font-size="10.9091" font-family="LMRoman10"><tspan y="-42.112" x="303.273">9</tspan></text>
</svg>
