<svg xmlns="http://www.w3.org/2000/svg" xmlns:xlink="http://www.w3.org/1999/xlink" xmlns:inkscape="http://www.inkscape.org/namespaces/inkscape" version="1.1" width="612" height="792" viewBox="0 0 612 792">
<text xml:space="preserve" transform="matrix(.9899495 0 -0 1.0101526 0 792)" font-size="10.799458" font-family="LMRoman10"><tspan y="-701.91476" x="72.73098 76.62958 83.51964 87.72063 93.72513 102.11631 109.91351 115.918018 121.31774 124.31999 132.1496 135.15186 142.99225 147.22563 152.0314 161.02735 166.11388 171.51361 176.31937 182.32387 188.93315 193.13414 199.13864 207.52982 216.00737 221.10472 226.49364 231.29941 235.53279 241.5373 244.53955 250.54404 259.52919 267.1752 272.88813 278.8926 288.18016 296.87373 302.87825 307.1332 314.9196 320.3193 326.32383 332.6307 338.03044 341.03269 346.7348 354.52119 359.92094 369.51084 372.5131 378.21519 382.41618 387.22193 391.4553 394.45756 407.0389 413.04344 417.2768 422.9897 427.79545 432.6012 438.60569 444.61018 448.84358 454.2433 460.83094 468.62815 474.63267 480.03239 483.03465 490.85343 496.55555 505.84306 514.83908 520.5411 523.84579 529.2455 533.4789 536.4811 540.3797">IftheChairisremoved,theGoverningBodymustappointaninterimproceduralChairbymajority</tspan></text>
<text xml:space="preserve" transform="matrix(1.0084641 0 -0 .99160686 0 792)" font-size="11.001436" font-family="LMRoman10"><tspan y="-701.3788" x="71.11409 76.62581 82.126529 86.40609 94.89919 98.26564 102.5782 108.078929 120.85159 126.35231 135.51651 141.01721 147.13402 156.24321 162.36 167.86072 173.97753 177.641 183.75782 186.81623 191.15079 196.95955 203.07636 208.57707 211.63547 214.69388 217.75228 220.81069 225.70632 235.4316 241.84545 246.74108 251.05364 255.38822 260.88893 267.00575 274.94877 282.89179 289.00859 298.11778 303.61848 307.93104 316.42414 322.54096 328.04167 335.9297 341.4414 346.9421 351.22169 354.2801 360.39689 369.4951 378.65928 383.55494 392.42207 398.8359 403.73158 408.0441 412.37867 419.04554 424.54627 432.4673 441.63148 446.82417 456.24137 461.74208 467.8589 474.27275 479.77345 482.83186 488.6516 496.53965 505.64884 511.14955 516.65029 520.9299 523.9883 530.10507">votefromamongnon-disqualifiedpersonswhoarenotvotingmembers,ormayappointavoting</tspan></text>
<text xml:space="preserve" transform="matrix(.9929753 0 -0 1.0070744 0 792)" font-size="10.832467" font-family="LMRoman10"><tspan y="-677.15267" x="72.50936 81.53281 86.35326 95.073398 101.39956 106.22 114.1277 118.3957 123.811939 126.823368 131.64382 134.6444 144.02532 148.23915 157.31676 161.58475 166.4052 170.65152 176.06775 184.53874 189.95499 197.88434 200.89577 206.61531 210.82915 215.6496 219.89592 222.90734 235.58132 241.60417 245.8505 251.57004 256.3905 261.21095 267.23377 273.2566 277.50294 282.91917 289.59196 297.413 303.43583 308.85206 311.86347 319.77116 327.59223 330.60365 334.81748 340.8403 346.25654 352.27937 360.14378 364.9642 370.38044 376.40327 379.71803 384.53846 388.7848 393.0311 396.0425 402.06538 411.14295 416.55918 422.582 428.60487 431.61628 435.8301 438.84153 444.25776 450.28059 455.6968 462.3696 467.78584 473.80867 478.0225 484.04533 489.46156 493.7079 496.7193 500.619 509.9999 516.3261 521.14657 526.56277 531.979 538.00186">membersolelytoserveasinterimproceduralChairwithoutconferringadditionalauthoritybeyond</tspan></text>
<text xml:space="preserve" transform="matrix(1 0 -0 1 0 792)" font-size="10.9091" font-family="LMRoman10"><tspan y="-668.394" x="72 76.24364 82.3091 85.34183 93.27274 101.14912 107.21458 112.66913 115.70186 123.621868 127.89823 133.35279 136.38552 141.24007">thisChairrole.</tspan><tspan y="-648.07" x="72 82.00365 88.06911 92.312747 97.767299 103.832759 106.865489 109.89822 112.93095 116.869129 122.62913 130.5164 138.69823 144.76369 149.31279 155.37825 160.8328 166.89826 172.3528 177.20735 182.6619 188.72736 191.76009">Mutability:Unchangeable</tspan></text>
<text xml:space="preserve" transform="matrix(1 0 -0 1 0 792)" font-size="11.9552" font-family="LMRoman12" font-weight="bold"><tspan y="-618.861" x="72 78.73078 82.47276 89.203548">6.11</tspan></text>
<text xml:space="preserve" transform="matrix(1 0 -0 1 0 792)" font-size="11.9552" font-family="LMRoman12" font-weight="bold"><tspan y="-618.861" x="106.02451 113.35305 120.08383 127.55583 135.02783 142.49983 148.63285 158.61544 166.08744 171.3238 177.45682 186.80579 193.34528 198.84467 210.79987 220.83028 227.56105 231.30303">FounderStewardRole</tspan></text>
<text xml:space="preserve" transform="matrix(1 0 -0 1 0 792)" font-size="10.9091" font-family="LMRoman10" font-weight="bold"><tspan y="-597.15206" x="72 78.272739 81.75274 88.025478 94.29821 97.77821">6.11.1</tspan></text>
<text xml:space="preserve" transform="matrix(1 0 -0 1 0 792)" font-size="10.9091" font-family="LMRoman10" font-weight="bold"><tspan y="-597.15206" x="113.4655 123.087329 128.83643 132.32189 135.80735 142.77826 146.25826 151.13463 154.61463 160.88736">Definition</tspan></text>
<text xml:space="preserve" transform="matrix(1.007472 0 -0 .99258336 0 792)" font-size="10.990613" font-family="LMRoman10"><tspan y="-580.8672" x="71.07593 79.01115 85.12193 93.60668 99.882328 105.37763 111.48841 117.59919 123.70998 128.60079 136.51403 142.62482 146.90018 151.791 159.41849 164.91379 169.2221 178.9378 181.9822 189.91742 199.00666 205.42519 210.92049 215.25078 219.52614 223.18602 228.68132 235.08885 239.97968 244.288 249.7833 254.05866 257.11405 262.60935 268.72013 274.21546 280.86479 285.19508 289.47044 294.36125 301.99974 307.49507 311.80339 317.91413 322.24446 328.35523 331.4106 341.11534 345.44566 349.72099 355.21629 359.49165 367.9874 373.4827 380.43977 384.7151 390.82588 399.3106 405.58628 411.08158 417.19236 423.30314 429.4139 434.30473 442.218 446.51533 452.01063 455.066 459.95686 466.61717 472.11247 478.22325 483.71858 486.77397 492.26927 497.7646 503.2599 509.3707 517.2949 521.5703 530.67056">TheFounderStewardisapost-operationalstewardshipstateoftheFounderrole,analogoustoa</tspan></text>
<text xml:space="preserve" transform="matrix(1 0 -0 1 0 792)" font-size="10.9091" font-family="LMRoman10"><tspan y="-563.01" x="72 78.218189 83.67274 89.7382 95.80366 101.86912 106.72366 114.63276 122.06186 131.14914 136.0037 140.28006 143.31279 147.55643 153.62189 161.55281 167.92372 173.37827 177.67646 180.70919 184.95282 187.98555 193.4401 199.50556">FounderEmeritusposition.</tspan><tspan y="-542.68606" x="71.607 79.483379 85.548839 94.03611 100.254299 105.70885 111.77431 117.83977 123.90523 128.75978 136.66889 142.73435 146.97798 151.83254 159.41437 164.86891 169.14528 175.21074">TheFounderSteward:</tspan></text>
<text xml:space="preserve" transform="matrix(1 0 -0 1 0 792)" font-size="10.9091" font-family="LMRoman10"><tspan y="-516.385" x="72">&#x2022;</tspan></text>
<text xml:space="preserve" transform="matrix(1 0 -0 1 0 792)" font-size="10.9091" font-family="LMRoman10"><tspan y="-516.385" x="85.94183 90.2182 95.072757 101.138217 105.41458 110.269138 114.56732 119.421878 125.18188 129.42552 137.36736 146.45464 152.5201 157.37465 160.40738 163.44011 169.81102 174.66558 178.94194 184.39649 188.64012 197.12741 201.40378 206.25833 210.50197 214.77834 219.63289 225.08744 232.9638 236.30199 240.57836 246.0329 258.7529 263.02928 268.48384 274.5493 278.79295 281.82566 287.8911 296.3893 302.45478 308.21479 313.9748 318.27299 321.3057 326.16026 331.6148 334.64753 341.31297 350.40025 355.8548 361.92027 367.37483 372.82939 377.68394 381.9603 384.993 390.44758 393.4803 400.14573 405.60029 413.5203 418.97486 425.34577 430.20033 434.47669 439.93125 444.1749 447.2076 452.66218 458.72764 464.1822 470.84764 473.88035 479.3349 485.7058 491.16038">representsadeliberateretreatfromroutinephysical,managerial,oroperationallabor</tspan></text>
<text xml:space="preserve" transform="matrix(1 0 -0 1 0 792)" font-size="10.9091" font-family="LMRoman10"><tspan y="-494.06803" x="72">&#x2022;</tspan></text>
<text xml:space="preserve" transform="matrix(1 0 -0 1 0 792)" font-size="10.9091" font-family="LMRoman10"><tspan y="-494.06803" x="85.94183 92.00729 96.28366 101.138217 105.4364 110.290958 114.56732 120.021869 124.87642 132.80735 137.05098 143.12735 151.61464 157.82192 163.27646 169.35283 175.41829 181.48375 186.3383 190.61467 193.6474 201.57833 205.85469 211.30924 214.34197 222.82926 228.2838 236.22563 240.46927 246.53473 255.02202 258.05476 263.5093 269.57478 275.02934 278.66206 284.7275 290.18208 294.45845 297.49116 302.3457 307.80027 317.49845 320.53117 326.29118 330.53483 335.38938 340.84394 345.1203 350.57487 354.8185 357.85124 363.31669 371.80397 380.89125 383.92396 389.9894 399.6876 405.14216 412.124 416.36766 422.4331 430.92039 436.37495 440.6513 446.10588 451.56044 457.6259 460.6586 465.51316 470.9677 475.21138 478.24409 483.69865">preservestheFounder&#x2019;sroleasthelong-horizonintegrativemindoftheorganization</tspan></text>
<text xml:space="preserve" transform="matrix(1 0 -0 1 0 792)" font-size="10.9091" font-family="LMRoman10"><tspan y="-471.752" x="72">&#x2022;</tspan></text>
<text xml:space="preserve" transform="matrix(1 0 -0 1 0 792)" font-size="10.9091" font-family="LMRoman10"><tspan y="-471.752" x="85.94183 90.24002 95.094577 99.37094 104.825489 109.68004 117.621868 123.076419 131.00734 135.8619 141.92736 144.96009 149.20372 155.26918 159.54555 165.00009 168.03282 174.69829 180.15283 184.4292 188.9783 195.04376 198.07649 202.32013 207.17469 212.02924 216.27288 222.33834 226.6147 232.06925 235.10198 241.77835 247.2329 253.29836 262.99653 267.2947 273.05473 277.3529 281.59657 286.4511 295.5384 298.5711 307.05839 311.91294 317.3675 323.1275 327.37117 330.40388 336.17478 342.24024 345.27296 349.21116 358.60389 364.05845 370.1239 374.6839 380.74937 386.20393">servesascultural,architectural,andsystemiccontinuityanchor</tspan></text>
<text xml:space="preserve" transform="matrix(1 0 -0 1 0 792)" font-size="10.9091" font-family="LMRoman10"><tspan y="-449.436" x="72">&#x2022;</tspan></text>
<text xml:space="preserve" transform="matrix(1 0 -0 1 0 792)" font-size="10.9091" font-family="LMRoman10"><tspan y="-449.436" x="85.94183 90.2182 95.072757 99.31639 104.77094 107.80367 113.86913 121.80005 126.043689 132.10915 140.60735 146.6728 152.12735 158.19281 161.82555 167.2801 172.73465 176.97829 180.01102 186.07648 195.16376 203.7274 208.8874 214.34197 219.19652 223.47289 229.53835 232.57108 238.63654 247.72382 255.44747 261.20747 267.27293 276.66566 284.54203 290.60749 296.06205 299.09477 307.01478 311.29115 316.7457 319.7784 328.2657 334.33116 340.3966 343.42933 348.28388 352.58207 360.51298 366.57844 371.43299 376.28755 379.32026 382.35298 388.41844 393.27299 402.9821 406.0148 415.71299 423.58937 427.86573 430.89845 435.1421 438.1748 444.24028">retainsthenon-votingGoverningBodyChairroleunlessdeclinedinwriting</tspan><tspan y="-423.134" x="72 82.00365 88.06911 92.312747 97.767299 103.832759 106.865489 109.89822 112.93095 116.869129 122.62913 130.5164 138.69823 144.76369 149.31279 155.37825 160.8328 166.89826 172.3528 177.20735 182.6619 188.72736 191.76009">Mutability:Unchangeable</tspan></text>
<text xml:space="preserve" transform="matrix(1 0 -0 1 0 792)" font-size="10.9091" font-family="LMRoman10" font-weight="bold"><tspan y="-394.324" x="72 78.272739 81.75274 88.025478 94.29821 97.77821">6.11.2</tspan></text>
<text xml:space="preserve" transform="matrix(1 0 -0 1 0 792)" font-size="10.9091" font-family="LMRoman10" font-weight="bold"><tspan y="-394.324" x="113.4655 122.59642 129.56734 136.18917 139.66916 144.62189 150.89463 156.06554 166.86556 173.71648 180.6874 187.65831 193.23287 198.10924 201.58924 207.86197">AdvisoryFunction</tspan></text>
<text xml:space="preserve" transform="matrix(.9899495 0 -0 1.0101526 0 792)" font-size="10.799458" font-family="LMRoman10"><tspan y="-369.97477" x="72.33399 80.131198 86.1357 94.224498 100.35858 105.75831 111.76281 117.76731 123.77181 128.57758 136.094 142.0985 146.29949 151.10526 158.60007 163.9998 168.23319 177.50992 186.50588 191.60321 200.58837 203.59062 207.84561 212.10059 218.10509 226.1939 232.1984 237.59812 243.60262 247.19884 253.20334 256.2056 262.21009 268.2146 271.21684 277.22135 285.90409 291.30384 297.30833 300.31059 306.31507 311.7148 317.7193 322.52507 330.61384 334.8472 339.65296 345.05268 350.4524 354.68577 360.69029 363.69255 369.69703 378.3798 383.7795 388.01289 392.51625 398.52076 401.52299 405.72398 410.52973 415.33546 419.53645 425.54093 429.77433 435.17405 441.44853 446.25428 451.654 457.6585 462.46424 466.69764 471.50337 477.50788 482.3136 487.11936 493.48027 497.73524 502.541 508.2431 514.2476 519.0534 525.05789 529.86367 532.86587 538.87039 544.2701">TheFounderStewardmayissuenon-bindingguidanceregardingarchitecturalcoherence,sequencing,</tspan></text>
<text xml:space="preserve" transform="matrix(1 0 -0 1 0 792)" font-size="10.9091" font-family="LMRoman10"><tspan y="-360.182" x="72 77.45455 83.52001 93.2182 97.51639 103.27639 107.58549 111.829128 116.67276 129.40369 132.43642 138.19643 142.44007 147.29462 152.74916 157.02553 162.48007 166.72371 169.75644 175.21099 181.27645">andsystemintegration.</tspan><tspan y="-339.858" x="72 78.06546 84.13092 88.680019 98.389118 103.843669 109.90913 112.94186 119.00732 124.46187 130.52733 135.38188 140.23644">Suchguidance:</tspan></text>
<text xml:space="preserve" transform="matrix(1 0 -0 1 0 792)" font-size="10.9091" font-family="LMRoman10"><tspan y="-313.557" x="72">&#x2022;</tspan></text>
<text xml:space="preserve" transform="matrix(1 0 -0 1 0 792)" font-size="10.9091" font-family="LMRoman10"><tspan y="-313.557" x="85.94183 90.79639 96.25094 100.527309 104.80367 107.8364 112.69095 120.621868 126.687328 135.78553 141.85099 144.88372 149.16008 154.01464 158.85828 163.10192 166.13465 171.60012 180.0874 185.54195 191.6074 195.85105 201.9165 207.37105 211.64742 214.68015 218.61833">carriesnodirectiveauthority</tspan></text>
<text xml:space="preserve" transform="matrix(1 0 -0 1 0 792)" font-size="10.9091" font-family="LMRoman10"><tspan y="-291.24003" x="72">&#x2022;</tspan></text>
<text xml:space="preserve" transform="matrix(1 0 -0 1 0 792)" font-size="10.9091" font-family="LMRoman10"><tspan y="-291.24003" x="85.94183 95.02911 100.17821 109.58185 115.94186 124.44004 130.5055 133.53823 137.81459 142.66915 147.5237 151.76734 156.62189 166.32009 170.56372 179.651 183.89464 189.9601 198.4583 207.02194 212.17104 217.6256 222.48015 226.75652 232.82198 235.8547 241.92017 251.00745 258.73109 264.4911 270.55656 279.94929 285.40385 293.32386 298.1784 303.93843 308.79298 313.64753 319.71299 323.95664 326.98936 332.4439 340.93119 345.22938 349.47303 354.92759 358.10758">maybedirectedtotheGoverningBodyorexecutivestaff</tspan></text>
<text xml:space="preserve" transform="matrix(1 0 -0 1 0 792)" font-size="10.9091" font-family="LMRoman10"><tspan y="-268.924" x="72">&#x2022;</tspan></text>
<text xml:space="preserve" transform="matrix(1 0 -0 1 0 792)" font-size="10.9091" font-family="LMRoman10"><tspan y="-268.924" x="85.94183 92.00729 97.7673 102.62186 110.55277 116.61823 122.072788 129.96007 134.80371 139.08008 143.93463 149.38918 153.63282 162.13101 167.58556 173.65102 176.68375 179.71648 185.17102 190.62557 194.8692 197.90193 203.35648 209.42194 213.72013 220.38559 225.24015 231.00016 237.37107 242.22562 247.08017 251.3238 256.77836 261.022 264.05473 269.50929 275.57475 279.87294 286.53837 291.99293 299.902 305.96748 310.24385 315.0984 319.39659 325.46205 334.54933 340.62568 344.86933 347.90205 353.3566 359.42207 367.35298 372.80754 379.77845 385.233 391.29847 396.75303 402.81849 407.06214 410.09486 415.5494">doesnotcreateobligations,expectations,orpresumptionsofadoption</tspan></text>
<text xml:space="preserve" transform="matrix(1 0 -0 1 0 792)" font-size="10.9091" font-family="LMRoman10"><tspan y="-246.60802" x="72">&#x2022;</tspan></text>
<text xml:space="preserve" transform="matrix(1 0 -0 1 0 792)" font-size="10.9091" font-family="LMRoman10"><tspan y="-246.60802" x="85.94183 90.2182 95.072757 104.160037 109.614589 112.647319 118.712779 126.64369 129.98188 136.04734 139.08007 142.1128 151.51645 155.81464 161.8801 168.251 171.58919 176.44374 181.2983 189.17467 193.4183 202.50559 207.65468 213.12015 217.9747 222.25107 226.52744 229.56017 235.62563 244.11292 249.56746 257.47657 263.54203 266.57475 270.87294 275.1493 280.00386 285.4584 290.91297 295.18934 304.89845 310.65846 320.05119 324.29484 330.3603 338.84757 347.4112 352.5712 358.02577 362.8803 367.15669 373.22215 376.25486 382.3203 391.4076 399.13124 404.89125 410.9567">remainsfullysubjecttooverrideordisregardbytheGoverningBody</tspan><tspan y="-220.30602" x="72 82.00365 88.06911 92.312747 97.767299 103.832759 106.865489 109.89822 112.93095 116.869129 122.62913 130.5164 138.5455 143.40006 149.16007 152.1928 156.49098 161.94553 168.01099 171.04372">Mutability:Revisable</tspan></text>
<text xml:space="preserve" transform="matrix(1 0 -0 1 0 792)" font-size="10.9091" font-family="LMRoman10" font-weight="bold"><tspan y="-191.49602" x="72 78.272739 81.75274 88.025478 94.29821 97.77821">6.11.3</tspan></text>
<text xml:space="preserve" transform="matrix(1 0 -0 1 0 792)" font-size="10.9091" font-family="LMRoman10" font-weight="bold"><tspan y="-191.49602" x="113.4655 122.59642 128.34552 133.29825 138.17462 145.14554 150.89464 155.77101 159.251 169.00376 175.97467 180.85105 186.60015 195.31652 201.4147 206.58562 213.55654 218.50926 225.48018 228.96018 240.10929 246.20748 253.17839 264.33839 273.9602 277.44023 282.61116 288.36024 293.93479 298.81117 302.29118 308.5639 315.53483 321.633 329.2912 338.42213 345.39305 350.2694 357.24034 363.51307 368.68397 372.16398 376.69126">AestheticStewardshipandDirectionalAuthority</tspan></text>
<text xml:space="preserve" transform="matrix(1.0029956 0 -0 .9970134 0 792)" font-size="10.941778" font-family="LMRoman10"><tspan y="-171.41497" x="71.784969 79.9913 84.86039 96.38208 104.7416 110.21249 115.68337 121.15426 126.023349 130.31252 133.35434 138.82523 144.90886 154.62516 159.49427 163.80532 168.06168 173.53256 179.61618 182.658 185.69983 190.0109 196.09452 200.96361 208.90735 214.37824 224.0836 231.98357 236.85266 241.16373 245.42008 251.50371 256.3728 260.62916 263.67097 272.17274 278.25639 282.51274 287.3818 294.9754 300.4463 304.73548 310.8191 315.13017 321.2138 324.25566 333.97196 342.33146 347.80235 356.91688 362.38777 365.42958 375.13493 380.6058 385.78126 391.25215 396.12123 400.4104 406.49406 409.5359 415.6195 424.72309 430.50035 433.54216 437.8532 443.93687 449.40776 452.44956 459.1131 463.42417 469.5078 474.9787 479.23506 482.27687 487.74775 490.78959 497.46409 506.57859 512.0495 516.30587 521.1749 525.4641 528.50588 533.9768 537.0186">NewDoggerlandestablishesanAestheticStewardshipDomaingoverningvisual,spatial,material,</tspan></text>
<text xml:space="preserve" transform="matrix(1 0 -0 1 0 792)" font-size="10.9091" font-family="LMRoman10"><tspan y="-157.354" x="72 77.45455 81.69819 90.78547 96.24002 100.53821 106.60367 112.66913 117.52368 121.80005 124.83278 129.68733 136.3528 141.80735 147.8728 157.58191 162.43647 168.19647 174.56739 179.41103 183.6874 186.72013 191.57468 197.3456 201.58924 204.62197 210.0765 216.74198 221.59653 227.05107 233.11653 237.97109 242.24745 247.102 253.16747 258.022 266.50929 271.96385 276.8184 281.09477 286.54933 290.8475 298.7784 303.02207 309.08753 317.58573 322.44029 326.73847 330.98213 336.43669 340.68034 345.53489">atmospheric,andexperientialcoherenceacrosstheestate.</tspan></text>
<text xml:space="preserve" transform="matrix(.9939819 0 -0 1.0060546 0 792)" font-size="10.843447" font-family="LMRoman10"><tspan y="-136.20532" x="72.04055 79.869518 85.898479 94.39974 100.56967 105.99139 112.02035 118.04931 124.07826 128.9036 136.83016 142.85912 147.07721 151.90256 159.42792 164.84964 169.10027 178.80516 183.05579 188.47753 191.492 200.0041 206.03307 211.45479 214.46927 220.49823 228.44649 233.27182 238.99716 243.8225 246.83698 252.86594 257.13825 260.1527 265.57444 274.0757 279.49745 285.5264 289.7445 295.77348 301.1952 305.4458 308.4603 312.37477 321.77604 325.99415 335.10264 338.11714 342.38945 346.66178 352.69075 361.192 366.6137 371.43907 375.7114 379.92948 385.95845 390.78379 395.0019 398.01637 406.51765 411.34297 416.76469 425.79728 431.82624 437.248 441.46607 444.48057 450.50953 453.524 456.53849 459.55296 463.46745 472.8687 478.89768 483.723 487.9411 492.76646 497.01707 506.04966 509.06416 515.0931 520.51486 524.7329 527.7474 533.1691 539.19808">TheFounderStewardroleholdsexclusiveauthoritytoissueaestheticcompatibilitydeterminations</tspan></text>
<text xml:space="preserve" transform="matrix(.9944848 0 -0 1.0055457 0 792)" font-size="10.848934" font-family="LMRoman10"><tspan y="-122.799999" x="72.00413 79.83706 82.85306 87.073299 93.10531 96.12131 105.8094 110.02964 116.06165 124.54552 132.37845 137.20623 141.4807 145.70093 151.73294 156.56072 160.78095 163.79695 172.28083 178.31282 182.53305 187.36083 194.89 200.31446 204.56725 210.59925 214.87372 220.90572 223.92173 233.60982 241.8984 247.32288 256.36003 261.78453 264.8005 274.48863 282.32154 288.35356 291.36958 294.38557 302.86943 307.08967 313.12168 321.60554 325.85835 331.2828 334.2988 342.78266 347.61045 353.33869 356.35469 360.62916 364.8494 369.1239 377.01106 384.844 390.876 393.892 401.82258 407.24705 413.27909 417.4993 423.5313 428.9558 433.2086 436.22459 440.14106 449.5254 454.94987 459.1701 463.39036 468.81483 473.33885 479.37086 484.1986 492.1292 496.34944 505.43 509.65025 515.68228 524.16616 528.4189 533.8433 536.8594 541.68716">withintheAestheticStewardshipDomainwhiletheroleexists.Thisauthorityattachestotherole,</tspan></text>
<text xml:space="preserve" transform="matrix(1 0 -0 1 0 792)" font-size="10.9091" font-family="LMRoman10"><tspan y="-109.931" x="72 78.06546 83.52001 91.39638 95.640018 101.705478 110.20367 113.2364 119.30186 125.36732 128.40004 134.16005 137.19278 143.25824 149.3237 154.77825 157.81098">nottheindividual.</tspan></text>
<text xml:space="preserve" transform="matrix(1.0099504 0 -0 .99014756 0 792)" font-size="11.017651" font-family="LMRoman10"><tspan y="-90.49965" x="70.89061 78.85637 83.759227 88.100177 92.38605 98.511859 103.41471 107.70058 110.76348 119.908138 124.81098 130.31981 139.49752 145.62334 151.13216 155.41803 158.48093 164.60675 167.66965 170.73256 173.79547 177.78386 187.85399 193.9798 198.88266 203.16852 208.07138 212.37929 221.55699 224.61989 230.74571 236.25453 240.5404 243.6033 249.11214 255.249 263.83177 269.34056 273.6595 282.81517 288.94099 294.44978 300.5756 304.24449 310.37028 313.4332 319.559 325.6848 328.7477 334.87355 344.62416 350.74998 356.8868 359.9497 364.84153 369.1935 377.77626 383.28507 389.4109 394.9197 401.0455 405.3314 410.23423 420.61286 426.4412 436.5003 440.7862 446.912 456.06767 464.71653 469.92787 475.4367 480.33955 484.65849 490.7843 493.8472 499.97303 509.73466 517.53518 523.34146 529.4672">Aestheticcompatibilitydeterminationsarenon-bindingunlessadoptedbytheGoverningBody</tspan></text>
<text xml:space="preserve" transform="matrix(1 0 -0 1 0 792)" font-size="10.9091" font-family="LMRoman10"><tspan y="-76.058" x="72 76.24364 82.3091 86.585468 92.040019 98.10548 103.56003 113.25822 117.501857 123.567317 132.0655 137.52005 143.58551 149.65097 152.6837 155.71643 160.57099 166.02553 172.09099 175.12372 183.61101 189.06555 194.21465 199.68012 204.52376 208.80013 214.86559 220.32013 226.3965 231.24015 239.73834 245.8038 250.08017 255.84017 260.6947 265.53837 269.84745 274.14564">throughtheapplicablegovernanceprocess.</tspan></text>
<text xml:space="preserve" transform="matrix(1 0 -0 1 0 792)" font-size="10.9091" font-family="LMRoman10"><tspan y="-42.112" x="300.54499 305.99955">28</tspan></text>
</svg>
