<svg xmlns="http://www.w3.org/2000/svg" xmlns:xlink="http://www.w3.org/1999/xlink" xmlns:inkscape="http://www.inkscape.org/namespaces/inkscape" version="1.1" width="612" height="792" viewBox="0 0 612 792">
<text xml:space="preserve" transform="matrix(1 0 -0 1 0 792)" font-size="17.2154" font-family="LMRoman17"><tspan y="-665.305" x="92.678 104.60828 111.59773 128.29666 140.46796 148.36983 156.2717 164.17357 171.16303 177.25728 181.56113 189.463 198.26007 212.2562 222.6543 234.15419 242.05606 250.85314 257.03349 264.93534 269.2392 273.54307 282.3229 290.24198 296.3362 303.32566 317.30455 329.80293 337.25718 345.15904 352.14848 358.2427 367.03977 374.94163 383.73869 390.72813 402.91664 415.08793 423.43739 430.42683 439.22389 452.51417 459.5036 467.85307 479.14637 487.49583 495.39768 499.70155 507.6034 511.90727">NewDoggerland-ConsolidatedGovernanceDocumentv0.5.2</tspan></text>
<text xml:space="preserve" transform="matrix(1 0 -0 1 0 792)" font-size="14.3462" font-family="LMRoman12" font-weight="bold"><tspan y="-576.239" x="72 83.66346 91.74037 100.26202 106.545658 113.90526 122.4269 128.71054">Contents</tspan></text>
<text xml:space="preserve" transform="matrix(1 0 -0 1 0 792)" font-size="10.9091" font-family="LMRoman10" font-weight="bold"><tspan y="-547.755" x="72 88.363658 96.93821 103.90913 109.08004 116.40005 122.67278 127.62551 137.5528 143.65099 150.6219 161.78192 173.69466 177.17465 182.12738 187.08011 190.5601 196.83284 207.98195 215.53105 222.15288 227.37834">1PurposeandMissionLock</tspan></text>
<text xml:space="preserve" transform="matrix(1 0 -0 1 0 792)" font-size="10.9091" font-family="LMRoman10" font-weight="bold"><tspan y="-547.755" x="533.7495">5</tspan></text>
<text xml:space="preserve" transform="matrix(1 0 -0 1 0 792)" font-size="10.9091" font-family="LMRoman10"><tspan y="-534.206" x="88.364 93.81855 96.85128 113.45493 121.78949 127.24404 136.33133 141.78588 144.8186 150.88407 154.5168 160.58226 166.95317 171.80773 176.66228 179.695 182.72774 185.76047 194.24776 202.73503 208.80049 213.04413 216.07686 225.16414 228.19687 233.05142 238.50597 242.7496 245.78234 251.23688 260.94599 268.82237 274.27693 280.34239 284.64057 288.88423 293.16059 298.61515 301.64787 307.40788">1.1Domain-SpecificOptimizationConstraint</tspan></text>
<text xml:space="preserve" transform="matrix(1 0 -0 1 0 792)" font-size="10.9091" font-family="LMRoman10"><tspan y="-534.206" x="320.8588 329.34608 337.83335 346.32063 354.8079 363.29518 371.78245 380.2697 388.757 397.24427 405.73155 414.2188 422.7061 431.19337 439.68064 448.1679 456.65519 465.13154 473.6188 482.10609 490.59336 499.08064 507.5679 516.0552">........................</tspan></text>
<text xml:space="preserve" transform="matrix(1 0 -0 1 0 792)" font-size="10.9091" font-family="LMRoman10"><tspan y="-534.206" x="534.677">5</tspan></text>
<text xml:space="preserve" transform="matrix(1 0 -0 1 0 792)" font-size="10.9091" font-family="LMRoman10" font-weight="bold"><tspan y="-509.748" x="72 87.88365 97.01457 103.98549 108.861858 115.83277 122.10551 127.27642 130.75643 135.2837 140.86917 148.52736 158.34555 161.82555 167.57465 172.74556 178.84375 184.01467 189.24013 195.86196 201.43651 209.10559 215.20378 222.1747 233.3238 241.89836 247.06928 252.81838 258.3929 264.142 271.1129 276.862 283.83293 289.40748">2Authority,Hierarchy,andPrecedence</tspan></text>
<text xml:space="preserve" transform="matrix(1 0 -0 1 0 792)" font-size="10.9091" font-family="LMRoman10" font-weight="bold"><tspan y="-509.748" x="533.71676">5</tspan></text>
<text xml:space="preserve" transform="matrix(1 0 -0 1 0 792)" font-size="10.9091" font-family="LMRoman10" font-weight="bold"><tspan y="-485.289" x="72 88.363658 97.98548 103.73457 108.90549 112.38549 118.309139 124.407329 129.28369 132.76369 139.03643 150.18553 156.28372 163.25464 174.41464 183.4801 189.75284 200.20375 207.17467 212.34558 218.09468 223.04741 228.00014 231.48014 237.75287 248.90198 257.47654 262.64747 266.12748 273.0984 278.67295 282.15296 289.12388 292.60389">3DerivationandCompressionPrinciple</tspan></text>
<text xml:space="preserve" transform="matrix(1 0 -0 1 0 792)" font-size="10.9091" font-family="LMRoman10" font-weight="bold"><tspan y="-485.289" x="533.7277">6</tspan></text>
<text xml:space="preserve" transform="matrix(1 0 -0 1 0 792)" font-size="10.9091" font-family="LMRoman10" font-weight="bold"><tspan y="-460.831" x="72 88.363658 97.98548 103.73457 107.22003 110.70549 117.67641 121.15641 126.032779 129.51277 135.7855 142.75643">4Definitions</tspan></text>
<text xml:space="preserve" transform="matrix(1 0 -0 1 0 792)" font-size="10.9091" font-family="LMRoman10" font-weight="bold"><tspan y="-460.831" x="533.727">6</tspan></text>
<text xml:space="preserve" transform="matrix(1 0 -0 1 0 792)" font-size="10.9091" font-family="LMRoman10"><tspan y="-447.28199" x="88.36398 93.818538 96.851268 113.45492 119.6731 125.127658 131.19312 137.25858 143.32404 148.17859">4.1Founder</tspan></text>
<text xml:space="preserve" transform="matrix(1 0 -0 1 0 792)" font-size="10.9091" font-family="LMRoman10"><tspan y="-447.28199" x="159.60042 168.08769 176.57497 185.06224 193.54952 202.03679 210.52407 219.01134 227.49861 235.98589 244.47316 252.96044 261.44773 269.935 278.42228 286.90956 295.39683 303.8841 312.37138 320.85865 329.34593 337.8332 346.32048 354.80775 363.2841 371.77137 380.25865 388.7459 397.2332 405.72047 414.20774 422.695 431.18229 439.66957 448.15684 456.6441 465.13139 473.61866 482.10594 490.5932 499.08049 507.56776 516.055">...........................................</tspan></text>
<text xml:space="preserve" transform="matrix(1 0 -0 1 0 792)" font-size="10.9091" font-family="LMRoman10"><tspan y="-447.28199" x="534.6659">6</tspan></text>
<text xml:space="preserve" transform="matrix(1 0 -0 1 0 792)" font-size="10.9091" font-family="LMRoman10"><tspan y="-433.73298" x="88.36398 93.818538 96.851268 113.45492 119.52038 123.764019 128.61856 136.18949 141.64403 145.9204 151.98586 156.28404 162.3495 165.38224">4.2Stewardship</tspan></text>
<text xml:space="preserve" transform="matrix(1 0 -0 1 0 792)" font-size="10.9091" font-family="LMRoman10"><tspan y="-433.73298" x="176.57497 185.06224 193.54952 202.03679 210.52407 219.01134 227.49861 235.98589 244.47316 252.96044 261.44773 269.92408 278.41136 286.89863 295.3859 303.87318 312.36045 320.84773 329.335 337.82228 346.30955 354.7968 363.2841 371.77137 380.25865 388.7459 397.2332 405.72047 414.20774 422.695 431.18229 439.66957 448.15684 456.6441 465.13139 473.61866 482.10594 490.5932 499.08049 507.56776 516.0441">.........................................</tspan></text>
<text xml:space="preserve" transform="matrix(1 0 -0 1 0 792)" font-size="10.9091" font-family="LMRoman10"><tspan y="-433.73298" x="534.66598">7</tspan></text>
<text xml:space="preserve" transform="matrix(1 0 -0 1 0 792)" font-size="10.9091" font-family="LMRoman10"><tspan y="-420.18299" x="88.36398 93.818538 96.851268 113.45492 119.52038 123.764019 128.61856 136.18949 141.64403 145.9204 151.98586 155.01859 162.96042 171.4477 174.47679 177.50589 180.53498 185.38953">4.3Steward&#x2019;sOffice</tspan></text>
<text xml:space="preserve" transform="matrix(1 0 -0 1 0 792)" font-size="10.9091" font-family="LMRoman10"><tspan y="-420.18299" x="193.53864 202.02591 210.51319 219.00046 227.48773 235.975 244.46228 252.94956 261.43684 269.9241 278.41139 286.89866 295.38594 303.8732 312.36048 320.84776 329.33503 337.8223 346.30958 354.79685 363.28413 371.7714 380.25868 388.73503 397.2223 405.70957 414.19685 422.6841 431.1714 439.65867 448.14595 456.6332 465.12049 473.60777 482.09504 490.5823 499.06959 507.55686 516.0441">.......................................</tspan></text>
<text xml:space="preserve" transform="matrix(1 0 -0 1 0 792)" font-size="10.9091" font-family="LMRoman10"><tspan y="-420.18299" x="534.655">7</tspan></text>
<text xml:space="preserve" transform="matrix(1 0 -0 1 0 792)" font-size="10.9091" font-family="LMRoman10"><tspan y="-406.63398" x="88.36398 93.818538 96.851268 113.45492 119.52038 123.764019 128.61856 136.18949 141.64403 145.9204 151.98586 156.28404 162.3495 165.38224 175.09134 183.27317 189.33863 195.70954 201.16408 204.19681 209.95682 214.20046 223.28774 228.14229 233.9023 238.14594 244.82231 251.78232 256.63688 260.91325 270.00053 276.66596 282.1205 288.18598 297.89509 305.16056 310.6151 315.46968 320.92424 326.9897 331.84425">4.4StewardshipAppointment,Term,andVacancy</tspan></text>
<text xml:space="preserve" transform="matrix(1 0 -0 1 0 792)" font-size="10.9091" font-family="LMRoman10"><tspan y="-406.63398" x="346.33155 354.81883 363.3061 371.79338 380.28065 388.7679 397.2552 405.74247 414.22975 422.717 431.20429 439.69157 448.17884 456.6661 465.15339 473.64067 482.12794 490.6152 499.10249 507.58976 516.0661">.....................</tspan></text>
<text xml:space="preserve" transform="matrix(1 0 -0 1 0 792)" font-size="10.9091" font-family="LMRoman10"><tspan y="-406.63398" x="534.6879">8</tspan></text>
<text xml:space="preserve" transform="matrix(1 0 -0 1 0 792)" font-size="10.9091" font-family="LMRoman10"><tspan y="-393.08497" x="88.36398 93.818538 96.851268 113.45492 119.52038 125.58584 131.95674 136.8113 141.08766 150.17494 155.93494 159.27312 164.72766 169.00403 172.03676 175.97495">4.5Supermajority</tspan></text>
<text xml:space="preserve" transform="matrix(1 0 -0 1 0 792)" font-size="10.9091" font-family="LMRoman10"><tspan y="-393.08497" x="185.06223 193.5495 202.03678 210.52405 219.01132 227.4986 235.98587 244.47315 252.96042 261.4477 269.93498 278.42225 286.90953 295.3968 303.88407 312.37135 320.8586 329.3459 337.83317 346.32044 354.8077 363.29499 371.78227 380.26954 388.7568 397.24409 405.73136 414.2077 422.69499 431.18226 439.66954 448.1568 456.64408 465.13136 473.61863 482.1059 490.59318 499.08045 507.56773 516.055">........................................</tspan></text>
<text xml:space="preserve" transform="matrix(1 0 -0 1 0 792)" font-size="10.9091" font-family="LMRoman10"><tspan y="-393.08497" x="534.6768">9</tspan></text>
<text xml:space="preserve" transform="matrix(1 0 -0 1 0 792)" font-size="10.9091" font-family="LMRoman10"><tspan y="-379.53596" x="88.36398 93.818538 96.851268 113.45492 120.88402 126.64402 130.88767 135.16403 140.61858 146.07312 150.34949 156.41495 159.44768 165.51314 170.96768 175.24405 184.6477 192.0768 196.35317 202.10225 206.9568 211.81136 216.10955">4.6ExtraordinaryProcess</tspan></text>
<text xml:space="preserve" transform="matrix(1 0 -0 1 0 792)" font-size="10.9091" font-family="LMRoman10"><tspan y="-379.53596" x="227.49864 235.98592 244.47319 252.96047 261.44776 269.93504 278.4223 286.90959 295.39686 303.88414 312.3714 320.85868 329.34596 337.83323 346.3205 354.80778 363.29505 371.7714 380.25868 388.74595 397.23323 405.7205 414.20777 422.69505 431.1823 439.6696 448.15687 456.64414 465.1314 473.61869 482.10597 490.59324 499.0805 507.56779 516.05508">...................................</tspan></text>
<text xml:space="preserve" transform="matrix(1 0 -0 1 0 792)" font-size="10.9091" font-family="LMRoman10"><tspan y="-379.53596" x="534.66598">9</tspan></text>
<text xml:space="preserve" transform="matrix(1 0 -0 1 0 792)" font-size="10.9091" font-family="LMRoman10"><tspan y="-365.98695" x="88.36398 93.818538 96.851268 113.05128 120.92764 125.782199 130.02584 133.05857 138.52404 147.01132 154.27678 159.73133 163.97496 167.00769 173.08406 182.17134 188.2368 193.09136 198.5459 202.78954">4.7ActiveVotingSeats</tspan></text>
<text xml:space="preserve" transform="matrix(1 0 -0 1 0 792)" font-size="10.9091" font-family="LMRoman10"><tspan y="-365.98695" x="210.51319 219.00046 227.48773 235.975 244.46228 252.94956 261.43684 269.9241 278.41139 286.89866 295.38594 303.8732 312.36048 320.84776 329.33503 337.8223 346.30958 354.79685 363.28413 371.7714 380.25868 388.74595 397.23323 405.7205 414.20777 422.69505 431.1823 439.65867 448.14595 456.6332 465.12049 473.60777 482.09504 490.5823 499.06959 507.55686 516.0441">.....................................</tspan></text>
<text xml:space="preserve" transform="matrix(1 0 -0 1 0 792)" font-size="10.9091" font-family="LMRoman10"><tspan y="-365.98695" x="534.66598">9</tspan></text>
<text xml:space="preserve" transform="matrix(1 0 -0 1 0 792)" font-size="10.9091" font-family="LMRoman10"><tspan y="-352.43794" x="88.36398 93.818538 96.851268 113.45492 120.88402 125.160388 130.61493 136.98584 141.8404 146.11676 149.14949 158.54224 166.57134 171.42589 177.1859 183.25136 188.10591 192.4041 196.64774 201.50229 211.2114 221.21504 226.0696 230.91324 235.15688 238.1896 244.25507">4.8ProperlyRequestedMeeting</tspan></text>
<text xml:space="preserve" transform="matrix(1 0 -0 1 0 792)" font-size="10.9091" font-family="LMRoman10"><tspan y="-352.43794" x="252.98235 261.46965 269.9569 278.44419 286.93147 295.41874 303.906 312.39329 320.88056 329.36784 337.8551 346.34239 354.82966 363.31694 371.8042 380.29148 388.77876 397.26603 405.7533 414.22966 422.71693 431.2042 439.69148 448.17875 456.66603 465.1533 473.64057 482.12785 490.6151 499.1024 507.58967 516.0769">................................</tspan></text>
<text xml:space="preserve" transform="matrix(1 0 -0 1 0 792)" font-size="10.9091" font-family="LMRoman10"><tspan y="-352.43794" x="529.2442 534.6987">10</tspan></text>
<text xml:space="preserve" transform="matrix(1 0 -0 1 0 792)" font-size="10.9091" font-family="LMRoman10"><tspan y="-338.88795" x="88.36398 93.818538 96.851268 113.45492 123.458568 128.91312 133.15676 138.0113 142.28768 145.3204 150.77495 153.80768 156.84041 166.23316 174.41498 177.59499 180.77498 185.62953 190.48409 194.72772">4.9MateriallyAffects</tspan></text>
<text xml:space="preserve" transform="matrix(1 0 -0 1 0 792)" font-size="10.9091" font-family="LMRoman10"><tspan y="-338.88795" x="202.02591 210.51319 219.00046 227.48773 235.975 244.46228 252.94956 261.43684 269.9241 278.41139 286.89866 295.38594 303.8732 312.36048 320.84776 329.33503 337.8223 346.29866 354.78593 363.2732 371.76048 380.24775 388.73503 397.2223 405.70957 414.19685 422.6841 431.1714 439.65867 448.14595 456.6332 465.12049 473.60777 482.09504 490.5823 499.06959 507.55686 516.0441">......................................</tspan></text>
<text xml:space="preserve" transform="matrix(1 0 -0 1 0 792)" font-size="10.9091" font-family="LMRoman10"><tspan y="-338.88795" x="529.2005 534.655">10</tspan></text>
<text xml:space="preserve" transform="matrix(1 0 -0 1 0 792)" font-size="10.9091" font-family="LMRoman10"><tspan y="-325.33894" x="88.36398 93.818538 96.851268 102.30582 113.45492 123.458568 128.91312 133.15676 138.0113 142.28768 145.3204 150.77495 157.44042 165.3277 170.18225 174.42589 177.45862 182.91316">4.10MaterialAction</tspan></text>
<text xml:space="preserve" transform="matrix(1 0 -0 1 0 792)" font-size="10.9091" font-family="LMRoman10"><tspan y="-325.33894" x="193.54953 202.0368 210.52408 219.01136 227.49863 235.9859 244.47318 252.96045 261.44773 269.92408 278.41136 286.89863 295.3859 303.87318 312.36045 320.84773 329.335 337.82228 346.30955 354.7968 363.2841 371.77137 380.25865 388.7459 397.2332 405.72047 414.20774 422.695 431.18229 439.66957 448.15684 456.6441 465.13139 473.61866 482.10594 490.5932 499.08049 507.56776 516.0441">.......................................</tspan></text>
<text xml:space="preserve" transform="matrix(1 0 -0 1 0 792)" font-size="10.9091" font-family="LMRoman10"><tspan y="-325.33894" x="529.2114 534.66598">11</tspan></text>
<text xml:space="preserve" transform="matrix(1 0 -0 1 0 792)" font-size="10.9091" font-family="LMRoman10"><tspan y="-311.78993" x="88.36398 93.818538 96.851268 102.30582 113.45492 121.48402 126.33856 131.19312 136.64766 140.92403 146.98949 151.84404 161.54224 169.87679 174.73134 179.58589 182.61862 186.91681 189.94954 195.40409 205.11319 212.23683 217.69138 221.93502 227.69503 235.26595 240.42595">4.11RecordedDecisionPathway</tspan></text>
<text xml:space="preserve" transform="matrix(1 0 -0 1 0 792)" font-size="10.9091" font-family="LMRoman10"><tspan y="-311.78993" x="252.97142 261.4587 269.94599 278.43327 286.92054 295.39689 303.88417 312.37144 320.8587 329.34599 337.83326 346.32054 354.8078 363.29508 371.78236 380.26963 388.7569 397.24418 405.73146 414.21873 422.706 431.19328 439.68055 448.16783 456.6551 465.14237 473.62965 482.1169 490.6042 499.09147 507.57875 516.066">................................</tspan></text>
<text xml:space="preserve" transform="matrix(1 0 -0 1 0 792)" font-size="10.9091" font-family="LMRoman10"><tspan y="-311.78993" x="529.22238 534.6769">11</tspan></text>
<text xml:space="preserve" transform="matrix(1 0 -0 1 0 792)" font-size="10.9091" font-family="LMRoman10"><tspan y="-298.2409" x="88.36398 93.818538 96.851268 102.30582 113.45492 121.17856 126.63311 132.69857 138.76403 144.82949 149.68404 159.39315 167.72769 170.76042 175.05861 179.91316 184.18953 189.04409 193.28772 196.32045 201.775">4.12BoundedDiscretion</tspan></text>
<text xml:space="preserve" transform="matrix(1 0 -0 1 0 792)" font-size="10.9091" font-family="LMRoman10"><tspan y="-298.2409" x="219.01137 227.49864 235.98592 244.47319 252.96047 261.44776 269.93504 278.4223 286.90959 295.39686 303.88414 312.3714 320.85868 329.34596 337.83323 346.3205 354.80778 363.29505 371.78233 380.2696 388.75688 397.24415 405.7314 414.2187 422.70597 431.19325 439.6696 448.15687 456.64414 465.1314 473.61869 482.10597 490.59324 499.0805 507.56779 516.05508">....................................</tspan></text>
<text xml:space="preserve" transform="matrix(1 0 -0 1 0 792)" font-size="10.9091" font-family="LMRoman10"><tspan y="-298.2409" x="529.22238 534.6769">12</tspan></text>
<text xml:space="preserve" transform="matrix(1 0 -0 1 0 792)" font-size="10.9091" font-family="LMRoman10"><tspan y="-284.6919" x="88.36398 93.818538 96.851268 102.30582 113.45492 121.48402 126.93857 133.00403 137.24767 140.2804 146.34586 151.20041 157.86588 165.89498 170.74953 176.215 181.06955 185.34592 189.6441 192.67684 198.7423 201.77503 206.62958 213.29505 218.74959 224.81505 234.51325 242.54235 247.99689 251.02962 255.88417 259.5169 265.58238 270.43693 275.89149 282.2624 287.11695">4.13Routine,Reversible,andRole-Scoped</tspan></text>
<text xml:space="preserve" transform="matrix(1 0 -0 1 0 792)" font-size="10.9091" font-family="LMRoman10"><tspan y="-284.6919" x="303.90605 312.3933 320.88059 329.36787 337.85514 346.3424 354.82969 363.31697 371.80424 380.2915 388.77879 397.26606 405.75334 414.2406 422.72789 431.21516 439.70243 448.1897 456.67698 465.15333 473.6406 482.12788 490.61515 499.10243 507.5897 516.07699">..........................</tspan></text>
<text xml:space="preserve" transform="matrix(1 0 -0 1 0 792)" font-size="10.9091" font-family="LMRoman10"><tspan y="-284.6919" x="529.24429 534.6988">12</tspan></text>
<text xml:space="preserve" transform="matrix(1 0 -0 1 0 792)" font-size="10.9091" font-family="LMRoman10"><tspan y="-271.1419" x="88.36398 93.818538 96.851268 102.30582 113.45492 120.88402 126.64402 130.88767 135.74222 140.01859 146.08405 151.53859 158.20406 166.7677 171.9277 177.38227 182.23682 186.51319 192.57865 198.03319 204.09865 208.9532 217.44049 225.62232 229.89868 235.96414 238.99687 243.24051 248.09506">4.14ExternalGovernanceArbiter</tspan></text>
<text xml:space="preserve" transform="matrix(1 0 -0 1 0 792)" font-size="10.9091" font-family="LMRoman10"><tspan y="-271.1419" x="261.48054 269.95689 278.44416 286.93144 295.4187 303.90599 312.39326 320.88053 329.3678 337.85508 346.34236 354.82963 363.3169 371.80418 380.29145 388.77873 397.266 405.75328 414.24055 422.7278 431.2151 439.70237 448.18965 456.6769 465.16419 473.65147 482.13874 490.626 499.11329 507.60057 516.0769">...............................</tspan></text>
<text xml:space="preserve" transform="matrix(1 0 -0 1 0 792)" font-size="10.9091" font-family="LMRoman10"><tspan y="-271.1419" x="529.2442 534.6987">13</tspan></text>
<text xml:space="preserve" transform="matrix(1 0 -0 1 0 792)" font-size="10.9091" font-family="LMRoman10"><tspan y="-257.5929" x="88.36398 93.818538 96.851268 102.30582 113.45492 120.88402 125.160388 130.01494 133.64768 141.8295 147.89496 153.96042 158.23679 163.38588 168.85135 173.7059 183.4041 190.83319 196.5932 200.83684 205.69139 209.96776 216.03322 221.48777 228.15323 236.71688 241.87688 247.33144 252.18599 256.46235 262.5278 267.98237 274.04783 278.90238 287.38966 295.57148 299.84785 305.9133 308.946 313.18968 318.04423">4.15Pre-ApprovedExternalGovernanceArbiter</tspan></text>
<text xml:space="preserve" transform="matrix(1 0 -0 1 0 792)" font-size="10.9091" font-family="LMRoman10"><tspan y="-257.5929" x="329.38969 337.87696 346.36424 354.8515 363.33879 371.82606 380.31333 388.8006 397.28788 405.77516 414.26243 422.7497 431.23698 439.72425 448.21153 456.6988 465.18608 473.67335 482.1606 490.63697 499.12425 507.6115 516.09878">.......................</tspan></text>
<text xml:space="preserve" transform="matrix(1 0 -0 1 0 792)" font-size="10.9091" font-family="LMRoman10"><tspan y="-257.5929" x="529.26608 534.7206">13</tspan></text>
<text xml:space="preserve" transform="matrix(1 0 -0 1 0 792)" font-size="10.9091" font-family="LMRoman10"><tspan y="-244.0439" x="88.36398 93.818538 96.851268 102.30582 113.45492 121.33129 126.78584 132.54586 136.78949 141.06586 146.5204 149.55313 152.58586 157.44042 167.14952 173.21498 179.28044 185.3459 189.64409 192.67682 198.74228 201.77501 207.22956 211.50592">4.16ControlledSubsidiary</tspan></text>
<text xml:space="preserve" transform="matrix(1 0 -0 1 0 792)" font-size="10.9091" font-family="LMRoman10"><tspan y="-244.0439" x="227.50959 235.99686 244.47322 252.9605 261.44779 269.93507 278.42234 286.9096 295.39689 303.88417 312.37144 320.8587 329.34599 337.83326 346.32054 354.8078 363.29508 371.78236 380.26963 388.7569 397.24418 405.73146 414.21873 422.706 431.19328 439.68055 448.16783 456.6551 465.14237 473.62965 482.1169 490.59327 499.08055 507.5678 516.05508">...................................</tspan></text>
<text xml:space="preserve" transform="matrix(1 0 -0 1 0 792)" font-size="10.9091" font-family="LMRoman10"><tspan y="-244.0439" x="529.22238 534.6769">14</tspan></text>
<text xml:space="preserve" transform="matrix(1 0 -0 1 0 792)" font-size="10.9091" font-family="LMRoman10"><tspan y="-230.4949" x="88.36398 93.818538 96.851268 102.30582 113.45492 119.52038 125.58584 131.65129 135.94948 138.98221 145.04767 148.0804 153.53495 157.81131 167.21497 175.77861 180.9277 186.38227 191.23682 195.51319 201.57865 207.03319 213.09865 217.9532 226.44049 234.31687 240.38233 245.83687 250.11324 254.35688 259.21144">4.17SubsidiaryGovernanceCharter</tspan></text>
<text xml:space="preserve" transform="matrix(1 0 -0 1 0 792)" font-size="10.9091" font-family="LMRoman10"><tspan y="-230.4949" x="269.95689 278.44416 286.93144 295.4187 303.90599 312.39326 320.88053 329.3678 337.85508 346.34236 354.82963 363.3169 371.80418 380.29145 388.77873 397.266 405.75328 414.2296 422.7169 431.20417 439.69145 448.1787 456.666 465.15327 473.64054 482.1278 490.61509 499.10237 507.58964 516.0769">..............................</tspan></text>
<text xml:space="preserve" transform="matrix(1 0 -0 1 0 792)" font-size="10.9091" font-family="LMRoman10"><tspan y="-230.4949" x="529.2442 534.6987">14</tspan></text>
<text xml:space="preserve" transform="matrix(1 0 -0 1 0 792)" font-size="10.9091" font-family="LMRoman10"><tspan y="-216.9459" x="88.36398 93.818538 96.851268 102.30582 113.45492 121.48402 126.33856 129.37129 134.82584 139.06948 143.92403 149.98949 153.62223 160.74587 166.20041 170.47678 174.42588 183.81862 190.78954 195.0659 200.52045 206.5859 210.8841 216.33864 221.19319 225.43683 228.46956 233.9241">4.18Related-PartyTransaction</tspan></text>
<text xml:space="preserve" transform="matrix(1 0 -0 1 0 792)" font-size="10.9091" font-family="LMRoman10"><tspan y="-216.9459" x="244.4623 252.94957 261.43687 269.92414 278.4114 286.89869 295.38597 303.87324 312.3605 320.84779 329.33506 337.82234 346.3096 354.79689 363.28416 371.77143 380.2587 388.74598 397.23326 405.72053 414.2078 422.69508 431.18235 439.66963 448.1569 456.64418 465.13145 473.6187 482.106 490.58235 499.0696 507.5569 516.0441">.................................</tspan></text>
<text xml:space="preserve" transform="matrix(1 0 -0 1 0 792)" font-size="10.9091" font-family="LMRoman10"><tspan y="-216.9459" x="529.2114 534.66598">14</tspan></text>
<text xml:space="preserve" transform="matrix(1 0 -0 1 0 792)" font-size="10.9091" font-family="LMRoman10"><tspan y="-203.3959" x="88.36398 93.818538 96.851268 102.30582 113.45492 117.393108 123.458568 129.52402 134.37857 140.74948 145.60404 151.6695 157.73496 162.58951 168.34952 176.2368 182.30226 188.36772 194.73863 199.59319 203.85865 209.61865 212.65139 216.94957 222.40412 230.32413 237.14232 242.29141 247.74597 252.60053">4.19IndependentSupervisorLayer</tspan></text>
<text xml:space="preserve" transform="matrix(1 0 -0 1 0 792)" font-size="10.9091" font-family="LMRoman10"><tspan y="-203.3959" x="261.48054 269.9678 278.45509 286.94236 295.42964 303.9169 312.40419 320.89146 329.37873 337.866 346.35328 354.84056 363.32783 371.8151 380.30238 388.78965 397.27693 405.7642 414.24055 422.7278 431.2151 439.70237 448.18965 456.6769 465.16419 473.65147 482.13874 490.626 499.11329 507.60057 516.0878">...............................</tspan></text>
<text xml:space="preserve" transform="matrix(1 0 -0 1 0 792)" font-size="10.9091" font-family="LMRoman10"><tspan y="-203.3959" x="529.2551 534.70968">15</tspan></text>
<text xml:space="preserve" transform="matrix(1 0 -0 1 0 792)" font-size="10.9091" font-family="LMRoman10"><tspan y="-189.84691" x="88.36398 93.818538 96.851268 102.30582 113.45492 121.33129 125.60766 130.4622 136.52767 139.5604 145.62586 148.65859 157.14588 161.08406 170.17134 176.2368 181.69135 184.72408 189.00045 198.08773 202.94228 208.7132">4.20CredibleImpairment</tspan></text>
<text xml:space="preserve" transform="matrix(1 0 -0 1 0 792)" font-size="10.9091" font-family="LMRoman10"><tspan y="-189.84691" x="219.01139 227.49866 235.98593 244.4732 252.96048 261.44776 269.93504 278.4223 286.90959 295.39686 303.88414 312.3714 320.85868 329.34596 337.83323 346.3205 354.80778 363.29505 371.7714 380.25868 388.74595 397.23323 405.7205 414.20777 422.69505 431.1823 439.6696 448.15687 456.64414 465.1314 473.61869 482.10597 490.59324 499.0805 507.56779 516.05508">....................................</tspan></text>
<text xml:space="preserve" transform="matrix(1 0 -0 1 0 792)" font-size="10.9091" font-family="LMRoman10"><tspan y="-189.84691" x="529.2114 534.66598">15</tspan></text>
<text xml:space="preserve" transform="matrix(1 0 -0 1 0 792)" font-size="10.9091" font-family="LMRoman10"><tspan y="-176.29792" x="88.36398 93.818538 96.851268 102.30582 113.45492 123.458568 128.91312 133.15676 138.0113 142.28768 145.3204 150.77495 157.44042 164.56406 167.59679 173.66225 179.11679 185.18225 190.0368 193.06954 198.52408 205.20046 209.13864 214.89865 219.14229 223.99684 228.27321 233.12776 237.42595">4.21MaterialFinancialInterest</tspan></text>
<text xml:space="preserve" transform="matrix(1 0 -0 1 0 792)" font-size="10.9091" font-family="LMRoman10"><tspan y="-176.29792" x="244.48413 252.9714 261.45869 269.94596 278.43324 286.9205 295.40779 303.89506 312.38233 320.8696 329.35688 337.84416 346.3205 354.80778 363.29505 371.78233 380.2696 388.75688 397.24415 405.7314 414.2187 422.70597 431.19325 439.6805 448.1678 456.65507 465.14234 473.6296 482.11689 490.60417 499.09144 507.5787 516.066">.................................</tspan></text>
<text xml:space="preserve" transform="matrix(1 0 -0 1 0 792)" font-size="10.9091" font-family="LMRoman10"><tspan y="-176.29792" x="529.22238 534.6769">16</tspan></text>
<text xml:space="preserve" transform="matrix(1 0 -0 1 0 792)" font-size="10.9091" font-family="LMRoman10"><tspan y="-162.74892" x="88.36398 93.818538 96.851268 102.30582 113.45492 117.393108 123.458568 129.52402 134.37857 140.74948 145.60404 151.6695 157.73496 162.58951 168.34952 172.59316 175.62589 185.02954 192.295 197.74954 200.78227 206.84774 211.70229 221.41139 229.59322 235.04776 241.11322 245.4114 248.44414 254.5096 263.59687 271.3205 276.17506 282.2405 287.09507 290.12779 293.16053">4.22IndependentlyValuedHousingBenefit</tspan></text>
<text xml:space="preserve" transform="matrix(1 0 -0 1 0 792)" font-size="10.9091" font-family="LMRoman10"><tspan y="-162.74892" x="303.9169 312.40419 320.89146 329.37873 337.866 346.35328 354.84056 363.32783 371.8151 380.30238 388.78965 397.27693 405.7642 414.25148 422.73875 431.226 439.70237 448.18965 456.6769 465.16419 473.65147 482.13874 490.626 499.11329 507.60057 516.0878">..........................</tspan></text>
<text xml:space="preserve" transform="matrix(1 0 -0 1 0 792)" font-size="10.9091" font-family="LMRoman10"><tspan y="-162.74892" x="529.2551 534.70968">16</tspan></text>
<text xml:space="preserve" transform="matrix(1 0 -0 1 0 792)" font-size="10.9091" font-family="LMRoman10"><tspan y="-149.19992" x="88.36398 93.818538 96.851268 102.30582 113.45492 117.393108 123.458568 129.52402 134.37857 140.74948 145.60404 151.6695 157.73496 162.58951 168.34952 172.59316 175.62589 185.02954 192.295 197.14955 201.42592 204.45865 207.49138 210.52411 215.97866 222.04412 225.07685 233.57505 241.45142 246.90596 255.99324 262.35325 267.2078 273.27326 277.57145 283.026 287.26966 290.30238 295.75694 305.46604 313.8006 319.25517 323.4988">4.23IndependentlyVerifiableCompensationData</tspan></text>
<text xml:space="preserve" transform="matrix(1 0 -0 1 0 792)" font-size="10.9091" font-family="LMRoman10"><tspan y="-149.19992" x="337.8552 346.34248 354.82975 363.31703 371.8043 380.29158 388.77885 397.2661 405.7534 414.24067 422.72795 431.2152 439.70249 448.18977 456.67704 465.1643 473.65159 482.13887 490.6152 499.10249 507.58976 516.077">......................</tspan></text>
<text xml:space="preserve" transform="matrix(1 0 -0 1 0 792)" font-size="10.9091" font-family="LMRoman10"><tspan y="-149.19992" x="529.2443 534.69888">17</tspan></text>
<text xml:space="preserve" transform="matrix(1 0 -0 1 0 792)" font-size="10.9091" font-family="LMRoman10"><tspan y="-135.64992" x="88.36398 93.818538 96.851268 102.30582 113.45492 121.63674 127.7022 134.0731 138.92766 146.83676 154.26586 160.33132 170.04042 175.49497 182.46588 189.89498 194.17134 199.0259 204.1859 209.64044 212.67317 215.7059 218.72772 224.8041 233.89138 243.89502 249.34957 253.62593 259.08049 263.93504 271.8114 279.99324 285.44779 289.72416 298.81144">4.24UpperEndofPrevailingMarketNorms</tspan></text>
<text xml:space="preserve" transform="matrix(1 0 -0 1 0 792)" font-size="10.9091" font-family="LMRoman10"><tspan y="-135.64992" x="312.38236 320.86964 329.3569 337.84419 346.33146 354.81874 363.306 371.79328 380.28056 388.76783 397.2551 405.74238 414.22966 422.71693 431.2042 439.68055 448.16783 456.6551 465.14237 473.62965 482.1169 490.6042 499.09147 507.57875 516.066">.........................</tspan></text>
<text xml:space="preserve" transform="matrix(1 0 -0 1 0 792)" font-size="10.9091" font-family="LMRoman10"><tspan y="-135.64992" x="529.2333 534.6878">18</tspan></text>
<text xml:space="preserve" transform="matrix(1 0 -0 1 0 792)" font-size="10.9091" font-family="LMRoman10"><tspan y="-122.10092" x="88.36398 93.818538 96.851268 102.30582 113.45492 121.33129 126.78584 135.87313 142.24404 147.09859 153.16405 157.46224 162.91678 167.16042 170.19315 175.64769 185.34589 192.77498 198.84044 201.87317 204.9059 210.36045 214.65863 220.11318 226.18955 231.94956 241.3423 247.56049 251.83686 257.2914 266.3787 271.23326 278.80418 284.25874 288.5351">4.25CompensationPhilosophyFramework</tspan></text>
<text xml:space="preserve" transform="matrix(1 0 -0 1 0 792)" font-size="10.9091" font-family="LMRoman10"><tspan y="-122.10092" x="303.8624 312.34968 320.83695 329.32423 337.8115 346.29878 354.78605 363.27333 371.7606 380.24787 388.73515 397.2224 405.7097 414.19697 422.68424 431.1715 439.65879 448.14607 456.63334 465.1206 473.60789 482.09516 490.58244 499.0697 507.55699 516.04428">..........................</tspan></text>
<text xml:space="preserve" transform="matrix(1 0 -0 1 0 792)" font-size="10.9091" font-family="LMRoman10"><tspan y="-122.10092" x="529.2006 534.65518">18</tspan></text>
<text xml:space="preserve" transform="matrix(1 0 -0 1 0 792)" font-size="10.9091" font-family="LMRoman10"><tspan y="-108.551929" x="88.36398 93.818538 96.851268 102.30582 113.45492 121.789478 124.822208 130.27675 136.34221 139.37494 143.31313 152.71678 159.84043 162.87316 168.62224 174.07678">4.26DignityFloor</tspan></text>
<text xml:space="preserve" transform="matrix(1 0 -0 1 0 792)" font-size="10.9091" font-family="LMRoman10"><tspan y="-108.551929" x="185.05133 193.5386 202.02588 210.51316 219.00043 227.4877 235.97498 244.46225 252.94953 261.4368 269.92408 278.41136 286.89863 295.3859 303.87318 312.36045 320.84773 329.335 337.82228 346.2986 354.7859 363.27317 371.76045 380.2477 388.735 397.22227 405.70954 414.1968 422.68409 431.17137 439.65864 448.1459 456.63319 465.12046 473.60774 482.095 490.58229 499.06956 507.55683 516.04409">........................................</tspan></text>
<text xml:space="preserve" transform="matrix(1 0 -0 1 0 792)" font-size="10.9091" font-family="LMRoman10"><tspan y="-108.551929" x="529.20046 534.65499">18</tspan></text>
<text xml:space="preserve" transform="matrix(1 0 -0 1 0 792)" font-size="10.9091" font-family="LMRoman10" font-weight="bold"><tspan y="-84.093929" x="71.999988 88.36364 100.276378 103.75638 108.70911 113.661838 117.14184 123.41457 134.56368 141.53459 146.41097 152.50916 157.38553 163.13463 173.58554 179.33464 185.95647">5MissionStatement</tspan></text>
<text xml:space="preserve" transform="matrix(1 0 -0 1 0 792)" font-size="10.9091" font-family="LMRoman10" font-weight="bold"><tspan y="-84.093929" x="527.45498 533.72769">19</tspan></text>
<text xml:space="preserve" transform="matrix(1 0 -0 1 0 792)" font-size="10.9091" font-family="LMRoman10"><tspan y="-42.111928" x="303.27299">1</tspan></text>
</svg>
