<svg xmlns="http://www.w3.org/2000/svg" xmlns:xlink="http://www.w3.org/1999/xlink" xmlns:inkscape="http://www.inkscape.org/namespaces/inkscape" version="1.1" width="612" height="792" viewBox="0 0 612 792">
<text xml:space="preserve" transform="matrix(1 0 -0 1 0 792)" font-size="10.9091" font-family="LMRoman10"><tspan y="-709.041" x="72">&#x2022;</tspan></text>
<text xml:space="preserve" transform="matrix(1 0 -0 1 0 792)" font-size="10.9091" font-family="LMRoman10"><tspan y="-709.041" x="85.94183 93.37093 99.130939 103.37457 108.229129 112.50549 118.57095 124.025508 130.69097 136.14551 142.21097 147.97098 151.00371 155.3019 160.75644 165.0328 172.97464 180.85102 183.88375 188.12738 197.82558 203.89104 212.97832 218.43286 224.50923 228.75287 234.81833 240.27288 244.54924 247.58197 251.52016">Externaladvisorswithnoauthority</tspan><tspan y="-682.74" x="72 80.18182 89.269107 94.723659 100.789119 106.854579 109.88731 114.13094 117.16367 122.618228 128.68369 134.13823 140.8146 145.09098 150.54552 153.57825 158.4328 166.36373 171.81827 179.72737 184.58193 190.03647 199.12375 208.21103 211.24376 215.4874 219.73104 224.58559 229.44014 237.38198 242.83652 247.10198 255.60018 258.6329 267.72019 273.78565 276.81837 279.85108 284.70564 290.7711">Noadditionalrolesorcommitteesareimplied.</tspan></text>
<text xml:space="preserve" transform="matrix(1 0 -0 1 0 792)" font-size="11.9552" font-family="LMRoman12" font-weight="bold"><tspan y="-653.531" x="72 82.10214 94.85834 99.34154 108.9057 112.64768 123.861667 134.16706 140.30007 146.27767 150.01964 155.32775 159.06972 165.80049 177.75569 187.47527 191.21724 197.75673 203.06484 208.37294 212.11492 215.85092 219.58692 225.56452 232.104 237.34038 241.08235 247.81313 259.76835 267.99354 274.53303 282.005 285.74699">OM-B.2DecisionClassificationTable</tspan></text>
<text xml:space="preserve" transform="matrix(1 0 -0 1 0 792)" font-size="10.9091" font-family="LMRoman10"><tspan y="-632.938" x="71.607 79.483379 85.548839 94.03611 97.3743 102.82885 105.86158 108.89431 114.05431 121.93069 124.96342 131.02887 140.11615 144.35979 149.81433 155.87979 158.91252 167.39981 170.43254 178.37438 187.46166 192.31621 195.34894 200.80348 205.10167 209.39986 212.43259 215.46532 218.49805 223.3526 228.80715 233.05078 236.08351 241.53806 251.23625 256.6908 259.7235 269.43263 274.88719 280.95265 283.98536 288.829 296.71629 300.65446 308.53083 314.59629 320.3563 325.21086 333.14176 339.2072 344.66178 352.54908 358.00364 362.28 367.73457 373.49458 381.37095 387.74186 392.5964 396.87278 405.96006 408.99278 413.29096 417.58915 420.62187 426.07643 432.14189">Thefollowingtableisaclassificationaidonly.Itdoesnotgrantpermission.</tspan></text>
<path transform="matrix(1,0,0,-1,72,180.58197)" stroke-width=".398" stroke-linecap="butt" stroke-miterlimit="10" stroke-linejoin="miter" fill="none" stroke="#000000" d="M0 0H593.062"/>
<path transform="matrix(1,0,0,-1,72,194.33002)" stroke-width=".398" stroke-linecap="butt" stroke-miterlimit="10" stroke-linejoin="miter" fill="none" stroke="#000000" d="M0 0V13.549"/>
<text xml:space="preserve" transform="matrix(1 0 -0 1 0 792)" font-size="10.9091" font-family="LMRoman10"><tspan y="-601.735" x="77.978 86.312549 91.1671 96.02165 99.05438 103.35257 106.3853 111.83985">Decision</tspan></text>
<path transform="matrix(1,0,0,-1,211.501,194.33002)" stroke-width=".398" stroke-linecap="butt" stroke-miterlimit="10" stroke-linejoin="miter" fill="none" stroke="#000000" d="M0 0V13.549"/>
<text xml:space="preserve" transform="matrix(1 0 -0 1 0 792)" font-size="10.9091" font-family="LMRoman10"><tspan y="-601.735" x="217.479 225.5081 230.96265 237.0281 241.27175 244.30448 250.36994 258.8572 264.31178 270.37724 280.08634 288.11543 292.96998 298.42454 303.27909 307.55546 311.85365 314.88636 320.9518 323.98454">RoutineandReversible</tspan></text>
<path transform="matrix(1,0,0,-1,334.759,194.33002)" stroke-width=".398" stroke-linecap="butt" stroke-miterlimit="10" stroke-linejoin="miter" fill="none" stroke="#000000" d="M0 0V13.549"/>
<text xml:space="preserve" transform="matrix(1 0 -0 1 0 792)" font-size="10.9091" font-family="LMRoman10"><tspan y="-601.735" x="340.737 348.91883 354.37339 358.61705 363.4716">Notes</tspan></text>
<path transform="matrix(1,0,0,-1,665.062,194.33002)" stroke-width=".398" stroke-linecap="butt" stroke-miterlimit="10" stroke-linejoin="miter" fill="none" stroke="#000000" d="M0 0V13.549"/>
<path transform="matrix(1,0,0,-1,72,194.52899)" stroke-width=".398" stroke-linecap="butt" stroke-miterlimit="10" stroke-linejoin="miter" fill="none" stroke="#000000" d="M0 0H593.062"/>
<path transform="matrix(1,0,0,-1,72,208.27802)" stroke-width=".398" stroke-linecap="butt" stroke-miterlimit="10" stroke-linejoin="miter" fill="none" stroke="#000000" d="M0 0V13.549"/>
<text xml:space="preserve" transform="matrix(1 0 -0 1 0 792)" font-size="10.9091" font-family="LMRoman10"><tspan y="-587.787" x="77.978 84.94891 89.80347 98.89075 105.250759 110.70531 114.981678 120.436229 124.71259 134.11624 140.1817 145.63625 154.72353 157.75626 163.51627 167.7599 173.21445 178.67992">Temporarydogintake</tspan></text>
<path transform="matrix(1,0,0,-1,211.501,208.27802)" stroke-width=".398" stroke-linecap="butt" stroke-miterlimit="10" stroke-linejoin="miter" fill="none" stroke="#000000" d="M0 0V13.549"/>
<text xml:space="preserve" transform="matrix(1 0 -0 1 0 792)" font-size="10.9091" font-family="LMRoman10"><tspan y="-587.787" x="217.479 224.75537 229.60993 237.54085 241.78449 248.1554 253.60994 259.67539 265.74085 271.8063 276.66087 282.72633">Yes(bounded)</tspan></text>
<path transform="matrix(1,0,0,-1,334.759,208.27802)" stroke-width=".398" stroke-linecap="butt" stroke-miterlimit="10" stroke-linejoin="miter" fill="none" stroke="#000000" d="M0 0V13.549"/>
<text xml:space="preserve" transform="matrix(1 0 -0 1 0 792)" font-size="10.9091" font-family="LMRoman10"><tspan y="-587.787" x="340.737 348.1661 353.92613 359.99159 363.0243 366.057 370.91157 373.94429 381.82066 387.8861 393.95158 398.22795 403.6825 407.92616 410.95887 416.41343 426.12254 430.97709 436.43165 446.12983 450.4062 455.26075 461.02076 467.0862 470.11894 474.3953 479.24986">Explicitdurationcaprequired</tspan></text>
<path transform="matrix(1,0,0,-1,665.062,208.27802)" stroke-width=".398" stroke-linecap="butt" stroke-miterlimit="10" stroke-linejoin="miter" fill="none" stroke="#000000" d="M0 0V13.549"/>
<path transform="matrix(1,0,0,-1,72,221.82703)" stroke-width=".398" stroke-linecap="butt" stroke-miterlimit="10" stroke-linejoin="miter" fill="none" stroke="#000000" d="M0 0V13.549"/>
<text xml:space="preserve" transform="matrix(1 0 -0 1 0 792)" font-size="10.9091" font-family="LMRoman10"><tspan y="-574.238" x="77.978 85.4071 94.49438 99.34892 103.62529 109.07984 113.93439 119.99985 124.8544 134.24715 139.7017 144.55626 148.7999 153.65445 157.93082 160.96355 167.029 172.48355 176.75992 186.16358 191.01813 196.47267 200.74904">Emergencyveterinarycare</tspan></text>
<path transform="matrix(1,0,0,-1,211.501,221.82703)" stroke-width=".398" stroke-linecap="butt" stroke-miterlimit="10" stroke-linejoin="miter" fill="none" stroke="#000000" d="M0 0V13.549"/>
<text xml:space="preserve" transform="matrix(1 0 -0 1 0 792)" font-size="10.9091" font-family="LMRoman10"><tspan y="-574.238" x="217.479 224.75537 229.60993">Yes</tspan></text>
<path transform="matrix(1,0,0,-1,334.759,221.82703)" stroke-width=".398" stroke-linecap="butt" stroke-miterlimit="10" stroke-linejoin="miter" fill="none" stroke="#000000" d="M0 0V13.549"/>
<text xml:space="preserve" transform="matrix(1 0 -0 1 0 792)" font-size="10.9091" font-family="LMRoman10"><tspan y="-574.238" x="340.737 348.1661 357.2534 362.10795 366.3843 371.83888 376.69343 382.75889 387.61344 397.00617 401.30436 406.1589 411.61347 417.98439 426.47166 431.9262 437.99168 441.02439">Emergencyscopeonly</tspan></text>
<path transform="matrix(1,0,0,-1,665.062,221.82703)" stroke-width=".398" stroke-linecap="butt" stroke-miterlimit="10" stroke-linejoin="miter" fill="none" stroke="#000000" d="M0 0V13.549"/>
<path transform="matrix(1,0,0,-1,72,235.37598)" stroke-width=".398" stroke-linecap="butt" stroke-miterlimit="10" stroke-linejoin="miter" fill="none" stroke="#000000" d="M0 0V13.549"/>
<text xml:space="preserve" transform="matrix(1 0 -0 1 0 792)" font-size="10.9091" font-family="LMRoman10"><tspan y="-560.689" x="77.978 84.19618 89.94528 95.70529 105.41439 109.71258 115.16713 121.23259 125.50896 130.36351 133.39624 139.4617">Foodsourcing</tspan></text>
<path transform="matrix(1,0,0,-1,211.501,235.37598)" stroke-width=".398" stroke-linecap="butt" stroke-miterlimit="10" stroke-linejoin="miter" fill="none" stroke="#000000" d="M0 0V13.549"/>
<text xml:space="preserve" transform="matrix(1 0 -0 1 0 792)" font-size="10.9091" font-family="LMRoman10"><tspan y="-560.689" x="217.479 224.75537 229.60993">Yes</tspan></text>
<path transform="matrix(1,0,0,-1,334.759,235.37598)" stroke-width=".398" stroke-linecap="butt" stroke-miterlimit="10" stroke-linejoin="miter" fill="none" stroke="#000000" d="M0 0V13.549"/>
<text xml:space="preserve" transform="matrix(1 0 -0 1 0 792)" font-size="10.9091" font-family="LMRoman10"><tspan y="-560.689" x="340.737 348.91883 358.0061 362.86067 368.31523 374.08613 378.32978 382.60615 388.0607 392.90437 397.148 405.08985 411.46076 416.3153 420.59169 429.67897 432.71168 436.95533 441.19898 446.05354">Nocontractspermitted</tspan></text>
<path transform="matrix(1,0,0,-1,665.062,235.37598)" stroke-width=".398" stroke-linecap="butt" stroke-miterlimit="10" stroke-linejoin="miter" fill="none" stroke="#000000" d="M0 0V13.549"/>
<path transform="matrix(1,0,0,-1,72,248.92499)" stroke-width=".398" stroke-linecap="butt" stroke-miterlimit="10" stroke-linejoin="miter" fill="none" stroke="#000000" d="M0 0V13.549"/>
<text xml:space="preserve" transform="matrix(1 0 -0 1 0 792)" font-size="10.9091" font-family="LMRoman10"><tspan y="-547.14" x="77.978 84.04346 93.13074 98.58529 101.61802 108.28348 113.13803 118.89803 124.96349 127.99622 134.06168 143.14896 148.00351 153.77443 161.6508 167.71627 173.78173 178.05809 182.6072 188.67266 194.1272 198.42539">Smallequipmentpurchase</tspan></text>
<path transform="matrix(1,0,0,-1,211.501,248.92499)" stroke-width=".398" stroke-linecap="butt" stroke-miterlimit="10" stroke-linejoin="miter" fill="none" stroke="#000000" d="M0 0V13.549"/>
<text xml:space="preserve" transform="matrix(1 0 -0 1 0 792)" font-size="10.9091" font-family="LMRoman10"><tspan y="-547.14" x="217.479 224.75537 229.60993">Yes</tspan></text>
<path transform="matrix(1,0,0,-1,334.759,248.92499)" stroke-width=".398" stroke-linecap="butt" stroke-miterlimit="10" stroke-linejoin="miter" fill="none" stroke="#000000" d="M0 0V13.549"/>
<text xml:space="preserve" transform="matrix(1 0 -0 1 0 792)" font-size="10.9091" font-family="LMRoman10"><tspan y="-547.14" x="340.737 346.80247 352.86793 359.23884 362.57704 367.43159 372.28614 380.1625 384.40617 393.50437 397.80256 404.16258 409.01713 415.08259 421.14805 424.18077 430.24623 439.34443 444.19898 449.65354 459.3517 465.41719 470.27174 473.30445 476.3372 482.40266 487.2572 496.9663 499.99903 509.6972 518.26089 523.4099 528.86447 533.719 537.99539 544.0608 549.5153 555.58078 560.4353 568.9335 574.9989 579.548 585.6134 590.46798 596.5334 602.5988 605.63156 614.11886 625.9443 630.1879 635.64248 641.097 644.1188 649.5733 655.02786">SubjecttospendingcapdefinedinGovernanceScheduleA(10.10)</tspan></text>
<path transform="matrix(1,0,0,-1,665.062,248.92499)" stroke-width=".398" stroke-linecap="butt" stroke-miterlimit="10" stroke-linejoin="miter" fill="none" stroke="#000000" d="M0 0V13.549"/>
<path transform="matrix(1,0,0,-1,72,262.474)" stroke-width=".398" stroke-linecap="butt" stroke-miterlimit="10" stroke-linejoin="miter" fill="none" stroke="#000000" d="M0 0V13.549"/>
<text xml:space="preserve" transform="matrix(1 0 -0 1 0 792)" font-size="10.9091" font-family="LMRoman10"><tspan y="-533.59" x="77.978 86.15982 89.19255 93.49074 96.52347 100.767108 106.22166 114.13075 120.19621 124.47258 129.32714 133.62532 138.47988 144.54534 149.39989">Visitorpresence</tspan></text>
<path transform="matrix(1,0,0,-1,211.501,262.474)" stroke-width=".398" stroke-linecap="butt" stroke-miterlimit="10" stroke-linejoin="miter" fill="none" stroke="#000000" d="M0 0V13.549"/>
<text xml:space="preserve" transform="matrix(1 0 -0 1 0 792)" font-size="10.9091" font-family="LMRoman10"><tspan y="-533.59" x="217.479 225.66083">No</tspan></text>
<path transform="matrix(1,0,0,-1,334.759,262.474)" stroke-width=".398" stroke-linecap="butt" stroke-miterlimit="10" stroke-linejoin="miter" fill="none" stroke="#000000" d="M0 0V13.549"/>
<text xml:space="preserve" transform="matrix(1 0 -0 1 0 792)" font-size="10.9091" font-family="LMRoman10"><tspan y="-533.59" x="340.737 348.76609 353.62065 359.38066 365.4461 368.47883 372.7552 377.60975 385.54066 390.3952 396.1552 402.22068 405.2534 408.2861 413.14067 416.17338 424.04975 428.3261 434.39158 437.4243">Requiresexplicitrule</tspan></text>
<path transform="matrix(1,0,0,-1,665.062,262.474)" stroke-width=".398" stroke-linecap="butt" stroke-miterlimit="10" stroke-linejoin="miter" fill="none" stroke="#000000" d="M0 0V13.549"/>
<path transform="matrix(1,0,0,-1,72,276.024)" stroke-width=".398" stroke-linecap="butt" stroke-miterlimit="10" stroke-linejoin="miter" fill="none" stroke="#000000" d="M0 0V13.549"/>
<text xml:space="preserve" transform="matrix(1 0 -0 1 0 792)" font-size="10.9091" font-family="LMRoman10"><tspan y="-520.041" x="77.978 86.46528 91.91982 96.77437 101.050739 107.116199 110.148929 115.60348 121.36348 129.25077 134.7053 140.77077 145.62532 149.92351">Overnightguest</tspan></text>
<path transform="matrix(1,0,0,-1,211.501,276.024)" stroke-width=".398" stroke-linecap="butt" stroke-miterlimit="10" stroke-linejoin="miter" fill="none" stroke="#000000" d="M0 0V13.549"/>
<text xml:space="preserve" transform="matrix(1 0 -0 1 0 792)" font-size="10.9091" font-family="LMRoman10"><tspan y="-520.041" x="217.479 225.66083">No</tspan></text>
<path transform="matrix(1,0,0,-1,334.759,276.024)" stroke-width=".398" stroke-linecap="butt" stroke-miterlimit="10" stroke-linejoin="miter" fill="none" stroke="#000000" d="M0 0V13.549"/>
<text xml:space="preserve" transform="matrix(1 0 -0 1 0 792)" font-size="10.9091" font-family="LMRoman10"><tspan y="-520.041" x="340.737 349.07157 353.92613 357.2643 362.71888 368.78434 371.81706 379.69343 385.75889 390.61344 396.38435">Defaultdeny</tspan></text>
<path transform="matrix(1,0,0,-1,665.062,276.024)" stroke-width=".398" stroke-linecap="butt" stroke-miterlimit="10" stroke-linejoin="miter" fill="none" stroke="#000000" d="M0 0V13.549"/>
<path transform="matrix(1,0,0,-1,72,289.573)" stroke-width=".398" stroke-linecap="butt" stroke-miterlimit="10" stroke-linejoin="miter" fill="none" stroke="#000000" d="M0 0V13.549"/>
<text xml:space="preserve" transform="matrix(1 0 -0 1 0 792)" font-size="10.9091" font-family="LMRoman10"><tspan y="-506.492" x="77.978 86.312549 91.7671 100.85438 103.88711 108.185298 113.63985 116.67258 122.12713 126.370769 129.40349 134.85803">Dogisolation</tspan></text>
<path transform="matrix(1,0,0,-1,211.501,289.573)" stroke-width=".398" stroke-linecap="butt" stroke-miterlimit="10" stroke-linejoin="miter" fill="none" stroke="#000000" d="M0 0V13.549"/>
<text xml:space="preserve" transform="matrix(1 0 -0 1 0 792)" font-size="10.9091" font-family="LMRoman10"><tspan y="-506.492" x="217.479 224.75537 229.60993">Yes</tspan></text>
<path transform="matrix(1,0,0,-1,334.759,289.573)" stroke-width=".398" stroke-linecap="butt" stroke-miterlimit="10" stroke-linejoin="miter" fill="none" stroke="#000000" d="M0 0V13.549"/>
<text xml:space="preserve" transform="matrix(1 0 -0 1 0 792)" font-size="10.9091" font-family="LMRoman10"><tspan y="-506.492" x="340.737 350.74064 356.8061 361.10429 368.98066 375.35157 383.84977 386.87159 392.32615 397.7807 403.23527 408.0898">Mustbelogged</tspan></text>
<path transform="matrix(1,0,0,-1,665.062,289.573)" stroke-width=".398" stroke-linecap="butt" stroke-miterlimit="10" stroke-linejoin="miter" fill="none" stroke="#000000" d="M0 0V13.549"/>
<path transform="matrix(1,0,0,-1,72,303.122)" stroke-width=".398" stroke-linecap="butt" stroke-miterlimit="10" stroke-linejoin="miter" fill="none" stroke="#000000" d="M0 0V13.549"/>
<text xml:space="preserve" transform="matrix(1 0 -0 1 0 792)" font-size="10.9091" font-family="LMRoman10"><tspan y="-492.943" x="77.978 85.85436 90.70891 95.56346 100.418018 104.7162 112.64712 116.923488 121.77803 126.07622 130.31986 134.59622 137.62895 142.4835 146.72714 149.75988 155.21442">Accessrestriction</tspan></text>
<path transform="matrix(1,0,0,-1,211.501,303.122)" stroke-width=".398" stroke-linecap="butt" stroke-miterlimit="10" stroke-linejoin="miter" fill="none" stroke="#000000" d="M0 0V13.549"/>
<text xml:space="preserve" transform="matrix(1 0 -0 1 0 792)" font-size="10.9091" font-family="LMRoman10"><tspan y="-492.943" x="217.479 224.9081 233.99538 238.84993 243.1263 248.58084 253.4354 259.50086 264.3554 273.74815 279.2027 285.26817 288.30088">Emergencyonly</tspan></text>
<path transform="matrix(1,0,0,-1,334.759,303.122)" stroke-width=".398" stroke-linecap="butt" stroke-miterlimit="10" stroke-linejoin="miter" fill="none" stroke="#000000" d="M0 0V13.549"/>
<text xml:space="preserve" transform="matrix(1 0 -0 1 0 792)" font-size="10.9091" font-family="LMRoman10"><tspan y="-492.943" x="340.737 348.91883 353.77339 359.22795 364.0825 371.99159 375.0243 381.08976 384.42796 389.8825 394.15888 403.24617 408.7007">Neverinformal</tspan></text>
<path transform="matrix(1,0,0,-1,665.062,303.122)" stroke-width=".398" stroke-linecap="butt" stroke-miterlimit="10" stroke-linejoin="miter" fill="none" stroke="#000000" d="M0 0V13.549"/>
<path transform="matrix(1,0,0,-1,72,316.671)" stroke-width=".398" stroke-linecap="butt" stroke-miterlimit="10" stroke-linejoin="miter" fill="none" stroke="#000000" d="M0 0V13.549"/>
<text xml:space="preserve" transform="matrix(1 0 -0 1 0 792)" font-size="10.9091" font-family="LMRoman10"><tspan y="-479.394" x="77.978 86.15982 91.61437 97.67983 101.97802 105.01075 111.07621 120.16349 126.22895 130.53804">Housinguse</tspan></text>
<path transform="matrix(1,0,0,-1,211.501,316.671)" stroke-width=".398" stroke-linecap="butt" stroke-miterlimit="10" stroke-linejoin="miter" fill="none" stroke="#000000" d="M0 0V13.549"/>
<text xml:space="preserve" transform="matrix(1 0 -0 1 0 792)" font-size="10.9091" font-family="LMRoman10"><tspan y="-479.394" x="217.479 225.66083">No</tspan></text>
<path transform="matrix(1,0,0,-1,334.759,316.671)" stroke-width=".398" stroke-linecap="butt" stroke-miterlimit="10" stroke-linejoin="miter" fill="none" stroke="#000000" d="M0 0V13.549"/>
<text xml:space="preserve" transform="matrix(1 0 -0 1 0 792)" font-size="10.9091" font-family="LMRoman10"><tspan y="-479.394" x="340.737 349.30064 354.44975 359.9043 364.75886 369.03523 375.10069 380.55525 386.6207 391.47526 396.3298 399.96253 402.99525 407.8498 413.31526 418.1589">Governance-level</tspan></text>
<path transform="matrix(1,0,0,-1,665.062,316.671)" stroke-width=".398" stroke-linecap="butt" stroke-miterlimit="10" stroke-linejoin="miter" fill="none" stroke="#000000" d="M0 0V13.549"/>
<path transform="matrix(1,0,0,-1,72,330.22)" stroke-width=".398" stroke-linecap="butt" stroke-miterlimit="10" stroke-linejoin="miter" fill="none" stroke="#000000" d="M0 0V13.549"/>
<text xml:space="preserve" transform="matrix(1 0 -0 1 0 792)" font-size="10.9091" font-family="LMRoman10"><tspan y="-465.845" x="77.978 87.98164 92.8362 98.90166 101.93439 111.02167 115.87622 121.33077 127.090778 131.33441 136.78896 141.64351">Mediacontact</tspan></text>
<path transform="matrix(1,0,0,-1,211.501,330.22)" stroke-width=".398" stroke-linecap="butt" stroke-miterlimit="10" stroke-linejoin="miter" fill="none" stroke="#000000" d="M0 0V13.549"/>
<text xml:space="preserve" transform="matrix(1 0 -0 1 0 792)" font-size="10.9091" font-family="LMRoman10"><tspan y="-465.845" x="217.479 225.66083">No</tspan></text>
<path transform="matrix(1,0,0,-1,334.759,330.22)" stroke-width=".398" stroke-linecap="butt" stroke-miterlimit="10" stroke-linejoin="miter" fill="none" stroke="#000000" d="M0 0V13.549"/>
<text xml:space="preserve" transform="matrix(1 0 -0 1 0 792)" font-size="10.9091" font-family="LMRoman10"><tspan y="-465.845" x="340.737 350.74064 356.8061 361.10429 368.98066 375.0461 380.50068 388.38798 391.4207 400.50798 406.57344 410.8498 415.9989 421.7589 424.79164 429.0898">Mustnotimprovise</tspan></text>
<path transform="matrix(1,0,0,-1,665.062,330.22)" stroke-width=".398" stroke-linecap="butt" stroke-miterlimit="10" stroke-linejoin="miter" fill="none" stroke="#000000" d="M0 0V13.549"/>
<path transform="matrix(1,0,0,-1,72,330.42)" stroke-width=".398" stroke-linecap="butt" stroke-miterlimit="10" stroke-linejoin="miter" fill="none" stroke="#000000" d="M0 0H593.062"/>
<text xml:space="preserve" transform="matrix(1 0 -0 1 0 792)" font-size="10.9091" font-family="LMMono10"><tspan y="-447.075" x="72 77.72728 89.18184 100.6364 106.36368 112.09096 117.81824 123.54552 129.2728 135.00008 140.72736 152.18192 157.9092 169.36376 175.09104 180.81832 192.27288 198.00016 203.72743 209.45471 215.18199 220.90927 226.63655 232.36383 238.09111 243.81839 255.27295 261.0002 266.72749 272.45475 278.182 283.90928 289.63655 295.3638 301.09107 306.81834 312.5456 324.00013 329.7274 335.45466 341.18193 352.63645 358.3637 364.09098 375.5455 381.27278 387.00004 392.7273 398.45457 404.18183 409.9091 415.63636 427.09089 432.81816 438.5454 444.27268 455.7272 461.45448 467.18174 478.63627 484.36354 495.81806 501.54533 507.27259 512.9999 518.7272 524.45449 530.18179 535.90908">IFadecisionisnotexplicitlyclassified,THENthedecisionmustnotbeexecuted</tspan><tspan y="-433.526" x="72 77.72728 83.45456 89.18184 94.90912 100.6364 112.09096 117.81824 123.54552 129.2728 135.00008 146.45464 152.18192 157.9092 163.63648 169.36376 175.09104 180.81832 186.5456 192.27288 203.72743 209.45471 215.18199 220.90927 226.63655 232.36383 238.09111 243.81839 249.54567 255.27295 261.0002">exceptunderEmergencyInvocation.</tspan></text>
<text xml:space="preserve" transform="matrix(1 0 -0 1 0 792)" font-size="11.9552" font-family="LMRoman12" font-weight="bold"><tspan y="-404.31703" x="72 82.10214 94.85834 99.34154 108.9057 112.64768 123.861667 133.58124 140.12073 145.62012 151.1195 158.2209 161.96288 169.43488 176.16565 180.64885 190.36843 196.90792 204.37992 210.9194 216.897 220.63898 225.50475 237.08934 245.31452 250.8139 254.55588 261.6573 271.37687 275.11885 280.61824 286.75126">OM-B.3Carrying-CapacityTripwires</tspan></text>
<text xml:space="preserve" transform="matrix(1 0 -0 1 0 792)" font-size="10.9091" font-family="LMMono10"><tspan y="-383.72404" x="72 77.72728 89.18184 94.90912 100.6364 112.09096 117.81824 129.2728 135.00008 140.72736 152.18192 157.9092 163.63648 169.36376 175.09104 180.81832 186.5456 192.27288 198.00016 209.45471 215.18199 220.90927 226.63655 232.36383 238.09111 243.81839 249.54567 255.27295 261.0002 272.45475 278.182 283.90928 289.63655 295.3638 301.09107 312.5456 318.27287 324.00013 329.7274 341.18193 346.90919 352.63645 358.3637 364.09098 369.81825 375.5455 381.27278 387.00004 398.45457 404.18183 409.9091 415.63636 421.36363 427.09089 432.81816 444.27268 449.99995 455.7272 461.45448 472.909 478.63627 484.36354 490.0908 495.81806 507.27259 512.9999 518.7272 524.45449 530.18179 535.90908 541.63638 547.36367 553.09097 558.81826 564.54556 570.2728">IFanyofthefollowingconditionsoccur,THENexpansionactionsmustpauseimmediately:</tspan></text>
<text xml:space="preserve" transform="matrix(1 0 -0 1 0 792)" font-size="10.9091" font-family="LMRoman10"><tspan y="-357.42304" x="72">&#x2022;</tspan></text>
<text xml:space="preserve" transform="matrix(1 0 -0 1 0 792)" font-size="10.9091" font-family="LMRoman10"><tspan y="-357.42304" x="85.53819 93.72002 99.48002 108.88366 114.94912 120.40367 129.49095 132.52368 137.97823 142.52733 148.28734 156.22917 162.29463 167.74918 170.7819 173.81464 183.20738 188.06194 193.51648 197.79285 206.28014 211.13469 216.28379 221.73834 226.5929 230.86927 236.3238 241.77835">Anydoglacksdailycarecoverage</tspan></text>
<text xml:space="preserve" transform="matrix(1 0 -0 1 0 792)" font-size="10.9091" font-family="LMRoman10"><tspan y="-335.10606" x="72">&#x2022;</tspan></text>
<text xml:space="preserve" transform="matrix(1 0 -0 1 0 792)" font-size="10.9091" font-family="LMRoman10"><tspan y="-335.10606" x="85.94183 95.94548 101.40003 104.43276 110.192768 114.4364 119.290958 125.356418 130.81096 136.87642 141.73097 150.22917 156.29463 161.74918 166.29828 172.05829 175.09102 180.54557 189.63285 194.4874 200.2474 205.10196 209.95652 214.81107 220.87653 228.80745 233.10564 237.96019 243.42566 248.2693 257.9784 264.04386 269.19297 274.95298">Maintenancebacklogexceedssevendays</tspan></text>
<text xml:space="preserve" transform="matrix(1 0 -0 1 0 792)" font-size="10.9091" font-family="LMRoman10"><tspan y="-312.79005" x="72">&#x2022;</tspan></text>
<text xml:space="preserve" transform="matrix(1 0 -0 1 0 792)" font-size="10.9091" font-family="LMRoman10"><tspan y="-312.79005" x="85.94183 92.76002 98.21457 103.66912 109.12367 112.1564 118.22186 127.30914 130.64733 136.10187 139.1346 142.16733 150.10916 156.48007 161.33463 167.40009 170.43282 176.49828 186.19647 195.28376 200.7383 205.01467 213.50196 217.74559 223.81105 229.2656 238.9747 243.27289 248.12744 253.582 258.43656 264.19657 268.13478 273.89479 277.5275 281.4766 289.04753 298.1348 304.20027 309.65483 315.72029 319.99665">Loggingfallsbehindmorethanseventy-twohours</tspan></text>
<text xml:space="preserve" transform="matrix(1 0 -0 1 0 792)" font-size="10.9091" font-family="LMRoman10"><tspan y="-290.47404" x="72">&#x2022;</tspan></text>
<text xml:space="preserve" transform="matrix(1 0 -0 1 0 792)" font-size="10.9091" font-family="LMRoman10"><tspan y="-290.47404" x="85.94183 93.37093 102.45821 107.31276 111.58913 117.04368 121.898227 127.963687 132.81824 142.21099 150.08736 156.16373 160.40737 166.47283 171.92737 176.20374 179.23647 183.17465 192.5674 195.60013 203.53105 206.56378 212.3347 217.78926 223.2438 228.69837 233.55292 243.25112 247.20021 255.07659 258.1093 262.96388 271.45115 279.3275 282.36024 286.60389 292.66935 295.70207 305.40025 309.6439 315.70936 318.74208 323.01844 326.95664 336.3603 342.42576 347.57487 353.33488">EmergencyAuthorityisinvokedtwicewithinthirtydays</tspan></text>
<text xml:space="preserve" transform="matrix(1 0 -0 1 0 792)" font-size="11.9552" font-family="LMRoman12" font-weight="bold"><tspan y="-261.265" x="72 82.10214 94.85834 99.34154 108.9057 112.64768 123.861667 132.6846 139.22409 144.72348 148.46546 155.56685 160.05005 167.52205 172.75843 179.29792 186.02869 196.6449 204.72661 211.45738 218.18816 224.91893 228.6609 236.1329 247.34688 260.1031 266.2361 271.8431 279.31513 285.8546 293.3266 297.06858 302.37669">OM-B.4Early-StageLoggingMechanism</tspan></text>
<text xml:space="preserve" transform="matrix(1 0 -0 1 0 792)" font-size="10.9091" font-family="LMRoman10"><tspan y="-240.67201" x="72 80.33455 86.40001 90.67638 93.70911 99.77457 108.86185 114.92731 119.203678 124.05823 127.690959 131.96732 136.82187 142.27642 145.30915 149.60733 153.85097 158.12734 163.58188 167.82552 170.85825 176.31279 182.37825 189.05463 193.29827 199.36373 207.85102 211.1892 216.64374 219.67647 222.7092 227.85829 235.73467 238.7674 244.83286 253.93105 256.95289 262.40745 267.862 273.31657 276.34928 282.42564 291.5129 300.6002 305.45475 310.00386 316.0693 321.52388 327.58934 330.62205 334.92024 347.64024 350.67295 358.61479 364.9857 369.84025 374.1166 383.2039 386.2366 390.48027 394.7239 399.56758 405.64393">Duringpre-registration,thefollowingloggingmechanismispermitted:</tspan></text>
<text xml:space="preserve" transform="matrix(1 0 -0 1 0 792)" font-size="10.9091" font-family="LMRoman10"><tspan y="-214.37001" x="72">&#x2022;</tspan></text>
<text xml:space="preserve" transform="matrix(1 0 -0 1 0 792)" font-size="10.9091" font-family="LMRoman10"><tspan y="-214.37001" x="85.94183 94.429119 100.494579 108.98185 115.35277 120.80732 126.87278 132.93824 142.64734 145.68007 151.13462 156.58916 162.94916 168.70915 174.1637 183.56735 191.44373 194.47646 198.7201 208.41829 214.1783 220.24376 229.02559 235.3965 240.25106 244.52742 249.38198 259.09107 265.15653 270.61109 276.06565 280.9202">Oneboundlogbookwithnumberedpages</tspan></text>
<text xml:space="preserve" transform="matrix(1 0 -0 1 0 792)" font-size="10.9091" font-family="LMRoman10"><tspan y="-192.05402" x="72">&#x2022;</tspan></text>
<text xml:space="preserve" transform="matrix(1 0 -0 1 0 792)" font-size="10.9091" font-family="LMRoman10"><tspan y="-192.05402" x="85.94183 94.429119 100.494579 108.98185 112.01458 118.08004 127.48368 132.33823 137.79277 140.8255 146.28005 154.18915 159.64369 165.70915 168.74188">Oneinkcoloronly</tspan></text>
<text xml:space="preserve" transform="matrix(1 0 -0 1 0 792)" font-size="10.9091" font-family="LMRoman10"><tspan y="-169.73802" x="72">&#x2022;</tspan></text>
<text xml:space="preserve" transform="matrix(1 0 -0 1 0 792)" font-size="10.9091" font-family="LMRoman10"><tspan y="-169.73802" x="85.94183 94.12366 103.21094 109.2764 114.73095 120.1855 128.6837 132.96007 137.81462 146.9019 152.051 157.20009 162.65464">Nopageremoval</tspan></text>
<text xml:space="preserve" transform="matrix(1 0 -0 1 0 792)" font-size="10.9091" font-family="LMRoman10"><tspan y="-147.42102" x="72">&#x2022;</tspan></text>
<text xml:space="preserve" transform="matrix(1 0 -0 1 0 792)" font-size="10.9091" font-family="LMRoman10"><tspan y="-147.42102" x="85.94183 89.88002 95.94548 102.01094 106.86549 116.258228 125.345508 130.80005 133.83278 139.6037 143.84734 149.30188 152.33461 158.40007 163.25463 172.95282 178.40737 186.28374 189.62192 193.89829 199.35283 205.12375">Indexmaintainedatfront</tspan><tspan y="-121.12002" x="71.607 79.483379 85.548839 88.581569 96.51248 101.96703 104.99976 108.03249 113.1925 120.76341 126.217967 132.28342 137.13797 145.62526 150.47982 156.23983 162.30529 165.33802 169.61438 174.46894 182.39986 188.46532 194.83623 200.29077 209.99988 216.06534 219.09807 224.55261 227.58535 231.82898 237.28353 243.94899 248.24718 254.00719 258.30537 262.549 267.40357 280.12358 285.57814 290.43269 294.67634 297.70906 302.86906 308.3236 312.56727 315.59999 321.05455 327.12">Thisallowanceexpiresupondigitalsystemactivation.</tspan></text>
<text xml:space="preserve" transform="matrix(1 0 -0 1 0 792)" font-size="10.9091" font-family="LMMono10"><tspan y="-100.79602" x="72 77.72728 89.18184 94.90912 100.6364 112.09096 117.81824 123.54552 129.2728 135.00008 140.72736 146.45464 152.18192 157.9092 163.63648 169.36376 175.09104 180.81832 192.27288 198.00016 203.72743 209.45471 215.18199 220.90927 226.63655 232.36383 238.09111 249.54567 255.27295 261.0002 266.72749 272.45475 278.182 283.90928 295.3638 301.09107 306.81834 318.27287 324.00013 329.7274 335.45466 346.90919 352.63645 358.3637 364.09098 369.81825 375.5455 381.27278 392.7273 398.45457 404.18183 409.9091 415.63636 421.36363 432.81816 438.5454 444.27268 449.99995 455.7272 461.45448 472.909 478.63627 484.36354 490.0908 495.81806 501.54533 512.9999 518.7272 524.45449 530.18179 541.63638 547.36367 553.09097 558.81826">IFthebound-logbookmechanismremainsthesoleloggingsystembeyondninety(90)days</tspan><tspan y="-87.247028" x="72 77.72728 89.18184 94.90912 100.6364 106.36368 112.09096 117.81824 123.54552 129.2728 135.00008 140.72736 152.18192 157.9092 163.63648 169.36376 180.81832 186.5456 192.27288 203.72743 209.45471 215.18199 220.90927 226.63655 232.36383 243.81839 249.54567 255.27295 261.0002 266.72749 272.45475 278.182 283.90928 295.3638 301.09107 306.81834 312.5456 324.00013 329.7274 335.45466 341.18193 346.90919 352.63645 358.3637 364.09098 375.5455 381.27278 387.00004 398.45457 404.18183 409.9091 415.63636 421.36363 427.09089 438.5454 444.27268 449.99995 461.45448 467.18174 472.909 478.63627 484.36354 495.81806 501.54533 507.27259 518.7272 524.45449 530.18179 535.90908 541.63638">ofoperation,THENtheactingoperatormustdocumentthereasonfordelayandplace</tspan><tspan y="-73.69803" x="72 77.72728 83.45456 89.18184 94.90912 100.6364 106.36368 117.81824 123.54552 129.2728 135.00008 140.72736 146.45464 152.18192 163.63648 169.36376 175.09104 180.81832 186.5456 192.27288 198.00016 203.72743 209.45471 215.18199 226.63655 232.36383 243.81839 249.54567 255.27295 266.72749 272.45475 278.182 283.90928 295.3638 301.09107 306.81834 312.5456 318.27287 324.00013 329.7274 335.45466 341.18193 346.90919 358.3637 364.09098 375.5455 381.27278 387.00004 392.7273 398.45457 404.18183 415.63636 421.36363 427.09089 432.81816 438.5454 444.27268 449.99995">digitalloggingtransitiononthenextgovernanceorreviewagenda.</tspan></text>
<text xml:space="preserve" transform="matrix(1 0 -0 1 0 792)" font-size="10.9091" font-family="LMRoman10"><tspan y="-42.11203" x="300.54499 305.99955">12</tspan></text>
</svg>
