<svg xmlns="http://www.w3.org/2000/svg" xmlns:xlink="http://www.w3.org/1999/xlink" xmlns:inkscape="http://www.inkscape.org/namespaces/inkscape" version="1.1" width="612" height="792" viewBox="0 0 612 792">
<text xml:space="preserve" transform="matrix(1 0 -0 1 0 792)" font-size="14.3462" font-family="LMRoman12" font-weight="bold"><tspan y="-707.447" x="72 84.12254 99.42994 104.80977 112.88668 124.55015 133.34438 141.19174 145.6821 150.17246 159.13883 165.73809 178.47751 191.10218 198.94954 207.91591 216.88228 221.37264 225.86299 234.82936">OM-9.FailureHandling</tspan></text>
<text xml:space="preserve" transform="matrix(1 0 -0 1 0 792)" font-size="10.9091" font-family="LMRoman10"><tspan y="-683.098" x="72">&#x2022;</tspan></text>
<text xml:space="preserve" transform="matrix(1 0 -0 1 0 792)" font-size="10.9091" font-family="LMMono10"><tspan y="-683.098" x="85.94183 91.66911 103.12367 108.85095 114.57823 120.30551 126.03279 131.76007 137.48735 148.94191 154.66919 160.39647 166.12375 171.85103 177.57831 189.03287 194.76015 200.48743 206.2147 211.94199 217.66927 223.39655 234.8511 240.57839 246.30567 257.76023 263.4875 269.21476 274.94203 280.66929 286.39656 297.85108 303.57835 309.3056 315.03288 326.4874 332.21467 337.94194 343.6692 349.39646 355.12373 360.85099 366.57826 372.3055 378.03279 383.76005 389.4873 400.94184 406.6691 412.39637 423.8509 429.57817 435.30543 441.03269 446.75996 452.4872 458.21449 463.94175 469.669 475.39628 486.8508 492.57807 498.30534 509.75987 515.4871 521.2144 526.9417 532.669 538.3963 544.1236 549.8509 555.5782">IFfailureoccurswithoutbadfaith,THENtransparencyandcorrectionarerequired.</tspan></text>
<text xml:space="preserve" transform="matrix(1 0 -0 1 0 792)" font-size="10.9091" font-family="LMRoman10"><tspan y="-660.781" x="72">&#x2022;</tspan></text>
<text xml:space="preserve" transform="matrix(1 0 -0 1 0 792)" font-size="10.9091" font-family="LMMono10"><tspan y="-660.781" x="85.94183 91.66911 103.12367 108.85095 114.57823 120.30551 126.03279 131.76007 137.48735 148.94191 154.66919 160.39647 166.12375 171.85103 177.57831 183.30559 189.03287 200.48743 206.2147 211.94199 217.66927 223.39655 229.12383 234.8511 240.57839 246.30567 252.03295 257.76023 269.21476 274.94203 286.39656 292.1238 297.85108 303.57835 309.3056 315.03288 326.4874 332.21467 343.6692 349.39646 355.12373 360.85099 366.57826 378.03279 383.76005 389.4873 395.21458 406.6691 412.39637 418.12364 423.8509 429.57817 435.30543 441.03269 446.75996 452.4872 458.21449 469.669 475.39628 486.8508 492.57807 498.30534 504.0326 509.75987 515.4871 521.2144 526.9417 532.669 538.3963">IFfailureinvolvesconcealmentorintenttoharm,THENescalationismandatory.</tspan></text>
<text xml:space="preserve" transform="matrix(1 0 -0 1 0 792)" font-size="10.9091" font-family="LMRoman10"><tspan y="-638.465" x="72">&#x2022;</tspan></text>
<text xml:space="preserve" transform="matrix(1 0 -0 1 0 792)" font-size="10.9091" font-family="LMMono10"><tspan y="-638.465" x="85.94183 91.66911 103.12367 108.85095 114.57823 120.30551 126.03279 131.76007 137.48735 143.21463 154.66919 160.39647 166.12375 177.57831 183.30559 189.03287 194.76015 200.48743 206.2147 211.94199 223.39655 229.12383 234.8511 240.57839 246.30567 252.03295 257.76023 263.4875 269.21476 274.94203 280.66929 292.1238 297.85108 303.57835 309.3056 320.76014 326.4874 332.21467 337.94194 343.6692 349.39646 355.12373 360.85099 366.57826 372.3055 383.76005 389.4873 395.21458 400.94184 412.39637 418.12364 429.57817 435.30543 441.03269 446.75996 452.4872 458.21449 463.94175 469.669">IFlearningcanpreventrecurrence,THENproceduresmustbeupdated.</tspan></text>
<text xml:space="preserve" transform="matrix(1 0 -0 1 0 792)" font-size="14.3462" font-family="LMRoman12" font-weight="bold"><tspan y="-604.278" x="72 84.12254 99.42994 104.80977 112.88668 120.96359 132.62706 144.66353 152.02313 160.54477 165.03513 172.39473 189.43802 207.37078 217.95827 226.03517 234.11208 238.60243 247.5688 253.85243 258.3428 266.4197">OM-10.Review&#x0026;Evolution</tspan></text>
<text xml:space="preserve" transform="matrix(1 0 -0 1 0 792)" font-size="10.9091" font-family="LMRoman10"><tspan y="-579.92807" x="72">&#x2022;</tspan></text>
<text xml:space="preserve" transform="matrix(1 0 -0 1 0 792)" font-size="10.9091" font-family="LMMono10"><tspan y="-579.92807" x="85.94183 91.66911 103.12367 108.85095 120.30551 126.03279 131.76007 137.48735 143.21463 148.94191 154.66919 160.39647 166.12375 171.85103 177.57831 189.03287 194.76015 200.48743 206.2147 217.66927 223.39655 229.12383 234.8511 240.57839 246.30567 257.76023 263.4875 269.21476 274.94203 286.39656 292.1238 303.57835 309.3056 315.03288 320.76014 326.4874 332.21467 337.94194 343.6692 349.39646 360.85099 366.57826 372.3055 378.03279 389.4873 395.21458 406.6691 412.39637 418.12364 423.8509 435.30543 441.03269 452.4872 458.21449 463.94175 469.669 475.39628 481.12355 486.8508 492.57807 498.30534">IFanoperationalrulecausesharmorfriction,THENitmustbereviewed.</tspan></text>
<text xml:space="preserve" transform="matrix(1 0 -0 1 0 792)" font-size="10.9091" font-family="LMRoman10"><tspan y="-557.61209" x="72">&#x2022;</tspan></text>
<text xml:space="preserve" transform="matrix(1 0 -0 1 0 792)" font-size="10.9091" font-family="LMMono10"><tspan y="-557.61209" x="85.94183 91.66911 103.12367 108.85095 114.57823 120.30551 126.03279 131.76007 137.48735 143.21463 148.94191 154.66919 160.39647 166.12375 177.57831 183.30559 189.03287 200.48743 206.2147 211.94199 217.66927 223.39655 229.12383 234.8511 240.57839 246.30567 252.03295 257.76023 269.21476 274.94203 280.66929 286.39656 297.85108 303.57835 309.3056 315.03288 320.76014 326.4874 332.21467 337.94194 343.6692 355.12373 360.85099 366.57826 378.03279 383.76005 395.21458 400.94184 406.6691 412.39637 418.12364 423.8509 429.57817 435.30543 441.03269">IFimprovementsareidentified,THENrevisionsmaybeproposed.</tspan></text>
<text xml:space="preserve" transform="matrix(1 0 -0 1 0 792)" font-size="10.9091" font-family="LMRoman10"><tspan y="-535.2961" x="72">&#x2022;</tspan></text>
<text xml:space="preserve" transform="matrix(1 0 -0 1 0 792)" font-size="10.9091" font-family="LMMono10"><tspan y="-535.2961" x="85.94183 91.66911 103.12367 108.85095 114.57823 120.30551 126.03279 131.76007 137.48735 143.21463 148.94191 160.39647 166.12375 171.85103 177.57831 183.30559 189.03287 194.76015 200.48743 211.94199 217.66927 223.39655 229.12383 240.57839 246.30567 252.03295 263.4875 269.21476 274.94203 280.66929 286.39656 292.1238 297.85108 303.57835 309.3056 315.03288 320.76014 326.4874 332.21467 343.6692 349.39646 355.12373 360.85099 372.3055 378.03279 383.76005 389.4873 400.94184 406.6691 412.39637 418.12364 429.57817 435.30543 441.03269 452.4872 458.21449 469.669 475.39628 481.12355 486.8508 492.57807 498.30534 504.0326 509.75987">IFrevisionsconflictwiththeConstitution,THENtheymustnotbeadopted.</tspan></text>
<text xml:space="preserve" transform="matrix(1 0 -0 1 0 792)" font-size="14.3462" font-family="LMRoman12" font-weight="bold"><tspan y="-501.10908" x="72 84.12254 99.42994 104.80977 112.88668 120.96359 132.62706 143.21456 156.6713 164.0309 170.63016 178.70706 186.06667 195.03304 202.20613 216.10759 227.85713 236.8235 243.10713 252.0735 260.15043 266.74967 271.24003 277.07893">OM-11.EmergencyAuthority</tspan></text>
<text xml:space="preserve" transform="matrix(1 0 -0 1 0 792)" font-size="11.9552" font-family="LMRoman12" font-weight="bold"><tspan y="-474.16908" x="72 82.10214 94.85834 99.34154 106.07232 112.8031 116.54508 131.1902 136.19944 143.30083 150.03162 157.133 163.1106 169.65009 174.88646 178.62844 185.3592 197.3144 206.96225 214.43425 218.17623 224.30924">OM-11.AInvocationRules</tspan></text>
<text xml:space="preserve" transform="matrix(1 0 -0 1 0 792)" font-size="10.9091" font-family="LMMono10"><tspan y="-453.57609" x="72 77.72728 89.18184 94.90912 100.6364 106.36368 112.09096 117.81824 123.54552 129.2728 135.00008 146.45464 152.18192 157.9092 163.63648 169.36376 175.09104 186.5456 192.27288 203.72743 209.45471 215.18199 220.90927 226.63655 232.36383 238.09111 243.81839 255.27295 261.0002 266.72749 278.182 283.90928 289.63655 295.3638 301.09107 306.81834 318.27287 324.00013 329.7274 335.45466 341.18193 346.90919 352.63645 358.3637 364.09098 369.81825 375.5455 381.27278 387.00004 398.45457 404.18183 415.63636 421.36363 427.09089 432.81816 438.5454 444.27268 449.99995 455.7272 461.45448 467.18174 472.909 484.36354 490.0908 495.81806 501.54533 512.9999 518.7272 524.45449 530.18179 535.90908">IFimmediateactionisrequiredandnormalauthorizationisinfeasible,THENstaff</tspan><tspan y="-440.02708" x="72 77.72728 83.45456 94.90912 100.6364 106.36368 117.81824 123.54552 129.2728 135.00008 140.72736 146.45464 152.18192 157.9092 169.36376 175.09104 186.5456 192.27288 198.00016 203.72743 209.45471 215.18199 220.90927 232.36383 238.09111 243.81839 249.54567 255.27295">mayactnarrowlytopreventharm.</tspan><tspan y="-419.70307" x="72 77.72728 89.18184 94.90912 100.6364 106.36368 112.09096 117.81824 123.54552 129.2728 135.00008 146.45464 152.18192 157.9092 163.63648 169.36376 175.09104 186.5456 192.27288 198.00016 203.72743 209.45471 215.18199 220.90927 232.36383 238.09111 243.81839 249.54567 261.0002 266.72749 272.45475 283.90928 289.63655 295.3638 301.09107 306.81834 312.5456 324.00013 329.7274 335.45466 341.18193 352.63645 358.3637 369.81825 375.5455 381.27278 387.00004 392.7273 398.45457 409.9091 415.63636 421.36363 427.09089 432.81816 438.5454 449.99995 455.7272 461.45448 472.909 478.63627 484.36354 490.0908 495.81806 501.54533 507.27259 512.9999 518.7272 530.18179 535.90908 541.63638 547.36367 553.09097 558.81826">IFemergencyactionoccurs,THENtheactionmustbeloggedwithintheemergencywindow</tspan><tspan y="-406.15406" x="72 77.72728 89.18184 94.90912 100.6364 106.36368 112.09096 117.81824 123.54552 135.00008 140.72736 146.45464 152.18192 157.9092 163.63648 169.36376 175.09104 180.81832 186.5456 192.27288 198.00016 203.72743 209.45471 220.90927 226.63655 232.36383 238.09111 243.81839 249.54567 261.0002 266.72749 272.45475 278.182 283.90928 295.3638 301.09107 306.81834 318.27287 324.00013 329.7274 335.45466 341.18193 346.90919 352.63645 358.3637 364.09098 369.81825 375.5455 381.27278 387.00004 392.7273 404.18183 409.9091 415.63636 421.36363 427.09089 432.81816 438.5454 444.27268 449.99995 455.7272 461.45448 467.18174 472.909 478.63627 484.36354 495.81806 501.54533 507.27259 512.9999 518.7272 524.45449 530.18179 535.90908 541.63638 547.36367 553.09097 558.81826">orundergoclassificationreviewundertheConstitution&#x2019;sClassification,Arbitration,</tspan><tspan y="-392.60505" x="72 77.72728 83.45456 94.90912 100.6364 106.36368 112.09096 117.81824 123.54552 129.2728 135.00008 140.72736 146.45464 152.18192 157.9092 163.63648 169.36376 180.81832 186.5456 192.27288 198.00016 203.72743 209.45471 215.18199 220.90927 226.63655 232.36383 238.09111">andAccountabilityprovisions.</tspan><tspan y="-372.28105" x="72 77.72728 83.45456 89.18184 94.90912 100.6364 106.36368 112.09096 117.81824 129.2728 135.00008 140.72736 146.45464 152.18192 157.9092 163.63648 169.36376 175.09104 186.5456 192.27288 198.00016 209.45471 215.18199 220.90927 226.63655 238.09111 243.81839 249.54567 255.27295 261.0002 266.72749 278.182 283.90928 289.63655 295.3638 301.09107 306.81834 312.5456 324.00013 329.7274 335.45466 341.18193 346.90919 352.63645 358.3637 364.09098 375.5455 381.27278 392.7273 398.45457 404.18183 409.9091 415.63636 421.36363 427.09089 438.5454 444.27268 449.99995 455.7272 461.45448 467.18174 472.909 478.63627 484.36354 490.0908 501.54533 507.27259 512.9999 518.7272 524.45449 530.18179 541.63638 547.36367">Emergencyauthoritymayonlyaffectassets,systems,orpersonsexplicitlylistedin</tspan><tspan y="-358.73204" x="72 77.72728 83.45456 94.90912 100.6364 106.36368 112.09096 117.81824 123.54552 129.2728 135.00008 140.72736 152.18192 157.9092 163.63648 169.36376 175.09104 186.5456 192.27288 198.00016 203.72743 209.45471 215.18199 220.90927 226.63655 238.09111 243.81839 255.27295 261.0002 266.72749 272.45475 278.182 283.90928 289.63655 301.09107 306.81834 318.27287 324.00013 329.7274 341.18193 346.90919 352.63645 358.3637 364.09098 369.81825 375.5455 381.27278 387.00004 392.7273 398.45457 404.18183 409.9091 427.0909 432.81819 438.54545 444.2727 449.99998 455.72724 461.4545 472.90904 478.6363 484.36357 490.09083 495.81809 501.54536 507.2726 518.7272 524.45449 530.18179 541.63638 547.36367 553.09097 558.81826 564.54556 570.2728 576.0001 581.7274">theEmergencyScopeRegistryasdefinedintheConstitution.Actionsoutsidetheregistry</tspan><tspan y="-345.183" x="72 77.72728 83.45456 94.90912 100.6364 106.36368 112.09096 117.81824">arevoid.</tspan><tspan y="-324.859" x="72 77.72728 83.45456 89.18184 100.6364 106.36368 112.09096 117.81824 123.54552 129.2728 135.00008 140.72736 146.45464 157.9092 163.63648 169.36376 175.09104 180.81832 186.5456 192.27288 198.00016 203.72743 209.45471 220.90927 226.63655 232.36383 238.09111 243.81839 249.54567 255.27295 261.0002 266.72749 272.45475 283.90928 289.63655 295.3638 301.09107 306.81834 312.5456 324.00013 329.7274 335.45466 346.90919 352.63645 358.3637 369.81825 375.5455 381.27278 387.00004 392.7273 398.45457 404.18183 409.9091 421.36363 427.09089 432.81816 438.5454 444.27268 449.99995 455.7272 467.18174 472.909 484.36354 490.0908 495.81806 507.27259 512.9999 518.7272 530.18179 535.90908 541.63638 547.36367 553.09097 558.81826 564.54556 570.2728 576.0001 581.7274 587.4547 593.182 598.9093 604.6366 610.3639">Eachemergencyinvocationauthorizeseither(A)onediscreteaction,OR(B)onetightly-related</tspan><tspan y="-311.31" x="72 77.72728 83.45456 89.18184 94.90912 100.6364 106.36368 112.09096 123.54552 129.2728 135.00008 140.72736 146.45464 152.18192 163.63648 169.36376 175.09104 180.81832 186.5456 192.27288 198.00016 203.72743 209.45471 215.18199 226.63655 232.36383 238.09111 243.81839 255.27295 261.0002 272.45475 278.182 283.90928 289.63655 295.3638 301.09107 306.81834 318.27287 324.00013 329.7274 335.45466 341.18193 346.90919 352.63645 358.3637 364.09098 375.5455 381.27278 392.7273 398.45457 404.18183 409.9091 415.63636 421.36363 427.09089 438.5454 449.99995 455.7272 461.45448 467.18174 472.909 478.63627 490.0908 495.81806 501.54533 507.27259 512.9999 518.7272 524.45449 530.18179 535.90908">responsebundleconsistingonlyofactionsnecessarytocontrolasingleemergency</tspan><tspan y="-297.76" x="72 77.72728 83.45456 89.18184 94.90912 100.6364 106.36368 112.09096 117.81824 123.54552">condition.</tspan><tspan y="-277.437" x="72 77.72728 83.45456 89.18184 94.90912 100.6364 106.36368 112.09096 117.81824 129.2728 135.00008 140.72736 146.45464 152.18192 157.9092 163.63648 169.36376 175.09104 180.81832 192.27288 198.00016 203.72743 209.45471 220.90927 226.63655 232.36383 243.81839 249.54567 255.27295 261.0002 266.72749 272.45475 278.182 283.90928 289.63655 301.09107 306.81834 312.5456 318.27287 324.00013 329.7274 335.45466 341.18193 346.90919 358.3637 364.09098 369.81825 381.27278 387.00004 392.7273 398.45457 409.9091 415.63636 421.36363 432.81816 438.5454 449.99995 455.7272 461.45448 467.18174 472.909 484.36354 490.0908 501.54533 507.27259 512.9999 518.7272 524.45449 530.18179 535.90908 541.63638 547.36367 553.09097 558.81826 564.54556 570.2728">Emergencyinvocationdoesnotestablishprecedentandmustnotbecitedasauthorization</tspan><tspan y="-263.88703" x="72 77.72728 83.45456 94.90912 100.6364 106.36368 112.09096 117.81824 123.54552 135.00008 140.72736 146.45464 152.18192 157.9092 163.63648 169.36376 180.81832 186.5456 192.27288 198.00016 203.72743 209.45471 215.18199 226.63655 232.36383 238.09111 249.54567 255.27295 261.0002 266.72749 272.45475 278.182 283.90928 289.63655 301.09107 306.81834 312.5456 318.27287 324.00013 329.7274 335.45466 341.18193 346.90919 358.3637 364.09098 369.81825 375.5455 381.27278 387.00004 392.7273 398.45457 404.18183 415.63636 421.36363 427.09089 432.81816 438.5454 444.27268 449.99995 455.7272 461.45448 467.18174 472.909">forfutureactionsoutsidethespecificemergencyconditiondocumented.</tspan><tspan y="-243.56403" x="72 77.72728 89.18184 100.6364 106.36368 112.09096 117.81824 123.54552 129.2728 135.00008 140.72736 152.18192 157.9092 163.63648 169.36376 175.09104 180.81832 192.27288 198.00016 209.45471 215.18199 220.90927 226.63655 232.36383 243.81839 249.54567 255.27295 261.0002 272.45475 278.182 283.90928 295.3638 301.09107 306.81834 312.5456 318.27287 329.7274 335.45466 341.18193 346.90919 358.3637 364.09098 369.81825 381.27278 387.00004 392.7273 398.45457 409.9091 415.63636 421.36363 427.09089 438.5454 444.27268 449.99995 455.7272 461.45448 467.18174 472.909 484.36354 490.0908 495.81806 501.54533 507.27259 512.9999 524.45449 530.18179 541.63638 547.36367 553.09097">IFaresponsebundleisused,THENtheactormust(1)listeachbundledactioninthe</tspan><tspan y="-230.01403" x="72 77.72728 83.45456 89.18184 94.90912 100.6364 106.36368 112.09096 117.81824 129.2728 135.00008 140.72736 152.18192 157.9092 163.63648 169.36376 175.09104 186.5456 192.27288 198.00016 209.45471 215.18199 220.90927 226.63655 232.36383 243.81839 249.54567 255.27295 266.72749 272.45475 278.182 283.90928 289.63655 295.3638 306.81834 312.5456 318.27287 324.00013 329.7274 335.45466 341.18193 346.90919 352.63645 364.09098 369.81825 375.5455 381.27278 387.00004 392.7273 398.45457 404.18183 409.9091 421.36363 427.09089 432.81816 438.5454 444.27268 455.7272 461.45448 467.18174 472.909 478.63627 484.36354 490.0908 495.81806 501.54533 507.27259 512.9999 524.45449 530.18179 535.90908">emergencylogstub,(2)statethesingleemergencyconditionbeingcontrolled,(3)</tspan><tspan y="-216.46503" x="72 77.72728 83.45456 89.18184 94.90912 106.36368 112.09096 117.81824 129.2728 135.00008 140.72736 146.45464 157.9092 163.63648 169.36376 175.09104 180.81832 186.5456 192.27288 198.00016 203.72743 209.45471 220.90927 226.63655 232.36383 243.81839 249.54567 255.27295 266.72749 272.45475 278.182 289.63655 295.3638 306.81834 312.5456 318.27287 324.00013 329.7274 335.45466 341.18193 346.90919 352.63645 358.3637 369.81825 375.5455 381.27278 387.00004 398.45457 404.18183 409.9091 421.36363 427.09089 432.81816 438.5454 444.27268 449.99995 455.7272 461.45448 467.18174 478.63627 490.0908 495.81806 501.54533 507.27259 512.9999 518.7272">statethestopcondition,and(4)setanexpirationtimenotexceeding4hours.</tspan><tspan y="-196.14102" x="72 77.72728 89.18184 94.90912 100.6364 112.09096 117.81824 123.54552 129.2728 135.00008 140.72736 146.45464 152.18192 157.9092 169.36376 175.09104 180.81832 186.5456 192.27288 198.00016 203.72743 209.45471 215.18199 226.63655 232.36383 238.09111 243.81839 249.54567 255.27295 261.0002 266.72749 278.182 283.90928 289.63655 295.3638 301.09107 306.81834 318.27287 324.00013 329.7274 341.18193 346.90919 352.63645 358.3637 364.09098 369.81825 375.5455 381.27278 387.00004 392.7273 404.18183 409.9091 415.63636 421.36363 432.81816 438.5454 449.99995 455.7272 461.45448 472.909 478.63627 484.36354 490.0908 495.81806 507.27259 512.9999 518.7272 524.45449 530.18179 535.90908 541.63638">IFtheemergencyconditionpersistsbeyondtheexpirationtimeORthescopeexpands</tspan><tspan y="-182.59203" x="72 77.72728 89.18184 100.6364 106.36368 112.09096 117.81824 123.54552 129.2728 135.00008 140.72736 146.45464 157.9092 163.63648 169.36376 175.09104 180.81832 186.5456 192.27288 198.00016 203.72743 215.18199 220.90927 226.63655 232.36383 238.09111 243.81839 249.54567 255.27295 261.0002 266.72749 278.182 283.90928 289.63655 295.3638 306.81834 318.27287 324.00013 329.7274 341.18193 346.90919 352.63645 358.3637 364.09098 369.81825 375.5455 381.27278 387.00004 398.45457 404.18183 409.9091 415.63636 421.36363 427.09089 432.81816 438.5454 444.27268 449.99995 461.45448 467.18174 472.909 484.36354 490.0908 495.81806 507.27259 512.9999 518.7272 530.18179 535.90908 541.63638 547.36367">toadifferentemergencycondition,THENanewemergencyinvocationandnewlogstub</tspan><tspan y="-169.04303" x="72 77.72728 83.45456 94.90912 100.6364 106.36368 112.09096 117.81824 123.54552 129.2728 135.00008 140.72736">arerequired.</tspan><tspan y="-148.71903" x="71.714 83.16856 88.895839 94.623119 100.350399 106.077678 111.804958 117.532238 123.259517 134.71407 140.44135 146.16863 151.8959 157.62319 163.35047 174.80503 180.5323 186.25959 191.98686 203.44142 209.1687 214.89598 226.35054 232.07782 237.8051 243.53238 249.25966 254.98694 260.7142 272.16874 277.896 283.62327 289.35054 295.0778 300.80506 306.53233 312.25959 317.98686 323.7141 335.16865 340.8959 346.62318 352.35044 358.0777 363.80497 369.53224 380.98677 386.71403 392.44129 398.16856 403.8958 409.62309 415.35035 421.0776 426.80488 432.53215 438.2594 443.98667 455.4412 461.16847 466.89573 472.623 478.35026 489.80479 495.53205 501.2593 506.98658 512.71389 518.44119 524.16848 529.89578 535.62307 541.35037 547.07766">Aresponsebundlemustnotincludecontracts,partnercommitments,staffdiscipline,</tspan><tspan y="-135.17003" x="72 77.72728 83.45456 89.18184 94.90912 100.6364 112.09096 117.81824 123.54552 129.2728 135.00008 140.72736 146.45464 152.18192 157.9092 163.63648 169.36376 180.81832 186.5456 192.27288 198.00016 203.72743 209.45471 220.90927 226.63655 232.36383 238.09111 243.81839 249.54567 255.27295 261.0002 272.45475 278.182 289.63655 295.3638 301.09107 312.5456 318.27287 324.00013 329.7274 335.45466 341.18193 352.63645 358.3637 364.09098 369.81825 381.27278 387.00004 398.45457 404.18183 409.9091 415.63636 421.36363 427.09089 432.81816 438.5454 444.27268 449.99995 455.7272 461.45448 472.909 478.63627 484.36354 490.0908 495.81806 501.54533 507.27259 518.7272 524.45449 530.18179 535.90908 541.63638 547.36367 553.09097 558.81826 564.54556">accessrevocation,policychanges,oranyactionthatisirreversiblewithoutGoverning</tspan><tspan y="-121.62103" x="72 77.72728 83.45456 89.18184 100.6364 106.36368 112.09096 117.81824 123.54552 129.2728 135.00008 140.72736 146.45464">Bodyapproval.</tspan></text>
<text xml:space="preserve" transform="matrix(1 0 -0 1 0 792)" font-size="11.9552" font-family="LMRoman12" font-weight="bold"><tspan y="-92.59303" x="72 82.10214 94.85834 99.34154 106.07232 112.8031 116.54508 130.59246 139.786 145.28539 152.01616 159.85877 166.58954 172.08893 177.3253 181.06728 187.79805 195.27005 201.80954 205.55152 209.29349 214.15926 225.74385 233.96903 240.10204 245.41014">OM-11.BProportionalityTest</tspan></text>
<text xml:space="preserve" transform="matrix(1 0 -0 1 0 792)" font-size="10.9091" font-family="LMRoman10"><tspan y="-72.00003" x="72 79.4291 88.51638 93.370929 97.64729 103.101848 107.95639 114.02185 118.8764 128.26914 133.72368 138.57823 142.82187 145.8546 151.30915 161.01825 164.05098 171.9819 178.04737 183.5019 187.77828 192.05464 197.20374 205.08011 208.11284 217.50559 221.80377 226.65833 232.11287 238.48378 243.33834 253.04744 261.53474 269.71656 275.61839 287.44386 291.38203 298.50569">EmergencyactionisnarrowlyscopedONLYIF:</tspan></text>
<text xml:space="preserve" transform="matrix(1 0 -0 1 0 792)" font-size="10.9091" font-family="LMRoman10"><tspan y="-42.11203" x="303.273">7</tspan></text>
</svg>
