<svg xmlns="http://www.w3.org/2000/svg" xmlns:xlink="http://www.w3.org/1999/xlink" xmlns:inkscape="http://www.inkscape.org/namespaces/inkscape" version="1.1" width="612" height="792" viewBox="0 0 612 792">
<text xml:space="preserve" transform="matrix(1 0 -0 1 0 792)" font-size="11.9552" font-family="LMRoman12" font-weight="bold"><tspan y="-709.041" x="72 78.73078 82.47276">7.2</tspan></text>
<text xml:space="preserve" transform="matrix(1 0 -0 1 0 792)" font-size="11.9552" font-family="LMRoman12" font-weight="bold"><tspan y="-709.041" x="99.29373 108.33186 114.87136 118.61334 126.08534 132.21836 142.00966 148.54915 156.02115 167.97635 177.16989 182.66928 186.41126 193.88326 199.86086 203.60283 211.07483 214.8168 220.94982">ValuesandPrinciples</tspan></text>
<text xml:space="preserve" transform="matrix(.9899495 0 -0 1.0101526 0 792)" font-size="10.799458" font-family="LMRoman10"><tspan y="-681.5287" x="72.322879 79.50452 84.90424 87.906497 93.910999 98.71675 106.58956 111.98929 117.99379 120.99604 127.000537 135.41332 138.41556 144.11768 148.31867 153.12444 157.35782 163.36232 167.5957 172.40148 176.60247 182.00218 186.20317 189.20543 194.60517 204.22747 210.23197 216.23647 224.04448 230.04898 239.06653 245.07103 250.47075 258.28956 261.2918 267.2963 273.3008 278.10655 284.41346 289.21919 295.2237 301.22819 306.03395 311.73606 315.937 318.93928 328.2484 333.05415 337.28755 342.09327 347.493 351.69398 360.11753 364.92329 370.92778 374.23243 379.63215 383.8655 388.67127 393.47703 398.87675 404.88124 407.88349 416.29627 421.69599 427.7005 430.70274 433.705 439.1047 444.50447 448.7054 451.70768 457.1074 463.1119 470.98469 476.9892 482.99369 485.99595 490.8017 495.05668 502.92948 507.73524 513.4373 519.4418 522.44406 525.4462 530.252 533.2542 537.4552 540.4574">Valuesguideinterpretationbutdonotindependentlycreateenforceableobligationsunlessexplicitly</tspan></text>
<text xml:space="preserve" transform="matrix(.99899956 0 -0 1.0010015 0 792)" font-size="10.898185" font-family="LMRoman10"><tspan y="-674.22378" x="72.072109 75.1018 80.550899 86.915439 91.76513 94.79482 99.644519 109.3439 114.79299 122.726879 128.78626 131.81595 137.87534 143.93473 146.96442 153.0238 158.4729 166.35227 172.56424 178.01332 181.043 184.0727 190.13208 194.40419 202.89386 207.13326 216.22234 221.07202 226.5211 232.5805 236.87438 239.90407 245.96346 250.81314 258.72523 263.86918 269.31825 272.34797 278.40733 283.25703 291.1909 299.96394 306.02333 310.31718 318.19657 324.56108 333.05079 339.11015 344.86439 349.71409 355.77348 364.85163 369.70133 375.45558 379.69496 384.54466 394.24403 400.30339 406.36277 410.63487 413.66456 419.72395 428.81303 434.8724 440.32148 446.38087 451.23057 457.90028 462.17237 467.02207 472.77629 475.806 480.6557 492.16419 495.19389 502.16874 506.44084 511.29054 514.32028 519.1699 524.31387 529.763 535.52816 539.7676">labeledasbinding.Failuretoconsidervaluesmustbedocumentedduringpanelreviewifrelevant.</tspan></text>
<text xml:space="preserve" transform="matrix(1 0 -0 1 0 792)" font-size="10.9091" font-family="LMRoman10"><tspan y="-654.575" x="72 82.00365 88.06911 92.312747 97.767299 103.832759 106.865489 109.89822 112.93095 116.869129 122.62913">Mutability:</tspan></text>
<text xml:space="preserve" transform="matrix(1 0 -0 1 0 792)" font-size="10.9091" font-family="LMRoman10"><tspan y="-628.274" x="72">&#x2022;</tspan></text>
<text xml:space="preserve" transform="matrix(1 0 -0 1 0 792)" font-size="10.9091" font-family="LMRoman10"><tspan y="-628.274" x="85.94183 93.37093 97.6473 103.10185 109.16731 112.20004 118.2655 121.29823 125.54187 128.5746 134.02915 140.0946 144.39279 152.28008 160.4619 166.52736 171.07646 177.14192 182.59647 188.66193 194.11647 198.97103 204.42557 210.49103 213.52376">Prohibitions:Unchangeable</tspan></text>
<text xml:space="preserve" transform="matrix(1 0 -0 1 0 792)" font-size="10.9091" font-family="LMRoman10"><tspan y="-605.958" x="72">&#x2022;</tspan></text>
<text xml:space="preserve" transform="matrix(1 0 -0 1 0 792)" font-size="10.9091" font-family="LMRoman10"><tspan y="-605.958" x="85.53819 92.81456 98.26911 101.30184 107.3673 112.22185 116.520038 124.39641 132.4255 137.28006 143.04007 146.0728 150.37099 155.82553 161.89099 164.92372">Values:Revisable</tspan></text>
<text xml:space="preserve" transform="matrix(1 0 -0 1 0 792)" font-size="11.9552" font-family="LMRoman12" font-weight="bold"><tspan y="-576.748" x="72 78.73078 82.47276">7.3</tspan></text>
<text xml:space="preserve" transform="matrix(1 0 -0 1 0 792)" font-size="11.9552" font-family="LMRoman12" font-weight="bold"><tspan y="-576.748" x="99.29373 109.013309 115.74409 126.95807 134.80068 140.93369 148.40569 153.71379 160.25328 165.48966 169.23163 175.9624 187.9176 194.45709 201.9291 213.8843 221.21283 227.75232 231.4943 241.47689 250.29982 256.46873 268.0533 277.7729 284.50367 291.97566 297.28376 302.52015 308.01954 314.55903 318.301 325.39045 330.62684">CompensationandFairPayConstraints</tspan></text>
<text xml:space="preserve" transform="matrix(1 0 -0 1 0 792)" font-size="10.9091" font-family="LMRoman10" font-weight="bold"><tspan y="-555.04" x="72 78.272739 81.75274 88.025478 91.50548">7.3.1</tspan></text>
<text xml:space="preserve" transform="matrix(1 0 -0 1 0 792)" font-size="10.9091" font-family="LMRoman10" font-weight="bold"><tspan y="-555.04" x="107.192768 114.04368 120.14187 123.62187 132.97098 142.03644 148.30918 158.76009 166.0801 171.8292 178.80011 183.75284 189.85103 194.7274 198.2074 204.48014 215.62924 222.49108 227.66199 233.76018 244.21109 249.96019 258.67658 264.9493 270.12025">FairCompensationFramework</tspan></text>
<text xml:space="preserve" transform="matrix(.9899495 0 -0 1.0101526 0 792)" font-size="10.799458" font-family="LMRoman10"><tspan y="-529.0755" x="72.322879 80.42247 83.42472 88.889247 93.69501 102.690959 108.69546 111.69771 116.79505 122.19478 127.000537 135.46732 141.785 146.57996 150.81334 155.06833 160.46807 166.48337 173.20063 181.89418 187.89868 192.15367 198.81694 205.13463 212.40267 217.20842 222.60816 231.6041 237.911 242.71675 248.72126 252.97623 258.37599 262.57695 267.3827 275.86027 278.8625 287.32929 292.729 297.53477 302.34049 307.74024 311.9736 317.9781 323.37785 329.38233 334.18809 341.4669 349.2641 352.26637 356.46733 364.9341 370.33384 378.8114 384.21113 390.21565 396.22013 400.4535 405.54005 410.9398 415.7455 424.2123 432.00953 437.40925 446.4052 452.72288 457.52864 463.5331 467.78813 473.18785 477.38883 480.39106 485.7908 494.25758 501.612 507.6165 510.61875 513.621 519.0207 523.2757 528.6754 534.67996 540.3821">AllemployedpersonsmustbecompensatedinaccordancewithanapprovedCompensationPhilosophy</tspan></text>
<text xml:space="preserve" transform="matrix(1 0 -0 1 0 792)" font-size="10.9091" font-family="LMRoman10"><tspan y="-520.898" x="72 78.218189 82.49455 87.949108 97.036388 101.89093 109.461849 114.9164 119.192768 128.5855 132.82913 138.28368 146.2146 152.29097 157.13462 160.16735 163.21099 169.27645 174.131 183.8292 186.86193 196.56012 202.62558 207.48014 212.33469 216.57833 219.61106 225.0656">Framework(asdefinedinSection</tspan></text>
<text xml:space="preserve" transform="matrix(1 0 -0 1 0 792)" font-size="10.9091" font-family="LMRoman10"><tspan y="-520.898" x="234.7747 240.22925 243.26198 248.71652">4.25</tspan></text>
<text xml:space="preserve" transform="matrix(1 0 -0 1 0 792)" font-size="10.9091" font-family="LMRoman10"><tspan y="-520.898" x="254.17107 258.4147">).</tspan><tspan y="-500.574" x="71.607 79.483379 85.548839 94.03611 97.3743 101.650669 107.10522 116.1925 121.04704 128.62888 134.08342 138.35979 147.75254 156.53437 162.59983 166.89801 171.14165">Theframeworkmust:</tspan></text>
<text xml:space="preserve" transform="matrix(1 0 -0 1 0 792)" font-size="10.9091" font-family="LMRoman10"><tspan y="-474.272" x="72">&#x2022;</tspan></text>
<text xml:space="preserve" transform="matrix(1 0 -0 1 0 792)" font-size="10.9091" font-family="LMRoman10"><tspan y="-474.272" x="85.94183 92.00729 96.30548 104.79276 108.73095 114.79641 120.86187 125.716419 132.08733 136.94188 143.00734 149.0728 153.92736 159.69828 163.94191 166.96373 176.36739 183.63285 188.4874 192.76377 195.7965 198.82923 201.86196 207.3165 213.38196 216.41469 224.91289 232.78926 238.2438 247.33109 253.702 258.55656 264.622 268.9202 274.37477 278.6184 281.65113 287.10569 296.80387 305.13844 310.593 314.83665 323.92393 328.16758 333.62214 341.56398 347.62944 352.48399 355.5167 358.54945 364.6149 369.46946 379.16764 382.20036 391.89854 397.97489 402.81855 407.6731 411.91676 414.94947 420.40403">useIndependentlyVerifiableCompensationData(asdefinedinSection</tspan></text>
<text xml:space="preserve" transform="matrix(1 0 -0 1 0 792)" font-size="10.9091" font-family="LMRoman10"><tspan y="-474.272" x="430.11314 435.5677 438.6004 444.05497">4.23</tspan></text>
<text xml:space="preserve" transform="matrix(1 0 -0 1 0 792)" font-size="10.9091" font-family="LMRoman10"><tspan y="-474.272" x="449.50953">)</tspan></text>
<text xml:space="preserve" transform="matrix(1 0 -0 1 0 792)" font-size="10.9091" font-family="LMRoman10"><tspan y="-451.956" x="72">&#x2022;</tspan></text>
<text xml:space="preserve" transform="matrix(1 0 -0 1 0 792)" font-size="10.9091" font-family="LMRoman10"><tspan y="-451.956" x="85.94183 90.79639 95.094577 99.33821 104.79276 110.85822 113.89095 116.92368 121.22187 130.92006 135.19643 140.65097 143.6837 148.53826 152.17099 158.23645 163.691 167.98918 172.84374 182.55284 186.79648 192.25102 196.52739 201.98194 206.83649 214.71286 218.98923 224.44377 230.50923 235.96378 240.81833 248.74925 253.02562 258.48017 262.72383 268.78929 273.64384 281.56385 285.8075 291.87297 297.3275 307.0257 316.11299 320.41117 323.44389 329.50935 334.9639 337.9966 346.4948 352.56028 358.62574 361.65846 367.113 371.96757 376.24394 380.5421 385.99668 392.6621 399.03303 403.88758 408.16395 413.0185 417.87306 423.63307 427.8767 430.90943 433.94215">establishrole-basedtargetrangesratherthanasingleuniversalpercentile</tspan></text>
<text xml:space="preserve" transform="matrix(1 0 -0 1 0 792)" font-size="10.9091" font-family="LMRoman10"><tspan y="-429.63999" x="72">&#x2022;</tspan></text>
<text xml:space="preserve" transform="matrix(1 0 -0 1 0 792)" font-size="10.9091" font-family="LMRoman10"><tspan y="-429.63999" x="85.94183 92.00729 97.7673 102.62186 108.68732 117.7746 122.62915 128.38916 136.26554 140.50917 146.57463 155.07283 159.3492 164.80374 169.04738 172.08011 177.53466 183.60012 189.05466 192.08739 200.57468 203.91286 209.3674 217.2765 221.55287 227.00742 233.07288 238.52742 247.02562 253.09108 256.1238 261.57838 266.43293 271.28749 280.37477 285.2184 290.98933 298.8657 302.2039 307.65846 315.56755 320.4221 325.87666 330.43666 340.13484 344.4112 349.86576 352.89848">documenttherationaleforrangeplacementforeachrole</tspan></text>
<text xml:space="preserve" transform="matrix(1 0 -0 1 0 792)" font-size="10.9091" font-family="LMRoman10"><tspan y="-407.32398" x="72">&#x2022;</tspan></text>
<text xml:space="preserve" transform="matrix(1 0 -0 1 0 792)" font-size="10.9091" font-family="LMRoman10"><tspan y="-407.32398" x="85.94183 92.00729 96.28366 101.138217 105.4364 110.290958 114.56732 120.021869 128.50916 131.54189 137.3128 141.55644 146.411 150.68737 156.75283 162.20737 168.87284 173.72739 179.4874 185.55286 188.58559 192.52378 201.91652 207.37107 212.22562 216.50199 221.95653 226.25472 234.19655 238.47292 243.92746 246.96019 251.81475 259.74565 265.2002 272.1711 277.02568 282.48023 291.5675 297.63298 303.08753 307.3639 312.81846 318.8839 321.91664 330.41484 334.6912 339.54576 343.84394 350.21485 355.6694 361.73487 366.03306 369.06578 375.13124 378.16395 381.19667 384.22938 388.16758">preserveinternalequityacrossrolesofcomparableresponsibility</tspan></text>
<text xml:space="preserve" transform="matrix(1 0 -0 1 0 792)" font-size="10.9091" font-family="LMRoman10"><tspan y="-385.007" x="72">&#x2022;</tspan></text>
<text xml:space="preserve" transform="matrix(1 0 -0 1 0 792)" font-size="10.9091" font-family="LMRoman10"><tspan y="-385.007" x="85.94183 90.2182 95.072757 104.160037 109.614589 112.647319 122.345508 127.20006 132.6546 138.72006 143.01825 146.05098 150.34917 154.5928 159.44736 165.21828 173.09465 180.97103 184.00376 188.24739 197.94559 200.97832 206.43286 212.49832 217.95287 221.5856 225.82924 230.68379 234.96016 247.69109 253.14563 257.422 262.87657 268.33113 274.39659 277.4293 282.28385 287.7384 291.98207 295.00389 300.45845 306.5348 311.98936 318.6548 322.95298 328.40754 331.44026 336.8948 341.74937 347.81483 352.66938">remainconsistentwithlong-termorganizationalsolvency</tspan><tspan y="-358.706" x="72 79.87637 85.330928 94.418209 100.78912 105.64368 111.70914 116.007328 121.461879 125.70551 128.73824 134.19278 143.89098 147.22916 152.6837 160.60372 166.05826 171.81827 181.21102 185.48738 190.94193 193.97466 202.46195 211.25469 217.32015 221.61833 229.4947 235.56017 241.01471 248.89109 252.22927 257.6838 260.71653 267.39289 273.7638 278.61836 281.65107 286.80018 298.30928 302.55293 308.61839 317.10566 325.44023 328.47294 333.9275 339.99296 343.02568 346.97477 356.3675 363.49116 366.52388 372.28388 377.73844 385.64753 389.89118 395.34574 403.27665 409.3421 414.19667 417.22938 420.26213 426.32759 431.18214 440.89125 443.92396 453.62214 459.6876 464.54216 469.3967 473.64036 476.67308 482.12763">CompensationforanyrolemustnotfallbelowtheDignityFloor(asdefinedinSection</tspan></text>
<text xml:space="preserve" transform="matrix(1 0 -0 1 0 792)" font-size="10.9091" font-family="LMRoman10"><tspan y="-358.706" x="491.8258 497.28038 500.31309 505.76765">4.26</tspan></text>
<text xml:space="preserve" transform="matrix(1 0 -0 1 0 792)" font-size="10.9091" font-family="LMRoman10"><tspan y="-358.706" x="511.2222 515.4658">).</tspan></text>
<text xml:space="preserve" transform="matrix(1.0099504 0 -0 .99014756 0 792)" font-size="11.017651" font-family="LMRoman10"><tspan y="-341.74906" x="71.290637 79.24538 84.754199 93.9319 100.355197 105.25805 111.38386 115.724819 121.233638 125.5195 128.58242 134.09125 144.74532 153.92304 159.12335 169.46894 174.3718 180.1891 185.09197 189.99483 194.89769 205.54073 209.82659 215.95241 225.3725 233.63573 239.76154 246.19586 251.09871 259.93489 267.4379 273.5637 284.21778 289.72657 297.6152 305.11824 309.43717 314.34 319.56239 325.0712 328.12309 331.18598 334.2489 340.3747 350.41178 360.51496 366.02375 370.34269 375.86253 380.76539 389.5685 397.83174 403.34056 407.6595 416.83717 425.69538 431.2042 437.33003 440.3929 450.7385 458.69325 461.75614 466.04203 476.6851 482.81089 488.6172 493.52006 499.64585 508.82356 513.72647 519.55477 523.84066 528.74349">CompensationmayexceedtheUpperEndofPrevailingMarketNormsonlywithdocumented</tspan></text>
<text xml:space="preserve" transform="matrix(.9899495 0 -0 1.0101526 0 792)" font-size="10.799458" font-family="LMRoman10"><tspan y="-321.56825" x="72.73098 76.035617 82.040119 86.2951 90.496089 93.49834 96.50059 99.50284 104.3086 109.70833 113.90932 116.91157 122.311298 128.3158 136.1454 143.94261 149.34233 158.33829 164.65598 169.46173 175.46623 179.72122 185.12096 189.32195 192.32419 197.72393 207.19504 213.50193 218.3077 221.30994 226.40727 237.67111 241.8721 247.8766 256.149 264.2486 270.25309 276.55998 281.36573 289.06575 296.42018 302.42466 311.89579 317.29554 324.0668 331.42124 335.6546 340.46037 345.5469 350.94664 353.94889 356.95115 359.95338 365.9579 374.82426 384.72734 390.12705 394.36045 399.76017 404.56593 412.23353 420.3331 425.73286 429.96623 438.96217 446.68379 450.91719 455.7229 461.42503 467.42955 470.43177 474.66517 479.4709 487.1925 493.19703 498.89915 503.70487 509.70939 518.7053 523.5111 529.2132 533.4142 538.22 544.2244">justification.CompensationbelowtheUpperEndofPrevailingMarketNormsrequiresdocumented,</tspan></text>
<text xml:space="preserve" transform="matrix(1 0 -0 1 0 792)" font-size="10.9091" font-family="LMRoman10"><tspan y="-311.284" x="72 78.06546 83.52001 89.58547 93.2182 98.072757 103.832759 108.07639 112.35276 117.80731 122.661869 126.9055 129.93824 135.39279 143.88008 148.15645 153.611 157.85463 160.88736 166.3419 172.40737 177.86191 180.89464 189.39284 194.84738 200.91284 210.61104 219.39287 225.45833 229.75652 237.6438 243.70926 249.1638 257.04017 261.31654 266.17109 269.2038 278.59654 284.0511 293.7602 302.84748 305.8802 310.17839 314.47657 317.50929 322.96385 332.66203 338.11659 341.1493 344.182 349.63658 355.70204 364.7893 369.64387 375.40388 379.64753 386.32389 392.38935 396.6657 401.52027 405.81846 410.0621 413.09483 418.54939 423.40394 430.06938 435.52394 443.433 446.46574 455.553 461.61848 464.65119 467.6839 472.53846 482.24757 486.54576 492.0003 496.85487 501.13124 504.16395 507.19667 510.2294 515.0839 519.92758">non-extractiverationaleandmustnotrelyonmissionalignment,prestige,orimpliedsacrifice.</tspan></text>
<text xml:space="preserve" transform="matrix(1.001998 0 -0 .998006 0 792)" font-size="10.930896" font-family="LMRoman10"><tspan y="-291.54136" x="71.45325 79.65142 85.422939 94.84536 100.92294 105.78719 111.55871 114.597499 120.06294 124.315059 127.35384 132.8193 142.53687 145.88172 150.16663 155.63208 168.38843 172.64057 178.71814 187.22237 192.68782 198.7654 204.84297 207.88176 210.92057 215.7848 221.25025 227.32782 230.36661 238.88179 243.13391 248.59935 252.88426 258.34974 263.20304 271.10609 275.39097 280.8564 286.934 292.39949 300.9037 305.1886 310.05287 315.82438 321.90196 324.94075 329.22569 334.0899 342.04759 349.9397 354.2246 357.2634 361.51554 365.76765 370.6319 380.34947 383.6943 389.77189 394.07865 398.33079 401.36958 404.40837 407.44715 412.31138 417.77687 422.02897 425.06776 430.53324 440.26173 445.72718 451.80476 461.5223 470.10307 475.26246 480.73887 485.6031 489.88804 495.9656 499.0044 505.08198 514.18746 521.9265 527.69808 533.77566">AnydeviationfromtheapplicabletargetrangerequireswrittenjustificationandGoverningBody</tspan></text>
<text xml:space="preserve" transform="matrix(1 0 -0 1 0 792)" font-size="10.9091" font-family="LMRoman10"><tspan y="-277.411" x="72 76.27637 81.13092 86.89092 89.92365 94.7782 102.65457">review.</tspan><tspan y="-257.087" x="72 82.00365 88.06911 92.312747 97.767299 103.832759 106.865489 109.89822 112.93095 116.869129 122.62913 130.5164 138.69823 144.76369 149.31279 155.37825 160.8328 166.89826 172.3528 177.20735 182.6619 188.72736 191.76009">Mutability:Unchangeable</tspan></text>
<text xml:space="preserve" transform="matrix(1 0 -0 1 0 792)" font-size="10.9091" font-family="LMRoman10" font-weight="bold"><tspan y="-228.276" x="72 78.272739 81.75274 88.025478 91.50548">7.3.2</tspan></text>
<text xml:space="preserve" transform="matrix(1 0 -0 1 0 792)" font-size="10.9091" font-family="LMRoman10" font-weight="bold"><tspan y="-228.276" x="107.192768 111.949138 118.57096 123.44733 129.19643 134.36734 141.33826 147.43645 155.09464 163.34192 169.96375 176.93466 180.41466 184.94194 195.74196 201.84015 208.81107 219.97107 229.78926 236.062 243.03292 247.2111 256.62568 262.37477 267.25114 273.3493 276.8293 280.30934 286.4075 291.28388 294.7639 301.03663">InternalEquityandNon-Retaliation</tspan></text>
<text xml:space="preserve" transform="matrix(.9934788 0 -0 1.0065641 0 792)" font-size="10.837958" font-family="LMRoman10"><tspan y="-206.32863" x="72.47261 80.297618 85.7166 94.74462 101.07399 105.89688 111.92279 116.19295 121.61193 125.82789 128.84084 134.25981 143.9598 149.98569 154.23418 159.65316 164.47605 168.69202 171.70496 176.52785 181.35076 189.29499 198.01953 204.04544 208.3156 216.20565 222.23154 226.48003 231.30292 235.57308 240.39597 244.64446 250.05258 258.54957 261.56254 267.28495 271.50093 276.32383 280.5723 286.59819 292.01716 298.7042 303.5271 309.24955 315.27543 318.2884 322.2009 331.5974 337.0164 341.82844 346.0769 351.49589 355.7769 363.71028 367.95875 373.37773 376.3907 381.21357 389.1578 394.57679 401.5673 406.39018 411.80915 420.8372 426.86308 432.28205 436.53053 441.9495 447.9754 450.98835 459.48533 463.7338 468.5567 472.82685 479.15623 484.5752 490.60108 494.87126 497.8842 503.9101 506.92308 509.93605 512.949 516.86148 526.25796 531.67697 537.7029">Compensationpracticesmustpreserveinternalequityacrossrolesofcomparableresponsibilityand</tspan></text>
<text xml:space="preserve" transform="matrix(1 0 -0 1 0 792)" font-size="10.9091" font-family="LMRoman10"><tspan y="-194.134" x="72 76.85455 82.309108 88.06911 92.312747 96.58911 99.62184 105.6873 111.75276 115.9964 119.02913 124.48368 130.54914">contribution.</tspan><tspan y="-173.81" x="72 79.87637 85.330928 94.418209 100.78912 105.64368 111.70914 116.007328 121.461879 125.70551 128.73824 134.19278 143.89098 152.6728 158.73827 163.04737 170.92374 176.9892 182.44374 190.32012 196.69103 205.17832 210.63286 216.69832 220.0365 226.11287 230.41106 234.6547 239.50925 245.5747 252.24018 260.11656 263.14927 267.3929 273.45838 279.52384 284.3784 287.4111 293.47657 300.142 305.59657 313.51658 317.81477 322.0584 326.33479 332.40025 337.2548 341.49845 347.5639 351.84028 356.68394 366.39305 371.8476 376.14579">Compensationmustnotbeadjusted,withheld,orstructuredas:</tspan></text>
<text xml:space="preserve" transform="matrix(1 0 -0 1 0 792)" font-size="10.9091" font-family="LMRoman10"><tspan y="-147.509" x="72">&#x2022;</tspan></text>
<text xml:space="preserve" transform="matrix(1 0 -0 1 0 792)" font-size="10.9091" font-family="LMRoman10"><tspan y="-147.509" x="85.94183 92.00729 98.072757 104.138217 107.170948 111.46913 117.53459 126.62187 131.47643 137.23644">punishment</tspan></text>
<text xml:space="preserve" transform="matrix(1 0 -0 1 0 792)" font-size="10.9091" font-family="LMRoman10"><tspan y="-125.193" x="72">&#x2022;</tspan></text>
<text xml:space="preserve" transform="matrix(1 0 -0 1 0 792)" font-size="10.9091" font-family="LMRoman10"><tspan y="-125.193" x="85.94183 90.79639 96.5564 101.41095 105.68732 110.54187 113.5746 119.02915">coercion</tspan></text>
<text xml:space="preserve" transform="matrix(1 0 -0 1 0 792)" font-size="10.9091" font-family="LMRoman10"><tspan y="-102.876" x="72">&#x2022;</tspan></text>
<text xml:space="preserve" transform="matrix(1 0 -0 1 0 792)" font-size="10.9091" font-family="LMRoman10"><tspan y="-102.876" x="85.94183 90.2182 95.072757 99.31639 104.77094 107.80367 110.8364 116.290958 120.53459 123.56732 129.02187">retaliation</tspan></text>
<text xml:space="preserve" transform="matrix(1 0 -0 1 0 792)" font-size="10.9091" font-family="LMRoman10"><tspan y="-80.56" x="72">&#x2022;</tspan></text>
<text xml:space="preserve" transform="matrix(1 0 -0 1 0 792)" font-size="10.9091" font-family="LMRoman10"><tspan y="-80.56" x="85.94183 90.2182 95.072757 102.64367 108.09822 112.37459 122.07278 125.421878 130.87642 138.78553 143.08371 146.11644 149.14917 154.00373 160.06919 164.92374 173.41103 178.86557 186.77468 191.62923 197.08377 206.17105 212.23651 215.26924 218.30197 223.75652 229.82198 234.67653">rewardforsilenceorcompliance</tspan></text>
<text xml:space="preserve" transform="matrix(1 0 -0 1 0 792)" font-size="10.9091" font-family="LMRoman10"><tspan y="-42.111997" x="300.54499 305.99955">31</tspan></text>
</svg>
