<svg xmlns="http://www.w3.org/2000/svg" xmlns:xlink="http://www.w3.org/1999/xlink" xmlns:inkscape="http://www.inkscape.org/namespaces/inkscape" version="1.1" width="612" height="792" viewBox="0 0 612 792">
<text xml:space="preserve" transform="matrix(1 0 -0 1 0 792)" font-size="11.9552" font-family="LMRoman12" font-weight="bold"><tspan y="-709.041" x="72 78.73078 85.46156 89.203548">18.8</tspan></text>
<text xml:space="preserve" transform="matrix(1 0 -0 1 0 792)" font-size="11.9552" font-family="LMRoman12" font-weight="bold"><tspan y="-709.041" x="106.02451 115.744098 119.48608 126.02557 131.33368 136.64179 140.38376 144.11975 147.85576 153.83336 160.37285 165.60923 169.3512 176.08197 188.03717 195.50917 200.74555 207.28504 214.75704 222.22904 228.76853 234.26792 241.73992">ClassificationStandards</tspan></text>
<text xml:space="preserve" transform="matrix(1 0 -0 1 0 792)" font-size="10.9091" font-family="LMRoman10"><tspan y="-688.448" x="72 80.48728 86.55274 89.58547 98.9782 102.01093 107.465488 112.92004 117.21822 123.89459 127.23278 132.68733 137.54189 141.78553 146.08371 152.74918 158.20372 164.26918 173.96738 178.82193 183.0983 187.95285 194.01831 197.05104 203.1165 206.14923 214.64743 218.89107 223.74562 228.04381 232.28745 235.32018 244.40746 249.862 255.62201 265.01475 274.10203 279.25114 288.6548 295.0257 303.51298 308.36753 313.82209 319.88755 324.18574 327.21846 333.2839 338.13847 342.41484 347.26939 353.33485">Onlylogs,facts,andcredibletestimonymaybeconsidered.</tspan><tspan y="-668.124" x="72 79.72364 84.578189 87.610919 90.64365 95.4982 102.46912 107.92367 115.84367 120.99277 126.44732 129.48004 135.5455 140.40006 148.33098 153.78553 156.81826 162.2728 168.33826 176.83646 182.291 186.56737 195.05466 201.12012 206.57466 214.45104 218.74922 224.81468 227.84378 230.87288 233.90196 238.75652 241.78925 246.6438 252.41472 256.65837">Belieforvaluesalonearenotsufficient.</tspan><tspan y="-647.801" x="72 82.00365 88.06911 92.312747 97.767299 103.832759 106.865489 109.89822 112.93095 116.869129 122.62913 130.5164 138.69823 144.76369 149.31279 155.37825 160.8328 166.89826 172.3528 177.20735 182.6619 188.72736 191.76009">Mutability:Unchangeable</tspan></text>
<text xml:space="preserve" transform="matrix(1 0 -0 1 0 792)" font-size="11.9552" font-family="LMRoman12" font-weight="bold"><tspan y="-618.59207" x="72 78.73078 85.46156 89.203548">18.9</tspan></text>
<text xml:space="preserve" transform="matrix(1 0 -0 1 0 792)" font-size="11.9552" font-family="LMRoman12" font-weight="bold"><tspan y="-618.59207" x="106.02451 115.58868 123.06068 128.56008 136.03208 142.16509 154.12029 160.85106 169.44686 178.6404 184.13979 191.24117 197.97194">BurdenofProof</tspan></text>
<text xml:space="preserve" transform="matrix(1 0 -0 1 0 792)" font-size="10.9091" font-family="LMRoman10"><tspan y="-597.999" x="72">&#x2022;</tspan></text>
<text xml:space="preserve" transform="matrix(1 0 -0 1 0 792)" font-size="10.9091" font-family="LMRoman10"><tspan y="-597.999" x="85.94183 95.94548 98.97821 103.2764 107.520038 112.97459 118.42913 126.927318 139.04734 146.47643 150.75279 155.60735 161.97826 167.4328 173.49826 179.56372 184.41828 188.69464 194.14919 200.21465 205.0692">Mistake=Preponderance</tspan></text>
<text xml:space="preserve" transform="matrix(1 0 -0 1 0 792)" font-size="10.9091" font-family="LMRoman10"><tspan y="-575.682" x="72">&#x2022;</tspan></text>
<text xml:space="preserve" transform="matrix(1 0 -0 1 0 792)" font-size="10.9091" font-family="LMRoman10"><tspan y="-575.682" x="85.53819 93.72002 96.75275 102.2073 105.24003 110.69458 114.93822 117.97095 123.4255 133.12369 145.25461 153.13098 156.16371 161.01827 166.47281 174.38191 179.23647 184.99648 188.0292 194.09467 198.94922 205.01468 209.86923">Violation=Clearevidence</tspan></text>
<text xml:space="preserve" transform="matrix(1 0 -0 1 0 792)" font-size="10.9091" font-family="LMRoman10"><tspan y="-553.366" x="72">&#x2022;</tspan></text>
<text xml:space="preserve" transform="matrix(1 0 -0 1 0 792)" font-size="10.9091" font-family="LMRoman10"><tspan y="-553.366" x="85.53819 93.72002 99.78548 105.85094 110.149127 118.636409 130.76734 138.6437 141.67644 146.53099 151.98554 159.89464 165.34918 171.41464 181.11284 185.96739 191.42194 197.19286 202.95287 205.9856 212.05106 216.90561 219.93834 226.0038">Abuse=Clearandconvincing</tspan><tspan y="-527.065" x="72 75.93819 82.9091 87.15274 93.2182 101.71639 105.96003 112.02549 116.30186 121.1564 125.45459 131.52005 136.9746 140.00733 149.70552 152.73825 160.66918 166.74555 172.20009 180.07646 189.16374 194.0183 198.26194 204.9274 209.78195 212.81468 218.26923 222.56742 226.8656 229.89833 232.93106 235.96379 240.81835 246.27289 250.51653 253.54926 259.0038 268.702 274.77836 279.622 282.9711 288.42567 294.49113 297.52384 301.7675 309.6984 313.94206 323.02934 327.27299 333.33845 341.83665 344.86936 350.01847 357.5894 362.44395 366.74214 374.6185 380.07307 386.13853 392.20399 395.2367 398.2694 403.12397 408.57853 414.64399 417.6767 426.1749 429.2076 434.06217 439.51673 444.37129 447.404">Ifthethresholdisnotmet,classificationdefaultstothelowestapplicablelevel.</tspan><tspan y="-506.741" x="72 82.00365 88.06911 92.312747 97.767299 103.832759 106.865489 109.89822 112.93095 116.869129 122.62913 130.5164 138.69823 144.76369 149.31279 155.37825 160.8328 166.89826 172.3528 177.20735 182.6619 188.72736 191.76009">Mutability:Unchangeable</tspan></text>
<text xml:space="preserve" transform="matrix(1 0 -0 1 0 792)" font-size="11.9552" font-family="LMRoman12" font-weight="bold"><tspan y="-477.53199" x="72 78.73078 85.46156 89.203548 95.934329">18.10</tspan></text>
<text xml:space="preserve" transform="matrix(1 0 -0 1 0 792)" font-size="11.9552" font-family="LMRoman12" font-weight="bold"><tspan y="-477.53199" x="112.755298 120.98048 127.113498 132.4216 137.65798 141.39995 152.61392 159.3447 166.44609 178.03069 188.33608 194.46909 198.20508 201.94109 209.41309 213.15506 218.39144 222.1334 228.86418">TestimonyDefinition</tspan></text>
<text xml:space="preserve" transform="matrix(1 0 -0 1 0 792)" font-size="10.9091" font-family="LMRoman10"><tspan y="-456.939" x="71.607 78.57792 83.432468 87.73065 91.97429 95.00702 104.0943 109.54885 115.30885 124.701587 133.48342 139.55979 143.85797 151.73435 158.10526 166.59255 169.62528 172.658 176.93437 181.23256 185.4762 189.10894 195.1744 200.62894 206.6944 212.75986 219.43624 222.46897 228.22898 232.47261 237.32717 241.60353 247.66899 253.12354 256.15626 259.18898 268.5817 273.43626 278.8908 284.95628 289.25447 292.28718 296.58537 300.829 305.68357 311.44358 315.68724 322.3636 327.81816 333.8836 343.5818 348.43635 353.8909 358.16728 362.44364 367.8982 374.2691 379.72367 384.00004 389.4546 393.69825 398.5528 404.61827">Testimonymustbefirst-hand,internallyconsistent,andcorroborated.</tspan><tspan y="-436.615" x="72 80.18182 86.247287 91.10184 96.55639 100.832759 105.10912 110.563678 116.93459 122.389148 126.66551 132.12006 136.3637 141.21825 150.91645 155.16008 160.01464 164.31282 168.55646 171.58919 180.67647 186.13101 191.89102 201.29468 206.74922 209.78195 215.2365 221.30196 229.78925 234.6438 240.09835 246.1638 252.22927 257.6838 265.56019 269.85838 275.92384 281.9893 288.3602 293.81477 298.09114 305.97843 311.43299 321.13117 329.313 335.37846 341.4439 345.7421 354.22938 357.2621 360.29484 366.3603 372.43666 375.46937 381.53483 386.98939">UncorroboratedtestimonyalonecannotsupportanAbusefinding.</tspan><tspan y="-416.291" x="72 82.00365 88.06911 92.312747 97.767299 103.832759 106.865489 109.89822 112.93095 116.869129 122.62913 130.5164 138.69823 144.76369 149.31279 155.37825 160.8328 166.89826 172.3528 177.20735 182.6619 188.72736 191.76009">Mutability:Unchangeable</tspan></text>
<text xml:space="preserve" transform="matrix(1 0 -0 1 0 792)" font-size="11.9552" font-family="LMRoman12" font-weight="bold"><tspan y="-387.08198" x="72 78.73078 85.46156 89.203548 95.934329">18.11</tspan></text>
<text xml:space="preserve" transform="matrix(1 0 -0 1 0 792)" font-size="11.9552" font-family="LMRoman12" font-weight="bold"><tspan y="-387.08198" x="112.755298 122.91721 130.38922 138.23183 144.36484 150.90433 154.6463">Appeals</tspan></text>
<text xml:space="preserve" transform="matrix(1.0004999 0 -0 .9995003 0 792)" font-size="10.914554" font-family="LMRoman10"><tspan y="-366.67225" x="71.96403 79.396839 84.85412 89.40548 99.11944 103.97642 107.01066 112.46793 116.76827 121.0686 124.10285 127.1371 130.17136 135.02834 144.74228 150.81079 156.26807 160.54657 164.49762 173.90596 182.99779 188.14946 197.5578 203.01509 209.08358 215.45767 220.31465 225.77193 232.44074 237.89801 243.97742 248.82347 257.3259 261.5717 270.6744 279.7771 285.8456 290.1241 294.98109 298.61564 304.0729 310.1414 316.2099 320.4884 325.65098 331.10829 335.96525 345.6792 353.112 358.8749 363.12068 367.97767 372.25617 378.32466 383.78193 390.46165 399.02955 404.1812 409.6385 414.49549 418.774 424.84248 430.29975 436.36827 441.22523 449.72767 457.91358 462.19209 468.26057 471.29484 475.5406 480.39756 488.32154 492.5673 498.02458 505.97038 512.0389 516.8958 519.93008 522.9643 529.0328 533.8898">Eachclassifiedpartymayappealoncetoapre-approvedExternalGovernanceArbiter(asdefined</tspan></text>
<text xml:space="preserve" transform="matrix(1 0 -0 1 0 792)" font-size="10.9091" font-family="LMRoman10"><tspan y="-352.94" x="72 75.03273 84.73092 90.79638 95.650928 100.50548 104.749118 107.781848 113.2364">inSection</tspan></text>
<text xml:space="preserve" transform="matrix(1 0 -0 1 0 792)" font-size="10.9091" font-family="LMRoman10"><tspan y="-352.94" x="122.945499 128.40004 131.43277 136.88732">4.15</tspan></text>
<text xml:space="preserve" transform="matrix(1 0 -0 1 0 792)" font-size="10.9091" font-family="LMRoman10"><tspan y="-352.94" x="142.34186 146.5855">).</tspan><tspan y="-332.616" x="72 82.00365 88.06911 92.312747 97.767299 103.832759 106.865489 109.89822 112.93095 116.869129 122.62913 130.5164 138.5455 143.40006 149.16007 152.1928 156.49098 161.94553 168.01099 171.04372">Mutability:Revisable</tspan></text>
<text xml:space="preserve" transform="matrix(1 0 -0 1 0 792)" font-size="11.9552" font-family="LMRoman12" font-weight="bold"><tspan y="-303.40699" x="72 78.73078 85.46156 89.203548 95.934329">18.12</tspan></text>
<text xml:space="preserve" transform="matrix(1 0 -0 1 0 792)" font-size="11.9552" font-family="LMRoman12" font-weight="bold"><tspan y="-303.40699" x="112.755298 121.56628 128.10578 135.57778 141.71079 149.93596 158.1731 164.3061 169.8055 185.50267 194.3256 201.7976 205.9102 212.64098 218.14037 224.11797 230.25098 241.46495 247.59796 254.69936">PanelTermEnforcement</tspan></text>
<text xml:space="preserve" transform="matrix(1.0099504 0 -0 .99014756 0 792)" font-size="11.017651" font-family="LMRoman10"><tspan y="-285.62815" x="71.290637 78.49618 84.005 90.13081 95.03366 98.09657 101.15948 105.500438 109.7863 119.096218 123.437168 128.34001 132.65894 138.17877 148.0506 152.39156 156.67742 162.18625 167.69509 173.2039 178.10677 182.42569 187.32854 198.42331 203.93215 209.44098 213.10985 222.28755 227.79639 233.61371 237.89957 249.00536 253.29122 258.19407 262.50196 271.67967 276.03166 284.40507 293.58274 299.09156 309.87785 313.85523 321.5125 331.99028 336.89314 342.40193 348.52775 352.8687 357.77156 362.67439 368.8002 373.0861 376.149 381.66883 391.54066 395.8265 400.72938 405.04829 414.22599 418.56694 430.5321 438.03514 443.85246 449.97828 453.04118 457.3601 462.26295 473.35774 479.49458 485.0034 491.12919 496.03205 499.08393 502.14683 506.4988 510.7847 520.0946 525.60348 529.92239">Panelistsservestaggered24-monthterms,maxtwoconsecutiveterms.Expiredpanelistsare</tspan></text>
<text xml:space="preserve" transform="matrix(1 0 -0 1 0 792)" font-size="10.9091" font-family="LMRoman10"><tspan y="-269.265" x="72 77.45455 83.52001 87.76365 93.2182 102.30548 107.76003 112.00367 115.0364 119.890949 125.3455 128.37822 131.41095 140.8037 146.86916 149.90189 154.20008 159.96009 166.02555 171.48009 174.51282 177.54555 180.57828 183.61101 188.46556 194.53102">automaticallydisqualified.</tspan><tspan y="-248.94101" x="72 82.00365 88.06911 92.312747 97.767299 103.832759 106.865489 109.89822 112.93095 116.869129 122.62913 130.5164 138.69823 144.76369 149.31279 155.37825 160.8328 166.89826 172.3528 177.20735 182.6619 188.72736 191.76009">Mutability:Unchangeable</tspan></text>
<text xml:space="preserve" transform="matrix(1 0 -0 1 0 792)" font-size="11.9552" font-family="LMRoman12" font-weight="bold"><tspan y="-219.73201" x="72 78.73078 85.46156 89.203548 95.934329">18.13</tspan></text>
<text xml:space="preserve" transform="matrix(1 0 -0 1 0 792)" font-size="11.9552" font-family="LMRoman12" font-weight="bold"><tspan y="-219.73201" x="112.755298 122.85744 130.32944 137.06021 142.5596 150.0316 165.72878 173.20078 179.74027 183.85286 189.98587 196.71665 204.18865 210.72814 216.22753 223.69953">QuorumSafeguards</tspan></text>
<text xml:space="preserve" transform="matrix(1 0 -0 1 0 792)" font-size="10.9091" font-family="LMRoman10"><tspan y="-199.14002" x="72 80.48728 86.55274 92.00729 96.28366 102.34912 115.06913 118.10186 123.55641 127.8546 135.79644 141.8619 147.31644 153.3819 157.68009 162.53464 170.46556 175.32012 178.35285 183.80739 188.10558 192.40377 195.4365 198.46923 201.50196 206.3565 211.81105 216.05469 219.08742 224.54196 234.25107 239.70561 245.77108 255.46927 261.53474 265.8111 271.26567 277.33113 280.36384 286.4293 289.462 293.70567 301.6475 304.6693 308.94569 313.22206 318.0766 323.54206 328.3966 332.67298 336.97117 340.00389 346.06935 349.10206 357.58934 363.6548 368.50935 373.3639 376.3966 380.6948 383.7275 389.18208 395.24754 399.54573">Quorumlosspausesclassificationandprohibitsirreversibledecisions.</tspan><tspan y="-178.81601" x="72 82.00365 88.06911 92.312747 97.767299 103.832759 106.865489 109.89822 112.93095 116.869129 122.62913 130.5164 138.69823 144.76369 149.31279 155.37825 160.8328 166.89826 172.3528 177.20735 182.6619 188.72736 191.76009">Mutability:Unchangeable</tspan></text>
<text xml:space="preserve" transform="matrix(1 0 -0 1 0 792)" font-size="11.9552" font-family="LMRoman12" font-weight="bold"><tspan y="-149.60701" x="72 78.73078 85.46156 89.203548 95.934329">18.14</tspan></text>
<text xml:space="preserve" transform="matrix(1 0 -0 1 0 792)" font-size="11.9552" font-family="LMRoman12" font-weight="bold"><tspan y="-149.60701" x="112.755298 122.91721 128.41661 135.88861 139.63059 144.86696 150.99997 160.98256 169.8055 176.90688 183.63765 191.86283 196.87206 203.97345 209.20983 215.34284 222.07361 227.573 231.31497 236.16878">ArbiterPoolIntegrity</tspan></text>
<text xml:space="preserve" transform="matrix(1 0 -0 1 0 792)" font-size="10.9091" font-family="LMRoman10"><tspan y="-129.014" x="72">&#x2022;</tspan></text>
<text xml:space="preserve" transform="matrix(1 0 -0 1 0 792)" font-size="10.9091" font-family="LMRoman10"><tspan y="-129.014" x="85.94183 95.94548 102.01094 106.30913 114.18549 117.21822 123.28368 128.13823 131.17096 137.23642 143.30188 151.80008 157.25463 165.131 168.16373 173.01828 178.47283 182.77101 190.64739 196.10193 201.55648 210.65467 215.50922 221.26923 225.51287 230.36742 234.64379 240.70925 246.16379 252.82926 258.2838 262.56019 265.5929 271.04747 274.08018">Mustincludeatleast1/3externalorigin</tspan></text>
<text xml:space="preserve" transform="matrix(1 0 -0 1 0 792)" font-size="10.9091" font-family="LMRoman10"><tspan y="-106.69701" x="72">&#x2022;</tspan></text>
<text xml:space="preserve" transform="matrix(1 0 -0 1 0 792)" font-size="10.9091" font-family="LMRoman10"><tspan y="-106.69701" x="85.94183 94.12366 103.21094 107.509128 110.541858 116.607318 122.06187 125.0946 133.59279 137.89098 143.34552 149.41098 153.68735 158.5419 167.02919 171.88375 177.33829 187.03649 191.89104 197.34558 203.1165 207.36014 211.6256 217.08014 223.75652 232.8438 238.60379 241.94197 247.39652 251.67288 254.70561 258.6438">Nosinglesourcecancontrolmajority</tspan></text>
<text xml:space="preserve" transform="matrix(1 0 -0 1 0 792)" font-size="10.9091" font-family="LMRoman10"><tspan y="-84.381008" x="72">&#x2022;</tspan></text>
<text xml:space="preserve" transform="matrix(1 0 -0 1 0 792)" font-size="10.9091" font-family="LMRoman10"><tspan y="-84.381008" x="85.94183 93.37093 99.43639 105.501857 108.534587 111.567317 115.8655 121.93096 126.78551 136.49462 144.37099 147.40372 151.64736 161.34555 165.64374 171.09828 177.16374 181.44011 186.29467 194.78195 200.2365 206.30196 216.01107 220.86562 226.32016 232.38562 235.41835 238.45108 241.48381 246.33837 254.21474 257.24748 263.31294 266.65113">Publishedwithsourceandconflictinfo</tspan></text>
<text xml:space="preserve" transform="matrix(1 0 -0 1 0 792)" font-size="10.9091" font-family="LMRoman10"><tspan y="-42.112005" x="300.54499 305.99955">48</tspan></text>
</svg>
