<svg xmlns="http://www.w3.org/2000/svg" xmlns:xlink="http://www.w3.org/1999/xlink" xmlns:inkscape="http://www.inkscape.org/namespaces/inkscape" version="1.1" width="612" height="792" viewBox="0 0 612 792">
<text xml:space="preserve" transform="matrix(1 0 -0 1 0 792)" font-size="10.9091" font-family="LMRoman10"><tspan y="-709.041" x="72">&#x2022;</tspan></text>
<text xml:space="preserve" transform="matrix(1 0 -0 1 0 792)" font-size="10.9091" font-family="LMRoman10"><tspan y="-709.041" x="85.94183 92.00729 97.7673 102.62186 110.55277 116.61823 122.072788 129.96007 136.32007 141.17462 145.45099 154.53827 157.571 165.45829 170.31284 175.76738 181.52739 185.77103 190.0474 195.50194 200.35649 208.23287 213.08742 218.84743 223.70198 228.55654 234.622 238.86563 241.89836 247.3529 253.41837">doesnotpermitcontractexecution,</tspan></text>
<text xml:space="preserve" transform="matrix(1 0 -0 1 0 792)" font-size="10.9091" font-family="LMRoman10"><tspan y="-686.72506" x="72">&#x2022;</tspan></text>
<text xml:space="preserve" transform="matrix(1 0 -0 1 0 792)" font-size="10.9091" font-family="LMRoman10"><tspan y="-686.72506" x="85.94183 94.723659 100.789119 105.0873 112.97458 119.33459 127.83277 130.8655 136.32004 141.77458 147.22913 152.08368 161.78188 164.8146 173.90189 182.98917 187.84372 193.90918 196.94191 202.39646 206.64009 211.49465 214.52738 223.92012 229.68013 232.71286 241.81105 246.6656 255.75289 260.59654 264.8729 270.32746 275.182 281.24748 286.10203 295.50569 298.5384 303.99296 313.08024 317.37843 321.62208 327.68754 333.753">mustbeloggedimmediatelyviaemergencylogstub.</tspan><tspan y="-660.42306" x="71.596 79.777828 85.53783 94.94147 99.79602 108.8833 113.737857 118.01422 123.46877 128.31241 134.38878 139.23242 148.63608 154.09062 158.94518 163.18881 166.22154 171.67609 181.37429 186.22884 191.98885 196.8434 201.69795 206.5525 212.61797 215.6507 221.71616 230.80344 235.04708 241.11254 245.96709 250.26528 258.76347 261.79618 264.8289 273.91618 276.94889 281.19255 289.12345 293.978 299.43257 305.49803 309.7962 314.03987 317.07258 321.31623 327.38169 331.62535 336.4799 344.4108 353.509 361.69084 364.72355 370.1781 373.21083 378.66539 382.90904 385.94175 391.3963 397.46177">AnyemergencyactionexceedingtheselimitsconstitutesaViolation.</tspan></text>
<text xml:space="preserve" transform="matrix(1 0 -0 1 0 792)" font-size="14.3462" font-family="LMRoman12" font-weight="bold"><tspan y="-626.05508" x="72">9</tspan></text>
<text xml:space="preserve" transform="matrix(1 0 -0 1 0 792)" font-size="14.3462" font-family="LMRoman12" font-weight="bold"><tspan y="-626.05508" x="92.185108 103.66206 111.50944 120.475818 128.99745 133.48781 142.45418 155.9109 163.75827 172.72464 187.07083 198.82038 205.99347 213.16657 221.24347 230.20984 238.71714 250.38059 262.13014 269.30323 276.47633 283.8359 290.20564">BankingandAccountAccess</tspan></text>
<text xml:space="preserve" transform="matrix(1 0 -0 1 0 792)" font-size="10.9091" font-family="LMRoman10"><tspan y="-601.70608" x="71.596 79.47237 85.53783 89.78146 95.846927 101.301479 105.57784 108.61057 112.55966 121.95239 126.19603 135.28331 140.73786 145.5924 150.44696 155.30152 159.5997 163.89789 170.56336 173.59609 179.66155 182.69428 186.93791 189.97064 195.42519 199.66883 204.52338 211.19976 216.6543 224.5634 230.01795 236.0834 242.14887 246.42523 251.57433 257.02888 265.52708 271.59254 277.0471 283.11256 288.87257 291.90528 297.97074 307.058 311.30168 315.57804 321.0326 327.09806 331.39625 336.8508 341.70536 345.949 348.98173 354.43629 360.50175 368.44358 371.4763 379.4072 383.68357 388.53813 392.8363 397.07997 401.35633 404.38905 409.2436 413.48725 418.3418 428.03999 433.49455 441.43638 444.77458 450.22914 453.26185 456.29457 461.44367 469.32005 473.61824">Authoritytoaccess,initiate,orapprovebankingtransactionsisrestrictedasfollows:</tspan></text>
<text xml:space="preserve" transform="matrix(1 0 -0 1 0 792)" font-size="10.9091" font-family="LMRoman10"><tspan y="-575.40408" x="72">&#x2022;</tspan></text>
<text xml:space="preserve" transform="matrix(1 0 -0 1 0 792)" font-size="10.9091" font-family="LMRoman10"><tspan y="-575.40408" x="85.94183 94.27638 100.34184 105.796398 108.829128 112.46185 116.76004 119.79277 125.24732 131.31278 136.76732 141.01096 147.07642 151.35279 159.84008 164.11644 168.971 174.731 180.79647 183.8292 188.10556 192.96012 202.66922 206.0074 211.46195 219.37105 224.82559 227.85832 234.52379 238.76743 243.0438 248.49834 254.5638 258.86198 264.31654 269.17109 273.41474 276.44746 281.902 287.96748 295.9093 301.0584 306.51298 311.36753 319.2766 324.73118 330.18574 333.21846 338.673 344.12757">Dual-signaturerequiredforalltransactionsover$5,000</tspan></text>
<text xml:space="preserve" transform="matrix(1 0 -0 1 0 792)" font-size="10.9091" font-family="LMRoman10"><tspan y="-553.0881" x="72">&#x2022;</tspan></text>
<text xml:space="preserve" transform="matrix(1 0 -0 1 0 792)" font-size="10.9091" font-family="LMRoman10"><tspan y="-553.0881" x="85.94183 94.12366 103.21094 106.24367 112.30913 118.37459 121.40732 127.16732 130.20005 136.2655 142.33097 147.7855 154.46189 163.54917 168.69826 178.091 184.46192 189.91646 194.1601 203.8692 206.89102 212.96739 216.00012 220.24376 223.26558 228.72013 232.96376 241.46196 246.9165 252.98197 262.68016 268.1347 274.20018 280.26564 284.542 289.6911 295.15657 303.64384 307.88749 313.95295 322.44023 326.7384 332.19297 341.28025 349.77845 354.0221 358.29847 363.75303 369.81849 374.11668 379.57124 384.42579 388.66944 391.70216 397.1567">Noindividualmaybothinitiateandapprovethesametransaction</tspan></text>
<text xml:space="preserve" transform="matrix(1 0 -0 1 0 792)" font-size="10.9091" font-family="LMRoman10"><tspan y="-530.7721" x="72">&#x2022;</tspan></text>
<text xml:space="preserve" transform="matrix(1 0 -0 1 0 792)" font-size="10.9091" font-family="LMRoman10"><tspan y="-530.7721" x="85.94183 94.50548 99.65457 105.109119 109.96367 114.240039 120.3055 123.33823 129.40369 138.50188 146.22553 151.98552 158.05098 167.44373 176.531 181.38556 190.16739 196.5383 201.39286 205.66922 213.60015 222.38198 228.44744 232.75653 240.6329 246.69837 252.15291 260.02928 266.09474 271.25474 276.7093 285.19657 291.26203 297.32749 300.3602 303.3929 308.84748 313.09114 317.94569 322.22206 327.6766 334.34205 339.7966 344.65116 349.5057 354.96028 361.02574 366.79664 374.673 379.52757 384.98213 390.74214 394.98579 399.26216 404.7167">GoverningBodymembersmustnothaveunilateralaccountcontrol</tspan><tspan y="-504.4701" x="71.596 79.47237 84.32692 89.18147 94.636028 100.701488 106.46149 114.34876 119.803318 124.65787 129.51242 134.36698 138.66516 146.59609 152.05063 156.34882 160.647 163.67974 169.13428 175.19974 184.28702 189.14157 194.90158 199.14522 207.08705 215.86888 221.93434 226.23253 234.1089 240.47982 248.97801 253.25438 258.09803 263.85804 266.89076 271.7453 279.32713 284.18168 293.87986 299.3344 305.39988 311.15989 317.22535 322.6799 325.71263 328.74534 338.149 343.60356 349.669 359.3672 365.43266 371.80357 377.25813 386.9563 391.23268 396.68724 399.71995 408.21815 412.76725 418.8327 424.28727 430.35273 435.80729 440.66184 444.96003">Accountaccessassignmentsmustbereviewedannuallyanduponrolechanges.</tspan></text>
<text xml:space="preserve" transform="matrix(1 0 -0 1 0 792)" font-size="14.3462" font-family="LMRoman12" font-weight="bold"><tspan y="-470.10209" x="72 80.07691">10</tspan></text>
<text xml:space="preserve" transform="matrix(1 0 -0 1 0 792)" font-size="14.3462" font-family="LMRoman12" font-weight="bold"><tspan y="-470.10209" x="100.26202 111.29424 117.89349 125.970409 134.93679 139.42714 148.39351 152.88387 159.1675 166.5271 180.87329 193.23972 200.59932 205.08968 212.44928 220.52619 228.37355 234.65718 239.14754 247.22444 256.19084">ProhibitedDelegations</tspan></text>
<text xml:space="preserve" transform="matrix(1 0 -0 1 0 792)" font-size="10.9091" font-family="LMRoman10"><tspan y="-445.75309" x="71.607 79.483379 85.548839 94.03611 97.3743 102.82885 105.86158 108.89431 114.05431 121.93069 124.96342 131.02887 140.11615 149.20343 154.35253 163.74527 169.82164 175.27619 183.15256 189.52347 198.01076 204.07622 208.93077 211.9635 216.81806 222.2726 227.72714 231.97078 236.82534 246.52353 252.58899 258.65446 264.7199 269.57447 277.49449 282.94905 288.70906 298.10179 302.95634 305.98905 310.2654 315.11997 321.18544 330.2727 334.5709 338.81455 344.2691 350.33457 355.18913 360.04368 364.34187">Thefollowingmaynotbedelegatedunderanycircumstances:</tspan></text>
<text xml:space="preserve" transform="matrix(1 0 -0 1 0 792)" font-size="10.9091" font-family="LMRoman10"><tspan y="-419.45109" x="72">&#x2022;</tspan></text>
<text xml:space="preserve" transform="matrix(1 0 -0 1 0 792)" font-size="10.9091" font-family="LMRoman10"><tspan y="-419.45109" x="85.53819 93.72002 102.8073 107.66185 113.72731 119.79277 128.88005 133.7346 139.49462 147.3819 152.83644 159.80736 165.2619 170.411 175.86556 180.72011 184.99648 191.06194 196.51648 202.58194 207.4365 215.9347 222.00016 227.74924 232.60379 238.66925 247.75653 252.61109 258.382 262.62565">Amendmentofgovernancedocuments</tspan></text>
<text xml:space="preserve" transform="matrix(1 0 -0 1 0 792)" font-size="10.9091" font-family="LMRoman10"><tspan y="-397.13508" x="72">&#x2022;</tspan></text>
<text xml:space="preserve" transform="matrix(1 0 -0 1 0 792)" font-size="10.9091" font-family="LMRoman10"><tspan y="-397.13508" x="85.38547 95.694568 101.14912 104.18185 109.63639 114.49094 122.40003 127.85458 134.8255 143.00733 149.0837 153.6328 159.69826 165.1528 171.21826 176.6728 181.52736 186.9819 193.04737 196.0801 204.56739 210.63285 214.90921 220.0583 225.81832 228.85105 233.14923 236.18196 241.6365 247.70197">WaiverofUnchangeableprovisions</tspan></text>
<text xml:space="preserve" transform="matrix(1 0 -0 1 0 792)" font-size="10.9091" font-family="LMRoman10"><tspan y="-374.81907" x="72">&#x2022;</tspan></text>
<text xml:space="preserve" transform="matrix(1 0 -0 1 0 792)" font-size="10.9091" font-family="LMRoman10"><tspan y="-374.81907" x="85.53819 93.72002 99.78548 105.85094 110.127307 115.2764 120.4364 125.89095 132.55641 138.01096 144.98188 153.01097 157.86553 160.89826 166.3528 170.59644 175.45099 181.51645 185.14919 192.28374 197.73828 202.01465 205.95284 215.34558 222.3165 226.59287 232.04741 238.11287 242.41106 247.8656 252.72016 256.9638 259.99653 265.45109 271.51655">ApprovalofRelated-PartyTransactions</tspan></text>
<text xml:space="preserve" transform="matrix(1 0 -0 1 0 792)" font-size="10.9091" font-family="LMRoman10"><tspan y="-352.50209" x="72">&#x2022;</tspan></text>
<text xml:space="preserve" transform="matrix(1 0 -0 1 0 792)" font-size="10.9091" font-family="LMRoman10"><tspan y="-352.50209" x="85.94183 94.429119 99.88366 104.738208 109.01457 113.29094 116.32367 122.38913 130.87642 136.33097 143.31279 147.61098 153.06552 156.4037 161.25826 165.19644 170.051 176.71646 184.28739 189.14194 192.17467 195.51285 200.96739 205.24376 210.09832 216.76378 222.21833 230.13834 236.2038 239.23653 244.69107 250.75653 253.78926 257.72746 267.12019 273.18565 277.462 282.91658 287.16023 292.01478 296.86933 301.11299 304.1457 309.60026 315.6657">Overrideofsafety,welfare,ordignityprotections</tspan></text>
<text xml:space="preserve" transform="matrix(1 0 -0 1 0 792)" font-size="14.3462" font-family="LMRoman12" font-weight="bold"><tspan y="-318.13407" x="72 80.07691">11</tspan></text>
<text xml:space="preserve" transform="matrix(1 0 -0 1 0 792)" font-size="14.3462" font-family="LMRoman12" font-weight="bold"><tspan y="-318.13407" x="100.26202 106.27307 114.78037 121.06401 128.43796 135.03722 144.00359 150.60285 157.96245 164.24608 168.73644 176.799 189.53842 201.13016 210.09653 214.58689">InterpretiveRule</tspan></text>
<text xml:space="preserve" transform="matrix(1 0 -0 1 0 792)" font-size="10.9091" font-family="LMRoman10"><tspan y="-293.78507" x="71.607 79.483379 85.548839 88.581569 96.51248 102.57794 107.13795 113.20341 118.05795 124.12341 130.18888 133.2216 141.7089 150.49073 156.55619 160.85437 168.74166 175.10166 183.59986 186.63259 192.3926 196.63623 201.49079 205.76715 211.83261 216.10898 220.96353 225.20717 230.06172 239.75992 245.82538 251.27993 255.55629 259.83265 264.98176 272.85813 275.89085 280.7454 288.62174 299.8363 305.91267 310.75633 315.03269 323.53089 328.98545 337.76728 343.83274 346.86546 352.32 358.38548 361.41819 365.35639 374.76005 379.6146 385.3746 388.39643 392.7055 396.94917 401.24736 407.91279 410.9455 416.7055 420.94917 425.8037 430.08009 436.14555 440.4219 445.27647 449.5201 454.97468 459.21833 462.25105 467.7056 477.40379 486.1965 492.26197 496.56016 504.43653 507.77473 512.92379 518.3892 523.84378 528.1092">ThisSchedulemustbeinterpretednarrowly.Whereambiguityexists,interpretationmustfavor:</tspan></text>
<text xml:space="preserve" transform="matrix(1 0 -0 1 0 792)" font-size="10.9091" font-family="LMRoman10"><tspan y="-267.48307" x="72">&#x2022;</tspan></text>
<text xml:space="preserve" transform="matrix(1 0 -0 1 0 792)" font-size="10.9091" font-family="LMRoman10"><tspan y="-267.48307" x="85.94183 90.18547 96.25093 104.73821 107.77094 112.93095 120.50186 125.356418 129.6546 137.53098 142.98552 149.05098 153.29462 159.36008 164.81462 169.09099 172.12372 176.0619 185.46556 190.32012 195.77466 201.84012 207.29467 213.36013 216.39286 224.88014 230.33469 237.3056 242.76015 247.6147 251.85834 254.89107 260.9565 266.41108">thelowestauthoritycapableofacting,</tspan></text>
<text xml:space="preserve" transform="matrix(1 0 -0 1 0 792)" font-size="10.9091" font-family="LMRoman10"><tspan y="-245.16707" x="72">&#x2022;</tspan></text>
<text xml:space="preserve" transform="matrix(1 0 -0 1 0 792)" font-size="10.9091" font-family="LMRoman10"><tspan y="-245.16707" x="85.94183 90.79639 95.094577 99.94913 105.40368 108.43641 113.89096 118.1346 121.16733 126.62188 136.32007 140.59644 146.05098 150.29462 156.36008 161.21463 169.13465 173.37828 179.44374 184.89829 194.59648 199.45104 205.21105 211.2765 216.73105 222.79651 227.0947 230.12743 235.58197 241.64743">escalationratherthanexpansion,</tspan></text>
<text xml:space="preserve" transform="matrix(1 0 -0 1 0 792)" font-size="10.9091" font-family="LMRoman10"><tspan y="-222.85108" x="72">&#x2022;</tspan></text>
<text xml:space="preserve" transform="matrix(1 0 -0 1 0 792)" font-size="10.9091" font-family="LMRoman10"><tspan y="-222.85108" x="85.94183 90.79639 93.82912 99.28367 103.581859 107.88004 110.91277 113.9455 116.97823 121.83278 127.28733 131.53098 134.5637 140.01825 149.71645 155.17099 163.11283 172.2001 182.20375 187.6583 191.90193 196.75649 201.03285 204.06558 209.52013 216.1856 224.06197 228.91652 233.16016 236.19289 241.64743 247.71289">classificationasaMaterialAction.</tspan></text>
<text xml:space="preserve" transform="matrix(1 0 -0 1 0 792)" font-size="14.3462" font-family="LMRoman12" font-weight="bold"><tspan y="-188.48308" x="72 80.07691">12</tspan></text>
<text xml:space="preserve" transform="matrix(1 0 -0 1 0 792)" font-size="14.3462" font-family="LMRoman12" font-weight="bold"><tspan y="-188.48308" x="100.26202 112.45628 125.91302 133.27262 142.23899 151.20536 164.6621 172.0217 180.54334 192.20679 200.05416 209.02053 223.36672 235.40319 242.76279 251.28443 255.77478 263.13438">AmendmentandReview</tspan></text>
<text xml:space="preserve" transform="matrix(.9899495 0 -0 1.0101526 0 792)" font-size="10.799458" font-family="LMRoman10"><tspan y="-162.48337" x="72.33399 80.131198 86.1357 89.13795 96.15759 102.162097 106.65467 112.65917 117.464939 123.46944 129.47394 132.47618 140.04662 149.04256 154.12909 162.59587 168.90276 176.47319 181.87291 190.86887 195.67462 201.67913 207.68363 212.48938 221.24774 226.64748 232.65198 235.65422 244.121 248.32199 254.32649 258.55989 263.9596 269.9641 275.36384 284.12223 289.52195 298.2911 305.64555 311.34767 315.5486 319.7712 325.17094 330.57069 334.80406 340.81935 343.8108 349.82609 355.2258 359.4484 367.91517 375.2696 379.503 385.20509 390.01084 394.8166 399.07157 406.09123 411.49095 418.4998 424.5043 429.31007 432.31233 435.31455 441.31907 446.1248 454.89396 457.8962 466.65458 470.85557 476.86006 484.43049 492.22767 497.6274 503.6319 507.8869 513.2866 516.2889 519.29116 525.2956 530.6954 534.8963 539.7021">ThisSchedulemaybeamendedonlythroughanExtraordinaryProcessasdefinedintheConsolidated</tspan></text>
<text xml:space="preserve" transform="matrix(1 0 -0 1 0 792)" font-size="10.9091" font-family="LMRoman10"><tspan y="-150.584" x="72 80.563648 85.71274 91.16728 96.021839 100.2982 106.36366 111.818218 117.883678 122.73822 131.23642 139.57097 145.32006 150.1746 156.24007 165.32735 170.1819 175.95282 180.19646">GovernanceDocument.</tspan></text>
<text xml:space="preserve" transform="matrix(.9899495 0 -0 1.0101526 0 792)" font-size="10.799458" font-family="LMRoman10"><tspan y="-128.9508" x="72.322879 80.42247 83.42472 89.46162 94.86135 103.85729 108.663059 114.66756 120.67206 129.66802 134.47377 140.17589 144.37688 151.6665 160.36006 166.36457 170.61956 177.8552 184.17288 192.01329 197.41303 203.41753 208.81726 214.82175 219.02275 223.8285 232.87845 238.56975 247.3173 251.5507 256.35646 261.15144 266.55116 270.78453 276.78904 281.59477 290.6447 296.03364 301.43339 305.63435 310.4401 316.6066 322.00633 326.81208 331.04545 335.3004 338.30268 343.7024 349.7069 354.51264 360.51716 366.68367 372.08338 378.0879 387.13783 393.1423 399.14683 405.1513 408.15357 411.15583 415.4108 421.4153 426.22105 435.2602 440.65995 443.66218 449.06193 455.0664 460.46614 464.72114 467.72337 473.72789 481.57908 487.58357 491.81694 494.81919 500.2189 507.48695 512.87588 517.68167 521.91506 526.17 529.17227 534.57199 540.5765 544.8422">Allamendmentsmustbeadoptedbyrecordedvote,versioned,andpublishedalongsidepriorversions.</tspan></text>
<text xml:space="preserve" transform="matrix(1 0 -0 1 0 792)" font-size="10.9091" font-family="LMRoman10"><tspan y="-42.112" x="303.273">4</tspan></text>
</svg>
