<svg xmlns="http://www.w3.org/2000/svg" xmlns:xlink="http://www.w3.org/1999/xlink" xmlns:inkscape="http://www.inkscape.org/namespaces/inkscape" version="1.1" width="612" height="792" viewBox="0 0 612 792">
<text xml:space="preserve" transform="matrix(1 0 -0 1 0 792)" font-size="11.9552" font-family="LMRoman12" font-weight="bold"><tspan y="-709.041" x="72 78.73078 85.46156 89.203548">19.3</tspan></text>
<text xml:space="preserve" transform="matrix(1 0 -0 1 0 792)" font-size="11.9552" font-family="LMRoman12" font-weight="bold"><tspan y="-709.041" x="106.02451 111.033748 118.12318 124.85395 131.9673 137.9449 144.48439 149.72077 153.46274 160.19351 172.14871 182.16718 188.31214 195.41353 202.88553 206.6275 212.12689 218.2599 229.47388 235.60689 242.69632 247.9327">InvocationRequirements</tspan></text>
<text xml:space="preserve" transform="matrix(1 0 -0 1 0 792)" font-size="10.9091" font-family="LMRoman10"><tspan y="-688.448" x="72 75.93819 81.69819 87.15273 92.91274 97.76729 103.22184 107.46548 110.49821 115.95276 125.66186 129.93824 134.78188 140.54189 146.61826 149.65099 153.91645 158.771 166.71283 172.16738 175.2001 181.86557 187.32012 194.29103 198.53467 204.61104 213.09833 216.43651 221.89105 224.92378 227.95652 233.1056 240.98198 244.01471 250.08017 255.53472">Invocationrequiresallofthefollowing:</tspan></text>
<text xml:space="preserve" transform="matrix(1 0 -0 1 0 792)" font-size="10.9091" font-family="LMRoman10"><tspan y="-662.147" x="72">&#x2022;</tspan></text>
<text xml:space="preserve" transform="matrix(1 0 -0 1 0 792)" font-size="10.9091" font-family="LMRoman10"><tspan y="-662.147" x="85.94183 95.02911 99.3273 105.39276 111.76368 116.618228 120.89459 129.98188 135.74187 139.08005 144.53459 148.81096 151.84369 155.78188 165.17462 170.64009 176.09464 180.33827 188.82556 194.2801 201.25102 207.31649 212.77103 220.65831 223.69104 228.5456 232.84378 240.7747 245.01834 251.0838 256.53837 266.24748 271.09114 274.12385 279.5784 285.3493 289.2875 298.68025 305.05116 309.9057 314.18208 319.03663 323.89118 329.65119 337.53849 342.99305 349.96397 354.2076 360.27308 368.76036 372.09855 378.164 381.19673 387.87309 396.4367 401.58583 407.04039 411.89494 416.1713 422.23677 425.26948 431.33494 440.4222 448.14585 453.90586 459.9713">asupermajorityvoteofnotlessthaneightypercentofthefullGoverningBody</tspan></text>
<text xml:space="preserve" transform="matrix(1 0 -0 1 0 792)" font-size="10.9091" font-family="LMRoman10"><tspan y="-639.82998" x="72">&#x2022;</tspan></text>
<text xml:space="preserve" transform="matrix(1.0099504 0 -0 .99014756 0 792)" font-size="11.017651" font-family="LMRoman10"><tspan y="-646.19668" x="84.704158 92.658908 96.97782 100.040729 104.3266 108.612468 113.51531 123.926998 126.9899 130.05281 136.17864 142.30445 145.36736 151.49317 157.002 165.6178 169.95876 176.39308 181.29593 186.19879 189.2617 192.6331 198.45043 201.51332 207.63915 217.42282 221.70868 227.83449 237.02321 241.92607 247.74338 253.25222 258.15507 266.7158 272.8416 277.16056 282.37187 288.1892 291.2521 295.59309 298.65599 304.1648 314.57649 320.0853 328.64604 331.70893 336.0499 340.4019 346.52769 351.43055 358.94459 363.23045 369.35627 378.53395 384.65977 390.16859 394.48753 407.95109 412.8539 418.36274 424.48857 428.8295 433.73237 439.85816 447.3722 452.881 459.00685 469.41853 477.37327 483.1906 493.2938 499.41963 509.21434 512.2772 517.1801 521.52108 525.862 530.7649">writtenfindingsspecifyingtheexactprovisionatissue,theharmcaused,andwhynolesser</tspan></text>
<text xml:space="preserve" transform="matrix(1 0 -0 1 0 792)" font-size="10.9091" font-family="LMRoman10"><tspan y="-626.281" x="85.94 90.21637 95.07092 104.1582 109.01276 115.07822 124.47095 127.50368 135.44551 139.7437 145.80916 148.83826 151.86736 154.89644 159.75099 162.78372 167.63828 173.39829">remedyissufficient</tspan></text>
<text xml:space="preserve" transform="matrix(1 0 -0 1 0 792)" font-size="10.9091" font-family="LMRoman10"><tspan y="-603.965" x="72">&#x2022;</tspan></text>
<text xml:space="preserve" transform="matrix(1.0089599 0 -0 .9911197 0 792)" font-size="11.006844" font-family="LMRoman10"><tspan y="-609.37649" x="85.17683 91.29663 97.416439 102.91986 109.039669 112.09956 121.26827 126.7717 132.89151 140.83844 146.34188 152.47269 158.59249 162.90718 168.1024 173.31964 178.82306 185.49321 191.31583 200.73769 209.85135 215.97116 220.28585 225.18389 228.84917 234.35259 240.4724 246.5922 250.90689 256.11314 261.62757 266.5256 276.25566 283.7513 289.56294 293.8446 298.74266 303.0573 309.17713 314.68058 321.35069 329.99107 335.19734 340.71177 345.6098 349.92448 356.04429 361.54774 367.66755 372.56559 381.07386 389.32899 393.64366 399.76347 402.82337 407.10505 412.00309 419.92799 426.0478 431.55125 437.67106 442.5691 449.23924 453.52088 459.02433 466.98225 473.10206 478.0001 481.06 484.11994 490.23976 495.1378 504.86784 507.92774 517.6577 523.7886 528.6756 533.57369">unanimousapprovalbyapre-approvedExternalGovernanceArbiterpanel(asdefinedinSec-</tspan></text>
<text xml:space="preserve" transform="matrix(1 0 -0 1 0 792)" font-size="10.9091" font-family="LMRoman10"><tspan y="-590.416" x="85.94 90.18364 93.21637 98.67092">tion</tspan></text>
<text xml:space="preserve" transform="matrix(1 0 -0 1 0 792)" font-size="10.9091" font-family="LMRoman10"><tspan y="-590.416" x="108.36911 113.82366 116.85639 122.31094">4.15</tspan></text>
<text xml:space="preserve" transform="matrix(1 0 -0 1 0 792)" font-size="10.9091" font-family="LMRoman10"><tspan y="-590.416" x="127.765499 135.65279 140.50734 145.96189 155.04917 161.40917 166.86371 171.1619 176.01645 185.72556 190.02375 195.47829 198.51102 203.36557 206.3983 215.79105 221.24559 228.2165 233.07106 236.10379 239.13652 244.59107 247.6238 253.68926 256.722 265.22019 273.402 277.67839 283.74385 286.77656 291.0202 295.87477 300.15113 308.08204 313.5366 321.4675 327.53297 332.3875 335.42024 338.45298 344.51844 349.373 359.0821 362.1148 371.813 377.87846 382.733 387.58757 391.8312 394.86393 400.31849">)composedsolelyofeligibleArbitersasdefinedinSection</tspan></text>
<text xml:space="preserve" transform="matrix(1 0 -0 1 0 792)" font-size="10.9091" font-family="LMRoman10"><tspan y="-590.416" x="410.01667 415.47123 418.50395 423.9585">4.14</tspan></text>
<text xml:space="preserve" transform="matrix(1 0 -0 1 0 792)" font-size="10.9091" font-family="LMRoman10"><tspan y="-564.114" x="72 82.00365 88.06911 92.312747 97.767299 103.832759 106.865489 109.89822 112.93095 116.869129 122.62913 130.5164 138.69823 144.76369 149.31279 155.37825 160.8328 166.89826 172.3528 177.20735 182.6619 188.72736 191.76009">Mutability:Unchangeable</tspan></text>
<text xml:space="preserve" transform="matrix(1 0 -0 1 0 792)" font-size="11.9552" font-family="LMRoman12" font-weight="bold"><tspan y="-534.905" x="72 78.73078 85.46156 89.203548">19.4</tspan></text>
<text xml:space="preserve" transform="matrix(1 0 -0 1 0 792)" font-size="11.9552" font-family="LMRoman12" font-weight="bold"><tspan y="-534.905" x="106.02451 113.49651 119.47411 126.204898 134.0475 144.66371 152.74542 156.4874 167.70137 171.44335 176.67972 183.21921 188.45558 192.19756 198.92833">ScopeLimitation</tspan></text>
<text xml:space="preserve" transform="matrix(1 0 -0 1 0 792)" font-size="10.9091" font-family="LMRoman10"><tspan y="-514.312" x="71.596 79.777828 85.53783 94.94147 104.02875 109.77785 115.84331 118.87604 121.90877 124.9415 129.79605 135.2506 139.49423 142.52696 147.9815 157.69062 163.75608 169.82154 175.887 180.74155 188.65065 192.89429 198.95975 201.99248 209.93431 215.99977 220.27614 225.73069 229.97432 235.7234 240.57796 246.0325 252.70888 261.4907 267.55616 271.85435 276.098">Anymodificationunderthisprotocolmust:</tspan></text>
<text xml:space="preserve" transform="matrix(1 0 -0 1 0 792)" font-size="10.9091" font-family="LMRoman10"><tspan y="-488.01103" x="72">&#x2022;</tspan></text>
<text xml:space="preserve" transform="matrix(1 0 -0 1 0 792)" font-size="10.9091" font-family="LMRoman10"><tspan y="-488.01103" x="85.94183 92.31275 100.800029 103.832759 106.865489 115.95277 118.9855 123.22913 128.08368 137.78188 142.08007 146.3237 150.60007 153.6328 158.48735 162.73099 165.76372 175.16738 179.41101 188.49829 192.74193 198.80739 207.29468 216.38196 219.41469 225.48015 228.51288 237.30562 243.37108 256.0911 260.6402 266.70567 272.16023 278.22569 283.68025 292.1675 298.23298 303.08753 307.94209 312.79664 317.09483 321.393 326.84757 331.12394 340.5276 344.77125 353.85853 358.1349 362.98945 372.07673 377.22584 382.6804 391.1786 395.42225 401.4877 409.97499 413.0077 419.07316 423.9277 429.6877 433.93138 436.96409 439.9968 443.02955 447.8841 457.5932 463.65867 469.11323 473.3896">belimitedstrictlytotheminimumchangenecessarytoremovetheidentifiedharm</tspan></text>
<text xml:space="preserve" transform="matrix(1 0 -0 1 0 792)" font-size="10.9091" font-family="LMRoman10"><tspan y="-465.695" x="72">&#x2022;</tspan></text>
<text xml:space="preserve" transform="matrix(1 0 -0 1 0 792)" font-size="10.9091" font-family="LMRoman10"><tspan y="-465.695" x="85.94183 92.00729 96.28366 101.138217 105.4364 110.290958 114.56732 120.021869 128.50916 133.9637 136.99643 143.6728 149.12735 153.37099 159.43645 164.291 172.2001 180.38193 186.44739 190.99649 197.06195 202.5165 208.58196 214.0365 218.89105 224.3456 230.41106 233.44379 241.94199 248.00745 252.28382 257.43293 263.19294 266.22566 270.52384 273.55656 279.0111 285.07658 293.00749 300.88386 303.91658 308.16023 314.22569 319.68025 325.7457 333.633 339.08757 342.12028 346.36393 351.21849 355.49485 360.9494 365.19306 368.22578 373.68034">preserveallotherUnchangeableprovisionswithoutalteration</tspan></text>
<text xml:space="preserve" transform="matrix(1 0 -0 1 0 792)" font-size="10.9091" font-family="LMRoman10"><tspan y="-443.37803" x="72">&#x2022;</tspan></text>
<text xml:space="preserve" transform="matrix(1 0 -0 1 0 792)" font-size="10.9091" font-family="LMRoman10"><tspan y="-443.37803" x="85.94183 90.79639 95.072757 99.92731 105.38186 109.625499 118.11277 124.17823 133.27643 139.34189 144.19644 155.70555 162.07646 167.22556 174.79648 179.65103 183.9274 188.22559 194.89105 199.16742 202.20015 207.6547 213.42562 217.66925 221.96744 228.6329 234.08745 241.99655 246.8511 252.61112 256.85478 259.88749 264.13114 267.16386 272.0184 281.10569 285.96025 291.73115 295.9748 303.9057 310.2766 315.13117 320.58573 326.04029 332.10575 341.80393 349.6803 355.74577 361.20033 369.08763 372.12034 380.05125 384.3276 389.18217 394.94218 401.00764 404.04035 408.3167 413.17127 422.86946 427.1131 436.2113 441.06587 444.09858 447.1313 456.21858 459.25129 465.31675 470.7713 475.01496 483.50224 487.74589 493.81135 502.2986 508.36408 513.8186 518.095">createnonewpowers,rights,orentitlementsbeyondwhatisrequiredtoeliminatetheharm</tspan><tspan y="-417.07704" x="72 82.00365 88.06911 92.312747 97.767299 103.832759 106.865489 109.89822 112.93095 116.869129 122.62913 130.5164 138.69823 144.76369 149.31279 155.37825 160.8328 166.89826 172.3528 177.20735 182.6619 188.72736 191.76009">Mutability:Unchangeable</tspan></text>
<text xml:space="preserve" transform="matrix(1 0 -0 1 0 792)" font-size="11.9552" font-family="LMRoman12" font-weight="bold"><tspan y="-387.86805" x="72 78.73078 85.46156 89.203548">19.5</tspan></text>
<text xml:space="preserve" transform="matrix(1 0 -0 1 0 792)" font-size="11.9552" font-family="LMRoman12" font-weight="bold"><tspan y="-387.86805" x="106.02451 111.033748 118.12318 123.35956 129.50452 135.0039 138.74588 154.44306 164.95168 171.49117 176.99056 192.68773 205.44393 209.1859 214.42227 218.16425 224.89502 231.43451 236.67089 240.41286 247.14363 259.09886 267.92179 274.0548 281.5268 288.99879 292.74076 300.21278 311.42677 321.45719 327.5902 335.0622 341.60169 345.34367">InterimHarmMitigationPendingRepair</tspan></text>
<text xml:space="preserve" transform="matrix(1.0099504 0 -0 .99014756 0 792)" font-size="11.017651" font-family="LMRoman10"><tspan y="-370.92958" x="71.290637 75.268009 82.23116 86.51703 92.642848 101.14846 108.19976 112.51868 115.58159 121.09041 126.599239 131.50209 139.41277 147.3675 153.49332 157.81223 162.71509 167.05605 173.18187 178.69069 181.7536 191.4822 194.5451 204.26267 208.54853 214.67433 217.73725 225.68099 233.184 237.50292 243.01175 247.2976 253.10391 258.00679 263.5156 270.17027 273.23316 281.1659 290.34358 295.24644 303.13508 309.26087 315.3867 323.2643 327.5502 333.67604 342.1816 350.59913 355.50196 358.55384 363.76518 373.18525 378.69407 384.8199 394.53746 402.95497 406.01786 410.35884 415.26167 418.3246 423.83338 428.17436 434.30018 438.61909 447.1137 453.548 458.45085 462.76979 465.83268 471.63899 481.35658 487.48237 492.99119 500.9349 507.06077 512.5696 520.4472 525.96707 530.86996">IftheTriggerThresholdinthisProtocolismetbuttheDelayandDisclosureperiodhasnotyet</tspan></text>
<text xml:space="preserve" transform="matrix(.9899495 0 -0 1.0101526 0 792)" font-size="10.799458" font-family="LMRoman10"><tspan y="-350.17088" x="72.73098 77.536739 80.53899 85.93872 91.943218 96.198207 101.00396 107.00846 113.22895 117.42994 123.43444 131.35045 139.82802 144.91455 150.31429 155.12004 159.35343 165.35793 168.36019 174.36469 182.86386 190.50988 196.2228 202.2273 211.02886 220.02481 225.12215 233.9237 239.32344 245.33875 249.53974 255.54424 260.94395 265.1773 268.17958 272.97453 280.8905 289.38969 293.65547 297.85646 302.079 305.08128 309.88703 314.08799 317.09025 325.9026 330.10359 334.9093 343.90528 350.21217 355.61189 359.84529 365.245 369.47837 378.2907 382.18934 387.88069 392.08164 396.8874 401.12077 404.12303 416.22923 426.1323 429.13456 433.3355 436.33778 441.7375 447.13725 451.3382 454.34046 459.74018 468.84413 473.09913 478.49885 481.5011 486.30686 489.30909 498.12144 502.32243 510.8216 516.8261 521.0595 525.86526 531.26498 536.07077 541.7729">elapsed,theGoverningBodymayauthorizeastrictlytemporaryInterimMitigationsolelytoprevent</tspan></text>
<text xml:space="preserve" transform="matrix(1 0 -0 1 0 792)" font-size="10.9091" font-family="LMRoman10"><tspan y="-340.177" x="72 76.24364 82.3091 90.79638 95.09457 101.465488 106.32004 111.17459 114.20732 117.24005 120.27278 128.76007 134.82553 140.28008 144.55644 157.28737 160.3201 166.38556 171.24011 177.00012 181.24376 184.27649 187.30922 190.34195 195.1965 204.8947 207.92743 217.63654 221.88018 227.94564 236.43292 244.3093 248.58567 251.6184 255.86203 260.10569 264.96025 274.65843 277.69114 280.72389 286.78935 292.8548 295.8875 301.95298 307.40754 311.7166">thespecificharmidentifiedinthewrittenfindings.</tspan><tspan y="-319.853" x="72 75.93819 81.69819 85.941829 90.79637 95.07274 98.10547 110.82548 120.829128 123.861858 128.1055 131.13823 136.59278 142.04732 146.29096 149.32369 154.77823 160.84369">InterimMitigation:</tspan></text>
<text xml:space="preserve" transform="matrix(1 0 -0 1 0 792)" font-size="10.9091" font-family="LMRoman10"><tspan y="-293.552" x="72">&#x2022;</tspan></text>
<text xml:space="preserve" transform="matrix(1 0 -0 1 0 792)" font-size="10.9091" font-family="LMRoman10"><tspan y="-293.552" x="85.94183 92.00729 97.7673 102.62186 110.55277 116.61823 122.072788 129.96007 135.41461 144.50189 149.34554 155.4219 161.48737 168.15283 172.45102 178.51648 182.81467 189.18558 194.04013 200.10559 206.17105 212.83652 218.29106 226.21108 233.782 239.23654 242.26927 247.72383 256.21113 261.66569 267.4257 276.82936 285.01118 291.07664 295.62574 301.6912 307.14576 313.2112 318.66578 323.52033 328.97489 335.04035 338.07307 346.56034 352.6258 356.90217 362.06217 367.82218 370.8549 375.15309 378.1858 383.64036">doesnotamend,suspend,orwaiveanyUnchangeableprovision</tspan></text>
<text xml:space="preserve" transform="matrix(1 0 -0 1 0 792)" font-size="10.9091" font-family="LMRoman10"><tspan y="-271.23503" x="72">&#x2022;</tspan></text>
<text xml:space="preserve" transform="matrix(.99146357 0 -0 1.00861 0 792)" font-size="10.815974" font-family="LMRoman10"><tspan y="-268.9196" x="86.67995 89.68678 97.61489 103.93143 108.74453 112.98439 121.9941 125.00094 129.20835 133.41576 138.22887 147.90917 153.31714 159.33081 162.33766 171.70429 175.9117 184.98628 189.22615 194.03926 200.05294 206.06662 210.87972 219.34862 223.55603 229.58054 238.04943 241.05628 247.06995 251.88306 257.59388 261.8013 264.80815 267.81498 270.8218 275.63496 285.31526 291.32893 296.7369 300.97679 313.64228 319.9696 324.78276 330.79643 336.8101 339.81694 345.8306 354.8944 359.10185 365.1155 373.59526 378.40837 381.56123 384.71409 389.5272 394.34034 398.54777 401.5546 406.96257 415.4315 421.44517 426.85316 431.06059 439.5403 444.9483 451.9246 457.33259 467.00209 472.41007 478.42375 484.4374 488.67729 493.7824 499.1904 504.0035 513.6838 521.64437 526.44668 532.4712 537.87918 540.8752">ispermittedonlytoreducetheidentifiedharmpendingtheeffectivedateofanapprovedRepair</tspan></text>
<text xml:space="preserve" transform="matrix(1 0 -0 1 0 792)" font-size="10.9091" font-family="LMRoman10"><tspan y="-248.919" x="72">&#x2022;</tspan></text>
<text xml:space="preserve" transform="matrix(1 0 -0 1 0 792)" font-size="10.9091" font-family="LMRoman10"><tspan y="-248.919" x="85.94183 94.723659 100.789119 105.0873 112.97458 119.33459 127.83277 132.07642 138.14188 146.62917 155.71645 158.74918 164.81464 167.84737 176.6292 182.69466 195.42559 200.88013 207.25104 212.09468 216.37105 221.82559 226.06923 229.10196 234.5565 240.62197 246.0765 252.75289 258.81834 263.67289 269.4329 272.4656 277.92018 282.16383 285.19654 290.6511 300.34928 306.41474 311.2693 316.12385 320.9784 325.27659 329.57478 335.02934 339.3057 348.69844 352.94209 362.04029 368.10575 372.3821 377.23667 382.69123 387.54579 393.3058 401.18217 407.2585 412.71308 416.97856">mustbetheminimumoperationaldeviationnecessarytopreventharm</tspan></text>
<text xml:space="preserve" transform="matrix(1 0 -0 1 0 792)" font-size="10.9091" font-family="LMRoman10"><tspan y="-226.60301" x="72">&#x2022;</tspan></text>
<text xml:space="preserve" transform="matrix(1 0 -0 1 0 792)" font-size="10.9091" font-family="LMRoman10"><tspan y="-226.60301" x="85.94183 94.723659 100.789119 105.0873 112.97458 119.33459 127.83277 132.07642 135.10915 144.19643 149.05098 152.68372 155.71645 158.74918 167.83646 170.86919 175.11283 179.96738 189.66558 193.90921 202.99649 209.06195 214.5165 222.40378 231.49106 236.9456 241.22197 249.70926 253.9529 260.01835 265.4729 275.17109 279.41474 285.4802 288.5129 292.78929 296.73838 306.1311 310.37477 315.8293 321.28388 329.16026 335.2257 340.3857 346.14573 354.07664 360.44755 365.3021 373.21119 378.66575 384.7312 388.97486 395.0403 400.49488 404.77125 407.80397 412.6585 418.11308 422.35673 425.38945 430.844">mustbetime-limitedtonotmorethanthirty(30)daysperauthorization</tspan></text>
<text xml:space="preserve" transform="matrix(1 0 -0 1 0 792)" font-size="10.9091" font-family="LMRoman10"><tspan y="-204.28601" x="72">&#x2022;</tspan></text>
<text xml:space="preserve" transform="matrix(1.0054849 0 -0 .9945449 0 792)" font-size="10.968936" font-family="LMRoman10"><tspan y="-205.40651" x="85.47121 94.3012 100.4109 104.73266 112.59739 119.00325 127.48223 131.78206 136.66323 142.76197 147.64315 155.26654 160.14772 169.84426 175.32874 181.42748 184.47684 193.8772 199.66883 209.0692 213.3361 219.43485 227.91382 232.23557 237.72005 246.85717 255.34714 260.8316 266.31608 270.583 279.07298 283.33988 289.4386 293.7384 298.6196 302.94136 309.04008 314.52455 317.5739 327.27046 331.57026 336.45146 342.24305 348.34178 351.39115 355.69096 360.57215 370.27964 373.63615 379.1206 387.01826 390.97804 396.78059 402.27604 408.05668 412.93785 418.42234 422.68925 425.73863 431.22309 440.93058 449.00373 453.87397 459.66557 465.77525 468.82463 473.11347 477.99467 487.1318 492.01298 497.81553 502.08244 510.013 516.11178 522.2105 528.30929 533.1904">mustberenewedonlybythesamevotethresholdrequiredforInvocationRequirementsunder</tspan></text>
<text xml:space="preserve" transform="matrix(1 0 -0 1 0 792)" font-size="10.9091" font-family="LMRoman10"><tspan y="-190.737" x="85.94 90.18364 96.2491 99.28183 107.212749 114.641849 118.91821 124.372768 128.61641 134.3764 139.23096 144.6855">thisProtocol</tspan></text>
<text xml:space="preserve" transform="matrix(1 0 -0 1 0 792)" font-size="10.9091" font-family="LMRoman10"><tspan y="-168.421" x="72">&#x2022;</tspan></text>
<text xml:space="preserve" transform="matrix(1 0 -0 1 0 792)" font-size="10.9091" font-family="LMRoman10"><tspan y="-168.421" x="85.94183 94.723659 100.789119 105.0873 112.97458 119.33459 127.83277 132.10913 136.96369 142.41825 147.2728 151.54917 155.84735 158.88008 164.94554 167.97827 176.46556 184.34194 190.4074 195.26195 199.53832 208.0256 214.09107 218.36743 223.82198 228.67653 232.92017 235.9529 240.80745 246.262 252.32746 255.36019">mustbereversiblewherepracticable</tspan></text>
<text xml:space="preserve" transform="matrix(1 0 -0 1 0 792)" font-size="10.9091" font-family="LMRoman10"><tspan y="-146.104" x="72">&#x2022;</tspan></text>
<text xml:space="preserve" transform="matrix(.9934788 0 -0 1.0065641 0 792)" font-size="10.837958" font-family="LMRoman10"><tspan y="-145.15122" x="86.50411 95.228679 101.25458 105.524738 113.40393 119.7333 128.21942 131.23238 136.65135 142.07033 147.4893 152.3122 162.00133 167.4203 175.3537 184.42507 194.36347 199.78244 203.99842 208.8213 213.0698 216.08274 221.50171 228.17789 236.0029 240.82579 245.04177 248.0547 253.47368 263.16285 270.98786 274.0008 278.21678 287.9059 293.3249 303.014 307.8369 313.55937 319.58525 322.5982 325.61119 330.43409 333.44703 341.32624 345.23875 353.36723 361.19224 368.57289 376.54963 380.46214 390.40055 394.00959 403.948 407.8605 415.68553 419.59803 428.1058 435.31306 443.13807 447.05058 455.4825 467.27424 471.52268 476.34559 481.76457 486.0347 491.45368 501.14283 505.9657 511.68815 517.71408 526.2002 531.6192 537.64517">mustbeloggedasaMaterialActionwithanexplicitINTERIM-MITIGATIONreasoncodeand</tspan></text>
<text xml:space="preserve" transform="matrix(1 0 -0 1 0 792)" font-size="10.9091" font-family="LMRoman10"><tspan y="-132.555" x="85.94 90.794559 93.827289 98.07092 103.525478 107.76911 110.80184 116.25639 125.95458 130.19823 139.29642 143.54006 149.60552 158.0928 162.39099 168.7619 173.61646 178.47101 181.50374 184.53647 187.5692 196.05649 204.08559 208.94014 215.0056 220.46015 223.49288 231.40198 234.43471 237.46744 243.5329 249.59836 252.63109 258.69654 264.1511">citationtothespecificRepairfindings</tspan><tspan y="-106.25399" x="72 75.93819 81.69819 85.941829 90.79637 95.07274 98.10547 110.82548 120.829128 123.861858 128.1055 131.13823 136.59278 142.04732 146.29096 149.32369 154.77823 164.48734 173.26917 179.33463 183.63282 191.50919 197.57465 203.02919 207.27283">InterimMitigationmustnot:</tspan></text>
<text xml:space="preserve" transform="matrix(1 0 -0 1 0 792)" font-size="10.9091" font-family="LMRoman10"><tspan y="-79.95199" x="72">&#x2022;</tspan></text>
<text xml:space="preserve" transform="matrix(1 0 -0 1 0 792)" font-size="10.9091" font-family="LMRoman10"><tspan y="-79.95199" x="85.94183 90.79639 95.072757 99.92731 105.38186 109.625499 118.11277 124.17823 129.03278 140.54189 146.9128 152.0728 159.64373 164.49828 168.77465 173.07283 179.7383 184.59285 190.35286 194.5965 197.62923 201.87287 204.9056 209.76015 218.84743 223.70198 229.46199 233.70563 238.00382 244.68019 249.53475 254.98929 264.07658 270.44749 275.29115 281.3566 285.66569 291.12025 295.3639 298.3966 303.85118 313.54936 317.8257 320.85844 326.313 332.073 336.31666 340.61485 347.28028 353.35664 358.8112 364.87666 369.17485 372.20756 378.273 387.3603 391.63667 394.66938 400.12394 405.88395 410.1276 414.42579 421.10215 426.5567 434.4658 439.92036 445.06947 450.52403 455.37858 459.65495 465.7204 471.17497 477.24043 482.09498 490.59318 496.04774 502.1132 506.35685 512.4223 517.87686 522.1532 525.1859 529.1241">createnewpowers,entitlements,compensationrights,housingrights,orgovernanceauthority</tspan></text>
<text xml:space="preserve" transform="matrix(1 0 -0 1 0 792)" font-size="10.9091" font-family="LMRoman10"><tspan y="-42.111989" x="300.54499 305.99955">52</tspan></text>
</svg>
