<svg xmlns="http://www.w3.org/2000/svg" xmlns:xlink="http://www.w3.org/1999/xlink" xmlns:inkscape="http://www.inkscape.org/namespaces/inkscape" version="1.1" width="612" height="792" viewBox="0 0 612 792">
<text xml:space="preserve" transform="matrix(1 0 -0 1 0 792)" font-size="11.9552" font-family="LMRoman12" font-weight="bold"><tspan y="-709.041" x="72 78.73078 82.47276">9.8</tspan></text>
<text xml:space="preserve" transform="matrix(1 0 -0 1 0 792)" font-size="11.9552" font-family="LMRoman12" font-weight="bold"><tspan y="-709.041" x="99.29373 108.11667 112.59987 119.33065 126.06143 137.2754 146.2418 153.7138 158.95018 164.44957 171.92157 177.89917 183.13555 190.60755 196.10694 202.64643 210.8716 217.60237 227.58496 236.4079 243.49733 250.61067 254.35265 259.85206 266.58283 274.0548 285.2688 291.40184 298.49128 303.72767 310.26716 318.49235 329.0129 335.5524 341.53 348.0695 353.56889">E-020-StructuralorEnvironmentalHazard</tspan></text>
<text xml:space="preserve" transform="matrix(1 0 -0 1 0 792)" font-size="10.9091" font-family="LMRoman10" font-weight="bold"><tspan y="-688.448" x="71.561 79.241008 84.41192 87.89192 94.16466 100.43739 106.186489 115.54649 122.51741 127.393779 133.49196 140.46288 147.43379 153.53199 158.7029 165.67382">TriggerStandard:</tspan></text>
<text xml:space="preserve" transform="matrix(1 0 -0 1 0 792)" font-size="10.9091" font-family="LMRoman10"><tspan y="-688.448" x="173.99745 182.48473 188.55019 192.84838 197.70293 201.9793 207.12839 212.58293 218.6593 221.69203 230.17932 236.24478 242.00479 247.7648 252.06299 255.09572 259.95027 265.40483 272.07026 276.9248 282.37937 288.44483 294.51029 297.543 301.78666 304.81938 310.27394 319.98304 324.8376 329.11396 333.9685 339.42308 343.66673 346.69944 352.7649 361.85218 364.8849 373.97218 383.05946 386.09217 392.15763 397.01219 402.7722 410.6595 413.6922 419.75767 423.09587 429.16133 433.43769 442.8304 447.10679 450.1395 454.43769 460.1977">Observablephysicalconditioncreatingimminentinjuryrisk.</tspan></text>
<text xml:space="preserve" transform="matrix(1 0 -0 1 0 792)" font-size="10.9091" font-family="LMRoman10" font-weight="bold"><tspan y="-668.124" x="72 80.225467 85.974559 91.14547 101.59639 105.07639 109.95276 114.829128 120.57822 131.72733 140.85825 146.4328 151.30918 154.80008 161.07282 168.04373 172.99646">PermittedActions:</tspan></text>
<text xml:space="preserve" transform="matrix(1 0 -0 1 0 792)" font-size="10.9091" font-family="LMRoman10"><tspan y="-641.823" x="72">&#x2022;</tspan></text>
<text xml:space="preserve" transform="matrix(1 0 -0 1 0 792)" font-size="10.9091" font-family="LMRoman10"><tspan y="-641.823" x="85.5491 92.52002 97.37457 106.46185 112.82186 118.27641 122.55278 128.00733 132.28369 135.31642 138.34915 147.7528 152.60736 155.64009 161.09464 165.39282 173.88011 178.12375 184.18921 192.6765 196.97469 206.06197 211.51651 214.54924 217.58197 222.43653 226.73471 234.622 240.68746 245.542 250.39656 255.2402 259.5493 263.84748 269.30204 273.5784 282.97114 288.4257 292.70207 297.5566 303.01118">Temporarilyclosethesmallestnecessaryarea.</tspan></text>
<text xml:space="preserve" transform="matrix(1 0 -0 1 0 792)" font-size="10.9091" font-family="LMRoman10"><tspan y="-619.507" x="72">&#x2022;</tspan></text>
<text xml:space="preserve" transform="matrix(1 0 -0 1 0 792)" font-size="10.9091" font-family="LMRoman10"><tspan y="-619.507" x="85.94183 93.065479 98.52003 102.818218 110.70549 116.77095 122.2255 127.08005 132.53459 136.81096 146.50916 150.80735 153.84008 159.29462 165.36008 170.81462 176.26917 184.75646 190.211 196.27646 205.98557 210.26194 215.11649 219.39286 224.8474 230.91286 235.1565 243.64379 247.88742 252.16379 257.61836 260.64744 263.6765 266.70564 271.56019">Posthazardsignageandreroutetraffic.</tspan></text>
<text xml:space="preserve" transform="matrix(1 0 -0 1 0 792)" font-size="10.9091" font-family="LMRoman10" font-weight="bold"><tspan y="-593.205" x="72 78.850917 85.12365 90.29456 97.26548 100.74548 107.7164 114.68732 120.43641 131.59642 140.72734 146.3019 151.17827 154.65827 160.931 167.90192 172.85465">ForbiddenActions:</tspan></text>
<text xml:space="preserve" transform="matrix(1 0 -0 1 0 792)" font-size="10.9091" font-family="LMRoman10"><tspan y="-566.904" x="72">&#x2022;</tspan></text>
<text xml:space="preserve" transform="matrix(1 0 -0 1 0 792)" font-size="10.9091" font-family="LMRoman10"><tspan y="-566.904" x="85.94183 93.065479 97.92003 102.196399 111.283679 116.73823 122.80369 127.65823 133.41825 141.30553 146.16008 149.19281 154.64736 158.94554 165.011 169.28737 174.14192 178.44011">Permanentclosures.</tspan></text>
<text xml:space="preserve" transform="matrix(1 0 -0 1 0 792)" font-size="10.9091" font-family="LMRoman10"><tspan y="-544.588" x="72">&#x2022;</tspan></text>
<text xml:space="preserve" transform="matrix(1 0 -0 1 0 792)" font-size="10.9091" font-family="LMRoman10"><tspan y="-544.588" x="85.94183 93.81821 99.27276 105.33822 109.636409 113.88004 118.15641 124.22187 129.07642 133.32006 136.35279 141.80733 151.50553 156.96007 164.88008 173.96736 179.71645 185.79282 188.82555 191.85828 194.891 199.74556 205.2001 209.44374 212.46556 217.9201 227.62921 235.20014 240.65468 244.93105 250.69106">Constructionormodificationwork.</tspan></text>
<text xml:space="preserve" transform="matrix(1 0 -0 1 0 792)" font-size="10.9091" font-family="LMRoman10" font-weight="bold"><tspan y="-518.286" x="72 78.97092 83.84728 90.12002 101.26912 110.33458 116.607318 123.57823 130.54915 134.02915 138.90552 142.38552 148.65825 155.62917">StopCondition:</tspan></text>
<text xml:space="preserve" transform="matrix(1 0 -0 1 0 792)" font-size="10.9091" font-family="LMRoman10"><tspan y="-518.286" x="163.96372 172.14554 177.60009 182.45464 187.90918 192.18555 201.88375 207.9492 212.80376 218.86922 223.11286 227.38922 232.84377 235.8765 238.90923 243.76378 248.61833 258.31654 263.7711 271.6911 277.14567 281.42204 286.27659 295.36387 299.64024 304.49479 310.56025 316.6257 321.48027 325.75663 330.61119 340.30937 344.60755 350.0621 353.4003 358.25486">Hazardneutralizedorarearenderedsafe.</tspan></text>
<text xml:space="preserve" transform="matrix(1 0 -0 1 0 792)" font-size="10.9091" font-family="LMRoman10" font-weight="bold"><tspan y="-497.962" x="72 83.912738 90.010929 96.63275 100.112758 110.214588 117.1855 131.8146 140.06189 146.68372 153.65464 157.13463 162.30554 168.40373 173.2801 176.7601 183.03284 190.00376">MaximumExpiration:</tspan></text>
<text xml:space="preserve" transform="matrix(1 0 -0 1 0 792)" font-size="10.9091" font-family="LMRoman10"><tspan y="-497.962" x="198.3383 204.55649 210.01103 216.07649 223.9856 228.22924 233.68378 241.56015 247.62561 253.08016 259.1456 263.42198 267.72016">Four(4)hours.</tspan></text>
<text xml:space="preserve" transform="matrix(1 0 -0 1 0 792)" font-size="11.9552" font-family="LMRoman12" font-weight="bold"><tspan y="-468.753" x="72 78.73078 82.47276">9.9</tspan></text>
<text xml:space="preserve" transform="matrix(1 0 -0 1 0 792)" font-size="11.9552" font-family="LMRoman12" font-weight="bold"><tspan y="-468.753" x="99.29373 108.11667 112.59987 119.33065 126.06143 137.2754 146.2418 156.40373 160.1457 166.87648 170.61846 176.75147 184.22347 190.20107 200.81728 210.16625 217.63825 223.13764 229.27065 235.81014 245.52971 252.26049 262.2431 272.03443 278.01203 283.2484 286.9904 293.7092 304.32545 314.48738 318.22935 323.46574 329.59877 335.09815 341.07575 347.61524 352.85163 356.5936 363.32438">E-030-ViolenceThreatorActiveAltercation</tspan></text>
<text xml:space="preserve" transform="matrix(1 0 -0 1 0 792)" font-size="10.9091" font-family="LMRoman10" font-weight="bold"><tspan y="-448.16" x="71.561 79.241008 84.41192 87.89192 94.16466 100.43739 106.186489 115.54649 122.51741 127.393779 133.49196 140.46288 147.43379 153.53199 158.7029 165.67382">TriggerStandard:</tspan></text>
<text xml:space="preserve" transform="matrix(1 0 -0 1 0 792)" font-size="10.9091" font-family="LMRoman10"><tspan y="-448.16" x="173.99745 181.87383 186.15019 191.00475 197.0702 200.10294 206.1684 209.20113 217.68842 221.93206 227.99752 232.27388 237.12844 242.58298 250.47026 255.9248 262.89573 268.65574 271.68846 277.143 280.17573 285.03028 291.09574 295.9503 300.80485 307.47029 312.92485 317.7794 322.02305 325.05577 330.5103 339.0085 345.07398 350.83399 356.594 360.89219 363.9249 368.77946 374.234 380.89945 386.354 389.38673 393.63038 398.48493 402.7613 407.61585 413.0704 417.31407 420.34678 425.80134 431.8668 438.53224 443.9868 451.9068 459.47773 464.33229 469.78684 476.15776 481.6123 491.3105 495.60868 498.6414 504.09596 509.85597 514.0996 517.1323 523.19778 528.6523">Crediblethreatofviolence,activephysicalaltercation,orweaponsighting.</tspan></text>
<text xml:space="preserve" transform="matrix(1 0 -0 1 0 792)" font-size="10.9091" font-family="LMRoman10" font-weight="bold"><tspan y="-427.837" x="72 80.225467 85.974559 91.14547 101.59639 105.07639 109.95276 114.829128 120.57822 131.72733 140.85825 146.4328 151.30918 154.80008 161.07282 168.04373 172.99646">PermittedActions:</tspan></text>
<text xml:space="preserve" transform="matrix(1 0 -0 1 0 792)" font-size="10.9091" font-family="LMRoman10"><tspan y="-401.535" x="72">&#x2022;</tspan></text>
<text xml:space="preserve" transform="matrix(1 0 -0 1 0 792)" font-size="10.9091" font-family="LMRoman10"><tspan y="-401.535" x="85.94183 93.81821 99.27276 105.03276 109.2764 114.73095 119.585498 127.47277 132.32732 141.4146 146.25824 150.5346 155.98915 160.8437 166.90917 171.76372 181.16738 185.46556 190.32012 194.59648 200.35649 203.38922 208.24378 213.09833 217.39652">Contactemergencyservices.</tspan></text>
<text xml:space="preserve" transform="matrix(1 0 -0 1 0 792)" font-size="10.9091" font-family="LMRoman10"><tspan y="-379.219" x="72">&#x2022;</tspan></text>
<text xml:space="preserve" transform="matrix(1 0 -0 1 0 792)" font-size="10.9091" font-family="LMRoman10"><tspan y="-379.219" x="85.94183 94.27638 97.30911 101.58548 106.44003 111.294589 119.17095 125.54187 130.39643 135.85097 141.91643 144.94916 153.43645 157.68009 166.77828 171.07646 176.531 179.86919 188.35648 193.21103 198.66558 204.73104 209.58559 213.88378">Directpeopletosafezones.</tspan></text>
<text xml:space="preserve" transform="matrix(1 0 -0 1 0 792)" font-size="10.9091" font-family="LMRoman10"><tspan y="-356.90299" x="72">&#x2022;</tspan></text>
<text xml:space="preserve" transform="matrix(1 0 -0 1 0 792)" font-size="10.9091" font-family="LMRoman10"><tspan y="-356.90299" x="85.5491 92.52002 97.37457 106.46185 112.82186 118.27641 122.55278 128.00733 132.28369 135.31642 138.34915 147.7528 152.02918 156.88373 161.18192 165.42555 169.70192 172.73465 177.5892 185.46558 189.76377 195.82923 201.28377 206.13832 214.62561 218.86925 227.96744 232.81108 237.08745 241.942 247.39655 251.64019 260.13838 264.43656 269.2911 275.35658 280.81114 285.0875 290.54206 294.7857 297.81843 303.27299 309.33845">Temporarilyrestrictspacetocreateseparation.</tspan></text>
<text xml:space="preserve" transform="matrix(1 0 -0 1 0 792)" font-size="10.9091" font-family="LMRoman10" font-weight="bold"><tspan y="-330.60099" x="72 78.850917 85.12365 90.29456 97.26548 100.74548 107.7164 114.68732 120.43641 131.59642 140.72734 146.3019 151.17827 154.65827 160.931 167.90192 172.85465">ForbiddenActions:</tspan></text>
<text xml:space="preserve" transform="matrix(1 0 -0 1 0 792)" font-size="10.9091" font-family="LMRoman10"><tspan y="-304.3" x="72">&#x2022;</tspan></text>
<text xml:space="preserve" transform="matrix(1 0 -0 1 0 792)" font-size="10.9091" font-family="LMRoman10"><tspan y="-304.3" x="85.94183 93.37093 99.130939 102.163669 107.01822 111.261859 114.294589 119.74914 125.8146 132.48006 138.54552 144.00006 150.06552 156.13098 159.16371 165.22917 170.68372 177.36009 182.81464 190.72374 194.96738 199.24375 204.0983 208.39649 214.46195 219.91649 224.21468 232.15651 238.22197 243.07653 247.92017 250.9529 255.262 258.2838 263.73838 269.81474 274.1129">Eviction,banning,ortrespassdecisions.</tspan></text>
<text xml:space="preserve" transform="matrix(1 0 -0 1 0 792)" font-size="10.9091" font-family="LMRoman10"><tspan y="-281.98399" x="72">&#x2022;</tspan></text>
<text xml:space="preserve" transform="matrix(1 0 -0 1 0 792)" font-size="10.9091" font-family="LMRoman10"><tspan y="-281.98399" x="85.94183 94.27638 97.30911 101.6073 106.46185 109.49458 115.56004 118.59277 121.6255 127.69096 133.14551 137.42188 146.81462 152.26917 157.12372 161.36736 164.40009 169.85463 175.92009 180.21828">Disciplinaryactions.</tspan></text>
<text xml:space="preserve" transform="matrix(1 0 -0 1 0 792)" font-size="10.9091" font-family="LMRoman10" font-weight="bold"><tspan y="-255.68198" x="72 78.97092 83.84728 90.12002 101.26912 110.33458 116.607318 123.57823 130.54915 134.02915 138.90552 142.38552 148.65825 155.62917">StopCondition:</tspan></text>
<text xml:space="preserve" transform="matrix(1 0 -0 1 0 792)" font-size="10.9091" font-family="LMRoman10"><tspan y="-255.68198" x="163.96372 170.7819 175.931 187.44011 192.29467 198.36013 201.70922 207.16376 211.42922 216.28377 221.13832 230.2256 235.08016 240.85108 248.72745 254.18199 262.0911 266.38929 271.24385 276.0984 282.16386 286.44023 289.47294 293.41114 302.8148 308.26936 314.3348 318.57847 324.64393 330.09849 334.37486 337.40757 341.34577 350.7385 356.19306 360.49125 364.78944 370.8549 379.94218 384.79673 392.73857 397.5931 403.04768 408.80769 413.05134 417.3277 422.78227 425.81498">Lawenforcementorsecurityauthorityassumescontrol.</tspan></text>
<text xml:space="preserve" transform="matrix(1 0 -0 1 0 792)" font-size="10.9091" font-family="LMRoman10" font-weight="bold"><tspan y="-235.35797" x="72 83.912738 90.010929 96.63275 100.112758 110.214588 117.1855 131.8146 140.06189 146.68372 153.65464 157.13463 162.30554 168.40373 173.2801 176.7601 183.03284 190.00376">MaximumExpiration:</tspan></text>
<text xml:space="preserve" transform="matrix(1 0 -0 1 0 792)" font-size="10.9091" font-family="LMRoman10"><tspan y="-235.35797" x="198.3383 204.55649 210.01103 216.07649 223.9856 228.22924 233.68378 241.56015 247.62561 253.08016 259.1456 263.42198 267.72016">Four(4)hours.</tspan></text>
<text xml:space="preserve" transform="matrix(1 0 -0 1 0 792)" font-size="11.9552" font-family="LMRoman12" font-weight="bold"><tspan y="-206.14897" x="72 78.73078 82.47276 89.203548">9.10</tspan></text>
<text xml:space="preserve" transform="matrix(1 0 -0 1 0 792)" font-size="11.9552" font-family="LMRoman12" font-weight="bold"><tspan y="-206.14897" x="106.02451 114.84745 119.33065 126.06143 132.7922 144.00618 152.97258 165.72878 169.47075 174.77886 180.08696 183.82894 191.30094 202.51491 212.23448 219.70648 223.44846 227.19043 239.14563 245.8764 255.859 268.6152 272.35719 277.66529 282.9734 286.71537 294.18739 305.40138 315.70677 322.43754">E-040-MissingChildorMissingDog</tspan></text>
<text xml:space="preserve" transform="matrix(1 0 -0 1 0 792)" font-size="10.9091" font-family="LMRoman10" font-weight="bold"><tspan y="-185.55597" x="71.561 79.241008 84.41192 87.89192 94.16466 100.43739 106.186489 115.54649 122.51741 127.393779 133.49196 140.46288 147.43379 153.53199 158.7029 165.67382">TriggerStandard:</tspan></text>
<text xml:space="preserve" transform="matrix(1 0 -0 1 0 792)" font-size="10.9091" font-family="LMRoman10"><tspan y="-185.55597" x="173.99745 182.02655 186.8811 193.25202 198.70656 202.98293 210.8593 216.31385 223.28476 232.37204 235.40477 239.71387 244.01206 247.04479 253.11025 262.1975 266.7466 272.81208 275.8448 278.8775 288.57569 294.03025 301.95027 308.01573 313.47029 322.55757 330.43394 333.46665 337.7103 347.4194 351.68489 356.53944 361.994 366.29219 371.74674 377.8231 383.27766 389.3431 392.37583 400.8631 405.1613 410.61585 413.95405 418.8086 422.7468 432.13954 436.99409 442.44865 448.5141 453.36866 458.2232 462.49958 468.56504">Reportofmissingchildordogwithreasonablesafetyconcern.</tspan></text>
<text xml:space="preserve" transform="matrix(1 0 -0 1 0 792)" font-size="10.9091" font-family="LMRoman10" font-weight="bold"><tspan y="-165.23297" x="72 80.225467 85.974559 91.14547 101.59639 105.07639 109.95276 114.829128 120.57822 131.72733 140.85825 146.4328 151.30918 154.80008 161.07282 168.04373 172.99646">PermittedActions:</tspan></text>
<text xml:space="preserve" transform="matrix(1 0 -0 1 0 792)" font-size="10.9091" font-family="LMRoman10"><tspan y="-138.93097" x="72">&#x2022;</tspan></text>
<text xml:space="preserve" transform="matrix(1 0 -0 1 0 792)" font-size="10.9091" font-family="LMRoman10"><tspan y="-138.93097" x="85.94183 89.88002 95.94548 98.97821 103.22185 106.25458 111.70913 115.95277 124.44004 129.89459 135.96006 142.02552 146.30188 151.46189 156.91645 161.771 171.4692 180.55648 183.5892 187.88739 192.18558 195.2183 201.28377 206.73831 210.37105 216.74196 221.59651 225.87288 230.17107 235.62561 245.3238 250.77835 258.69837 267.78565 270.81837 275.11656 279.41474 282.44746 288.5129 293.96748 297.6002 303.66566 309.1202 318.2075 323.66206 326.69477 331.54933 335.82569 343.70207 351.28388 356.73844 361.0148 366.7748 369.80754 372.84028 377.98939 385.86576">Initiateapprovedmissing-personormissing-dogalertworkflow.</tspan></text>
<text xml:space="preserve" transform="matrix(1 0 -0 1 0 792)" font-size="10.9091" font-family="LMRoman10"><tspan y="-116.61497" x="72">&#x2022;</tspan></text>
<text xml:space="preserve" transform="matrix(1 0 -0 1 0 792)" font-size="10.9091" font-family="LMRoman10"><tspan y="-116.61497" x="85.5491 92.52002 97.37457 106.46185 112.82186 118.27641 122.55278 128.00733 132.28369 135.31642 138.34915 147.7528 152.60736 158.0619 163.82192 168.06555 172.34192 177.79647 184.46193 188.76012 195.13103 199.98558 204.84014 207.87287 210.9056 213.93833 222.42562 227.28017 233.04018 236.0729 243.96019 250.32019 255.77474 258.80747 264.57838 268.82203 276.75294 284.6293 287.66203 291.90568 297.97114 303.4257 309.49116 317.36753 321.6439 326.49845 331.953 337.713 342.56758 348.02214 352.26579 355.2985 360.75306 370.46217 375.91673 382.88764 387.164 390.19673 395.65129 401.4113 405.65495 409.95314">Temporarilycontrolspecificexitpointswithoutrevocationofrights.</tspan></text>
<text xml:space="preserve" transform="matrix(1 0 -0 1 0 792)" font-size="10.9091" font-family="LMRoman10" font-weight="bold"><tspan y="-90.313968" x="72 78.850917 85.12365 90.29456 97.26548 100.74548 107.7164 114.68732 120.43641 131.59642 140.72734 146.3019 151.17827 154.65827 160.931 167.90192 172.85465">ForbiddenActions:</tspan></text>
<text xml:space="preserve" transform="matrix(1 0 -0 1 0 792)" font-size="10.9091" font-family="LMRoman10"><tspan y="-42.111967" x="300.54499 305.99955">38</tspan></text>
</svg>
