<svg xmlns="http://www.w3.org/2000/svg" xmlns:xlink="http://www.w3.org/1999/xlink" xmlns:inkscape="http://www.inkscape.org/namespaces/inkscape" version="1.1" width="612" height="792" viewBox="0 0 612 792">
<text xml:space="preserve" transform="matrix(1 0 -0 1 0 792)" font-size="10.9091" font-family="LMRoman10"><tspan y="-709.041" x="113.455 118.90955 121.94228 127.396839 130.42957 148.36412 152.3023 158.07323 162.31687 167.17142 171.44779 177.51325 182.96779 189.63326 197.06235 202.82236 208.88782 211.92055 215.85874 225.26239 230.71694 236.7824 246.48059 254.66242 260.11698 266.18244 269.81517 277.84425 282.6988 286.94245 292.397 295.42973 298.46244 303.917 308.16065 311.19337 316.64793">7.3.2InternalEquityandNon-Retaliation</tspan></text>
<text xml:space="preserve" transform="matrix(1 0 -0 1 0 792)" font-size="10.9091" font-family="LMRoman10"><tspan y="-709.041" x="329.3461 337.83338 346.32066 354.80793 363.2952 371.78248 380.26976 388.75703 397.2443 405.73158 414.21885 422.70613 431.1934 439.66975 448.157 456.6443 465.13157 473.61885 482.1061 490.59339 499.08067 507.56794 516.0552">.......................</tspan></text>
<text xml:space="preserve" transform="matrix(1 0 -0 1 0 792)" font-size="10.9091" font-family="LMRoman10"><tspan y="-709.041" x="529.2225 534.677">31</tspan></text>
<text xml:space="preserve" transform="matrix(1 0 -0 1 0 792)" font-size="10.9091" font-family="LMRoman10"><tspan y="-695.492" x="113.455 118.90955 121.94228 127.396839 130.42957 148.36412 154.5823 160.03685 166.10231 172.16777 178.23323 183.08779 190.99689 198.87326 204.3278 213.41509 219.786 224.64055 230.70601 235.0042 240.45874 244.70238 247.7351 253.18965 262.89875 268.9642 274.41877 277.75697 282.6115 288.06608 294.13154 299.5861 303.86247">7.3.3FounderCompensationSafeguard</tspan></text>
<text xml:space="preserve" transform="matrix(1 0 -0 1 0 792)" font-size="10.9091" font-family="LMRoman10"><tspan y="-695.492" x="320.85884 329.3461 337.83338 346.32066 354.80793 363.2952 371.78248 380.26976 388.75703 397.2443 405.73158 414.21885 422.70613 431.1934 439.68067 448.16795 456.6552 465.1425 473.62977 482.11705 490.6043 499.09159 507.56794 516.0552">........................</tspan></text>
<text xml:space="preserve" transform="matrix(1 0 -0 1 0 792)" font-size="10.9091" font-family="LMRoman10"><tspan y="-695.492" x="529.2225 534.677">32</tspan></text>
<text xml:space="preserve" transform="matrix(1 0 -0 1 0 792)" font-size="10.9091" font-family="LMRoman10"><tspan y="-681.943" x="113.455 118.90955 121.94228 127.396839 130.42957 148.36412 155.79322 160.06958 165.52413 171.58959 174.62232 180.68778 183.7205 187.96414 190.99687 196.45142 206.16053 211.61507 221.31327 229.18964 234.64418 243.73146 250.10237 254.95693 261.02238 265.32057 270.77513 275.01878 278.05149 283.50605 289.5715 293.20423 300.92787 306.38243 310.6806 315.53517 325.23335 332.67335 338.43336 342.677 346.94248 352.39704 357.2516 361.49525 364.52796 369.9825">7.3.4ProhibitiononCompensation-BasedExtraction</tspan></text>
<text xml:space="preserve" transform="matrix(1 0 -0 1 0 792)" font-size="10.9091" font-family="LMRoman10"><tspan y="-681.943" x="380.25889 388.74617 397.23344 405.7207 414.20799 422.69526 431.18254 439.6698 448.15708 456.64436 465.13163 473.6189 482.10618 490.59346 499.08073 507.568 516.05526">.................</tspan></text>
<text xml:space="preserve" transform="matrix(1 0 -0 1 0 792)" font-size="10.9091" font-family="LMRoman10"><tspan y="-681.943" x="529.2116 534.66616">32</tspan></text>
<text xml:space="preserve" transform="matrix(1 0 -0 1 0 792)" font-size="10.9091" font-family="LMRoman10" font-weight="bold"><tspan y="-657.484" x="72 88.363658 96.61093 103.58185 107.41094 113.68368 118.85459 124.42914 130.17824 140.62915 146.37825 153.00008 162.05464 171.18556 178.15648 183.03285 190.00377 196.2765 201.44742 204.93833 209.4656">8EnforcementAuthority</tspan></text>
<text xml:space="preserve" transform="matrix(1 0 -0 1 0 792)" font-size="10.9091" font-family="LMRoman10" font-weight="bold"><tspan y="-657.484" x="527.4441 533.7168">32</tspan></text>
<text xml:space="preserve" transform="matrix(1 0 -0 1 0 792)" font-size="10.9091" font-family="LMRoman10" font-weight="bold"><tspan y="-633.026" x="72 88.363658 96.61093 107.06185 112.81094 117.98186 124.25459 130.0037 136.97461 142.54917 153.34918 160.3201 165.89466 172.16739 179.4874 189.4256 198.84015 204.58925 210.86199 214.34198 219.29471 224.17108 229.342">9EmergencyScopeRegistry</tspan></text>
<text xml:space="preserve" transform="matrix(1 0 -0 1 0 792)" font-size="10.9091" font-family="LMRoman10" font-weight="bold"><tspan y="-633.026" x="527.4659 533.7386">33</tspan></text>
<text xml:space="preserve" transform="matrix(1 0 -0 1 0 792)" font-size="10.9091" font-family="LMRoman10"><tspan y="-619.477" x="88.364 93.81855 96.85128 113.45493 120.88403 129.97132 134.82587 139.10224 144.55678 149.41133 155.47679 160.33135 169.72409 177.61138 183.67684 187.92047 193.98593 199.44048 203.71685 206.74958 210.68776 220.0805 226.14597 232.21143 238.27689 242.57508 247.42963">9.1EmergencyAuthoritySunset</tspan></text>
<text xml:space="preserve" transform="matrix(1 0 -0 1 0 792)" font-size="10.9091" font-family="LMRoman10"><tspan y="-619.477" x="261.45875 269.946 278.4333 286.92057 295.40785 303.8951 312.3824 320.86967 329.35694 337.8442 346.33149 354.81877 363.30604 371.7933 380.28059 388.76786 397.25514 405.7424 414.22969 422.71696 431.20423 439.6915 448.17878 456.66606 465.1424 473.62968 482.11695 490.60423 499.0915 507.57878 516.06607">...............................</tspan></text>
<text xml:space="preserve" transform="matrix(1 0 -0 1 0 792)" font-size="10.9091" font-family="LMRoman10"><tspan y="-619.477" x="529.23336 534.68789">34</tspan></text>
<text xml:space="preserve" transform="matrix(1 0 -0 1 0 792)" font-size="10.9091" font-family="LMRoman10"><tspan y="-605.928" x="88.364 93.81855 96.85128 113.45493 121.33131 126.78586 132.54587 136.7895 139.82224 145.59316 151.65862 154.69135 158.62953 168.02228 175.89865 181.97502 186.21866 192.28412 197.73867 202.01503 205.04776 208.98595 218.3787 226.71324 232.7787 237.05507 240.0878 246.15326 255.24054 263.7278 269.79328 275.24784 279.5242 285.60057 298.32057 305.13874 310.5933 314.89149">9.2ContinuityAuthorityDuringQuorumLoss</tspan></text>
<text xml:space="preserve" transform="matrix(1 0 -0 1 0 792)" font-size="10.9091" font-family="LMRoman10"><tspan y="-605.928" x="329.33515 337.82243 346.3097 354.79698 363.28425 371.7715 380.2588 388.74607 397.23335 405.7206 414.2079 422.69517 431.18244 439.6697 448.15699 456.64427 465.13154 473.6188 482.10609 490.58244 499.0697 507.55699 516.04428">.......................</tspan></text>
<text xml:space="preserve" transform="matrix(1 0 -0 1 0 792)" font-size="10.9091" font-family="LMRoman10"><tspan y="-605.928" x="529.21157 534.6661">34</tspan></text>
<text xml:space="preserve" transform="matrix(1 0 -0 1 0 792)" font-size="10.9091" font-family="LMRoman10"><tspan y="-592.37899" x="88.364 93.81855 96.85128 113.45493 121.48403 126.33858 131.79312 134.82585 139.12404 143.36768 147.64405 157.03679 165.52407 171.89498 175.23316 180.0877 184.94226 192.82955 200.095 205.855 210.70955 216.1641 222.22956 228.29502 231.32775 236.78229 241.05866">9.3RegistryObjectVocabulary</tspan></text>
<text xml:space="preserve" transform="matrix(1 0 -0 1 0 792)" font-size="10.9091" font-family="LMRoman10"><tspan y="-592.37899" x="252.97139 261.45869 269.93504 278.4223 286.90959 295.39686 303.88414 312.3714 320.85868 329.34596 337.83323 346.3205 354.80778 363.29505 371.78233 380.2696 388.75688 397.24415 405.7314 414.2187 422.70597 431.19325 439.6805 448.1678 456.65507 465.14234 473.6296 482.11689 490.60417 499.09144 507.5787 516.05508">................................</tspan></text>
<text xml:space="preserve" transform="matrix(1 0 -0 1 0 792)" font-size="10.9091" font-family="LMRoman10"><tspan y="-592.37899" x="529.22238 534.6769">35</tspan></text>
<text xml:space="preserve" transform="matrix(1 0 -0 1 0 792)" font-size="10.9091" font-family="LMRoman10"><tspan y="-578.829" x="88.364 93.81855 96.85128 113.45493 120.88403 124.51676 129.97132 135.42586 144.52405 151.78952 155.7277 164.81499 173.90227 178.75682 184.82228 187.85501 193.30956 197.55319 206.04048 216.04413 220.89868 226.96414 229.99687 234.85143 240.30597 246.97144 254.40053 263.4878 268.34236 272.6187 278.07328 282.92784 288.9933 293.84785 303.2515 307.49516 315.67698 321.74244 330.8297 336.28428 342.34974">9.4E-001-ImmediateMedicalEmergency(Human)</tspan></text>
<text xml:space="preserve" transform="matrix(1 0 -0 1 0 792)" font-size="10.9091" font-family="LMRoman10"><tspan y="-578.829" x="354.79704 363.2843 371.77159 380.25886 388.74613 397.2334 405.72068 414.20796 422.69523 431.1825 439.66978 448.15705 456.64433 465.1316 473.61888 482.10615 490.5934 499.0807 507.56797 516.05526">....................</tspan></text>
<text xml:space="preserve" transform="matrix(1 0 -0 1 0 792)" font-size="10.9091" font-family="LMRoman10"><tspan y="-578.829" x="529.2116 534.66616">36</tspan></text>
<text xml:space="preserve" transform="matrix(1 0 -0 1 0 792)" font-size="10.9091" font-family="LMRoman10"><tspan y="-565.27999" x="88.364 93.81855 96.85128 113.45493 120.88403 124.51676 129.97132 135.42586 144.52405 151.78952 155.7277 164.81499 173.90227 178.75682 184.82228 187.85501 193.30956 197.55319 206.04048 216.04413 220.89868 226.96414 229.99687 234.85143 240.30597 246.97144 254.40053 263.4878 268.34236 272.6187 278.07328 282.92784 288.9933 293.84785 303.2515 307.49516 315.67698 321.74244 324.77516 333.86244 339.317 342.3497">9.5E-002-ImmediateMedicalEmergency(Animal)</tspan></text>
<text xml:space="preserve" transform="matrix(1 0 -0 1 0 792)" font-size="10.9091" font-family="LMRoman10"><tspan y="-565.27999" x="354.797 363.28428 371.77156 380.25883 388.7461 397.23338 405.72065 414.20793 422.6952 431.18247 439.66975 448.157 456.6443 465.13157 473.61885 482.1061 490.59339 499.08067 507.56794 516.0443">....................</tspan></text>
<text xml:space="preserve" transform="matrix(1 0 -0 1 0 792)" font-size="10.9091" font-family="LMRoman10"><tspan y="-565.27999" x="529.2116 534.66616">36</tspan></text>
<text xml:space="preserve" transform="matrix(1 0 -0 1 0 792)" font-size="10.9091" font-family="LMRoman10"><tspan y="-551.73098" x="88.364 93.81855 96.85128 113.45493 120.88403 124.51676 129.97132 135.42586 144.52405 151.78952 158.91316 161.94589 166.22226 171.07682 177.74228 183.80774 192.89502 198.34957 203.80413 208.65868 215.33506 220.7896 228.6987 236.12779 241.8878 247.95326 250.986 256.44056 260.73875 263.77146 269.226 278.9242 286.95329 289.986 294.28419">9.6E-010-Fire,Smoke,orExplosionRisk</tspan></text>
<text xml:space="preserve" transform="matrix(1 0 -0 1 0 792)" font-size="10.9091" font-family="LMRoman10"><tspan y="-551.73098" x="303.86238 312.34965 320.8369 329.3242 337.81147 346.29875 354.786 363.2733 371.76057 380.24784 388.7351 397.22239 405.70967 414.19694 422.6842 431.17149 439.65876 448.14604 456.6333 465.10966 473.59693 482.0842 490.57148 499.05876 507.54603 516.03329">..........................</tspan></text>
<text xml:space="preserve" transform="matrix(1 0 -0 1 0 792)" font-size="10.9091" font-family="LMRoman10"><tspan y="-551.73098" x="529.20059 534.6551">37</tspan></text>
<text xml:space="preserve" transform="matrix(1 0 -0 1 0 792)" font-size="10.9091" font-family="LMRoman10"><tspan y="-538.18197" x="88.364 93.81855 96.85128 113.45493 120.88403 124.51676 129.97132 135.42586 144.52405 151.78952 160.35317 165.80771 173.73863 180.55683 185.41138 190.86592 200.26958 205.72412 213.63323 219.69869 225.76415 230.06233 236.43325 241.2878 246.14235 250.38599 255.24054 264.93873 273.50236 278.9569">9.7E-011-GasLeakorSuspectedGas</tspan></text>
<text xml:space="preserve" transform="matrix(1 0 -0 1 0 792)" font-size="10.9091" font-family="LMRoman10"><tspan y="-538.18197" x="286.88783 295.3751 303.86238 312.34965 320.8369 329.3242 337.81147 346.29875 354.786 363.2733 371.76057 380.24784 388.7351 397.22239 405.70967 414.19694 422.6842 431.17149 439.65876 448.14604 456.6333 465.10966 473.59693 482.0842 490.57148 499.05876 507.54603 516.03329">............................</tspan></text>
<text xml:space="preserve" transform="matrix(1 0 -0 1 0 792)" font-size="10.9091" font-family="LMRoman10"><tspan y="-538.18197" x="529.20059 534.6551">37</tspan></text>
<text xml:space="preserve" transform="matrix(1 0 -0 1 0 792)" font-size="10.9091" font-family="LMRoman10"><tspan y="-524.63296" x="88.364 93.81855 96.85128 113.45493 120.88403 124.51676 129.97132 135.42586 144.52405 151.78952 157.85498 162.09862 166.37499 172.44045 177.295 181.53864 187.6041 191.88047 197.335 204.00048 209.45502 217.37503 224.80413 230.56414 236.32415 239.35688 243.63324 249.08779 255.15325 264.24055 269.0951 274.8551 279.09877 284.5533 291.21876 299.40058 304.85514 309.7097 315.16426 319.4406">9.8E-020-StructuralorEnvironmentalHazard</tspan></text>
<text xml:space="preserve" transform="matrix(1 0 -0 1 0 792)" font-size="10.9091" font-family="LMRoman10"><tspan y="-524.63296" x="329.357 337.84428 346.33155 354.81883 363.3061 371.79338 380.28065 388.7679 397.2552 405.74247 414.2188 422.7061 431.19337 439.68064 448.1679 456.65519 465.14247 473.62974 482.117 490.60429 499.09156 507.57884 516.0661">.......................</tspan></text>
<text xml:space="preserve" transform="matrix(1 0 -0 1 0 792)" font-size="10.9091" font-family="LMRoman10"><tspan y="-524.63296" x="529.2334 534.6879">38</tspan></text>
<text xml:space="preserve" transform="matrix(1 0 -0 1 0 792)" font-size="10.9091" font-family="LMRoman10"><tspan y="-511.08296" x="88.364 93.81855 96.85128 113.45493 120.88403 124.51676 129.97132 135.42586 144.52405 151.78952 159.97135 163.00408 168.45862 171.49135 176.3459 182.41136 187.26592 195.7532 203.62958 209.69504 213.9714 218.82596 224.2805 232.15688 237.61142 245.53144 253.4078 258.26237 262.506 265.53874 270.9933 279.48057 287.66239 290.6951 294.93876 299.7933 304.06968 308.92424 314.37879 318.62245 321.65516 327.1097">9.9E-030-ViolenceThreatorActiveAltercation</tspan></text>
<text xml:space="preserve" transform="matrix(1 0 -0 1 0 792)" font-size="10.9091" font-family="LMRoman10"><tspan y="-511.08296" x="337.84428 346.33155 354.81883 363.29518 371.78245 380.2697 388.757 397.24427 405.73155 414.2188 422.7061 431.19337 439.68064 448.1679 456.65519 465.14247 473.62974 482.117 490.60429 499.09156 507.57884 516.0661">......................</tspan></text>
<text xml:space="preserve" transform="matrix(1 0 -0 1 0 792)" font-size="10.9091" font-family="LMRoman10"><tspan y="-511.08296" x="529.2225 534.677">38</tspan></text>
<text xml:space="preserve" transform="matrix(1 0 -0 1 0 792)" font-size="10.9091" font-family="LMRoman10"><tspan y="-497.53395" x="88.364 93.81855 96.85128 102.30583 113.45493 120.88403 124.51676 129.97132 135.42586 144.52405 151.78952 161.79317 164.8259 169.12409 173.42227 176.455 182.52046 191.60774 199.48412 205.54958 208.5823 211.61504 221.32415 226.77869 234.68779 244.69144 247.72417 252.02236 256.32054 259.35325 265.4187 274.50599 282.84056 288.2951">9.10E-040-MissingChildorMissingDog</tspan></text>
<text xml:space="preserve" transform="matrix(1 0 -0 1 0 792)" font-size="10.9091" font-family="LMRoman10"><tspan y="-497.53395" x="303.84059 312.32786 320.81513 329.3024 337.78968 346.27696 354.76423 363.2515 371.73878 380.22605 388.71333 397.2006 405.68788 414.17515 422.6624 431.1497 439.63697 448.12425 456.6115 465.08787 473.57514 482.0624 490.54969 499.03697 507.52424 516.0115">..........................</tspan></text>
<text xml:space="preserve" transform="matrix(1 0 -0 1 0 792)" font-size="10.9091" font-family="LMRoman10"><tspan y="-497.53395" x="529.1788 534.6333">38</tspan></text>
<text xml:space="preserve" transform="matrix(1 0 -0 1 0 792)" font-size="10.9091" font-family="LMRoman10"><tspan y="-483.98493" x="88.364 93.81855 96.85128 102.30583 113.45493 120.88403 124.51676 129.97132 135.42586 144.52405 151.78952 159.97135 164.21498 167.24771 170.28044 173.31317 177.25136 186.6441 192.86229 198.31684 201.34957 204.3823 210.44776 214.72412 223.21141 231.08779 237.15325 241.42961 246.28417 251.73871 255.98235 260.83689 266.90235 269.93507 276.00053 285.09873 295.39695 300.2515 303.2842 306.6224 312.07698 316.35334 324.85154 330.3061 338.21519 344.28065 349.7352 353.0734 357.92796 361.86616">9.11E-050-UtilityFailureThreateningWelfareorSafety</tspan></text>
<text xml:space="preserve" transform="matrix(1 0 -0 1 0 792)" font-size="10.9091" font-family="LMRoman10"><tspan y="-483.98493" x="371.80436 380.29164 388.7789 397.26618 405.75346 414.24073 422.728 431.21528 439.70256 448.18983 456.6771 465.16438 473.65165 482.13893 490.61528 499.10255 507.5898 516.0771">..................</tspan></text>
<text xml:space="preserve" transform="matrix(1 0 -0 1 0 792)" font-size="10.9091" font-family="LMRoman10"><tspan y="-483.98493" x="529.2444 534.6989">39</tspan></text>
<text xml:space="preserve" transform="matrix(1 0 -0 1 0 792)" font-size="10.9091" font-family="LMRoman10"><tspan y="-470.4359" x="88.364 93.81855 96.85128 102.30583 113.45493 120.88403 124.51676 129.97132 135.42586 144.52405 151.78952 158.60771 164.06226 169.5168 174.97135 178.00408 184.06954 193.15682 199.22228 204.98229 209.28047 213.52411 218.37866 231.10959 239.59687 245.66233 249.90596 255.3605 260.81507">9.12E-090-LoggingSystemOutage</tspan></text>
<text xml:space="preserve" transform="matrix(1 0 -0 1 0 792)" font-size="10.9091" font-family="LMRoman10"><tspan y="-470.4359" x="269.90235 278.38963 286.8769 295.36418 303.85145 312.3387 320.826 329.31327 337.80055 346.2878 354.7751 363.26237 371.74964 380.2369 388.72419 397.21147 405.69874 414.186 422.67329 431.16056 439.64784 448.1351 456.62239 465.09873 473.586 482.07328 490.56056 499.04783 507.5351 516.02236">..............................</tspan></text>
<text xml:space="preserve" transform="matrix(1 0 -0 1 0 792)" font-size="10.9091" font-family="LMRoman10"><tspan y="-470.4359" x="529.18966 534.64419">39</tspan></text>
<text xml:space="preserve" transform="matrix(1 0 -0 1 0 792)" font-size="10.9091" font-family="LMRoman10" font-weight="bold"><tspan y="-445.9779" x="72 78.272739 88.363658 97.789119 105.10912 110.858219 116.02913 122.12732 127.003688 130.48369 136.75643 143.72734 152.85826 158.95645 165.92737 177.08737 189.0001 195.0983 201.72013 208.69104 214.78923 218.26923">10OperationsandManuals</tspan></text>
<text xml:space="preserve" transform="matrix(1 0 -0 1 0 792)" font-size="10.9091" font-family="LMRoman10" font-weight="bold"><tspan y="-445.9779" x="527.4658 533.7385">40</tspan></text>
<text xml:space="preserve" transform="matrix(1 0 -0 1 0 792)" font-size="10.9091" font-family="LMRoman10" font-weight="bold"><tspan y="-421.51893" x="72 78.272739 87.88366 97.36367 102.3164 107.26913 113.01822 117.894588 122.84731 130.51642 138.06552 144.16371 151.13463 158.10555 165.76374 171.86193 178.83284 189.98195 199.60378 203.08377 208.0365 212.98923 219.26197 222.74196 229.71288 234.58925 238.08016 244.35289">11Assets,Land,andDissolution</tspan></text>
<text xml:space="preserve" transform="matrix(1 0 -0 1 0 792)" font-size="10.9091" font-family="LMRoman10" font-weight="bold"><tspan y="-421.51893" x="527.45498 533.72769">40</tspan></text>
<text xml:space="preserve" transform="matrix(1 0 -0 1 0 792)" font-size="10.9091" font-family="LMRoman10"><tspan y="-407.9699" x="88.364 93.81855 99.2731 102.30583 113.0513 121.23312 125.53131 129.8295 134.68405 142.57134 148.6368 152.88043 157.73499 165.30591 170.76045 175.03682 181.10228 185.40047 191.46593 194.49866">11.1AssetStewardship</tspan></text>
<text xml:space="preserve" transform="matrix(1 0 -0 1 0 792)" font-size="10.9091" font-family="LMRoman10"><tspan y="-407.9699" x="210.51322 219.00049 227.48777 235.97504 244.46231 252.94959 261.43687 269.9132 278.40049 286.88777 295.37504 303.8623 312.34959 320.83686 329.32414 337.8114 346.29869 354.78596 363.27323 371.7605 380.24778 388.73506 397.22233 405.7096 414.19688 422.68415 431.17143 439.6587 448.14598 456.63325 465.1205 473.6078 482.09507 490.58235 499.0696 507.5569 516.03329">.....................................</tspan></text>
<text xml:space="preserve" transform="matrix(1 0 -0 1 0 792)" font-size="10.9091" font-family="LMRoman10"><tspan y="-407.9699" x="529.20059 534.6551">40</tspan></text>
<text xml:space="preserve" transform="matrix(1 0 -0 1 0 792)" font-size="10.9091" font-family="LMRoman10"><tspan y="-394.4209" x="88.364 93.81855 99.2731 102.30583 113.45493 120.27312 125.72767 131.79312 141.50223 149.68405 153.98224">11.2LandUse</tspan></text>
<text xml:space="preserve" transform="matrix(1 0 -0 1 0 792)" font-size="10.9091" font-family="LMRoman10"><tspan y="-394.4209" x="168.0768 176.56407 185.05135 193.53862 202.0259 210.51317 218.98954 227.4768 235.96408 244.45136 252.93863 261.4259 269.91319 278.40046 286.88774 295.375 303.86228 312.34956 320.83683 329.3241 337.81138 346.29866 354.78593 363.2732 371.76048 380.24775 388.73503 397.2223 405.70957 414.19685 422.6841 431.1714 439.65867 448.14595 456.6332 465.10957 473.59684 482.0841 490.57139 499.05867 507.54594 516.0332">..........................................</tspan></text>
<text xml:space="preserve" transform="matrix(1 0 -0 1 0 792)" font-size="10.9091" font-family="LMRoman10"><tspan y="-394.4209" x="529.2005 534.655">40</tspan></text>
<text xml:space="preserve" transform="matrix(1 0 -0 1 0 792)" font-size="10.9091" font-family="LMRoman10"><tspan y="-380.8719" x="88.364 93.81855 99.2731 102.30583 113.45493 121.78949 124.82222 129.1204 133.4186 138.87314 141.90587 147.97133 152.21497 155.2477 160.70224">11.3Dissolution</tspan></text>
<text xml:space="preserve" transform="matrix(1 0 -0 1 0 792)" font-size="10.9091" font-family="LMRoman10"><tspan y="-380.8719" x="176.55316 185.04044 193.52771 202.01499 210.50226 218.98954 227.4768 235.96408 244.45136 252.93863 261.4259 269.91319 278.40046 286.88774 295.375 303.86228 312.34956 320.83683 329.3241 337.81138 346.29866 354.78593 363.2732 371.76048 380.24775 388.7241 397.21138 405.69865 414.1859 422.6732 431.16047 439.64775 448.135 456.62229 465.10957 473.59684 482.0841 490.57139 499.05867 507.54594 516.0332">.........................................</tspan></text>
<text xml:space="preserve" transform="matrix(1 0 -0 1 0 792)" font-size="10.9091" font-family="LMRoman10"><tspan y="-380.8719" x="529.1896 534.6441">40</tspan></text>
<text xml:space="preserve" transform="matrix(1 0 -0 1 0 792)" font-size="10.9091" font-family="LMRoman10" font-weight="bold"><tspan y="-356.4129" x="72 78.272739 87.92729 95.6073 100.77821 106.8764 113.84732 118.80005 125.770969 131.86916 137.04007 142.78917 149.76009 155.33464 166.13466 172.23285 179.20377 190.36377 199.78923 206.06197 211.81107 216.98198 222.1529 225.63289 232.6038 238.3529">12TransparencyandOverrides</tspan></text>
<text xml:space="preserve" transform="matrix(1 0 -0 1 0 792)" font-size="10.9091" font-family="LMRoman10" font-weight="bold"><tspan y="-356.4129" x="527.4768 533.7495">40</tspan></text>
<text xml:space="preserve" transform="matrix(1 0 -0 1 0 792)" font-size="10.9091" font-family="LMRoman10"><tspan y="-342.8639" x="88.364 93.81855 99.2731 102.30583 113.45493 123.45858 128.91313 133.15677 138.01132 142.28769 145.32042 150.77497 157.44043 165.32772 170.18227 174.4259 177.45864 182.91318 188.97864">12.1MaterialActions</tspan></text>
<text xml:space="preserve" transform="matrix(1 0 -0 1 0 792)" font-size="10.9091" font-family="LMRoman10"><tspan y="-342.8639" x="202.02593 210.5132 219.00048 227.48775 235.97502 244.4623 252.94957 261.43687 269.92414 278.4114 286.89869 295.38597 303.87324 312.3605 320.84779 329.33506 337.82234 346.3096 354.79689 363.28416 371.7605 380.24778 388.73506 397.22233 405.7096 414.19688 422.68415 431.17143 439.6587 448.14598 456.63325 465.1205 473.6078 482.09507 490.58235 499.0696 507.5569 516.0441">......................................</tspan></text>
<text xml:space="preserve" transform="matrix(1 0 -0 1 0 792)" font-size="10.9091" font-family="LMRoman10"><tspan y="-342.8639" x="529.2005 534.655">40</tspan></text>
<text xml:space="preserve" transform="matrix(1 0 -0 1 0 792)" font-size="10.9091" font-family="LMRoman10"><tspan y="-329.31489" x="88.364 93.81855 99.2731 102.30583 113.45493 123.45858 128.91313 133.15677 138.01132 142.28769 145.32042 150.77497 153.8077 156.84043 160.77861 170.18227 178.05864 184.1241 189.57865 192.61138 195.6441 200.49866 206.56412 212.01866 220.50595 227.93505 232.21141 237.66596 241.90959 247.66959 252.52414 257.9787">12.2MaterialityChallengeProtocol</tspan></text>
<text xml:space="preserve" transform="matrix(1 0 -0 1 0 792)" font-size="10.9091" font-family="LMRoman10"><tspan y="-329.31489" x="269.94596 278.43324 286.9205 295.40779 303.89506 312.38233 320.85868 329.34596 337.83323 346.3205 354.80778 363.29505 371.78233 380.2696 388.75688 397.24415 405.7314 414.2187 422.70597 431.19325 439.6805 448.1678 456.65507 465.14234 473.6296 482.11689 490.60417 499.09144 507.5787 516.066">..............................</tspan></text>
<text xml:space="preserve" transform="matrix(1 0 -0 1 0 792)" font-size="10.9091" font-family="LMRoman10"><tspan y="-329.31489" x="529.22238 534.6769">41</tspan></text>
<text xml:space="preserve" transform="matrix(1 0 -0 1 0 792)" font-size="10.9091" font-family="LMRoman10"><tspan y="-315.76588" x="88.364 93.81855 99.2731 102.30583 113.06221 120.03313 124.88768 133.97496 140.34587 145.80042 150.07678 155.53133 159.8077 169.20044 177.07682 182.53136 185.56409 188.59682 193.45137 198.30593 202.54956 205.58229 211.03685 219.52414 227.70597 233.1605 237.43688 243.50234 247.80052 253.86598 256.8987 266.60783 274.4842 279.6333 285.08787 289.9424 296.00788 301.46244 307.22245">12.3TemporaryCollectiveHardshipCovenant</tspan></text>
<text xml:space="preserve" transform="matrix(1 0 -0 1 0 792)" font-size="10.9091" font-family="LMRoman10"><tspan y="-315.76588" x="320.85884 329.3461 337.83338 346.32066 354.80793 363.2952 371.78248 380.26976 388.75703 397.2443 405.73158 414.21885 422.70613 431.1934 439.68067 448.16795 456.6552 465.13157 473.61885 482.1061 490.59339 499.08067 507.56794 516.0552">........................</tspan></text>
<text xml:space="preserve" transform="matrix(1 0 -0 1 0 792)" font-size="10.9091" font-family="LMRoman10"><tspan y="-315.76588" x="529.2225 534.677">41</tspan></text>
<text xml:space="preserve" transform="matrix(1 0 -0 1 0 792)" font-size="10.9091" font-family="LMRoman10" font-weight="bold"><tspan y="-291.30787" x="72 78.272739 88.363658 96.93821 102.10912 108.38186 113.258228 119.00732 124.58186 129.45824 135.20734 146.35645 155.771 161.5201 166.47283 169.95282 176.92374 182.67284 189.29467 194.17104 197.65103 203.74922 211.4183 220.48377 226.7565 233.37833 238.2547 241.7347 248.35652 255.32744 258.80744 263.33473">13ProtectedResidentialContinuity</tspan></text>
<text xml:space="preserve" transform="matrix(1 0 -0 1 0 792)" font-size="10.9091" font-family="LMRoman10" font-weight="bold"><tspan y="-291.30787" x="527.44406 533.71676">42</tspan></text>
<text xml:space="preserve" transform="matrix(1 0 -0 1 0 792)" font-size="10.9091" font-family="LMRoman10"><tspan y="-277.75788" x="88.364 93.81855 99.2731 102.30583 113.45493 119.67312 125.12767 131.19313 137.25859 143.32405 148.1786 156.0877 163.96408 169.41863 175.17864 179.42227 182.455 188.22592 194.29138 197.32411 201.2623 210.65505 218.68415 223.5387 227.83689 230.86962 236.93508 241.78963 247.85509 252.70964">13.1FounderContinuityResidence</tspan></text>
<text xml:space="preserve" transform="matrix(1 0 -0 1 0 792)" font-size="10.9091" font-family="LMRoman10"><tspan y="-277.75788" x="261.46965 269.9569 278.44419 286.93147 295.41874 303.906 312.39329 320.88056 329.36784 337.8551 346.34239 354.82966 363.31694 371.8042 380.29148 388.77876 397.26603 405.7533 414.24058 422.72785 431.21513 439.7024 448.18968 456.67695 465.1533 473.64057 482.12785 490.6151 499.1024 507.58967 516.0769">...............................</tspan></text>
<text xml:space="preserve" transform="matrix(1 0 -0 1 0 792)" font-size="10.9091" font-family="LMRoman10"><tspan y="-277.75788" x="529.2442 534.6987">42</tspan></text>
<text xml:space="preserve" transform="matrix(1 0 -0 1 0 792)" font-size="10.9091" font-family="LMRoman10"><tspan y="-264.20887" x="88.364 93.81855 99.2731 102.30583 113.45493 120.578578 125.43312 129.70949 132.74222 138.50222 144.56768 147.6004 156.08769 164.11679 168.97135 174.73136 177.76409 182.61864">13.2PeriodicReview</tspan></text>
<text xml:space="preserve" transform="matrix(1 0 -0 1 0 792)" font-size="10.9091" font-family="LMRoman10"><tspan y="-264.20887" x="193.56047 202.04775 210.53502 219.0223 227.50957 235.99684 244.4732 252.96048 261.44776 269.93504 278.4223 286.90959 295.39686 303.88414 312.3714 320.85868 329.34596 337.83323 346.3205 354.80778 363.29505 371.78233 380.2696 388.75688 397.24415 405.7314 414.2187 422.70597 431.19325 439.6805 448.1678 456.65507 465.14234 473.6296 482.11689 490.59324 499.0805 507.56779 516.05508">.......................................</tspan></text>
<text xml:space="preserve" transform="matrix(1 0 -0 1 0 792)" font-size="10.9091" font-family="LMRoman10"><tspan y="-264.20887" x="529.22238 534.6769">42</tspan></text>
<text xml:space="preserve" transform="matrix(1 0 -0 1 0 792)" font-size="10.9091" font-family="LMRoman10"><tspan y="-250.65987" x="88.364 93.81855 99.2731 102.30583 113.45493 119.52039 125.58585 129.86222 135.62223 138.65496 144.10951 149.56406 157.48407 165.97135 170.8259 175.68045 181.74591 187.81137 193.26592 199.33138 204.18593 213.57868 220.54959 224.82596 230.2805 236.34597 240.64415 243.67688 247.92052 250.95325 256.4078">13.3SurvivorOccupancyTransition</tspan></text>
<text xml:space="preserve" transform="matrix(1 0 -0 1 0 792)" font-size="10.9091" font-family="LMRoman10"><tspan y="-250.65987" x="269.9569 278.44419 286.92054 295.4078 303.89509 312.38236 320.86964 329.3569 337.84419 346.33146 354.81874 363.306 371.79328 380.28056 388.76783 397.2551 405.74238 414.22966 422.71693 431.2042 439.69148 448.17875 456.66603 465.1533 473.64057 482.12785 490.6151 499.1024 507.58967 516.0769">..............................</tspan></text>
<text xml:space="preserve" transform="matrix(1 0 -0 1 0 792)" font-size="10.9091" font-family="LMRoman10"><tspan y="-250.65987" x="529.2333 534.6878">43</tspan></text>
<text xml:space="preserve" transform="matrix(1 0 -0 1 0 792)" font-size="10.9091" font-family="LMRoman10"><tspan y="-237.11087" x="88.364 93.81855 99.2731 102.30583 113.45493 119.52039 124.37494 128.6513 134.41132 137.44405 142.2986 147.15316 150.78589 158.50954 163.96408 168.26227 173.11682 182.81502 191.30229 196.15685 201.0114 207.07686 213.14232 218.59687 224.66233 229.51688">13.4Service-BasedOccupancy</tspan></text>
<text xml:space="preserve" transform="matrix(1 0 -0 1 0 792)" font-size="10.9091" font-family="LMRoman10"><tspan y="-237.11087" x="244.49507 252.98235 261.46965 269.94599 278.43327 286.92054 295.4078 303.89509 312.38236 320.86964 329.3569 337.84419 346.33146 354.81874 363.306 371.79328 380.28056 388.76783 397.2551 405.74238 414.22966 422.71693 431.2042 439.69148 448.17875 456.66603 465.1533 473.64057 482.12785 490.6151 499.1024 507.58967 516.06607">.................................</tspan></text>
<text xml:space="preserve" transform="matrix(1 0 -0 1 0 792)" font-size="10.9091" font-family="LMRoman10"><tspan y="-237.11087" x="529.23336 534.68789">43</tspan></text>
<text xml:space="preserve" transform="matrix(1 0 -0 1 0 792)" font-size="10.9091" font-family="LMRoman10"><tspan y="-223.56188" x="88.364 93.81855 99.2731 102.30583 113.45493 121.63676 127.09131 133.15677 136.7895 144.2186 149.9786 156.04407 161.49861 167.56407 171.86226 174.89499 180.34954 190.05864 195.51319 201.57865 211.27684 219.45867 225.21868 229.46231 232.49504 236.13869 243.56778 247.84415 252.68779 257.54234 262.39689 268.46235 273.3169 279.0878 286.96418 294.6878 300.75328 303.78599">13.5Non-ExpansionandAnti-PrecedentRule</tspan></text>
<text xml:space="preserve" transform="matrix(1 0 -0 1 0 792)" font-size="10.9091" font-family="LMRoman10"><tspan y="-223.56188" x="312.39326 320.88053 329.3678 337.85508 346.34236 354.82963 363.3169 371.80418 380.29145 388.77873 397.266 405.75328 414.24055 422.7278 431.2151 439.70237 448.18965 456.6769 465.16419 473.65147 482.13874 490.626 499.11329 507.60057 516.0769">.........................</tspan></text>
<text xml:space="preserve" transform="matrix(1 0 -0 1 0 792)" font-size="10.9091" font-family="LMRoman10"><tspan y="-223.56188" x="529.2442 534.6987">43</tspan></text>
<text xml:space="preserve" transform="matrix(1 0 -0 1 0 792)" font-size="10.9091" font-family="LMRoman10"><tspan y="-210.01187" x="88.364 93.81855 99.2731 102.30583 113.0513 121.23312 127.298587 133.36405 137.66223 146.16043 154.49498 157.52771 161.8259 167.5859 173.65137 179.10591 182.13864 185.17137 188.2041 191.23683 196.09139 201.54593 205.78957 208.8223 214.27684">13.6AbuseDisqualification</tspan></text>
<text xml:space="preserve" transform="matrix(1 0 -0 1 0 792)" font-size="10.9091" font-family="LMRoman10"><tspan y="-210.01187" x="227.49868 235.98595 244.47322 252.9605 261.44779 269.93507 278.42234 286.9096 295.39689 303.88417 312.37144 320.84779 329.33506 337.82234 346.3096 354.79689 363.28416 371.77143 380.2587 388.74598 397.23326 405.72053 414.2078 422.69508 431.18235 439.66963 448.1569 456.64418 465.13145 473.6187 482.106 490.59327 499.08055 507.5678 516.05508">...................................</tspan></text>
<text xml:space="preserve" transform="matrix(1 0 -0 1 0 792)" font-size="10.9091" font-family="LMRoman10"><tspan y="-210.01187" x="529.2114 534.66598">43</tspan></text>
<text xml:space="preserve" transform="matrix(1 0 -0 1 0 792)" font-size="10.9091" font-family="LMRoman10" font-weight="bold"><tspan y="-185.55387" x="72 78.272739 87.88366 97.36367 107.81459 113.56368 120.5346 127.505519 137.95644 143.70554 150.32736 159.39282 165.49102 172.46193 183.61104 195.52378 202.49469 207.37107 213.46926 220.44017 223.92017 227.40016 230.88016 235.40744 246.21836 255.28382 262.25474 265.73475 271.48384">14AmendmentandMutabilityRules</tspan></text>
<text xml:space="preserve" transform="matrix(1 0 -0 1 0 792)" font-size="10.9091" font-family="LMRoman10" font-weight="bold"><tspan y="-185.55387" x="527.44406 533.71676">44</tspan></text>
<text xml:space="preserve" transform="matrix(1 0 -0 1 0 792)" font-size="10.9091" font-family="LMRoman10"><tspan y="-172.00487" x="88.364 93.81855 99.2731 102.30583 113.45493 119.67312 125.12767 131.19313 137.25859 143.32405 148.7786 153.02223 156.05496 161.5095 167.57497 173.02951 179.69498 187.12407 193.18953 198.64408 202.94226 211.44046 219.92774 226.29865 231.1532 235.41866 240.8732 246.94957 249.9823 253.00412 256.03684 259.98594">14.1FoundationalPhaseOperability</tspan></text>
<text xml:space="preserve" transform="matrix(1 0 -0 1 0 792)" font-size="10.9091" font-family="LMRoman10"><tspan y="-172.00487" x="269.94596 278.43324 286.9205 295.40779 303.89506 312.38233 320.8696 329.35688 337.84416 346.33143 354.8187 363.30598 371.79325 380.28053 388.7678 397.25508 405.74235 414.2296 422.7169 431.20417 439.69145 448.1787 456.666 465.15327 473.64054 482.1278 490.61509 499.10237 507.58964 516.066">..............................</tspan></text>
<text xml:space="preserve" transform="matrix(1 0 -0 1 0 792)" font-size="10.9091" font-family="LMRoman10"><tspan y="-172.00487" x="529.2333 534.6878">44</tspan></text>
<text xml:space="preserve" transform="matrix(1 0 -0 1 0 792)" font-size="10.9091" font-family="LMRoman10" font-weight="bold"><tspan y="-147.54688" x="72 78.272739 88.363658 93.120029 99.74185 104.61822 110.36731 115.53822 122.50914 127.68005 133.42916 138.30553 144.40372 149.28009 152.76009 159.03282">15Interpretation</tspan></text>
<text xml:space="preserve" transform="matrix(1 0 -0 1 0 792)" font-size="10.9091" font-family="LMRoman10" font-weight="bold"><tspan y="-147.54688" x="527.45498 533.72769">45</tspan></text>
<text xml:space="preserve" transform="matrix(1 0 -0 1 0 792)" font-size="10.9091" font-family="LMRoman10"><tspan y="-133.99687" x="88.36395 93.818508 99.273059 102.305789 113.45489 117.393077 123.153079 127.39671 132.25127 136.52764 142.5931 146.86946 151.72402 155.96765 161.4222 165.66584 168.69857 174.1531 183.86222 191.73859 194.77132 199.62587 203.2586 210.98226 215.25862 220.11318 225.56772 234.96047 242.38956 246.66593 252.12047 256.3641 262.1241 266.97868 272.43324">15.1InterpretationTie-BreakProtocol</tspan></text>
<text xml:space="preserve" transform="matrix(1 0 -0 1 0 792)" font-size="10.9091" font-family="LMRoman10"><tspan y="-133.99687" x="278.43324 286.9205 295.39686 303.88414 312.3714 320.85868 329.34596 337.83323 346.3205 354.80778 363.29505 371.78233 380.2696 388.75688 397.24415 405.7314 414.2187 422.70597 431.19325 439.6805 448.1678 456.65507 465.14234 473.6296 482.11689 490.60417 499.09144 507.5787 516.066">.............................</tspan></text>
<text xml:space="preserve" transform="matrix(1 0 -0 1 0 792)" font-size="10.9091" font-family="LMRoman10"><tspan y="-133.99687" x="529.22238 534.6769">45</tspan></text>
<text xml:space="preserve" transform="matrix(1 0 -0 1 0 792)" font-size="10.9091" font-family="LMRoman10"><tspan y="-120.447879" x="88.36395 93.818508 99.273059 102.305789 113.45489 120.88399 126.33854 130.6149 133.64763 139.40764 143.04038 149.10584 153.34947 158.80402 164.25856 172.75676 181.3204 186.4695 191.92406 196.77861 201.05498 207.12044 212.57498 218.64044 223.495 231.98229 239.41138 243.68775 246.72048 252.78594 257.64048 260.6732 266.73866 269.77137">15.2Early-StageGovernancePrinciple</tspan></text>
<text xml:space="preserve" transform="matrix(1 0 -0 1 0 792)" font-size="10.9091" font-family="LMRoman10"><tspan y="-120.447879" x="278.45503 286.9423 295.42958 303.91685 312.4041 320.8914 329.37867 337.86595 346.3532 354.84049 363.32777 371.81504 380.3023 388.78959 397.27687 405.76414 414.2514 422.73869 431.22596 439.71324 448.2005 456.68778 465.16413 473.6514 482.13868 490.62596 499.11323 507.6005 516.08779">.............................</tspan></text>
<text xml:space="preserve" transform="matrix(1 0 -0 1 0 792)" font-size="10.9091" font-family="LMRoman10"><tspan y="-120.447879" x="529.25509 534.7096">46</tspan></text>
<text xml:space="preserve" transform="matrix(1 0 -0 1 0 792)" font-size="10.9091" font-family="LMRoman10" font-weight="bold"><tspan y="-95.989879" x="71.999958 78.27269 88.36361 95.21452 101.31271 104.79272 108.27272 115.24364 120.41455 130.35274 140.17093 146.26912 153.24004 160.21096 163.69095 167.17095 174.14186">16FailureHandling</tspan></text>
<text xml:space="preserve" transform="matrix(1 0 -0 1 0 792)" font-size="10.9091" font-family="LMRoman10" font-weight="bold"><tspan y="-95.989879" x="527.4549 533.7276">46</tspan></text>
<text xml:space="preserve" transform="matrix(1 0 -0 1 0 792)" font-size="10.9091" font-family="LMRoman10"><tspan y="-42.111879" x="303.27296">3</tspan></text>
</svg>
