<svg xmlns="http://www.w3.org/2000/svg" xmlns:xlink="http://www.w3.org/1999/xlink" xmlns:inkscape="http://www.inkscape.org/namespaces/inkscape" version="1.1" width="612" height="792" viewBox="0 0 612 792">
<text xml:space="preserve" transform="matrix(1 0 -0 1 0 792)" font-size="10.9091" font-family="LMRoman10"><tspan y="-709.041" x="72 82.00365 88.06911 92.312747 97.767299 103.832759 106.865489 109.89822 112.93095 116.869129 122.62913 130.5164 138.69823 144.76369 149.31279 155.37825 160.8328 166.89826 172.3528 177.20735 182.6619 188.72736 191.76009">Mutability:Unchangeable</tspan></text>
<text xml:space="preserve" transform="matrix(1 0 -0 1 0 792)" font-size="14.3462" font-family="LMRoman12" font-weight="bold"><tspan y="-674.67306" x="72 80.07691">10</tspan></text>
<text xml:space="preserve" transform="matrix(1 0 -0 1 0 792)" font-size="14.3462" font-family="LMRoman12" font-weight="bold"><tspan y="-674.67306" x="100.26202 112.38455 121.79566 129.15526 135.75452 143.60189 149.88552 154.37587 162.45278 171.41915 183.16869 191.01605 199.98242 214.32862 229.63602 237.48339 246.00502 254.97139 262.81877 267.3091">OperationsandManuals</tspan></text>
<text xml:space="preserve" transform="matrix(1 0 -0 1 0 792)" font-size="10.9091" font-family="LMRoman10"><tspan y="-650.32308" x="72 80.48728 86.8582 91.71275 95.98912 101.44367 105.68731 108.72004 114.17459 120.24005 125.6946 132.36006 141.44734 146.90189 152.6619 158.72736 164.1819 167.21463 171.51282">Operationalmanuals:</tspan></text>
<text xml:space="preserve" transform="matrix(1 0 -0 1 0 792)" font-size="10.9091" font-family="LMRoman10"><tspan y="-624.02206" x="72">&#x2022;</tspan></text>
<text xml:space="preserve" transform="matrix(1 0 -0 1 0 792)" font-size="10.9091" font-family="LMRoman10"><tspan y="-624.02206" x="85.94183 95.94548 102.01094 106.30913 114.18549 120.55641 129.05461 136.93099 141.20735 144.22917 148.47281 152.71645 157.571 167.2801 170.31284 180.01103 183.94922 194.7056 203.80379 211.68016 219.86199 227.29108 239.10564 248.20383 255.63292 262.4511 268.51658 279.5784 282.6111 288.06568 293.52024 296.55296">MustbewritteninIF/THEN/ELSElogic</tspan></text>
<text xml:space="preserve" transform="matrix(1 0 -0 1 0 792)" font-size="10.9091" font-family="LMRoman10"><tspan y="-601.70608" x="72">&#x2022;</tspan></text>
<text xml:space="preserve" transform="matrix(1 0 -0 1 0 792)" font-size="10.9091" font-family="LMRoman10"><tspan y="-601.70608" x="85.53819 93.72002 97.99638 106.483669 110.78185 116.84731 123.21823 128.67278 132.94915 139.0146 142.04734 148.1128 153.56734 157.81098 166.29827 170.5419 179.64009 183.88373 189.94919 192.98192 200.91284 206.9783 212.7383 217.59285 223.65831 232.74559 237.60015 243.36016">Aresubordinatetothisdocument</tspan></text>
<text xml:space="preserve" transform="matrix(1 0 -0 1 0 792)" font-size="10.9091" font-family="LMRoman10"><tspan y="-579.38906" x="72">&#x2022;</tspan></text>
<text xml:space="preserve" transform="matrix(1 0 -0 1 0 792)" font-size="10.9091" font-family="LMRoman10"><tspan y="-579.38906" x="85.94183 95.94548 101.094577 110.498218 116.563678 122.01823 129.89459 134.74915 139.02552 143.88007 149.33461 153.57825 162.06554 168.131 172.98555 184.49466 190.86557 196.01467 203.5965 208.45105 212.72742 220.65834 226.11289 234.02199 239.18199 244.63655 249.4911 253.76747 258.04383 261.07655 267.142 275.62928 281.69474 285.9711 291.42567 297.49113 300.52384 306.5893 309.622 313.86567 316.89839 322.35295 328.4184">Maynotcreatenewpowersoroverrideprohibitions</tspan></text>
<text xml:space="preserve" transform="matrix(1.0094553 0 -0 .9906332 0 792)" font-size="11.012249" font-family="LMRoman10"><tspan y="-558.3177" x="71.3256 79.89313 86.31326 91.213718 95.53052 101.036647 105.32041 108.38182 113.88795 120.01076 125.51689 132.16829 142.26651 147.77263 153.59812 159.72093 165.22705 168.28845 176.21727 185.39048 190.58824 199.9927 206.11553 211.01598 214.07738 217.1388 223.26161 231.75206 237.87488 243.381 247.6978 252.0146 257.22343 265.17427 268.2357 277.64015 281.97898 286.8794 292.38554 298.80567 303.70613 313.41889 318.31935 327.49256 332.393 336.70979 342.2159 347.10536 353.23918 358.1286 367.53306 373.03919 377.93965 382.22343 385.28483 390.79096 400.50376 406.62657 410.94334 416.7468 421.64726 426.5477 432.6705 438.7933 443.11009 448.01054 455.93934 460.27818 465.7843 468.84574 473.74617 476.8076 486.21205 490.49583 499.59196 505.71473 510.03153 514.93197 520.43807 525.3385 531.164">OperationalManualsmaydefinenarrowlyscopedemergencyactionproceduressolelytoprevent</tspan></text>
<text xml:space="preserve" transform="matrix(1.0099504 0 -0 .99014756 0 792)" font-size="11.017651" font-family="LMRoman10"><tspan y="-544.9077" x="71.290637 74.35354 83.53124 92.70895 95.77186 101.89767 106.80052 112.62886 120.79294 126.91875 132.42758 136.74649 145.92421 152.93143 159.06826 163.37616 168.58753 174.40483 177.46775 183.59355 188.49642 198.50045 202.85242 208.97824 213.5726 223.58765 229.71346 234.03238 239.83867 244.74153 249.6444 255.7702 261.89604 266.21495 271.1178 279.33699 284.2398 288.55876 293.4616 298.9704 303.2563 312.03736 318.16319 327.5502 333.67604 338.57887 350.41184 355.92066 362.04646 366.33235 372.45814 377.96696 382.2859 385.3488 389.3372 394.25108 401.2693 406.17216 411.68098 417.80677 421.17817 426.081 434.27818 440.40397 449.79103 455.9168 458.97975 463.32069 468.22355 472.54249 477.4453 481.7312 484.7941 490.30293 500.31794 506.74125 511.6441 517.16397 522.6728 528.7986">imminentharm,providedsuchprocedurescreatenonewauthority,confernodiscretionbeyond</tspan><tspan y="-531.2239" x="71.290637 77.41644 82.3193 87.222148 92.125 96.46595 100.80691 103.86981 107.85821 112.77208 121.47602 126.98485 133.11066 144.46987 148.78879 153.69164 162.86936 168.37818 171.44109 182.80028 186.17169 192.2975 195.36042 198.42331 209.47402 213.82599 219.95182 226.37509 229.74649 234.64936 239.55222 249.07146 253.35733 264.09953 267.16246 272.67124 278.18006 283.68888 286.75178 292.8776 298.3864 307.09037 311.4093 316.31214 322.12947 325.19239 330.0952 338.04997 346.7539 352.26274 358.38856 369.74775 374.6506 377.7135 383.22233 387.56327 391.90425 394.96714 398.03004 401.09297 405.9958 411.5046 415.7905 418.8534 424.3622 435.7214 440.04035 444.94319 450.76054 456.88633 459.94926 464.26817 469.17103 478.3487 483.25157 489.07987 493.36576 502.9401 508.4489 517.0537 521.3396 527.4654 530.5283">necessity,andremainfullysubjecttologging,review,andclassificationrequirementsofthis</tspan></text>
<text xml:space="preserve" transform="matrix(1 0 -0 1 0 792)" font-size="10.9091" font-family="LMRoman10"><tspan y="-512.441" x="72 78.06546 83.82547 88.68002 94.74548 103.83276 108.68732 114.44732 118.690959">document.</tspan><tspan y="-492.11698" x="72 82.00365 88.06911 92.312747 97.767299 103.832759 106.865489 109.89822 112.93095 116.869129 122.62913 130.5164 138.39278 144.45824 149.91278 155.97824 160.22188 163.25461 168.70917">Mutability:Adaptive</tspan></text>
<text xml:space="preserve" transform="matrix(1 0 -0 1 0 792)" font-size="14.3462" font-family="LMRoman12" font-weight="bold"><tspan y="-457.74897" x="72 80.07691">11</tspan></text>
<text xml:space="preserve" transform="matrix(1 0 -0 1 0 792)" font-size="14.3462" font-family="LMRoman12" font-weight="bold"><tspan y="-457.74897" x="100.26202 112.45628 118.826 125.19571 132.55532 138.83895 145.20867 155.07884 164.77687 172.62424 181.5906 190.55698 200.42716 208.27452 217.24089 231.58708 243.9535 248.44387 254.81359 261.1833 269.2602 273.75056 282.71693 289.00056 293.4909 301.5678">Assets,Land,andDissolution</tspan></text>
<text xml:space="preserve" transform="matrix(1 0 -0 1 0 792)" font-size="11.9552" font-family="LMRoman12" font-weight="bold"><tspan y="-430.80897" x="72 78.73078 85.46156 89.203548">11.1</tspan></text>
<text xml:space="preserve" transform="matrix(1 0 -0 1 0 792)" font-size="11.9552" font-family="LMRoman12" font-weight="bold"><tspan y="-430.80897" x="106.02451 116.18643 121.49454 126.80264 132.93566 142.65523 150.12723 155.3636 161.49662 170.84558 177.38507 182.88446 190.35646 195.66457 203.13657 206.87854">AssetStewardship</tspan></text>
<text xml:space="preserve" transform="matrix(1 0 -0 1 0 792)" font-size="10.9091" font-family="LMRoman10"><tspan y="-410.21598" x="71.596 79.777828 84.07601 88.3742 93.228748 97.47238 105.4033 110.85785 115.13422 123.63241 129.69786 134.55242 137.58515 147.28334 152.1379 157.8979 162.75246 165.78519 171.85065 176.14884 179.18157 184.63613 189.49068 192.5234 201.91616 205.26525 210.71979 218.62889 223.178 229.24346 234.698 238.97437 242.0071 246.25074 251.70528 257.77073 260.80345 269.2907 275.35618 281.42164 285.698 292.0689 297.52348 301.82167 306.6762 310.9744 318.86167 327.0435 336.13078 341.58534 345.8835 350.1817 355.03627 362.91264 371.9999 377.1599 386.55265 392.92356 401.41084 407.4763 410.509 414.8072 419.05085 423.3272 426.35993 432.42539 438.49085 442.7345 447.58906 457.28724 460.63633 466.09089 473.99998 480.06544 484.3418 487.3745 492.52363 497.97819 502.22184 510.72004 516.17459 521.6291 524.6618 530.72726">Assetsareheldexclusivelyforcharitablepurposes.Noassetmaybedistributedforprivategain.</tspan></text>
<text xml:space="preserve" transform="matrix(1 0 -0 1 0 792)" font-size="11.9552" font-family="LMRoman12" font-weight="bold"><tspan y="-381.00697" x="72 78.73078 85.46156 89.203548">11.2</tspan></text>
<text xml:space="preserve" transform="matrix(1 0 -0 1 0 792)" font-size="11.9552" font-family="LMRoman12" font-weight="bold"><tspan y="-381.00697" x="106.02451 114.10623 120.64573 128.11774 140.07294 150.41419 155.72229">LandUse</tspan></text>
<text xml:space="preserve" transform="matrix(1.0099504 0 -0 .99014756 0 792)" font-size="11.017651" font-family="LMRoman10"><tspan y="-364.0003" x="71.290637 78.17667 83.685489 89.8113 99.70515 105.84197 110.18293 118.85381 124.97962 130.78592 135.68878 143.80879 149.9346 155.44344 163.49733 166.56024 175.73795 181.86376 184.92667 194.51201 199.72338 207.67812 213.80394 218.70679 223.02571 227.36667 233.4925 236.55539 242.68122 251.06565 259.3289 268.60575 271.66865 277.17747 283.30329 293.20814 298.71696 303.0359 307.34379 312.8526 318.98945 324.49827 329.39009 338.56779 343.4706 349.29896 357.36387 366.54158 371.74189 381.33827 386.2411 392.3669 397.87574 404.00157 407.06446 415.73536 420.63819 426.4555 430.7414 435.06034 440.56916 445.472 449.75788 452.82078 458.3296 468.22346 473.73228 481.83024 486.1712 492.59449 497.49736 502.40019 508.52604 511.58894 517.0978 521.3836 524.44656 529.9664">Landusedoesnotimplyownership.Nolandarrangementmayenableextractionorspeculative</tspan></text>
<text xml:space="preserve" transform="matrix(1 0 -0 1 0 792)" font-size="10.9091" font-family="LMRoman10"><tspan y="-346.865" x="72 78.37092 83.225467 89.290927 94.14548 97.17821 100.21094 104.454578">benefit.</tspan></text>
<text xml:space="preserve" transform="matrix(1 0 -0 1 0 792)" font-size="11.9552" font-family="LMRoman12" font-weight="bold"><tspan y="-317.656" x="72 78.73078 85.46156 89.203548">11.3</tspan></text>
<text xml:space="preserve" transform="matrix(1 0 -0 1 0 792)" font-size="11.9552" font-family="LMRoman12" font-weight="bold"><tspan y="-317.656" x="106.02451 116.329898 120.07188 125.37999 130.6881 137.41887 141.16085 148.63285 153.86922 157.61119 164.34197">Dissolution</tspan></text>
<text xml:space="preserve" transform="matrix(1 0 -0 1 0 792)" font-size="10.9091" font-family="LMRoman10"><tspan y="-297.06303" x="71.596 79.777828 84.07601 88.3742 93.228748 97.47238 105.4033 114.19603 120.26149 124.55968 132.43605 136.67969 140.95606 146.4106 152.47606 156.77425 160.11243 164.96698 172.87609 177.11972 186.21791 195.30519 201.0652 207.13066 212.5852 215.61794 218.65067 221.6834 224.71613 229.57068 239.27979 243.82889 249.89435 255.34889 259.62525 262.65797 266.9016 272.35618 278.42164 281.45436 289.94163 294.79618 300.55619 304.79985 307.83256 311.77076 321.1744 329.05079 332.0835 336.32716 346.02534 351.4799 354.5126 357.54533 362.99989 369.06535 373.9199 383.61808 389.68354 395.7599 400.02537 406.39628 411.85084 416.14903 421.00358 425.30177">Assetsmusttransfertoaqualifiedcharitableentitywithalignedpurposes.</tspan><tspan y="-276.739" x="72 82.00365 88.06911 92.312747 97.767299 103.832759 106.865489 109.89822 112.93095 116.869129 122.62913 130.5164 138.69823 144.76369 149.31279 155.37825 160.8328 166.89826 172.3528 177.20735 182.6619 188.72736 191.76009">Mutability:Unchangeable</tspan></text>
<text xml:space="preserve" transform="matrix(1 0 -0 1 0 792)" font-size="14.3462" font-family="LMRoman12" font-weight="bold"><tspan y="-242.37102" x="72 80.07691">12</tspan></text>
<text xml:space="preserve" transform="matrix(1 0 -0 1 0 792)" font-size="14.3462" font-family="LMRoman12" font-weight="bold"><tspan y="-242.37102" x="100.26202 110.1322 116.73145 124.57883 133.5452 139.91492 148.88129 156.72866 163.32791 170.68752 179.65389 186.82698 200.72844 208.5758 217.54218 231.88837 244.01091 252.08782 259.44743 266.04667 272.6459 277.13627 286.10264 293.46223">TransparencyandOverrides</tspan></text>
<text xml:space="preserve" transform="matrix(1 0 -0 1 0 792)" font-size="11.9552" font-family="LMRoman12" font-weight="bold"><tspan y="-215.43102" x="72 78.73078 85.46156 89.203548">12.1</tspan></text>
<text xml:space="preserve" transform="matrix(1 0 -0 1 0 792)" font-size="11.9552" font-family="LMRoman12" font-weight="bold"><tspan y="-215.43102" x="106.02451 118.780719 125.32021 130.5566 136.6896 142.189 145.93097 152.47046 160.69564 170.47499 176.45259 181.68897 185.43094 192.16172 199.63372">MaterialActions</tspan></text>
<text xml:space="preserve" transform="matrix(1 0 -0 1 0 792)" font-size="10.9091" font-family="LMRoman10"><tspan y="-194.83802" x="71.596 79.777828 82.810558 89.47601 99.47966 104.93421 109.17785 114.032398 118.30876 121.34149 126.79604 133.47241 141.34879 146.20334 150.44698 153.4797 158.93425 164.99971 172.93064 177.17427 182.62882 190.55974 196.63611 201.47975 204.51248 207.55612 213.62158 218.47614 228.17433 231.20706 240.90526 246.97072 251.82527 256.6798 260.92347 263.95619 269.41075">AllMaterialActions(asdefinedinSection</tspan></text>
<text xml:space="preserve" transform="matrix(1 0 -0 1 0 792)" font-size="10.9091" font-family="LMRoman10"><tspan y="-194.83802" x="279.11985 284.5744 287.60713 293.06169">4.10</tspan></text>
<text xml:space="preserve" transform="matrix(1 0 -0 1 0 792)" font-size="10.9091" font-family="LMRoman10"><tspan y="-194.83802" x="298.51625 306.3926 315.17445 321.2399 325.5381 333.42539 339.7854 344.63996">)mustbe:</tspan></text>
<text xml:space="preserve" transform="matrix(1 0 -0 1 0 792)" font-size="10.9091" font-family="LMRoman10"><tspan y="-168.53702" x="72">&#x2022;</tspan></text>
<text xml:space="preserve" transform="matrix(1 0 -0 1 0 792)" font-size="10.9091" font-family="LMRoman10"><tspan y="-168.53702" x="85.94183 92.76002 98.21457 103.66912 109.12367 113.978229">Logged</tspan></text>
<text xml:space="preserve" transform="matrix(1 0 -0 1 0 792)" font-size="10.9091" font-family="LMRoman10"><tspan y="-146.22103" x="72">&#x2022;</tspan></text>
<text xml:space="preserve" transform="matrix(1 0 -0 1 0 792)" font-size="10.9091" font-family="LMRoman10"><tspan y="-146.22103" x="85.53819 93.41456 97.658199 101.90183 106.1782 109.21093 115.27639 121.34185 125.58549 131.04004 137.1055 140.13823">Attributable</tspan></text>
<text xml:space="preserve" transform="matrix(1 0 -0 1 0 792)" font-size="10.9091" font-family="LMRoman10"><tspan y="-123.90402" x="72">&#x2022;</tspan></text>
<text xml:space="preserve" transform="matrix(1 0 -0 1 0 792)" font-size="10.9091" font-family="LMRoman10"><tspan y="-123.90402" x="85.94183 93.97093 98.825489 104.58549 107.61822 112.47276 120.04368 125.49823 131.56369 134.59642">Reviewable</tspan><tspan y="-97.60302" x="72 80.48728 85.941829 90.79637 95.07274 99.349109 102.381839 108.447299 113.30185 121.232769 125.50913 130.36368 136.12369 142.18915 145.22188 149.49825 157.99645 164.0619 169.81099 174.66555 180.731 189.81829 194.67284 200.44376 204.6874 209.54195 219.24015 222.57833 228.64379 232.94197 237.18561 240.21834 243.25107 246.2838 251.13835 256.5929 260.83656 263.86927 269.32383 279.03294 284.4875 290.55296 300.25114 304.5275 309.38206 313.6257 317.90208 323.35664 327.65483 334.02574 338.88029 343.73484 347.9785 351.0112 356.46577 364.95304 369.2294 374.08396 379.84397 382.87669 387.73124 395.6076">Overridesrequiredocumentedjustificationandretrospectivereview.</tspan><tspan y="-77.27902" x="72 82.00365 88.06911 92.312747 97.767299 103.832759 106.865489 109.89822 112.93095 116.869129 122.62913 130.5164 138.5455 143.40006 149.16007 152.1928 156.49098 161.94553 168.01099 171.04372">Mutability:Revisable</tspan></text>
<text xml:space="preserve" transform="matrix(1 0 -0 1 0 792)" font-size="10.9091" font-family="LMRoman10"><tspan y="-42.112024" x="300.54499 305.99955">40</tspan></text>
</svg>
