<svg xmlns="http://www.w3.org/2000/svg" xmlns:xlink="http://www.w3.org/1999/xlink" xmlns:inkscape="http://www.inkscape.org/namespaces/inkscape" version="1.1" width="612" height="792" viewBox="0 0 612 792">
<text xml:space="preserve" transform="matrix(1 0 -0 1 0 792)" font-size="17.2154" font-family="LMRoman17"><tspan y="-665.305" x="248.826 260.7563 267.74574 284.44465 296.61595 304.5178 312.41966 320.3215 327.31095 333.40519 337.70906 345.6109 354.40797">NewDoggerland</tspan><tspan y="-643.38699" x="230.09401 242.59239 250.04666 257.94853 264.93797 271.0322 279.82926 287.7311 296.52818 303.5176 315.70613 324.50318 331.0278 339.82487 346.8143 355.61137 364.40843 368.71229 375.70173">GovernanceSchedules</tspan><tspan y="-621.469" x="138.863 147.66008 154.20194 162.99901 169.98847 178.78554 187.58261 191.88646 204.07497 221.4281 231.8262 241.74228 249.64415 257.54603 265.44789 269.75175 278.5488 291.64973 299.55158 308.34864 322.34474 333.8274 342.62446 351.4215 355.72538 367.01869 372.6653 381.01478 387.109 394.09846 402.0003 408.09455 412.3984 418.04505 431.59358 441.94004 449.8419 454.14576 458.44963 465.43907">ScheduleD-LoggingandAuditIntegrityPolicy</tspan></text>
<text xml:space="preserve" transform="matrix(1 0 -0 1 0 792)" font-size="14.3462" font-family="LMRoman12" font-weight="bold"><tspan y="-532.403" x="72.00001 83.66347 91.74038 100.262027 106.54566 113.905269 122.42691 128.71054">Contents</tspan></text>
<text xml:space="preserve" transform="matrix(1 0 -0 1 0 792)" font-size="10.9091" font-family="LMRoman10" font-weight="bold"><tspan y="-503.919" x="72.00001 88.36366 96.93822 103.909137 109.08005 116.400058 122.67279 127.62552">1Purpose</tspan></text>
<text xml:space="preserve" transform="matrix(1 0 -0 1 0 792)" font-size="10.9091" font-family="LMRoman10" font-weight="bold"><tspan y="-503.919" x="533.727">2</tspan></text>
<text xml:space="preserve" transform="matrix(1 0 -0 1 0 792)" font-size="10.9091" font-family="LMRoman10" font-weight="bold"><tspan y="-479.461" x="72 88.363658 95.33457 100.90912 107.181858 114.50186">2Scope</tspan></text>
<text xml:space="preserve" transform="matrix(1 0 -0 1 0 792)" font-size="10.9091" font-family="LMRoman10" font-weight="bold"><tspan y="-479.461" x="533.727">2</tspan></text>
<text xml:space="preserve" transform="matrix(1 0 -0 1 0 792)" font-size="10.9091" font-family="LMRoman10" font-weight="bold"><tspan y="-455.003" x="72 88.363658 97.429119 103.70185 108.872768 118.80004 126.34914 132.62187 138.8946 145.16735 148.64734 155.61826 166.08008 175.49463 181.24373 187.86556 194.83647 198.31647 203.48738 209.23648 219.6874 225.4365 232.05832 236.9347">3CoreLoggingRequirements</tspan></text>
<text xml:space="preserve" transform="matrix(1 0 -0 1 0 792)" font-size="10.9091" font-family="LMRoman10" font-weight="bold"><tspan y="-455.003" x="533.7386">2</tspan></text>
<text xml:space="preserve" transform="matrix(1 0 -0 1 0 792)" font-size="10.9091" font-family="LMRoman10" font-weight="bold"><tspan y="-430.54499" x="72 88.363658 96.93821 102.10912 105.58913 116.04005 122.13824 127.30915 138.10916 145.65827 151.931 158.20374 164.47647 167.95647 174.92739 185.38922 192.36014 198.98197 203.9347 208.81107 214.56017">4PrimaryLoggingSystem</tspan></text>
<text xml:space="preserve" transform="matrix(1 0 -0 1 0 792)" font-size="10.9091" font-family="LMRoman10" font-weight="bold"><tspan y="-430.54499" x="533.72769">2</tspan></text>
<text xml:space="preserve" transform="matrix(1 0 -0 1 0 792)" font-size="10.9091" font-family="LMRoman10" font-weight="bold"><tspan y="-406.086" x="72 88.363658 96.61093 103.58185 107.06185 116.1164 122.21459 129.1855 140.34552 149.41098 155.68372 160.85463 166.02555 171.77465 177.3492 182.22557 185.70557 191.9783 203.12741 211.70197 216.87288 223.14562 228.02199 234.64382 240.21837 246.4911">5EditandCorrectionProtocol</tspan></text>
<text xml:space="preserve" transform="matrix(1 0 -0 1 0 792)" font-size="10.9091" font-family="LMRoman10" font-weight="bold"><tspan y="-406.086" x="533.7277">3</tspan></text>
<text xml:space="preserve" transform="matrix(1 0 -0 1 0 792)" font-size="10.9091" font-family="LMRoman10" font-weight="bold"><tspan y="-381.628" x="72 88.363658 97.789119 101.27276 104.7564 108.240039 111.72004 118.690959 128.61824 134.71643 141.68735 152.84735 161.09464 171.54555 177.29465 182.46556 188.7383 194.4874 201.45832 207.03287 217.83289 225.38199 231.65473 237.92746 244.2002 247.68019 254.65111">6OfflineandEmergencyLogging</tspan></text>
<text xml:space="preserve" transform="matrix(1 0 -0 1 0 792)" font-size="10.9091" font-family="LMRoman10" font-weight="bold"><tspan y="-381.628" x="533.72769">3</tspan></text>
<text xml:space="preserve" transform="matrix(1 0 -0 1 0 792)" font-size="10.9091" font-family="LMRoman10" font-weight="bold"><tspan y="-357.16999" x="72 87.92729 95.6073 101.70549 112.15641 119.47642 125.22551 130.39643 134.57462 142.8219 149.44373 152.92372 159.89464 165.64374 172.26557 181.32013 188.29105 193.16742 199.26561 206.23653 213.20745 219.30564 224.47655 231.44747">7Tamper-EvidentStandards</tspan></text>
<text xml:space="preserve" transform="matrix(1 0 -0 1 0 792)" font-size="10.9091" font-family="LMRoman10" font-weight="bold"><tspan y="-357.16999" x="533.7386">3</tspan></text>
<text xml:space="preserve" transform="matrix(1 0 -0 1 0 792)" font-size="10.9091" font-family="LMRoman10" font-weight="bold"><tspan y="-332.711" x="72 87.88365 97.01457 102.58912 108.163669 113.91276 118.865489 128.00731 137.07277 143.3455 149.96733 154.8437 160.01462 166.28736 169.76735 178.89827 184.99646 191.96738 203.11649 210.0874 215.8365 222.10924 227.28015 233.02925 239.30199 245.40018 250.27655 253.75655 260.02928 271.18928 277.462 285.4693 295.09114 302.06205 306.93843 310.41844 316.1675">8AccessControlsandSegregationofDuties</tspan></text>
<text xml:space="preserve" transform="matrix(1 0 -0 1 0 792)" font-size="10.9091" font-family="LMRoman10" font-weight="bold"><tspan y="-332.711" x="533.72769">4</tspan></text>
<text xml:space="preserve" transform="matrix(1 0 -0 1 0 792)" font-size="10.9091" font-family="LMRoman10" font-weight="bold"><tspan y="-308.253" x="72 88.363658 97.778209 103.5273 108.40366 114.152759 120.77458 125.65095 129.13095 135.40369 146.5528 152.65099 159.6219 170.78192 179.70557 185.80376 191.02922 197.65105 204.62197">9RetentionandBackup</tspan></text>
<text xml:space="preserve" transform="matrix(1 0 -0 1 0 792)" font-size="10.9091" font-family="LMRoman10" font-weight="bold"><tspan y="-308.253" x="533.7277">4</tspan></text>
<text xml:space="preserve" transform="matrix(1 0 -0 1 0 792)" font-size="10.9091" font-family="LMRoman10" font-weight="bold"><tspan y="-283.79499" x="72 78.272739 87.88366 97.01458 103.9855 110.95641 114.43642 123.50188 129.60007 136.57099 147.7201 157.13465 162.88375 169.50557 172.98557 178.73467">10AuditandReview</tspan></text>
<text xml:space="preserve" transform="matrix(1 0 -0 1 0 792)" font-size="10.9091" font-family="LMRoman10" font-weight="bold"><tspan y="-283.79499" x="533.7277">4</tspan></text>
<text xml:space="preserve" transform="matrix(1 0 -0 1 0 792)" font-size="10.9091" font-family="LMRoman10" font-weight="bold"><tspan y="-259.33699" x="72 78.272739 88.363658 93.120029 99.74185 104.61822 110.36731 115.53822 122.50914 127.68005 133.42916 138.30553 141.78553 148.05826 157.98555 167.05101 174.02193 177.51284">11InterpretiveRule</tspan></text>
<text xml:space="preserve" transform="matrix(1 0 -0 1 0 792)" font-size="10.9091" font-family="LMRoman10" font-weight="bold"><tspan y="-259.33699" x="533.72769">4</tspan></text>
<text xml:space="preserve" transform="matrix(1 0 -0 1 0 792)" font-size="10.9091" font-family="LMRoman10" font-weight="bold"><tspan y="-234.87798" x="72 78.272739 87.88366 97.36367 107.81459 113.56368 120.5346 127.505519 137.95644 143.70554 150.32736">12Amendment</tspan></text>
<text xml:space="preserve" transform="matrix(1 0 -0 1 0 792)" font-size="10.9091" font-family="LMRoman10" font-weight="bold"><tspan y="-234.87798" x="533.727">5</tspan></text>
<text xml:space="preserve" transform="matrix(1 0 -0 1 0 792)" font-size="10.9091" font-family="LMRoman10"><tspan y="-42.11197" x="303.273">1</tspan></text>
</svg>
