<svg xmlns="http://www.w3.org/2000/svg" xmlns:xlink="http://www.w3.org/1999/xlink" xmlns:inkscape="http://www.inkscape.org/namespaces/inkscape" version="1.1" width="612" height="792" viewBox="0 0 612 792">
<text xml:space="preserve" transform="matrix(1 0 -0 1 0 792)" font-size="11.9552" font-family="LMRoman12" font-weight="bold"><tspan y="-709.041" x="72 78.73078 82.47276 89.203548">4.21</tspan></text>
<text xml:space="preserve" transform="matrix(1 0 -0 1 0 792)" font-size="11.9552" font-family="LMRoman12" font-weight="bold"><tspan y="-709.041" x="106.02451 118.780719 125.32021 130.5566 136.6896 142.189 145.93097 152.47046 160.69564 169.14797 172.88994 180.36194 186.90143 194.37343 200.35103 204.093 210.63249 218.85767 223.8669 230.95633 236.1927 242.32572 247.8251 253.95812 259.26625">MaterialFinancialInterest</tspan></text>
<text xml:space="preserve" transform="matrix(1.0079683 0 -0 .99209478 0 792)" font-size="10.996026" font-family="LMRoman10"><tspan y="-693.93368" x="71.03001 82.88373 92.96709 98.465099 102.74255 107.63578 111.94622 115.00311 120.50113 127.153728 134.33414 137.39102 143.51581 149.01383 155.12761 160.02085 163.06674 168.56476 175.22835 179.1979 185.01482 189.29227 194.1855 198.49594 203.38916 207.7216 215.60576 220.49898 226.30487 229.36177 233.69422 237.97167 245.89981 253.83895 259.96376 264.84599 274.56648 283.67115 290.09284 294.97508 299.2855 303.61793 309.11595 318.83644 324.9502 330.4482 338.38734 343.8853 349.7022 359.11485 365.2286 368.28553 372.59599 377.4892 382.38243 390.25556 395.75358 403.67073 406.72764 412.8414 418.9552 422.01213 426.32255 431.21577 436.109 443.99314 447.05003 450.10694 456.22074 461.71873 467.83253 472.72575 475.78266 481.28065 487.94425 492.27668 496.5541 502.05213 507.55015 516.0501 520.3275 526.44137 531.93936">AMaterialFinancialInterestexistswhenapersonhasanydirectorindirectfinancialstakethat</tspan></text>
<text xml:space="preserve" transform="matrix(.99899956 0 -0 1.0010015 0 792)" font-size="10.898185" font-family="LMRoman10"><tspan y="-674.22378" x="72.072109 76.9218 82.370899 88.43028 91.459987 101.14847 105.420558 110.27025 115.719348 120.01323 125.46232 131.52172 136.9708 143.03018 146.05988 155.43231 158.462 164.5323 167.562 170.59169 176.6511 181.50077 187.56017 192.40985 197.24863 203.90741 209.35649 217.25768 223.62221 232.10099 238.46553 243.3152 247.5764 252.42609 257.27577 260.30549 265.76548 270.60426 280.29273 284.5321 293.6103 296.63999 302.69938 305.72908 308.75874 314.8181 319.66783 325.7272 330.57688 335.42658 342.0854 346.32478 352.38414 357.23384 360.26356 368.16474 371.49958 377.55897 383.61833 389.0674 398.1456 402.9953 408.7495 412.9889 419.6477 422.6774 428.7368 434.79615 439.64585 446.01039 450.86009 456.91944 462.97883 467.82853 473.8879 478.7376 483.5873 490.2461 495.6952 503.58546 508.43516 513.8842 519.94369 526.00308 532.06246 536.9122">couldreasonablyinfluence,orbeperceivedtoinfluence,theirjudgment,independence,orconduct</tspan></text>
<text xml:space="preserve" transform="matrix(1 0 -0 1 0 792)" font-size="10.9091" font-family="LMRoman10"><tspan y="-661.35" x="71.607 79.483379 82.516109 86.75974 96.45793 100.7343 105.58885 109.88704 116.25796 121.1125 125.96706 133.84343 138.08707 147.18526 151.4289 157.49436 165.98165 171.43619 175.71256 181.1671 186.62165 192.6871 195.71984 200.57439 206.02893 210.27257 213.3053 218.75984 224.8253">withrespecttotheorganization.</tspan><tspan y="-641.026" x="71.596 83.41055 93.4142 98.86875 103.11239 107.966938 112.2433 115.27603 120.73058 127.40695 134.5306 137.56333 143.62879 149.08333 155.14879 160.00334 163.03607 168.49062 175.15608 179.09427 184.85428 189.09792 193.95247 198.22884 203.08339 207.38158 215.25795 218.29068 224.35614 229.2107 232.24343 238.30889 244.37435 249.2289 253.52709 260.20347 266.26893 272.33439 280.21076 283.24348 291.1853 297.25077 302.70533 310.5817 313.6144 316.64714 325.7344 328.76713 333.01078 337.86534 347.5635 351.80717 357.26173">AMaterialFinancialInterestincludes,butisnotlimitedto:</tspan></text>
<text xml:space="preserve" transform="matrix(1 0 -0 1 0 792)" font-size="10.9091" font-family="LMRoman10"><tspan y="-614.725" x="72">&#x2022;</tspan></text>
<text xml:space="preserve" transform="matrix(1.0099504 0 -0 .99014756 0 792)" font-size="11.017651" font-family="LMRoman10"><tspan y="-620.8418" x="85.09329 90.30464 98.259387 104.3852 109.288059 113.60697 117.94792 124.07374 127.13664 133.26245 139.91712 144.80896 150.62627 156.76309 159.826 163.80336 168.72826 175.3719 181.49771 185.81662 191.32546 194.38837 197.45127 201.73714 205.406 209.74697 215.87279 221.3816 225.70053 228.76343 234.88925 240.39807 247.05274 252.56156 260.47227 264.7912 269.69404 275.20289 280.1057 285.93406 292.05989 300.55448 306.6803 312.1891 316.50804 320.7939 323.8568 328.75968 331.81153 337.9484 343.45719 347.74308 350.80598 356.3148 366.02134 369.08427 378.80183 387.89137 393.41123 398.31407 404.43989 410.56568 416.0745 420.39344 427.0481 431.9399 437.44874 443.27708 447.56294 451.88188 457.3907 462.29353 466.5794 472.08824 476.40715 483.06184 489.18763 494.69645 499.01539 503.30128 509.4271 514.32998 518.64889 525.3035 530.8124">ownership,equity,profit-sharing,orrevenueparticipationinavendor,contractor,partner,or</tspan></text>
<text xml:space="preserve" transform="matrix(1 0 -0 1 0 792)" font-size="10.9091" font-family="LMRoman10"><tspan y="-601.175" x="85.94 90.794559 96.24911 102.31457 108.07457 112.31821 117.17276 121.44913 127.51459 132.96913 137.2455 141.18369">counterparty</tspan></text>
<text xml:space="preserve" transform="matrix(1 0 -0 1 0 792)" font-size="10.9091" font-family="LMRoman10"><tspan y="-578.859" x="72">&#x2022;</tspan></text>
<text xml:space="preserve" transform="matrix(1 0 -0 1 0 792)" font-size="10.9091" font-family="LMRoman10"><tspan y="-578.859" x="85.94183 90.2182 95.072757 99.92731 104.78186 107.81459 113.88005 121.75642 127.21097 134.1928 139.04735 144.50189 153.58917 159.94918 164.80373 170.86919 175.16738 180.62192 184.86556 187.89829 193.35283 199.41829 206.09467 210.94922 216.40377 222.46923 226.76741 232.83287 235.8656 240.10924 243.14197 249.20743 258.2947 261.6329 266.48747 271.342 275.6402 282.30564 286.582 291.43656 295.6802 301.13478 304.16749 310.23295 315.0875 319.36387 323.66206 330.3384 335.19297 340.64753 349.7348 358.82209 361.8548 366.15299 370.45118 373.4839 378.93846 385.0039 389.3021 395.96754 401.4221 409.33119 413.62937 419.69483 424.54939 429.40394 434.25849 438.55668 442.85487 446.48759 452.55305 458.0076 462.31669 467.16035 476.86946 482.9349 488.084 493.84403 502.9313 507.78587 513.54586 517.7895">receiptofcompensation,consultingfees,retainers,commissions,orsuccess-basedpayments</tspan></text>
<text xml:space="preserve" transform="matrix(1 0 -0 1 0 792)" font-size="10.9091" font-family="LMRoman10"><tspan y="-556.543" x="72">&#x2022;</tspan></text>
<text xml:space="preserve" transform="matrix(1 0 -0 1 0 792)" font-size="10.9091" font-family="LMRoman10"><tspan y="-556.543" x="85.94183 91.396389 97.461849 101.70548 106.00367 110.24731 115.70186 121.76732 127.83278 130.86551 136.93097 146.02916 149.06189 154.51644 159.97098 166.03644 170.33463 177.00009 182.45464 188.5201 193.97464 198.251 203.70555 209.46556 213.7092 218.56375 223.4183 227.71649 234.38196 239.8365 247.75652 250.78925 253.82198 259.88743 265.34199 271.40745 276.262 279.2947 284.74928 291.4147 296.86927 302.93473 305.96745 309.00016 314.4547 319.90928 324.15293 327.18565 332.6402 338.70567 346.6475 349.6802 355.44023 360.89479 366.34934 369.38206 375.14207 378.17478 384.24024 393.3275 397.57118 403.63664 412.13484 417.5894 421.86576 427.3203 432.77488 438.84034 441.87306 446.7276 452.18217 456.4258 459.45854 464.9131">outstandingloans,guarantees,orfinancialobligationsinvolvingtheorganization</tspan></text>
<text xml:space="preserve" transform="matrix(1 0 -0 1 0 792)" font-size="10.9091" font-family="LMRoman10"><tspan y="-534.226" x="72">&#x2022;</tspan></text>
<text xml:space="preserve" transform="matrix(1 0 -0 1 0 792)" font-size="10.9091" font-family="LMRoman10"><tspan y="-534.226" x="85.94183 90.79639 96.55639 102.92731 107.78186 112.63641 116.88005 122.3346 126.57824 129.61096 135.0655 144.7637 150.21825 157.18917 160.52735 166.60372 170.84735 176.91281 181.18918 189.67647 194.53102 199.98557 209.07285 215.44376 220.29831 226.36377 230.66196 236.1165 240.36014 243.39287 248.84741 258.5456 264.00016 271.90925 278.28016 283.1347 289.20018 294.05473 297.08744 300.12019 307.99656 312.8511 318.30567 324.07658 328.32023 331.35295 337.4184 342.87297 347.7275 353.48753 361.3639 366.81846 376.52757 381.98213 386.25849 391.71305 397.1676 403.23307 406.26579 411.12034 416.5749 420.81855 423.85127 429.30583 435.37129 440.82585 447.49128 452.94584 457.80039 462.04405 465.07676 470.5313">expectationoffuturecompensationorbenefitcontingentonorganizationalaction</tspan></text>
<text xml:space="preserve" transform="matrix(1 0 -0 1 0 792)" font-size="10.9091" font-family="LMRoman10"><tspan y="-511.91" x="72">&#x2022;</tspan></text>
<text xml:space="preserve" transform="matrix(.9899495 0 -0 1.0101526 0 792)" font-size="10.799458" font-family="LMRoman10"><tspan y="-506.765" x="86.81251 89.81476 92.81701 98.8215 104.22124 110.22574 115.031497 118.033748 123.43347 129.32999 132.33225 138.03435 142.23534 147.0303 151.26369 156.06945 160.32444 164.52542 171.67467 177.67917 182.48493 185.48719 194.38594 200.08806 208.68444 216.96762 221.23342 227.5403 232.94002 238.94452 243.19951 248.00527 254.05297 260.05744 265.45719 274.45314 279.25889 283.51387 287.71485 290.7171 298.41709 304.4216 309.82133 314.0547 318.25569 324.26017 329.06593 333.2993 339.347 344.7467 351.87437 357.87886 363.27857 369.28309 373.53807 378.3438 384.3483 389.74806 392.75028 401.64906 410.64503 415.45075 424.14433 430.4512 435.25697 442.3846 446.58558 452.5901 457.9898 465.08506 472.56907 477.9688 483.9733 486.97557 495.8743 500.1077 504.91343 510.31318 514.5681 519.96786 525.97238 531.3721 537.3766 540.3788">financialinterestsheldbyaspouse,domesticpartner,orhouseholdmemberthatwouldreasonably</tspan></text>
<text xml:space="preserve" transform="matrix(1 0 -0 1 0 792)" font-size="10.9091" font-family="LMRoman10"><tspan y="-498.361" x="85.94 91.394557 94.574558 97.75456 102.609119 107.46367 115.340038 118.372768 124.438228 130.50368 135.35823 141.72914 146.5837 152.64916 158.71462 163.56917 169.63463 174.48918">affectindependence</tspan><tspan y="-472.06" x="71.596 83.41055 86.44328 89.47601 95.54147 100.996028 107.072399 111.91603 114.94876 120.40331 127.07968 130.11241 135.87242 140.11606 144.97061 149.24698 154.10153 158.39972 166.2761 169.30883 177.25066 186.33794 191.79248 196.03612 200.89067 205.16704 208.18886 213.6434 220.31978 224.59615 229.4507 234.90525 240.35979 244.63616 250.70162 253.73435 258.5889 262.8871 270.818 276.27256 279.61076">Afinancialinterestismaterialregardlessof:</tspan></text>
<text xml:space="preserve" transform="matrix(1 0 -0 1 0 792)" font-size="10.9091" font-family="LMRoman10"><tspan y="-445.758" x="72">&#x2022;</tspan></text>
<text xml:space="preserve" transform="matrix(1 0 -0 1 0 792)" font-size="10.9091" font-family="LMRoman10"><tspan y="-445.758" x="85.94183 90.24002 93.27275 98.127307 106.614589 112.06914 119.98914 126.34915 131.2037 135.48007 140.33463 145.18918 150.94919 155.19283 160.64737 166.10192 174.60012 177.63285 184.60376 188.8474 194.91286 203.40015 206.43288 212.2038 216.44744 221.30199 225.57836 230.4329 234.7311 242.60747 245.6402 253.57112 259.63658 265.09114 271.1566 274.7893 279.03297 283.30934 286.34205 292.10206 295.13478 300.58934 307.2657 311.50935 320.59663 324.84028 330.90574 339.393 345.45848 350.91304 353.94575 360.0112 364.86576">sizeorpercentageiftheinterestisnon-trivialtotheholder</tspan></text>
<text xml:space="preserve" transform="matrix(1 0 -0 1 0 792)" font-size="10.9091" font-family="LMRoman10"><tspan y="-423.442" x="72">&#x2022;</tspan></text>
<text xml:space="preserve" transform="matrix(1 0 -0 1 0 792)" font-size="10.9091" font-family="LMRoman10"><tspan y="-423.442" x="85.5491 93.425479 99.49094 104.34549 108.58913 114.65459 119.50914 127.418239 132.27278 137.72733 146.8146 153.18552 158.04007 164.10553 168.40372 173.85826 178.1019 181.13463 186.58917 196.28737 199.3201 207.26194 210.29467 215.7492 222.12012 226.97467 230.0074 234.86196 244.56015 247.59288 253.65834 256.99653 262.45109 266.72746 275.81474 281.2693 284.302 290.96745 297.0329 301.88746 305.22566 310.0802 314.35658 318.63294 323.4875 329.55296 336.21839 341.07295 346.5275 352.59297 358.6693 361.69114 365.93479 368.9675 374.42207 380.4984 385.95298 388.9748 395.65116 401.1057 409.0148 415.08027 420.53483 426.60029 430.233 435.08757 440.5421 444.8403">whethercompensationislabeledinformal,deferred,conditional,ornon-cash</tspan></text>
<text xml:space="preserve" transform="matrix(1 0 -0 1 0 792)" font-size="10.9091" font-family="LMRoman10"><tspan y="-401.12599" x="72">&#x2022;</tspan></text>
<text xml:space="preserve" transform="matrix(1 0 -0 1 0 792)" font-size="10.9091" font-family="LMRoman10"><tspan y="-401.12599" x="85.5491 93.425479 99.49094 104.34549 108.58913 114.65459 119.50914 127.418239 131.66188 137.72734 146.22554 149.25827 155.01828 159.26192 164.11647 168.39284 173.24739 177.54558 185.42195 188.45468 196.3856 200.66197 206.11652 212.18198 216.42562 221.28017 230.98928 235.23291 241.29837 245.57474 251.02928 257.09474 262.5493 272.24748 277.70204 287.41114 290.44386 296.20387 300.4475 305.30207 309.57844 318.6657 323.52027 329.58573 332.61845 338.073 342.34938 351.7421 356.59666 362.35667 366.6003 369.63304 373.57124">whethertheinterestisroutedthroughanintermediaryentity</tspan><tspan y="-374.82398" x="71.596 83.41055 86.44328 89.47601 95.54147 100.996028 107.072399 111.91603 114.94876 120.40331 127.07968 130.11241 135.87242 140.11606 144.97061 149.24698 154.10153 158.39972 166.2761 169.30883 177.25066 183.31612 188.77066 196.64704 205.73432 211.18886 215.4325 220.28705 224.56342 227.59615 233.05069 239.71616 244.01435 249.46889 252.50162 257.35618 260.3889 269.78163 276.15254 281.00709 285.86164 291.3162 297.38166 301.67985 310.17805 315.6326 318.9708">Afinancialinterestisnotmaterialsolelybecauseof:</tspan></text>
<text xml:space="preserve" transform="matrix(1 0 -0 1 0 792)" font-size="10.9091" font-family="LMRoman10"><tspan y="-348.52299" x="72">&#x2022;</tspan></text>
<text xml:space="preserve" transform="matrix(1 0 -0 1 0 792)" font-size="10.9091" font-family="LMRoman10"><tspan y="-348.52299" x="85.94183 90.79639 96.25094 105.33822 111.70914 116.56369 122.62915 126.92734 132.38188 136.62552 139.65825 145.1128 154.81099 159.08736 163.94191 168.79647 173.65102 176.68375 182.1383 186.99286 196.70197 202.15651 210.08744 215.54198 225.24018 230.09473 239.182 245.24747 248.2802 253.42929 258.89476 263.7493 272.23658 278.30204 284.3675 290.43296 295.2875 303.1966 307.49479 311.73844 317.193 323.25846 329.3239 334.77848 339.05485 348.76396 353.6185 362.70579 368.77125 371.80397 376.95307 382.71308 391.80036 396.6549 402.41493 410.30223 414.54588 419.40043 423.6659 432.75318">compensationreceivedasanemployeeunderstandardemploymentterms</tspan></text>
<text xml:space="preserve" transform="matrix(1 0 -0 1 0 792)" font-size="10.9091" font-family="LMRoman10"><tspan y="-326.206" x="72">&#x2022;</tspan></text>
<text xml:space="preserve" transform="matrix(1 0 -0 1 0 792)" font-size="10.9091" font-family="LMRoman10"><tspan y="-326.206" x="85.94183 90.2182 95.072757 98.105487 106.88731 112.95277 119.01823 123.29459 127.59278 132.44733 141.5346 146.38916 152.14917 160.03646 163.37464 168.82918 176.73828 182.80374 188.56374 193.41829 199.48375 208.57103 213.42559 219.1856 223.42923 228.28379 237.98198 242.83654 248.59654 254.96746 259.822 265.88746 270.18565 275.0402">reimbursementfordocumentedexpenses</tspan></text>
<text xml:space="preserve" transform="matrix(1 0 -0 1 0 792)" font-size="10.9091" font-family="LMRoman10"><tspan y="-303.88999" x="72">&#x2022;</tspan></text>
<text xml:space="preserve" transform="matrix(1 0 -0 1 0 792)" font-size="10.9091" font-family="LMRoman10"><tspan y="-303.88999" x="85.94183 92.00729 100.494579 109.581859 112.614589 118.680049 121.712779 130.80005 133.83278 141.77462 147.22916 150.26189 153.60007 157.8437 165.77463 171.84009 174.87282 179.171 184.02556 187.05829 192.51284 196.81102 201.66558 211.36377 216.81832 222.89469 232.59288 238.04743 244.11289 250.17835 254.45471 259.60383 265.05839 269.91294 279.62205 285.6875 291.75297 297.81843 302.67298 310.58207 316.95298 322.40754 325.44026 328.47297 333.3275">deminimisgiftsdisclosedandapprovedunderpolicy</tspan><tspan y="-277.589" x="71.596 79.777828 85.53783 94.94147 99.217838 104.07239 109.52694 113.82513 119.27968 125.34514 130.79969 136.86515 139.89788 148.38516 154.45063 159.90517 165.97063 172.03609 179.91246 185.367 193.30884 197.55248 206.63976 215.72704 221.18158 225.42522 230.27977 234.55614 237.58887 243.04341 246.07614 249.10887 253.04706 262.4507 271.23255 277.298 281.5962 289.47257 295.84349 304.33076 308.60713 313.46168 317.75987 323.21443 326.24714 331.7017 336.55625 346.26536 349.29808 358.99626 362.33445 367.48356 372.949 378.40357 386.31266 391.7672 398.73814 403.59269 406.6254 412.07997 416.37815 420.67634 423.70906 426.74177 429.7745 434.62907 440.08363 444.32728 447.36 452.81455 462.52366 467.9782 475.90913 484.9964 490.45097 494.6946 499.54917 503.82554 506.85826 512.3128 515.3455">Anyreasonabledoubtastomaterialitymustberesolvedinfavorofclassificationasmaterial.</tspan><tspan y="-257.26499" x="72 82.00365 88.06911 92.312747 97.767299 103.832759 106.865489 109.89822 112.93095 116.869129 122.62913 130.5164 138.69823 144.76369 149.31279 155.37825 160.8328 166.89826 172.3528 177.20735 182.6619 188.72736 191.76009">Mutability:Unchangeable</tspan></text>
<text xml:space="preserve" transform="matrix(1 0 -0 1 0 792)" font-size="11.9552" font-family="LMRoman12" font-weight="bold"><tspan y="-228.05599" x="72 78.73078 82.47276 89.203548">4.22</tspan></text>
<text xml:space="preserve" transform="matrix(1 0 -0 1 0 792)" font-size="11.9552" font-family="LMRoman12" font-weight="bold"><tspan y="-228.05599" x="106.02451 111.033748 118.505748 125.977748 132.11077 139.95337 146.08638 153.55838 161.03038 167.16339 174.26479 179.50116 183.24314 194.82773 203.86586 210.40535 214.14733 221.61933 227.75234 239.70754 250.22812 256.9589 264.4309 269.739 273.481 280.953 292.167 301.73115 307.86418 315.33619 321.4692 325.2052 328.94123">IndependentlyValuedHousingBenefit</tspan></text>
<text xml:space="preserve" transform="matrix(1.0079683 0 -0 .99209478 0 792)" font-size="10.996026" font-family="LMRoman10"><tspan y="-209.1161" x="71.03001 79.27703 88.98652 92.956089 99.06988 105.18366 110.0769 116.48757 121.3808 127.49459 133.60839 138.5016 144.31851 148.59597 151.65287 161.04346 168.3888 173.88681 176.9437 183.0575 187.95072 197.66022 205.90723 211.40525 217.51903 221.85147 224.90837 231.02216 240.11588 247.90106 252.79428 258.90809 263.80134 266.85823 269.9151 277.77726 280.83418 288.7623 297.85603 303.9698 309.4678 315.58158 319.24327 323.5207 327.83116 333.32914 339.44294 343.77537 347.14015 352.0334 356.3438 361.84184 367.9556 371.0125 375.90574 382.55836 388.67216 394.17015 400.28395 403.94563 409.14674 417.08586 423.19966 426.25654 432.37034 441.45304 445.7635 450.6567 454.98915 458.04606 464.15986 469.05308 474.86997 479.1474 482.2043 487.7023 494.35493 500.46873 504.80116 513.2791 517.58956 520.6464 526.1444 531.96139">AnIndependentlyValuedHousingBenefitisanon-transferable,non-owningresidentialuseright</tspan></text>
<text xml:space="preserve" transform="matrix(1 0 -0 1 0 792)" font-size="10.9091" font-family="LMRoman10"><tspan y="-193.914" x="72 78.06546 82.34183 87.49092 93.25092 96.28365 102.34911 107.20366 116.91276 121.210948 126.6655 129.69823 134.55278 137.58551 146.97826 150.31644 155.77098 163.68009 169.13463 173.411 178.86554 184.32009 190.38555 193.41828 198.27283 203.72737 207.97101 211.00374 216.45829 222.52375 227.97829 234.64376 239.4983 244.95285 250.72377 254.9674 258.00013 263.76014 269.8256 272.8583 276.7965 281.65107 288.3165 292.6147 297.46925 302.3238 308.38926 312.66563 315.69834 319.63655 324.4911 331.15653 336.61109 344.5311 349.98567 356.34568 361.20024 365.4766 370.93116 375.1748 378.20753 383.66209 389.72755 395.1821 401.85847 407.92393 412.77848 417.63304 422.48759 426.78578 431.08396 434.11668 438.05488 442.90943">providedsolelyfororganizationalcontinuity,security,oroperationalnecessity.</tspan><tspan y="-173.59" x="72 78.06546 84.13092 88.680019 98.389118 107.476398 113.84731 118.70186 124.76732 129.62187 132.6546 135.68733 139.93097">Suchabenefit:</tspan></text>
<text xml:space="preserve" transform="matrix(1 0 -0 1 0 792)" font-size="10.9091" font-family="LMRoman10"><tspan y="-147.289" x="72">&#x2022;</tspan></text>
<text xml:space="preserve" transform="matrix(1 0 -0 1 0 792)" font-size="10.9091" font-family="LMRoman10"><tspan y="-147.289" x="85.94183 94.723659 100.789119 105.0873 112.97458 119.33459 127.83277 132.13095 138.19641 144.26187 150.63278 156.08733 160.3637 164.60733 169.46189 179.16008 184.92009 194.32375 203.41103 209.47649 215.23648 220.09104 226.1565 235.24378 240.09833 245.85834 250.10198 254.95653 264.6547 270.72016 276.7856 281.0838 284.11653 290.19288 295.03654 299.3456 303.6438 307.27653 313.34199 318.19654 323.0511 327.89476 332.20384 336.502 339.53474 343.47294 352.86567 357.14204 362.5966 366.84025 369.87297 375.3275 381.39299 386.84754 389.88026">mustbesupportedbyadocumentedbusiness-necessityrationale</tspan></text>
<text xml:space="preserve" transform="matrix(1 0 -0 1 0 792)" font-size="10.9091" font-family="LMRoman10"><tspan y="-124.972" x="72">&#x2022;</tspan></text>
<text xml:space="preserve" transform="matrix(1 0 -0 1 0 792)" font-size="10.9091" font-family="LMRoman10"><tspan y="-124.972" x="85.94183 94.723659 100.789119 105.0873 112.97458 119.33459 127.83277 130.8655 136.93096 142.99642 147.85097 154.22188 159.07643 165.14189 171.20735 176.0619 181.82192 186.06555 189.09828 198.49103 203.65103 209.10558 212.1383 218.20377 223.05832 232.75652 238.21106 246.08744 249.42562 254.88016 257.91288 265.8329 274.92018 280.37474 284.6511 290.10566 294.9602 302.83659 307.11296 311.9675 317.7275 321.97117 327.42573 334.10209 339.2512 344.70576 347.73847 353.80393 362.2912 368.0621 377.45484 386.5421 392.30213 398.36759 403.82215 406.85487 409.88758 412.9203 415.95304 420.8076 426.87306 433.5494 439.61488 442.64759 446.94578 449.9785 455.7385 459.98216 464.8367 469.11308 473.96763 478.2658 482.50947 487.364 497.0622 502.51676 506.81495 511.11314 515.96768 520.2658 524.56399 530.0185">mustbeindependentlyvaluedatfairmarketrentalvaluebyaqualified,disinterestedassessor</tspan></text>
<text xml:space="preserve" transform="matrix(1 0 -0 1 0 792)" font-size="10.9091" font-family="LMRoman10"><tspan y="-102.656" x="72">&#x2022;</tspan></text>
<text xml:space="preserve" transform="matrix(1 0 -0 1 0 792)" font-size="10.9091" font-family="LMRoman10"><tspan y="-102.656" x="85.94183 94.723659 100.789119 105.0873 112.97458 119.33459 127.83277 132.10913 136.96369 142.7237 145.75643 150.61098 158.1819 163.03646 172.73465 179.10556 183.96012 188.23648 191.26921 197.0292 203.09467 206.1274 210.98195 216.4365 219.46923 222.50196 231.8947 237.34925 245.28017 249.55654 254.41109 260.17109 266.23655 269.26927 273.54563 278.40019 288.10929 293.8693 303.26203 307.50569 313.57115 316.60386 324.5457 330.61116 336.36027 341.2148 347.28028 356.36756 361.2221 366.993">mustbereviewedperiodicallyasrequiredbythisdocument</tspan></text>
<text xml:space="preserve" transform="matrix(1 0 -0 1 0 792)" font-size="10.9091" font-family="LMRoman10"><tspan y="-80.34" x="72">&#x2022;</tspan></text>
<text xml:space="preserve" transform="matrix(1 0 -0 1 0 792)" font-size="10.9091" font-family="LMRoman10"><tspan y="-80.34" x="85.94183 94.723659 100.789119 105.0873 112.97458 119.33459 127.83277 133.89823 136.93096 141.22914 146.0837 149.11643 154.57097 158.86916 163.72371 173.4219 176.45464 182.21465 186.45829 191.31284 195.5892 201.65467 207.1092 210.14194 213.17467 222.57833 228.03287 234.09833 243.79653 246.82926 256.52745 262.5929 268.04747 274.1238 279.57838 283.84385 287.48747 290.82566 296.2802 301.13478 304.1566 310.23295 319.32023 323.56388 327.84025 333.2948 339.36027 343.65846 349.7239 355.17848 359.45484 364.3094 370.37486 375.2294 384.62214 393.7094 399.16398 403.40763 408.26219 412.53855 415.57127 421.02583 424.05854">mustbedisclosedinternallyandindonor-facingtransparencymaterials</tspan></text>
<text xml:space="preserve" transform="matrix(1 0 -0 1 0 792)" font-size="10.9091" font-family="LMRoman10"><tspan y="-42.111997" x="300.54499 305.99955">16</tspan></text>
</svg>
