<svg xmlns="http://www.w3.org/2000/svg" xmlns:xlink="http://www.w3.org/1999/xlink" xmlns:inkscape="http://www.inkscape.org/namespaces/inkscape" version="1.1" width="612" height="792" viewBox="0 0 612 792">
<text xml:space="preserve" transform="matrix(1 0 -0 1 0 792)" font-size="10.9091" font-family="LMRoman10"><tspan y="-709.041" x="72">&#x2022;</tspan></text>
<text xml:space="preserve" transform="matrix(1.0099504 0 -0 .99014756 0 792)" font-size="11.017651" font-family="LMRoman10"><tspan y="-716.0963" x="85.09329 90.60212 96.727939 108.153247 114.27905 119.18191 128.35962 133.86844 139.99427 144.33522 148.62108 152.94 158.44882 162.73468 167.63755 179.07386 183.35973 194.16803 200.59133 210.79367 216.9305 221.82234 226.7252 231.62805 235.96903 240.30998 245.8188 250.13773 261.26554 265.55143 276.35975 282.48554 286.80448 291.70735 296.04829 300.95115 305.27006 310.78993 320.99226 330.16996 333.23286 337.57383 341.91477 344.9777 350.48649 356.6123 360.2812 365.79 368.8529 371.9158 377.42463 383.55046 388.45329 399.8786 404.78144 410.29026 416.1186 420.40446 423.46739 429.2957 435.4215 438.4844 442.4728 453.58964 461.5444 464.6073 468.89317 475.01899 480.5278 486.65364 496.23899 501.14186 505.46076 510.36366 515.8725 520.1583 523.22128 529.34707">anddemonstratedtobenecessarytopreservemission-alignedcontinuitywithoutcreating</tspan></text>
<text xml:space="preserve" transform="matrix(1 0 -0 1 0 792)" font-size="10.9091" font-family="LMRoman10"><tspan y="-695.492" x="85.94 92.00546 96.860019 103.230937 108.08548 114.15094 120.2164 125.07095 131.13642 135.99097 145.38372 150.83826 158.74736 163.60192 169.36193 173.60556 177.88193 183.33647 188.19103 192.43466 195.46739 200.92194 210.63105 214.90741 217.94014 222.23833 227.99834">dependencyorextractionrisk.</tspan></text>
<text xml:space="preserve" transform="matrix(.9899495 0 -0 1.0101526 0 792)" font-size="10.799458" font-family="LMRoman10"><tspan y="-662.4652" x="72.73098 78.73548 84.739978 90.74448 94.999469 98.00171 104.00621 107.00846 112.408199 116.64158 125.63753 131.64203 134.64427 138.89926 143.10025 147.33364 150.33589 156.3404 162.3449 166.54589 169.54813 174.94786 180.95236 188.49039 192.69138 201.38494 209.48453 214.27948 225.37053 233.6213 239.02104 244.42076 249.8205 254.62625 258.85966 261.8619 267.26164 273.2661 282.55366 291.24723 297.25175 301.5067 308.99073 314.9952 320.39494 327.88978 334.19667 342.29624 346.5296 351.33537 357.33988 361.57325 366.3682 370.63398 375.42893 381.13105 385.332 390.13777 399.4361 404.83583 412.37385 418.37834 423.77809 429.78257 435.1823 439.41569 443.0119 449.01643 452.01866 456.25205 461.05778 465.86354 470.06449 474.87025 484.15779 490.16227 496.16679 499.169 503.97477 508.22975 515.77859 518.7808 523.58657 528.98629 534.386 537.38827 540.39047">SubsidiarydistributionstoNewDoggerlandmustnotberepresentedasdonor-directedunlesslegally</tspan></text>
<text xml:space="preserve" transform="matrix(1.0009996 0 -0 .9990015 0 792)" font-size="10.920003" font-family="LMRoman10"><tspan y="-656.29629" x="71.9281 76.20874 81.06814 85.37063 89.61851 93.89915 96.934909 101.79431 106.04219 110.901599 120.60948 126.06948 132.14099 141.8598 146.14044 150.99985 155.85926 161.31925 165.59987 171.6714 176.53079 186.23868 191.69869 199.64844 203.95092 210.02243 214.57608 220.6476 228.55367 234.6252 240.69672 246.76824 251.07071 254.10646 260.17799 263.2137 268.6737 272.95436 282.3674 288.4389 292.71955 298.17955 301.2153 304.25105 308.49894 316.43778 325.2284 331.31083 335.6133 343.49757 349.56907 355.02906 362.92424 369.2906 377.79728 382.0779 386.93733 389.97306 393.00883 397.86824 407.57609 413.64759 420.02485 425.48484 435.1927 439.44059 448.54789 451.88938 457.96089 462.26338 466.51127 469.54704 472.88853 482.29063 486.57127 491.43067 497.50218 503.5846 508.43309 512.6809 515.71676 521.1767 530.8955 536.3555">restrictedandrecordedassuch.Subsidiaryprofitsmustnotbereliedupontojustifyreductionof</tspan></text>
<text xml:space="preserve" transform="matrix(1 0 -0 1 0 792)" font-size="10.9091" font-family="LMRoman10"><tspan y="-642.092" x="72 77.45455 83.214557 92.618198 100.95274 103.98547 109.440029 115.505489 118.538219 122.476398 131.86914 138.99279 142.02552 147.7855 153.24005 161.14916 166.6037 172.66916 175.70189 178.73462 184.18917 189.6437 193.88735 196.92008 202.37462 208.44008 216.38191 222.44738 228.51284 234.5783 239.43285 247.34195 253.40741 258.26197 263.11653 267.36018 270.39289 275.84745">anyDignityFloorobligationsunderSection</tspan></text>
<text xml:space="preserve" transform="matrix(1 0 -0 1 0 792)" font-size="10.9091" font-family="LMRoman10"><tspan y="-642.092" x="285.54563 291.00019 294.0329 299.48747">4.26</tspan></text>
<text xml:space="preserve" transform="matrix(1 0 -0 1 0 792)" font-size="10.9091" font-family="LMRoman10"><tspan y="-642.092" x="308.58567 314.04023 321.9493 326.19297 335.28025 339.57844 345.6439 351.70936 356.00755 359.04026 365.1057 368.13844 372.99299 381.49119 386.34574 392.10575 396.3494 400.62577 406.08033 410.93489 415.17854 418.21125 423.6658 432.15309 435.1858 440.64036 447.01127 452.46583 460.3749 466.44038 470.71675 476.1713 481.02586 485.2695 488.30223 493.15678 498.01133 502.3095">ortosubsidizeextractivelaborpractices.</tspan><tspan y="-621.768" x="72 82.00365 88.06911 92.312747 97.767299 103.832759 106.865489 109.89822 112.93095 116.869129 122.62913 130.5164 138.69823 144.76369 149.31279 155.37825 160.8328 166.89826 172.3528 177.20735 182.6619 188.72736 191.76009">Mutability:Unchangeable</tspan></text>
<text xml:space="preserve" transform="matrix(1 0 -0 1 0 792)" font-size="11.9552" font-family="LMRoman12" font-weight="bold"><tspan y="-592.559" x="72 78.73078 82.47276">6.6</tspan></text>
<text xml:space="preserve" transform="matrix(1 0 -0 1 0 792)" font-size="11.9552" font-family="LMRoman12" font-weight="bold"><tspan y="-592.559" x="99.29373 106.76573 114.23773 121.70973 127.01784 130.75981 138.23181 141.97379 148.51328 154.01267 165.59726 173.06926 180.17066 187.64266 192.87903 200.35103 206.69924 216.41881 223.89081 232.11598 242.42137 246.16335 252.89414 259.02717 264.33528 269.57167 280.78565 286.91868 294.02009 299.25648 307.48167 314.21244 324.19505 334.50044 338.2424 343.5505 348.8586 355.5894 359.33137 366.80335 372.03974 375.7817 382.51249 394.4677 404.25904 411.73103 416.9674 424.4394 431.17018 436.66957 440.41154 445.2773">SubsidiaryShutdown,Divestment,orDissolutionAuthority</tspan></text>
<text xml:space="preserve" transform="matrix(1.0099504 0 -0 .99014756 0 792)" font-size="11.017651" font-family="LMRoman10"><tspan y="-577.65737" x="71.290637 77.41644 83.24478 89.37059 93.65646 99.78227 104.99363 112.94837 119.07418 126.23566 132.36148 135.4244 140.94423 145.84709 150.18805 154.4739 163.65161 168.55448 174.38282 178.66869 185.83016 191.95597 195.01888 199.35984 203.7118 209.22063 212.27252 218.40935 222.69522 225.75812 231.26696 237.39276 244.55423 250.06307 258.3814 261.4443 266.95314 271.3051 279.64549 285.1543 292.52513 297.42796 302.93678 308.7651 313.05097 317.3699 322.87873 329.95207 335.46089 342.83168 348.34049 354.16883 363.98558 371.9403 377.44914 383.27748 387.56333 391.88227 397.39109 400.45399 403.5169 408.41975 418.54499 424.67079 430.7966 436.93345 441.2744 444.3373 450.46315 453.52604 459.03486 463.3538 473.17054 478.07337 483.58219 489.708 494.04896 498.33485 501.39775 505.68363 511.80946 516.0953 520.99819 529.3385">Shutdown,divestment,dissolution,orlossofcontrolofanyControlledSubsidiaryconstitutesa</tspan></text>
<text xml:space="preserve" transform="matrix(.99949988 0 -0 1.0005003 0 792)" font-size="10.903644" font-family="LMRoman10"><tspan y="-558.13778" x="72.03603 82.034679 87.4865 91.72802 96.58014 100.85437 103.88558 109.3374 116.01044 123.882869 128.73499 132.9765 136.0077 141.45954 151.15288 157.2153 163.27771 169.35103 174.19226 182.10832 188.17073 193.02286 197.87499 202.1165 205.14772 210.59955">MaterialActionunderSection</tspan></text>
<text xml:space="preserve" transform="matrix(.99949988 0 -0 1.0005003 0 792)" font-size="10.903644" font-family="LMRoman10"><tspan y="-558.13778" x="220.30379 225.7556 228.78682 234.23863">4.10</tspan></text>
<text xml:space="preserve" transform="matrix(.99949988 0 -0 1.0005003 0 792)" font-size="10.903644" font-family="LMRoman10"><tspan y="-558.13778" x="243.32138 248.77321 254.83563 264.53987 268.8141 273.6662 279.42335 285.48576 288.51698 292.7912 297.6433 305.58119 314.66389 322.68898 327.54109 332.39323 337.84504 342.11927 348.1817 353.0338 362.73805 371.06846 375.92057 380.7727 383.80393 388.09996 391.13117 396.58299 406.2872 413.4073 418.8591 423.10066 428.85777 436.4249 441.5714 450.97038 457.03279 463.09519 469.15763 474.00975 481.92579 487.9882 492.84034 497.69245 501.934 504.96519 510.41703">andrequiresaRecordedDecisionPathwayunderSection</tspan></text>
<text xml:space="preserve" transform="matrix(.99949988 0 -0 1.0005003 0 792)" font-size="10.903644" font-family="LMRoman10"><tspan y="-558.13778" x="520.11038 525.5622 528.59347 534.0453">4.11</tspan></text>
<text xml:space="preserve" transform="matrix(.99949988 0 -0 1.0005003 0 792)" font-size="10.903644" font-family="LMRoman10"><tspan y="-558.13778" x="539.4971">.</tspan></text>
<text xml:space="preserve" transform="matrix(.9899495 0 -0 1.0101526 0 792)" font-size="10.799458" font-family="LMRoman10"><tspan y="-532.6849" x="72.33399 80.131198 86.1357 93.857318 102.33489 107.432239 112.83196 117.637729 121.87111 127.87561 130.87787 136.88237 145.19795 152.84397 158.54608 164.56139 173.17935 182.1753 187.27265 195.89061 201.29035 207.29485 211.49584 217.50034 222.90006 227.13346 230.1357 234.94147 242.66309 246.91806 252.62018 258.62467 262.82566 268.83015 273.9275 281.7247 290.64506 296.04478 303.2048 309.20933 312.21156 317.6005 322.40626 326.66123 330.8622 339.85816 344.6639 350.36604 357.48286 363.18498 371.81373 377.81825 383.82273 390.1296 394.93537 399.16874 408.1647 413.86683 417.17146 422.57118 426.80458 429.8068 433.70539 442.32334 447.72309 453.1228 457.32377 465.04536 471.04988 477.06517 483.06965 487.8754 495.02464 501.0291 505.83488 510.6406 514.84158 517.8438 523.2435">TheGoverningBodymayauthorizeshutdownordivestmentbySupermajorityvoteunderSection</tspan></text>
<text xml:space="preserve" transform="matrix(.9899495 0 -0 1.0101526 0 792)" font-size="10.799458" font-family="LMRoman10"><tspan y="-532.6849" x="532.1639 537.56369 540.56588">4.5</tspan></text>
<text xml:space="preserve" transform="matrix(1 0 -0 1 0 792)" font-size="10.9091" font-family="LMRoman10"><tspan y="-524.544" x="72 75.03273 82.00365 87.4582 93.22911 102.62184 108.07639 115.04731 119.29095 125.35641 133.8546 137.19278 142.64733 145.68006 148.71279 153.86188 161.73825 164.77098 170.83644 179.92372 184.77828 190.23282 196.29828 202.36374 205.39647 209.6401 212.67284 218.12738 224.19284 232.13468 237.58922 241.86559 250.35288 259.44017 264.2947 268.53837">ifanyofthefollowingconditionsaremet:</tspan></text>
<text xml:space="preserve" transform="matrix(1 0 -0 1 0 792)" font-size="10.9091" font-family="LMRoman10"><tspan y="-498.243" x="72">&#x2022;</tspan></text>
<text xml:space="preserve" transform="matrix(1 0 -0 1 0 792)" font-size="10.9091" font-family="LMRoman10"><tspan y="-498.243" x="85.94183 90.18547 96.25093 104.73821 109.0364 115.10186 121.16732 125.47642 128.49823 134.5746 137.60733 143.06188 147.32733 156.73099 165.81827 171.27281 175.51645 180.371 184.64737 187.6801 193.13465 196.16738 199.2001 208.59285 214.65831 220.72377 226.78923 231.64379 235.92015 245.00743 248.04016 254.10562 258.96018 266.89109 271.13475 277.2002 285.6984 295.70204 298.73475 303.03294 307.33113 310.36384 315.8184 325.51658 332.33476 338.09477 342.64387 352.0366 355.0693 364.7784 370.84388 375.69844 380.55299 384.79664 387.82936 393.2839">thesubsidiarymateriallyunderminestheMissionLockinSection</tspan></text>
<text xml:space="preserve" transform="matrix(1 0 -0 1 0 792)" font-size="10.9091" font-family="LMRoman10"><tspan y="-498.243" x="402.9821">1</tspan></text>
<text xml:space="preserve" transform="matrix(1 0 -0 1 0 792)" font-size="10.9091" font-family="LMRoman10"><tspan y="-498.243" x="408.43666">,</tspan></text>
<text xml:space="preserve" transform="matrix(1 0 -0 1 0 792)" font-size="10.9091" font-family="LMRoman10"><tspan y="-475.927" x="72">&#x2022;</tspan></text>
<text xml:space="preserve" transform="matrix(.9899495 0 -0 1.0101526 0 792)" font-size="10.799458" font-family="LMRoman10"><tspan y="-471.14366" x="86.81251 91.0135 97.018 104.610019 108.865 114.8695 120.874 125.13978 128.14203 134.14653 137.14878 142.54851 146.78189 155.27027 160.07602 164.30942 169.11518 174.51491 178.7159 183.52165 190.5629 199.55884 204.95858 209.15956 213.96532 218.19872 221.20096 226.6007 232.3892 239.88402 244.68978 247.69203 250.99668 256.3964 260.6298 265.43553 271.40763 277.41215 280.41438 285.81413 291.8186 294.82087 298.70866 303.49284 309.46495 313.7199 319.11964 322.4243 327.23 331.1286 335.91279 341.87409 347.2738 354.30427 358.55924 362.76023 367.56596 375.05 380.4497 384.6831 390.6876 394.94258 400.94709 403.94935 412.7509 416.98426 419.9865 424.2415 432.7299 438.1296 445.18168 451.18617 455.9919 458.99418 461.9964 468.00093 472.80665 481.59745 484.59968 493.40126 499.40574 504.2115 509.01725 513.2182 516.20968 521.6094">thesubsidiarycreatesmaterialwelfare,dignity,safety,orstewardshipriskasdefinedinSection</tspan></text>
<text xml:space="preserve" transform="matrix(.9899495 0 -0 1.0101526 0 792)" font-size="10.799458" font-family="LMRoman10"><tspan y="-471.14366" x="530.41098 535.81069 538.81289">4.9</tspan></text>
<text xml:space="preserve" transform="matrix(.9899495 0 -0 1.0101526 0 792)" font-size="10.799458" font-family="LMRoman10"><tspan y="-471.14366" x="544.2126">,</tspan></text>
<text xml:space="preserve" transform="matrix(1 0 -0 1 0 792)" font-size="10.9091" font-family="LMRoman10"><tspan y="-453.61" x="72">&#x2022;</tspan></text>
<text xml:space="preserve" transform="matrix(1 0 -0 1 0 792)" font-size="10.9091" font-family="LMRoman10"><tspan y="-453.61" x="85.94183 90.18547 96.25093 104.73821 109.0364 115.10186 121.16732 125.47642 128.49823 134.5746 137.60733 143.06188 147.32733 156.73099 161.00736 165.86191 171.62192 177.68738 180.72011 184.99648 189.85103 197.78195 203.2365 209.30196 214.7565 220.21105 223.24378 229.30924 238.39652 242.70561 248.77108 254.83654 259.1347 262.16743 268.23289 277.6256 280.9638 285.24018 290.69474 303.41474 311.59657 316.4511 327.97114 336.3057 341.76026 347.2148 352.66938 357.52394 361.8003 364.833 370.28758 376.35304 386.0512 389.08393 398.7821 404.5421 407.57484 413.0294 416.0621 421.51667 425.7603 428.79304 434.2476 443.9567 449.41127 456.38218 462.44764 467.3022 472.15675 476.4004 479.4331 484.88768">thesubsidiaryrequiresongoingsubsidyfromNewDoggerlandinviolationofSection</tspan></text>
<text xml:space="preserve" transform="matrix(1 0 -0 1 0 792)" font-size="10.9091" font-family="LMRoman10"><tspan y="-453.61" x="494.58586 500.0404 503.07313">6.5</tspan></text>
<text xml:space="preserve" transform="matrix(1 0 -0 1 0 792)" font-size="10.9091" font-family="LMRoman10"><tspan y="-453.61" x="508.52769">,</tspan></text>
<text xml:space="preserve" transform="matrix(1 0 -0 1 0 792)" font-size="10.9091" font-family="LMRoman10"><tspan y="-431.29399" x="72">&#x2022;</tspan></text>
<text xml:space="preserve" transform="matrix(1.0099504 0 -0 .99014756 0 792)" font-size="11.017651" font-family="LMRoman10"><tspan y="-435.5856" x="85.09329 89.37916 95.504978 104.80387 109.14482 115.27064 121.396457 125.737407 128.80031 134.92613 137.98903 143.49787 147.81678 158.03014 164.15596 168.47487 173.36672 177.71869 182.61054 188.43888 192.72475 201.46175 206.36461 210.68354 215.58638 221.7122 224.7751 230.90093 233.96382 243.26273 248.16559 253.67443 262.8521 268.97795 272.04084 275.10374 280.61256 286.73838 291.6412 300.92909 305.24803 308.3109 312.6519 322.86524 327.15113 333.27696 338.78575 347.46769 352.3705 357.87934 364.00517 370.13096 375.63978 384.31068 390.74497 400.03285 409.2105 412.27345 416.5593 419.6222 425.131 430.63984 434.92573 439.82856 450.3504 454.6363 460.76213 465.08103 470.58985 476.71568 482.2245 492.74635 498.87217 504.38096 508.6999 513.0188 518.23019 525.8764 530.7793">thesubsidiarypresentscrediblecomplianceriskthatcannotbemitigatedthroughnarrower</tspan></text>
<text xml:space="preserve" transform="matrix(1 0 -0 1 0 792)" font-size="10.9091" font-family="LMRoman10"><tspan y="-417.745" x="85.94 90.794559 96.24911 102.00911 106.25275 110.52911 115.983669 119.016399 123.31458">controls.</tspan></text>
<text xml:space="preserve" transform="matrix(1.0004999 0 -0 .9995003 0 792)" font-size="10.914554" font-family="LMRoman10"><tspan y="-391.6387" x="71.560237 83.38069 89.44919 95.51768 101.58617 105.886508 108.920749 114.989238 118.023479 123.48076 127.75927 137.15671 145.72463 150.87631 156.33359 161.19057 165.46906 171.53755 176.99483 183.06331 187.92029 196.41182 204.29213 210.36061 215.81789 220.09639 224.34215 229.19913 237.10126 245.88748 251.96689 256.26725 264.13667 267.1709 273.2394 278.09638 281.1306 287.19914 293.2676 301.75914 310.85093 319.94279 324.79975 329.3511 335.41963 340.8769 346.94538 349.97966 354.8366 360.29389 366.95179 371.2521 377.02595 383.09443 387.3402 393.4087 398.56037 406.44068 416.1437 421.60096 427.66947 437.3725 445.2528 448.28706 454.35557 460.42408 464.0586 470.1271 475.27876 483.15907 492.8621 498.9306 503.2091 508.97196 513.818 518.6749 524.74349 530.8229 535.09048">ASubsidiaryGovernanceChartermustincludeamechanicalshutdownandwind-downprocedure</tspan></text>
<text xml:space="preserve" transform="matrix(1.0014988 0 -0 .9985033 0 792)" font-size="10.925451" font-family="LMRoman10"><tspan y="-378.46046" x="71.89225 76.14225 82.2168 87.67953 95.55678 101.63133 105.91411 108.951389 114.414119 118.6969 121.73417 125.98417 129.02146 133.88327 138.7451 146.67699 149.71425 154.57608 160.0388 165.50154 172.16606 177.02788 182.49062 191.59152 197.66608 200.70336 203.74063 209.20336 215.2779 220.13973 225.00154 231.67699 235.98163 240.23163 245.69437 248.87914 255.69115 261.7657 264.80299 270.26573 276.34025 279.37754 283.32164 292.71754 298.79209 303.07484 308.53758 312.78758 317.64939 322.51124 326.76124 329.79853 335.26124 341.3358 345.6404 352.31587 357.7786 363.85313 373.55494 379.62947 383.91224 388.77406 394.2368 399.0986 404.86726 409.11726 412.15455 417.61729 427.33 432.7927 439.76316 445.8377 451.3004 455.5832 468.31135 472.56135 481.65135 487.11408 493.1886 496.2259 505.32679 510.78953 513.8268 521.7696 527.2323 533.3069">thatprioritizeslegalcompliance,staffdignityprotections,andpreventionofharmtoanimalsand</tspan></text>
<text xml:space="preserve" transform="matrix(1 0 -0 1 0 792)" font-size="10.9091" font-family="LMRoman10"><tspan y="-364.345" x="72 78.37092 83.225467 87.50183 91.80002 97.25457 103.32003 107.61822">persons.</tspan><tspan y="-344.021" x="72 82.00365 88.06911 92.312747 97.767299 103.832759 106.865489 109.89822 112.93095 116.869129 122.62913 130.5164 138.69823 144.76369 149.31279 155.37825 160.8328 166.89826 172.3528 177.20735 182.6619 188.72736 191.76009">Mutability:Unchangeable</tspan></text>
<text xml:space="preserve" transform="matrix(1 0 -0 1 0 792)" font-size="11.9552" font-family="LMRoman12" font-weight="bold"><tspan y="-314.812" x="72 78.73078 82.47276">6.7</tspan></text>
<text xml:space="preserve" transform="matrix(1 0 -0 1 0 792)" font-size="11.9552" font-family="LMRoman12" font-weight="bold"><tspan y="-314.812" x="99.29373 112.04993 115.79191 121.10002 126.40813 130.1501 136.88088 148.83608 158.02962 163.529 170.25978 175.49616 181.62917 187.60677 192.84314 196.58512 203.31589 215.27109 225.61234 233.08434 240.55634 246.68935 256.67195 264.14393 271.6159 279.0879 284.396 288.13798 295.61 299.35197 305.89146 311.39085 322.97544 333.28083 340.0116 351.2256 354.96757 362.43959 368.97908 376.45106 382.42866">MissionProtectionUnderSubsidiaryDominance</tspan></text>
<text xml:space="preserve" transform="matrix(1.0099504 0 -0 .99014756 0 792)" font-size="11.017651" font-family="LMRoman10"><tspan y="-297.14665" x="71.290637 75.268009 82.319309 87.82813 93.65647 103.14267 111.09741 116.60623 122.43457 126.720439 131.03936 136.54819 139.61109 142.674 147.57686 157.38257 163.50838 169.63419 175.76 180.10097 183.16387 189.28969 192.35259 197.86142 202.18035 211.67754 218.10083 223.00368 227.90654 233.41538 242.59308 247.49594 255.5168 261.02565 267.4489 272.35179 276.6707 282.1795 286.4654 289.5283 295.0371 301.16294 306.67173 309.73466 312.79756 322.29478 328.4206 333.9294 343.1071 346.17 352.2958 357.80464 363.62199 371.58775 375.9287 382.05455 386.65989 396.4656 400.75148 406.8773 412.3861 420.3519 424.6708 429.57368 435.0825 439.42344 444.93226 451.05809 456.56687 462.6927 465.75559 474.32734 478.64625 481.70918 486.0501 495.54737 500.4502 506.26753 509.33049 513.67147 517.9573 525.9781 531.48696">IfanyControlledSubsidiarybecomesoperationallydominantsuchthatreasonableriskexistsof</tspan></text>
<text xml:space="preserve" transform="matrix(.9899495 0 -0 1.0101526 0 792)" font-size="10.799458" font-family="LMRoman10"><tspan y="-277.84913" x="72.73098 81.72692 84.72917 88.98415 93.23914 96.241397 101.64112 111.29584 114.29809 119.98941 125.38914 130.1949 134.42829 138.68328 141.68552 147.08525 156.73996 162.1397 170.0125 175.41223 180.50957 185.9093 190.71506 194.94846 200.95296 206.35268 212.35718 217.16295 225.60813 230.41388 235.81362 241.81812 246.0191 252.0236 256.257 261.06275 267.7152 271.9162 277.9207 286.37666 294.85423 299.95158 305.34049 310.14625 314.3796 320.38414 323.38639 329.39088 338.4408 346.08686 351.78895 357.79347 367.14579 375.83937 381.84385 386.09886 393.95 396.95228 402.9568 405.959 410.16 413.16227 418.56199 422.76295 431.20814 440.25807 449.25404 454.65376 460.65827 466.66276 472.06248 476.26347 481.66319 485.89656 495.24888 501.2534 506.6531 515.64907 518.6513 524.6558 530.05557 536.06008 540.8658">missioninversionorgovernancecapture,theGoverningBodymustinitiateamandatorydominance</tspan></text>
<text xml:space="preserve" transform="matrix(1 0 -0 1 0 792)" font-size="10.9091" font-family="LMRoman10"><tspan y="-267.121" x="72 76.27637 81.13092 86.89092 89.92365 94.7782 106.2873 111.74185 119.68368 128.77097 138.77462 144.22916 148.4728 153.32735 157.60372 160.63645 166.09099 172.75646 180.63283 185.48738 189.73102 192.76375 198.21829 207.9274 213.99286 220.05832 226.12378 230.97834 238.88744 244.9529 249.80745 254.662 258.90565 261.93836 267.3929">reviewasaMaterialActionunderSection</tspan></text>
<text xml:space="preserve" transform="matrix(1 0 -0 1 0 792)" font-size="10.9091" font-family="LMRoman10"><tspan y="-267.121" x="277.0911 282.54566 285.57838 291.03294">4.10</tspan></text>
<text xml:space="preserve" transform="matrix(1 0 -0 1 0 792)" font-size="10.9091" font-family="LMRoman10"><tspan y="-267.121" x="296.4875">.</tspan></text>
<text xml:space="preserve" transform="matrix(1.0099504 0 -0 .99014756 0 792)" font-size="11.017651" font-family="LMRoman10"><tspan y="-249.25276" x="71.290637 77.58171 83.09053 92.36739 98.49321 104.61902 108.937938 115.36123 120.87005 125.211009 130.11386 139.41277 144.92159 153.23993 157.52579 163.6516 166.71451 176.01342 180.35437 186.4802 192.606 196.94696 201.84983 206.75269 211.03855 214.10146 219.61028 225.7361 234.08748 239.5963 246.03061 250.93347 255.25241 260.76124 265.0471 268.11003 273.6078 279.74464 285.25346 293.26329 299.3891 304.89793 314.0756 317.13853 323.2643 328.77314 334.89897 339.8018 349.66258 354.5654 360.38276 363.44566 367.78663 372.07249 381.36039 384.42329 392.7526 398.2614 404.38725 414.237 419.74583 429.02268 438.20039 443.7092 448.02815 457.8779 463.38673 471.71604 476.00193 482.12773 491.9885 495.3599 500.8687 503.9316 506.9945 512.1948 520.1496 523.21249 529.3383">Forpurposesofthissubsection,operationaldominanceexistsifoneormoreofthefollowing</tspan></text>
<text xml:space="preserve" transform="matrix(1 0 -0 1 0 792)" font-size="10.9091" font-family="LMRoman10"><tspan y="-233.248" x="72 76.85455 82.309108 88.374568 94.440029 97.472759 101.71639 104.74912 110.203678 116.269138 124.20005 130.2655 135.72005 138.75278 144.81824 152.76007 156.09825 161.5528 169.4619 173.40009 180.98192 190.0692 194.92375 200.3783 206.44376 210.74195 215.5965 220.45105 226.51651 230.76015 233.79288 239.24744 247.73473 253.49474 259.57109 265.02565 269.2911 273.53477 278.3893 282.66569 285.6984 295.10206 299.37843 304.23298 310.593 316.04756 320.3239 324.56758 327.60029 333.66575 342.76396 349.13487 353.9894 358.26579 361.2985 367.0476 373.11308 377.41127">conditionsholdsfortwoconsecutivequarterlyreportingperiods:</tspan></text>
<text xml:space="preserve" transform="matrix(1 0 -0 1 0 792)" font-size="10.9091" font-family="LMRoman10"><tspan y="-206.946" x="72">&#x2022;</tspan></text>
<text xml:space="preserve" transform="matrix(1 0 -0 1 0 792)" font-size="10.9091" font-family="LMRoman10"><tspan y="-206.946" x="85.94183 90.18547 96.25093 104.73821 109.0364 115.10186 121.16732 125.47642 128.49823 134.5746 137.60733 143.06188 147.32733 156.73099 162.18553 167.04009 171.89464 177.34918 183.41464 189.17465 193.41829 201.34922 204.6874 210.14194 218.06195 227.14923 236.23651 241.9965 245.33469 250.78923 255.0656 258.09834 262.03654 271.42927 276.88383 283.86567 288.7202 294.17478 300.24024 304.53843 309.99299 313.0257 316.0584 322.12388 327.57844 331.82209 336.67665 346.37483 351.82939 356.10575 361.5603 365.8585 373.80033 378.0767 382.92036 388.3858 393.24037 399.00038 405.06584 409.92039">thesubsidiaryaccountsforamajorityofconsolidatedgrossrevenue,</tspan></text>
<text xml:space="preserve" transform="matrix(1 0 -0 1 0 792)" font-size="10.9091" font-family="LMRoman10"><tspan y="-184.63" x="72">&#x2022;</tspan></text>
<text xml:space="preserve" transform="matrix(1 0 -0 1 0 792)" font-size="10.9091" font-family="LMRoman10"><tspan y="-184.63" x="85.94183 90.18547 96.25093 104.73821 109.0364 115.10186 121.16732 125.47642 128.49823 134.5746 137.60733 143.06188 147.32733 156.73099 162.18553 167.04009 171.89464 177.34918 183.41464 189.17465 193.41829 201.34922 204.6874 210.14194 218.06195 227.14923 236.23651 241.9965 245.33469 250.78923 255.0656 258.09834 262.03654 271.42927 276.88383 283.86567 288.7202 294.17478 300.24024 304.53843 309.99299 313.0257 316.0584 322.12388 327.57844 331.82209 336.67665 346.37483 352.44029 357.5894 363.3494 367.62577 373.08033 376.11305 382.7894 388.24397 396.15306 402.2185 407.07307 412.52763 418.59309 423.44764 428.9022 434.96766 440.72767 444.9713">thesubsidiaryaccountsforamajorityofconsolidatedpayrollorheadcount,</tspan></text>
<text xml:space="preserve" transform="matrix(1 0 -0 1 0 792)" font-size="10.9091" font-family="LMRoman10"><tspan y="-162.31401" x="72">&#x2022;</tspan></text>
<text xml:space="preserve" transform="matrix(.9899495 0 -0 1.0101526 0 792)" font-size="10.799458" font-family="LMRoman10"><tspan y="-160.68265" x="86.81251 91.0135 97.018 104.9556 109.21058 115.21508 121.21958 125.47456 128.47682 134.49211 137.48357 142.88329 147.11669 152.81879 155.82105 163.21866 168.02443 173.42415 179.11547 183.31645 187.54984 192.94957 197.75533 201.95632 207.96082 213.36055 219.50543 224.90517 230.90967 233.91191 236.91417 242.3139 247.71363 251.91461 254.91687 260.31663 266.3211 273.70796 279.10768 286.4729 289.47517 292.4774 297.87715 303.88163 306.88389 309.8861 312.88838 317.08937 320.09159 324.89735 332.29496 339.779 345.1787 351.18324 354.1855 363.3326 372.32859 377.7283 381.9293 386.73503 390.9684 393.97065 399.3704 402.37263 405.37489 414.20884 419.0146 424.4143 430.41883 434.6738 438.8748 443.10816 448.50788 451.51014 460.64649 468.74607 473.55183 484.49168 492.74244 498.14216 503.5419 508.94163 513.7474 517.9808 520.97219 526.37197 532.3872 538.3917 541.3939">thesubsidiary&#x2019;scontractualobligationsorliabilitieswouldmateriallyconstrainNewDoggerland&#x2019;s</tspan></text>
<text xml:space="preserve" transform="matrix(1 0 -0 1 0 792)" font-size="10.9091" font-family="LMRoman10"><tspan y="-148.765" x="85.94 91.394557 97.460018 100.492748 103.525478 106.558208 110.49638 119.889118 124.13275 133.23094 138.0855 143.54004 152.62732 158.69278 161.72551 171.11826 178.99463 182.02736 186.271 195.9692 200.21283 206.2892 214.77649 224.78014 227.81287 232.11106 236.40924 239.44197 244.89652 254.59471 261.4129 267.1729 271.72203 281.12568 284.1584 293.85658 299.92204 304.77659 309.63114 313.8748 316.9075 322.36207">abilitytocomplywiththeMissionLockinSection</tspan></text>
<text xml:space="preserve" transform="matrix(1 0 -0 1 0 792)" font-size="10.9091" font-family="LMRoman10"><tspan y="-148.765" x="332.06025">1</tspan></text>
<text xml:space="preserve" transform="matrix(1 0 -0 1 0 792)" font-size="10.9091" font-family="LMRoman10"><tspan y="-148.765" x="337.5148">.</tspan><tspan y="-122.463" x="71.607 79.483379 85.548839 94.03611 100.10157 105.55612 114.6434 117.67613 123.74159 129.19614 135.2616 140.11615 148.61435 152.89072 157.74527 163.50528 166.53801 171.39257 182.90167 191.6835 197.74897 202.04715 206.29079">Thedominancereviewmust:</tspan></text>
<text xml:space="preserve" transform="matrix(1 0 -0 1 0 792)" font-size="10.9091" font-family="LMRoman10"><tspan y="-96.161998" x="72">&#x2022;</tspan></text>
<text xml:space="preserve" transform="matrix(1 0 -0 1 0 792)" font-size="10.9091" font-family="LMRoman10"><tspan y="-96.161998" x="85.94183 92.00729 97.7673 102.62186 108.68732 117.7746 122.62915 128.38916 136.26554 141.12009 146.57463 152.64009 156.88373 162.94919 167.22556 175.72376 180.00012 183.03285 187.33104 193.09105 201.02198 206.47652 212.54198 222.24018 231.32746 234.36019 238.65837 242.96747 246.0002 251.45475 261.15293 264.18565 269.94566 275.4002 280.25477 284.53114 288.8293 291.86204 297.3166 307.0257 311.30207 314.33479 318.63298 324.39299 328.69117">documentcapturerisksandmissioninversionrisks,</tspan></text>
<text xml:space="preserve" transform="matrix(1 0 -0 1 0 792)" font-size="10.9091" font-family="LMRoman10"><tspan y="-42.111997" x="300.54499 305.99955">22</tspan></text>
</svg>
