<svg xmlns="http://www.w3.org/2000/svg" xmlns:xlink="http://www.w3.org/1999/xlink" xmlns:inkscape="http://www.inkscape.org/namespaces/inkscape" version="1.1" width="612" height="792" viewBox="0 0 612 792">
<text xml:space="preserve" transform="matrix(1 0 -0 1 0 792)" font-size="10.9091" font-family="LMRoman10"><tspan y="-709.041" x="72">&#x2022;</tspan></text>
<text xml:space="preserve" transform="matrix(1 0 -0 1 0 792)" font-size="10.9091" font-family="LMRoman10"><tspan y="-709.041" x="85.94183 88.97456 98.061847 106.843669 112.90913 117.15276 122.607318 128.67278 131.7055 140.2037 146.26917 149.3019 153.60009 157.84372 163.29827 167.57463 170.60736 175.46192 180.91646 187.58193 192.43648 198.19649 202.44013 206.71649 209.74922 214.60378 218.90196">immutablehistoricalentries,</tspan></text>
<text xml:space="preserve" transform="matrix(1 0 -0 1 0 792)" font-size="10.9091" font-family="LMRoman10"><tspan y="-686.72506" x="72">&#x2022;</tspan></text>
<text xml:space="preserve" transform="matrix(1 0 -0 1 0 792)" font-size="10.9091" font-family="LMRoman10"><tspan y="-686.72506" x="85.94183 90.79639 95.072757 100.832759 106.89822 111.14185 116.596408 122.05096 126.327327 131.78188 137.84734 143.9128 146.94553 155.43282 160.88736 168.80738 173.35648 179.42194 184.27649 188.82559 194.5856 198.88379 204.94925 214.03653 217.66927 223.73473 229.18927 233.48746 238.34201 248.0402 251.07294 256.84385 261.0875 265.94206 271.3966 275.67298 278.7057 282.6439 292.03663 297.49119 302.34574 306.6221 309.65483 312.68754 315.72029 320.57484 326.0294 330.27305 333.30577 338.7603 344.82579">cryptographicorchecksum-basedintegrityverification,</tspan></text>
<text xml:space="preserve" transform="matrix(1 0 -0 1 0 792)" font-size="10.9091" font-family="LMRoman10"><tspan y="-664.408" x="72">&#x2022;</tspan></text>
<text xml:space="preserve" transform="matrix(1 0 -0 1 0 792)" font-size="10.9091" font-family="LMRoman10"><tspan y="-664.408" x="85.94183 90.2182 95.67275 98.70548 103.56003 107.19276 113.25822 118.71277 123.010959 127.86551 137.5637 143.01825 147.8728 152.72736 157.58191 161.8801 169.82193 174.67649 180.13103 185.89104 190.13468 194.41104 199.86559 202.89832">role-basedaccesscontrol,</tspan></text>
<text xml:space="preserve" transform="matrix(1 0 -0 1 0 792)" font-size="10.9091" font-family="LMRoman10"><tspan y="-642.09207" x="72">&#x2022;</tspan></text>
<text xml:space="preserve" transform="matrix(1 0 -0 1 0 792)" font-size="10.9091" font-family="LMRoman10"><tspan y="-642.09207" x="85.94183 90.2182 95.072757 100.527309 110.225498 115.680049 120.53459 125.389148 130.2437 134.54189 142.48372 145.8219 151.27645 159.18555 164.64009 170.70555 174.94919 181.01465 186.4692 190.74556 193.77829 198.63285 203.4874 213.1856 217.46196 222.31652 228.07653 231.10926 235.9638 243.53473 248.38928 252.66565 256.96385">readaccessforauthorizedreviewers,</tspan></text>
<text xml:space="preserve" transform="matrix(1 0 -0 1 0 792)" font-size="10.9091" font-family="LMRoman10"><tspan y="-619.77609" x="72">&#x2022;</tspan></text>
<text xml:space="preserve" transform="matrix(1 0 -0 1 0 792)" font-size="10.9091" font-family="LMRoman10"><tspan y="-619.77609" x="85.94183 90.79639 96.55639 102.92731 108.38186 112.658229 120.53459 125.389148 130.84369 136.90915 142.3637 148.42916 151.46189 154.49462 157.52735 161.46553 170.86919 174.20737 179.66191 187.57102 193.02556 199.09102 205.15648 208.18921 212.43285">exportcapabilityforaudit.</tspan><tspan y="-593.47409" x="72 80.18182 89.269107 95.334568 99.63275 104.487308 112.40731 121.49459 126.643688 136.03643 142.10189 146.95644 149.98917 154.84372 159.08736 167.57465 173.02919 180.9492 186.0983 191.55286 196.40741 200.68378 208.56015 212.83652 215.86925 220.11289 228.60018 237.69837 243.76383 248.04019 251.07292 260.16023 265.61479 269.89115 279.28388 282.3166 287.77116 296.85844 301.71299 307.473 311.71665 315.993 320.84757">Nousermaydeleteoroverwriteaprimarylogentry.</tspan></text>
<text xml:space="preserve" transform="matrix(1 0 -0 1 0 792)" font-size="14.3462" font-family="LMRoman12" font-weight="bold"><tspan y="-559.1061" x="72">5</tspan></text>
<text xml:space="preserve" transform="matrix(1 0 -0 1 0 792)" font-size="14.3462" font-family="LMRoman12" font-weight="bold"><tspan y="-559.1061" x="92.185108 102.7726 111.738979 116.22934 127.89281 135.74018 144.70655 159.05274 170.7162 178.7931 185.39237 191.99163 199.35123 206.52433 212.80796 217.29831 225.37522 239.7214 250.75363 257.35289 265.42979 271.7134 280.23506 287.40815 295.48506">EditandCorrectionProtocol</tspan></text>
<text xml:space="preserve" transform="matrix(1 0 -0 1 0 792)" font-size="10.9091" font-family="LMRoman10"><tspan y="-534.7571" x="72 79.87637 85.330928 89.60729 93.88366 98.738208 103.59276 107.836399 110.869129 116.32368 122.38914 130.32006 134.56369 143.66188 146.69461 152.14916 157.6037 163.05825 167.9128 177.611 180.64373 186.70919 190.04737 195.5019 199.77828 208.86556 214.3201 218.56374 221.59647 227.05101 236.7492 245.53104 251.6074 255.9056 263.78196 270.15287 278.64015 287.72743 293.18199 299.24745 307.7347 313.18928 319.25474 322.28746 331.6911 337.4511 343.21113">Correctionstologgedinformationmustbemadeonlyby:</tspan></text>
<text xml:space="preserve" transform="matrix(1 0 -0 1 0 792)" font-size="10.9091" font-family="LMRoman10"><tspan y="-508.45509" x="72">&#x2022;</tspan></text>
<text xml:space="preserve" transform="matrix(1 0 -0 1 0 792)" font-size="10.9091" font-family="LMRoman10"><tspan y="-508.45509" x="85.94183 90.79639 95.072757 99.92731 105.38186 109.625499 112.658229 118.72369 127.81097 136.90917 142.97463 147.82918 159.33829 162.37102 167.82556 176.91284 181.7674 187.5274 191.77104 196.04741 200.90196">creatinganewlogentry,</tspan></text>
<text xml:space="preserve" transform="matrix(1 0 -0 1 0 792)" font-size="10.9091" font-family="LMRoman10"><tspan y="-486.13908" x="72">&#x2022;</tspan></text>
<text xml:space="preserve" transform="matrix(1 0 -0 1 0 792)" font-size="10.9091" font-family="LMRoman10"><tspan y="-486.13908" x="85.94183 90.2182 95.072757 98.41094 103.26549 107.541858 112.39641 118.46187 123.31642 126.34915 132.41461 141.50189 145.74553 151.81099 160.30919 165.76374 170.02919 173.06192 178.51647 181.5492 187.61466 193.0692 199.74558 204.60013 210.36014 214.60378 218.88014 228.27289 231.30562 237.37108 242.22563 247.99655 252.24019 255.27292 258.30564 261.33839 266.19294 270.4584">referencingtheoriginalentryidentifier,</tspan></text>
<text xml:space="preserve" transform="matrix(1 0 -0 1 0 792)" font-size="10.9091" font-family="LMRoman10"><tspan y="-463.82307" x="72">&#x2022;</tspan></text>
<text xml:space="preserve" transform="matrix(1 0 -0 1 0 792)" font-size="10.9091" font-family="LMRoman10"><tspan y="-463.82307" x="85.94183 90.24002 94.48366 99.93821 104.18185 107.21458 113.28004 122.36732 126.610958 132.6764 141.1746 146.02916 151.4837 155.76007 160.03644 164.89099 169.74555 173.98918 177.011 182.46555 192.17465 197.6292 203.69466 213.39286 217.66922 222.52378 227.97832 232.2765 237.73105 243.79651">statingthecorrectionandreason.</tspan><tspan y="-437.52107" x="71.607 79.483379 85.548839 94.03611 99.49066 103.76703 106.79976 112.25431 115.28704 121.3525 126.80705 133.48343 138.33798 144.09799 148.34163 152.618 162.01074 170.79257 176.85803 181.15622 189.0435 193.31987 198.17443 207.2617 212.71625 215.74898 225.44718 228.4799 234.23992 238.48355 243.9381 248.79265 256.67994 262.1345 268.19996 277.89814 283.65815 286.69087 290.98905 294.02177 300.08723 303.11994 307.9745">Theoriginalentrymustremainintactandvisible.</tspan></text>
<text xml:space="preserve" transform="matrix(1 0 -0 1 0 792)" font-size="14.3462" font-family="LMRoman12" font-weight="bold"><tspan y="-403.15306" x="72">6</tspan></text>
<text xml:space="preserve" transform="matrix(1 0 -0 1 0 792)" font-size="14.3462" font-family="LMRoman12" font-weight="bold"><tspan y="-403.15306" x="92.185108 104.30765 108.79323 113.27881 117.76438 122.254749 131.22112 143.96054 151.8079 160.77428 175.12047 185.70796 199.1647 206.5243 213.12357 221.20047 228.56008 237.52645 244.69954 258.601 268.29905 276.37596 284.45286 292.52976 297.0201 305.98649">OfflineandEmergencyLogging</tspan></text>
<text xml:space="preserve" transform="matrix(.9934788 0 -0 1.0065641 0 792)" font-size="10.837958" font-family="LMRoman10"><tspan y="-376.33369" x="72.47261 76.38511 83.35392 87.569889 93.595798 102.071079 109.45173 113.7002 116.71315 125.74117 131.16014 135.40863 144.78347 151.55719 156.97617 162.39514 167.8141 170.82706 176.85295 185.92432 191.95023 197.67266 201.94281 206.15879 210.98168 223.66208 226.66419 234.58673 240.61264 246.64939 251.75405 256.86958 262.28855 265.3015 268.31446 273.73344 279.75935 282.7723 287.59519 294.26057 299.67955 304.5024 308.71839 311.73136 317.15034 323.17625 331.0988 340.1268 345.2423 354.61714 360.64305 364.8915 370.61393 375.43684 380.25975 385.0826 394.7609 400.17988 406.20579 409.21876 418.59358 426.41859 432.4445 437.26737 441.505 449.9803 454.8032 460.5256 466.5515 469.56449 472.57746 477.40034 480.4133 484.62928 487.64225 497.01707 503.34645 508.1693 512.4178 521.4458 524.45877 528.67477 532.8907 537.71359">IfthePrimaryLoggingSystemisunavailable,actionsmayproceedonlywhereexplicitlypermitted</tspan></text>
<text xml:space="preserve" transform="matrix(1 0 -0 1 0 792)" font-size="10.9091" font-family="LMRoman10"><tspan y="-365.255" x="72 77.76 87.16364 93.52365 98.9782 102.01093 105.04366 109.89821 114.752758">bypolicy.</tspan><tspan y="-344.931" x="72 75.93819 85.636379 89.93456 96.00002 100.56002 110.25821 115.11276 120.567317 124.8655 129.72005 134.01824">Insuchcases:</tspan></text>
<text xml:space="preserve" transform="matrix(1 0 -0 1 0 792)" font-size="10.9091" font-family="LMRoman10"><tspan y="-318.629" x="72">&#x2022;</tspan></text>
<text xml:space="preserve" transform="matrix(1 0 -0 1 0 792)" font-size="10.9091" font-family="LMRoman10"><tspan y="-318.629" x="85.94183 91.396389 101.094577 106.549129 109.57822 112.60731 115.636409 118.669139 124.7346 133.23279 136.26552 141.72006 150.80735 155.10553 159.34917 165.41463 175.11283 183.90557 189.97103 194.26921 202.14559 208.5165 217.00379 221.85834 226.1347 230.98926 236.4438 240.68744 245.54199 255.24019 258.27293 267.3602 276.44749 281.30204 287.3675 290.4002 295.85478 300.09843 304.95298 307.9857 312.84025">anofflinelogstubmustbecreatedimmediately,</tspan></text>
<text xml:space="preserve" transform="matrix(1 0 -0 1 0 792)" font-size="10.9091" font-family="LMRoman10"><tspan y="-296.313" x="72">&#x2022;</tspan></text>
<text xml:space="preserve" transform="matrix(1 0 -0 1 0 792)" font-size="10.9091" font-family="LMRoman10"><tspan y="-296.313" x="85.94183 90.18547 96.25093 104.73821 109.0364 113.28004 119.3455 129.0546 137.83643 143.90189 148.20008 156.07645 162.44736 170.94556 177.01102 182.77103 188.53104 192.82923 195.86196 200.7165 206.17105 209.20378 212.23651 221.62926 227.0838 234.9929 241.05837 244.0911 249.54564 252.57837 256.82203 262.27659 265.3093 268.342 277.74568 281.98933 287.44389 296.53117 302.90208 307.75663 312.0221 315.6657 320.50938 326.26939 329.3021 335.36756 340.2221 345.993 350.23667">thestubmustbephysicallyordigitallytamper-evident,</tspan></text>
<text xml:space="preserve" transform="matrix(1 0 -0 1 0 792)" font-size="10.9091" font-family="LMRoman10"><tspan y="-273.99699" x="72">&#x2022;</tspan></text>
<text xml:space="preserve" transform="matrix(.9899495 0 -0 1.0101526 0 792)" font-size="10.799458" font-family="LMRoman10"><tspan y="-271.24317" x="86.81251 91.0135 97.018 104.988 109.25378 113.454769 119.45927 128.628 137.32158 143.32608 147.58106 154.9463 161.26399 169.234 172.23625 178.24076 183.64048 188.44625 192.70122 196.9022 201.70798 210.88751 213.88977 219.59188 223.79286 232.35684 236.55783 242.56233 250.54314 257.89756 262.13096 265.1332 274.12919 279.5289 283.76228 292.62864 299.3783 304.778 310.17778 315.57749 318.57975 324.58424 333.159 339.16349 344.8656 349.1206 353.32157 358.12733 370.28755 378.08473 381.08699 385.28797 391.29246 394.2947 403.47425 408.87397 417.43797 423.44245 428.8422 434.84669 439.08006 446.51008 451.9098 458.38948 462.62287 467.41783 471.6836 475.88456 481.28428 485.50688 490.31263 499.49217 504.2979 509.69764 515.70217 521.10189 527.1064 530.1086 533.1108 536.11306 540.01168 544.7957">thestubmustbeingestedintothePrimaryLoggingSystemwithin72hoursofrestoredcapability.</tspan><tspan y="-245.20552" x="72.169338 83.27118 89.27567 94.081439 98.31483 106.70601 112.105739 121.695659 130.09764 136.40453 141.21028 145.44368 150.8434 155.04439 158.04665 163.44637 169.45087 174.8506 181.43827 191.34137 196.74109 202.4432 208.44771 213.84745 220.4351 224.69008 231.00778 235.81354 240.6193 243.62155 246.6238 249.62606 254.43181 262.27223 271.25736 275.51234 281.51686 286.91658 291.14994 295.35093 300.15666 307.97544 313.37519 321.19398 324.1962 329.59596 335.60044 341.00016 345.8059 353.6247 356.62696 362.63145 368.0312 372.8369 377.09193 381.29289 384.29515 389.69486 399.28477 407.08198 410.08424 416.0887 422.09324 427.19059 434.9878 441.58628 445.78724 451.79176 460.1829 467.9801 470.98237 476.98686 482.99137 488.08869 499.4713 505.4758 510.28157 513.2838 516.2861 522.2906 527.0963 536.6862 539.6884">WhereanOperationalManualspecifiesashorterorlongeringestionwindow,thewindowdefinedin</tspan></text>
<text xml:space="preserve" transform="matrix(1 0 -0 1 0 792)" font-size="10.9091" font-family="LMRoman10"><tspan y="-234.146" x="72 76.24364 82.3091 85.34183 93.27274 99.3382 103.8982 109.96366 114.81821 120.88367 126.94913 129.98186 138.46915 143.3237 148.77825 154.53826 158.78189 163.05826 168.5128 171.54553 175.84372">thisSchedulecontrols.</tspan><tspan y="-213.82199" x="72 78.218189 83.67274 86.70547 89.7382 95.80366 100.080028 108.5673 112.810939 121.89822 124.93095 130.9964 136.45095 141.3055 145.60369 153.49097 158.94551 168.6437 174.09825 177.12735 180.15645 183.18553 186.21826 192.28372 200.77101 205.0692 209.31284 215.3783 225.0874 229.94196 235.3965 241.46196 245.76015 250.00379 253.03652 257.28016 263.3456 267.58927 272.44383 280.37474 289.47294 295.23295 298.25477 303.70933 306.74205 312.1966 316.44026 319.47297 324.92753 330.99299">Failuretoingestanofflinestubconstitutesaviolation.</tspan></text>
<text xml:space="preserve" transform="matrix(1 0 -0 1 0 792)" font-size="14.3462" font-family="LMRoman12" font-weight="bold"><tspan y="-179.454" x="72">7</tspan></text>
<text xml:space="preserve" transform="matrix(1 0 -0 1 0 792)" font-size="14.3462" font-family="LMRoman12" font-weight="bold"><tspan y="-179.454" x="92.185108 102.05529 109.902667 123.3594 132.77051 140.13011 146.72937 152.10919 162.69669 171.21833 175.70868 184.67505 192.03466 200.55629 212.21974 221.18611 227.46974 235.31711 244.28348 253.24985 261.09724 267.69648 276.66285">Tamper-EvidentStandards</tspan></text>
<text xml:space="preserve" transform="matrix(1 0 -0 1 0 792)" font-size="10.9091" font-family="LMRoman10"><tspan y="-155.105" x="71.596 83.41055 86.44328 91.897838 97.35239 102.80694 105.83967 111.90513 121.00332 130.0906 134.94516 139.49427 145.55973 151.01427 157.07973 160.11246 164.41065 177.13066 180.16339 188.10523 192.95978 198.41432 204.47978 208.77797 211.8107 217.87616 222.73072 227.00708 231.86164 241.55983 245.80347 251.25801 260.34529 266.7162 271.57075 275.8471 279.47984 284.33439 290.0944 293.1271 299.19258 304.04713 309.80714 317.6835 323.13807 329.20353 332.23625 341.6399 344.6726 348.0108">Aloggingmechanismisconsideredtamper-evidentonlyif:</tspan></text>
<text xml:space="preserve" transform="matrix(1 0 -0 1 0 792)" font-size="10.9091" font-family="LMRoman10"><tspan y="-128.803" x="72">&#x2022;</tspan></text>
<text xml:space="preserve" transform="matrix(1 0 -0 1 0 792)" font-size="10.9091" font-family="LMRoman10"><tspan y="-128.803" x="85.94183 91.396389 94.429119 98.67275 103.5273 107.803668 113.25822 117.501857 120.534587 125.989139 132.0546 139.98552 145.44007 149.71643 158.21463 164.28009 169.13465 173.37828 178.22193 183.07648 187.32012 192.77466 198.84012 201.87285 206.7274">alterationsaredetectable,</tspan></text>
<text xml:space="preserve" transform="matrix(1 0 -0 1 0 792)" font-size="10.9091" font-family="LMRoman10"><tspan y="-106.48699" x="72">&#x2022;</tspan></text>
<text xml:space="preserve" transform="matrix(1 0 -0 1 0 792)" font-size="10.9091" font-family="LMRoman10"><tspan y="-106.48699" x="85.94183 91.396389 96.25093 101.105487 105.96004 110.258228 118.18914 121.22187 129.1637 133.44007 138.29462 142.5928 146.83644 151.11281 154.14554 159.00009 163.24373 168.08737 177.79648 183.25102 189.31649 199.01468 202.04741 207.50196 212.9565 218.41104 223.2656 229.33106">accessisrestrictedandlogged,</tspan></text>
<text xml:space="preserve" transform="matrix(1 0 -0 1 0 792)" font-size="10.9091" font-family="LMRoman10"><tspan y="-84.17099" x="72">&#x2022;</tspan></text>
<text xml:space="preserve" transform="matrix(1 0 -0 1 0 792)" font-size="10.9091" font-family="LMRoman10"><tspan y="-84.17099" x="85.94183 88.97456 94.734569 98.9782 103.83275 109.2873 113.56367 116.5964 120.53458 129.93822 135.39278 140.24733 144.5237 147.55643 150.58916 153.62189 158.47644 163.93099 168.17462 171.20735 176.6619 186.36009 191.21465 196.66919 206.36739 212.7383 221.2365 224.26923 230.33469 236.40015 241.2547 247.6147 252.46926 258.5347 264.60017 269.4547 275.22563 279.46928 282.50199 291.8947 297.04383 302.49839 305.5311 308.5638 314.62928 320.08384 324.32749 329.18205 335.2475">integrityverificationcanbeindependentlyvalidated.</tspan></text>
<text xml:space="preserve" transform="matrix(1 0 -0 1 0 792)" font-size="10.9091" font-family="LMRoman10"><tspan y="-42.11199" x="303.273">3</tspan></text>
</svg>
