<svg xmlns="http://www.w3.org/2000/svg" xmlns:xlink="http://www.w3.org/1999/xlink" xmlns:inkscape="http://www.inkscape.org/namespaces/inkscape" version="1.1" width="612" height="792" viewBox="0 0 612 792">
<text xml:space="preserve" transform="matrix(1 0 -0 1 0 792)" font-size="10.9091" font-family="LMRoman10"><tspan y="-709.041" x="72">&#x2022;</tspan></text>
<text xml:space="preserve" transform="matrix(1 0 -0 1 0 792)" font-size="10.9091" font-family="LMRoman10"><tspan y="-709.041" x="85.94183 90.2182 95.072757 99.31639 104.77094 107.80367 110.8364 116.290958 120.53459 123.56732 129.02187">retaliation</tspan></text>
<text xml:space="preserve" transform="matrix(1 0 -0 1 0 792)" font-size="10.9091" font-family="LMRoman10"><tspan y="-686.72506" x="72">&#x2022;</tspan></text>
<text xml:space="preserve" transform="matrix(1 0 -0 1 0 792)" font-size="10.9091" font-family="LMRoman10"><tspan y="-686.72506" x="85.94183 95.02911 98.061847 102.36003 108.42549 112.72368 121.21096 126.66551 133.64734 139.10189 145.16735 149.41098 155.47644 160.93099 165.20735 168.24008 172.17827">misuseofauthority</tspan></text>
<text xml:space="preserve" transform="matrix(1 0 -0 1 0 792)" font-size="10.9091" font-family="LMRoman10"><tspan y="-664.408" x="72">&#x2022;</tspan></text>
<text xml:space="preserve" transform="matrix(1 0 -0 1 0 792)" font-size="10.9091" font-family="LMRoman10"><tspan y="-664.408" x="85.94183 93.81821 98.094577 102.94913 109.01459 112.04732 118.11278 121.14551 129.6328 133.57099 142.65827 148.72373 154.17827 157.211 161.48737 170.57465 175.4292 181.18921 189.07649 193.32013 198.77468 206.7056 212.77106 217.62561 220.65834 223.69107 229.75653 234.61109 244.32019 247.35292 257.05113 263.11659 267.97114 272.82569 277.06935 280.10206 285.5566">CredibleImpairment(asdefinedinSection</tspan></text>
<text xml:space="preserve" transform="matrix(1 0 -0 1 0 792)" font-size="10.9091" font-family="LMRoman10"><tspan y="-664.408" x="295.2548 300.70936 303.74208 309.19664">4.20</tspan></text>
<text xml:space="preserve" transform="matrix(1 0 -0 1 0 792)" font-size="10.9091" font-family="LMRoman10"><tspan y="-664.408" x="314.65119 322.53849 328.60395 332.8803 337.73487 343.18943 348.04399 353.804 358.04765 361.08036 367.1458 376.2331 380.50947 385.364 388.39674 391.42945 396.884 402.94947 405.98219 414.48039 418.77857 423.63313 427.8986 433.6586 436.6913 441.54588">)preventingreliableservice</tspan><tspan y="-638.107" x="71.607 79.483379 85.548839 94.03611 102.599758 107.75976 113.2143 118.06885 122.345218 128.41068 131.4434 137.50887 146.59615 154.3198 160.07979 166.14525 175.538 184.31983 190.3962 194.69438 202.57076 208.63622 214.39621 219.25077 225.31623 234.4035 239.25806 245.01807 252.89444 257.1381 263.20356 271.70176 276.5563 282.01087 288.07633 292.3745 300.8618 306.31636 312.3818 322.08 326.32365 332.3891 340.8873 346.34187 351.79643 356.04008 364.52735 368.8037 373.65827 378.51283 383.96739 388.24375 397.94194 401.28013 406.73469 414.6547 420.10926 425.86927 435.262 439.53837 444.3929 453.4802 458.6402 463.7893 469.24388 472.27659">TheGoverningBodymustdocumentthecauseandthevoterecordforanyremoval.</tspan><tspan y="-617.783" x="72 82.00365 88.06911 92.312747 97.767299 103.832759 106.865489 109.89822 112.93095 116.869129 122.62913 130.5164 138.69823 144.76369 149.31279 155.37825 160.8328 166.89826 172.3528 177.20735 182.6619 188.72736 191.76009">Mutability:Unchangeable</tspan></text>
<text xml:space="preserve" transform="matrix(1 0 -0 1 0 792)" font-size="10.9091" font-family="LMRoman10" font-weight="bold"><tspan y="-588.973" x="72 78.272739 81.75274 88.025478 91.50548">6.9.7</tspan></text>
<text xml:space="preserve" transform="matrix(1 0 -0 1 0 792)" font-size="10.9091" font-family="LMRoman10" font-weight="bold"><tspan y="-588.973" x="107.192768 116.618228 123.58914 129.86188 135.03279 142.00371 156.63282 162.731 169.70192 180.85103 189.28377 195.5565 200.43288 203.91287 210.88379">QuorumandVoting</tspan></text>
<text xml:space="preserve" transform="matrix(1 0 -0 1 0 792)" font-size="10.9091" font-family="LMRoman10"><tspan y="-568.38" x="72 80.48728 86.55274 92.00729 96.28366 102.34912 115.06913 119.3455 124.20004 129.96006 136.02552 139.05825 143.33461 148.18917 156.131 165.21828 174.30556 180.06555 183.40373 188.85828 193.13465 196.16738 200.10556 209.4983 214.95285 221.93468 227.38922 230.42195 237.08742 244.96379 249.81835 254.06198 257.0947 262.54927 271.04747 278.31294 283.7675 288.01115 291.04386 297.1093 306.20753 312.27299 317.12754 322.5821 326.82575 331.12394">QuorumrequiresamajorityofallActiveVotingSeats.</tspan></text>
<text xml:space="preserve" transform="matrix(.9939819 0 -0 1.0060546 0 792)" font-size="10.843447" font-family="LMRoman10"><tspan y="-544.7577" x="72.02948 83.805469 89.83443 94.65976 99.48509 102.49957 106.77189 109.78637 115.208087 124.89129 129.10939 135.13835 140.56008 148.42159 157.45417 162.87589 167.094 171.91933 176.16997 179.18445 184.60617 187.62065 190.63513 200.00388 205.4256 208.58646 211.74733 216.57268 221.39801 225.6161 233.53183 237.74994 243.17166 251.09822 257.1272 261.9525 264.96699 267.98149 274.01045 278.8358 288.50813 291.52259 301.19496 307.23475 312.04924 316.87458 321.09269 324.10716 329.52888">Adecisionthatmateriallyaffects(asdefinedinSection</tspan></text>
<text xml:space="preserve" transform="matrix(.9939819 0 -0 1.0060546 0 792)" font-size="10.843447" font-family="LMRoman10"><tspan y="-544.7577" x="339.2121 344.63383 347.6483">4.9</tspan></text>
<text xml:space="preserve" transform="matrix(.9939819 0 -0 1.0060546 0 792)" font-size="10.843447" font-family="LMRoman10"><tspan y="-544.7577" x="353.07005 360.93153 368.45689 373.2822 376.2967 379.61479 385.0365 389.28715 394.11247 400.77033 405.04267 410.4644 413.78248 418.60783 422.5223 427.3368 433.99467 440.02363 443.0381 448.45985 454.48878 457.50328 461.41777 466.23225 472.8901 478.31184 482.58418 486.86735 491.68183 495.89994 500.18309 506.84095 509.85545 515.2771 521.3061 527.335 534.0038 539.42556">)welfare,safety,dignity,assets,land,or</tspan></text>
<text xml:space="preserve" transform="matrix(1 0 -0 1 0 792)" font-size="10.9091" font-family="LMRoman10"><tspan y="-534.507" x="72 78.06546 81.09819 85.39638 89.694568 95.14912 98.18185 104.24731 108.490947 111.523677 116.978229 126.687328 130.95278 135.80733 141.56734 147.6328 150.66553 154.9419 159.79645 167.73828 176.82556 181.10193 185.95648 190.81104 196.26558 200.54195 206.6074 211.46196 221.16016 226.62563 232.08017 236.3238 244.8111 250.26564 256.3311 266.02928 274.8111 280.87657 285.18565 293.062 299.12748 304.58204 312.4584 318.8293 327.3166 336.40388 341.85844 347.9239 356.4221 364.29847 367.33119 371.57484 377.6403 383.09486 389.1603 397.03669 402.7967 408.86216 414.3167 418.59309 424.65855 433.74583">dissolutionrequiresarecordedvoteandmustnotbemadewithoutquorum.</tspan><tspan y="-514.18307" x="72 82.00365 88.06911 92.312747 97.767299 103.832759 106.865489 109.89822 112.93095 116.869129 122.62913 130.5164 138.69823 144.76369 149.31279 155.37825 160.8328 166.89826 172.3528 177.20735 182.6619 188.72736 191.76009">Mutability:Unchangeable</tspan></text>
<text xml:space="preserve" transform="matrix(1 0 -0 1 0 792)" font-size="10.9091" font-family="LMRoman10" font-weight="bold"><tspan y="-485.37306" x="72 78.272739 81.75274 88.025478 91.50548">6.9.8</tspan></text>
<text xml:space="preserve" transform="matrix(1 0 -0 1 0 792)" font-size="10.9091" font-family="LMRoman10" font-weight="bold"><tspan y="-485.37306" x="107.192768 115.6255 121.723697 127.29824 133.39643 140.36734 145.9419 156.74192 166.5601 172.6583 179.62921 186.60013 190.08013 193.56012 200.53104">VacancyHandling</tspan></text>
<text xml:space="preserve" transform="matrix(1.0094553 0 -0 .9906332 0 792)" font-size="11.012249" font-family="LMRoman10"><tspan y="-469.1747" x="71.3256 75.30102 82.271778 91.37891 96.58771 102.093837 106.994289 112.50041 118.62322 123.523677 132.93915 137.8396 143.34572 149.46854 153.80738 158.70783 166.64766 169.70906 175.21518 179.55402 187.50485 192.99996 199.9817 205.79618 211.91899 217.42511 221.74192 227.86473 237.03794 243.70035 247.9841 254.1069 262.60835 271.25297 276.45075 281.9679 286.86836 291.18513 297.30793 300.36936 306.49217 315.59928 323.39595 329.1994 335.3222 344.73768 353.61357 359.73637 364.0752 371.95997 378.08277 382.39955 385.46098 390.9671 395.28388 398.3453 402.6291 405.6905 410.59095 419.09239 423.40916 428.3096 432.64845 436.9322 442.43833 446.75514 449.81654 455.93934 465.04649 470.86094 476.98374 482.48988 486.80668 492.92948 505.70368 512.12387 517.0243 520.39407 525.90017 530.2169">Ifavacancycauseslossofquorum,theGoverningBodymustprioritizerestoringquorumbefore</tspan></text>
<text xml:space="preserve" transform="matrix(1 0 -0 1 0 792)" font-size="10.9091" font-family="LMRoman10"><tspan y="-451.23" x="72 81.08728 86.54183 92.301837 95.334568 101.400028 110.487308 113.520038 117.7964 122.07277 126.92732 132.38188 137.23644 141.5128 145.81099 148.84372 154.90918 157.94191 166.44011 172.50557 177.36013 182.21468 185.2474 189.5456 192.57833 198.03287 204.09833 208.39652">makingirreversibledecisions.</tspan><tspan y="-430.907" x="72 82.00365 88.06911 92.312747 97.767299 103.832759 106.865489 109.89822 112.93095 116.869129 122.62913 130.5164 138.69823 144.76369 149.31279 155.37825 160.8328 166.89826 172.3528 177.20735 182.6619 188.72736 191.76009">Mutability:Unchangeable</tspan></text>
<text xml:space="preserve" transform="matrix(1 0 -0 1 0 792)" font-size="11.9552" font-family="LMRoman12" font-weight="bold"><tspan y="-401.698" x="72 78.73078 82.47276 89.203548">6.10</tspan></text>
<text xml:space="preserve" transform="matrix(1 0 -0 1 0 792)" font-size="11.9552" font-family="LMRoman12" font-weight="bold"><tspan y="-401.698" x="106.02451 116.54509 123.27587 130.74787 135.23107 144.2692 150.99997 156.23635 159.97832 167.45032 178.66429 189.2327 195.59287 202.32366 208.45667 213.95606 221.42806 225.17003 232.64203 243.856 253.42017 260.52156 267.99354 279.57814 289.2977 296.7697 303.3092 307.05119 317.03379 322.27018 331.4637 336.9631 344.06449 350.04209 356.1751 363.6471 371.11909 376.61848 383.15797 391.38316 398.85517 404.09156 410.22459 419.57356 426.11305 431.61244 443.56764 453.59806 460.32884 464.0708 470.20384">Non-VotingGoverningBodyChair(ProceduralStewardRole)</tspan></text>
<text xml:space="preserve" transform="matrix(1 0 -0 1 0 792)" font-size="10.9091" font-family="LMRoman10" font-weight="bold"><tspan y="-379.989" x="72 78.272739 81.75274 88.025478 94.29821 97.77821">6.10.1</tspan></text>
<text xml:space="preserve" transform="matrix(1 0 -0 1 0 792)" font-size="10.9091" font-family="LMRoman10" font-weight="bold"><tspan y="-379.989" x="113.4655 122.88005 129.15279 132.63278 142.56008 152.1819 157.931 161.41646 164.90192 171.87284 175.35283 180.2292 183.7092 189.98194 196.95285">RoleDefinition.</tspan></text>
<text xml:space="preserve" transform="matrix(1.0069758 0 -0 .9930726 0 792)" font-size="10.985198" font-family="LMRoman10"><tspan y="-361.903" x="71.11095 79.04226 85.150028 93.64159 102.26497 107.44998 112.95357 117.84198 122.14818 128.25595 131.30983 137.4176 146.51335 154.29087 160.08008 166.18784 175.59117 183.52248 189.63024 195.12284 198.17673 206.08608 209.13997 217.07128 226.16703 232.2748 236.581 242.3702 247.25862 252.14704 258.2548 264.36259 268.6688 274.16139 280.81843 285.1246 290.61723 293.6711 302.15168 306.4249 312.53269 318.0253 325.90165 332.00944 336.31565 341.20405 345.53224 348.58613 354.6939 359.5823 367.5136 372.70964 378.2022 383.09065 390.99998 399.62336 404.81935 410.31193 415.20036 419.50657 425.61436 428.66825 434.776 443.87174 451.64927 457.43849 463.55723 472.9496 482.10026 486.98866 491.87709 496.1503 499.2042 505.31199 510.80458 518.7359 524.22848 530.33627">TheGoverningBodyChairisaproceduralrolethatpresidesoverGoverningBodymeetingsand</tspan></text>
<text xml:space="preserve" transform="matrix(1 0 -0 1 0 792)" font-size="10.9091" font-family="LMRoman10"><tspan y="-345.847" x="72 76.29819 81.75274 85.09093 89.94548 95.40003 101.46549 106.920047 111.19641 117.26187 125.19279 131.26915 135.54552 141.2946 146.14916 151.00371 157.06917 163.13463 167.411 172.86554 179.54192 182.57465 188.33466 192.5783 197.43285 202.88739 207.16376 210.19649 214.13468 218.98923">safeguardsproceduralintegrity.</tspan><tspan y="-325.52299" x="71.607 79.483379 85.548839 94.03611 101.91248 107.97794 113.432498 116.465229 124.38523 128.66159 134.11614 137.14887 142.00342">TheChairrole:</tspan></text>
<text xml:space="preserve" transform="matrix(1 0 -0 1 0 792)" font-size="10.9091" font-family="LMRoman10"><tspan y="-299.222" x="72">&#x2022;</tspan></text>
<text xml:space="preserve" transform="matrix(1 0 -0 1 0 792)" font-size="10.9091" font-family="LMRoman10"><tspan y="-299.222" x="85.94183 92.00729 97.7673 102.62186 110.55277 116.61823 122.072788 129.96007 134.80371 140.25826 146.33463 150.63282 154.87645 157.90918 162.15282 168.21828 172.46192 180.9492 186.40375 196.10195 201.55649 204.58559 207.61469 210.64377 215.49832 220.35288 227.01834 232.47289 235.50199 238.53108 241.56017 246.41472 251.26927 259.18928 265.56019 271.01475 275.31294 278.34565 282.5893 285.622 291.07658 297.14204 303.80747 309.26203 317.1711 322.62568 327.77479 333.24024 338.0948 342.37117 348.4366 353.89118 359.95664 364.8112 373.29847 377.59666 382.4512 387.90577">doesnotconstituteanoffice,officerposition,orgovernanceseat</tspan></text>
<text xml:space="preserve" transform="matrix(1 0 -0 1 0 792)" font-size="10.9091" font-family="LMRoman10"><tspan y="-276.905" x="72">&#x2022;</tspan></text>
<text xml:space="preserve" transform="matrix(1 0 -0 1 0 792)" font-size="10.9091" font-family="LMRoman10"><tspan y="-276.905" x="85.94183 90.79639 96.25094 102.3164 105.65459 110.50914 114.78551 122.71642 128.78188 137.88007 143.33463 148.78917 153.0328 156.06554 162.131 171.21828 177.58919 182.73828 190.32012 195.17467 199.44013 206.1165 211.57106 216.42562 220.66925 229.75653 236.12744 241.27654 248.85837 253.71292 257.9784 264.65476 270.1093 278.0184 284.08387 290.14933 293.18205 296.21476 301.6693 305.91297 310.76753 315.04389 320.49845 327.16389 332.61845 338.6839 342.92756 348.993 354.44758 358.72395 361.75666 365.70576">confersnovotingpower,vetopower,orunilateralauthority</tspan></text>
<text xml:space="preserve" transform="matrix(1 0 -0 1 0 792)" font-size="10.9091" font-family="LMRoman10"><tspan y="-254.589" x="72">&#x2022;</tspan></text>
<text xml:space="preserve" transform="matrix(1 0 -0 1 0 792)" font-size="10.9091" font-family="LMRoman10"><tspan y="-254.589" x="85.94183 90.79639 96.55639 99.58912 103.88731 108.13094 116.06186 120.36005 125.8146 128.84732 133.70188 136.7346 146.13826 150.3819 159.46918 162.80736 168.2619 173.11646 176.14919 179.18192 182.21465 186.45829 191.91283 196.15647 204.64376 210.0983 214.37467 220.44013 225.29468 229.57105 232.60378 241.99652 248.06198 252.33835 258.09837 262.9529 267.80747 272.10566 280.0475 285.50205 291.5675 301.2657 306.12025 311.5748 317.3348 321.57847 324.61119 330.3712 336.43666 339.46937 343.41847">existssolelytofacilitateorderlyprocessandcontinuity</tspan><tspan y="-228.28801" x="72 82.00365 88.06911 92.312747 97.767299 103.832759 106.865489 109.89822 112.93095 116.869129 122.62913 130.5164 138.5455 143.40006 149.16007 152.1928 156.49098 161.94553 168.01099 171.04372">Mutability:Revisable</tspan></text>
<text xml:space="preserve" transform="matrix(1 0 -0 1 0 792)" font-size="10.9091" font-family="LMRoman10" font-weight="bold"><tspan y="-199.477" x="72 78.272739 81.75274 88.025478 94.29821 97.77821">6.10.2</tspan></text>
<text xml:space="preserve" transform="matrix(1 0 -0 1 0 792)" font-size="10.9091" font-family="LMRoman10" font-weight="bold"><tspan y="-199.477" x="113.4655 120.316417 126.58915 133.56006 140.53098 147.50189 153.25099 162.6001 171.66556 178.63648 184.73467 188.21466 197.56377 207.1856 212.9347 216.7638 222.86199 229.8329 233.3238 242.37837 247.25475 257.07295 263.34568 270.3166 274.49479 282.92753 289.20027 294.07664 297.55665 304.52757 310.8003 315.67668">FounderChairDefault(Non-Voting).</tspan></text>
<text xml:space="preserve" transform="matrix(.9899495 0 -0 1.0101526 0 792)" font-size="10.799458" font-family="LMRoman10"><tspan y="-177.0861" x="72.33399 80.131198 86.1357 93.73852 99.87261 105.27234 111.27684 117.28134 123.28584 128.0916 135.12206 139.32305 144.72278 151.77483 157.77933 162.58509 165.58733 168.58959 174.59409 179.39984 188.20142 191.20366 200.00522 206.00972 210.81549 215.62125 219.82224 222.8245 228.22422">TheFounder(asdefinedinSection</tspan></text>
<text xml:space="preserve" transform="matrix(.9899495 0 -0 1.0101526 0 792)" font-size="10.799458" font-family="LMRoman10"><tspan y="-177.0861" x="237.02577 242.4255 245.42777">4.1</tspan></text>
<text xml:space="preserve" transform="matrix(.9899495 0 -0 1.0101526 0 792)" font-size="10.799458" font-family="LMRoman10"><tspan y="-177.0861" x="250.82749 257.82554 263.53846 268.34419 273.14994 279.15446 285.15895 288.1612 292.96693 300.01899 304.21995 310.22447 317.82728 323.83177 329.2315 335.236 338.8322 344.23197 349.63169 353.83268 356.82414 362.83943 371.0362 379.51377 384.6003 390.00007 394.8058 399.03916 405.04368 408.04594 414.0504 422.24723 429.89326 435.59538 441.59986 450.09904 457.89625 463.90074 469.30049 472.30274 479.33317 483.56654 488.96626 491.9685 499.57133 505.5758 511.58033 514.5826 519.38839 523.6433 530.6954 534.8963 540.9008">)occupiesthenon-votingGoverningBodyChairroleunlessthe</tspan><tspan y="-163.6733" x="72.73098 78.86507 84.26479 90.269298 96.273799 102.2783 107.08406 114.75168 120.75618 125.561939 130.3677 133.36995 136.37221 142.3767 147.18247 154.86087 159.06186 165.07717 173.30637 179.62406 185.02379 189.27877 192.28102 196.48201 199.48426 204.88399 214.31192 217.31417 226.7529 234.55011 238.7835 241.78575 245.98674 248.98899 254.99349 260.39323 266.8729 271.12788 277.1324 283.45005 286.7547 291.56044 296.36619 304.00138 309.40113 315.4056 318.40788 327.5334 331.73439 340.56834 344.8017 349.60746 358.60343 363.70075 368.78733 374.18705 380.62355 386.02326 393.70167 400.01933 404.82508 409.05845 418.0544 421.05668 425.25764 429.45863 434.26435 443.7031 449.70759 455.7121 461.71659 466.52235 474.1791 480.18363 484.98939 489.7951 493.9961 496.99836 502.39808">Founderdeclinesthepositioninwriting,subjectonlytoremovalaspermittedunderSection</tspan></text>
<text xml:space="preserve" transform="matrix(.9899495 0 -0 1.0101526 0 792)" font-size="10.799458" font-family="LMRoman10"><tspan y="-163.6733" x="511.8368 517.2365 520.2388 525.6385 531.0382 534.0404 539.4402">6.10.11</tspan></text>
<text xml:space="preserve" transform="matrix(.9899495 0 -0 1.0101526 0 792)" font-size="10.799458" font-family="LMRoman10"><tspan y="-163.6733" x="544.8399">.</tspan></text>
<text xml:space="preserve" transform="matrix(1 0 -0 1 0 792)" font-size="10.9091" font-family="LMRoman10"><tspan y="-145.011" x="72 82.00365 88.06911 92.312747 97.767299 103.832759 106.865489 109.89822 112.93095 116.869129 122.62913 130.5164 138.69823 144.76369 149.31279 155.37825 160.8328 166.89826 172.3528 177.20735 182.6619 188.72736 191.76009">Mutability:Unchangeable</tspan></text>
<text xml:space="preserve" transform="matrix(1 0 -0 1 0 792)" font-size="10.9091" font-family="LMRoman10" font-weight="bold"><tspan y="-116.201007" x="72 78.272739 81.75274 88.025478 94.29821 97.77821">6.10.3</tspan></text>
<text xml:space="preserve" transform="matrix(1 0 -0 1 0 792)" font-size="10.9091" font-family="LMRoman10" font-weight="bold"><tspan y="-116.201007" x="113.4655 121.89824 128.17098 133.04735 136.52735 143.49826 153.94919 162.52375 167.69466 173.96739 180.93831 184.4183 191.38922 194.86922 199.74559 203.22559 209.49832 216.46924">VotingProhibition.</tspan></text>
<text xml:space="preserve" transform="matrix(1 0 -0 1 0 792)" font-size="10.9091" font-family="LMRoman10"><tspan y="-95.608" x="71.607 79.483379 85.548839 94.03611 102.599758 107.75976 113.2143 118.06885 122.345218 128.41068 131.4434 137.50887 146.59615 154.3198 160.07979 166.14525 175.538 183.41437 189.47983 194.93437 197.9671 205.88712 214.66895 220.7344 225.0326 232.90897 238.97443 244.42897 252.31626 257.7708 263.22538 267.46903 275.9563 281.41087 291.11997 296.57453 302.33454 311.72727 320.2909 325.44 330.90547 335.76 340.02549 346.10185 349.12367 355.2 364.2873 372.01094 377.77095 383.8364 393.22914 402.3164 407.77098 412.01463 416.25828 421.11283 425.3892">TheGoverningBodyChairmustnotvoteonanyGoverningBodymatter.</tspan><tspan y="-75.284008" x="72 82.00365 88.06911 92.312747 97.767299 103.832759 106.865489 109.89822 112.93095 116.869129 122.62913 130.5164 138.69823 144.76369 149.31279 155.37825 160.8328 166.89826 172.3528 177.20735 182.6619 188.72736 191.76009">Mutability:Unchangeable</tspan></text>
<text xml:space="preserve" transform="matrix(1 0 -0 1 0 792)" font-size="10.9091" font-family="LMRoman10"><tspan y="-42.112005" x="300.54499 305.99955">25</tspan></text>
</svg>
