<svg xmlns="http://www.w3.org/2000/svg" xmlns:xlink="http://www.w3.org/1999/xlink" xmlns:inkscape="http://www.inkscape.org/namespaces/inkscape" version="1.1" width="612" height="792" viewBox="0 0 612 792">
<text xml:space="preserve" transform="matrix(1 0 -0 1 0 792)" font-size="10.9091" font-family="LMMono10"><tspan y="-709.041" x="85.94 91.66728 97.39456 103.12184 108.84912 114.5764 120.30368 131.75824 137.48552 148.94008 154.66736 160.39464 166.12192 171.8492 177.57648 183.30376 189.03104 194.75832 206.21288 211.94016 217.66744 223.39472 229.122 234.84928 240.57656 246.30384">patternorexecutioncontext.</tspan></text>
<text xml:space="preserve" transform="matrix(1 0 -0 1 0 792)" font-size="10.9091" font-family="LMRoman10"><tspan y="-686.72506" x="72">&#x2022;</tspan></text>
<text xml:space="preserve" transform="matrix(1 0 -0 1 0 792)" font-size="10.9091" font-family="LMMono10"><tspan y="-686.72506" x="85.658199 91.385478 97.112758 102.840038 108.567317 114.29459 120.02187 125.74915 131.47643 142.93099 148.65827 160.11283 165.8401 171.56739 183.02194 188.74922 194.4765 200.20378 205.93106 211.65834 217.38562 228.84018 234.56746 240.29474 246.02202 251.7493 257.47657 268.9311 274.65837 280.38563 286.11289 291.84016 297.5674 303.29469 314.7492 320.47648 331.931 337.65827 343.38554 349.1128 354.84007 360.56733 372.02186 377.7491 383.47639 394.9309 400.65818 406.38545 417.83998 423.56724 429.2945 435.02177 446.4763 452.20356 457.93083 463.65809 469.38536 475.1126 480.83988 486.56715 492.2944 498.02168 509.4762 515.2035 520.9308 526.6581 532.3854 538.1127 543.83999 549.56729 555.29458">Authorityisnotunclearsolelybecauseanactionhasnotbeenpreviouslyexecuted,</tspan><tspan y="-673.176" x="85.94 91.66728 97.39456 103.12184 108.84912 114.5764 120.30368 126.03096 131.75824 137.48552 143.2128 154.66736 160.39464 171.8492 177.57648 183.30376 189.03104 194.75832 200.4856 206.21288 211.94016 217.66744 229.122 234.84928 240.57656 246.30384 252.03112 257.7584 263.48567 269.21293 280.66746 286.3947 297.84925 303.5765 315.03105 320.7583 326.48558 332.21284 337.9401 343.66737 349.39463 355.1219 366.57643 372.30369 378.03096 383.7582 389.48548 395.21275 400.94 406.66728 412.39454 418.1218 423.84907 435.3036 441.03086 446.75813 458.21266 463.9399 469.66719 475.39445 481.1217 486.84898 498.3035 504.03077 509.75804 515.4853 521.2126 526.9399 532.6672 538.3945 544.12179 549.84909 555.57638">documented,orreviewed,provideditisroutine,reversible,andwithinestablished</tspan><tspan y="-659.62606" x="85.94 91.66728 97.39456 103.12184 114.5764 120.30368 126.03096 131.75824 137.48552 143.2128">rolescope.</tspan></text>
<text xml:space="preserve" transform="matrix(1 0 -0 1 0 792)" font-size="14.3462" font-family="LMRoman12" font-weight="bold"><tspan y="-625.25808" x="72 84.12254 99.42994 104.80977 112.88668 124.55015 133.51653 139.80016 147.15976 158.3785 166.22586 172.82512 181.79149 188.16121 197.12758 201.61794 215.96413 227.6276 235.7045 249.16124 258.12763 262.61799 267.10835 274.95573 283.9221 291.09519">OM-2.StewardshipCompliance</tspan></text>
<text xml:space="preserve" transform="matrix(1 0 -0 1 0 792)" font-size="10.9091" font-family="LMRoman10"><tspan y="-600.90908" x="72">&#x2022;</tspan></text>
<text xml:space="preserve" transform="matrix(1 0 -0 1 0 792)" font-size="10.9091" font-family="LMMono10"><tspan y="-600.90908" x="85.94183 91.66911 103.12367 114.57823 120.30551 126.03279 131.76007 137.48735 143.21463 148.94191 154.66919 166.12375 171.85103 177.57831 183.30559 189.03287 194.76015 206.2147 211.94199 217.66927 223.39655 229.12383 234.8511 240.57839 246.30567 252.03295 257.76023 263.4875 274.94203 280.66929 286.39656 292.1238 297.85108 303.57835 309.3056 315.03288 320.76014 326.4874 337.94194 343.6692 349.39646 355.12373 366.57826 372.3055 378.03279 383.76005 395.21458 400.94184 406.6691 412.39637 418.12364 423.8509 429.57817 435.30543 441.03269 452.4872 458.21449 463.94175 469.669 475.39628 481.12355 486.8508 492.57807 498.30534 504.0326 509.75987 515.4871 526.9417 532.669 538.3963 544.1236">IFaproposedactionprioritizesshort-termgainoverlong-termstewardship,THEN</tspan><tspan y="-587.36007" x="85.94 91.66728 97.39456 108.84912 114.5764 120.30368 126.03096 131.75824 137.48552 148.94008 154.66736 160.39464 166.12192 177.57648 183.30376 189.03104 200.4856 206.21288 211.94016 217.66744 223.39472 229.122 234.84928 240.57656">theactionmustnotproceed.</tspan></text>
<text xml:space="preserve" transform="matrix(1 0 -0 1 0 792)" font-size="10.9091" font-family="LMRoman10"><tspan y="-565.043" x="72">&#x2022;</tspan></text>
<text xml:space="preserve" transform="matrix(1 0 -0 1 0 792)" font-size="10.9091" font-family="LMMono10"><tspan y="-565.043" x="85.94183 91.66911 103.12367 114.57823 120.30551 126.03279 131.76007 137.48735 143.21463 148.94191 154.66919 166.12375 171.85103 177.57831 183.30559 189.03287 200.48743 206.2147 211.94199 217.66927 223.39655 229.12383 234.8511 240.57839 246.30567 252.03295 257.76023 269.21476 274.94203 286.39656 292.1238 297.85108 303.57835 309.3056 315.03288 320.76014 326.4874 337.94194 343.6692 349.39646 355.12373 360.85099 366.57826 372.3055 383.76005 389.4873 400.94184 406.6691 412.39637 418.12364 423.8509 429.57817 435.30543 441.03269 452.4872 458.21449 463.94175 469.669 481.12355 486.8508 498.30534 504.0326 509.75987 515.4871 526.9417 532.669 544.1236 549.8509 555.5782 561.3055 567.0328 572.7601 578.48739 584.21469">IFaproposalrisksdegradationofwelfare,safety,ordignity,THENitmustberejected</tspan><tspan y="-551.494" x="85.94 91.66728 103.12184 108.84912 114.5764 120.30368 126.03096 131.75824 137.48552 143.2128 148.94008 154.66736 160.39464">orredesigned.</tspan></text>
<text xml:space="preserve" transform="matrix(1 0 -0 1 0 792)" font-size="10.9091" font-family="LMRoman10"><tspan y="-529.17807" x="72">&#x2022;</tspan></text>
<text xml:space="preserve" transform="matrix(1 0 -0 1 0 792)" font-size="10.9091" font-family="LMMono10"><tspan y="-529.17807" x="85.94183 91.66911 103.12367 108.85095 114.57823 120.30551 126.03279 131.76007 137.48735 143.21463 148.94191 154.66919 160.39647 171.85103 177.57831 183.30559 189.03287 194.76015 200.48743 206.2147 211.94199 223.39655 229.12383 240.57839 246.30567 252.03295 257.76023 263.4875 269.21476 274.94203 280.66929 286.39656 292.1238 297.85108 303.57835 309.3056 320.76014 326.4874 332.21467 337.94194 349.39646 355.12373 360.85099 366.57826 372.3055 378.03279 383.76005 389.4873 395.21458 406.6691 412.39637 423.8509 429.57817 435.30543 441.03269 446.75996 452.4872 458.21449 463.94175 469.669 475.39628 481.12355 492.57807 498.30534 504.0326 509.75987 521.2144 526.9417 532.669 538.3963 544.1236 549.8509">IFmaintenancecapacityisinsufficient,THENexpansionoracquisitionmustpause.</tspan></text>
<text xml:space="preserve" transform="matrix(1 0 -0 1 0 792)" font-size="14.3462" font-family="LMRoman12" font-weight="bold"><tspan y="-494.81004" x="72 84.12254 99.42994 104.80977 112.88668 124.55015 136.74442 143.11414 149.48386 156.84346 168.50691 186.43967 192.45073 201.4171 206.35219 212.95145 220.79882 227.16854 233.45217 240.05142 249.01779 256.1909 262.47453 271.4409 278.04014 290.77955 306.08695 313.93434 322.9007 330.74809 338.82499 346.18458 359.6413 367.0009 375.52253">OM-3.Asset&#x0026;InfrastructureManagement</tspan></text>
<text xml:space="preserve" transform="matrix(1 0 -0 1 0 792)" font-size="10.9091" font-family="LMRoman10"><tspan y="-470.46003" x="72">&#x2022;</tspan></text>
<text xml:space="preserve" transform="matrix(1 0 -0 1 0 792)" font-size="10.9091" font-family="LMMono10"><tspan y="-470.46003" x="85.94183 91.66911 103.12367 108.85095 120.30551 126.03279 131.76007 137.48735 143.21463 154.66919 160.39647 166.12375 171.85103 177.57831 183.30559 194.76015 200.48743 211.94199 217.66927 223.39655 229.12383 234.8511 240.57839 246.30567 252.03295 257.76023 263.4875 274.94203 280.66929 286.39656 292.1238 297.85108 303.57835 309.3056 315.03288 320.76014 326.4874 332.21467 343.6692 349.39646 355.12373 360.85099 372.3055 378.03279 389.4873 395.21458 400.94184 406.6691 418.12364 423.8509 429.57817 441.03269 446.75996 458.21449 463.94175 469.669 475.39628 481.12355 486.8508 492.57807 498.30534 509.75987 515.4871 526.9417 532.669 538.3963 544.1236">IFanassetcannotbereasonablymaintained,THENitmustnotbeacquiredormust</tspan><tspan y="-456.911" x="85.94 91.66728 103.12184 108.84912 114.5764 120.30368 126.03096 131.75824 137.48552 143.2128">beretired.</tspan></text>
<text xml:space="preserve" transform="matrix(1 0 -0 1 0 792)" font-size="10.9091" font-family="LMRoman10"><tspan y="-434.595" x="72">&#x2022;</tspan></text>
<text xml:space="preserve" transform="matrix(1 0 -0 1 0 792)" font-size="10.9091" font-family="LMMono10"><tspan y="-434.595" x="85.94183 91.66911 103.12367 108.85095 120.30551 126.03279 131.76007 137.48735 143.21463 154.66919 160.39647 166.12375 171.85103 177.57831 183.30559 189.03287 194.76015 206.2147 211.94199 217.66927 223.39655 229.12383 234.8511 240.57839 252.03295 257.76023 269.21476 274.94203 280.66929 286.39656 292.1238 297.85108 303.57835 315.03288 320.76014 326.4874 332.21467 343.6692 349.39646 360.85099 366.57826 372.3055 378.03279 389.4873 395.21458 406.6691 412.39637 418.12364 423.8509 429.57817 435.30543 441.03269 446.75996 452.4872 463.94175 469.669 475.39628 481.12355 486.8508 492.57807 498.30534 504.0326 509.75987 521.2144 526.9417 538.3963 544.1236 549.8509 555.5782 561.3055 567.0328 572.7601 578.48739">IFanassetdegradeswelfareorsafety,THENitmustberepaired,replaced,orremoved.</tspan></text>
<text xml:space="preserve" transform="matrix(1 0 -0 1 0 792)" font-size="10.9091" font-family="LMRoman10"><tspan y="-412.278" x="72">&#x2022;</tspan></text>
<text xml:space="preserve" transform="matrix(1 0 -0 1 0 792)" font-size="10.9091" font-family="LMMono10"><tspan y="-412.278" x="85.94183 91.66911 103.12367 108.85095 114.57823 120.30551 126.03279 131.76007 137.48735 148.94191 154.66919 160.39647 171.85103 177.57831 183.30559 189.03287 194.76015 200.48743 206.2147 211.94199 217.66927 223.39655 234.8511 240.57839 246.30567 252.03295 257.76023 263.4875 269.21476 280.66929 286.39656 292.1238 297.85108 303.57835 315.03288 320.76014 332.21467 337.94194 343.6692 349.39646 355.12373 360.85099 366.57826 372.3055 378.03279 383.76005 395.21458 400.94184 406.6691 412.39637 418.12364 429.57817 435.30543 441.03269 446.75996 458.21449 463.94175 469.669 475.39628 481.12355 486.8508 492.57807 498.30534 504.0326 509.75987 521.2144 526.9417 532.669 538.3963 544.1236 549.8509 555.5782">IFdurableandrepairableoptionsexistatreasonablecost,THENdisposableoptions</tspan><tspan y="-398.729" x="85.94 91.66728 97.39456 103.12184 114.5764 120.30368 126.03096 137.48552 143.2128 154.66736 160.39464 166.12192 171.8492 177.57648 183.30376 189.03104 194.75832 200.4856">mustnotbeselected.</tspan></text>
<text xml:space="preserve" transform="matrix(1 0 -0 1 0 792)" font-size="14.3462" font-family="LMRoman12" font-weight="bold"><tspan y="-364.361" x="72 84.12254 99.42994 104.80977 112.88668 124.55015 135.13765 142.98502 149.58428 155.8679 164.83428 172.19388 184.17296 202.10572 212.95145 220.31105 229.27742 238.24379 246.3207 258.29978 268.88728 277.85365 285.93055 293.77793 301.85484 309.21443 322.67115 330.03074 338.55238">OM-4.Partner&#x0026;VendorEngagement</tspan></text>
<text xml:space="preserve" transform="matrix(1 0 -0 1 0 792)" font-size="10.9091" font-family="LMRoman10"><tspan y="-340.012" x="72">&#x2022;</tspan></text>
<text xml:space="preserve" transform="matrix(1 0 -0 1 0 792)" font-size="10.9091" font-family="LMMono10"><tspan y="-340.012" x="85.94183 91.66911 103.12367 114.57823 120.30551 126.03279 131.76007 137.48735 143.21463 148.94191 160.39647 166.12375 171.85103 177.57831 183.30559 189.03287 194.76015 200.48743 206.2147 211.94199 217.66927 223.39655 234.8511 240.57839 246.30567 252.03295 257.76023 263.4875 269.21476 274.94203 286.39656 292.1238 297.85108 303.57835 309.3056 315.03288 320.76014 326.4874 332.21467 337.94194 343.6692 355.12373 360.85099 366.57826 372.3055 378.03279 383.76005 389.4873 395.21458 400.94184 406.6691 412.39637 418.12364 423.8509 435.30543 441.03269 452.4872 458.21449 463.94175 469.669 475.39628 481.12355 486.8508 492.57807 498.30534 504.0326 509.75987 515.4871 521.2144 532.669 538.3963 544.1236 549.8509">IFapartnerrelationshipinvolvesextraction,exploitation,ormisalignment,THEN</tspan><tspan y="-326.462" x="85.94 91.66728 103.12184 108.84912 114.5764 120.30368 131.75824 137.48552 143.2128 154.66736 160.39464 171.8492 177.57648 183.30376 189.03104 194.75832 200.4856 206.21288 211.94016">itmustnotbeentered.</tspan></text>
<text xml:space="preserve" transform="matrix(1 0 -0 1 0 792)" font-size="10.9091" font-family="LMRoman10"><tspan y="-304.146" x="72">&#x2022;</tspan></text>
<text xml:space="preserve" transform="matrix(1 0 -0 1 0 792)" font-size="10.9091" font-family="LMMono10"><tspan y="-304.146" x="85.94183 91.66911 103.12367 108.85095 114.57823 120.30551 126.03279 131.76007 137.48735 143.21463 148.94191 160.39647 166.12375 177.57831 183.30559 189.03287 194.76015 200.48743 206.2147 211.94199 217.66927 223.39655 229.12383 240.57839 246.30567 252.03295 257.76023 269.21476 274.94203 280.66929 286.39656 292.1238 297.85108 303.57835 309.3056 315.03288 320.76014 326.4874 337.94194 343.6692 349.39646 355.12373 360.85099 366.57826 372.3055 378.03279 383.76005 389.4873 400.94184 406.6691 412.39637 418.12364 423.8509 429.57817 435.30543 441.03269 452.4872 458.21449 463.94175 469.669 475.39628 481.12355 486.8508 492.57807 498.30534 509.75987 515.4871 521.2144 526.9417 538.3963 544.1236 549.8509 555.5782 561.3055 567.0328 572.7601">IFalignmentisuncertain,THENprovisionalengagementrequiresGoverningBodyreview.</tspan></text>
<text xml:space="preserve" transform="matrix(1 0 -0 1 0 792)" font-size="10.9091" font-family="LMRoman10"><tspan y="-281.83" x="72">&#x2022;</tspan></text>
<text xml:space="preserve" transform="matrix(1 0 -0 1 0 792)" font-size="10.9091" font-family="LMMono10"><tspan y="-281.83" x="85.94183 91.66911 103.12367 114.57823 120.30551 126.03279 131.76007 137.48735 143.21463 148.94191 160.39647 166.12375 171.85103 177.57831 183.30559 189.03287 194.76015 200.48743 211.94199 217.66927 229.12383 234.8511 240.57839 246.30567 252.03295 257.76023 263.4875 269.21476 274.94203 280.66929 286.39656 292.1238 303.57835 309.3056 315.03288 320.76014 332.21467 337.94194 343.6692 355.12373 360.85099 366.57826 372.3055 378.03279 383.76005 389.4873 395.21458 400.94184 406.6691 412.39637 418.12364 429.57817 435.30543 441.03269 446.75996 458.21449 463.94175 475.39628 481.12355 486.8508 492.57807 498.30534 504.0326 509.75987 515.4871 521.2144 532.669 538.3963 544.1236 549.8509 555.5782 561.3055 567.0328">IFapartnerviolatesNDconstraints,THENtherelationshipmustbesuspendedpending</tspan><tspan y="-268.28" x="85.94 91.66728 97.39456 103.12184 108.84912 114.5764 120.30368">review.</tspan></text>
<text xml:space="preserve" transform="matrix(1 0 -0 1 0 792)" font-size="14.3462" font-family="LMRoman12" font-weight="bold"><tspan y="-233.912" x="72 84.12254 99.42994 104.80977 112.88668 124.55015 133.51653 139.80016 147.64752 152.35308 162.43845 174.10192 182.17882 191.14519 200.11156 209.07793 216.25102 227.91448 245.84723 258.21366 262.704 270.7809 279.74729 284.23765 290.07655">OM-5.StaffConduct&#x0026;Dignity</tspan></text>
<text xml:space="preserve" transform="matrix(1 0 -0 1 0 792)" font-size="10.9091" font-family="LMRoman10"><tspan y="-209.563" x="72">&#x2022;</tspan></text>
<text xml:space="preserve" transform="matrix(1 0 -0 1 0 792)" font-size="10.9091" font-family="LMMono10"><tspan y="-209.563" x="85.94183 91.66911 103.12367 108.85095 114.57823 120.30551 126.03279 137.48735 143.21463 148.94191 160.39647 166.12375 177.57831 183.30559 189.03287 194.76015 206.2147 211.94199 217.66927 223.39655 229.12383 240.57839 246.30567 252.03295 263.4875 269.21476 274.94203 280.66929 292.1238 297.85108 303.57835 309.3056 315.03288 320.76014 326.4874 337.94194 343.6692 349.39646 355.12373 366.57826 372.3055 378.03279 383.76005 389.4873 395.21458 400.94184 406.6691 412.39637 418.12364 429.57817 435.30543 441.03269 452.4872 458.21449 463.94175 469.669 475.39628 481.12355 486.8508 498.30534 504.0326 509.75987 521.2144 526.9417 532.669 538.3963 544.1236 549.8509 555.5782 561.3055 567.0328">IFstaffactingoodfaithandmakeerrors,THENcorrectionandsupportarerequired,</tspan><tspan y="-196.014" x="85.94 91.66728 97.39456 108.84912 114.5764 120.30368 126.03096 131.75824 137.48552 143.2128 148.94008 154.66736 160.39464 166.12192">notpunishment.</tspan></text>
<text xml:space="preserve" transform="matrix(1 0 -0 1 0 792)" font-size="10.9091" font-family="LMRoman10"><tspan y="-173.697" x="72">&#x2022;</tspan></text>
<text xml:space="preserve" transform="matrix(1 0 -0 1 0 792)" font-size="10.9091" font-family="LMMono10"><tspan y="-173.697" x="85.94183 91.66911 103.12367 108.85095 114.57823 120.30551 126.03279 137.48735 143.21463 148.94191 160.39647 166.12375 177.57831 183.30559 189.03287 200.48743 206.2147 211.94199 217.66927 223.39655 229.12383 240.57839 246.30567 252.03295 257.76023 263.4875 269.21476 274.94203 286.39656 292.1238 297.85108 303.57835 309.3056 320.76014 326.4874 337.94194 343.6692 349.39646 355.12373 360.85099 366.57826 372.3055 378.03279 383.76005 389.4873 400.94184 406.6691 412.39637 418.12364 429.57817 435.30543 441.03269 446.75996 452.4872 458.21449 463.94175 469.669 475.39628 481.12355 486.8508 492.57807 504.0326 509.75987 515.4871 521.2144 526.9417 532.669 544.1236 549.8509">IFstaffactinbadfaith,concealharm,orretaliate,THENdisciplinaryactionis</tspan><tspan y="-160.14801" x="85.94 91.66728 97.39456 103.12184 108.84912 114.5764 120.30368 126.03096 131.75824 137.48552">mandatory.</tspan></text>
<text xml:space="preserve" transform="matrix(1 0 -0 1 0 792)" font-size="10.9091" font-family="LMRoman10"><tspan y="-137.83202" x="72">&#x2022;</tspan></text>
<text xml:space="preserve" transform="matrix(1 0 -0 1 0 792)" font-size="10.9091" font-family="LMMono10"><tspan y="-137.83202" x="85.94183 91.66911 103.12367 108.85095 114.57823 120.30551 126.03279 131.76007 137.48735 148.94191 154.66919 166.12375 171.85103 177.57831 183.30559 189.03287 194.76015 200.48743 206.2147 211.94199 217.66927 223.39655 229.12383 240.57839 246.30567 252.03295 257.76023 269.21476 274.94203 280.66929 286.39656 292.1238 297.85108 303.57835 309.3056 315.03288 320.76014 332.21467 337.94194 343.6692 349.39646 360.85099 366.57826 372.3055 378.03279 389.4873 395.21458 400.94184 406.6691 412.39637 423.8509 429.57817 435.30543 446.75996 452.4872 458.21449 463.94175 469.669 481.12355 486.8508 498.30534 504.0326 509.75987 515.4871 521.2144 526.9417 532.669 538.3963 544.1236 549.8509">IFdignityiscompromised,THENoperationsmuststopuntiltheissueisaddressed.</tspan></text>
<text xml:space="preserve" transform="matrix(1 0 -0 1 0 792)" font-size="14.3462" font-family="LMRoman12" font-weight="bold"><tspan y="-103.46402" x="72 84.12254 99.42994 104.80977 112.88668 124.55015 133.51653 141.36389 146.29898 153.65859 159.49748 173.39894 191.3317 203.95636 211.80373 218.97682 226.82419 233.42345 247.76964 259.8061 267.16569 273.5354 282.9465 291.0234 299.98979 306.3595">OM-6.Safety&#x0026;HazardResponse</tspan></text>
<text xml:space="preserve" transform="matrix(1 0 -0 1 0 792)" font-size="10.9091" font-family="LMRoman10"><tspan y="-79.11402" x="72">&#x2022;</tspan></text>
<text xml:space="preserve" transform="matrix(1 0 -0 1 0 792)" font-size="10.9091" font-family="LMMono10"><tspan y="-79.11402" x="85.94183 91.66911 103.12367 114.57823 120.30551 126.03279 131.76007 137.48735 143.21463 154.66919 160.39647 171.85103 177.57831 183.30559 189.03287 194.76015 200.48743 206.2147 211.94199 217.66927 223.39655 229.12383 240.57839 246.30567 252.03295 257.76023 269.21476 274.94203 286.39656 292.1238 297.85108 303.57835 315.03288 320.76014 332.21467 337.94194 343.6692 349.39646 355.12373 360.85099 366.57826 378.03279 383.76005 389.4873 395.21458 400.94184 406.6691 412.39637 423.8509 429.57817 435.30543 446.75996 452.4872 458.21449 463.94175 469.669 475.39628 481.12355 486.8508 492.57807 498.30534 504.0326 509.75987 515.4871">IFahazardisidentified,THENitmustbemarked,logged,andcommunicated.</tspan></text>
<text xml:space="preserve" transform="matrix(1 0 -0 1 0 792)" font-size="10.9091" font-family="LMRoman10"><tspan y="-42.112024" x="303.273">5</tspan></text>
</svg>
