<svg xmlns="http://www.w3.org/2000/svg" xmlns:xlink="http://www.w3.org/1999/xlink" xmlns:inkscape="http://www.inkscape.org/namespaces/inkscape" version="1.1" width="612" height="792" viewBox="0 0 612 792">
<text xml:space="preserve" transform="matrix(1 0 -0 1 0 792)" font-size="17.2154" font-family="LMRoman17"><tspan y="-665.305" x="148.835 160.76528 167.75473 184.45368 196.62497 204.52684 212.42871 220.33058 227.32004 233.41429 237.71814 245.62001 254.41709 268.4132 278.81135 291.20643 300.45109 307.44053 313.53477 321.4366 327.53086 331.83473 339.73658 348.53364 356.4355 365.93843 380.5715 388.47337 396.8056 405.60267 413.50453 423.00746 431.3569 439.25877 443.56263 451.46449 455.76835">NewDoggerland-OperationalManualv0.5.2</tspan></text>
<text xml:space="preserve" transform="matrix(1 0 -0 1 0 792)" font-size="14.3462" font-family="LMRoman12" font-weight="bold"><tspan y="-576.239" x="72.00001 83.66347 91.74038 100.262027 106.54566 113.905269 122.42691 128.71054">Contents</tspan></text>
<text xml:space="preserve" transform="matrix(1 0 -0 1 0 792)" font-size="10.9091" font-family="LMRoman10" font-weight="bold"><tspan y="-547.755" x="72.00001 81.8182 87.741847 100.98549 105.861858 116.323688 123.2946 128.24733 138.17462 143.051 150.02191 153.5019 162.63283 173.08374 179.18193 185.80376 192.77468 198.87287">Howtousethismanual</tspan></text>
<text xml:space="preserve" transform="matrix(1 0 -0 1 0 792)" font-size="10.9091" font-family="LMRoman10" font-weight="bold"><tspan y="-547.755" x="533.72769">3</tspan></text>
<text xml:space="preserve" transform="matrix(1 0 -0 1 0 792)" font-size="10.9091" font-family="LMRoman10"><tspan y="-534.206" x="88.364009 95.33492 102.90584 108.36039 111.99312 118.05858 123.51313 127.81132 135.74224 140.0186 144.87316 150.3277 156.39316 159.42589 165.49135">Two-passreading</tspan></text>
<text xml:space="preserve" transform="matrix(1 0 -0 1 0 792)" font-size="10.9091" font-family="LMRoman10"><tspan y="-534.206" x="176.55318 185.04045 193.52773 202.015 210.50228 218.98955 227.47682 235.9641 244.45137 252.93865 261.42594 269.9132 278.40049 286.88777 295.37504 303.8623 312.34959 320.83686 329.32414 337.8114 346.28776 354.77503 363.2623 371.74958 380.23686 388.72413 397.2114 405.69868 414.18595 422.67323 431.1605 439.64778 448.13505 456.6223 465.1096 473.59687 482.08415 490.5714 499.0587 507.54597 516.0332">.........................................</tspan></text>
<text xml:space="preserve" transform="matrix(1 0 -0 1 0 792)" font-size="10.9091" font-family="LMRoman10"><tspan y="-534.206" x="534.6441">3</tspan></text>
<text xml:space="preserve" transform="matrix(1 0 -0 1 0 792)" font-size="10.9091" font-family="LMRoman10"><tspan y="-520.657" x="88.364009 96.08765 102.15311 105.18584 113.67312 119.12767 126.1095 130.35314 136.11315 142.1786 150.96044 160.66954 164.00772 169.46227 177.37137 182.22592 186.52411 191.37866 196.8332 199.86594 205.32048 209.56412 212.59685 218.05139">Ruleofthumbforescalation</tspan></text>
<text xml:space="preserve" transform="matrix(1 0 -0 1 0 792)" font-size="10.9091" font-family="LMRoman10"><tspan y="-520.657" x="227.50959 235.99686 244.48413 252.9714 261.45869 269.94596 278.43324 286.9205 295.40779 303.89506 312.38233 320.8696 329.35688 337.84416 346.33143 354.8187 363.29505 371.78233 380.2696 388.75688 397.24415 405.7314 414.2187 422.70597 431.19325 439.6805 448.1678 456.65507 465.14234 473.6296 482.11689 490.60417 499.09144 507.5787 516.066">...................................</tspan></text>
<text xml:space="preserve" transform="matrix(1 0 -0 1 0 792)" font-size="10.9091" font-family="LMRoman10"><tspan y="-520.657" x="534.6769">3</tspan></text>
<text xml:space="preserve" transform="matrix(1 0 -0 1 0 792)" font-size="10.9091" font-family="LMRoman10" font-weight="bold"><tspan y="-496.198" x="72.00001 81.42547 93.3382 97.51639 103.78912 112.84367 122.7055 128.45459 135.4255 141.1746 146.34552 152.44371 160.1128 169.53826 176.85826 182.60736 187.77828 193.87647 198.75284 202.23284 209.20375 219.65468 228.72014 235.69106 239.17105 244.92015">OM-0.GeneralOperatingRules</tspan></text>
<text xml:space="preserve" transform="matrix(1 0 -0 1 0 792)" font-size="10.9091" font-family="LMRoman10" font-weight="bold"><tspan y="-496.198" x="533.72769">3</tspan></text>
<text xml:space="preserve" transform="matrix(1 0 -0 1 0 792)" font-size="10.9091" font-family="LMRoman10" font-weight="bold"><tspan y="-471.74" x="72.00001 81.42547 93.3382 97.51639 103.78912 112.84367 121.974597 128.94551 133.82189 140.7928 147.06554 152.23645 155.71645 160.24373 171.05466 184.98558 194.6074 200.3565 205.93106 209.41106 214.36379 217.84378 224.11652 235.26563 243.51291 248.46564 254.04019 260.13838 263.61839 269.71656 274.59294 278.08384 284.35658">OM-1.Authority&#x0026;DecisionEscalation</tspan></text>
<text xml:space="preserve" transform="matrix(1 0 -0 1 0 792)" font-size="10.9091" font-family="LMRoman10" font-weight="bold"><tspan y="-471.74" x="533.7059">4</tspan></text>
<text xml:space="preserve" transform="matrix(1 0 -0 1 0 792)" font-size="10.9091" font-family="LMRoman10" font-weight="bold"><tspan y="-447.28199" x="72.00001 81.42547 93.3382 97.51639 103.78912 112.84367 119.81459 124.690959 130.44005 139.15642 145.25461 150.42552 157.39644 162.34917 169.32009 172.80008 183.96009 193.02555 199.29828 209.74919 216.72011 220.2001 223.6801 229.77829 236.7492 242.32376">OM-2.StewardshipCompliance</tspan></text>
<text xml:space="preserve" transform="matrix(1 0 -0 1 0 792)" font-size="10.9091" font-family="LMRoman10" font-weight="bold"><tspan y="-447.28199" x="533.72769">5</tspan></text>
<text xml:space="preserve" transform="matrix(1 0 -0 1 0 792)" font-size="10.9091" font-family="LMRoman10" font-weight="bold"><tspan y="-422.82398" x="72.00001 81.42547 93.3382 97.51639 103.78912 112.84367 122.323688 127.27641 132.22914 137.97824 147.0437 160.97463 165.73099 172.7019 176.531 181.70192 187.80011 192.75284 197.62921 202.80013 209.77104 215.3456 220.22197 227.19289 232.3638 242.29109 254.20383 260.302 267.27293 273.3711 279.64384 285.3929 295.84385 301.59294 308.21476">OM-3.Asset&#x0026;InfrastructureManagement</tspan></text>
<text xml:space="preserve" transform="matrix(1 0 -0 1 0 792)" font-size="10.9091" font-family="LMRoman10" font-weight="bold"><tspan y="-422.82398" x="533.72769">5</tspan></text>
<text xml:space="preserve" transform="matrix(1 0 -0 1 0 792)" font-size="10.9091" font-family="LMRoman10" font-weight="bold"><tspan y="-398.365" x="72.00001 81.42547 93.3382 97.51639 103.78912 112.84367 121.06914 127.16733 132.33824 137.21462 144.18553 149.93463 159.29465 173.22557 181.65831 187.40741 194.37833 201.34925 207.62198 216.97109 225.21837 232.18929 238.46202 244.56021 250.83295 256.58204 267.03297 272.78205 279.41477">OM-4.Partner&#x0026;VendorEngagement</tspan></text>
<text xml:space="preserve" transform="matrix(1 0 -0 1 0 792)" font-size="10.9091" font-family="LMRoman10" font-weight="bold"><tspan y="-398.365" x="533.7277">5</tspan></text>
<text xml:space="preserve" transform="matrix(1 0 -0 1 0 792)" font-size="10.9091" font-family="LMRoman10" font-weight="bold"><tspan y="-373.90699" x="72.00001 81.42547 93.3382 97.51639 103.78912 112.84367 119.81459 124.690959 130.78914 134.44915 142.29825 151.36371 157.63645 164.60736 171.57828 178.5492 184.12375 193.17832 207.10924 216.73107 220.21106 226.4838 233.45471 236.93471 241.46199">OM-5.StaffConduct&#x0026;Dignity</tspan></text>
<text xml:space="preserve" transform="matrix(1 0 -0 1 0 792)" font-size="10.9091" font-family="LMRoman10" font-weight="bold"><tspan y="-373.90699" x="533.7168">5</tspan></text>
<text xml:space="preserve" transform="matrix(1 0 -0 1 0 792)" font-size="10.9091" font-family="LMRoman10" font-weight="bold"><tspan y="-349.44898" x="72.00001 81.42547 93.3382 97.51639 103.78912 112.84367 119.81459 125.91278 129.74188 135.49098 140.01827 150.8292 164.76012 174.57831 180.6765 186.25106 192.34925 197.52016 208.66927 218.08382 223.83292 228.78565 236.10565 242.37839 249.3493 254.30204">OM-6.Safety&#x0026;HazardResponse</tspan></text>
<text xml:space="preserve" transform="matrix(1 0 -0 1 0 792)" font-size="10.9091" font-family="LMRoman10" font-weight="bold"><tspan y="-349.44898" x="533.7277">5</tspan></text>
<text xml:space="preserve" transform="matrix(1 0 -0 1 0 792)" font-size="10.9091" font-family="LMRoman10" font-weight="bold"><tspan y="-324.99" x="72.00001 81.42547 93.3382 97.51639 103.78912 112.84367 122.269138 128.54187 134.29097 139.46189 144.6328 148.1128 155.08371 160.83281 169.97464 183.90557 192.15285 198.77468 204.34923 210.09833 217.06925 221.94562 225.42562 231.69835 238.66927">OM-7.Overrides&#x0026;Exceptions</tspan></text>
<text xml:space="preserve" transform="matrix(1 0 -0 1 0 792)" font-size="10.9091" font-family="LMRoman10" font-weight="bold"><tspan y="-324.99" x="533.7277">6</tspan></text>
<text xml:space="preserve" transform="matrix(1 0 -0 1 0 792)" font-size="10.9091" font-family="LMRoman10" font-weight="bold"><tspan y="-300.53199" x="72.00001 81.42547 93.3382 97.51639 103.78912 112.84367 120.52368 125.694599 131.79279 138.7637 143.71643 150.68735 156.78554 161.95645 167.70555 174.67647 180.25102 191.06195 204.99288 212.54198 218.81472 225.08745 231.36019 234.84018 241.8111">OM-8.Transparency&#x0026;Logging</tspan></text>
<text xml:space="preserve" transform="matrix(1 0 -0 1 0 792)" font-size="10.9091" font-family="LMRoman10" font-weight="bold"><tspan y="-300.53199" x="533.73867">6</tspan></text>
<text xml:space="preserve" transform="matrix(1 0 -0 1 0 792)" font-size="10.9091" font-family="LMRoman10" font-weight="bold"><tspan y="-276.07398" x="72.00001 81.42547 93.3382 97.51639 103.78912 112.84367 119.69459 125.79278 129.27278 132.75278 139.7237 144.8946 154.8328 164.65099 170.74918 177.7201 184.69101 188.171 191.651 198.62192">OM-9.FailureHandling</tspan></text>
<text xml:space="preserve" transform="matrix(1 0 -0 1 0 792)" font-size="10.9091" font-family="LMRoman10" font-weight="bold"><tspan y="-276.07398" x="533.7168">7</tspan></text>
<text xml:space="preserve" transform="matrix(1 0 -0 1 0 792)" font-size="10.9091" font-family="LMRoman10" font-weight="bold"><tspan y="-251.61597" x="72.00001 81.42547 93.3382 97.51639 103.78912 110.06186 119.11641 128.53096 134.28006 140.90189 144.38188 150.13098 163.38553 177.31645 185.56374 191.83647 198.1092 201.5892 208.56012 213.4365 216.91649 223.18923">OM-10.Review&#x0026;Evolution</tspan></text>
<text xml:space="preserve" transform="matrix(1 0 -0 1 0 792)" font-size="10.9091" font-family="LMRoman10" font-weight="bold"><tspan y="-251.61597" x="533.71676">7</tspan></text>
<text xml:space="preserve" transform="matrix(1 0 -0 1 0 792)" font-size="10.9091" font-family="LMRoman10" font-weight="bold"><tspan y="-227.15697" x="72.00001 81.42547 93.3382 97.51639 103.78912 110.06186 119.11641 127.36369 137.8146 143.5637 148.73462 155.00736 160.75646 167.72737 173.30193 184.11286 193.24378 200.21469 205.09107 212.06198 218.33472 223.50563 226.98563 231.51291">OM-11.EmergencyAuthority</tspan></text>
<text xml:space="preserve" transform="matrix(1 0 -0 1 0 792)" font-size="10.9091" font-family="LMRoman10" font-weight="bold"><tspan y="-227.15697" x="533.7277">7</tspan></text>
<text xml:space="preserve" transform="matrix(1 0 -0 1 0 792)" font-size="10.9091" font-family="LMRoman10"><tspan y="-213.60797" x="88.364009 96.85129 106.854938 110.48766 115.942218 121.39677 124.4295 136.24407 140.18225 145.95317 151.40773 157.16773 162.02228 167.47682 171.72046 174.74228 180.19683 189.90593 197.62958 203.69504 206.72777 211.58232">OM-11.AInvocationRules</tspan></text>
<text xml:space="preserve" transform="matrix(1 0 -0 1 0 792)" font-size="10.9091" font-family="LMRoman10"><tspan y="-213.60797" x="219.0005 227.48778 235.97505 244.46233 252.9496 261.4369 269.92417 278.41145 286.8987 295.386 303.87327 312.36054 320.8478 329.33509 337.82237 346.2987 354.78599 363.27326 371.76054 380.2478 388.73509 397.22236 405.70964 414.1969 422.68418 431.17146 439.65873 448.146 456.63328 465.12055 473.60783 482.0951 490.58238 499.06965 507.55693 516.0442">....................................</tspan></text>
<text xml:space="preserve" transform="matrix(1 0 -0 1 0 792)" font-size="10.9091" font-family="LMRoman10"><tspan y="-213.60797" x="534.6551">7</tspan></text>
<text xml:space="preserve" transform="matrix(1 0 -0 1 0 792)" font-size="10.9091" font-family="LMRoman10"><tspan y="-200.05898" x="88.364009 96.85129 106.854938 110.48766 115.942218 121.39677 124.4295 135.78588 143.21497 147.49134 152.94588 159.31679 164.77133 169.0477 173.29134 176.32407 181.77861 187.84407 193.29862 196.33135 199.36408 203.30226 212.70592 219.66593 224.52048 228.81867">OM-11.BProportionalityTest</tspan></text>
<text xml:space="preserve" transform="matrix(1 0 -0 1 0 792)" font-size="10.9091" font-family="LMRoman10"><tspan y="-200.05898" x="235.97504 244.46231 252.94959 261.43687 269.92414 278.4114 286.89869 295.37504 303.8623 312.34959 320.83686 329.32414 337.8114 346.29869 354.78596 363.27323 371.7605 380.24778 388.73506 397.22233 405.7096 414.19688 422.68415 431.17143 439.6587 448.14598 456.63325 465.1205 473.6078 482.09507 490.58235 499.0696 507.5569 516.0441">..................................</tspan></text>
<text xml:space="preserve" transform="matrix(1 0 -0 1 0 792)" font-size="10.9091" font-family="LMRoman10"><tspan y="-200.05898" x="534.655">7</tspan></text>
<text xml:space="preserve" transform="matrix(1 0 -0 1 0 792)" font-size="10.9091" font-family="LMRoman10"><tspan y="-186.50998" x="88.364009 96.85129 106.854938 110.48766 115.942218 121.39677 124.4295 135.9386 143.9677 149.42224 152.45497 155.4877 158.52043 164.58589 173.68408 177.62227 183.38228 188.83684 194.59683 199.45139 204.90593 209.14957 212.1823 217.63684 227.33504 234.30596 238.58232 241.61505 247.0696 252.52414 257.3787">OM-11.CRollingInvocationTrigger</tspan></text>
<text xml:space="preserve" transform="matrix(1 0 -0 1 0 792)" font-size="10.9091" font-family="LMRoman10"><tspan y="-186.50998" x="269.92417 278.41145 286.8987 295.386 303.87327 312.36054 320.8478 329.33509 337.82237 346.2987 354.78599 363.27326 371.76054 380.2478 388.73509 397.22236 405.70964 414.1969 422.68418 431.17146 439.65873 448.146 456.63328 465.12055 473.60783 482.0951 490.58238 499.06965 507.55693 516.0442">..............................</tspan></text>
<text xml:space="preserve" transform="matrix(1 0 -0 1 0 792)" font-size="10.9091" font-family="LMRoman10"><tspan y="-186.50998" x="534.6551">8</tspan></text>
<text xml:space="preserve" transform="matrix(1 0 -0 1 0 792)" font-size="10.9091" font-family="LMRoman10"><tspan y="-172.96099" x="88.364009 96.85129 106.854938 110.48766 115.942218 121.39677 124.4295 136.39679 144.28408 150.34954 156.415 159.44773 167.3241 175.50592 181.26592 186.72046 192.48047">OM-11.DAuditHooks</tspan></text>
<text xml:space="preserve" transform="matrix(1 0 -0 1 0 792)" font-size="10.9091" font-family="LMRoman10"><tspan y="-172.96099" x="202.01503 210.5023 218.98958 227.47686 235.96413 244.4514 252.93868 261.42597 269.91325 278.4005 286.8878 295.37507 303.86235 312.3496 320.83689 329.32417 337.81144 346.28779 354.77507 363.26234 371.7496 380.23689 388.72416 397.21144 405.6987 414.18598 422.67326 431.16053 439.6478 448.13508 456.62236 465.10963 473.5969 482.08418 490.57145 499.05873 507.546 516.03329">......................................</tspan></text>
<text xml:space="preserve" transform="matrix(1 0 -0 1 0 792)" font-size="10.9091" font-family="LMRoman10"><tspan y="-172.96099" x="534.64419">8</tspan></text>
<text xml:space="preserve" transform="matrix(1 0 -0 1 0 792)" font-size="10.9091" font-family="LMRoman10"><tspan y="-159.41098" x="88.364009 96.85129 106.854938 110.48766 115.942218 121.39677 124.4295 135.49134 142.92043 148.98589 152.32407 157.77861 162.05498 166.90953 171.76409 180.85137 185.70592 191.47684">OM-11.EEnforcement</tspan></text>
<text xml:space="preserve" transform="matrix(1 0 -0 1 0 792)" font-size="10.9091" font-family="LMRoman10"><tspan y="-159.41098" x="202.04776 210.53504 219.02231 227.50959 235.99686 244.48413 252.9714 261.45869 269.94596 278.43324 286.9205 295.40779 303.89506 312.38233 320.85868 329.34596 337.83323 346.3205 354.80778 363.29505 371.78233 380.2696 388.75688 397.24415 405.7314 414.2187 422.70597 431.19325 439.6805 448.1678 456.65507 465.14234 473.6296 482.11689 490.60417 499.09144 507.5787 516.066">......................................</tspan></text>
<text xml:space="preserve" transform="matrix(1 0 -0 1 0 792)" font-size="10.9091" font-family="LMRoman10"><tspan y="-159.41098" x="534.6769">9</tspan></text>
<text xml:space="preserve" transform="matrix(1 0 -0 1 0 792)" font-size="10.9091" font-family="LMRoman10"><tspan y="-145.86199" x="88.364009 96.85129 106.854938 110.48766 115.942218 121.39677 124.4295 135.18589 142.61498 151.70226 156.55681 160.83318 166.28772 171.14228 177.20774 182.06229 191.46595 197.67322 201.94959 206.80414 212.56415 218.62961 223.48416 229.54962 234.40418 243.79692 253.80057 259.25514 265.33149 268.3533 272.59696 278.0515 282.32789 285.3606 291.42607">OM-11.FEmergencyFrequencyMonitoring</tspan></text>
<text xml:space="preserve" transform="matrix(1 0 -0 1 0 792)" font-size="10.9091" font-family="LMRoman10"><tspan y="-145.86199" x="303.90608 312.39335 320.8806 329.3679 337.85517 346.34245 354.8297 363.317 371.80427 380.29154 388.7788 397.26609 405.75337 414.24064 422.7279 431.21519 439.70246 448.18974 456.677 465.16429 473.65156 482.13883 490.6261 499.11338 507.60066 516.0879">..........................</tspan></text>
<text xml:space="preserve" transform="matrix(1 0 -0 1 0 792)" font-size="10.9091" font-family="LMRoman10"><tspan y="-145.86199" x="534.6988">9</tspan></text>
<text xml:space="preserve" transform="matrix(1 0 -0 1 0 792)" font-size="10.9091" font-family="LMRoman10"><tspan y="-132.31299" x="88.364009 96.85129 106.854938 110.48766 115.942218 121.39677 124.4295 136.62587 143.44406 148.8986 154.35315 164.06226 170.12772 176.19318 181.04773 187.11319 193.17865 196.21138 202.27684 211.36412 216.81867 222.88413 232.59323 239.55324 243.8296 246.86234 252.31688 257.77143">OM-11.GLoadSheddingandTriage</tspan></text>
<text xml:space="preserve" transform="matrix(1 0 -0 1 0 792)" font-size="10.9091" font-family="LMRoman10"><tspan y="-132.31299" x="269.94599 278.43327 286.92054 295.4078 303.89509 312.38236 320.86964 329.3569 337.83326 346.32054 354.8078 363.29508 371.78236 380.26963 388.7569 397.24418 405.73146 414.21873 422.706 431.19328 439.68055 448.16783 456.6551 465.14237 473.62965 482.1169 490.6042 499.09147 507.57875 516.066">..............................</tspan></text>
<text xml:space="preserve" transform="matrix(1 0 -0 1 0 792)" font-size="10.9091" font-family="LMRoman10"><tspan y="-132.31299" x="534.6769">9</tspan></text>
<text xml:space="preserve" transform="matrix(1 0 -0 1 0 792)" font-size="10.9091" font-family="LMRoman10" font-weight="bold"><tspan y="-107.85499" x="72.00001 81.42547 93.3382 97.51639 106.9964 114.65459 123.22914 128.40006 134.14916 138.32735 147.7419 153.491 159.76374 163.24373 168.19646 173.07283 178.24375 184.34194 189.2183 192.70922 198.98195 210.13106 219.55652 226.87653 232.62563 237.79654 243.89473 248.7711 252.2511 259.22203 269.67295 279.50205 285.25114 290.42207 297.39299 303.14207 310.81117 315.68754 325.30937 331.05845 337.68028 341.85847 348.1312">OM-A.Pre-RegistrationOperatingKernel(Day-1)</tspan></text>
<text xml:space="preserve" transform="matrix(1 0 -0 1 0 792)" font-size="10.9091" font-family="LMRoman10" font-weight="bold"><tspan y="-107.85499" x="533.70596">9</tspan></text>
<text xml:space="preserve" transform="matrix(1 0 -0 1 0 792)" font-size="10.9091" font-family="LMRoman10"><tspan y="-94.305988" x="88.364009 96.85129 106.854938 110.48766 118.66949 121.70222 130.7895 136.85497 141.70952 147.16407 153.53498 162.02227 167.4768 173.54227 183.25138 189.46956 195.53502 201.60048 206.45503 210.69867 213.7314 219.18595">OM-A.1ScopeandFunction</tspan></text>
<text xml:space="preserve" transform="matrix(1 0 -0 1 0 792)" font-size="10.9091" font-family="LMRoman10"><tspan y="-94.305988" x="235.99687 244.48415 252.97142 261.4587 269.94599 278.43327 286.92054 295.4078 303.89509 312.38236 320.86964 329.3569 337.84419 346.33146 354.81874 363.306 371.79328 380.28056 388.76783 397.2551 405.74238 414.22966 422.71693 431.2042 439.69148 448.17875 456.66603 465.14237 473.62965 482.1169 490.6042 499.09147 507.57875 516.066">..................................</tspan></text>
<text xml:space="preserve" transform="matrix(1 0 -0 1 0 792)" font-size="10.9091" font-family="LMRoman10"><tspan y="-94.305988" x="534.6878">9</tspan></text>
<text xml:space="preserve" transform="matrix(1 0 -0 1 0 792)" font-size="10.9091" font-family="LMRoman10"><tspan y="-80.75598" x="88.364009 96.85129 106.854938 110.48766 118.66949 121.70222 130.7895 138.8186 144.27315 147.30588 152.16043 155.79317 162.61136 165.64409 174.73137 177.7641 182.00774 186.86229 196.5714 204.44777 210.51323 214.75687 220.82233 226.27687 230.55324 233.58597 237.52416 246.9169 251.16054 259.4951 264.6551 270.4151 274.04783 279.50239">OM-A.2Role-LimitedAuthority(Day-1)</tspan></text>
<text xml:space="preserve" transform="matrix(1 0 -0 1 0 792)" font-size="10.9091" font-family="LMRoman10"><tspan y="-80.75598" x="286.88786 295.37513 303.8624 312.34968 320.83695 329.32423 337.8115 346.29878 354.78605 363.27333 371.7606 380.24787 388.73515 397.2224 405.7097 414.19697 422.68424 431.1715 439.64787 448.13514 456.6224 465.10969 473.59696 482.08424 490.5715 499.05879 507.54606 516.0333">............................</tspan></text>
<text xml:space="preserve" transform="matrix(1 0 -0 1 0 792)" font-size="10.9091" font-family="LMRoman10"><tspan y="-80.75598" x="529.2006 534.65518">10</tspan></text>
<text xml:space="preserve" transform="matrix(1 0 -0 1 0 792)" font-size="10.9091" font-family="LMRoman10"><tspan y="-42.11198" x="303.273">1</tspan></text>
</svg>
