<svg xmlns="http://www.w3.org/2000/svg" xmlns:xlink="http://www.w3.org/1999/xlink" xmlns:inkscape="http://www.inkscape.org/namespaces/inkscape" version="1.1" width="612" height="792" viewBox="0 0 612 792">
<text xml:space="preserve" transform="matrix(1 0 -0 1 0 792)" font-size="11.9552" font-family="LMRoman12" font-weight="bold"><tspan y="-709.041" x="72 78.73078 82.47276 89.203548">4.24</tspan></text>
<text xml:space="preserve" transform="matrix(1 0 -0 1 0 792)" font-size="11.9552" font-family="LMRoman12" font-weight="bold"><tspan y="-709.041" x="106.02451 116.36576 123.83776 131.68036 137.81337 147.79596 156.6189 164.0909 176.0461 182.77687 191.37267 200.56621 206.0656 212.19861 218.55878 225.09827 228.84024 232.58222 236.32419 243.79619 255.01016 267.76637 274.30586 279.80525 286.52406 292.65708 302.37669 312.89726 319.62803 325.1274 336.3414">UpperEndofPrevailingMarketNorms</tspan></text>
<text xml:space="preserve" transform="matrix(.9899495 0 -0 1.0101526 0 792)" font-size="10.799458" font-family="LMRoman10"><tspan y="-681.5287" x="72.33399 80.131198 86.1357 94.073299 102.17289 108.17739 114.49508 119.300838 126.66607 134.02051 140.025 149.17214 154.57187 161.00835 168.3628 172.59618 177.40193 182.4885 187.88822 190.89048 193.89272 196.89498 202.89948 211.43105 221.33415 226.73389 230.96727 236.367 241.17276 248.5056 256.6052 262.0049 266.23829 275.23426 282.63188 291.6278 296.43357 301.83329 307.8378 315.22465 320.03038 325.4301 334.42607 340.73295 345.5387 351.5432 355.80897 361.2087 365.40968 368.40113 373.80088 382.948 388.34773 395.68055 401.0803 408.4563 413.85603 420.1629 425.26026 430.6492 438.59757 442.79856 448.80305 456.74064 460.99565 465.80137 471.2011 476.00685 481.69819 485.59678 491.2989 494.8951 497.89738 500.8996 504.20426 508.4052 517.54159 521.7425 527.1422 532.542 536.7429 542.74746">TheUpperEndofPrevailingMarketNormsmeanscompensationatorabovetheseventy-fifth(75th)</tspan></text>
<text xml:space="preserve" transform="matrix(1.0084641 0 -0 .99160686 0 792)" font-size="11.001436" font-family="LMRoman10"><tspan y="-680.61148" x="71.3957 77.80954 82.70517 87.01774 91.91338 96.80902 102.62878 106.90833 109.966739 113.02514 121.54025 127.04097 134.03789 137.09629 143.21309 149.3299 154.22554 160.63939 165.53502 171.65183 177.76863 182.66428 188.48403 192.7636 195.82199 205.26123 210.76195 215.65758 219.97014 223.02855 226.08695 229.14534 234.64606 240.76287 243.82128 252.34738 261.51158 267.0123 271.32487 276.83656 281.73219 289.63124 294.5269 300.0276 309.19178 315.60563 320.50129 326.61808 330.95265 336.45335 340.7329 343.79133 349.29203 359.0393 362.40574 367.90647 375.8495 380.74513 386.24583 395.41004 401.52684 407.02754 411.3401 416.84083 422.9576 426.01603 434.53114 438.8437 444.34443 447.4028 452.29844 456.633 463.32188 467.63444 472.53007 476.86463 483.28947 488.79017 494.90699 499.24156 502.29994 508.41676 511.47517 514.53359 517.592 521.8715 524.92996 529.82559 534.16018">percentileofindependentlyverifiablemarketcompensationforcomparableroles,responsibilities,</tspan></text>
<text xml:space="preserve" transform="matrix(1 0 -0 1 0 792)" font-size="10.9091" font-family="LMRoman10"><tspan y="-661.35" x="72 76.85455 82.614559 88.98547 93.84003 98.116397 101.149127 106.00368 112.06914 116.92369 121.778247 128.44371 133.89826 139.96372 149.66191 155.11646 159.97101 165.42555 170.8801 175.15647 180.61101 186.67647 192.74193 195.77466 204.27286 209.12741 214.58196 220.34197 224.5856 229.44016 235.20017 239.4438">experience,andgeographiccontext.</tspan><tspan y="-641.026" x="72 80.33455 85.1891 89.43274 94.28729 98.56366 107.65094 110.68367 116.74913 122.20368 126.44732 129.48004 134.93459 144.63278 153.41461 159.49098 163.78917 168.0328">Determinationmust:</tspan></text>
<text xml:space="preserve" transform="matrix(1 0 -0 1 0 792)" font-size="10.9091" font-family="LMRoman10"><tspan y="-614.725" x="72">&#x2022;</tspan></text>
<text xml:space="preserve" transform="matrix(1 0 -0 1 0 792)" font-size="10.9091" font-family="LMRoman10"><tspan y="-614.725" x="85.94183 92.00729 96.30548 104.79276 108.73095 114.79641 120.86187 125.716419 132.08733 136.94188 143.00734 149.0728 153.92736 159.69828 163.94191 166.96373 176.36739 183.63285 188.4874 192.76377 195.7965 198.82923 201.86196 207.3165 213.38196 216.41469 224.91289 232.78926 238.2438 247.33109 253.702 258.55656 264.622 268.9202 274.37477 278.6184 281.65113 287.10569 296.80387 305.13844 310.593 314.83665 323.92393 328.16758 333.62214 341.56398 347.62944 352.48399 355.5167 358.54945 364.6149 369.46946 379.16764 382.20036 391.89854 397.97489 402.81855 407.6731 411.91676 414.94947 420.40403">useIndependentlyVerifiableCompensationData(asdefinedinSection</tspan></text>
<text xml:space="preserve" transform="matrix(1 0 -0 1 0 792)" font-size="10.9091" font-family="LMRoman10"><tspan y="-614.725" x="430.11314 435.5677 438.6004 444.05497">4.23</tspan></text>
<text xml:space="preserve" transform="matrix(1 0 -0 1 0 792)" font-size="10.9091" font-family="LMRoman10"><tspan y="-614.725" x="449.50953">)</tspan></text>
<text xml:space="preserve" transform="matrix(1 0 -0 1 0 792)" font-size="10.9091" font-family="LMRoman10"><tspan y="-592.40798" x="72">&#x2022;</tspan></text>
<text xml:space="preserve" transform="matrix(1 0 -0 1 0 792)" font-size="10.9091" font-family="LMRoman10"><tspan y="-592.40798" x="85.94183 90.2182 95.072757 98.105487 107.498218 112.95277 122.661869 131.4437 137.50916 140.54189 144.78553 147.81826 153.88372 156.91645 165.40373 169.6801 174.53466 180.60012 186.66558 190.90921 196.36376 202.42922 205.46195 213.94924 218.25833 223.71288 229.77834 234.0547 238.89835 243.7529 251.69474 259.5711 265.63658 270.49113 274.7675 283.25477 288.40388 293.56388 299.01844 302.05116 305.08387 310.53843 316.60389 319.6366">relyonmultiplereputablesourceswhereavailable</tspan></text>
<text xml:space="preserve" transform="matrix(1 0 -0 1 0 792)" font-size="10.9091" font-family="LMRoman10"><tspan y="-570.092" x="72">&#x2022;</tspan></text>
<text xml:space="preserve" transform="matrix(1 0 -0 1 0 792)" font-size="10.9091" font-family="LMRoman10"><tspan y="-570.092" x="85.94183 92.00729 96.86185 100.200038 105.65459 111.72005 114.75278 122.62914 126.87278 135.97098 140.21462 146.28008 154.76737 160.83283 163.86556 169.3201 175.38556 180.24011 188.14922 194.52013 199.37468 205.44014 209.98925 216.0547 225.14199 230.59653 234.8729 244.27655 252.15293 258.21839 263.07295 267.3493 275.83659 280.69114 284.9675 289.82206 295.8875 298.92024 304.9857 308.0184 316.50569 320.80387 326.25843 332.32389 336.60026 341.4548 346.30937 354.2512 360.31666 363.34938 368.80393 373.65849 377.93486 383.3894">defaulttothehigherbenchmarkwherecrediblesourcesdiverge</tspan></text>
<text xml:space="preserve" transform="matrix(.9899495 0 -0 1.0101526 0 792)" font-size="10.799458" font-family="LMRoman10"><tspan y="-538.3256" x="72.73098 76.62958 83.487239 89.79412 94.599887 98.833278 103.63904 108.44479 114.14691 118.3479 121.35015 124.341609 132.7004 138.7049 144.10463 148.30562 157.25838 160.26062 168.05783 174.06233 180.06684 185.16417 190.25072 195.65045 198.6527 201.65496 207.05469 213.05919 216.06143 224.42023 227.72486 233.12459 240.90019 249.85295 254.08635 259.48606 262.4883 267.29408 273.87095 278.0719 284.07643 292.42439 300.90196 305.99928 311.39903 316.20475 320.42735 326.44264 329.43409 335.44938 344.39134 352.03736 357.73948 363.75477 372.9991 381.6927 387.69718 391.95216 399.69538 405.69987 411.41276 416.2185 422.22303 431.21897 436.02473 441.71604 449.47004 458.42277 463.22853 468.62825 474.63276 478.88774 483.69349 487.92686 493.0134 498.41316 502.6141 505.61637 511.0053 519.3641 525.3685 529.602 534.69937 540.4014">Ifpercentiledataisunavailableforarole,theGoverningBodymustdocumentaconservativeproxy</tspan></text>
<text xml:space="preserve" transform="matrix(1.0099504 0 -0 .99014756 0 792)" font-size="11.017651" font-family="LMRoman10"><tspan y="-535.5172" x="71.290637 80.46834 85.371189 89.65706 95.78287 101.58918 107.71499 113.223819 116.28672 121.79555 127.304378 137.40755 143.53337 148.43622 152.77719 155.84009 161.34893 167.47473 172.3776 182.77826 187.06412 196.85881 202.36763 208.49346 214.61927 218.93819 224.14954 229.96686 233.02976 242.20746 247.7163 252.00215 261.17985 265.46574 271.59153 280.76924 285.12123 290.01304 295.53288 300.43574 306.26405 310.25245 316.06977 319.73866 322.80155 325.86448 329.23585 333.52174 343.9224 348.20826 353.71708 359.2259 363.51176 369.63758 378.20933 384.63264 389.53547 393.8544 398.75727 403.6601 409.48844 413.7743 416.8372 419.90013 429.0778 434.5866 440.71244 451.1241 460.00434 466.13014 470.4711 479.03184 485.15763 488.22056 492.5615 497.46437 500.52726 506.03608 510.37699 519.56576 523.85159 529.97738">methodologydesignedtoapproximatetheseventy-fifth(75th)percentileandmustdisclosethe</tspan></text>
<text xml:space="preserve" transform="matrix(1 0 -0 1 0 792)" font-size="10.9091" font-family="LMRoman10"><tspan y="-516.692" x="72 75.03273 78.06546 87.15274 90.18547 94.42911 99.88366 104.1273 107.16003 112.61458 118.68004">limitation.</tspan><tspan y="-496.368" x="71.596 79.777828 85.53783 94.94147 99.217838 104.07239 109.52694 113.82513 119.27968 125.34514 130.79969 136.86515 139.89788 148.38516 154.45063 159.90517 165.97063 172.03609 179.91246 185.367 193.30884 197.55248 206.63976 213.01067 217.86522 222.14159 226.99614 231.8507 237.6107 241.85434 244.88707 247.9198 256.40708 262.47254 265.50526 270.9598 275.81437 280.6689 289.7562 294.61076 300.37077 308.25807 317.0399 323.10536 327.40354 335.2799 341.65083 350.14903 354.4145 359.26905 363.56724 369.0218 372.0545 377.51997 382.3745 392.0727 398.13816 403.89817 411.47999 416.93455 421.2109 427.27638">Anyreasonabledoubtastopercentileplacementmustberesolvedupward.</tspan><tspan y="-476.045" x="72 82.00365 88.06911 92.312747 97.767299 103.832759 106.865489 109.89822 112.93095 116.869129 122.62913 130.5164 138.69823 144.76369 149.31279 155.37825 160.8328 166.89826 172.3528 177.20735 182.6619 188.72736 191.76009">Mutability:Unchangeable</tspan></text>
<text xml:space="preserve" transform="matrix(1 0 -0 1 0 792)" font-size="11.9552" font-family="LMRoman12" font-weight="bold"><tspan y="-446.836" x="72 78.73078 82.47276 89.203548">4.25</tspan></text>
<text xml:space="preserve" transform="matrix(1 0 -0 1 0 792)" font-size="11.9552" font-family="LMRoman12" font-weight="bold"><tspan y="-446.836" x="106.02451 115.744098 122.47488 133.68886 141.53147 147.66448 155.13648 160.44458 166.98407 172.22045 175.96242 182.69319 194.64839 203.84194 211.31394 215.05591 218.79788 225.52866 230.83676 237.56754 245.03954 252.14093 263.72554 271.05409 276.55348 283.09297 294.30696 300.43998 309.78895 316.5197 322.0191">CompensationPhilosophyFramework</tspan></text>
<text xml:space="preserve" transform="matrix(1.0099504 0 -0 .99014756 0 792)" font-size="11.017651" font-family="LMRoman10"><tspan y="-430.48435" x="70.89061 82.910869 90.865619 96.37444 105.55215 111.98645 116.889308 123.01512 127.35608 132.86492 137.15077 140.21367 145.7225 155.60533 163.10837 169.23418 172.29709 175.35999 180.86882 185.20978 190.71862 196.84442 202.67276 212.25812 218.5492 222.86812 228.37694 237.55466 242.4575 250.11479 255.62363 259.94258 269.5169 272.5798 280.6888 289.95466 296.08049 301.88679 306.7896 312.91545 322.0931 326.99598 332.82429 337.11018 342.013 348.13883 355.0028 359.32176 364.83055 367.89347 372.7963 376.46519 380.75108 383.81398 388.7168 393.03575 397.93858 407.8214 413.33024 419.45606 425.58186 429.9008 435.4096 440.91844 445.52378 455.41764 459.70353 468.96937 473.8722 479.381 488.5587 494.982 499.88484 506.01066 510.35163 515.8605 520.1463 523.2092 528.7181">ACompensationPhilosophyFrameworkisadocumented,role-tieredapproachtocompensation</tspan><tspan y="-416.7995" x="71.290637 75.5765 81.70231 87.211139 95.78287 100.68572 105.02667 109.312549 114.821369 120.94718 124.010089 127.07299 131.41396 137.53977 142.44263 151.05844 155.3443 160.85312 165.17205 170.68088 175.58373 184.15546 188.47437 193.9832 200.10901 205.61785 210.5207 214.86167 222.3757 228.79898 233.70185 239.82765 244.43305 250.55886 259.73658 265.2454 269.5643 275.38166 278.44456 284.57038 294.35404 303.5317 308.43458 312.72044 318.84626 324.66355 330.78938 335.1303 342.64436 348.15318 354.279 364.67967 370.18846 376.31428 379.68568 385.8225 390.16349 394.44935 403.62705 408.52989 414.3472 422.91896 427.8218 432.14076 435.20365 439.48954 444.39237 448.7113 451.7742 461.55787 466.46073 471.9695 478.09535 482.4363 485.4992 489.84019 494.12605 499.0289 504.8572 513.4289 521.3836 524.44656 528.73239">thatestablishestargetranges,benchmarkingmethods,andadjustmentcriteriaconsistentwith</tspan></text>
<text xml:space="preserve" transform="matrix(1 0 -0 1 0 792)" font-size="10.9091" font-family="LMRoman10"><tspan y="-399.144" x="72 77.45455 81.73092 87.18547 92.64002 98.70548 101.73821 106.59276 112.04731 116.29095 119.32368 124.77823 130.84369 136.29824 142.9637 147.26189 153.32735 157.62554 161.86917 167.32372 170.35645 176.4219 181.87645 187.94191 190.97464 194.00737 197.0401 200.9892 205.83284 212.50922 218.57468 221.6074 227.06195 233.12741 236.16014 240.09833 249.49108 255.55654 259.8329 265.28746 269.5311 274.38566 279.2402 283.48387 286.51658 291.97114 298.0366 302.33479 309.01115 314.4657 320.53117 330.22935 336.2948 341.74937 347.81483 351.44755 356.3021 362.0621 366.30577 370.58213 376.03669 380.89125 385.1349 388.1676 393.62217 402.10945 408.1749 412.45127 415.48399 421.54945 426.404 429.4367 435.50218 438.53489 443.38945 447.68763">organizationalsustainability,dignityprotections,andnon-extractiveprinciples.</tspan><tspan y="-378.82" x="71.607 79.483379 85.548839 94.03611 97.3743 101.650669 107.10522 116.1925 121.04704 128.62888 134.08342 138.35979 147.75254 156.53437 162.59983 166.89801 171.14165">Theframeworkmust:</tspan></text>
<text xml:space="preserve" transform="matrix(1 0 -0 1 0 792)" font-size="10.9091" font-family="LMRoman10"><tspan y="-352.519" x="72">&#x2022;</tspan></text>
<text xml:space="preserve" transform="matrix(1 0 -0 1 0 792)" font-size="10.9091" font-family="LMRoman10"><tspan y="-352.519" x="85.94183 92.00729 96.86185 99.89458 102.92731 108.99277 117.48005 121.75642 127.21097 130.2437 138.7419 143.59645 149.051 153.29463 158.14919 163.60373 169.05828 173.32373 176.35646 181.21102 189.15285 197.02922 200.06195 204.30559 214.00379 218.85834 224.31288 233.40016 239.46562 244.92017 249.19654 254.65108 260.71653 263.74925 272.2365 276.51289 281.36744 285.66563 292.03654 297.4911 303.55656 307.85475 310.88746 316.9529 319.98564 323.01835 326.05107 329.98927 339.3929 344.84748 350.91294 360.6111 364.88749 367.9202 372.21839 381.62205 387.6875 391.96388 397.41844 400.45115 403.4839 406.5166 411.37117">definerolecategorieswithcomparableresponsibilityandriskprofiles</tspan></text>
<text xml:space="preserve" transform="matrix(1 0 -0 1 0 792)" font-size="10.9091" font-family="LMRoman10"><tspan y="-330.203" x="72">&#x2022;</tspan></text>
<text xml:space="preserve" transform="matrix(1 0 -0 1 0 792)" font-size="10.9091" font-family="LMRoman10"><tspan y="-330.203" x="85.94183 90.24002 96.61094 101.465488 106.32004 109.35277 112.690959 122.08369 126.327327 131.78188 136.05825 141.51279 146.36734 154.24372 159.09827 164.55281 173.64009 180.011 184.86556 190.93102 195.2292 200.68375 204.92739 207.96012 213.41466 223.12377 227.40013 232.85468 238.92014 244.37468 249.22924 257.16017 260.49836 265.9529 273.862 278.71656 284.1711 288.7202 298.42933 303.28388 308.73844 312.9821 317.83665 323.2912 328.74577 333.02214 342.41487 348.48033 352.7785 355.81123 361.87669 370.96397 373.99668 380.06214 386.1276 390.98216 397.35307 402.2076 408.27308 414.33854 419.19309 424.964 432.84037 439.21128 444.06584 450.1313 454.6804 460.74586 469.83314 475.2877 479.56407 485.32408">specifytargetcompensationrangesforeachcategoryusingindependentbenchmarks</tspan></text>
<text xml:space="preserve" transform="matrix(1 0 -0 1 0 792)" font-size="10.9091" font-family="LMRoman10"><tspan y="-307.88603" x="72">&#x2022;</tspan></text>
<text xml:space="preserve" transform="matrix(1 0 -0 1 0 792)" font-size="10.9091" font-family="LMRoman10"><tspan y="-307.88603" x="85.94183 88.97456 95.04002 99.89458 105.65458 109.89822 112.93095 116.269138 125.672779 130.52733 135.98188 142.04734 148.1128 151.14553 155.38916 158.42189 163.87644 169.9419 177.87282 183.93828 190.00374 196.0692 200.92375 208.83286 216.70923 222.77469 225.80742 230.36743 240.06563 244.92018 250.37473 259.462 265.83293 270.68748 276.75294 281.05113 286.50569 290.74934 293.78205 299.2366 308.93479 318.02207 323.17118 332.57484 338.94575 347.433 351.7312 356.58576 364.46214 369.9167 376.2876 381.4367 386.89128 395.38948 400.84403 408.7531 415.12403 419.97859 423.0113 428.1604 439.6695 443.91316 449.3677 453.64408 459.09864 463.9532">identifyconditionsunderwhichcompensationmaybesetaboveorbelowtarget</tspan></text>
<text xml:space="preserve" transform="matrix(1 0 -0 1 0 792)" font-size="10.9091" font-family="LMRoman10"><tspan y="-285.57" x="72">&#x2022;</tspan></text>
<text xml:space="preserve" transform="matrix(1 0 -0 1 0 792)" font-size="10.9091" font-family="LMRoman10"><tspan y="-285.57" x="85.94183 92.00729 96.28366 101.138217 105.4364 110.290958 114.56732 120.021869 128.50916 132.75279 138.81826 147.31645 155.651 158.68373 164.13828 170.20374 173.23647 177.17465 186.5674 193.69104 196.72377 202.48377 207.93831 215.84741 221.91287 227.97834 234.0547 238.89835 246.81836 252.2729 255.30564 261.97108 266.82563 269.85835 274.1347 278.98927 285.05473 294.142 298.4402 302.68385 308.1384 314.20387 319.0584 323.91297">preservetheDignityFloorunderallcircumstances</tspan></text>
<text xml:space="preserve" transform="matrix(1 0 -0 1 0 792)" font-size="10.9091" font-family="LMRoman10"><tspan y="-263.254" x="72">&#x2022;</tspan></text>
<text xml:space="preserve" transform="matrix(1 0 -0 1 0 792)" font-size="10.9091" font-family="LMRoman10"><tspan y="-263.254" x="85.94183 92.00729 96.28366 101.73821 107.80367 110.8364 116.90186 119.93459 127.81096 132.08733 136.94188 141.18552 146.64006 149.67279 152.70552 158.16007 162.4037 165.43643 170.89098 176.95644 183.63282 188.48737 194.23645 199.091 203.36737 208.22193 211.25466 216.7092 222.77466 229.45104 234.90558 242.81468 251.90196 254.9347 259.23289 263.53108 266.56379 272.01835 278.0838 281.71653 287.78199 293.23655 297.53474 302.38929 312.08747 318.15293 324.21839 330.29475 335.1384 339.41477 345.48023 350.64024 356.40025 365.48753 370.34208 376.10209">prohibitretaliation,coercion,ormission-basedunderpayment</tspan></text>
<text xml:space="preserve" transform="matrix(1 0 -0 1 0 792)" font-size="10.9091" font-family="LMRoman10"><tspan y="-240.937" x="72">&#x2022;</tspan></text>
<text xml:space="preserve" transform="matrix(1 0 -0 1 0 792)" font-size="10.9091" font-family="LMRoman10"><tspan y="-240.937" x="85.94183 92.31275 100.800029 106.865489 112.625499 117.48004 123.5455 132.63278 137.48734 143.24735 147.49098 152.34554 162.04373 167.49828 173.57465 183.27285 187.54921 192.40377 198.16378 201.1965 206.05106 213.62198 219.07653 225.14199 228.17472">bedocumentedandreviewable</tspan></text>
<text xml:space="preserve" transform="matrix(1.0099504 0 -0 .99014756 0 792)" font-size="11.017651" font-family="LMRoman10"><tspan y="-216.77175" x="71.290637 77.58171 83.09053 86.153438 89.21635 95.342159 99.66107 109.24643 113.532299 123.71261 132.8903 138.39914 141.46204 147.29039 151.57625 157.08509 160.14798 170.9563 176.46514 185.45554 188.82694 194.33577 197.39868 200.46158 205.67295 218.29917 223.808 234.61632 240.12514 246.25096 252.37677 256.69569 261.907 267.41587 272.3187 283.127 291.0818 296.59059 305.76829 312.1916 317.09443 323.22026 327.5612 333.07 337.3559 340.4188 345.9276 356.73594 364.23893 370.36476 373.42765 376.49058 381.9994 386.34034 391.84916 397.97499 403.80329 414.29209 420.59419 424.91313 430.42195 439.59965 444.50248 452.14875 457.65757 461.9765 472.47633 477.37919 482.88798 489.0138 493.35478 497.64064 500.70356 504.9894 511.11528 515.4011 520.30398 529.3164">FailuretomaintainorfollowanapprovedCompensationPhilosophyFrameworkconstitutesa</tspan></text>
<text xml:space="preserve" transform="matrix(1 0 -0 1 0 792)" font-size="10.9091" font-family="LMRoman10"><tspan y="-201.087" x="72 77.45455 82.603649 88.05819 92.912738 97.1891 103.25456 108.709117 114.774578 119.62912 128.12732 131.4655 136.92005 139.95278 142.9855 149.05097 153.32733 161.81462 166.09099 170.94554 176.70555 182.77101 185.80374 190.08011 193.11284 199.1783 208.26558 212.54195 217.3965 226.48378 231.33834 237.4038 240.43653 245.89107 250.1347 253.16744 258.62199 264.68745">governancefailurerequiringremediation.</tspan><tspan y="-180.763" x="72 82.00365 88.06911 92.312747 97.767299 103.832759 106.865489 109.89822 112.93095 116.869129 122.62913 130.5164 138.69823 144.76369 149.31279 155.37825 160.8328 166.89826 172.3528 177.20735 182.6619 188.72736 191.76009">Mutability:Unchangeable</tspan></text>
<text xml:space="preserve" transform="matrix(1 0 -0 1 0 792)" font-size="11.9552" font-family="LMRoman12" font-weight="bold"><tspan y="-151.554" x="72 78.73078 82.47276 89.203548">4.26</tspan></text>
<text xml:space="preserve" transform="matrix(1 0 -0 1 0 792)" font-size="11.9552" font-family="LMRoman12" font-weight="bold"><tspan y="-151.554" x="106.02451 116.329898 120.07188 126.80266 134.27466 138.01663 142.8824 154.467 162.91933 166.6613 173.76268 180.49346">DignityFloor</tspan></text>
<text xml:space="preserve" transform="matrix(.99095919 0 -0 1.0091233 0 792)" font-size="10.810472" font-family="LMRoman10"><tspan y="-129.77701" x="72.2603 80.06546 86.07608 94.55149 102.81069 105.816 111.22124 117.231868 120.237178 124.139759 133.52326 140.58249 143.5878 149.29573 154.70096 162.60343 165.60872 173.54363 177.74889 183.75952 192.23493 201.24005 204.24536 210.25598 213.26128 221.96372 227.97434 240.64421 245.45487 250.8601 259.86524 266.18937 270.98924 277.01063 281.26997 286.6752 290.88047 293.8858 299.29103 308.96638 311.9717 316.78239 322.1876 326.99827 333.66835 339.98167 344.79234 347.79765 352.90019 364.3701 372.17524 378.18586 381.19117 385.69917 395.3853 401.39595 410.4659 416.4765 421.88175 426.11946 430.32475 433.33006 438.14073 441.14607 447.15666 452.5619 456.76716 459.7725 465.78309 474.85307 477.8584 483.869 489.8796 492.88493 498.59284 501.59819 507.60877 513.6302 519.0354 525.70547 534.7106 539.8132">TheDignityFlooristheminimumcompensationlevelbelowwhichnoparticipatingindividualmay</tspan></text>
<text xml:space="preserve" transform="matrix(1 0 -0 1 0 792)" font-size="10.9091" font-family="LMRoman10"><tspan y="-117.412" x="72 78.37092 86.85819 91.13456 95.989109 102.054569 108.120029 112.97458 117.82913 127.52732 133.59278 139.65824 145.7346 150.57825 158.49826 163.9528 169.71282 179.10556 185.17102 190.62557 194.90193 200.96739 205.27649 211.34195 214.37468 220.44014 227.1056 231.96016 241.04744 245.902 250.17836 255.6329 260.48747 266.55293 271.40748 276.25114 282.9275 288.38206 296.29115 301.1457 306.60026 312.36027 316.6039 319.63664 325.39665 331.4621 334.4948 338.4439 347.83665 356.92393 361.77848 366.32759 372.39305 377.8476 383.91307 386.94578 391.24397 400.33125">bereducedunderanyhardship,emergency,orcontinuitymechanism.</tspan></text>
<text xml:space="preserve" transform="matrix(1.0044899 0 -0 .9955302 0 792)" font-size="10.95808" font-family="LMRoman10"><tspan y="-97.52391" x="71.286937 79.19867 85.29136 93.77292 102.14489 105.19123 110.67027 116.76296 119.80931 123.77614 133.16722 140.32285 143.3692 149.15506 154.63411 162.53488 171.35616 177.45981 181.77729 189.64519 196.03376 204.52626 208.84375 214.93645 217.97914 221.02184 224.06453 228.94087 231.98723 236.86357 242.64946 250.5283 254.791 263.87528 273.00337 277.8797 282.75608 290.62397 296.71669 302.1957 306.51319 309.55955 318.0521 321.09846 324.14479 329.93067 332.96607 339.06974 348.15397 354.24668 359.12303 363.9994 370.09208 378.0148 381.36796 386.847 394.75874 399.02143 405.11415 413.5957 419.07475 425.16743 431.26014 434.3065 437.35285 442.2292 447.70823 453.80094 456.8473 465.32887 469.62443 475.10346 478.14979 486.64234 492.73506 498.21409 501.2604 507.35313 512.22946 520.13027 525.6093 531.702">TheDignityFloormustbesufficienttomeetbasiclivingneedsfortheapplicableroleholderand</tspan></text>
<text xml:space="preserve" transform="matrix(1 0 -0 1 0 792)" font-size="10.9091" font-family="LMRoman10"><tspan y="-83.539" x="72 80.78182 86.84728 91.14547 99.032749 105.39275 113.89094 119.9564 124.81094 129.05458 133.90914 138.1855 147.27278 150.30551 156.37097 161.22553 170.92372 176.98918 181.28737 184.3201 190.38556 199.47284 204.92739 211.2983 214.63648 219.49103 224.34558 228.58922 231.62195 237.0765 241.93106 248.60744 253.46199 259.222 263.46565 268.3202 272.59657 278.66203 284.11659 287.1493 290.182 299.57475 305.0293 309.88386 314.16023 317.19294 320.22566 323.2584 328.71296 334.7784 337.81114 346.2984 351.15296 355.42933 358.46205 362.7057 367.56025 371.8366 374.86933 380.32389">mustbedeterminedusingobjective,externallyverifiablecriteria.</tspan></text>
<text xml:space="preserve" transform="matrix(1 0 -0 1 0 792)" font-size="10.9091" font-family="LMRoman10"><tspan y="-42.112005" x="300.54499 305.99955">18</tspan></text>
</svg>
