<svg xmlns="http://www.w3.org/2000/svg" xmlns:xlink="http://www.w3.org/1999/xlink" xmlns:inkscape="http://www.inkscape.org/namespaces/inkscape" version="1.1" width="612" height="792" viewBox="0 0 612 792">
<text xml:space="preserve" transform="matrix(1 0 -0 1 0 792)" font-size="14.3462" font-family="LMRoman12" font-weight="bold"><tspan y="-707.447" x="72 80.07691">14</tspan></text>
<text xml:space="preserve" transform="matrix(1 0 -0 1 0 792)" font-size="14.3462" font-family="LMRoman12" font-weight="bold"><tspan y="-707.447" x="100.26202 112.45628 125.91302 133.27262 142.23899 151.20536 164.6621 172.0217 180.54334 192.20679 200.05416 209.02053 223.36672 238.6741 247.64048 253.9241 261.75715 270.7235 275.21388 279.70423 284.19459 290.03349 303.93495 315.52668 324.49305 328.9834 336.343">AmendmentandMutabilityRules</tspan></text>
<text xml:space="preserve" transform="matrix(1 0 -0 1 0 792)" font-size="10.9091" font-family="LMRoman10"><tspan y="-683.098" x="72 79.4291 84.88365 89.43275 99.141849 103.44003 108.294589 113.14914 117.39278 120.42551 125.88006 135.57825 141.6437 146.49826 151.35282 154.38555 159.84009 164.11646 168.97101 176.90193 179.93466 184.1783 192.10923 200.90196 206.96743 211.21106 216.6656 222.73107 225.7638 228.79653 231.82926 235.76744 245.16019 250.01474 253.04747 258.502 262.8002 267.0984">Eachsectiondeclaresitsmutabilityclass.</tspan></text>
<text xml:space="preserve" transform="matrix(.9899495 0 -0 1.0101526 0 792)" font-size="10.799458" font-family="LMRoman10"><tspan y="-656.11276" x="72.169338 83.27118 89.27567 94.081439 98.31483 106.27403 112.278537 117.0843 121.33928 125.54027 130.34603 139.51477 143.76976 148.57552 153.38129 157.58228 160.58452 165.98426 171.98876 179.39719 184.7969 192.18375 196.43872 202.44322 208.44773 212.70272 217.50847 222.31423 226.51523 229.51747 234.9172 240.9217 248.34093 254.34543 259.15119 263.95695 266.95918 272.35893 276.5923 284.55146 290.55595 293.5582 296.70625 299.8543 304.66004 308.89344 313.69917 319.40129 326.75569 335.44926 341.45378 345.65473 351.05448 357.05897 360.06123 363.06349 366.0657 369.95353 378.8199 383.61485 386.61708 392.0168 396.2718 400.53758 405.33253 409.5983 415.85118 420.05216 426.05665 434.02665 443.0226 448.42234 452.6773 460.0317 464.2867 470.60438 475.41014 480.20509 483.20735 486.2096 489.21183 497.18183 505.86463 511.8691 516.07009 521.4698 527.4851 530.47659 533.47879 536.48098 540.3796">Wherenestedsectionsorsubsectionsdeclaredifferentmutabilityclasses,themostspecificmutability</tspan></text>
<text xml:space="preserve" transform="matrix(1 0 -0 1 0 792)" font-size="10.9091" font-family="LMRoman10"><tspan y="-649.225" x="72 78.06546 82.92001 87.2182 90.25093 95.70548 101.77094 107.225498 111.46913 114.50186 119.95641 129.6546 135.10915 140.26915 145.72371 150.57826 154.85463 160.92009 165.21828">designationgoverns.</tspan></text>
<text xml:space="preserve" transform="matrix(1 0 -0 1 0 792)" font-size="10.9091" font-family="LMRoman10"><tspan y="-622.923" x="72">&#x2022;</tspan></text>
<text xml:space="preserve" transform="matrix(1 0 -0 1 0 792)" font-size="10.9091" font-family="LMRoman10"><tspan y="-622.923" x="85.94183 94.12366 100.18912 104.73821 110.80367 116.258228 122.323688 127.77824 132.63278 138.08733 144.15279 147.18552 155.68372 159.9819 164.83646 169.69101 173.93465 176.96738 182.42192 188.48738 196.4183 205.50559 210.65468 220.04743 226.1238 231.57834 239.45471 245.82563 254.31291 259.76747 268.85475 273.7093 279.77476 285.8402 290.69477">Unchangeablesectionsmaynotbeamended</tspan></text>
<text xml:space="preserve" transform="matrix(1 0 -0 1 0 792)" font-size="10.9091" font-family="LMRoman10"><tspan y="-600.607" x="72">&#x2022;</tspan></text>
<text xml:space="preserve" transform="matrix(1 0 -0 1 0 792)" font-size="10.9091" font-family="LMRoman10"><tspan y="-600.607" x="85.94183 93.97093 98.825489 104.58549 107.61822 111.916408 117.37096 123.43642 126.46915 134.95644 139.25463 144.10918 148.96373 153.20737 156.2401 161.69464 167.7601 175.70194 179.9783 184.83286 190.59287 196.65833 199.69106 203.96743 212.45471 217.90926 223.05835 228.51291 233.36746 237.64383 243.70929 249.16384 255.2293 260.08384 268.58204 274.0366 280.10206 286.1675 290.44389 295.593 300.7421 306.19667">Revisablesectionsrequiregovernanceapproval</tspan></text>
<text xml:space="preserve" transform="matrix(1 0 -0 1 0 792)" font-size="10.9091" font-family="LMRoman10"><tspan y="-578.291" x="72">&#x2022;</tspan></text>
<text xml:space="preserve" transform="matrix(1 0 -0 1 0 792)" font-size="10.9091" font-family="LMRoman10"><tspan y="-578.291" x="85.53819 93.41456 99.48002 104.93457 111.00003 115.24367 118.2764 123.74185 132.22914 136.52733 141.38188 146.23644 150.48007 153.5128 158.96735 165.0328 172.96373 182.05101 187.2001 196.60376 201.45832 206.91287 212.36742 215.40015 220.8547 229.342 237.21837 240.2511 244.49474 250.5602 253.59293 263.30204 268.1566 273.61116 279.6766 283.9748 288.21846 292.4948 297.94938 300.9821 306.7421 310.98576">Adaptivesectionsmayevolvewithinconstraints</tspan></text>
<text xml:space="preserve" transform="matrix(1 0 -0 1 0 792)" font-size="11.9552" font-family="LMRoman12" font-weight="bold"><tspan y="-549.08206" x="72 78.73078 85.46156 89.203548">14.1</tspan></text>
<text xml:space="preserve" transform="matrix(1 0 -0 1 0 792)" font-size="11.9552" font-family="LMRoman12" font-weight="bold"><tspan y="-549.08206" x="106.02451 113.35305 120.08383 127.55583 135.02783 142.49983 149.03932 154.2757 158.01767 164.74845 172.22045 178.75994 186.9851 196.17865 203.65065 210.19014 215.49825 226.11446 236.2166 244.0592 250.19222 255.6916 262.2311 269.70314 273.4451 277.18708 280.92906 285.79484">FoundationalPhaseOperability</tspan></text>
<text xml:space="preserve" transform="matrix(.9899495 0 -0 1.0101526 0 792)" font-size="10.799458" font-family="LMRoman10"><tspan y="-523.17739" x="72.73098 80.83057 85.63633 96.856967 105.10775 110.507488 115.90721 121.30694 126.1127 130.34609 133.34835 138.74806 144.75257 154.1913 163.18726 168.27379 177.41014 182.80986 189.11675 193.92252 198.1559 203.55564 207.75662 215.99662 222.00112 228.00562 234.01012 238.81589 246.4727 255.30666 261.44078 266.84049 272.845 278.8495 284.854 290.25373 294.45469 297.45695 302.85667 308.86119 314.2609 320.68656 328.041 334.0455 339.44523 343.70024 351.9402 356.14118 364.96434 371.2712 376.07695 380.3103 389.30628 392.30854 399.94374 404.19874 409.59846 412.90309 421.13224 426.53199 432.53648 441.97523 447.37495 452.1807 456.98643 462.38618 468.39067 474.08198 478.28297 483.68269 489.6872 492.68946 500.9294 506.32917 512.63607 517.4418 521.6752 527.0749 531.2759 534.27816 539.67788">NewDoggerlandmayoperateunderaFoundationalPhasetopermitsafeandaccountableoperation</tspan></text>
<text xml:space="preserve" transform="matrix(1.0089599 0 -0 .9911197 0 792)" font-size="11.006844" font-family="LMRoman10"><tspan y="-519.5528" x="70.97111 78.918048 85.03785 88.097759 91.15765 99.66595 104.00264 110.41963 115.31768 120.21573 123.27563 126.33553 129.39545 134.29349 144.02353 149.52696 154.73319 160.2366 165.13465 169.44933 175.56914 181.07256 187.19237 192.0904 200.59868 209.7674 214.66544 219.26628 225.38608 230.88951 237.00931 240.06923 244.40592 253.57462 257.91133 264.58146 270.08488 276.50187 281.3999 285.71458 291.218 295.49967 298.55958 304.063 310.1828 315.68623 322.35636 331.52507 337.02848 342.84013 348.95994 354.46336 357.52326 361.87098 368.5301 371.59 377.0934 382.59687 386.93354 393.60368 399.1071 407.03199 412.53544 418.65525 427.82395 430.88386 437.00367 440.06355 444.40025 448.68193 452.99659 458.50004 462.78169 465.84159 471.35603 479.8643 484.201 490.0126 494.34928 498.63096 503.529 512.6977 520.6336 526.137 530.45169">whilespecifiedgovernancemechanisms,operationalmanuals,logs,oradministrativesystemsare</tspan></text>
<text xml:space="preserve" transform="matrix(1 0 -0 1 0 792)" font-size="10.9091" font-family="LMRoman10"><tspan y="-501.39" x="72 78.06546 83.52001 91.39638 96.86183 101.716388 109.59275 112.93094 118.9964 122.02913 125.06186 134.4546 137.48734 143.5528 147.85099 152.09462 157.54917 163.32009 167.56372 170.59645 176.051 180.29463 185.14919 191.21465">notyetfullyinstantiated.</tspan></text>
<text xml:space="preserve" transform="matrix(1.0099504 0 -0 .99014756 0 792)" font-size="11.017651" font-family="LMRoman10"><tspan y="-485.85289" x="70.89061 83.92449 90.21557 95.7244 101.85021 107.97603 114.10184 119.61067 123.89654 126.95945 132.46828 138.5941 144.10292 151.93648 159.4395 165.5653 171.07415 175.4151 185.07759 194.2553 199.46666 210.05463 216.4779 226.1404 231.64923 236.55208 240.83795 243.90085 249.12322 254.63202 258.9179 263.82075 274.7172 280.226 286.35185 289.41474 299.99168 305.82 316.408 326.67643 334.7854 339.68824 344.5911 350.09989 354.41883 360.54466 365.44749 376.34394 384.76145 389.66429 394.56715 397.63005 401.971 405.0339 410.54273 421.42817 428.63368 434.1425 438.42839 444.25669 451.91398 457.1143 467.70228 471.98814 477.49696 486.60856 492.73439 497.6372 500.7001 503.76304 509.8889 514.79177 525.6772 528.7401">AFoundationalPhasemaybeactivatedonlybyaRecordedDecisionPathway(asdefinedin</tspan></text>
<text xml:space="preserve" transform="matrix(1 0 -0 1 0 792)" font-size="10.9091" font-family="LMRoman10"><tspan y="-467.517" x="72 78.06546 82.92001 87.77457 92.0182 95.050937 100.505489">Section</tspan></text>
<text xml:space="preserve" transform="matrix(1 0 -0 1 0 792)" font-size="10.9091" font-family="LMRoman10"><tspan y="-467.517" x="110.203678 115.658229 118.690959 124.14551">4.11</tspan></text>
<text xml:space="preserve" transform="matrix(1 0 -0 1 0 792)" font-size="10.9091" font-family="LMRoman10"><tspan y="-467.517" x="129.60005 137.48734 142.94188 149.00734 155.0728 159.34917 164.49826 169.95282 174.80738 184.50557 190.27649 199.66924 205.7347 211.80016 218.17107 223.02562 227.30199 236.38927 242.14926 245.48744 250.94199 255.21836 258.25108 262.18928 271.582 277.03657 282.49113 286.73478 295.23298 299.47663 304.93119 312.8621 318.92756 323.7821 326.81483 329.84757 335.91304 340.76759 350.47669 353.4985 363.2076 369.27308 374.12763 378.98219 383.22584 386.25856 391.7131">)approvedbySupermajorityvote(asdefinedinSection</tspan></text>
<text xml:space="preserve" transform="matrix(1 0 -0 1 0 792)" font-size="10.9091" font-family="LMRoman10"><tspan y="-467.517" x="401.4113 406.86585 409.89857">4.5</tspan></text>
<text xml:space="preserve" transform="matrix(1 0 -0 1 0 792)" font-size="10.9091" font-family="LMRoman10"><tspan y="-467.517" x="415.35313 419.59678">).</tspan><tspan y="-447.193" x="71.596 83.41055 89.62874 95.08329 101.14875 107.21421 113.27967 118.73422 122.97786 126.01059 131.46514 137.5306 142.98514 149.66152 157.0906 163.15607 168.61061 172.9088 181.39609 186.85063 191.70519 195.94882 198.98155 204.13065 209.58519 213.82883 216.86156 222.3161 232.0252 236.30158 241.15613 246.01068 251.46523 255.73069 265.4398 274.22163 280.28709 284.58528 292.47257 295.50529 301.57075 306.4253 309.4471 315.52348 321.58894 330.0762 335.53077 338.56349 345.2289 350.68348 357.6653 361.90898 367.97444 376.4617 379.7999 385.25447 388.28718 391.3199 396.469 404.34538 407.37809 413.44355 418.8981">AFoundationalPhaseactivationrecordmustincludeallofthefollowing:</tspan></text>
<text xml:space="preserve" transform="matrix(1 0 -0 1 0 792)" font-size="10.9091" font-family="LMRoman10"><tspan y="-420.892" x="72">&#x2022;</tspan></text>
<text xml:space="preserve" transform="matrix(1.0099504 0 -0 .99014756 0 792)" font-size="11.017651" font-family="LMRoman10"><tspan y="-425.08009" x="85.09329 89.37916 95.504978 103.988559 108.32951 114.76382 119.66667 124.56952 127.63243 130.69535 133.75824 142.24184 147.75067 152.96202 158.48188 163.38472 167.70365 173.82946 179.33829 185.4641 190.36696 198.85056 208.02826 212.93112 217.53652 223.66233 229.17116 235.29697 238.35988 242.70084 251.87854 256.2195 262.86314 268.99998 273.3079 279.12519 284.028 288.93089 295.0567 301.1825 305.50144 310.40428 314.74525 321.3889 324.45179 329.9606 335.46943 339.81037 346.46507 350.806 356.62333 360.9643 365.25019 370.153 379.33073 383.67167 390.32633 395.83515 403.73484 409.86064 415.67793 420.58079 426.7066 435.88429 440.78715 446.60447 450.89033 458.82307 463.10893 469.23475 474.74357 482.61018 488.119 492.43794 500.93254 507.05836 512.5672 520.4338 525.9536 530.8565">thespecificgovernancemechanisms,procedures,logs,systems,ordocumentsthatarenotyet</tspan></text>
<text xml:space="preserve" transform="matrix(1 0 -0 1 0 792)" font-size="10.9091" font-family="LMRoman10"><tspan y="-407.343" x="85.94 88.97273 95.03819 99.33638 103.58002 109.03457 114.79457 119.03821 122.07094 127.52549 131.76914 136.62369 142.68915">instantiated,</tspan></text>
<text xml:space="preserve" transform="matrix(1 0 -0 1 0 792)" font-size="10.9091" font-family="LMRoman10"><tspan y="-385.02699" x="72">&#x2022;</tspan></text>
<text xml:space="preserve" transform="matrix(1 0 -0 1 0 792)" font-size="10.9091" font-family="LMRoman10"><tspan y="-385.02699" x="85.94183 90.18547 96.25093 104.73821 108.0764 113.53095 118.3855 122.629138 128.6946 134.14914 140.82552 145.10189 149.95644 155.41098 159.70917 165.16371 174.86191 179.71646 185.171 189.72011 199.42922 202.46195 206.70558 211.54923 224.28015 227.31288 235.2438 241.30927 246.76381 254.6511 260.10566 264.9602 272.83659 275.8693 281.93476 286.23295 290.4766 295.93116 301.69117 305.9348 308.96754 314.4221 318.66575 323.5203 329.58576">thefactualreasoneachitemisnotyetinstantiated,</tspan></text>
<text xml:space="preserve" transform="matrix(1 0 -0 1 0 792)" font-size="10.9091" font-family="LMRoman10"><tspan y="-362.71" x="72">&#x2022;</tspan></text>
<text xml:space="preserve" transform="matrix(.9969955 0 -0 1.0030136 0 792)" font-size="10.876323" font-family="LMRoman10"><tspan y="-361.62019" x="86.19898 90.42987 96.477108 104.96064 107.98426 113.72696 117.957859 122.79781 127.06133 130.08496 142.79938 148.84662 154.28478 160.33202 166.37926 169.40287 172.42649 178.47371 187.55544 196.61542 201.45539 205.68628 211.73352 217.47623 227.16703 230.49518 235.93335 243.8513 248.69127 254.12944 258.66487 268.35566 277.41563 280.43925 284.72453 289.0098 292.03343 298.08064 307.17323 310.19685 314.4277 319.26768 328.32765 334.9948 339.2801 343.51097 348.94914 353.18 358.01997 367.71076 376.77073 381.61067 386.1461 392.1933 397.63148 403.67869 406.7023 411.54225 416.98039 420.004 423.02763 432.41389 437.85203 443.91014 453.60093 461.4536 464.47724 468.7081 474.7553 480.19349 486.2407 494.11515 500.16239 503.18598 507.47126 512.3112 516.5747 521.4147 525.6456 528.66928 534.10739 540.1546">theinterimhandlingmethodforeachmissingitem,statedmechanicallyandwithoutdiscretion,</tspan></text>
<text xml:space="preserve" transform="matrix(1 0 -0 1 0 792)" font-size="10.9091" font-family="LMRoman10"><tspan y="-340.394" x="72">&#x2022;</tspan></text>
<text xml:space="preserve" transform="matrix(1 0 -0 1 0 792)" font-size="10.9091" font-family="LMRoman10"><tspan y="-340.394" x="85.94183 90.18547 96.25093 104.73821 109.0364 115.40732 120.26187 125.116428 128.14916 131.18189 134.21462 142.7019 145.73464 151.8001 156.09828 160.34192 165.79647 171.56739 175.81102 178.84375 184.2983 188.54193 191.57466 197.0292 206.7274 212.79286 215.82559 221.28014 230.97834 236.43288 242.50925 252.20745 256.45109 261.90565 266.182 271.63658 276.49113 284.3675 290.43296 295.8875 300.13117 304.98573 312.92756 316.26576 321.7203 329.6294 334.48396 339.9385 344.4876 354.1858 363.27308 366.3058 370.60398 374.90217 377.93489 384.00035 393.09855 396.13127 400.3749 405.22947 414.31675">thespecificinstantiationplanandtargetdatesforeachmissingitem,</tspan></text>
<text xml:space="preserve" transform="matrix(1 0 -0 1 0 792)" font-size="10.9091" font-family="LMRoman10"><tspan y="-318.078" x="72">&#x2022;</tspan></text>
<text xml:space="preserve" transform="matrix(1 0 -0 1 0 792)" font-size="10.9091" font-family="LMRoman10"><tspan y="-318.078" x="85.94183 90.18547 96.25093 104.73821 109.0364 113.28004 118.73459 123.010959 130.89824 136.9637 142.41825 146.66188 155.14917 160.60372 166.66918 176.36737 181.82192 187.88738 192.13101 197.58556 206.67284 212.12738 216.37102 219.40375 227.90195 232.7565 238.51651 244.58197 247.6147 251.89107 257.3456 261.58927 264.62199 270.07655 279.77473 285.84019 291.29475 295.5384 304.02568 307.36387 312.81843 320.73844 324.9821 331.04756 339.53483 345.75303 351.20759 357.27305 363.3385 369.40397 374.85853 379.10218 382.1349 387.58946 393.6549 399.10948 405.7749 413.204 419.26948 424.72404 429.02223 433.87678">thestartdateandautomaticexpirationdatefortheFoundationalPhase.</tspan></text>
<text xml:space="preserve" transform="matrix(.9899495 0 -0 1.0101526 0 792)" font-size="10.799458" font-family="LMRoman10"><tspan y="-288.84349" x="72.169338 83.27118 89.27567 94.081439 98.31483 106.67361 110.874599 116.8791 125.23788 132.59232 136.8257 139.82796 148.8239 154.22364 158.45702 167.71216 174.46183 179.86154 185.26128 190.66101 193.66326 199.66776 208.62052 214.62502 220.32714 224.5821 228.7831 233.58887 246.13784 250.33882 255.73856 263.54655 267.77995 272.58567 278.28779 284.2923 287.29454 291.52793 296.33366 305.89118 311.5933 320.84843 329.326 334.4233 339.82307 344.62879 348.85139 354.86668 360.2664 366.2709 371.07667 379.4354 385.4399 389.93247 395.93699 400.74275 406.74723 412.7517 415.75398 424.11274 432.3635 440.1175 443.11976 450.93858 456.94306 462.34278 470.09678 475.48573 480.29145 488.04545 491.0477 497.0522 501.31797 505.51896 510.91868 516.61 520.811 523.8132 529.2129 533.4139 538.21969 544.2241">WherethePrimaryLoggingSystem(asrequiredbyGovernanceScheduleD)isnotyetinstantiated,</tspan></text>
<text xml:space="preserve" transform="matrix(1.0099504 0 -0 .99014756 0 792)" font-size="11.017651" font-family="LMRoman10"><tspan y="-280.99549" x="71.290637 75.5765 81.70231 90.3732 95.88203 100.78488 105.07075 108.13365 113.35602 118.86484 123.15071 126.213619 131.72245 141.61629 145.9352 150.83806 155.74092 161.24976 165.56867 175.46251 184.34276 190.46857 194.80953 202.86342 205.92633 212.05214 216.955 220.0179 226.14373 232.26953 240.94043 250.21729 254.55823 260.98155 265.88438 270.78724 273.85014 276.91304 279.97596 288.64683 292.9327 298.44154 302.76048 308.2693 313.17213 321.23704 327.36286 332.87168 337.15754 345.82844 349.19984 354.70866 362.79563 367.0815 371.40043 376.90925 383.03507 387.376 390.43894 394.7248 397.78773 403.2965 413.1904 416.56178 420.8807 426.38954 439.33528 442.39817 448.2265 452.51237 457.41523 461.73417 464.79707 477.7428 480.8057 486.3145 491.82334 497.33216 500.39506 506.52088 515.7977 520.08358 529.3605">theactivationrecordmustincludeaspecifictargetdatefortransitionfrominterimloggingtoa</tspan><tspan y="-267.3117" x="71.290637 75.631587 81.448909 85.789859 90.07573 94.97858 107.91331 112.25426 117.763088 122.04896 125.11186 129.45282 132.82422 138.64154 141.70444 147.83026 157.0961 161.38196 167.5188 176.17867 185.35639 188.41928 194.5451 197.608 206.4772 212.60303 225.54877 228.61167 234.42899 238.71485 243.6177 249.12653 253.44545 256.50837 260.49678 270.0711 274.39006 279.29289 285.11024 291.23603 294.29896 298.61787 303.52073 312.6984 317.60127 323.42958 327.71546 335.81346 341.32225 348.45066 354.57649 359.18183 365.30766 370.21049 376.3363 382.46214 385.52503 394.18489 402.6024 409.4223 417.37705 423.50288 426.56578 434.66377 438.94966 444.45845 448.77738 454.2862 459.18904 467.23194 473.36878 478.8776 483.16349 491.82334 500.69255 506.81837 511.1593 519.2132 525.33908 530.84786">systemsatisfyingtheminimumintegrityrequirementsofScheduleD.Thistargetdatemustnot</tspan></text>
<text xml:space="preserve" transform="matrix(1 0 -0 1 0 792)" font-size="10.9091" font-family="LMRoman10"><tspan y="-251.129" x="72 76.85455 82.614559 87.4691 92.323657 97.17821 106.876399 111.17458 114.20731 123.610958 127.85459 133.30915 141.18552 150.2728 155.72734 161.48735 165.73099 171.79645 179.73828 183.07646 187.35283 192.80738 205.52739 209.77103 215.83649 224.32378 230.54196 235.9965 242.06197 248.12743 254.19289 259.64744 263.89109 266.9238 272.37837 278.44383 283.89839 290.5638 297.99293 304.05839 309.51295 313.82203 322.3093 326.60749 330.85115 336.3057 340.58207 348.45845 354.5239 359.97846 364.2221 369.07667">exceedsix(6)monthsfromtheFoundationalPhasestartdate.</tspan></text>
<text xml:space="preserve" transform="matrix(.9899495 0 -0 1.0101526 0 792)" font-size="10.799458" font-family="LMRoman10"><tspan y="-228.48526" x="72.73098 76.62958 83.195659 87.396648 93.401149 101.468349 105.669338 109.902729 115.30245 121.30695 125.561939 128.5642 132.76519 135.76743 141.16716 150.4439 154.64488 160.04462 164.278 169.67774 174.48349 181.9459 187.95041 193.35015 197.55113 205.61832 211.62282 217.02256 221.27754 225.53252 230.33829 237.85469 245.6519 248.65416 252.85515 258.85966 264.25938 270.2639 277.7263 282.53205 287.93177 296.92774 302.93223 305.93449 310.74024 314.9412 317.94346 323.34318 329.3477 335.69776 339.89875 345.90324 353.97044 359.37016 364.1759 368.37687 371.37913 377.38365 386.0448 391.44453 397.7622 402.56797 406.80134 412.20106 416.40205 421.80177 429.29658 437.97938 443.98387 448.24964 455.71208 458.7143 464.11405 472.7752 481.4364 487.4409 491.67427 496.48 501.87974 506.3831 515.64907 523.4463 526.4485 530.6495 536.654 539.6562">Ifthetransitiontargetdatepasseswithoutcompletion,theactingoperatormustlogabreachwithin</tspan></text>
<text xml:space="preserve" transform="matrix(1.0049875 0 -0 .9950372 0 792)" font-size="10.96351" font-family="LMRoman10"><tspan y="-218.33959" x="71.642688 75.60052 83.22015 88.098918 93.88764 97.85644 103.64517 107.29602 110.650859 116.132617 122.228328 130.15494 134.41974 139.90149 145.38326 153.27696 159.37268 164.85443 170.95015 175.24785 183.1964 188.67815 194.77387 204.49849 210.59421 213.64208 219.12383 224.00258 232.51027 241.62094 245.91864 250.7974 259.93 264.80879 270.9045 273.95234 279.4341 283.6989 286.74674 292.22853 301.95317 308.0489 311.09675 316.5785 326.30317 331.7849 341.50959 345.77439 351.8701 360.3778 366.47355 371.35234 377.14106 385.03477 393.64115 398.81593 404.30867 409.17646 413.47416 419.56986 422.6177 428.7244 437.82414 445.5863 451.37504 457.47074 466.8884 472.37016 477.85194 482.73069 488.82643 494.92216 500.4039 507.0807 514.99636 518.0441 522.30899 532.03359">twenty-four(24)hoursandplacearemediationplanonthenextGoverningBodyagenda,witha</tspan></text>
<text xml:space="preserve" transform="matrix(1 0 -0 1 0 792)" font-size="10.9091" font-family="LMRoman10"><tspan y="-203.706" x="72 76.27637 81.13092 85.98547 91.440029 95.71639 101.78185 106.6364 116.33459 121.78913 127.24368 131.48732 139.98552 145.44007 155.13826 160.5928 165.44736 170.30191 175.15647 181.22193 185.46556 190.9201 196.98557 201.84012 210.32741 215.78195 223.70197 229.15651 238.24379 243.09835 249.1638 255.22927 264.31654 269.17109 274.9311 279.17475">recordedvoteonacceptanceoramendment.</tspan><tspan y="-183.383" x="71.596 83.41055 89.62874 95.08329 101.14875 107.21421 113.27967 118.73422 122.97786 126.01059 131.46514 137.5306 142.98514 149.66152 157.0906 163.15607 168.61061 172.9088 181.39609 190.17792 196.24338 200.54157 208.42885 214.49431 219.94886 224.19249">AFoundationalPhasemustnot:</tspan></text>
<text xml:space="preserve" transform="matrix(1 0 -0 1 0 792)" font-size="10.9091" font-family="LMRoman10"><tspan y="-157.081" x="72">&#x2022;</tspan></text>
<text xml:space="preserve" transform="matrix(1 0 -0 1 0 792)" font-size="10.9091" font-family="LMRoman10"><tspan y="-157.081" x="85.5491 93.12002 98.57457 101.6073 107.061847 111.9164 118.592769 122.89095 128.9564 133.2546 139.6255 144.48006 150.54552 156.61098 163.27645 168.73099 176.64009 182.70555 188.1601 192.43647 196.71283 201.87284 213.38195 218.83649 224.5965 233.98925 242.17107 248.23653 252.79654 258.862 264.31657 270.38203 275.83659 280.69114 286.1457 292.21116 295.24388 303.73115 309.7966 314.07298 319.22209 324.9821 328.0148 332.313 335.3457 340.80027 346.86573">waive,suspend,ornarrowanyUnchangeableprovision,</tspan></text>
<text xml:space="preserve" transform="matrix(1 0 -0 1 0 792)" font-size="10.9091" font-family="LMRoman10"><tspan y="-134.765" x="72">&#x2022;</tspan></text>
<text xml:space="preserve" transform="matrix(1 0 -0 1 0 792)" font-size="10.9091" font-family="LMRoman10"><tspan y="-134.765" x="85.94183 90.79639 96.55639 102.62185 108.0764 114.14186 123.84005 129.2946 135.36006 139.6037 145.68007 151.13462 155.40007 158.4328 162.3819 171.77465 178.14556 183.0001 188.45467 193.90921 199.97467 209.67287 217.54924 223.6147 229.06925 236.95653 239.98926 247.92018 252.77474 258.53474 264.6002 267.6329 270.66563 275.52018 278.5529 282.79655 285.82926 295.222 300.67655 304.9529 310.40748 316.17839 320.42204 325.27659 334.97477 338.00749 347.70567 351.9493 358.01478 361.0475 368.98933 375.05479 380.8148 385.65846 391.7348 400.82209 405.66575 411.43666 415.6803">expandauthoritybeyondwhatisexplicitlygrantedinthisdocument,</tspan></text>
<text xml:space="preserve" transform="matrix(1 0 -0 1 0 792)" font-size="10.9091" font-family="LMRoman10"><tspan y="-112.449" x="72">&#x2022;</tspan></text>
<text xml:space="preserve" transform="matrix(1 0 -0 1 0 792)" font-size="10.9091" font-family="LMRoman10"><tspan y="-112.449" x="85.94183 92.31275 97.1673 101.443668 110.530948 113.563678 121.44004 126.89459 131.74915 135.99279 139.02552 144.48006 150.54552 158.47644 162.72008 168.78554 174.24008 182.12737 189.69829 195.15283 201.21829 204.25102 213.94922 219.40377 223.6474 229.71286 234.56742 238.84378 246.72016 249.75289 254.05107 262.54927 266.82563 271.68019 277.4402 283.50566 286.53837 290.81474 299.302 304.15657 313.24385 318.0984 322.37477 327.8293 332.68388 338.74934 343.60389 352.9966 358.45118 364.51664 368.76029 374.82575 380.2803 384.55668 387.5894 391.5276 400.93125 406.3858 414.2949 418.57127 423.4258 429.49128 434.94584 437.97856 445.88764 451.3422 457.40766 461.6513 467.71678 473.17134 477.4477 480.4804 484.4186 489.27317">permitactionsthatwouldotherwiserequireemergencyauthorityorrepairauthority,</tspan></text>
<text xml:space="preserve" transform="matrix(1 0 -0 1 0 792)" font-size="10.9091" font-family="LMRoman10"><tspan y="-90.131999" x="72">&#x2022;</tspan></text>
<text xml:space="preserve" transform="matrix(1 0 -0 1 0 792)" font-size="10.9091" font-family="LMRoman10"><tspan y="-90.131999" x="85.94183 91.701839 97.46184 103.5273 108.98185 113.28004 121.22186 125.49823 130.35279 136.1128 142.17826 145.21099 149.48735 154.3419 164.0401 168.31647 173.17102 178.02558 184.09104 188.38922 193.84377 196.8765 201.17469 207.84015 212.6947 218.14925 224.2147 227.24744 230.28017 233.3129 238.16745 246.05474 252.1202 255.15293 259.4511 264.30567 267.33839 272.79295 277.09114 283.1566 287.43296 292.2875 296.5857 303.25114 308.7057 316.61479 322.06935 327.5239 331.76756 340.26576 344.5094 350.57487 354.85124 359.70579 364.00398 370.06944 375.524 378.5567 384.62217 392.55308 396.79673 402.86219 408.31675 416.20405 421.6586 425.93498 434.42225 440.4877 444.76408 450.21864 455.07319 459.31684 462.34956 467.2041 472.65867 478.72413 481.75685 490.2441 494.48777 503.57505 508.4296 514.1896 519.0441 523.8987 529.9641 534.20779 539.0623">bypassrequiredrecusals,conflictdisclosures,orvotethresholdsthatarepracticabletoexecute.</tspan></text>
<text xml:space="preserve" transform="matrix(1 0 -0 1 0 792)" font-size="10.9091" font-family="LMRoman10"><tspan y="-42.111997" x="300.54499 305.99955">44</tspan></text>
</svg>
