<svg xmlns="http://www.w3.org/2000/svg" xmlns:xlink="http://www.w3.org/1999/xlink" xmlns:inkscape="http://www.inkscape.org/namespaces/inkscape" version="1.1" width="612" height="792" viewBox="0 0 612 792">
<text xml:space="preserve" transform="matrix(1.007472 0 -0 .99258336 0 792)" font-size="10.990613" font-family="LMRoman10"><tspan y="-714.3391" x="71.46601 79.70897 88.8092 95.227718 100.10755 104.41588 108.74618 114.241489 123.96818 128.859 134.66204 139.55286 143.85019 148.74102 151.7964 156.1267 159.18209 165.29288 174.40409 182.33933 187.83463 193.63767 197.91301 200.9684 206.78244 212.89324 215.94863 219.92722 229.33519 237.2704 243.38118 247.65654 253.76734 259.26264 263.57096 266.62635 270.60496 280.0129 285.50825 290.39906 296.20213 302.31288 305.36827 309.67658 314.5674 322.50267 327.998 333.19657 338.69187 343.5827 347.89103 354.0018 359.4971 365.60789 370.49873 378.99449 384.48979 390.60057 394.8759 400.98667 406.48197 410.7903 413.84568 417.82429 422.7261 429.3864 434.88175 440.99253 450.70823 456.20356 459.2589 465.91926 471.41456 476.3054 480.58073 483.6361 489.1314 495.2422 503.17744 507.48579 512.3766 521.53176 527.02706 530.08248">NopersonexercisingContinuityAuthorityacquiresgovernanceauthority,andallactionsremain</tspan></text>
<text xml:space="preserve" transform="matrix(1 0 -0 1 0 792)" font-size="10.9091" font-family="LMRoman10"><tspan y="-695.492" x="72 76.29819 82.36365 88.734569 92.072757 96.92731 101.78186 109.658229 113.90186 123.00005 127.24369 133.30915 141.79644 146.09462 150.94918 156.40372 162.77463 171.26192 174.29465 177.32738 186.41466 189.44739 193.69103 199.14557 203.3892 206.42194 211.87648 217.94194 225.87287 231.32741 237.39287 247.10198 250.1347 255.58925 261.0438 266.49836 269.53108 275.59654 284.6838 288.96018 293.81474 299.57475 305.6402 308.6729 312.94929 317.80384 326.8911 331.74568 337.50569 341.74934 349.69117 355.14573 362.11665 366.3603 372.42576 375.45848 383.38938 387.68757 393.75303 399.81849 404.12757 408.97123 413.82579 418.06944 421.10215 426.5567 432.62217">subjecttothescopelimitationsandloggingrequirementsofthissubsection.</tspan><tspan y="-675.168" x="72 79.87637 85.330928 91.09093 95.334568 98.367298 104.13821 110.20367 113.2364 117.174579 126.56731 134.44368 140.50914 144.75278 150.81824 156.27278 160.54915 163.58188 167.53098 173.29099">ContinuityAuthority:</tspan></text>
<text xml:space="preserve" transform="matrix(1 0 -0 1 0 792)" font-size="10.9091" font-family="LMRoman10"><tspan y="-648.867" x="72">&#x2022;</tspan></text>
<text xml:space="preserve" transform="matrix(1 0 -0 1 0 792)" font-size="10.9091" font-family="LMRoman10"><tspan y="-648.867" x="85.94183 92.00729 97.7673 102.62186 110.55277 116.61823 122.072788 129.96007 134.80371 140.25826 146.33463 150.63282 154.87645 157.90918 162.15282 168.21828 172.46192 180.9492 186.40375 191.55284 197.0074 201.86196 206.13832 212.20378 217.65833 223.72379 228.57834 237.07654 242.53108 248.59654 252.84018 258.90565 264.3602 268.63658 271.66929 275.60749">doesnotconstitutegovernanceauthority</tspan></text>
<text xml:space="preserve" transform="matrix(1 0 -0 1 0 792)" font-size="10.9091" font-family="LMRoman10"><tspan y="-626.55" x="72">&#x2022;</tspan></text>
<text xml:space="preserve" transform="matrix(.99146357 0 -0 1.00861 0 792)" font-size="10.815974" font-family="LMRoman10"><tspan y="-621.2015" x="86.67995 92.693637 98.40447 103.217578 111.13487 117.15937 122.56736 130.43058 136.7471 141.56021 145.80008 154.80979 157.81662 165.67983 175.59809 181.00608 185.21347 190.02658 194.26645 197.27329 202.68128 209.3439 217.15305 221.96616 226.17357 229.1804 234.58838 240.60207 248.51935 253.33246 259.0433 263.8564 268.66954 274.68324 282.54646 287.95445 295.87178 300.13328 304.3407 308.58058 311.5874 316.4005 320.60795 323.61479 332.9814 339.0059 343.80824 348.62135 353.43446 357.69596 361.95747 367.36546 371.60533 380.98277 385.1902 394.25398 400.26768 404.50755 409.32066 414.72865 419.53096 425.24177 433.105 436.11186 445.12156 454.1313 457.13813 463.1518 467.9649 473.67576 481.53898 487.55265 492.96064 497.2005 509.87684 515.2848 523.1804 526.1873 531.0004 536.4084 541.8164">doesnotpermitMaterialActionsexceptasstrictlynecessarytopreventimminentharmorlegal</tspan></text>
<text xml:space="preserve" transform="matrix(1 0 -0 1 0 792)" font-size="10.9091" font-family="LMRoman10"><tspan y="-613.001" x="85.656 91.416 94.44873 99.90328 102.93601 108.390567 112.6342 115.66693 121.12148">violation</tspan></text>
<text xml:space="preserve" transform="matrix(1 0 -0 1 0 792)" font-size="10.9091" font-family="LMRoman10"><tspan y="-590.685" x="72">&#x2022;</tspan></text>
<text xml:space="preserve" transform="matrix(1.003992 0 -0 .99602386 0 792)" font-size="10.952649" font-family="LMRoman10"><tspan y="-593.043" x="85.598308 91.68797 97.47097 102.3449 110.27462 116.364299 121.840618 129.72653 136.11193 140.98586 145.2793 154.40285 157.44768 165.33359 169.64893 173.90952 178.20296 183.67928 187.93985 192.81378 198.2901 201.33495 209.82324 215.91292 220.78685 225.66078 228.70561 233.02095 236.0658 241.54212 247.63179 251.94713 258.6173 263.4912 268.96757 278.09114 284.4765 289.35044 295.4401 299.75547 305.23179 309.49238 312.53724 318.01359 327.72859 332.2958 338.3855 343.86183 349.9515 355.42784 360.30177 364.6171 371.2873 376.76365 381.07899 385.39436 390.26826 398.14323 404.23289 407.27775 411.5931 417.98945 423.4658 427.78114 430.826 435.08659 438.1314 443.60777 449.69743 456.3676 459.41249 464.8888 470.9785 480.68254 486.77223 491.08757 499.5868 504.15406 510.2437 515.72006 521.80978 527.2861 532.16 536.47537">doesnotpermitstrategicdecisions,compensationchanges,assetdisposition,landusechanges,</tspan></text>
<text xml:space="preserve" transform="matrix(1 0 -0 1 0 792)" font-size="10.9091" font-family="LMRoman10"><tspan y="-577.136" x="85.94 91.394557 99.30365 105.67457 111.12912 114.16185 117.19458 122.04913 131.44187 140.52915 146.28914 152.3546 155.38733 158.42006 161.45279 166.30735 171.76189 176.00553 179.03826 184.4928">orpolicymodification</tspan></text>
<text xml:space="preserve" transform="matrix(1 0 -0 1 0 792)" font-size="10.9091" font-family="LMRoman10"><tspan y="-554.819" x="72">&#x2022;</tspan></text>
<text xml:space="preserve" transform="matrix(1 0 -0 1 0 792)" font-size="10.9091" font-family="LMRoman10"><tspan y="-554.819" x="85.94183 90.79639 96.55639 99.58912 103.88731 108.13094 116.06186 120.36005 125.8146 128.84732 133.70188 136.7346 146.13826 152.20372 157.96373 162.20737 165.2401 171.90557 177.66558 183.73104 189.18558 193.46195 199.5274 212.25833 215.29106 223.22199 227.49835 232.3529 236.6511 240.89473 246.34928 250.62564 255.4802">existssolelyuntilquorumisrestored</tspan><tspan y="-528.51797" x="71.596 79.47237 84.32692 88.57056 91.60329 97.05784 103.1233 111.065128 117.130588 123.196048 129.2615 134.11606 142.02516 149.90154 155.35608 161.11609 165.35973 168.39246 174.16338 180.22884 183.26157 187.19976 196.5925 204.46887 210.53433 214.77797 220.84343 226.29798 230.57434 233.60707 237.55617 246.94892 252.40346 256.6798 265.16709 268.1998 271.2325 280.3198 283.3525 287.59617 292.4507 302.1489 306.39256 311.8471">ActionsunderContinuityAuthorityarelimitedto:</tspan></text>
<text xml:space="preserve" transform="matrix(1 0 -0 1 0 792)" font-size="10.9091" font-family="LMRoman10"><tspan y="-502.21696" x="72">&#x2022;</tspan></text>
<text xml:space="preserve" transform="matrix(1 0 -0 1 0 792)" font-size="10.9091" font-family="LMRoman10"><tspan y="-502.21696" x="85.94183 91.396389 96.25093 100.49457 103.5273 108.98185 115.04731 122.978229 127.25459 132.10915 137.86916 143.93462 146.96735 151.24372 156.09827 165.80738 170.05101 179.13829 183.99285 189.44739 198.53467 204.60013 207.63286 217.0256 224.90198 227.93471 232.17835 241.88745 244.92018 250.06928 257.94566 264.61109 269.46565 274.9202 280.98567 285.26203 293.1384 298.59297 302.86933 308.93479 313.78935 318.0657 324.74208 330.19664 338.1057 342.38209 347.23664 352.6912 358.75666 361.78938 367.24394 371.48759 376.94215 381.2185 390.61125 399.69853 405.15309 411.21855 417.284 422.73857 426.9822">actionsrequiredtocomplywithlaw,courtorder,orregulatorymandate</tspan></text>
<text xml:space="preserve" transform="matrix(1 0 -0 1 0 792)" font-size="10.9091" font-family="LMRoman10"><tspan y="-479.89997" x="72">&#x2022;</tspan></text>
<text xml:space="preserve" transform="matrix(.9899495 0 -0 1.0101526 0 792)" font-size="10.799458" font-family="LMRoman10"><tspan y="-475.07673" x="86.81251 92.212238 97.018 101.21899 104.22124 109.620967 115.625469 122.483119 126.7165 131.52227 137.22438 143.22888 146.23113 150.46453 155.27028 163.87744 168.07843 176.08083 185.07678 190.4765 193.47876 199.18087 203.38185 208.78159 211.78383 220.391 226.39551 231.79523 236.05022 239.05246 246.4717 251.87143 257.87593 260.87818 269.8741 275.27388 280.87876 288.3628 293.16856 296.1708 299.47544 304.87516 309.10853 313.91429 319.7352 323.99018 329.38993 332.69456 337.5003 341.3989 346.18305 352.00398 358.00849 362.20945 365.2117 368.21397 371.2162 375.41719 378.41944 383.22517 387.48017 393.3011 396.3033 402.30784 406.5628 412.56733 416.8007 422.2004 428.20494 433.01066 437.8164 443.63734 449.03706 455.04158 463.6487 469.65324 474.75059 480.4527 484.68608 490.0858 493.08805 498.69297 503.4987 508.89845 514.6005 518.8015 521.79299 527.4951 533.4996 536.50186 540.40048">actionsrequiredtomaintainbasicanimalwelfare,safety,utilities,insurance,andpayrollcontinuity</tspan></text>
<text xml:space="preserve" transform="matrix(1 0 -0 1 0 792)" font-size="10.9091" font-family="LMRoman10"><tspan y="-457.584" x="72">&#x2022;</tspan></text>
<text xml:space="preserve" transform="matrix(1 0 -0 1 0 792)" font-size="10.9091" font-family="LMRoman10"><tspan y="-457.584" x="85.94183 91.396389 96.25093 100.49457 103.5273 108.98185 115.04731 122.978229 127.25459 132.10915 137.86916 143.93462 146.96735 151.24372 156.09827 165.80738 170.05101 179.13829 185.20375 189.48012 194.33467 199.78923 204.64379 210.4038 218.29108 221.3238 225.60018 229.87654 234.7311 240.18566 245.0402 249.31658 253.61476 256.6475 262.71296 265.74568 274.23295 280.2984 285.75297 290.02934 302.74934 307.60389 313.05845 319.1239 323.4221 328.27665 337.98576 342.28395 347.7385 350.7712 355.62577 358.65849 368.0512 373.81123 383.21488 386.2476 392.31306 397.7676 402.62217 406.8658 409.89854 415.3531">actionsrequiredtopreventirreversibleharmcausedsolelybyinaction</tspan><tspan y="-431.28303" x="71.596 79.777828 82.810558 89.47601 94.930568 99.78511 104.02875 107.06148 112.51603 118.58149 126.523319 130.76696 136.2215 141.67606 146.53061 156.2288 162.29427 168.35973 174.42519 179.27974 187.19976 195.07613 200.53067 206.29068 210.53432 213.56705 219.32706 225.39252 228.42525 232.36344 241.76709 249.64347 255.70893 259.95259 266.01805 271.4726 275.74897 278.78169 282.71989 288.4799">AllactionstakenunderContinuityAuthority:</tspan></text>
<text xml:space="preserve" transform="matrix(1 0 -0 1 0 792)" font-size="10.9091" font-family="LMRoman10"><tspan y="-404.98103" x="72">&#x2022;</tspan></text>
<text xml:space="preserve" transform="matrix(1 0 -0 1 0 792)" font-size="10.9091" font-family="LMRoman10"><tspan y="-404.98103" x="85.94183 94.723659 100.789119 105.0873 112.97458 119.33459 127.83277 130.8655 136.32004 141.77458 147.22913 152.08368 161.78188 167.23642 175.16735 185.17099 190.62554 194.86917 199.72373 204.00009 207.03282 212.48737 219.16374 227.04012 231.89467 236.1383 239.17104 244.62558 250.69104">mustbeloggedasMaterialActions</tspan></text>
<text xml:space="preserve" transform="matrix(1 0 -0 1 0 792)" font-size="10.9091" font-family="LMRoman10"><tspan y="-382.665" x="72">&#x2022;</tspan></text>
<text xml:space="preserve" transform="matrix(1 0 -0 1 0 792)" font-size="10.9091" font-family="LMRoman10"><tspan y="-382.665" x="85.94183 94.723659 100.789119 105.0873 112.97458 116.00731 122.07277 126.92732 129.96006 136.02552 142.09098 150.57826 156.0328 165.731 170.58556 176.34557 182.41103 185.44376 188.47649 193.33104 196.36377 204.25106 210.01107 216.07653 221.53107 225.80744 231.8729 240.96018 244.59291 247.62564 253.08019 257.37837 265.30928 268.64747 274.71293 279.0111 283.25477 286.28749 289.3202 292.35295 297.2075 302.66206 306.9057 309.93843 315.39299">mustincludeanexplicitquorum-lossjustification</tspan></text>
<text xml:space="preserve" transform="matrix(1 0 -0 1 0 792)" font-size="10.9091" font-family="LMRoman10"><tspan y="-360.349" x="72">&#x2022;</tspan></text>
<text xml:space="preserve" transform="matrix(1 0 -0 1 0 792)" font-size="10.9091" font-family="LMRoman10"><tspan y="-360.349" x="85.94183 94.723659 100.789119 105.0873 112.97458 119.33459 127.83277 132.10913 136.96369 142.41825 147.2728 151.54917 155.84735 158.88008 164.94554 167.97827 176.46556 184.34194 190.4074 195.26195 199.53832 208.0256 214.09107 218.36743 223.82198 228.67653 232.92017 235.9529 240.80745 246.262 252.32746 255.36019">mustbereversiblewherepracticable</tspan></text>
<text xml:space="preserve" transform="matrix(1 0 -0 1 0 792)" font-size="10.9091" font-family="LMRoman10"><tspan y="-338.032" x="72">&#x2022;</tspan></text>
<text xml:space="preserve" transform="matrix(1 0 -0 1 0 792)" font-size="10.9091" font-family="LMRoman10"><tspan y="-338.032" x="85.94183 94.723659 100.789119 105.0873 112.97458 119.33459 127.83277 132.10913 136.96369 142.7237 145.75643 150.61098 158.1819 163.03646 172.73465 178.49466 187.89832 192.14196 198.20742 206.6947 215.25835 220.40744 225.87291 230.71656 234.99292 241.05838 244.09111 250.16748 259.25477 266.9784 272.7384 278.80387 288.1966 296.07298 299.10569 303.34934 309.4148 312.4475 322.1457 326.38935 332.4548 335.48753 339.7639 343.71299 353.1057 357.34938 362.80393 368.25849 376.13487 382.20033 387.36033 393.12034 401.05125 406.5058 413.4767 419.23674 425.3022 430.75675 435.0331 441.09858 453.8295 458.10588 462.96043 467.2586 471.50227 476.95683 481.2332 486.68775 490.9314 493.9641 499.41868">mustbereviewedbytheGoverningBodywithinthirty(30)daysofquorumrestoration</tspan><tspan y="-311.73103" x="72 79.87637 85.330928 91.09093 95.334568 98.367298 104.13821 110.20367 113.2364 117.174579 126.56731 134.44368 140.50914 144.75278 150.81824 156.27278 160.54915 163.58188 167.53098 176.92372 182.37827 188.44373 192.68737 198.1419 207.22919 212.68373 216.92737 219.9601 224.81465 230.2692 233.30193 236.33466 245.7274 249.97104 254.82559 259.10197 268.18925 271.22196 277.2874 282.74198 286.98564 291.84019 299.7711 305.83656 312.20747 317.66203 327.37113 331.6475 336.50205 340.80024 345.04389 350.49845 354.7748 360.22938 364.47303 367.50575 372.9603 382.65849 388.11305 395.08396 400.84397 406.90943 412.36399 416.64036 422.7058 431.7931">ContinuityAuthorityautomaticallyterminatesuponrestorationofquorum.</tspan><tspan y="-291.407" x="71.596 79.777828 85.53783 94.94147 100.39602 105.250568 109.4942 112.52693 117.98148 127.67967 132.53423 138.29424 143.14879 148.00334 152.8579 158.92336 161.95609 168.02155 177.10883 181.35247 187.41793 195.90522 200.21431 205.05796 210.5125 216.8834 225.3816 230.83615 237.80707 242.0507 248.11617 251.1489 259.0798 263.378 268.23255 273.0871 277.33076 280.36347 285.81803 295.52714 300.38169 305.83625 311.9017 316.1999 320.44355 323.47627 327.7199 333.78538 338.02903 342.88359 350.81449 356.87995 361.1563 364.18904 373.2763 382.3636 385.70179 391.15635 396.0109 399.0436 407.5418 412.39637 418.15638 421.1891 427.25456 432.1091 438.17457 443.0291 451.5164 456.97096 463.94187 472.1237 475.1564 480.61097 483.64369 489.09825 493.3419 496.3746 501.82917 507.89463">AnyactionexceedingthescopeofthissectionconstitutesprimafacieevidenceofViolation.</tspan></text>
<text xml:space="preserve" transform="matrix(1.0054849 0 -0 .9945449 0 792)" font-size="10.968936" font-family="LMRoman10"><tspan y="-272.56993" x="71.60725 79.52682 85.011287 90.81386 95.08077 98.13014 103.92174 110.02047 113.06984 117.040599 126.44097 134.3715 140.47025 144.73715 150.83589 156.32038 160.6202 163.66956 167.6403 177.04068 185.88164 191.98036 196.30213 204.18878 210.28752 215.77199 223.65865 230.05356 238.55448 244.65322 248.97496 253.85614 263.57463 267.84153 276.93479 281.25654 284.3059 293.14689 299.2456 302.29499 307.77946 312.04637 316.92756 323.59669 328.47789 334.26948 338.53639 343.41758 349.5163 355.61503 362.27317 366.60588 372.7046 378.8033 383.1251 387.392 390.44139 394.70829 400.807 405.0739 413.56388 416.92039 422.40486 426.70466 433.37379 438.85829 446.77784 452.87657 457.75776 460.80714 465.98448 475.39585 478.44523 484.24778 489.73225 495.52384 500.40504 505.8895 510.15644 513.2058 518.69027 528.3978 533.88229">ContinuityAuthoritymustnotbeusedtosimulate,extend,substitutefor,ordelayinvocationof</tspan></text>
<text xml:space="preserve" transform="matrix(.99095919 0 -0 1.0091233 0 792)" font-size="10.810472" font-family="LMRoman10"><tspan y="-255.20568" x="72.656879 76.86215 82.87277 91.359 99.16416 104.5694 110.58002 114.83935 119.04462 122.04993 126.2552 132.26583 136.47109 139.4764 144.88162 150.89226 156.29749 162.97837 170.93486 175.74552 181.75615 187.16138 190.16669 198.06914 205.44188 209.66878 215.074 219.27928 224.99802 229.80869 235.21392 241.89479 247.30002 255.20249 260.6077 266.3156 275.6991 279.60169 285.3096 289.5149 294.32557 298.56327 301.5578 314.23847 324.15168 327.15699 331.36228 334.3676 339.77284 345.17805 349.38334 352.38865 357.79389 367.48005 372.88526 378.89588 383.10118 389.11177 394.517 398.7547 401.76005 406.5707 411.38139 421.06755 425.27284 431.28346 436.09413 440.33183 445.14253 451.1531 457.16374 463.17436 467.98503 472.22273 480.136 487.93037 492.74104 496.94633 499.95164 505.35685 511.36747 519.30239 523.5076 528.91287 534.3181 539.1288">theConstitutionalRepairProtocoloranyInterimMitigationauthorizedthereunder.Actionstaken</tspan></text>
<text xml:space="preserve" transform="matrix(1.0014988 0 -0 .9985033 0 792)" font-size="10.925451" font-family="LMRoman10"><tspan y="-244.35073" x="71.89225 77.9668 84.04135 90.115909 94.97773 102.88776 110.77593 116.23866 122.01822 126.26823 129.3055 135.07413 141.14868 144.18595 148.13005 157.53687 165.42505 171.4996 175.74962 181.82416 187.2869 191.56967 194.60695 198.55104 207.94693 216.75286 222.82741 227.13204 235.0093 239.29209 244.1539 253.2548 258.71754 261.75483 271.4566 275.76124 280.01124 284.294 287.33128 292.1931 296.4431 299.4804 308.87629 311.91358 314.95088 324.05177 327.08906 331.33906 336.20088 345.91358 350.1636 359.25358 362.29087 371.39176 380.49266 385.35447 391.42903 394.4663 399.92903 404.17906 412.66813 418.74266 424.20539 428.48817 441.2163 447.29084 451.5736 456.43544 461.90907 466.75996 472.5395 476.78953 479.82679 485.28953 494.99134 500.45405 506.5286 516.2304 525.0364 531.11099 535.4156">underContinuityAuthoritymustremainstrictlylimitedtoimmediateharmpreventionandmust</tspan></text>
<text xml:space="preserve" transform="matrix(.9899495 0 -0 1.0101526 0 792)" font-size="10.799458" font-family="LMRoman10"><tspan y="-228.11998" x="72.73098 78.73548 84.13521 91.921619 98.2285 106.61968 112.01941 117.41914 122.81887 127.05226 131.85802 137.25775 142.65747 146.85846 151.66423 161.24335 166.64308 174.46189 178.71686 183.52263 189.22475 195.22925 200.035 206.0395 210.84526 215.65103 225.24094 229.44193 238.41628 243.81601 248.31938 254.32389 257.32615 262.13188 267.5208 275.912 280.7177 283.86576 287.01383 291.81959 296.6253 300.8263 308.6667 312.86766 318.87217 324.27189 332.0475 339.5423 344.94206 350.94654 353.9488 363.5387 368.93843 373.1394 379.1439 383.94966 388.183 395.98023 398.98249 403.23747 411.61784 415.8512 420.65696 426.35908 432.36357 435.3658 439.59919 447.99037 455.93876 460.7445 466.74903 472.14875 475.151 482.95899 488.3587 496.1775 506.0806 509.08283 513.2838 516.2861 521.6858 527.0855 531.2865 534.2887 539.6884">notbeaggregatedorsequencedtoachieveeffectsthatwouldotherwiserequireRepairorMitigation</tspan></text>
<text xml:space="preserve" transform="matrix(1 0 -0 1 0 792)" font-size="10.9091" font-family="LMRoman10"><tspan y="-216.886" x="72 77.45455 83.52001 87.76365 93.82911 99.28366 103.56003 106.59276 111.44731 116.90186 121.1455 124.17823 129.63278 135.69824">authorization.</tspan><tspan y="-196.563" x="72 82.00365 88.06911 92.312747 97.767299 103.832759 106.865489 109.89822 112.93095 116.869129 122.62913 130.5164 138.69823 144.76369 149.31279 155.37825 160.8328 166.89826 172.3528 177.20735 182.6619 188.72736 191.76009">Mutability:Unchangeable</tspan></text>
<text xml:space="preserve" transform="matrix(1 0 -0 1 0 792)" font-size="11.9552" font-family="LMRoman12" font-weight="bold"><tspan y="-167.354" x="72 78.73078 82.47276">9.3</tspan></text>
<text xml:space="preserve" transform="matrix(1 0 -0 1 0 792)" font-size="11.9552" font-family="LMRoman12" font-weight="bold"><tspan y="-167.354" x="99.29373 109.32414 115.45716 122.18794 125.929927 131.23804 136.47441 141.9738 153.5584 163.66054 171.50315 175.61574 181.74875 187.72635 197.44593 206.48406 213.5974 219.575 226.11449 233.58649 241.05849 244.80046 251.33995 256.83937">RegistryObjectVocabulary</tspan></text>
<text xml:space="preserve" transform="matrix(1 0 -0 1 0 792)" font-size="10.9091" font-family="LMRoman10"><tspan y="-146.761" x="72 79.4291 88.51638 93.370929 97.64729 103.101848 107.95639 114.02185 118.8764 128.26914 131.30187 136.75641 145.8546 150.15279 154.39643 160.46189 166.52735 174.45827 183.2401 189.30556 193.60375 201.49103 205.7674 210.62195 213.96013 218.81468 223.09105 227.9456 234.01107 238.86562 247.3529 252.80745 255.98746 259.16746 264.022 268.87657 273.1202 277.97477 287.67295 293.1275 299.4984 302.8366 307.69117 312.54573 316.78938 324.72029 330.78575 335.08393 338.11665 344.1821 353.2803 358.73487 364.80033 367.83305 377.22578 381.46943 387.53489 396.02217 399.36036 404.8149 407.84764 410.88035 416.04035 423.91673 426.94944 433.0149 442.10218 446.95674 452.4113 458.1713 462.41496 466.6913 472.14588 475.1786 478.2113 483.06587 492.76405 497.6186 500.6513 506.10588 510.40406 514.7022 519.55679 523.8549">Emergencylogstubsmustreferenceaffectedobjectsusingonlythefollowingcontrolledclasses:</tspan></text>
<text xml:space="preserve" transform="matrix(1 0 -0 1 0 792)" font-size="10.9091" font-family="LMRoman10"><tspan y="-120.459" x="72">&#x2022;</tspan></text>
<text xml:space="preserve" transform="matrix(1 0 -0 1 0 792)" font-size="10.9091" font-family="LMMono10"><tspan y="-120.459" x="85.94183 91.66911 97.39639 103.12367 108.85095 114.57823 120.30551 126.03279 131.76007 137.48735 143.21463 148.94191">PERSON.GUEST</tspan></text>
<text xml:space="preserve" transform="matrix(1 0 -0 1 0 792)" font-size="10.9091" font-family="LMRoman10"><tspan y="-120.459" x="154.66919">,</tspan></text>
<text xml:space="preserve" transform="matrix(1 0 -0 1 0 792)" font-size="10.9091" font-family="LMMono10"><tspan y="-120.459" x="161.33466 167.06194 172.78922 178.5165 184.24378 189.97106 195.69834 201.42562 207.1529 212.88018 218.60746 224.33473">PERSON.STAFF</tspan></text>
<text xml:space="preserve" transform="matrix(1 0 -0 1 0 792)" font-size="10.9091" font-family="LMRoman10"><tspan y="-120.459" x="230.06201">,</tspan></text>
<text xml:space="preserve" transform="matrix(1 0 -0 1 0 792)" font-size="10.9091" font-family="LMMono10"><tspan y="-120.459" x="236.73839 242.46567 248.19295 253.92023 259.6475 265.37477 271.10203 276.82929 282.55656 288.2838 294.01109 299.73835 305.4656 311.19288 316.92015 322.6474">PERSON.VOLUNTEER</tspan></text>
<text xml:space="preserve" transform="matrix(1 0 -0 1 0 792)" font-size="10.9091" font-family="LMRoman10"><tspan y="-120.459" x="328.37467">,</tspan></text>
<text xml:space="preserve" transform="matrix(1 0 -0 1 0 792)" font-size="10.9091" font-family="LMMono10"><tspan y="-120.459" x="335.0401 340.76737 346.49464 352.2219 357.94917 363.67643 369.4037 375.13096 380.85823 386.58549 392.31275 398.04 403.76728 409.49455 415.2218 420.94908 426.67634 432.4036">PERSON.PARTICIPANT</tspan></text>
<text xml:space="preserve" transform="matrix(1 0 -0 1 0 792)" font-size="10.9091" font-family="LMRoman10"><tspan y="-98.143" x="72">&#x2022;</tspan></text>
<text xml:space="preserve" transform="matrix(1 0 -0 1 0 792)" font-size="10.9091" font-family="LMMono10"><tspan y="-98.143" x="85.658199 91.385478 97.112758 102.840038 108.567317 114.29459 120.02187 125.74915 131.47643 137.2037">ANIMAL.DOG</tspan></text>
<text xml:space="preserve" transform="matrix(1 0 -0 1 0 792)" font-size="10.9091" font-family="LMRoman10"><tspan y="-98.143" x="142.93099">,</tspan></text>
<text xml:space="preserve" transform="matrix(1 0 -0 1 0 792)" font-size="10.9091" font-family="LMMono10"><tspan y="-98.143" x="149.59645 155.32373 161.05101 166.77829 172.50557 178.23285 183.96013 189.68741 195.41469 201.14197 206.86925 212.59653">ANIMAL.OTHER</tspan></text>
<text xml:space="preserve" transform="matrix(1 0 -0 1 0 792)" font-size="10.9091" font-family="LMRoman10"><tspan y="-42.112" x="300.54499 305.99955">35</tspan></text>
</svg>
