<svg xmlns="http://www.w3.org/2000/svg" xmlns:xlink="http://www.w3.org/1999/xlink" xmlns:inkscape="http://www.inkscape.org/namespaces/inkscape" version="1.1" width="612" height="792" viewBox="0 0 612 792">
<text xml:space="preserve" transform="matrix(1 0 -0 1 0 792)" font-size="10.9091" font-family="LMRoman10" font-weight="bold"><tspan y="-709.041" x="72 78.97092 83.84728 89.94547 94.82184 101.792758 106.74548">Status:</tspan></text>
<text xml:space="preserve" transform="matrix(1 0 -0 1 0 792)" font-size="10.9091" font-family="LMRoman10"><tspan y="-709.041" x="115.06913 122.79277 125.8255 131.90187 137.96733 141.00006 147.06552 156.1528 164.71645 169.86554 175.3201 180.17465 184.45102 190.51648 195.97103 202.03649 206.89104 215.38924 221.4547 226.0038 232.06926 236.92382 242.98928 249.05474 252.08747">BindingGovernanceSchedule</tspan></text>
<text xml:space="preserve" transform="matrix(.9939819 0 -0 1.0060546 0 792)" font-size="10.843447" font-family="LMRoman10" font-weight="bold"><tspan y="-691.3064" x="71.95604 81.032009 87.96097 92.80798 99.736949 105.971927 111.11172 114.57078 119.05996 125.64193">Authority:</tspan></text>
<text xml:space="preserve" transform="matrix(.9939819 0 -0 1.0060546 0 792)" font-size="10.843447" font-family="LMRoman10"><tspan y="-691.3064" x="133.98055 141.80953 147.83849 153.26021 159.28917 163.50727 168.33261 178.02666 183.752 193.13158 197.34969 203.37865 211.85822 220.37032 225.48844 230.91016 235.73549 239.98613 246.01509 249.02957 255.05852 264.1345 271.81166 277.54786 283.5768 292.9564 298.98536 305.0143 309.26493 313.53727 319.56623 324.98796 330.7133 338.58564 342.80375 351.89057 356.10868 362.13764 370.61723 378.4462 383.86793 389.89689 394.1692 399.59095 402.6054 405.61988 411.64884 417.0706 421.28868 426.114 435.80809 444.32017 449.43827 454.84919 459.6745 463.9251 469.95408 475.3758 481.40476 486.2301 494.72053 503.0049 508.73027 513.5556 519.58456 528.6171 533.44247 539.1677">AdoptedbytheGoverningBodypursuanttotheConsolidatedGovernanceDocument</tspan></text>
<text xml:space="preserve" transform="matrix(1 0 -0 1 0 792)" font-size="10.9091" font-family="LMRoman10" font-weight="bold"><tspan y="-681.943" x="72 78.97092 84.54546 90.8182 98.13821 103.8873">Scope:</tspan></text>
<text xml:space="preserve" transform="matrix(1 0 -0 1 0 792)" font-size="10.9091" font-family="LMRoman10"><tspan y="-681.943" x="112.210948 120.5455 125.400058 128.43279 131.46552 137.53098 142.38553 150.32736 158.20374 164.2692 173.35648 182.44376 187.59285 196.9965 202.45105 208.51651 214.58197 218.85834 224.00743 229.46199 237.96019 245.83657 251.90203 254.93476 259.48387 269.18205 274.6366 279.49116 283.7348 286.76753 292.22209 298.28755 302.58573 309.25117 315.31663 325.02574 329.26939 338.35667 346.23304 352.2985 357.75306 365.64036 368.67308 371.70579 380.79307 383.82579 388.06944 392.3676 399.03306 404.4876 410.55308 420.25126 426.3167 432.38218 438.44764 443.3022 451.2222 459.09858 465.16404 470.6186 478.49497 483.34953 488.80409 494.86955 499.16773 503.41139 507.68775 513.1423 516.175 521.93496 526.1786">Defineswhomayapprovewhichactions,uptowhatlimits,andunderwhatconstraints</tspan></text>
<text xml:space="preserve" transform="matrix(.9899495 0 -0 1.0101526 0 792)" font-size="10.799458" font-family="LMRoman10" font-weight="bold"><tspan y="-661.6762" x="72.73098 81.21935 86.338298 92.02961 97.548137 103.23945 110.140308 115.83162 122.732479 128.25099 133.9423">Precedence:</tspan></text>
<text xml:space="preserve" transform="matrix(.9899495 0 -0 1.0101526 0 792)" font-size="10.799458" font-family="LMRoman10"><tspan y="-661.6762" x="142.20389 148.20839 154.21289 160.53058 165.9303 170.1529 176.1682 179.17044 185.17494 190.57468 194.77567 203.09125 207.29224 216.20178 220.40277 226.40727 234.72287 242.52007 247.9198 253.9243 258.1793 263.579 266.58128 269.58354 275.588 280.98774 285.18873 289.99449 299.5088 307.98637 313.0837 318.47264 323.27839 327.51176 333.51628 338.916 344.92048 349.72624 358.0418 366.2926 372.0055 376.81126 382.81578 391.8117 396.61747 402.30879 406.50978 413.07585 417.8816 423.2813 428.98344 433.18443 437.4178 442.8175 445.81977 448.82203 451.82426 457.82878 466.7383 474.53553 480.54 485.34577 489.57914 497.8947 502.12809 506.93385 510.23847 515.0442 519.2776 524.0834 530.0879 534.8936 539.69937">SubordinatetotheConsolidatedGovernanceDocument;controllingwherereferenced</tspan></text>
<text xml:space="preserve" transform="matrix(1 0 -0 1 0 792)" font-size="10.9091" font-family="LMRoman10" font-weight="bold"><tspan y="-654.844" x="72 83.912738 90.88365 95.76002 101.85821 108.829128 112.30913 115.78913 119.269138 123.79641 130.41823">Mutability:</tspan></text>
<text xml:space="preserve" transform="matrix(1 0 -0 1 0 792)" font-size="10.9091" font-family="LMRoman10"><tspan y="-654.844" x="138.75278 146.78188 151.63643 157.39644 160.42917 164.72736 170.1819 176.24736 179.28009 187.76738 193.22193 199.28739 202.32012 211.71286 217.48378 226.87653 234.30562 240.06563 244.30927 248.58563 254.04018 259.49473 263.7711 269.83656 272.86927 278.93473 284.38929 288.66566 298.05839 305.4875 309.76387 315.52388 320.37843 325.23298 329.53117">RevisableonlybyExtraordinaryProcess</tspan></text>
<text xml:space="preserve" transform="matrix(1 0 -0 1 0 792)" font-size="14.3462" font-family="LMRoman12" font-weight="bold"><tspan y="-620.476" x="72">1</tspan></text>
<text xml:space="preserve" transform="matrix(1 0 -0 1 0 792)" font-size="14.3462" font-family="LMRoman12" font-weight="bold"><tspan y="-620.476" x="92.185108 103.21733 112.18371 118.78296 128.19406 136.27097 142.64069">Purpose</tspan></text>
<text xml:space="preserve" transform="matrix(.99749687 0 -0 1.0025094 0 792)" font-size="10.881793" font-family="LMRoman10"><tspan y="-594.6349" x="71.7867 79.64336 85.693637 88.718769 96.66248 102.72364 107.26135 113.31163 118.15403 124.20431 130.25458 133.27971 141.7784 147.82866 152.67107 155.6962 158.72133 164.7716 169.614 177.5577 181.79073 187.84099 196.35056 201.19297 206.93854 211.78095 214.80608 220.85634 225.14377 228.1689 233.6098 242.10848 248.15874 253.00115 256.02629 260.86869 266.30958 271.75047 275.98347 279.00865 284.44953 294.15608 299.59696 305.64726 315.3647 320.80558 326.85585 332.90614 337.17176 342.30799 347.44419 352.88508 359.5665 362.59165 365.61683 374.68135 377.70649 381.93949 389.8941 393.22395 398.66484 406.58677 409.6119 412.63703 418.68733 424.1282 430.17848 435.02088 438.04606 443.48695 446.5121 453.2044 458.04679 463.48768 469.23329 473.46629 477.73194 483.17283 488.01524 492.24824 498.29853 503.7394 506.76457 513.45687 518.89779 525.2528 530.09518 534.35 539.7909">ThisScheduledefinestheexclusivedelegationandapprovallimitsforfinancial,contractual,opera-</tspan></text>
<text xml:space="preserve" transform="matrix(1 0 -0 1 0 792)" font-size="10.9091" font-family="LMRoman10"><tspan y="-582.578" x="72 76.24364 79.27637 84.73092 90.79638 96.25093 99.28366 105.94912 111.40367 117.46913 127.17823 132.03278 141.12006 145.97461 150.25098 155.70552 160.56008 166.62554 171.48009 177.2401 180.87284 185.1492 190.00376 193.02558 198.48012 202.72376 207.57831 217.28742 222.74196 227.59651 231.84015 234.87288 240.32743 246.39289 254.3238 262.20018 265.23289 269.47654 275.542 278.5747 288.2838 296.46565 301.3202 312.82929 321.16386 326.6184 332.07298 337.52754 342.38209 346.65846 349.69117 355.14573 361.21119 367.27665">tional,andemergency-relatedactionswithinNewDoggerland.</tspan></text>
<text xml:space="preserve" transform="matrix(.997998 0 -0 1.002006 0 792)" font-size="10.8872599" font-family="LMRoman10"><tspan y="-561.1284" x="72.14444 80.30988 89.40075 95.7589 100.60374 104.87154 109.16112 114.60475 124.3053 129.74893 137.66396 141.93177 147.3754 150.40207 158.89412 167.96321 173.10199 182.4977 187.94133 193.99465 200.04796 204.31577 209.45456 214.8982 219.74303 226.4169 231.86052 237.91385 242.14899 248.20232 253.64594 257.91374 260.94038 265.78523 270.63008 277.30397 282.7476 290.6626 295.50746 300.95109 310.02018 319.08927 322.11595 329.9983 334.23344 340.28675 348.7788 354.22245 358.49024 363.93388 369.3775 375.43083 378.4575 383.30235 388.74598 392.9811 396.00776 401.4514 411.15196 417.5101 422.35496 427.79859 433.24223 439.29554 448.99607 453.2312 459.28453 467.77659 470.80326 473.82994 482.89903 485.92567 490.1608 498.09764 502.94245 508.69096 514.7442 517.7709 520.7975 525.64236 528.66897 532.9041 535.9307">Nopersonorrolemayapprove,authorize,orcommittheorganizationbeyondthelimitsexplicitly</tspan></text>
<text xml:space="preserve" transform="matrix(1 0 -0 1 0 792)" font-size="10.9091" font-family="LMRoman10"><tspan y="-548.705" x="72 76.29819 80.541828 85.996379 90.24001 95.09456 104.79275 107.82548 117.53458 121.77821 127.84367 130.8764 138.80733 144.87279 149.42189 155.48735 160.3419 166.40737 172.47283 175.50556 180.3601">statedinthisSchedule.</tspan><tspan y="-528.38107" x="72 78.06546 81.09819 84.13092 88.98547 95.050937 99.90549 108.39277 111.4255 121.1346 125.378238 131.4437 134.47643 142.40735 148.47281 153.02191 159.08737 163.94193 170.00739 176.07285 179.10558 187.60378 193.66924 199.41832 204.27288 212.2147 218.28017 223.73471 231.61109 236.46564 241.92018 247.98564 251.32382 256.17839 264.08747 269.54203 275.60749 279.85115 285.9166 291.37117 295.64753 298.68025 302.62934 307.473">SilenceinthisScheduledoesnotconferauthority.</tspan></text>
<text xml:space="preserve" transform="matrix(1 0 -0 1 0 792)" font-size="14.3462" font-family="LMRoman12" font-weight="bold"><tspan y="-494.01304" x="72">2</tspan></text>
<text xml:space="preserve" transform="matrix(1 0 -0 1 0 792)" font-size="14.3462" font-family="LMRoman12" font-weight="bold"><tspan y="-494.01304" x="92.185108 104.86715 112.22675 121.19313 128.55274 135.152 142.99936 152.86954 163.90177 170.50102 174.99138 183.95775 191.13085 195.6212 204.58757 209.07793 216.43753">GeneralPrinciples</tspan></text>
<text xml:space="preserve" transform="matrix(1 0 -0 1 0 792)" font-size="10.9091" font-family="LMRoman10"><tspan y="-469.66304" x="71.596 79.777828 82.810558 89.47601 95.54147 100.39603 103.42876 108.28331 113.73786 119.19241 123.43605 126.46878 131.92333 141.63243 147.69789 153.76335 159.82881 164.68337 172.59247 176.8361 182.90157 185.9343 193.86522 199.93068 204.49069 210.55615 215.4107 221.47617 227.54163 230.57436 239.06165 242.09438 250.0253 254.32349 260.38896 266.75987 270.09806 274.9526 279.80717 287.69447 291.9381 301.0254 305.26905 311.3345 319.82179 323.15998 328.61454 331.64726 334.67997 339.82908 347.70545 350.73817 356.80363 365.90184 370.75639 376.21095 382.2764 386.5746 390.81825 395.0946 400.54917 403.58189 409.3419 413.58555 417.88374">AlldelegationunderthisScheduleissubjecttothefollowingconstraints:</tspan></text>
<text xml:space="preserve" transform="matrix(1 0 -0 1 0 792)" font-size="10.9091" font-family="LMRoman10"><tspan y="-443.36204" x="72">&#x2022;</tspan></text>
<text xml:space="preserve" transform="matrix(1 0 -0 1 0 792)" font-size="10.9091" font-family="LMRoman10"><tspan y="-443.36204" x="85.94183 94.27638 99.130939 102.163669 107.01822 112.47277 117.92732 122.17096 125.20369 130.65824 140.35643 146.42189 151.27645 154.30918 157.3419 163.40737 168.26192">Delegationdefines</tspan></text>
<text xml:space="preserve" transform="matrix(1 0 -0 1 0 792)" font-size="10.9091" font-family="LMRoman10" font-style="italic"><tspan y="-443.36204" x="176.20375 183.44739 189.02194 198.49105 207.41469 212.98925 222.19652 227.77108 233.34563 238.92018 242.96746 248.542 253.5602">whomayapprove</tspan></text>
<text xml:space="preserve" transform="matrix(1 0 -0 1 0 792)" font-size="10.9091" font-family="LMRoman10"><tspan y="-443.36204" x="258.57838 265.2438 271.32017 276.77473">,not</tspan></text>
<text xml:space="preserve" transform="matrix(1 0 -0 1 0 792)" font-size="10.9091" font-family="LMRoman10" font-style="italic"><tspan y="-443.36204" x="284.6511 291.89476 297.4693 303.04386 310.57115 313.92024 322.2766 327.2948 332.313 336.91664 345.84028 349.18937 353.65119 358.113 361.4621 366.4803 369.273">whatispermissible</tspan></text>
<text xml:space="preserve" transform="matrix(1 0 -0 1 0 792)" font-size="10.9091" font-family="LMRoman10"><tspan y="-443.36204" x="374.2912">.</tspan></text>
<text xml:space="preserve" transform="matrix(1 0 -0 1 0 792)" font-size="10.9091" font-family="LMRoman10"><tspan y="-421.04505" x="72">&#x2022;</tspan></text>
<text xml:space="preserve" transform="matrix(1 0 -0 1 0 792)" font-size="10.9091" font-family="LMRoman10"><tspan y="-421.04505" x="85.53819 93.72002 96.75275 103.418209 108.87276 113.72731 117.97095 121.00368 126.45823 132.52368 140.46552 144.74188 149.59644 158.68372 164.13826 167.17099 176.86919 181.16738 187.23284 193.60375 196.94193 201.79648 206.65103 214.5274 218.77104 227.85832 237.86197 240.8947 245.19289 249.50199 252.53472 257.98927 267.68745 274.5056 280.26564 284.81474 290.57475 297.24018 304.8111 309.66566 312.69837 316.03657 321.49113 325.7675 330.62205 337.2984 343.36387 346.39659 351.85115 357.9166 360.9493 364.8875 369.74208 376.4075 381.86207 387.92753 397.6257 401.9239 407.37846 410.71665 415.5712 419.5203 428.91304 433.76759 439.22215 445.2876 449.5858 453.82945 458.1058 463.56037 466.59309 472.3531 476.59675 480.89494">AllactionsremainsubjecttoMissionLock,welfare,dignity,andsafetyconstraints.</tspan></text>
<text xml:space="preserve" transform="matrix(1 0 -0 1 0 792)" font-size="10.9091" font-family="LMRoman10"><tspan y="-398.72904" x="72">&#x2022;</tspan></text>
<text xml:space="preserve" transform="matrix(1 0 -0 1 0 792)" font-size="10.9091" font-family="LMRoman10"><tspan y="-398.72904" x="85.53819 93.72002 99.48002 108.88366 114.33821 119.192768 123.4364 126.46913 131.92368 141.62187 146.47643 152.23644 157.09099 161.94554 166.8001 172.86556 175.89829 181.96375 191.05103 195.29467 201.36013 206.21468 210.51287 219.00016 222.03289 225.06562 234.1529 237.18563 241.42926 249.3711 254.22565 259.6802 265.74568 270.04386 274.2875 277.32023 281.56388 287.62934 291.873 296.72755 304.65846 313.74574 323.74937 329.20393 333.44758 338.30213 342.5785 345.6112 351.06578 357.74214 365.6185 370.47306 374.7167 377.74943 383.20399 389.26945">AnyactionexceedingtheselimitsconstitutesaMaterialAction.</tspan></text>
<text xml:space="preserve" transform="matrix(1 0 -0 1 0 792)" font-size="10.9091" font-family="LMRoman10"><tspan y="-376.41304" x="72">&#x2022;</tspan></text>
<text xml:space="preserve" transform="matrix(1 0 -0 1 0 792)" font-size="10.9091" font-family="LMRoman10"><tspan y="-376.41304" x="85.94183 93.37093 102.45821 107.31276 111.58913 117.04368 121.898227 127.963687 132.81824 142.21099 147.66553 153.73099 157.97463 164.04009 169.49463 173.771 176.80373 180.75283 190.14557 196.21103 201.97103 206.82558 214.7565 220.82196 226.2765 234.15288 239.00743 244.76744 250.8329 256.28746 262.3529 272.062 277.51658 283.58204 289.6475 293.92387 299.07298 304.23298 309.68754 316.35298 319.38569 322.4184 331.50569 334.5384 338.78205 346.71296 353.08387 357.93843 363.39299 368.84754 374.913 384.6221 388.86576 394.9312 397.96394 405.89485 411.9603 416.5094 422.57487 427.4294 433.49488 439.56034 442.59306 447.4476">EmergencyauthoritydoesnotexpandapprovallimitsbeyondthisSchedule.</tspan></text>
<text xml:space="preserve" transform="matrix(1 0 -0 1 0 792)" font-size="14.3462" font-family="LMRoman12" font-weight="bold"><tspan y="-342.045" x="72">3</tspan></text>
<text xml:space="preserve" transform="matrix(1 0 -0 1 0 792)" font-size="14.3462" font-family="LMRoman12" font-weight="bold"><tspan y="-342.045" x="92.185108 104.37937 113.34575 122.312129 128.91138 136.5292 144.16138 152.00875 161.87892 173.91539 181.9923 186.48265 193.84226">ApprovalRoles</tspan></text>
<text xml:space="preserve" transform="matrix(1 0 -0 1 0 792)" font-size="10.9091" font-family="LMRoman10"><tspan y="-317.695" x="72 78.218189 83.67274 91.58183 97.64729 103.71275 107.98912 114.36004 119.81459 124.11278 128.96733 136.89826 142.3528 149.33463 153.57826 159.64373 162.67646 170.60738 176.67284 181.22194 187.2874 192.14196 198.20742 204.27288 207.3056 212.16016 218.83654 224.29108 230.35654 236.422 240.69837 245.84746 250.99655 256.4511 263.12748 268.58204 274.6475 278.89115 284.9566 290.41117 294.68754 297.72026 301.65846 311.05119 314.0839 322.02574 325.05845 328.09117 337.17845 340.20027 344.4439 349.29847 359.00758 363.25123 372.3385 376.58216 382.6476 391.1349 394.48399 399.93855 402.97126 405.99308 411.15309 419.02946 422.06217 428.12763 437.2149 441.49128 446.94584 449.97856 454.8331 459.1313">ForpurposesofthisSchedule,approvalauthorityislimitedtothefollowingroles:</tspan></text>
<text xml:space="preserve" transform="matrix(1 0 -0 1 0 792)" font-size="10.9091" font-family="LMRoman10"><tspan y="-291.394" x="72">&#x2022;</tspan></text>
<text xml:space="preserve" transform="matrix(1 0 -0 1 0 792)" font-size="10.9091" font-family="LMRoman10"><tspan y="-291.394" x="85.94183 94.50548 99.65457 105.109119 109.96367 114.240039 120.3055 123.33823 129.40369 138.50188 146.22553 151.98552 158.05098 167.44373 171.68737 176.54192 181.99646 185.02919 188.06192 192.91648 197.77103 202.01467 205.0474 210.50196 215.3565">GoverningBody(collective)</tspan></text>
<text xml:space="preserve" transform="matrix(1 0 -0 1 0 792)" font-size="10.9091" font-family="LMRoman10"><tspan y="-269.07704" x="72">&#x2022;</tspan></text>
<text xml:space="preserve" transform="matrix(1 0 -0 1 0 792)" font-size="10.9091" font-family="LMRoman10"><tspan y="-269.07704" x="85.94183 94.50548 99.65457 105.109119 109.96367 114.240039 120.3055 123.33823 129.40369 138.50188 146.22553 151.98552 158.05098 167.44373 175.3201 181.38556 186.8401 189.87284 197.78194 202.02558 208.09104 212.3674 218.1274 222.98195 227.8365 233.90196 239.96743 244.24379 249.69834 256.3638 261.81837 267.88383 270.91654 276.67655 283.3529 289.41838 298.50566 303.9602 310.02568 316.09114 320.3675 325.5166 330.6766 336.13117 342.7966 348.25117 354.31663 358.56028 364.62574 370.0803 374.35667 377.38938 381.32759 390.73124 396.7967 402.86216 405.89488 410.74943 415.0476 422.97853 428.43309 432.67674 438.7422 443.59675 447.8731 455.74949 458.7822 463.08039 471.56767 475.86585 482.23677 487.0913 491.94587 494.97859 498.0113 501.04405 505.8986 511.96406">GoverningBodyChair(proceduralonly;noapprovalauthorityunlessotherwisespecified)</tspan></text>
<text xml:space="preserve" transform="matrix(1 0 -0 1 0 792)" font-size="10.9091" font-family="LMRoman10"><tspan y="-246.76103" x="72">&#x2022;</tspan></text>
<text xml:space="preserve" transform="matrix(1 0 -0 1 0 792)" font-size="10.9091" font-family="LMRoman10"><tspan y="-246.76103" x="85.94183 93.37093 99.130939 103.98549 108.84004 114.9055 119.14914 122.18187 127.63641 136.1237 144.45825 147.49098 151.76735 156.6219 161.47646 165.7201 171.17464 179.09465 183.33829 188.79283 196.70194 201.55649 207.3165 213.38196 216.41469 221.56378 227.01833 230.05106 234.90561 240.67653 248.5529 252.85109 257.70564 263.7711 266.8038 272.25837 280.16746 285.022 290.782 295.63658 300.49113 306.55659 310.80024 313.83296 319.2875 324.14207">ExecutiveDirector(orequivalentseniorexecutive)</tspan></text>
<text xml:space="preserve" transform="matrix(1 0 -0 1 0 792)" font-size="10.9091" font-family="LMRoman10"><tspan y="-224.44504" x="72">&#x2022;</tspan></text>
<text xml:space="preserve" transform="matrix(1 0 -0 1 0 792)" font-size="10.9091" font-family="LMRoman10"><tspan y="-224.44504" x="85.94183 94.27638 99.130939 103.42912 106.46185 111.916408 117.981868 123.43642 127.68005 132.5346 142.2328 149.35645 152.38918 158.45464 163.90918 169.97464 174.8292 183.3274 191.81467 194.84377 197.87287 200.90195 205.7565 210.61106">DesignatedFinanceOfficer</tspan></text>
<text xml:space="preserve" transform="matrix(1 0 -0 1 0 792)" font-size="10.9091" font-family="LMRoman10"><tspan y="-202.12905" x="72">&#x2022;</tspan></text>
<text xml:space="preserve" transform="matrix(1 0 -0 1 0 792)" font-size="10.9091" font-family="LMRoman10"><tspan y="-202.12905" x="85.94183 93.97093 99.42548 102.45821 107.31276 110.94549 117.01095 121.86549 127.320049 133.69095 138.5455 148.2437 154.30916 158.5528 164.00734 167.18735 174.00008 180.81827 185.67282 191.12737 200.83647 205.08011 210.53466 218.46558 224.53104 230.29103 235.14559 241.21105 250.29833 255.15288 260.91288 265.15653 270.01109 279.72019 282.7529 292.45109 296.72746 302.182 305.21473 313.702 318.2511 324.31657 329.77113 334.0475 338.29115 343.1457 347.42207">Role-ScopedStaffLead(asdocumentedinrolecharter)</tspan><tspan y="-175.82704" x="72 80.18182 89.269107 94.723659 98.96729 105.03275 109.8873 117.807308 122.08367 127.53822 130.57096 139.05825 148.14553 153.29462 162.68737 167.54192 173.30193 178.15648 182.43285 187.2874 190.32013 194.61832 203.11652 208.57106 214.63652 220.70198 224.97835 230.12744 235.27654 240.73108 247.40746 252.862 258.92747 263.1711 269.23658 274.69114 278.9675 282.0002 285.93843 290.79298">Nootherrolemayexerciseapprovalauthority.</tspan></text>
<text xml:space="preserve" transform="matrix(1 0 -0 1 0 792)" font-size="14.3462" font-family="LMRoman12" font-weight="bold"><tspan y="-141.45905" x="72">4</tspan></text>
<text xml:space="preserve" transform="matrix(1 0 -0 1 0 792)" font-size="14.3462" font-family="LMRoman12" font-weight="bold"><tspan y="-141.45905" x="92.185108 102.327869 106.81823 115.78461 123.63198 132.59836 139.77146 144.26181 152.10918 161.97936 172.56685 181.08849 190.49959 197.85919 206.82556 215.79193 220.28229 226.56592 235.53229 242.13155 254.87097 267.06526 276.03163 284.998 291.59724 299.2294 306.84724 314.6946 319.18498">FinancialExpenditureApprovals</tspan></text>
<text xml:space="preserve" transform="matrix(1 0 -0 1 0 792)" font-size="11.9552" font-family="LMRoman12" font-weight="bold"><tspan y="-114.51904" x="72 78.73078 82.47276">4.1</tspan></text>
<text xml:space="preserve" transform="matrix(1 0 -0 1 0 792)" font-size="11.9552" font-family="LMRoman12" font-weight="bold"><tspan y="-114.51904" x="99.29373 109.32414 116.054927 123.526927 128.7633 132.50528 139.97728 146.11029 154.33547 163.89963 171.37163 178.84363 185.5744 191.70742 196.94379 203.0768 215.032 223.85494 230.95633 238.79894 244.93195 252.40395 259.87596 263.61793 268.8543 276.3263 281.82569 287.9587">Routine,BudgetedExpenditures</tspan></text>
<text xml:space="preserve" transform="matrix(1 0 -0 1 0 792)" font-size="10.9091" font-family="LMRoman10"><tspan y="-42.112047" x="303.273">2</tspan></text>
</svg>
