<svg xmlns="http://www.w3.org/2000/svg" xmlns:xlink="http://www.w3.org/1999/xlink" xmlns:inkscape="http://www.inkscape.org/namespaces/inkscape" version="1.1" width="612" height="792" viewBox="0 0 612 792">
<text xml:space="preserve" transform="matrix(1 0 -0 1 0 792)" font-size="10.9091" font-family="LMRoman10"><tspan y="-709.041" x="72 75.93819 81.69819 85.941829 90.79637 95.07274 98.10547 110.82548 116.90185 122.3564 128.42186 134.48732 137.52005 140.55278 146.61824 155.70552 164.7928 169.64736 173.89099 179.95645 185.71645 191.7819 199.71283 205.16738 211.23284 216.68738 222.75284 226.99648 231.85103 241.56014 247.6256 253.69106 259.7565 264.61106 272.52015 276.7638 282.82926 285.86198 293.79289 298.09107 304.15653 310.23289 314.53108 319.38563 324.22929 328.47294 331.50566 336.9602 343.03657">Interimhandlingmethodsadoptedunderthissubsection:</tspan></text>
<text xml:space="preserve" transform="matrix(1 0 -0 1 0 792)" font-size="10.9091" font-family="LMRoman10"><tspan y="-682.74" x="72">&#x2022;</tspan></text>
<text xml:space="preserve" transform="matrix(1 0 -0 1 0 792)" font-size="10.9091" font-family="LMRoman10"><tspan y="-682.74" x="85.94183 91.396389 95.67275 104.16003 110.22549 115.68004 121.7455 125.37823 131.44368 135.72005 140.5746 145.42916 150.2837 156.34917 161.20372 166.97464 171.21828 174.2401 179.69464 182.72737">arenon-precedential,</tspan></text>
<text xml:space="preserve" transform="matrix(1 0 -0 1 0 792)" font-size="10.9091" font-family="LMRoman10"><tspan y="-660.423" x="72">&#x2022;</tspan></text>
<text xml:space="preserve" transform="matrix(1 0 -0 1 0 792)" font-size="10.9091" font-family="LMRoman10"><tspan y="-660.423" x="85.94183 94.723659 100.789119 105.0873 112.97458 119.33459 127.83277 130.8655 133.89823 142.9855 146.01824 150.26187 155.11643 164.81462 169.05826 178.14554 182.38918 188.45464 196.95284 203.0183 208.47284 212.7492 217.02558 222.17467 229.74559 234.60015 238.89833 246.7747 251.07289 255.92745 261.382 267.7529 276.2511 282.31657 287.1711 292.01478 296.86933 301.1675 305.4766 310.93116 315.20753 324.60026 328.8439 337.93119 347.01847 352.47303 355.50575 361.26576 365.5094 370.96397 373.99668 383.70579 389.16035 395.53126 400.3858 404.66218 410.11674 416.1822 419.2149 422.24763 425.26945 429.21855 434.0622">mustbelimitedtothenarrowestscopenecessarytomaintainoperability,</tspan></text>
<text xml:space="preserve" transform="matrix(1 0 -0 1 0 792)" font-size="10.9091" font-family="LMRoman10"><tspan y="-638.107" x="72">&#x2022;</tspan></text>
<text xml:space="preserve" transform="matrix(1 0 -0 1 0 792)" font-size="10.9091" font-family="LMRoman10"><tspan y="-638.107" x="85.94183 94.723659 100.789119 105.0873 112.97458 119.33459 127.83277 130.8655 136.32004 141.77458 147.22913 152.08368 161.78188 167.23642 175.16735 185.17099 190.62554 194.86917 199.72373 204.00009 207.03282 212.48737 219.16374 227.04012 231.89467 236.1383 239.17104 244.62558 250.69104 258.62196 261.65467 268.6365 272.88017 278.94563 283.80018 293.1929 302.28019 307.13475 311.9893 319.86567 324.1093 330.17478 338.66206 348.66569 354.12025 358.3639 363.21846 367.4948 370.52754 375.9821 382.65846 390.53483 395.38938 399.63304 402.66575 408.1203 417.81849 423.88395 428.7385 431.7712 434.80397 440.86943 443.90214 448.14579 451.1785 456.63307 466.34217 469.37489 479.07307 485.13853 489.99308 494.84764 499.09129 502.124 507.57856">mustbeloggedasMaterialActionsiftheymeettheMaterialActiondefinitioninSection</tspan></text>
<text xml:space="preserve" transform="matrix(1 0 -0 1 0 792)" font-size="10.9091" font-family="LMRoman10"><tspan y="-638.107" x="517.27676 522.73129 525.764 531.2185">4.10</tspan></text>
<text xml:space="preserve" transform="matrix(1 0 -0 1 0 792)" font-size="10.9091" font-family="LMRoman10"><tspan y="-638.107" x="536.67306">,</tspan></text>
<text xml:space="preserve" transform="matrix(1 0 -0 1 0 792)" font-size="10.9091" font-family="LMRoman10"><tspan y="-615.791" x="72">&#x2022;</tspan></text>
<text xml:space="preserve" transform="matrix(1.0099504 0 -0 .99014756 0 792)" font-size="11.017651" font-family="LMRoman10"><tspan y="-621.91848" x="85.09329 90.60212 96.727939 101.0138 106.52262 115.70033 121.20916 125.495029 128.55794 133.4608 138.96964 142.03253 145.09545 156.10208 160.38794 165.29079 169.60971 178.78742 181.85033 187.97614 193.48497 197.77083 207.863 213.98882 220.42313 225.93196 237.24709 240.31 246.4358 250.77677 255.06266 260.57148 266.39979 270.68568 273.74858 279.2574 283.54328 286.60618 292.115 303.43009 308.9389 317.4996 321.78547 327.9113 338.01448 342.9173 348.42613 352.74507 357.064 361.96684 366.3078 372.73109 378.2399 384.36573 390.49156 393.55445 399.68028 410.37837 419.55607 422.61897 426.95994 431.3009 434.3638 440.48963 451.19877 454.26167 458.54756 463.43937 472.61705 481.27693 486.17976 491.6996 496.60246 507.91758 510.9805 519.54129 523.8271 529.9529">automaticallyterminateuponinstantiationofthecorrespondingmissingitem,evenifthe</tspan></text>
<text xml:space="preserve" transform="matrix(1 0 -0 1 0 792)" font-size="10.9091" font-family="LMRoman10"><tspan y="-602.242" x="85.94 92.15819 97.61274 103.6782 109.74366 115.80912 121.26367 125.50731 128.54004 133.99459 140.06005 145.51459 152.18006 159.60915 165.6746 171.12915 175.42734 183.92554 188.2019 193.04555 202.13283 207.58737 210.6201 216.68556 224.6274 230.08194 234.9365 239.18013 242.21286 247.66742 256.1547 259.4929 264.94746 272.86747 278.32203 282.56568 288.63114 293.4857 301.39479 304.4275 308.67115 313.5257 322.61299 326.91117">FoundationalPhaseremainsactiveforotheritems.</tspan></text>
<text xml:space="preserve" transform="matrix(.9924717 0 -0 1.0075854 0 792)" font-size="10.826972" font-family="LMRoman10"><tspan y="-571.6041" x="72.139087 83.91883 90.07938 95.49287 101.512668 107.53246 113.55226 118.965747 123.17744 126.18733 131.60083 137.62062 143.03409 149.70352 157.07669 163.09648 168.50997 172.78662 181.26415 186.67763 192.69742 196.90912 202.3226 211.34148 216.75495 220.96665 223.97655 228.79456 234.20804 237.21794 240.22785 249.604 254.42201 260.13868 266.15849 269.16838 273.41255 278.23057 286.16673 292.18653 301.25953 304.2694 309.68293 313.89463 318.71263 326.6163 330.828 336.8478 342.26133 351.95146 355.86 363.3631 368.18113 373.89778 377.8063 383.52296 387.12837 390.4414 395.8549 401.8747 409.7892 414.00093 419.4144 424.8279 432.6991 441.71797 447.13148 452.8481 457.0598 463.07963 471.00495 476.41844 479.7315 483.9432 488.7612 496.67573 502.0892 506.90724 511.11894 514.12887 519.22836 524.6418 528.8535 531.8634 537.2769 543.2967">AFoundationalPhaseautomaticallyexpiresnolaterthantwenty-four(24)monthsafteractivation.</tspan></text>
<text xml:space="preserve" transform="matrix(.9899495 0 -0 1.0101526 0 792)" font-size="10.799458" font-family="LMRoman10"><tspan y="-550.03176" x="72.322879 84.00789 90.14198 95.54171 101.54621 107.55071 113.555217 118.95494 123.15593 126.15818 131.5579 137.5624 142.96213 149.54979 156.90422 162.90872 168.30846 172.56343 180.96541 189.96137 195.0479 204.33542 210.65312 219.0443 223.27768 228.08344 234.08794 238.8937 246.37772 251.18349 260.7842 266.18394 272.18843 275.19068 284.4782 290.16954 299.46788 304.8676 314.45753 321.81196 327.51408 331.71504 335.94844 341.34815 346.74787 350.98124 356.98576 359.988 365.9925 371.3922 375.6256 384.91313 392.26756 396.50096 402.20304 407.0088 411.81455 416.06953 423.9099 428.1109 433.51063 441.351 447.35554 452.16127 455.1635 458.16578 464.18107 468.976 478.57676 481.57899 491.1689 497.1734 501.97917 506.7849 510.98588 513.9881 519.3879">AFoundationalPhasemayberenewedonlybyanExtraordinaryProcess(asdefinedinSection</tspan></text>
<text xml:space="preserve" transform="matrix(.9899495 0 -0 1.0101526 0 792)" font-size="10.799458" font-family="LMRoman10"><tspan y="-550.03176" x="528.9778 534.3775 537.3797">4.6</tspan></text>
<text xml:space="preserve" transform="matrix(.9899495 0 -0 1.0101526 0 792)" font-size="10.799458" font-family="LMRoman10"><tspan y="-550.03176" x="542.7794">)</tspan></text>
<text xml:space="preserve" transform="matrix(1 0 -0 1 0 792)" font-size="10.9091" font-family="LMRoman10"><tspan y="-542.067" x="72 77.45455 83.52001 93.2182 98.67275 104.73821 107.77094 117.17458 120.20731 127.17823 131.42188 137.48734 145.97463 150.25099 155.10555 161.171 166.02556 173.60739 179.06194 185.7274 190.00377 194.85832 199.71288 205.16742 209.44379 215.50925">andonlyiftherenewalrecord:</tspan></text>
<text xml:space="preserve" transform="matrix(1 0 -0 1 0 792)" font-size="10.9091" font-family="LMRoman10"><tspan y="-515.766" x="72">&#x2022;</tspan></text>
<text xml:space="preserve" transform="matrix(1 0 -0 1 0 792)" font-size="10.9091" font-family="LMRoman10"><tspan y="-515.766" x="85.94183 88.97456 95.04002 99.89458 105.65458 109.89822 112.93095 115.96368 118.99641 123.85095 131.79279 136.64734 142.10189 146.65099 156.34918 160.62555 165.4801 174.56739 180.02193 183.05466 189.12012 192.15285 198.2183 207.30559 216.39287 219.4256 223.72379 228.02198 231.0547 237.12017 246.21836 249.25109 253.49472 258.34928 267.43656">identifieseachremainingmissingitem,</tspan></text>
<text xml:space="preserve" transform="matrix(1 0 -0 1 0 792)" font-size="10.9091" font-family="LMRoman10"><tspan y="-493.449" x="72">&#x2022;</tspan></text>
<text xml:space="preserve" transform="matrix(1 0 -0 1 0 792)" font-size="10.9091" font-family="LMRoman10"><tspan y="-493.449" x="85.94183 90.79639 96.55639 102.62185 105.65458 111.10913 114.14186 120.20732 128.13825 136.01462 141.78554 151.17829 154.21102 160.27648 164.57466 168.8183 174.27285 180.03285 184.27649 187.30922 192.76377 197.0074 200.04013 205.49468 215.20378 221.26924 226.72379 234.65471 240.72017 246.17472 254.05109 259.8111 264.66566 269.5202 275.58567 279.86204 284.1384 288.99296 295.0584">explainswhyinstantiationhasnotoccurred,</tspan></text>
<text xml:space="preserve" transform="matrix(1 0 -0 1 0 792)" font-size="10.9091" font-family="LMRoman10"><tspan y="-471.133" x="72">&#x2022;</tspan></text>
<text xml:space="preserve" transform="matrix(1 0 -0 1 0 792)" font-size="10.9091" font-family="LMRoman10"><tspan y="-471.133" x="85.94183 92.00729 97.461849 101.73821 106.01458 111.16367 119.04005 126.98187 130.0146 135.77462 140.01825 144.8728 149.14917 152.1819 164.90192 170.96738 176.42192 182.48738 188.55284 191.58557 194.6183 200.68376 209.78195 214.08014 218.9347 224.38924 230.74924 239.24744 247.12381 253.18927 258.04383 262.3202 270.80747 277.17839 282.63294 286.93113 291.2293 294.26203 300.32749 303.3602 308.21476 314.8802 320.33476 326.4002">narrowsinterimhandlingscopewherepossible,and</tspan></text>
<text xml:space="preserve" transform="matrix(1 0 -0 1 0 792)" font-size="10.9091" font-family="LMRoman10"><tspan y="-448.817" x="72">&#x2022;</tspan></text>
<text xml:space="preserve" transform="matrix(1 0 -0 1 0 792)" font-size="10.9091" font-family="LMRoman10"><tspan y="-448.817" x="85.94183 90.24002 95.094577 99.33821 107.26913 116.36732 122.43278 127.28732 138.79644 141.82917 144.8619 150.6219 155.47646 165.17465 170.0292 175.78922 181.85468 184.8874 189.16378 194.61832 198.86196 201.89469 207.34923 217.05834 223.1238 228.57834 232.82198 241.30927 247.37473 252.82927 260.70564 265.56019 271.3202 276.17475 281.0293 285.88386 291.9493 294.98204 301.0475 310.1457 314.0839 321.65483 326.50938 329.54209 334.99665 343.49485 347.7385 353.19306 358.6476 366.524 375.61128 381.06584 386.82585 391.0695 397.13496 401.43315">setsanewfixedexpirationdatenotexceedingtwelve(12)months.</tspan><tspan y="-422.51499" x="72 82.00365 88.06911 92.312747 97.767299 103.832759 106.865489 109.89822 112.93095 116.869129 122.62913 130.5164 138.5455 143.40006 149.16007 152.1928 156.49098 161.94553 168.01099 171.04372 179.531 184.98555 191.05101 194.08374 203.47649 209.2474 218.64015 226.06925 231.82926 236.07289 240.34926 245.8038 251.25835 255.53472 261.60017 264.63288 270.69834 276.1529 280.42927 289.822 297.2511 301.52748 307.28749 312.14204 316.99659 321.29478">Mutability:RevisableonlybyExtraordinaryProcess</tspan></text>
<text xml:space="preserve" transform="matrix(1 0 -0 1 0 792)" font-size="14.3462" font-family="LMRoman12" font-weight="bold"><tspan y="-388.14698" x="72 80.07691">15</tspan></text>
<text xml:space="preserve" transform="matrix(1 0 -0 1 0 792)" font-size="14.3462" font-family="LMRoman12" font-weight="bold"><tspan y="-388.14698" x="100.26202 106.27307 114.78037 121.06401 128.43796 135.03722 144.00359 150.60285 157.96245 164.24608 172.09345 178.37708 182.86743 190.94434">Interpretation</tspan></text>
<text xml:space="preserve" transform="matrix(1 0 -0 1 0 792)" font-size="10.9091" font-family="LMRoman10"><tspan y="-363.79798" x="71.607 79.483379 85.548839 88.581569 96.51248 102.57794 108.33795 113.192508 119.257968 128.34525 133.1998 138.95981 146.84709 155.62892 161.69438 165.99257 173.86894 180.23986 188.73805 191.77079 197.53079 201.77443 206.62899 210.90535 216.97081 221.24718 226.10173 230.34537 235.19992 244.89812 250.96358 256.41813 260.6945 264.97087 270.11997 277.99635 281.02906 285.8836 293.75996 304.97453 311.03999 315.89454 320.1709 328.6691 334.12367 342.9055 348.97096 352.00367 357.45823 363.52369 366.5564 370.4946 379.88734 384.74189 390.5019 393.5346 397.8328 402.07646 406.37464 413.051 416.0837 421.84373 426.08738 430.94194 435.2183 441.28376 445.56013 450.41468 454.65834 460.11289 464.35655 467.38926 472.8438 482.542 491.32383 497.38929 501.68748 509.57478 512.91299 518.062 523.51657 528.97109 533.24746">Thisdocumentmustbeinterpretednarrowly.Whereambiguityexists,interpretationmustfavor:</tspan></text>
<text xml:space="preserve" transform="matrix(1 0 -0 1 0 792)" font-size="10.9091" font-family="LMRoman10"><tspan y="-337.49598" x="72">&#x2022;</tspan></text>
<text xml:space="preserve" transform="matrix(1 0 -0 1 0 792)" font-size="10.9091" font-family="LMRoman10"><tspan y="-337.49598" x="85.94183 95.94548 98.97821 103.2764 107.574588 110.607318 116.06187 125.760059 131.82552 136.10189 140.95644 145.25463 150.10918 154.38555 159.54555 165.00009 169.24373 172.27646 177.731">Missionpreservation</tspan></text>
<text xml:space="preserve" transform="matrix(1 0 -0 1 0 792)" font-size="10.9091" font-family="LMRoman10"><tspan y="-315.17997" x="72">&#x2022;</tspan></text>
<text xml:space="preserve" transform="matrix(1 0 -0 1 0 792)" font-size="10.9091" font-family="LMRoman10"><tspan y="-315.17997" x="85.94183 94.12366 99.57821 105.64367 109.2764 114.13095 119.89095 125.95641 128.98914 134.44368 137.47641 141.72005 147.17459 151.41823 154.45096 159.9055">Non-exploitation</tspan></text>
<text xml:space="preserve" transform="matrix(1 0 -0 1 0 792)" font-size="10.9091" font-family="LMRoman10"><tspan y="-292.86396" x="72">&#x2022;</tspan></text>
<text xml:space="preserve" transform="matrix(1 0 -0 1 0 792)" font-size="10.9091" font-family="LMRoman10"><tspan y="-292.86396" x="85.5491 92.52002 96.79639 102.25094 108.3164 112.614589 118.680049 124.1346 128.41097 133.26552 139.33098 144.18553">Transparency</tspan><tspan y="-266.56196" x="72 80.18182 89.269107 92.301837 98.07275 102.31638 107.17093 111.436389 117.51276 121.78912 126.63277 130.8764 136.33095 140.57459 143.60732 149.06186 158.77097 167.85825 173.00734 182.40009 187.25464 193.01465 199.08011 204.53466 210.60012 220.30922 225.76377 231.82923 236.07286 242.13832 247.59287 251.86923 254.90196 258.84016 268.23289 274.6038 279.45835 284.9129 290.36747 296.43293 306.14204 314.0184 320.08387 325.53843 333.4148 336.4475 344.38935 349.233 354.993 361.06938 364.10209 367.1239 371.97846 375.01118 379.25483 382.28755 391.6912 397.14576 401.42213 406.87669 412.6367 416.88035 421.7349 427.80036">Nointerpretationmayexpandauthoritybeyondwhatisexplicitlygranted.</tspan><tspan y="-246.23896" x="72 82.00365 88.06911 92.312747 97.767299 103.832759 106.865489 109.89822 112.93095 116.869129 122.62913 130.5164 138.69823 144.76369 149.31279 155.37825 160.8328 166.89826 172.3528 177.20735 182.6619 188.72736 191.76009">Mutability:Unchangeable</tspan></text>
<text xml:space="preserve" transform="matrix(1 0 -0 1 0 792)" font-size="11.9552" font-family="LMRoman12" font-weight="bold"><tspan y="-217.02996" x="72 78.73078 85.46156 89.203548">15.1</tspan></text>
<text xml:space="preserve" transform="matrix(1 0 -0 1 0 792)" font-size="11.9552" font-family="LMRoman12" font-weight="bold"><tspan y="-217.02996" x="106.02451 111.033748 118.12318 123.35956 129.50452 135.0039 142.4759 147.9753 154.1083 159.34468 165.88417 171.12055 174.86252 181.59329 193.5485 202.89746 206.63944 212.77245 217.25565 226.81981 232.3192 238.45221 244.9917 256.5763 265.76985 271.26924 278 283.2364 290.33778 296.31538 303.04615">InterpretationTie-BreakProtocol</tspan></text>
<text xml:space="preserve" transform="matrix(1.0099504 0 -0 .99014756 0 792)" font-size="11.017651" font-family="LMRoman10"><tspan y="-198.39165" x="71.290637 75.268009 82.59475 86.57212 94.229389 103.69356 109.20238 117.465618 126.643329 132.15215 136.47107 145.32927 148.39217 154.22052 158.50638 163.40923 167.72815 173.85396 178.17288 183.07575 187.3616 192.87044 197.1563 200.2192 205.72803 211.85384 220.13912 225.64795 232.97469 242.43886 248.56467 252.88358 258.08393 263.90126 266.96415 271.3051 274.368 279.87684 289.95799 294.27693 299.17976 308.35746 313.86628 316.92918 327.0103 333.13615 336.19905 341.70787 347.83366 352.17463 355.23753 361.36335 364.42625 373.27345 378.78224 382.15364 386.4395 391.34236 399.6166 405.12544 411.25126 417.37705 420.43998 426.2573 429.3202 435.446 444.91017 451.03599 454.09889 459.6077 462.6706 472.74076 481.91844 486.8213 492.3301 498.4559 501.51884 507.64466 517.1088 522.6177 528.74349">Iftwoormoreinterpretationsofaprovisionremainplausibleafterapplyingplainmeaningand</tspan></text>
<text xml:space="preserve" transform="matrix(1 0 -0 1 0 792)" font-size="10.9091" font-family="LMRoman10"><tspan y="-182.888" x="72 76.85455 82.309108 88.06911 92.312747 97.1673 102.9273 107.17094 113.2364 118.69095 125.36732 129.63277 134.48732 139.94187 146.00733 149.04006 155.11643 160.57097 167.23644 171.48007 177.54553 186.03282 189.371 194.82555 197.85828 200.891 206.0401 213.91648 216.9492 223.01467 232.11286 236.35649 239.38922 244.24378 247.87651 253.94197 258.21833 263.07289 268.52745 277.92018 283.98564 287.01835 291.8729 296.14927 301.60383 305.8802 310.4293 316.1893 325.59297 334.3748 340.44026 344.73844 352.6148 358.98573 367.473 372.92756 378.993 385.06938 388.10209 391.1239 395.97846 405.68757 408.72029 418.41847 423.87303 428.14939 434.21485 439.0694 443.34577">contextualreading,thefollowingtie-breakhierarchymustbeappliedinorder:</tspan></text>
<text xml:space="preserve" transform="matrix(1 0 -0 1 0 792)" font-size="10.9091" font-family="LMRoman10"><tspan y="-156.586" x="72">&#x2022;</tspan></text>
<text xml:space="preserve" transform="matrix(1 0 -0 1 0 792)" font-size="10.9091" font-family="LMRoman10"><tspan y="-156.586" x="85.94183 90.18547 96.25093 104.73821 107.77094 113.541858 117.78549 122.640048 126.9055 132.98188 137.25824 142.10189 146.34552 151.80007 156.0437 159.07643 164.53098 174.24008 178.48372 184.54918 190.00373 197.8801 204.251 209.10556 213.40375 221.28012 227.34558 231.62195 236.4765 240.77469 245.62924 249.90561 255.37108 260.21473 268.15657 277.24385 280.27656 284.57475 288.87294 291.90565 297.3602 307.05839 310.0911 315.862 320.10566 324.9493 330.40388 334.68025 337.71296 341.66206">theinterpretationthatbestpreservesmissionintegrity</tspan></text>
<text xml:space="preserve" transform="matrix(1 0 -0 1 0 792)" font-size="10.9091" font-family="LMRoman10"><tspan y="-134.27" x="72">&#x2022;</tspan></text>
<text xml:space="preserve" transform="matrix(1 0 -0 1 0 792)" font-size="10.9091" font-family="LMRoman10"><tspan y="-134.27" x="85.94183 90.18547 96.25093 104.73821 107.77094 113.541858 117.78549 122.640048 126.9055 132.98188 137.25824 142.10189 146.34552 151.80007 156.0437 159.07643 164.53098 174.24008 178.48372 184.54918 190.00373 197.8801 206.96738 210.0001 216.06557 219.0983 228.18558 231.2183 236.07286 240.92742 248.85834 255.22925 260.6838 264.92747 269.782 275.54203 279.78569 282.8184 288.27296 294.9493 301.01478 306.46934 310.7457 323.4657 327.70936 336.79664 344.37846 349.233 352.26573 355.6039 361.05848 365.33485 373.8221 379.27668 385.34214 395.0403 401.10578 404.1385 409.59306 415.6585 418.69123 422.64033">theinterpretationthatminimizespotentialharmtowelfareanddignity</tspan></text>
<text xml:space="preserve" transform="matrix(1 0 -0 1 0 792)" font-size="10.9091" font-family="LMRoman10"><tspan y="-111.953" x="72">&#x2022;</tspan></text>
<text xml:space="preserve" transform="matrix(1 0 -0 1 0 792)" font-size="10.9091" font-family="LMRoman10"><tspan y="-111.953" x="85.94183 90.18547 96.25093 104.73821 107.77094 113.541858 117.78549 122.640048 126.9055 132.98188 137.25824 142.10189 146.34552 151.80007 156.0437 159.07643 164.53098 174.24008 178.48372 184.54918 190.00373 197.8801 200.91283 210.0001 216.37102 221.82556 226.12375 230.9783 238.90923 243.15287 249.21833 257.71653 263.78199 269.23655 273.5129 277.78929 282.9384 290.5093 295.36387 299.66206 307.53843 312.99299 317.26936 322.7239 328.4948 336.3712 341.82575 348.79667 354.25123 360.31669 364.56034 370.6367 376.09126 380.35673 383.38945 387.33854">theinterpretationthatimposesthenarrowestgrantofauthority</tspan></text>
<text xml:space="preserve" transform="matrix(1 0 -0 1 0 792)" font-size="10.9091" font-family="LMRoman10"><tspan y="-89.637" x="72">&#x2022;</tspan></text>
<text xml:space="preserve" transform="matrix(1 0 -0 1 0 792)" font-size="10.9091" font-family="LMRoman10"><tspan y="-89.637" x="85.94183 90.18547 96.25093 104.73821 107.77094 113.541858 117.78549 122.640048 126.9055 132.98188 137.25824 142.10189 146.34552 151.80007 156.0437 159.07643 164.53098 174.24008 178.48372 184.54918 190.00373 197.8801 203.94556 208.22193 213.07648 217.37467 222.22922 226.50559 231.96015 236.8147 244.75653 249.00017 255.06563 263.5529 269.00746 273.2838 278.13838 283.59294 287.83659 292.69114 296.98933 304.8657 310.6366 316.70207 325.4839 331.8548 336.70936 344.61845 350.073 357.0439 365.22575 371.2912 375.8403 381.91667 387.37123 393.43669 398.89125 403.7458 409.20036 415.2658 418.29853 426.7858 431.64036 437.0949 443.16038 447.45857 451.7022 455.97859 461.43315 464.46586 470.22587 474.4695">theinterpretationthatpreservesthegreatestnumberofUnchangeableconstraints</tspan></text>
<text xml:space="preserve" transform="matrix(1 0 -0 1 0 792)" font-size="10.9091" font-family="LMRoman10"><tspan y="-42.112" x="300.54499 305.99955">45</tspan></text>
</svg>
