<svg xmlns="http://www.w3.org/2000/svg" xmlns:xlink="http://www.w3.org/1999/xlink" xmlns:inkscape="http://www.inkscape.org/namespaces/inkscape" version="1.1" width="612" height="792" viewBox="0 0 612 792">
<text xml:space="preserve" transform="matrix(1 0 -0 1 0 792)" font-size="10.9091" font-family="LMRoman10"><tspan y="-709.041" x="72">&#x2022;</tspan></text>
<text xml:space="preserve" transform="matrix(1 0 -0 1 0 792)" font-size="10.9091" font-family="LMRoman10"><tspan y="-709.041" x="85.94183 92.00729 96.86185 102.92731 108.38186 112.625499 115.658229 121.11278 130.81098 136.26552 144.18553 149.04009 155.10555 159.34918 165.41464 170.86919 176.93465 182.38919 186.68738 189.72011 195.17465">Sedationoreuthanasia.</tspan></text>
<text xml:space="preserve" transform="matrix(1 0 -0 1 0 792)" font-size="10.9091" font-family="LMRoman10"><tspan y="-686.72506" x="72">&#x2022;</tspan></text>
<text xml:space="preserve" transform="matrix(1 0 -0 1 0 792)" font-size="10.9091" font-family="LMRoman10"><tspan y="-686.72506" x="85.94183 89.88002 94.15639 98.432758 103.28731 108.74185 113.596408 117.87277 122.17096 125.20369 131.26915 134.30188 142.78917 151.87645 156.731 162.79647 165.8292 170.68375 176.13829 182.81467 188.88013 193.73468 198.58924 201.62197 205.92015 208.95288 214.40743 220.47289 224.77108">Irreversiblemedicaldecisions.</tspan></text>
<text xml:space="preserve" transform="matrix(1 0 -0 1 0 792)" font-size="10.9091" font-family="LMRoman10" font-weight="bold"><tspan y="-660.42306" x="72 78.97092 83.84728 90.12002 101.26912 110.33458 116.607318 123.57823 130.54915 134.02915 138.90552 142.38552 148.65825 155.62917">StopCondition:</tspan></text>
<text xml:space="preserve" transform="matrix(1 0 -0 1 0 792)" font-size="10.9091" font-family="LMRoman10"><tspan y="-660.42306" x="163.96372 172.14554 178.211 181.24373 190.33101 195.78556 202.45102 206.7492 210.99285 216.44739 222.51285 225.54558 228.57831 231.61104 236.46559 241.32015 251.02925 256.4838 264.39289 268.63655 272.9129 278.36747 284.43293 288.7311 292.0693 296.92387 301.20024 305.4766 310.33116 320.02934 324.27299 333.3712 339.1312 345.19667 350.6512 353.68394 356.71665 359.74937 362.7821 367.63667 377.33485 382.1894 387.64396 391.92033 396.77488">Animalstabilizedortransferredtoqualifiedcare.</tspan></text>
<text xml:space="preserve" transform="matrix(1 0 -0 1 0 792)" font-size="10.9091" font-family="LMRoman10" font-weight="bold"><tspan y="-640.10006" x="72 83.912738 90.010929 96.63275 100.112758 110.214588 117.1855 131.8146 140.06189 146.68372 153.65464 157.13463 162.30554 168.40373 173.2801 176.7601 183.03284 190.00376">MaximumExpiration:</tspan></text>
<text xml:space="preserve" transform="matrix(1 0 -0 1 0 792)" font-size="10.9091" font-family="LMRoman10"><tspan y="-640.10006" x="198.3383 204.55649 210.01103 216.07649 223.9856 228.22924 233.68378 241.56015 247.62561 253.08016 259.1456 263.42198 267.72016">Four(4)hours.</tspan></text>
<text xml:space="preserve" transform="matrix(1 0 -0 1 0 792)" font-size="11.9552" font-family="LMRoman12" font-weight="bold"><tspan y="-610.89108" x="72 78.73078 82.47276">9.6</tspan></text>
<text xml:space="preserve" transform="matrix(1 0 -0 1 0 792)" font-size="11.9552" font-family="LMRoman12" font-weight="bold"><tspan y="-610.89108" x="99.29373 108.11667 112.59987 119.33065 126.06143 137.2754 146.2418 154.69414 158.43611 163.9355 170.06851 178.29369 185.76569 196.97966 203.71044 210.44123 216.57424 224.79941 231.53018 241.51277 250.33571 257.4371 264.90913 268.6511 275.38188 280.68998 284.43196 291.16273 303.11793 313.14836 316.89033 322.19844">E-010-Fire,Smoke,orExplosionRisk</tspan></text>
<text xml:space="preserve" transform="matrix(.9899495 0 -0 1.0101526 0 792)" font-size="10.799458" font-family="LMRoman10" font-weight="bold"><tspan y="-584.3651" x="72.28751 79.86874 84.987689 88.43271 94.642398 100.85208 106.5434 115.83093 122.73179 127.55914 133.59604 140.49689 147.39775 153.43465 158.55359 165.45444">TriggerStandard:</tspan></text>
<text xml:space="preserve" transform="matrix(.9899495 0 -0 1.0101526 0 792)" font-size="10.799458" font-family="LMRoman10"><tspan y="-584.3651" x="173.77002 181.86962 184.87187 189.12685 192.1291 198.1336 201.13585 209.57022 213.82521 222.82115 228.22089 233.6098 242.04419 247.44393 255.29512 258.29737 261.2996 266.69935 275.69529 280.50105 287.1427 292.54246 295.54469 300.94444 305.167 317.7916 323.1913 327.99708 332.19807 335.2003 340.28684 345.68659 349.88755 352.8898 358.28953 367.92268 375.71989 378.7221 382.9231 392.5454 397.35118 402.7509 406.98426 411.21763 416.61738 422.92427 428.32398 432.55735 437.95707 442.15806 445.1603 450.56004 456.5645 463.2062 468.60594 476.45713 481.26286 485.49626 490.30198 496.3065 499.30873 505.31324 508.3155 516.739 520.9725 525.7782 532.0959 537.4956 541.729">Visiblesmokeorflame,alarmactivationwithcorroboration,orcrediblereport</tspan></text>
<text xml:space="preserve" transform="matrix(1 0 -0 1 0 792)" font-size="10.9091" font-family="LMRoman10"><tspan y="-576.748" x="72 77.45455 84.42547 87.4582 90.49093 94.767299 103.26548 107.54185 110.57458 114.872768 120.63277">offirerisk.</tspan></text>
<text xml:space="preserve" transform="matrix(1 0 -0 1 0 792)" font-size="10.9091" font-family="LMRoman10" font-weight="bold"><tspan y="-556.425" x="72 80.225467 85.974559 91.14547 101.59639 105.07639 109.95276 114.829128 120.57822 131.72733 140.85825 146.4328 151.30918 154.80008 161.07282 168.04373 172.99646">PermittedActions:</tspan></text>
<text xml:space="preserve" transform="matrix(1 0 -0 1 0 792)" font-size="10.9091" font-family="LMRoman10"><tspan y="-530.123" x="72">&#x2022;</tspan></text>
<text xml:space="preserve" transform="matrix(1 0 -0 1 0 792)" font-size="10.9091" font-family="LMRoman10"><tspan y="-530.123" x="85.53819 93.41456 98.269107 102.51274 105.54547 110.705478 116.16003 120.40366 128.89095 134.34549 137.37822 142.83277 147.10913 156.19641 164.12734 169.58188 175.64734 185.35645 190.211 195.66555 201.42555 205.66919 211.12374 215.97829 223.85466 226.88739 229.92012 234.19649 242.68378 246.98197 251.83652 256.11289 261.8729 264.9056 269.76017 274.61473 278.9129">Activatealarmsandcontactfireservices.</tspan></text>
<text xml:space="preserve" transform="matrix(1 0 -0 1 0 792)" font-size="10.9091" font-family="LMRoman10"><tspan y="-507.80699" x="72">&#x2022;</tspan></text>
<text xml:space="preserve" transform="matrix(1 0 -0 1 0 792)" font-size="10.9091" font-family="LMRoman10"><tspan y="-507.80699" x="85.94183 93.37093 98.52003 103.97458 108.82913 114.89459 120.349147 124.59278 133.09098 138.54552 141.72553 144.90552 149.76007 154.61463 158.85826 163.71282 173.41101 178.26557 183.72011 189.78557 194.64012 198.93831">Evacuateaffectedzones.</tspan></text>
<text xml:space="preserve" transform="matrix(1 0 -0 1 0 792)" font-size="10.9091" font-family="LMRoman10"><tspan y="-485.49098" x="72">&#x2022;</tspan></text>
<text xml:space="preserve" transform="matrix(1 0 -0 1 0 792)" font-size="10.9091" font-family="LMRoman10"><tspan y="-485.49098" x="85.94183 94.12366 98.421848 106.90913 109.94186 112.97459 117.25095 125.74914 130.60369 136.3637 140.60733 143.64006 149.70552 155.16007 161.22553 164.25826 168.55644 174.6219 179.47646 183.75283 191.68375 197.13829 203.20375 206.23648 215.62923 218.66196 225.64379 229.88742 234.16379 239.61833 242.65106 248.71652 253.57108 263.26927 268.72383 274.78929 284.48747 288.79655 294.2511 297.5893 302.44386">Usefireextinguishersonlyiftrainedandsafe.</tspan></text>
<text xml:space="preserve" transform="matrix(1 0 -0 1 0 792)" font-size="10.9091" font-family="LMRoman10" font-weight="bold"><tspan y="-459.18898" x="72 78.850917 85.12365 90.29456 97.26548 100.74548 107.7164 114.68732 120.43641 131.59642 140.72734 146.3019 151.17827 154.65827 160.931 167.90192 172.85465">ForbiddenActions:</tspan></text>
<text xml:space="preserve" transform="matrix(1 0 -0 1 0 792)" font-size="10.9091" font-family="LMRoman10"><tspan y="-432.88798" x="72">&#x2022;</tspan></text>
<text xml:space="preserve" transform="matrix(1 0 -0 1 0 792)" font-size="10.9091" font-family="LMRoman10"><tspan y="-432.88798" x="85.94183 93.97093 98.825489 102.45821 107.31276 113.07276 117.3164 121.592769 130.99642 138.87279 141.8946 146.13825 152.21462 157.66916 163.73462 171.611 176.46555 179.49828 184.35283 189.80738 194.08374 199.53829 205.60375 210.4583 215.31285">Re-entrywithoutclearance.</tspan></text>
<text xml:space="preserve" transform="matrix(1 0 -0 1 0 792)" font-size="10.9091" font-family="LMRoman10"><tspan y="-410.57197" x="72">&#x2022;</tspan></text>
<text xml:space="preserve" transform="matrix(1 0 -0 1 0 792)" font-size="10.9091" font-family="LMRoman10"><tspan y="-410.57197" x="85.94183 94.27638 97.30911 101.6073 107.06185 113.12731 116.16004 119.19277 125.25823 134.34552 139.80007 142.8328 148.28734 152.5637 161.65099 165.94918">Disablingalarms.</tspan></text>
<text xml:space="preserve" transform="matrix(1 0 -0 1 0 792)" font-size="10.9091" font-family="LMRoman10"><tspan y="-388.25498" x="72">&#x2022;</tspan></text>
<text xml:space="preserve" transform="matrix(1 0 -0 1 0 792)" font-size="10.9091" font-family="LMRoman10"><tspan y="-388.25498" x="85.94183 89.88002 98.9673 105.03276 109.30913 114.45822 120.21822 123.25095 127.54914 132.40369 142.1128 146.38916 151.24372 157.30918 162.76372 165.79645 170.0619 174.371">Improvisedrepairs.</tspan></text>
<text xml:space="preserve" transform="matrix(1 0 -0 1 0 792)" font-size="10.9091" font-family="LMRoman10" font-weight="bold"><tspan y="-361.95399" x="72 78.97092 83.84728 90.12002 101.26912 110.33458 116.607318 123.57823 130.54915 134.02915 138.90552 142.38552 148.65825 155.62917">StopCondition:</tspan></text>
<text xml:space="preserve" transform="matrix(1 0 -0 1 0 792)" font-size="10.9091" font-family="LMRoman10"><tspan y="-361.95399" x="163.96372 171.08736 174.12009 178.39646 186.88375 192.33829 198.40375 202.64739 208.71285 214.16739 218.44376 221.47649 225.41468 234.81833 239.67288 242.70561 247.56017 253.01471 257.29109 262.74565 268.8111 273.66566 278.5202">Fireauthorityclearance.</tspan></text>
<text xml:space="preserve" transform="matrix(1 0 -0 1 0 792)" font-size="10.9091" font-family="LMRoman10" font-weight="bold"><tspan y="-341.62998" x="72 83.912738 90.010929 96.63275 100.112758 110.214588 117.1855 131.8146 140.06189 146.68372 153.65464 157.13463 162.30554 168.40373 173.2801 176.7601 183.03284 190.00376">MaximumExpiration:</tspan></text>
<text xml:space="preserve" transform="matrix(1 0 -0 1 0 792)" font-size="10.9091" font-family="LMRoman10"><tspan y="-341.62998" x="198.3383 204.55649 210.01103 216.07649 223.9856 228.22924 233.68378 241.56015 247.62561 253.08016 259.1456 263.42198 267.72016">Four(4)hours.</tspan></text>
<text xml:space="preserve" transform="matrix(1 0 -0 1 0 792)" font-size="11.9552" font-family="LMRoman12" font-weight="bold"><tspan y="-312.42097" x="72 78.73078 82.47276">9.7</tspan></text>
<text xml:space="preserve" transform="matrix(1 0 -0 1 0 792)" font-size="11.9552" font-family="LMRoman12" font-weight="bold"><tspan y="-312.42097" x="99.29373 108.11667 112.59987 119.33065 126.06143 137.2754 146.2418 156.81021 163.3497 173.141 181.22272 187.35573 193.89522 205.47982 212.21059 222.19318 229.66518 237.13718 242.44528 250.28789 256.4209 262.3985 267.6349 273.7679 285.72315 296.29154 302.83103">E-011-GasLeakorSuspectedGas</tspan></text>
<text xml:space="preserve" transform="matrix(1 0 -0 1 0 792)" font-size="10.9091" font-family="LMRoman10" font-weight="bold"><tspan y="-291.82798" x="71.561 79.241008 84.41192 87.89192 94.16466 100.43739 106.186489 115.54649 122.51741 127.393779 133.49196 140.46288 147.43379 153.53199 158.7029 165.67382">TriggerStandard:</tspan></text>
<text xml:space="preserve" transform="matrix(1 0 -0 1 0 792)" font-size="10.9091" font-family="LMRoman10"><tspan y="-291.82798" x="173.99745 182.48473 188.55019 194.00473 201.91384 207.36838 214.3502 219.80475 225.2593 229.55748 236.22295 242.2884 247.14296 251.3866 256.24116 261.0957 265.33937 270.7939 278.703 284.15757 287.19029 292.64485 296.9212 306.00849 312.68486 318.1394 326.0485 330.90306 335.1794 340.03398 346.09944 349.13215 355.1976 358.23033 366.7176 370.99397 375.8485 382.21943 387.67399 391.95036 396.194">Odorofgas,detectoralarm,orcrediblereport.</tspan></text>
<text xml:space="preserve" transform="matrix(1 0 -0 1 0 792)" font-size="10.9091" font-family="LMRoman10" font-weight="bold"><tspan y="-271.50398" x="72 80.225467 85.974559 91.14547 101.59639 105.07639 109.95276 114.829128 120.57822 131.72733 140.85825 146.4328 151.30918 154.80008 161.07282 168.04373 172.99646">PermittedActions:</tspan></text>
<text xml:space="preserve" transform="matrix(1 0 -0 1 0 792)" font-size="10.9091" font-family="LMRoman10"><tspan y="-245.20298" x="72">&#x2022;</tspan></text>
<text xml:space="preserve" transform="matrix(1 0 -0 1 0 792)" font-size="10.9091" font-family="LMRoman10"><tspan y="-245.20298" x="85.94183 93.37093 98.52003 103.97458 108.82913 114.89459 120.349147 124.59278 133.09098 138.54552 141.72553 144.90552 149.76007 154.61463 158.85826 163.71282 173.41101 178.26557 183.72011 189.78557 194.64012 198.93831">Evacuateaffectedzones.</tspan></text>
<text xml:space="preserve" transform="matrix(1 0 -0 1 0 792)" font-size="10.9091" font-family="LMRoman10"><tspan y="-222.88698" x="72">&#x2022;</tspan></text>
<text xml:space="preserve" transform="matrix(1 0 -0 1 0 792)" font-size="10.9091" font-family="LMRoman10"><tspan y="-222.88698" x="85.94183 93.97093 98.825489 103.12367 107.36731 111.64368 114.67641 119.53096 127.407329 132.86188 137.71643 142.57099 147.42554 151.72373 159.66556 165.73102 170.0292 173.06194 179.1274 188.21468 194.28014 199.73468 204.01105 208.28742 211.32015 216.1747 221.62924 227.6947 232.54926 240.48018 245.93473 253.85474 258.15293 261.18565 266.6402 272.70567 278.16023 283.61479 288.46934">Restrictaccessusingbarricadesorsignage.</tspan></text>
<text xml:space="preserve" transform="matrix(1 0 -0 1 0 792)" font-size="10.9091" font-family="LMRoman10"><tspan y="-200.56998" x="72">&#x2022;</tspan></text>
<text xml:space="preserve" transform="matrix(1 0 -0 1 0 792)" font-size="10.9091" font-family="LMRoman10"><tspan y="-200.56998" x="85.94183 93.81821 99.27276 105.03276 109.2764 114.73095 119.585498 127.47277 133.53823 137.78186 140.81459 143.84732 146.88005 150.81824 160.21099 165.06554 174.15282 179.00737 183.28374 188.73828 193.59284 199.6583 204.51285 213.9056 218.20378 223.05834 227.3347 233.09471 236.12744 240.982 245.83655 253.76747 259.22203 265.29838 274.99656 278.02928 281.062 285.33839 293.82566 299.8911 304.74568 310.81114 316.2657 320.54206 324.7857 333.873 338.72755 344.48756 348.7312">Contactutilityemergencyservicesandfiredepartment.</tspan></text>
<text xml:space="preserve" transform="matrix(1 0 -0 1 0 792)" font-size="10.9091" font-family="LMRoman10" font-weight="bold"><tspan y="-174.26898" x="72 78.850917 85.12365 90.29456 97.26548 100.74548 107.7164 114.68732 120.43641 131.59642 140.72734 146.3019 151.17827 154.65827 160.931 167.90192 172.85465">ForbiddenActions:</tspan></text>
<text xml:space="preserve" transform="matrix(1 0 -0 1 0 792)" font-size="10.9091" font-family="LMRoman10"><tspan y="-147.96799" x="72">&#x2022;</tspan></text>
<text xml:space="preserve" transform="matrix(1 0 -0 1 0 792)" font-size="10.9091" font-family="LMRoman10"><tspan y="-147.96799" x="85.94183 89.88002 95.33457 101.40003 104.43276 108.6764 111.70913 117.16368 126.86187 131.16005 136.6146 142.68006 146.95642 151.81098 156.66553 160.96372">Ignitionsources.</tspan></text>
<text xml:space="preserve" transform="matrix(1 0 -0 1 0 792)" font-size="10.9091" font-family="LMRoman10"><tspan y="-125.650989" x="72">&#x2022;</tspan></text>
<text xml:space="preserve" transform="matrix(1 0 -0 1 0 792)" font-size="10.9091" font-family="LMRoman10"><tspan y="-125.650989" x="85.94183 93.97093 98.825489 104.890949 110.3455 113.37823 117.654598 125.58551 131.04006 138.96007 141.9928 147.7528 153.20737 158.06192 162.3601 166.60375 169.63648 175.09102 180.54557 184.7892 187.82193 193.27648 202.97467 209.34558 214.20014 219.6547 225.10924 231.1747 240.8838 245.12744 249.40381 254.85836 257.89109 263.95655 268.8111 278.50929 283.05839 289.12385 293.9784 298.5384 304.2984 307.32023 310.35295 314.66203 318.90568 323.20387">Repairsorinvestigationbeyondtrainedchecklists.</tspan></text>
<text xml:space="preserve" transform="matrix(1 0 -0 1 0 792)" font-size="10.9091" font-family="LMRoman10" font-weight="bold"><tspan y="-99.34998" x="72 78.97092 83.84728 90.12002 101.26912 110.33458 116.607318 123.57823 130.54915 134.02915 138.90552 142.38552 148.65825 155.62917">StopCondition:</tspan></text>
<text xml:space="preserve" transform="matrix(1 0 -0 1 0 792)" font-size="10.9091" font-family="LMRoman10"><tspan y="-99.34998" x="163.96372 172.14554 176.38918 179.4219 182.45464 185.48737 189.42555 198.8183 204.27285 212.19286 215.22559 218.25832 222.53469 231.02198 236.47652 242.54198 246.78562 252.85108 258.30564 262.582 265.61473 269.55293 278.95658 283.81114 286.84385 291.6875 297.14207 301.41844 306.873 312.93846 317.793 322.64756">Utilityorfireauthorityclearance.</tspan></text>
<text xml:space="preserve" transform="matrix(1 0 -0 1 0 792)" font-size="10.9091" font-family="LMRoman10" font-weight="bold"><tspan y="-79.025989" x="72 83.912738 90.010929 96.63275 100.112758 110.214588 117.1855 131.8146 140.06189 146.68372 153.65464 157.13463 162.30554 168.40373 173.2801 176.7601 183.03284 190.00376">MaximumExpiration:</tspan></text>
<text xml:space="preserve" transform="matrix(1 0 -0 1 0 792)" font-size="10.9091" font-family="LMRoman10"><tspan y="-79.025989" x="198.3383 204.55649 210.01103 216.07649 223.9856 228.22924 233.68378 241.56015 247.62561 253.08016 259.1456 263.42198 267.72016">Four(4)hours.</tspan></text>
<text xml:space="preserve" transform="matrix(1 0 -0 1 0 792)" font-size="10.9091" font-family="LMRoman10"><tspan y="-42.111986" x="300.54499 305.99955">37</tspan></text>
</svg>
