<svg xmlns="http://www.w3.org/2000/svg" xmlns:xlink="http://www.w3.org/1999/xlink" xmlns:inkscape="http://www.inkscape.org/namespaces/inkscape" version="1.1" width="612" height="792" viewBox="0 0 612 792">
<text xml:space="preserve" transform="matrix(1 0 -0 1 0 792)" font-size="11.9552" font-family="LMRoman12" font-weight="bold"><tspan y="-709.041" x="72 78.73078 85.46156 89.203548">12.2</tspan></text>
<text xml:space="preserve" transform="matrix(1 0 -0 1 0 792)" font-size="11.9552" font-family="LMRoman12" font-weight="bold"><tspan y="-709.041" x="106.02451 118.780719 125.32021 130.5566 136.6896 142.189 145.93097 152.47046 156.21244 159.9544 164.80821 176.3928 186.11238 193.58438 200.12387 203.86585 207.60782 213.74083 221.21283 227.9436 238.57178 247.76532 253.26471 259.99549 265.23188 272.33326 278.31086 285.04164">MaterialityChallengeProtocol</tspan></text>
<text xml:space="preserve" transform="matrix(.9964939 0 -0 1.0035185 0 792)" font-size="10.870851" font-family="LMRoman10"><tspan y="-686.03427" x="72.25333 76.177707 83.15679 87.41816 92.25569 97.69111 101.97423 107.40965 113.45384 118.88927 124.933467 127.95556 136.4457 142.48989 145.51198 149.7951 155.23052 160.66594 164.92733 169.76485 174.60239 183.65779 188.49533 194.23514 202.10562 206.94316 212.68297 215.70507 219.98818 224.21694 232.15265 237.58808 245.5238 249.75257 258.84059 266.68934 272.73353 277.57106 281.7998 287.844 292.68153 300.5955 306.03096 315.72776 321.16319 326.0007 330.22947 333.2407 338.67613 348.37294 351.39503 359.33076 368.4188 378.38737 383.8228 388.05158 392.8891 397.15046 400.17256 405.608 412.2827 420.13145 424.96897 429.19773 432.21983 437.65528 443.69947 450.37419 455.8096 461.54945 470.931 476.36643 481.80189 486.0306 489.05274 495.09693 504.18498 513.2404 518.07797 526.8289 533.17758 538.0151">IfreasonabledisagreementexistsastowhetheranactionisaMaterialAction,anyvotingmember</tspan></text>
<text xml:space="preserve" transform="matrix(1 0 -0 1 0 792)" font-size="10.9091" font-family="LMRoman10"><tspan y="-674.899" x="72 77.45455 85.36365 90.8182 93.9982 97.17821 102.03276 106.887317 111.13095 115.985507 125.6946 131.76006 137.2146 141.49097 145.42916 154.8219 163.90918 169.05828 178.46193 181.49466 184.52739 187.56012 196.04741 205.13469 215.13834 220.59288 224.83652 229.69107 233.96744 237.00017 242.45471 245.48744 248.52017 252.45836 261.862 269.73838 275.80384 281.2584 284.2911 287.32383 292.17839 298.24385 303.6984 312.18568 315.21839 324.91658 332.79295 337.0693 340.10203 344.34568 347.3784 353.44386 358.8984">oraffectedpartymayfileaMaterialityChallengeinwriting.</tspan><tspan y="-654.575" x="72 80.18182 86.55274 92.00729 101.70548 110.80367 120.80732 126.26187 130.50551 135.34915 139.62552 142.65825 148.1128 151.14553 154.17826 158.12735 167.5201 175.39647 181.46193 186.91648 189.9492 192.98194 197.83649 203.90195 209.35649 214.21105">UponaMaterialityChallenge:</tspan></text>
<text xml:space="preserve" transform="matrix(1 0 -0 1 0 792)" font-size="10.9091" font-family="LMRoman10"><tspan y="-628.274" x="72">&#x2022;</tspan></text>
<text xml:space="preserve" transform="matrix(1 0 -0 1 0 792)" font-size="10.9091" font-family="LMRoman10"><tspan y="-628.274" x="85.94183 90.18547 96.25093 104.73821 110.192768 115.04732 119.290958 122.323688 127.77824 137.48734 146.26917 152.33463 156.63282 164.50919 170.8801 179.36739 183.61103 187.88739 192.74195 198.19649 202.44013 207.29468 217.00379 222.45833 230.38925 239.47653 249.48018 254.93473 259.17839 264.03294 268.3093 271.342 276.79658 283.47294 291.3493 296.20387 300.4475 303.48023 308.93479 318.63298 324.69844 330.7639 333.7966 338.65116 342.94935 350.89118 356.34574 362.4112 372.10939 378.17485 383.93486 388.1785 391.2112 397.88758 402.16395 407.0076 411.31669 416.77125 419.80397 425.2585 430.11308 436.17854">theactionmustbetreatedasaMaterialActionunlessanduntilresolved,</tspan></text>
<text xml:space="preserve" transform="matrix(1 0 -0 1 0 792)" font-size="10.9091" font-family="LMRoman10"><tspan y="-605.958" x="72">&#x2022;</tspan></text>
<text xml:space="preserve" transform="matrix(.99095919 0 -0 1.0091233 0 792)" font-size="10.810472" font-family="LMRoman10"><tspan y="-600.4796" x="86.72406 90.92933 96.93996 105.42618 113.9124 119.014949 124.42018 129.22003 133.45774 139.46836 142.47367 148.49509 157.5759 165.2297 170.93764 176.94826 186.33176 190.53702 195.94226 203.85553 212.93633 218.94695 223.75762 228.01694 231.02225 236.42748 242.43811 247.84334 252.04862 256.85929 266.55625 270.81559 276.8262 283.1395 287.95018 293.3554 302.3605 311.36564 314.37098 318.57624 322.78153 327.5922 336.07844 339.08378 346.06736 351.47257 357.4832 361.68846 367.69908 373.10429 377.342 380.34733 385.158 389.96867 399.65486 405.36277 414.74626 423.15678 429.4809 434.29158 438.51847 443.9237 448.12898 451.1343 456.53953 462.55015 467.95536 474.64704 484.56025 489.96546 495.66258 501.6732 507.0784 510.0837 514.3431 522.2347 530.92636 536.93698 541.1963">theGoverningBody(oradesignatedsubcommitteeifauthorizedbyOperationalManuals)must</tspan></text>
<text xml:space="preserve" transform="matrix(1 0 -0 1 0 792)" font-size="10.9091" font-family="LMRoman10"><tspan y="-592.408" x="85.94 88.97273 93.27092 97.56911 103.63457 112.12185 121.22004 129.0964 133.37277 136.4055 140.64914 144.89278 149.74733 159.44553 165.51099 170.36554 174.60918 179.46373 183.7401 192.82738 195.8601 201.92557 207.38011 211.62375 214.65648 220.11103 229.80922 237.6856 240.71833 244.96196 251.02742 254.06015 263.76927 268.06745 272.922 278.37657 283.2311 288.99113 292.92933 298.68934 302.32206 306.27116 313.84208 322.92936 327.173 332.62757 338.08213 345.9585 352.03486 357.4894 363.55488 367.83125 372.12944">issueawrittendeterminationwithinseventy-two(72)hours,</tspan></text>
<text xml:space="preserve" transform="matrix(1 0 -0 1 0 792)" font-size="10.9091" font-family="LMRoman10"><tspan y="-570.09207" x="72">&#x2022;</tspan></text>
<text xml:space="preserve" transform="matrix(.9899495 0 -0 1.0101526 0 792)" font-size="10.799458" font-family="LMRoman10"><tspan y="-564.36227" x="86.81251 91.0135 97.018 104.62082 110.62532 115.43108 119.63207 124.437839 128.67122 137.66716 140.66942 146.67392 152.07366 156.27465 159.27689 164.67662 173.47818 182.17174 188.17624 192.43123 199.42928 205.73616 213.33899 216.34123 221.74097 227.1407 232.54042 237.34619 246.14775 251.54747 257.55198 266.35356 275.04713 281.0516 285.3066 292.30464 297.11039 300.11265 304.3136 311.9164 316.1174 322.1219 329.7247 333.97969 340.29737 345.09233 349.89808 352.9003 355.90257 358.90483 366.50764 371.31336 375.54676 378.54899 382.74998 387.55574 391.7891 394.79136 402.98814 405.9904 414.79194 420.79646 425.6022 430.40794 434.60893 437.61116 443.0109">thedeterminationmustbeloggedandmustcitethespecificcriteriainSection</tspan></text>
<text xml:space="preserve" transform="matrix(.9899495 0 -0 1.0101526 0 792)" font-size="10.799458" font-family="LMRoman10"><tspan y="-564.36227" x="451.81245 457.2122 460.21443">4.9</tspan></text>
<text xml:space="preserve" transform="matrix(.9899495 0 -0 1.0101526 0 792)" font-size="10.799458" font-family="LMRoman10"><tspan y="-564.36227" x="468.41123 473.81095 479.81547 488.6278 494.6323 499.43806 504.233 508.434 511.43623 516.83596">andSection</tspan></text>
<text xml:space="preserve" transform="matrix(.9899495 0 -0 1.0101526 0 792)" font-size="10.799458" font-family="LMRoman10"><tspan y="-564.36227" x="525.6483 531.0481 534.0503 539.45">4.10</tspan></text>
<text xml:space="preserve" transform="matrix(.9899495 0 -0 1.0101526 0 792)" font-size="10.799458" font-family="LMRoman10"><tspan y="-564.36227" x="544.84976">.</tspan></text>
<text xml:space="preserve" transform="matrix(1.0009996 0 -0 .9990015 0 792)" font-size="10.920003" font-family="LMRoman10"><tspan y="-544.33456" x="71.9281 78.1525 83.6125 86.64826 89.68402 95.75555 100.03619 108.52103 112.76891 121.854358 124.89012 129.1926 133.49509 139.5666 148.05144 157.13687 161.38475 164.4205 173.51686 178.37625 181.41202 190.8032 196.87474 201.73413 205.98201 210.84142 215.12206 224.21842 227.25417 233.3257 238.78569 243.03357 246.06932 251.52931 261.22627 266.08567 271.54566 277.6172 281.91969 286.16755 289.2033 293.4512 299.5227 303.7706 308.63 316.55793 325.64335 331.10337 336.2576 341.72853 346.577 350.85765 356.92915 362.38914 368.47157 373.32005 381.80488 387.8873 392.157 397.92277 402.78218 407.64158 411.94407 419.87199 423.21348 428.6735 431.70924 434.745 440.8165 445.09715 453.58198 459.04197 465.11347 474.8104 480.27043 486.34193 490.5898 496.0498 505.14619 510.60618 514.85409 517.88986 522.74929 528.2092 531.245 534.2808">Failuretoissueatimelydeterminationconstitutesagovernanceprocessfailureandautomatically</tspan></text>
<text xml:space="preserve" transform="matrix(1 0 -0 1 0 792)" font-size="10.9091" font-family="LMRoman10"><tspan y="-530.241" x="72 76.24364 80.520008 83.552738 89.007289 94.46184 99.31639 103.59276 111.523677 119.40005 122.43278 127.88733 132.18552 136.4837 139.51644 142.54917 145.5819 150.43645 155.89099 160.13463 163.16736 168.6219 178.33101 185.45465 190.9092 196.97466 201.82921 208.49468 212.77104 217.6256 223.3856 226.41834 231.27289 242.782 246.12018 251.57472 259.49473 265.56019 269.83656 275.59657 280.44023 285.29478 291.36024 297.43659 301.71296 307.1675 313.83296 318.1093 322.96388 332.05116 336.9057 342.97117 346.00389 351.45845 355.7021 358.7348 364.18937 373.88755 379.3421 385.40757 388.44029 393.29484">triggersClassificationPanelreviewforproceduralremediationonly.</tspan><tspan y="-509.91804" x="72 82.00365 88.06911 92.312747 97.767299 103.832759 106.865489 109.89822 112.93095 116.869129 122.62913 130.5164 138.69823 144.76369 149.31279 155.37825 160.8328 166.89826 172.3528 177.20735 182.6619 188.72736 191.76009">Mutability:Unchangeable</tspan></text>
<text xml:space="preserve" transform="matrix(1 0 -0 1 0 792)" font-size="11.9552" font-family="LMRoman12" font-weight="bold"><tspan y="-480.70906" x="72 78.73078 85.46156 89.203548">12.3</tspan></text>
<text xml:space="preserve" transform="matrix(1 0 -0 1 0 792)" font-size="11.9552" font-family="LMRoman12" font-weight="bold"><tspan y="-480.70906" x="106.02451 114.249698 120.38271 131.5967 139.4393 146.17008 151.66947 158.20896 163.70835 175.29294 185.01251 191.74329 195.48526 199.22724 205.36025 211.33785 216.57422 220.3162 227.04698 237.6632 248.18378 254.72327 260.22267 267.69465 273.00276 280.47474 284.2167 296.17195 305.8915 312.25169 318.98246 325.11549 332.58747 339.12696 346.21638">TemporaryCollectiveHardshipCovenant</tspan></text>
<text xml:space="preserve" transform="matrix(.9924717 0 -0 1.0075854 0 792)" font-size="10.826972" font-family="LMRoman10"><tspan y="-456.6521" x="72.15017 79.96725 85.987049 88.99694 96.93311 104.75018 109.86052 115.27401 120.09201 126.11181 131.52529 137.24193 145.12398 149.94199 155.65862 158.66852 162.93436 167.14606 175.09305 179.35889 184.77237 187.78227 192.60028 195.61019 204.99716 209.20886 218.2927 224.62647 229.43366 233.67783 242.69669 245.70659 253.59947 257.81117 262.62916 271.648 277.97099 283.38447 287.62864 293.04216 297.28633 306.67329 312.0868 316.33097 321.74446 327.15797 333.17778 336.18766 341.00569 346.41917 350.63087 353.64079 359.05427 365.07408 370.48759 377.17863 381.44447 387.46427 391.70845 397.42509 400.43498 405.5345 410.948 417.63905 423.65885 429.67866 433.92283 436.93275 442.95256 452.03639 456.3022 461.1202 466.5337 471.3517 475.59587 480.41389 487.09413 493.11393 498.83058 503.6486 509.6684 518.68728 523.50527 529.22189 533.4336 538.2516">ThisCovenantexistssolelytopermittemporaryorganizationalsurvivalduringsevere,documented</tspan></text>
<text xml:space="preserve" transform="matrix(1.0099504 0 -0 .99014756 0 792)" font-size="11.017651" font-family="LMRoman10"><tspan y="-451.00959" x="71.290637 74.35354 77.41644 83.54226 89.05109 95.1769 100.07975 103.14266 108.65148 115.5926 121.718418 124.78132 129.12227 133.40813 137.72705 142.62992 146.97087 155.17902 163.13378 166.19669 170.48255 176.60836 182.11719 188.243 196.40708 200.69293 205.01186 210.52069 216.6465 220.98746 224.35887 229.26174 233.58065 237.89957 240.96247 247.08829 256.4753 260.7612 266.887 272.3958 280.5489 286.6747 289.7376 294.07856 298.36445 302.68339 307.5862 311.9272 320.14637 325.65519 331.4835 335.76939 345.1564 349.49739 355.9207 360.82353 365.72636 368.78929 371.85218 374.91508 383.68513 386.74803 392.87385 398.99964 402.06257 407.87989 410.94279 417.0686 423.19444 428.70326 431.76615 439.98533 444.2712 450.397 454.71595 460.22477 466.35057 471.85939 481.8634 486.76628 492.57258 497.4754 501.79435 506.69718 509.7601 515.2689 525.27297 530.7818">financialdistresswithouttransferringthatdistressontospecificindividualsthroughcoercionor</tspan></text>
<text xml:space="preserve" transform="matrix(1 0 -0 1 0 792)" font-size="10.9091" font-family="LMRoman10"><tspan y="-433.017" x="72 76.85455 82.614559 88.680019 91.712749 97.1673 100.20003 104.443668 109.89822 114.14185 117.17458 122.629138 128.6946">exploitation.</tspan><tspan y="-412.693" x="72 75.93819 81.69819 87.15273 92.91274 97.76729 103.22184 107.46548 110.49821 115.95276 125.66186 131.11641 138.08733 142.33097 148.39643 151.42916 159.36008 167.23645 172.39646 177.85102 182.70557 188.77103 194.22557 199.98558 207.86196 210.89469 218.83652 225.20743 230.06198 234.33835 243.42563 246.44745 250.69109 254.93473 259.78929 269.49839 274.95295 281.0184 284.05113 293.44386 296.47657 303.4584 308.91297 311.93479 318.61116 324.0657 331.03663 335.28028 341.34574 349.84394 353.18214 358.6367 361.6694 364.70213 369.85124 377.7276 380.7603 386.82579 395.91307 400.7676 406.22218 412.28764 418.3531 421.3858 425.62947 428.66218 434.11674 440.1822 448.12403 453.57859 457.84407 466.34226 475.42955 480.2841 484.52775">InvocationofthisCovenantispermittedonlyifallofthefollowingconditionsaremet:</tspan></text>
<text xml:space="preserve" transform="matrix(1 0 -0 1 0 792)" font-size="10.9091" font-family="LMRoman10"><tspan y="-386.392" x="72">&#x2022;</tspan></text>
<text xml:space="preserve" transform="matrix(.9899495 0 -0 1.0101526 0 792)" font-size="10.799458" font-family="LMRoman10"><tspan y="-382.5085" x="86.81251 91.0135 97.018 104.39403 112.871608 117.95815 123.35788 128.16364 132.39702 138.40152 141.40378 147.40828 155.36748 163.01349 168.72641 174.73091 183.0033 189.0078 193.81356 198.01454 202.8095 207.0429 216.03884 219.04109 225.0456 229.85135 234.10634 239.90564 245.91014 251.30988 255.56485 260.3706 268.9346 274.33433 282.9091 288.9136 294.6157 299.42146 305.42597 314.4219 319.22767 324.92979 329.13075 333.9365 342.51127 345.51353 348.51576 354.52027 359.91999 365.9245 370.73023 373.73249 379.1322 384.69395 389.4997 395.2018 398.20405 404.20857 409.0143 415.0188 419.82456 424.63029 430.41883 434.61979 440.6243 446.02403 452.79527 457.601 463.00074 468.70286 472.9038 475.90608 481.5974 487.6019 492.40766 500.98243 506.38215 512.689 517.4948 521.7282 527.1279 531.3289 534.3311 539.73086">theGoverningBodydetermines,basedondocumentedfinancialevidence,thatcontinuedoperation</tspan></text>
<text xml:space="preserve" transform="matrix(.99849888 0 -0 1.0015034 0 792)" font-size="10.892724" font-family="LMRoman10"><tspan y="-372.28337" x="86.069217 92.125568 98.18192 104.23828 109.08554 116.99365 121.28539 125.52267 130.96903 137.02538 143.08173 148.52809 152.79804 162.48165 167.3289 172.77527 181.8489 188.21025 193.05751 199.11385 203.4056 208.85196 213.08922 216.1174 221.56377 231.25829 236.70465 242.761 245.78919 248.81735 254.26372 259.71009 263.94734 266.9755 272.42185 278.4782 286.4081 293.96769 299.41404 305.4704 308.49858 318.19309 322.46305 327.29945 331.60206 337.65843 340.68659 348.55113 351.57929 361.27384 364.302 373.37565 382.44929 385.47746 391.5338 396.3811 402.13249 410.0079 413.03608 419.09245 423.38417 428.8305 431.85868 437.30506 442.1523 448.20869 453.05598 462.4346 467.88096 475.7891 479.12226 484.5686 488.83857 493.68583 498.5331 508.22767 513.07498 516.0922 521.5386 525.8412 531.89749 536.1674">understandardcompensationobligationswouldresultinimminentinsolvencyorforcedclosure</tspan></text>
<text xml:space="preserve" transform="matrix(1 0 -0 1 0 792)" font-size="10.9091" font-family="LMRoman10"><tspan y="-350.527" x="72">&#x2022;</tspan></text>
<text xml:space="preserve" transform="matrix(1 0 -0 1 0 792)" font-size="10.9091" font-family="LMRoman10"><tspan y="-350.527" x="85.94183 91.396389 94.429119 101.094577 105.37094 110.225498 115.680049 119.97823 125.432788 131.49825 136.95279 143.01825 146.05098 154.54918 160.61464 166.06919 172.13465 175.76738 180.62194 186.38195 190.62558 194.90195 200.35649 205.21105 209.45468 212.48741 217.94197 226.42926 231.8838 234.91654 239.16017 244.01473 248.29109 254.35655 259.8111 264.05476 267.08747 272.54203 277.39659 285.3384 291.40388 296.55299 302.00755 310.4948 316.86573 321.72029 326.57484 336.273 341.12757 346.28758 351.74214 354.77485 360.8403 366.29487 370.5385 375.39308 385.09126 390.5458 396.61128 406.32038 412.38584 418.13496 422.9895 429.05497 438.14225 442.9968 448.7677 453.01136 457.8659">allreasonablenon-extractivealternativeshavebeenevaluatedanddocumented</tspan></text>
<text xml:space="preserve" transform="matrix(1 0 -0 1 0 792)" font-size="10.9091" font-family="LMRoman10"><tspan y="-328.21003" x="72">&#x2022;</tspan></text>
<text xml:space="preserve" transform="matrix(1 0 -0 1 0 792)" font-size="10.9091" font-family="LMRoman10"><tspan y="-328.21003" x="85.94183 90.18547 96.25093 104.73821 112.614589 117.77459 123.22913 128.08368 134.14914 139.60369 145.3637 153.24007 156.2728 164.21463 169.66918 175.73464 181.8001 186.07646 191.22556 196.68012 201.53467 211.24378 217.00379 226.39653 235.48381 241.56018 247.62564 253.98564 258.84019 263.11656 272.20384 277.96385 281.30204 286.7566 291.03297 294.06568 298.00389 307.40754 312.8621 318.31666 322.5603 331.04759 336.50215 344.44398 350.50944 355.36399 358.3967 361.42945 367.4949 372.34947 382.04765 385.08036 394.77854 400.844 405.69856 410.5531 414.79676 417.82948 423.28404">theCovenantisapprovedbyaSupermajorityvoteasdefinedinSection</tspan></text>
<text xml:space="preserve" transform="matrix(1 0 -0 1 0 792)" font-size="10.9091" font-family="LMRoman10"><tspan y="-328.21003" x="432.99314 438.4477 441.4804">4.5</tspan></text>
<text xml:space="preserve" transform="matrix(1 0 -0 1 0 792)" font-size="10.9091" font-family="LMRoman10"><tspan y="-305.894" x="72">&#x2022;</tspan></text>
<text xml:space="preserve" transform="matrix(1 0 -0 1 0 792)" font-size="10.9091" font-family="LMRoman10"><tspan y="-305.894" x="85.94183 90.18547 96.25093 104.73821 109.0364 113.890949 119.3455 125.716419 130.57097 137.23644 143.3019 149.37827 153.64373 159.09827 163.3419 166.37464 171.82918 177.89464 184.57102 190.02556 196.09102 205.78922 208.82195 211.85468 217.92014 223.37468 229.44014 234.2947 237.32743 242.78197 249.45835 253.73471 259.18928 263.43293 266.46565 271.9202 277.98567 283.44023 286.47294 294.9602 300.41477 304.69114 313.1784 316.5166 322.58207 325.61479 328.6475 338.04023 344.11659 347.1493 351.44749 356.30204 359.32386 364.7784 369.0875 373.93116 383.64027 387.8839 396.9712 402.42576 405.45848 412.1239 417.57847 420.75846 423.93849 428.79304 433.64759 437.89125 442.7458 452.4549 458.8258 463.68037 467.94584 472.2549 477.70948 483.77494">thescope,duration,andfinancialrationalearefullydisclosedtoallaffectedpersons</tspan><tspan y="-279.59303" x="71.444 82.658557 88.724018 93.57857 103.27676 106.30949 112.0804 117.53494 122.989498 128.44405 133.2986 139.36406 146.02953 150.27317 156.33863 164.83683 172.7132 177.86229 183.31685 188.1714 194.23686 199.6914 205.45142 213.3387 218.79325 225.16416 230.0078 234.28417 239.73871 243.98235 248.8369 256.77873 262.84419 268.90965 274.9751 279.82966 287.73875 291.9824 298.04786 306.54606 309.88426 315.3388 318.37153 321.40425 326.55335 334.42973 337.46244 343.5279 352.61518 357.46974 362.9243 368.98976 373.28794 377.5316 381.80796 387.2625 390.29524 396.05525 400.2989 404.59709">Wheninvoked,theCovenantoperatesunderthefollowingconstraints:</tspan></text>
<text xml:space="preserve" transform="matrix(1 0 -0 1 0 792)" font-size="10.9091" font-family="LMRoman10"><tspan y="-253.29102" x="72">&#x2022;</tspan></text>
<text xml:space="preserve" transform="matrix(1 0 -0 1 0 792)" font-size="10.9091" font-family="LMRoman10"><tspan y="-253.29102" x="85.94183 92.00729 97.461849 101.73821 105.98185 109.01458 113.869129 116.901859 122.967319 128.42186 132.6655 135.69823 141.15277 150.85097 153.8837 161.82553 167.28009 172.73464 175.76737 181.83283 187.59284 191.83647 197.29102 201.56739 210.96013 214.30922 219.76377 227.67287 232.52742 237.98197 242.53107 252.22927 257.0838 266.17109 272.23655 275.26927 280.42927 285.88383 290.73838 300.43656 306.80747 311.66203 315.9384 320.23658 325.69114">participationisvoluntaryforeachemployedperson</tspan></text>
<text xml:space="preserve" transform="matrix(1 0 -0 1 0 792)" font-size="10.9091" font-family="LMRoman10"><tspan y="-230.97502" x="72">&#x2022;</tspan></text>
<text xml:space="preserve" transform="matrix(1 0 -0 1 0 792)" font-size="10.9091" font-family="LMRoman10"><tspan y="-230.97502" x="85.94183 92.00729 101.094577 107.46549 112.32004 116.596408 120.89459 126.349147 136.05825 145.14553 150.29462 159.68737 166.05828 174.54557 179.40012 184.85466 193.94194 200.31285 205.1674 208.20014 211.23287 216.08742 222.15288 228.81835 234.8838 239.16017 244.01473 248.31291 252.6111 258.67655 262.9529 267.80747 273.87294 280.5493 286.00386 293.91294 296.94566 303.0111 307.86567 312.7202 318.48023 322.72389 325.7566 331.5166 334.54933 339.40388 344.25843 353.9566 358.20027 367.29847 372.75303 377.60758 382.46214 387.31669 393.38215 401.2585 405.53489 410.38945 416.4549 422.52037 427.3749 432.22947 441.92765 446.7822 452.23677 461.32405 467.69496 472.5495 478.61497 482.91316 488.3677 492.61137 495.64408 501.09864">nopersonmaybecompelled,pressured,orincentivizedtoacceptreducedcompensation</tspan></text>
<text xml:space="preserve" transform="matrix(1 0 -0 1 0 792)" font-size="10.9091" font-family="LMRoman10"><tspan y="-208.65903" x="72">&#x2022;</tspan></text>
<text xml:space="preserve" transform="matrix(1.0099504 0 -0 .99014756 0 792)" font-size="11.017651" font-family="LMRoman10"><tspan y="-210.73526" x="85.09329 89.41221 94.31506 97.68646 103.81227 108.15323 113.66205 120.47096 124.75683 134.01166 140.13747 145.6463 149.96521 154.25109 157.31398 162.21685 165.27976 171.40557 176.9144 181.20026 189.84912 198.72936 204.85517 209.19612 217.228 223.3538 228.86264 236.8945 241.21343 246.11629 250.45725 256.58308 259.64598 267.67787 270.74076 280.61256 284.9315 289.83433 294.1202 299.62904 302.69194 305.75483 311.26365 315.54954 318.61244 324.12126 330.24708 337.10005 341.38594 346.28877 350.6077 359.78538 362.8483 368.9741 374.4829 378.7688 381.8317 387.3405 393.46635 400.3083 404.62724 410.13603 413.19895 421.84779 427.97358 432.87644 438.38526 442.70417 448.21299 454.3388 459.84764 464.13349 467.1964 472.7052 478.83103 485.68403 491.19285 499.25776 504.76658 510.89237 516.4012 521.304 525.6229 529.9639">refusaltoparticipatemustnotresultinretaliation,termination,roledegradation,oradverse</tspan></text>
<text xml:space="preserve" transform="matrix(1 0 -0 1 0 792)" font-size="10.9091" font-family="LMRoman10"><tspan y="-195.109" x="85.94 90.18364 94.46001 99.31456 104.76911 109.01275 118.10003 122.954578 128.71459">treatment</tspan></text>
<text xml:space="preserve" transform="matrix(1 0 -0 1 0 792)" font-size="10.9091" font-family="LMRoman10"><tspan y="-172.793" x="72">&#x2022;</tspan></text>
<text xml:space="preserve" transform="matrix(1.0099504 0 -0 .99014756 0 792)" font-size="11.017651" font-family="LMRoman10"><tspan y="-174.51238" x="85.09329 90.60212 96.43046 106.73196 111.05088 115.95373 122.079547 128.20536 133.10822 137.39408 140.45699 145.9658 156.57582 162.08464 168.21047 174.33628 177.39919 180.46208 185.36495 194.17906 198.53104 204.34836 213.52606 222.70377 227.59561 231.88147 236.2004 239.26329 244.16616 249.67499 252.73789 255.80081 266.10234 271.61116 276.51399 280.83293 286.34175 290.6827 299.50785 305.63368 311.1425 315.4614 319.74729 322.81019 327.71305 330.77595 336.90177 342.41059 346.69645 349.75935 355.88517 365.87818 370.1971 375.70594 378.76884 383.67167 388.01264 395.78007 398.843 404.96879 409.87165 412.93455 419.06037 425.18617 428.24909 434.37489 444.3679 447.4308 452.33366 457.84248 463.96827 468.87113 473.19004 477.531 483.65684 486.71974 497.32975 502.83854 508.96437 519.57437 523.8602 529.986">anyreductionappliessymmetricallyacrossparticipatingroles,includingleadershipandthe</tspan></text>
<text xml:space="preserve" transform="matrix(1 0 -0 1 0 792)" font-size="10.9091" font-family="LMRoman10"><tspan y="-159.244" x="85.94 92.15819 97.61274 103.6782 109.74366 115.80912 120.663669">Founder</tspan></text>
<text xml:space="preserve" transform="matrix(1 0 -0 1 0 792)" font-size="10.9091" font-family="LMRoman10"><tspan y="-136.92801" x="72">&#x2022;</tspan></text>
<text xml:space="preserve" transform="matrix(1 0 -0 1 0 792)" font-size="10.9091" font-family="LMRoman10"><tspan y="-136.92801" x="85.94183 92.00729 101.094577 105.94913 111.40368 120.49096 126.86188 131.71643 137.78189 142.08008 147.53462 151.77826 154.81099 160.26554 169.97464 179.06192 184.21102 193.60376 196.94194 202.39649 205.42922 212.09468 218.46559 223.32015 226.35288 231.50197 243.02199 247.26563 253.33109 261.81837 270.15293 273.18565 278.6402 284.70567 287.73838 291.67658 301.08024 308.2039 311.2366 316.98573 322.44029 330.3603 334.60395 340.0585 347.9894 354.05488 358.90943 361.94215 364.97489 371.04035 375.8949 385.59309 388.6258 398.3349 404.40037 409.2549 414.10948 418.35313 421.38584 426.8404">nocompensationmayfallbelowtheDignityFloor(asdefinedinSection</tspan></text>
<text xml:space="preserve" transform="matrix(1 0 -0 1 0 792)" font-size="10.9091" font-family="LMRoman10"><tspan y="-136.92801" x="436.53858 441.99314 445.02586 450.4804">4.26</tspan></text>
<text xml:space="preserve" transform="matrix(1 0 -0 1 0 792)" font-size="10.9091" font-family="LMRoman10"><tspan y="-136.92801" x="455.93498">)</tspan></text>
<text xml:space="preserve" transform="matrix(1 0 -0 1 0 792)" font-size="10.9091" font-family="LMRoman10"><tspan y="-114.61101" x="72">&#x2022;</tspan></text>
<text xml:space="preserve" transform="matrix(1.0099504 0 -0 .99014756 0 792)" font-size="11.017651" font-family="LMRoman10"><tspan y="-115.75144" x="85.09329 89.37916 95.504978 105.02422 112.978969 118.179309 123.69914 128.602 134.72782 140.23665 146.06499 154.95623 160.46504 166.59087 170.87673 176.38556 185.56327 191.07209 195.35794 198.42086 203.32372 208.83255 211.89545 214.95836 225.39208 230.29494 236.11225 242.23807 245.30097 249.61989 254.52274 263.4691 268.9779 272.34928 276.63517 281.538 290.47334 300.58753 303.65043 306.72438 312.5417 317.4335 328.17573 334.30155 340.42735 344.74629 350.2551 354.54096 357.60389 363.1127 373.8549 379.9807 385.48954 394.38078 399.28364 405.10096 410.0038 414.90666 419.80949 425.9353 428.9982 435.12403 445.24925 451.37504 454.43797 460.56376 465.4666 469.455 479.87773 486.00355 491.21485 497.0322 505.98954 512.11538 518.2412 521.3041 526.207 530.5479">theCovenantautomaticallyexpiresafterafixeddurationnotexceedingninetydaysunless</tspan></text>
<text xml:space="preserve" transform="matrix(1 0 -0 1 0 792)" font-size="10.9091" font-family="LMRoman10"><tspan y="-101.062" x="85.94 90.794559 96.55456 102.62002 105.65275 108.68548 113.54002 116.572757 120.81639 123.84912 133.24187 137.51824 142.37279 147.82733 150.85643 153.88553 156.91461 161.19098 170.27826 175.13282">explicitlyreaffirmed</tspan><tspan y="-74.760997" x="71.607 79.483379 85.548839 94.03611 101.91248 107.07249 112.52703 117.38158 123.44704 128.90158 134.66159 142.53797 151.3307 157.39617 161.69435 169.57073 175.63619 181.09073 188.9671 195.33802 203.83621 209.90167 214.19986 219.05442 228.75261 232.99625 238.45079">TheCovenantmustnotbeusedto:</tspan></text>
<text xml:space="preserve" transform="matrix(1 0 -0 1 0 792)" font-size="10.9091" font-family="LMRoman10"><tspan y="-42.111997" x="300.545 305.99958">41</tspan></text>
</svg>
