<svg xmlns="http://www.w3.org/2000/svg" xmlns:xlink="http://www.w3.org/1999/xlink" xmlns:inkscape="http://www.inkscape.org/namespaces/inkscape" version="1.1" width="612" height="792" viewBox="0 0 612 792">
<text xml:space="preserve" transform="matrix(.9929753 0 -0 1.0070744 0 792)" font-size="10.832467" font-family="LMRoman10"><tspan y="-704.0603" x="72.10251 80.22686 85.9464 95.3165 100.732738 106.755588 112.17182 116.99227 121.2386 125.50659 133.97759 138.7872 144.20345 153.22689 159.56388 164.38434 170.40718 174.67517 180.09142 184.30525 187.31667 192.73291 202.4063 207.82253 212.64299 216.85683 219.86824 225.28449 234.95787 237.96929 240.98072 247.00356 252.40897 257.22944 266.90284 271.11668 280.18345 284.42976 289.2502 295.57637 300.99259 305.2389 309.45274 312.46415 318.487 323.90324 330.5652 336.59886 339.59947 343.87828 348.14625 352.9667 358.6754 362.88926 369.56205 374.97825 382.8643 387.68473 393.41508 398.8313 405.15745 409.9779 414.2242 419.64045 423.85429 426.8657 432.28193 441.95533 449.77638 452.78779 457.00163 466.67503 470.92134 475.731 481.4505 484.4619 489.28239 500.754 506.77684 511.02314 516.74276 521.5632 526.3836 530.6516 534.9196 539.74008">Anyadversecompensationactionlinkedtoreporting,dissent,orcooperationwithreviewprocesses</tspan></text>
<text xml:space="preserve" transform="matrix(1 0 -0 1 0 792)" font-size="10.9091" font-family="LMRoman10"><tspan y="-695.492" x="72 76.85455 82.309108 88.374568 92.67275 96.91639 99.94912 104.19276 110.25822 114.501857 119.3564 127.287319 133.35277 137.62914 142.48369 146.78188 152.84734 161.93462 168.01099 172.25463 175.27645 180.74192 189.2292 197.41103 203.47649 209.54195 213.84014 222.32743 228.39289 234.46926 240.53472 245.38927 253.29837 259.36384 264.21839 269.07295 273.3166 276.3493 281.80387">constitutespresumptiveAbuseunderSection</tspan></text>
<text xml:space="preserve" transform="matrix(1 0 -0 1 0 792)" font-size="10.9091" font-family="LMRoman10"><tspan y="-695.492" x="291.50205 296.9566 302.41117 305.44389">18.4</tspan></text>
<text xml:space="preserve" transform="matrix(1 0 -0 1 0 792)" font-size="10.9091" font-family="LMRoman10"><tspan y="-695.492" x="310.89845">.</tspan><tspan y="-675.168" x="72 82.00365 88.06911 92.312747 97.767299 103.832759 106.865489 109.89822 112.93095 116.869129 122.62913 130.5164 138.69823 144.76369 149.31279 155.37825 160.8328 166.89826 172.3528 177.20735 182.6619 188.72736 191.76009">Mutability:Unchangeable</tspan></text>
<text xml:space="preserve" transform="matrix(1 0 -0 1 0 792)" font-size="10.9091" font-family="LMRoman10" font-weight="bold"><tspan y="-646.35806" x="72 78.272739 81.75274 88.025478 91.50548">7.3.3</tspan></text>
<text xml:space="preserve" transform="matrix(1 0 -0 1 0 792)" font-size="10.9091" font-family="LMRoman10" font-weight="bold"><tspan y="-646.35806" x="107.192768 114.04368 120.316417 127.28733 134.25824 141.22916 146.97826 156.32736 165.39282 171.66556 182.11647 189.43648 195.18558 202.1565 207.10923 213.20742 218.08379 221.56378 227.83652 238.98563 245.95655 252.05474 255.88384 261.63294 267.90568 274.8766 280.97477 286.1457">FounderCompensationSafeguard</tspan></text>
<text xml:space="preserve" transform="matrix(.99146357 0 -0 1.00861 0 792)" font-size="10.815974" font-family="LMRoman10"><tspan y="-620.4232" x="72.22354 80.03267 86.04636 94.54771 103.038249 108.14339 113.55138 118.35367 122.59353 128.60721 131.61405 137.62773 146.72397 154.38169 160.10334 166.117 175.51609 184.22295 190.23664 194.49813 202.39379 205.40062 211.41429 217.42798 222.24108 228.5576 233.37071 239.38439 245.39807 250.21117 255.922 260.12944 263.13627 272.53535 278.549 283.36213 287.56956 292.3827 296.62257 305.63227 308.6391 314.65278 323.15415 328.56214 334.5758 344.27775 350.2914 356.00227 360.81538 366.82905 375.83876 380.6519 386.3627 394.2584 403.3546 406.6643 412.0723 415.07914 423.00724 432.01698 437.42494 441.6648 447.06199 451.8751 456.08253 459.68428 465.09226 468.0991 471.10594 476.51393 482.5276 487.3407 497.04264 501.85575 507.26374 516.27346 522.60079 527.4139 533.42758 537.689 543.09707">TheGoverningBodymustindependentlydetermineanddocumentafairmarket-alignedcompensa-</tspan></text>
<text xml:space="preserve" transform="matrix(.99749687 0 -0 1.0025094 0 792)" font-size="10.881793" font-family="LMRoman10"><tspan y="-610.6826" x="72.18068 76.4137 79.438838 84.87973 94.586299 98.85195 103.69435 108.53675 113.977649 123.04218 132.10672 136.94911 142.99939 149.04965 154.49056 158.72357 161.74872 167.1896 176.89617 180.22599 185.66689 193.58882 197.82186 203.87212 212.35991 218.56255 224.00345 230.05371 236.10399 242.15425 246.99666 254.9186 259.1516 264.5925 272.53623 278.5865 283.4289 286.45405 289.47917 295.52946 300.37184 310.07838 313.10353 322.79917 328.84947 333.69187 338.53425 342.76725 345.7924 351.2333">tionrecommendationfortheFounder(asdefinedinSection</tspan></text>
<text xml:space="preserve" transform="matrix(.99749687 0 -0 1.0025094 0 792)" font-size="10.881793" font-family="LMRoman10"><tspan y="-610.6826" x="360.93986 366.38075 369.40589">4.1</tspan></text>
<text xml:space="preserve" transform="matrix(.99749687 0 -0 1.0025094 0 792)" font-size="10.881793" font-family="LMRoman10"><tspan y="-610.6826" x="374.8468 382.73609 388.78636 393.0738 396.09895 402.1492 411.24638 415.4794 421.52967 430.02833 434.31578 439.75666 448.82118 457.31983 461.60728 465.84028 471.2812 477.33146 483.3817 488.8226 493.08827 499.13856 507.08226 512.52316 518.5734 524.6237 527.64889 530.674 535.5164">)usingthesamestandardsapplied</tspan></text>
<text xml:space="preserve" transform="matrix(1 0 -0 1 0 792)" font-size="10.9091" font-family="LMRoman10"><tspan y="-598.666" x="72 76.24364 85.33092 90.78547 93.8182 100.49457 105.94912 110.19276 116.25822 121.11276 129.02187 133.29824 138.75278 141.7855 146.64006 150.93825">toallotherroles.</tspan></text>
<text xml:space="preserve" transform="matrix(1.0099504 0 -0 .99014756 0 792)" font-size="11.017651" font-family="LMRoman10"><tspan y="-584.0968" x="70.901508 78.85625 84.98206 94.56742 100.8585 106.367328 112.49314 118.61895 124.74477 129.64763 138.64905 147.82675 153.03812 163.53794 169.05777 174.5666 177.61849 183.75533 189.57263 193.85849 199.36733 203.68624 206.74915 209.81206 220.31188 226.73516 231.63802 235.92388 238.98679 243.27265 246.33556 251.84438 262.6527 266.9386 273.0644 282.64976 291.2986 296.50996 302.0298 306.93263 311.25157 317.37739 320.44029 326.5661 336.74638 344.54689 350.36418 356.49 366.9898 371.2757 381.456 386.9648 391.86766 396.77049 401.67335 407.79914 416.76753 421.67039 427.17918 436.35688 442.78019 447.683 453.80885 458.16084 463.66966 467.9555 471.0074 476.5162 487.32453 493.75883 498.66166 501.72459 506.92494 519.56216 523.848 529.9738">TheFoundermayvoluntarilypetitiontheGoverningBodytoacceptcompensationbelowthe</tspan></text>
<text xml:space="preserve" transform="matrix(1 0 -0 1 0 792)" font-size="10.9091" font-family="LMRoman10"><tspan y="-564.793" x="72 76.27637 81.13092 85.98547 91.440029 100.527309 109.614589 114.46913 120.53459 126.60005 131.4546 141.1528 144.18553 149.04009 154.49465 159.3492 162.38193">recommendedlevel.</tspan><tspan y="-544.46908" x="72 78.06546 84.13092 88.680019 98.389118 107.476398 113.84731 118.70186 122.945499 125.978229 130.22187 133.2546 138.70914 144.7746">Suchapetition:</tspan></text>
<text xml:space="preserve" transform="matrix(1 0 -0 1 0 792)" font-size="10.9091" font-family="LMRoman10"><tspan y="-518.168" x="72">&#x2022;</tspan></text>
<text xml:space="preserve" transform="matrix(1 0 -0 1 0 792)" font-size="10.9091" font-family="LMRoman10"><tspan y="-518.168" x="85.94183 94.723659 100.789119 105.0873 112.97458 119.33459 127.83277 130.8655 136.93096 139.96369 144.20732 147.24005 152.6946 156.93824 161.79279 171.49098 175.78917 181.24372 184.27645 189.131 192.16373 201.55648 207.3274 216.72014 220.96378 227.02924 235.51653 241.73471 247.18926 253.25472 259.32017 265.38563 270.24018">mustbeinitiatedsolelybytheFounder</tspan></text>
<text xml:space="preserve" transform="matrix(1 0 -0 1 0 792)" font-size="10.9091" font-family="LMRoman10"><tspan y="-495.85203" x="72">&#x2022;</tspan></text>
<text xml:space="preserve" transform="matrix(1 0 -0 1 0 792)" font-size="10.9091" font-family="LMRoman10"><tspan y="-495.85203" x="85.94183 94.723659 100.789119 105.0873 112.97458 119.33459 127.83277 133.89823 139.65822 144.51277 150.57823 159.66551 164.52007 170.28008 174.52371 179.37827 189.07646 192.10919 201.80739 209.68376 213.96013 216.99286 221.2365 224.26923 230.33469">mustbedocumentedinwriting</tspan></text>
<text xml:space="preserve" transform="matrix(1 0 -0 1 0 792)" font-size="10.9091" font-family="LMRoman10"><tspan y="-473.53504" x="72">&#x2022;</tspan></text>
<text xml:space="preserve" transform="matrix(1 0 -0 1 0 792)" font-size="10.9091" font-family="LMRoman10"><tspan y="-473.53504" x="85.94183 94.723659 100.789119 105.0873 112.97458 119.04004 124.49459 132.37097 136.64734 141.50189 145.80008 151.86554 154.89827 162.77465 165.80738 175.51648 178.54921 184.61467 189.46923 193.74559 198.60015 204.05469 208.35288 213.20743 222.90563 228.36017 234.42563 238.66927 244.73473 250.18927 254.46564 257.49836 261.43656 266.2911 272.95655 275.98927 282.05473 285.08744 288.12019 294.18565 299.0402 305.10566 309.9602 314.81477 321.49113 326.94569 334.85478 337.88749 343.95295 347.29115 352.7457 357.02207 366.10935 371.5639 378.22935 383.0839 388.53846 394.6039 398.9021 401.9348 408.00028 412.85484 417.1312 422.58576 426.8294 429.86213 435.31669">mustnotresultinincreasedauthority,influence,orinformalconsideration</tspan></text>
<text xml:space="preserve" transform="matrix(1 0 -0 1 0 792)" font-size="10.9091" font-family="LMRoman10"><tspan y="-451.21903" x="72">&#x2022;</tspan></text>
<text xml:space="preserve" transform="matrix(1 0 -0 1 0 792)" font-size="10.9091" font-family="LMRoman10"><tspan y="-451.21903" x="85.94183 95.02911 100.17821 109.58185 115.94186 124.44004 132.3164 135.34914 139.59278 145.65824 151.7237 156.00006 161.14916 169.02553 178.72373 184.49465 193.88739 198.13103 204.19649 212.68378 218.90196 224.3565 230.42197 236.48743 242.55289 247.40744 255.31655 260.7711 268.6584 274.11296 279.87297 289.2657 293.50935 296.54206 305.62934">maybewithdrawnbytheFounderatanytime</tspan></text>
<text xml:space="preserve" transform="matrix(.9939819 0 -0 1.0060546 0 792)" font-size="10.843447" font-family="LMRoman10"><tspan y="-422.36076" x="72.04055 79.869518 85.898479 94.38889 102.901 108.019107 113.44083 118.25532 122.50595 128.54576 131.5494 137.58919 146.66516 154.34233 160.06768 166.09664 175.48706 184.21604 190.245 194.51732 202.40052 208.42948 213.8512 221.73439 227.76335 232.01399 236.83933 241.11165 245.38397 251.41294 255.66356 260.4889 267.16847 270.18293 276.21189 281.03724 285.86256 291.57707 295.79518 298.80964 304.53498 307.54948 312.3748 317.20014 323.8797 329.30143 337.21714 342.04249 347.76783 354.1004 358.92573 363.75108 371.63426 375.85237 381.88133 390.3609 396.53083 401.95256 407.9815 414.01048 420.03944 424.86479 432.7805 436.99858 446.0854 451.5071 456.33247 461.1578 465.9723 472.0121 479.88444 486.217 491.04237 494.05683 499.17497 507.0039 510.6148 519.64736 525.0691 529.3197 534.7414 539.56668">TheGoverningBodymustnotpressure,incentivize,orexpecttheFoundertoacceptbelow-market</tspan></text>
<text xml:space="preserve" transform="matrix(1 0 -0 1 0 792)" font-size="10.9091" font-family="LMRoman10"><tspan y="-411.369" x="72 76.85455 82.309108 91.396389 97.7673 102.62186 108.68732 112.985507 118.440059 122.68369 125.71642 131.17098 137.23644">compensation.</tspan><tspan y="-391.04499" x="72 82.00365 88.06911 92.312747 97.767299 103.832759 106.865489 109.89822 112.93095 116.869129 122.62913 130.5164 138.69823 144.76369 149.31279 155.37825 160.8328 166.89826 172.3528 177.20735 182.6619 188.72736 191.76009">Mutability:Unchangeable</tspan></text>
<text xml:space="preserve" transform="matrix(1 0 -0 1 0 792)" font-size="10.9091" font-family="LMRoman10" font-weight="bold"><tspan y="-362.23399" x="72 78.272739 81.75274 88.025478 91.50548">7.3.4</tspan></text>
<text xml:space="preserve" transform="matrix(1 0 -0 1 0 792)" font-size="10.9091" font-family="LMRoman10" font-weight="bold"><tspan y="-362.23399" x="107.192768 115.76732 120.93823 127.21097 134.18189 137.66188 144.6328 148.1128 152.98917 156.46916 162.7419 173.891 180.16374 191.31285 200.37831 206.65105 217.10196 224.42197 230.17107 237.14199 242.09471 248.1929 253.06928 256.5493 262.82203 269.79295 273.97114 282.89479 288.99296 293.94569 299.69477 310.85478 319.10206 325.72389 330.60026 335.77119 341.86936 347.4439 352.32029 355.8003 362.07304">ProhibitiononCompensation-BasedExtraction</tspan></text>
<text xml:space="preserve" transform="matrix(1 0 -0 1 0 792)" font-size="10.9091" font-family="LMRoman10"><tspan y="-341.641" x="72 79.87637 85.330928 94.418209 100.78912 105.64368 111.70914 116.007328 121.461879 125.70551 128.73824 134.19278 143.89098 148.18917 152.4328 156.70917 162.77463 167.62918 171.87282 177.93828 182.21465 187.0692 195.01103 203.79286 209.85832 214.15651 222.03289 228.09835 233.55289 241.44017 247.80017 256.29838 262.36384 266.66203 271.51658 281.21476 285.4584 290.91297">Compensationstructuresmustnotbeusedto:</tspan></text>
<text xml:space="preserve" transform="matrix(1 0 -0 1 0 792)" font-size="10.9091" font-family="LMRoman10"><tspan y="-315.34" x="72">&#x2022;</tspan></text>
<text xml:space="preserve" transform="matrix(1 0 -0 1 0 792)" font-size="10.9091" font-family="LMRoman10"><tspan y="-315.34" x="85.94183 90.79639 96.55639 100.800029 105.07639 110.530948 115.3855 123.26186 129.32732 135.39278 140.24733 145.70188 154.78916 161.16007 166.01462 172.08008 176.37827 181.83281 186.07645 190.931 200.6292 203.66193 209.11647 215.48738 220.94193">extractuncompensatedlabor</tspan></text>
<text xml:space="preserve" transform="matrix(1 0 -0 1 0 792)" font-size="10.9091" font-family="LMRoman10"><tspan y="-293.024" x="72">&#x2022;</tspan></text>
<text xml:space="preserve" transform="matrix(1 0 -0 1 0 792)" font-size="10.9091" font-family="LMRoman10"><tspan y="-293.024" x="85.94183 95.02911 100.483669 104.78185 114.17458 120.24004 126.305507 132.38187 137.22551 141.50188 147.56734 152.72734 158.48735 167.57463 172.42919 178.1892 186.06557 190.3092 196.37467 200.65103 206.10558 212.17104 217.62558 227.33469 233.40015 238.85469 244.92015 249.21834 252.25107 258.31654 263.7711 270.43653 276.80744 281.662 285.93836 291.69837 295.99656 302.662 308.11656 316.03657 319.06929 325.13475 328.47294 333.9275 338.20387 347.29115 352.7457 359.41114 365.78205 370.6366 376.70207 381.5566 384.58934 387.62208 391.86573">maskunderpaymentthroughhousing,perks,orinformalbenefits</tspan></text>
<text xml:space="preserve" transform="matrix(1 0 -0 1 0 792)" font-size="10.9091" font-family="LMRoman10"><tspan y="-270.707" x="72">&#x2022;</tspan></text>
<text xml:space="preserve" transform="matrix(1 0 -0 1 0 792)" font-size="10.9091" font-family="LMRoman10"><tspan y="-270.707" x="85.94183 90.24002 96.30548 99.33821 102.6764 110.552768 113.585498 116.629138 122.694599 128.14914 134.2146 139.06916 142.10189 147.55643 154.2219 160.28736 166.35282 170.62918 176.69464 181.5492 191.24739 196.70194 202.47286 206.71649 215.80377 220.65833 229.7456 235.81107 238.8438 243.99289 249.44745 254.302 259.15657 267.0984 270.43659 275.89115 283.80024 288.09843 292.34208 297.19664 304.76756 310.2221 314.49848 320.56394 324.86213 330.92759 333.9603 343.6694 347.94578 352.80033 358.25489 362.55308 368.00764 374.0731">shiftfinancialburdenontoemployeesforstewardshipreasons</tspan></text>
<text xml:space="preserve" transform="matrix(1.0069758 0 -0 .9930726 0 792)" font-size="10.985198" font-family="LMRoman10"><tspan y="-246.1109" x="71.50122 79.58633 84.47474 88.8029 91.85679 97.96456 102.852977 108.96074 113.84916 122.36269 128.47048 132.77667 138.26927 142.54251 147.43093 152.31935 156.59259 159.64649 165.13909 171.24686 179.18917 185.29692 191.4047 197.52346 202.40088 210.3322 216.43997 221.32839 226.2168 230.49005 233.54393 239.03653">ResidenceprotectionsunderSection</tspan></text>
<text xml:space="preserve" transform="matrix(1.0069758 0 -0 .9930726 0 792)" font-size="10.985198" font-family="LMRoman10"><tspan y="-246.1109" x="248.76943 254.26203">13</tspan></text>
<text xml:space="preserve" transform="matrix(1.0069758 0 -0 .9930726 0 792)" font-size="10.985198" font-family="LMRoman10"><tspan y="-246.1109" x="263.37974 269.48753 278.59425 284.71299 290.2056 298.09297 302.98136 308.47398 314.58177 318.9099 323.18318 326.23707 330.51029 336.61808 340.8913 349.40483 354.2932 359.78584 368.9365 375.34089 380.2293 386.3371 390.66526 396.15788 400.4311 403.485 408.97758 418.71049 424.20307 430.31086 440.04374 448.8978 455.00559 459.33378 467.2321 473.33988 478.8325 486.71986 493.1352 501.63777 507.7565 512.08468 516.973 526.69497 530.9682">donotconstitutecompensationandmustnotbeusedto</tspan></text>
<text xml:space="preserve" transform="matrix(1 0 -0 1 0 792)" font-size="10.9091" font-family="LMRoman10"><tspan y="-230.857" x="72 77.45455 80.63455 83.81456 88.11275 92.9673 97.21094 103.876399 107.214588 113.280048 117.57823 121.82187 124.8546 128.19278 133.04734 139.7128 145.16735 153.08736 157.36373 162.21828 168.28374 174.3492 179.20375 187.69104 191.02922 196.48377 199.5165 207.4256 213.49106 218.65106 223.4947">offset,justify,orreducefairpay.</tspan><tspan y="-210.53299" x="72 82.00365 88.06911 92.312747 97.767299 103.832759 106.865489 109.89822 112.93095 116.869129 122.62913 130.5164 138.69823 144.76369 149.31279 155.37825 160.8328 166.89826 172.3528 177.20735 182.6619 188.72736 191.76009">Mutability:Unchangeable</tspan></text>
<text xml:space="preserve" transform="matrix(1 0 -0 1 0 792)" font-size="14.3462" font-family="LMRoman12" font-weight="bold"><tspan y="-176.165" x="72">8</tspan></text>
<text xml:space="preserve" transform="matrix(1 0 -0 1 0 792)" font-size="14.3462" font-family="LMRoman12" font-weight="bold"><tspan y="-176.165" x="92.185108 102.7726 111.738979 116.67407 124.750988 131.35024 138.52333 145.88294 159.33968 166.69928 175.22092 186.88437 198.61957 207.58594 213.86957 222.83594 230.91284 237.5121 242.00246 247.84136">EnforcementAuthority</tspan></text>
<text xml:space="preserve" transform="matrix(1.0004999 0 -0 .9995003 0 792)" font-size="10.914554" font-family="LMRoman10"><tspan y="-151.8909" x="71.40831 82.62846 88.69696 93.55394 97.83244 106.30214 111.15912 117.227619 120.56747 126.02474 130.30324 135.16022 140.0172 149.10903 153.966 159.72891 167.58737 173.04465 179.11315 183.35889 189.42739 194.88466 199.16316 202.1974 206.13756 215.51316 218.54741 226.44956 230.7499 237.124 241.98097 246.83795 249.87221 252.90645 255.9407 260.79768 266.86619 273.51316 277.75895 283.82743 289.2847 297.1432 302.60047 308.66896 312.91474 318.98323 324.4405 328.719 331.75325 335.69343 345.06904 350.5263 355.67796 361.14619 366.00315 370.28166 376.35017 380.65049 388.51988 399.74006 405.80854 410.66554 414.94404 423.41374 429.4822 435.55073 439.85108 446.22517 451.08216 455.9282 458.96247 461.9967 465.03096 469.88795 475.95643 482.61433 487.4713 493.5398 496.87965 502.3369 506.61543 511.47239 516.32937 525.4212 530.27816 536.041">Whereenforcementauthorityisspecified,thatauthoritygoverns.Whereunspecified,enforcement</tspan></text>
<text xml:space="preserve" transform="matrix(.9964939 0 -0 1.0035185 0 792)" font-size="10.870851" font-family="LMRoman10"><tspan y="-137.78124" x="72.25333 78.29752 83.13505 86.46153 91.89696 97.94115 100.96324 105.19201 113.12772 117.35649 126.43365 130.6624 136.70659 145.19673 153.73035 158.86139 164.29682 169.13434 173.3957 179.4399 182.462 188.50618 197.58335 205.2799 211.01972 217.06389 226.45632 232.50049 238.54468 244.58887 249.4264 257.3295 261.55827 267.60249 276.0926 281.528 287.87663 292.71415 296.9755 302.41096 306.63969 309.6509 315.08638 321.14146 326.57688 333.24073 342.29615 347.73158 353.4714 359.5156 364.95106 367.97315 375.90888 381.3443 387.38853 397.07444 400.09657 408.03227 412.31538 418.3596 424.70817 428.03465 432.87217 437.7097 445.58018 449.80894 458.89698 463.12574 469.16993 477.6492 485.49794 488.52003 493.95549 498.2386 502.5217 505.5438 508.5659 511.588 516.42556 521.86099 526.0897 529.11178 534.54727 540.59146">defaultstotheGoverningBodyundertheoperationalmanualsandissubjecttotheClassification,</tspan></text>
<text xml:space="preserve" transform="matrix(.9949875 0 -0 1.0050378 0 792)" font-size="10.854417" font-family="LMRoman10"><tspan y="-124.09186" x="71.95669 80.097499 84.35243 90.38749 93.405017 97.62738 101.88232 107.309528 111.53189 114.549419 119.97662 126.01168 132.68715 138.11437 144.14942 153.8424 161.6793 166.50952 171.33972 176.76694 182.802 188.53313 192.7555 198.18271 204.21778 207.23529 210.2528 213.27034 217.18878 226.57785 232.61292 236.86783 241.99112 247.72226 250.73978 255.01642 258.03395 263.46116 269.4962 277.4308 281.65318 287.6882 292.5184 297.34864 301.57099 304.58854 310.01573">Arbitration,andAccountabilityprovisions(Section</tspan></text>
<text xml:space="preserve" transform="matrix(.9949875 0 -0 1.0050378 0 792)" font-size="10.854417" font-family="LMRoman10"><tspan y="-124.09186" x="319.7087 325.13594">18</tspan></text>
<text xml:space="preserve" transform="matrix(.9949875 0 -0 1.0050378 0 792)" font-size="10.854417" font-family="LMRoman10"><tspan y="-124.09186" x="330.5631 334.7855 342.67668 350.81748 359.90263 364.73286 370.76789 374.08934 379.51655 383.77149 388.60169 393.4319 402.47364 407.30384 413.03495 420.91529 426.34248 431.17268 435.39506 438.4126 443.83979 453.53279 462.5745 467.69779 477.08686 482.81797 487.6482 492.46754 498.51344 506.41548 514.2524 517.2699 521.4923 527.52737 532.9546 539.00057">).Noenforcementactionmayoccurwithout</tspan></text>
<text xml:space="preserve" transform="matrix(1 0 -0 1 0 792)" font-size="10.9091" font-family="LMRoman10"><tspan y="-111.168" x="72 81.08728 89.11638 93.97093 98.825489 104.28004 108.556407 114.621868 119.47641 129.18552 137.52007 142.37462 147.21826 150.25099 154.56009 157.58191 163.03646 172.74556 179.8692 185.32375 189.56739 195.3274 202.90923 208.05832 217.45107 221.6947 227.14925 235.09108 241.15654 246.0111 249.04383 252.07656 258.142 262.99656 272.69474 275.72746 285.42564 291.4911 296.34565 301.2002 305.44386 308.47657 313.93113">aRecordedDecisionPathway(asdefinedinSection</tspan></text>
<text xml:space="preserve" transform="matrix(1 0 -0 1 0 792)" font-size="10.9091" font-family="LMRoman10"><tspan y="-111.168" x="323.64024 329.0948 332.1275 337.58207">4.11</tspan></text>
<text xml:space="preserve" transform="matrix(1 0 -0 1 0 792)" font-size="10.9091" font-family="LMRoman10"><tspan y="-111.168" x="343.03663 347.28028">).</tspan></text>
<text xml:space="preserve" transform="matrix(.9899495 0 -0 1.0101526 0 792)" font-size="10.799458" font-family="LMRoman10"><tspan y="-89.93097" x="72.73098 78.86507 84.26479 91.91082 96.71658 105.712528 110.51829 114.75168 120.151409 124.95717 130.96167 135.76743 144.88217 150.28189 155.08766 159.28865 162.2909 167.69063 173.69513 177.9501 184.41898 193.23134 201.17974 205.98549 210.79126 216.19098 220.42438 226.42888 231.23464 240.65177 248.90254 253.70832 258.51408 261.51634 265.7713 268.77357 274.17329 283.5904 290.64247 296.04219 300.24317 305.93449 313.4293 318.52665 327.6414 332.44715 338.14924 341.1515 345.40647 349.60746 357.27507 363.27958 369.58647 374.98619 384.4141 389.21986 393.45323 398.25898 403.6587 407.85966 410.8619 416.26164 425.67878 431.0785 437.79576 446.6081 451.41386 456.81358 465.80955 471.81407 474.81629 477.81855 483.21827 488.92039 496.534 501.33973 510.3357 515.1414 519.3748 524.7746 529.5803 535.58486 540.39059">Foremergencyactions,aRecordedDecisionPathwayexistsuponcreationofacompliantemergency</tspan></text>
<text xml:space="preserve" transform="matrix(1 0 -0 1 0 792)" font-size="10.9091" font-family="LMRoman10"><tspan y="-77.295" x="72 75.03273 80.48728 89.57456 93.87275 98.11639 104.18185 113.890949 119.3455 127.27641 133.34188 138.19643 141.22916 144.26189 150.32735 155.1819 164.891 167.92374 177.62194 183.6874 188.54195 193.3965 197.64014 200.67287 206.12741">logstubasdefinedinSection</tspan></text>
<text xml:space="preserve" transform="matrix(1 0 -0 1 0 792)" font-size="10.9091" font-family="LMRoman10"><tspan y="-77.295" x="215.8256 221.28015 224.31288 229.76743">4.11</tspan></text>
<text xml:space="preserve" transform="matrix(1 0 -0 1 0 792)" font-size="10.9091" font-family="LMRoman10"><tspan y="-77.295" x="235.22197 241.89835 246.74199 252.20746 257.062 266.7602 269.7929 276.76383 280.10203 286.16749 289.2002 295.87657 301.94203 307.70204 312.55659 318.62205 327.70933 332.56388 338.32389 342.56755 348.0221 352.26576 355.29847 360.75303 370.4512 373.48393 381.42576 386.2694 391.72398 400.81126 406.8876 409.92033 414.76399 419.00764 423.86219 433.5713 436.604 442.05857 446.30223 451.15678 455.43315">,eveniffulldocumentationiscompletedlater.</tspan></text>
<text xml:space="preserve" transform="matrix(1 0 -0 1 0 792)" font-size="10.9091" font-family="LMRoman10"><tspan y="-42.112" x="300.54499 305.99955">32</tspan></text>
</svg>
