<svg xmlns="http://www.w3.org/2000/svg" xmlns:xlink="http://www.w3.org/1999/xlink" xmlns:inkscape="http://www.inkscape.org/namespaces/inkscape" version="1.1" width="612" height="792" viewBox="0 0 612 792">
<text xml:space="preserve" transform="matrix(1 0 -0 1 0 792)" font-size="10.9091" font-family="LMRoman10" font-weight="bold"><tspan y="-709.041" x="72 78.272739 81.75274 88.025478 94.29821 97.77821">6.11.6</tspan></text>
<text xml:space="preserve" transform="matrix(1 0 -0 1 0 792)" font-size="10.9091" font-family="LMRoman10" font-weight="bold"><tspan y="-709.041" x="113.4655 122.94551 129.56734 134.44371 137.9237 142.1019 150.67646 155.84737 161.59647 167.17102 172.92012 179.89104 185.64014 192.26197 201.31653 208.28745 214.38564 218.21474 223.96384 230.23657 237.20749 243.30568 248.4766">Anti-PrecedentSafeguard</tspan></text>
<text xml:space="preserve" transform="matrix(.99196776 0 -0 1.0080973 0 792)" font-size="10.821475" font-family="LMRoman10"><tspan y="-682.9182" x="72.58301 80.69911 89.789157 94.60471 97.61308 103.02383 109.040569 113.30423 121.79909 124.807468 134.50351 138.71306 144.74062 147.74898 155.69194 161.7087 167.42243 172.23798 178.25473 187.26902 192.08457 197.7983 205.68715 214.70143 219.80918 229.20221 235.52196 244.01682 247.02518 252.73892 256.9485 261.76405 266.00605 272.0228 276.2648 281.08039 285.28996 290.1055 299.80155 304.0111 313.10115 317.91673 323.63047 329.6472 335.05796 341.07469 350.78157 356.1923 360.99705 365.2715 369.48109 375.4978 380.3134 384.52296 387.5313 396.02616 401.43693 409.35823 415.37498 418.38334 422.62535 427.44093 432.25648 436.46604 439.4744 444.88514 450.9019 456.31263 463.00028 468.411 474.42778 478.63734 484.65406 490.0648 494.30683 497.3152 501.22175 510.61479 516.9345 521.75009 527.1608 532.57156 538.5882">Noclauseinthisdocumentmaybeinterpretedtoexpandaestheticordirectionalauthoritybeyond</tspan></text>
<text xml:space="preserve" transform="matrix(1 0 -0 1 0 792)" font-size="10.9091" font-family="LMRoman10"><tspan y="-674.899" x="71.607 79.483379 85.548839 91.00339 98.87975 101.91248 109.85431 114.70886 120.468868 126.534328 129.56705 132.59978 137.45433 140.48706 144.7307 147.76343 157.15618 161.45436 165.698 171.15254 175.39618 180.25074 186.3162 194.19257 200.25803 203.29076 206.32349 211.17804 217.2435 222.09806 230.59626 236.66172 242.4108 247.26535 255.20719 261.27265 266.7272 274.60359 279.45814 284.9127 290.97816 294.31636 299.1709 307.08 313.4509 318.6109 326.18183 331.03639 335.31275">whatisexplicitlystated.Silencedoesnotconferpower.</tspan></text>
<text xml:space="preserve" transform="matrix(1.0099504 0 -0 .99014756 0 792)" font-size="11.017651" font-family="LMRoman10"><tspan y="-661.0884" x="71.290637 79.55387 89.77825 95.28707 99.57294 105.69875 110.60161 119.63608 123.954998 129.46382 132.52672 137.42958 145.48349 150.38636 155.89517 165.07289 174.2506 177.31349 181.59937 185.88523 190.78807 195.69094 203.74485 209.25368 218.28815 223.79698 226.85622 229.91545 232.97469 237.87755 247.49597 256.67366 261.874 272.4069 278.8412 288.44856 293.95738 298.2763 303.78514 309.61344 313.89933 318.80216 329.64353 334.5464 340.0552 349.23289 355.3587 360.86753 365.18644 370.69526 376.82109 379.88398 389.50239 395.6282 398.6911 403.03208 407.9349 412.25386 417.15669 421.44258 424.50547 430.01429 436.1401 441.64894 445.96784 456.50074 462.00956 468.13539 472.42124 478.54707 484.05589 488.3748 491.4377 495.4261 505.94798 512.0848 518.21066 521.2735 526.1764 530.51736">Nootherrole,committee,orofficemaybegrantedcomparablediscretionaryauthorityunless</tspan></text>
<text xml:space="preserve" transform="matrix(1 0 -0 1 0 792)" font-size="10.9091" font-family="LMRoman10"><tspan y="-641.026" x="72 76.85455 82.614559 88.680019 91.712749 94.745479 99.60002 102.63275 106.87639 109.90912 119.30185 124.1564 128.43277 133.28733 138.74187 142.9855 147.84006 157.53826 163.30918 172.70192 178.15647 187.24375 192.0983 198.16376 204.22922 213.3165 218.17105 223.93106 231.81835 236.06198 245.14926 249.3929 255.45836 258.4911 266.422 272.48747 278.24748 283.10203 289.16749 298.25477 303.1093 308.86933 313.11299">explicitlycreatedbyamendmenttothisdocument.</tspan><tspan y="-620.702" x="72 82.00365 88.06911 92.312747 97.767299 103.832759 106.865489 109.89822 112.93095 116.869129 122.62913 130.5164 138.69823 144.76369 149.31279 155.37825 160.8328 166.89826 172.3528 177.20735 182.6619 188.72736 191.76009">Mutability:Unchangeable</tspan></text>
<text xml:space="preserve" transform="matrix(1 0 -0 1 0 792)" font-size="10.9091" font-family="LMRoman10" font-weight="bold"><tspan y="-591.892" x="72 78.272739 81.75274 88.025478 94.29821 97.77821">6.11.7</tspan></text>
<text xml:space="preserve" transform="matrix(1 0 -0 1 0 792)" font-size="10.9091" font-family="LMRoman10" font-weight="bold"><tspan y="-591.892" x="113.4655 121.014598 124.4946 134.94551 138.4255 143.30188 149.40007 154.27645 157.75644 164.02918 171.00009">Limitations</tspan></text>
<text xml:space="preserve" transform="matrix(1 0 -0 1 0 792)" font-size="10.9091" font-family="LMRoman10"><tspan y="-571.299" x="71.607 79.483379 85.548839 94.03611 100.254299 105.70885 111.77431 117.83977 123.90523 128.75978 136.66889 142.73435 146.97798 151.83254 159.41437 164.86891 169.14528 178.84348 183.11985 188.57439 191.60712 196.46167">TheFounderStewardrole:</tspan></text>
<text xml:space="preserve" transform="matrix(1 0 -0 1 0 792)" font-size="10.9091" font-family="LMRoman10"><tspan y="-544.997" x="72">&#x2022;</tspan></text>
<text xml:space="preserve" transform="matrix(1 0 -0 1 0 792)" font-size="10.9091" font-family="LMRoman10"><tspan y="-544.997" x="85.94183 93.81821 99.27276 105.33822 108.67641 113.53096 117.80733 125.73824 131.8037 140.90189 146.05098 153.92736 159.99282 164.84737 169.12374 173.42192 179.48738 182.52011 192.2183 195.25104 201.02196 205.2656 210.12015 214.39652 219.25107 223.54926 227.7929 234.45836 239.31291 245.07292 251.13838 254.17111 258.1093 267.50205 270.53477 276.30567 280.54933 285.40388 289.68025 294.5348 298.83299 303.07664 309.74208 315.19664 323.1057 326.13844 329.17118 335.23664 340.6912 346.75666 351.6112 354.64393 360.09849 366.77485 371.6294 377.3894 381.63307 384.66578 388.90943 391.94215 396.7967 405.88398 410.73854 416.49855">Confersnoownershipinterest,equityinterest,orfinancialentitlement</tspan></text>
<text xml:space="preserve" transform="matrix(1 0 -0 1 0 792)" font-size="10.9091" font-family="LMRoman10"><tspan y="-522.681" x="72">&#x2022;</tspan></text>
<text xml:space="preserve" transform="matrix(1 0 -0 1 0 792)" font-size="10.9091" font-family="LMRoman10"><tspan y="-522.681" x="85.94183 93.81821 99.27276 105.33822 108.67641 113.53096 117.80733 125.73824 131.8037 140.90189 146.96735 153.0328 156.06554 159.09827 164.55281 168.79645 173.651 177.92737 183.38191 190.04738 196.11284 200.96739 205.82195 208.85468 213.15287 216.1856 221.64014 227.7056 231.33834 240.42562 245.88016 251.64017 254.6729 260.73835 269.82563 275.28019 281.34565 285.5893 291.66566 297.1202 301.38569 304.4184 308.3675">Confersnounilateraldecision-makingauthority</tspan></text>
<text xml:space="preserve" transform="matrix(1 0 -0 1 0 792)" font-size="10.9091" font-family="LMRoman10"><tspan y="-500.36503" x="72">&#x2022;</tspan></text>
<text xml:space="preserve" transform="matrix(1 0 -0 1 0 792)" font-size="10.9091" font-family="LMRoman10"><tspan y="-500.36503" x="85.94183 93.81821 99.27276 105.33822 108.67641 113.53096 117.80733 125.73824 131.8037 140.90189 146.35645 151.211 155.45464 164.54192 170.91283 176.06192 183.64376 188.4874">Confersnovetopower</tspan></text>
<text xml:space="preserve" transform="matrix(1 0 -0 1 0 792)" font-size="10.9091" font-family="LMRoman10"><tspan y="-478.04804" x="72">&#x2022;</tspan></text>
<text xml:space="preserve" transform="matrix(1 0 -0 1 0 792)" font-size="10.9091" font-family="LMRoman10"><tspan y="-478.04804" x="85.94183 93.81821 99.27276 105.33822 108.67641 113.53096 117.80733 125.73824 131.8037 140.90189 146.35643 152.72734 157.5819 161.85826 167.3128 171.55644 174.57826 180.0328 186.10918 191.56372 198.22919 203.08374 208.53829 217.62557 226.71285 232.16739 238.23285 247.93105 253.38559 259.45106 263.6947 269.76017 275.21473 279.4911 282.5238 286.462">Confersnooperationalcommandauthority</tspan></text>
<text xml:space="preserve" transform="matrix(1 0 -0 1 0 792)" font-size="10.9091" font-family="LMRoman10"><tspan y="-455.73204" x="72">&#x2022;</tspan></text>
<text xml:space="preserve" transform="matrix(1 0 -0 1 0 792)" font-size="10.9091" font-family="LMRoman10"><tspan y="-455.73204" x="85.94183 95.94548 101.094577 110.498218 116.563678 122.01823 129.89459 135.04369 140.49825 145.3528 149.62917 153.90554 156.93827 163.00373 171.50193 176.35648 180.65467 184.8983 190.35285 196.4183 199.45104 202.48377 206.78195 212.84741 217.70197 227.40016 232.8547 238.0038 243.45836 248.31291 252.58928 258.65473 264.10929 270.17475 275.0293 283.5275 289.59297 293.86933 299.61845 304.473 309.32756 313.62574 317.92393 322.77848">Maynotoverrideestablishedgovernanceprocesses</tspan><tspan y="-429.43104" x="72 82.00365 88.06911 92.312747 97.767299 103.832759 106.865489 109.89822 112.93095 116.869129 122.62913 130.5164 138.69823 144.76369 149.31279 155.37825 160.8328 166.89826 172.3528 177.20735 182.6619 188.72736 191.76009">Mutability:Unchangeable</tspan></text>
<text xml:space="preserve" transform="matrix(1 0 -0 1 0 792)" font-size="10.9091" font-family="LMRoman10" font-weight="bold"><tspan y="-400.62004" x="72 78.272739 81.75274 88.025478 94.29821 97.77821">6.11.8</tspan></text>
<text xml:space="preserve" transform="matrix(1 0 -0 1 0 792)" font-size="10.9091" font-family="LMRoman10" font-weight="bold"><tspan y="-400.62004" x="113.4655 120.43642 127.40733 132.98189 138.55644 144.30554 149.25827 154.211 157.691 163.96373">Succession</tspan></text>
<text xml:space="preserve" transform="matrix(1 0 -0 1 0 792)" font-size="10.9091" font-family="LMRoman10"><tspan y="-380.02705" x="71.607 79.483379 85.548839 94.03611 100.254299 105.70885 111.77431 117.83977 123.90523 128.75978 136.66889 142.73435 146.97798 151.83254 159.41437 164.86891 169.14528 178.84348 183.11985 188.57439 191.60712 200.0944 203.12714 211.06897 215.36716 218.39989 224.46535 229.91989 235.98535 239.01808 244.47263 248.749">TheFounderStewardroleissingular.</tspan><tspan y="-359.70304" x="72 75.93819 82.9091 88.06911 93.52366 98.378208 103.832759 108.07639 112.93094 122.62913 128.38913 137.79279 143.85825 148.7128 154.16735 158.41098 168.10918 173.56372 181.47283 186.9383 192.39284 195.42557 201.49103 207.25104 211.49468 216.94922 221.22559 230.61833 234.8947 239.74925 242.78199 245.81472 251.88018 257.64018 263.70564 266.73835 271.03654 277.102 286.18928 291.04383 296.80384 301.0475 307.72386 311.9675 318.03297 326.52024 330.7966 336.25117 339.28388 344.13844">Ifvacatedbydeathorvoluntaryrelinquishment,therole:</tspan></text>
<text xml:space="preserve" transform="matrix(1 0 -0 1 0 792)" font-size="10.9091" font-family="LMRoman10"><tspan y="-333.40205" x="72">&#x2022;</tspan></text>
<text xml:space="preserve" transform="matrix(1 0 -0 1 0 792)" font-size="10.9091" font-family="LMRoman10"><tspan y="-333.40205" x="85.94183 92.00729 97.7673 102.62186 110.55277 116.61823 122.072788 129.96007 135.41461 141.48007 145.72371 151.17826 160.26554 165.72008 169.96372 172.99645 177.851 183.30554 186.32736 189.36009 198.76375 204.82921 210.28376 214.58194 222.51287 226.7565 235.85469 241.30924 247.06925 256.46199 262.8329 267.68745 271.9638 276.262 281.71656">doesnotautomaticallypasstoanyperson</tspan></text>
<text xml:space="preserve" transform="matrix(1 0 -0 1 0 792)" font-size="10.9091" font-family="LMRoman10"><tspan y="-311.08604" x="72">&#x2022;</tspan></text>
<text xml:space="preserve" transform="matrix(1 0 -0 1 0 792)" font-size="10.9091" font-family="LMRoman10"><tspan y="-311.08604" x="85.94183 95.02911 100.17821 109.58185 115.94186 124.44004 129.29459 134.14914 138.4255 143.26915 152.35643 157.81098 163.88735 166.92008 172.37462 175.39644 178.42917 187.83283 192.10919 196.96375 201.20738 204.24011 208.51648 213.37104">maybeceremoniallyretired</tspan></text>
<text xml:space="preserve" transform="matrix(1 0 -0 1 0 792)" font-size="10.9091" font-family="LMRoman10"><tspan y="-288.76905" x="72">&#x2022;</tspan></text>
<text xml:space="preserve" transform="matrix(1 0 -0 1 0 792)" font-size="10.9091" font-family="LMRoman10"><tspan y="-288.76905" x="85.94183 95.02911 100.17821 109.58185 115.94186 124.44004 128.7164 133.57096 138.4255 143.88005 149.94551 154.2437 158.48734 161.52007 165.7637 171.82917 176.0728 180.92736 190.62555 196.0801 202.14556 205.17829 214.57103 220.34195 229.7347 234.58925 240.34926 246.41472 249.44745 252.48018 257.33473 260.36744 268.2438 273.69837 278.84748 284.31294 289.16749 293.44386 299.5093 304.96388 311.02934 315.88389 324.37117 329.8257 334.68028 338.92393 341.95664 347.4112 357.10939 361.96394 367.4185 373.48396 377.78215 380.81486 385.11305 389.3567 394.21125 399.97126 407.85856 415.73493 418.76765 423.0113 432.70948 438.77494 444.2295 450.29496 453.92768 458.78224 464.2368 469.9968 474.24046 478.5168 483.97138 490.64775 496.7132 500.98957 504.02229 510.08775 514.94229 517.975 524.0404 527.0731 531.9277">maybereconstitutedonlybyexplicitgovernanceactionconsistentwithnon-controlprinciples</tspan><tspan y="-262.46806" x="72 82.00365 88.06911 92.312747 97.767299 103.832759 106.865489 109.89822 112.93095 116.869129 122.62913 130.5164 138.69823 144.76369 149.31279 155.37825 160.8328 166.89826 172.3528 177.20735 182.6619 188.72736 191.76009">Mutability:Unchangeable</tspan></text>
<text xml:space="preserve" transform="matrix(1 0 -0 1 0 792)" font-size="14.3462" font-family="LMRoman12" font-weight="bold"><tspan y="-228.10005" x="72">7</tspan></text>
<text xml:space="preserve" transform="matrix(1 0 -0 1 0 792)" font-size="14.3462" font-family="LMRoman12" font-weight="bold"><tspan y="-228.10005" x="92.185108 102.7726 109.05624 118.02261 122.51298 129.68608 136.0558 145.92598 156.9582 163.55747 171.63437 180.60074 185.0911 194.05747 198.54782 204.83145 209.32181 217.39871 226.36508 232.7348 242.60498 250.45235 259.41874 273.76493 284.61067 292.45805 296.9484 305.91477 313.27436">Ethics,Prohibitions,andValues</tspan></text>
<text xml:space="preserve" transform="matrix(1 0 -0 1 0 792)" font-size="11.9552" font-family="LMRoman12" font-weight="bold"><tspan y="-201.16005" x="72 78.73078 82.47276">7.1</tspan></text>
<text xml:space="preserve" transform="matrix(1 0 -0 1 0 792)" font-size="11.9552" font-family="LMRoman12" font-weight="bold"><tspan y="-201.16005" x="99.29373 108.857898 112.59988 120.07188 127.54388 131.28586 138.75786 149.97183 159.16538 164.66477 171.39554 178.86754 182.60951 190.08152 193.82349 199.05986 202.80184 209.53261 217.00461">BindingProhibitions</tspan></text>
<text xml:space="preserve" transform="matrix(1 0 -0 1 0 792)" font-size="10.9091" font-family="LMRoman10"><tspan y="-180.56705" x="72 80.18182 89.269107 95.64002 100.49457 104.770938 109.06912 114.523677 124.23277 129.68732 137.59642 143.96733 149.71642 155.78188 165.18553 174.27281 179.4219 185.18192">Nopersonorbodymay:</tspan></text>
<text xml:space="preserve" transform="matrix(1 0 -0 1 0 792)" font-size="10.9091" font-family="LMRoman10"><tspan y="-154.26605" x="72">&#x2022;</tspan></text>
<text xml:space="preserve" transform="matrix(1 0 -0 1 0 792)" font-size="10.9091" font-family="LMRoman10"><tspan y="-154.26605" x="85.94183 93.37093 99.130939 105.196399 108.229129 113.68368 116.71641 124.59277 130.04732 134.32369 139.77823 145.23278 151.29824 154.33097 159.18552 164.64006 168.8837 171.91643 177.37097 183.43643 188.89098 195.56735 201.0219 205.32009 209.61827 214.47283 218.71646 226.64739 229.98557 235.44011 243.34922 249.41468 253.69104 256.72377 261.88377 267.33833 271.58198 280.06925 286.44017 291.2947 297.36018 302.21473 305.24745 308.28019">Exploitorganizationalassetsforprivatebenefit</tspan></text>
<text xml:space="preserve" transform="matrix(1 0 -0 1 0 792)" font-size="10.9091" font-family="LMRoman10"><tspan y="-131.95006" x="72">&#x2022;</tspan></text>
<text xml:space="preserve" transform="matrix(1 0 -0 1 0 792)" font-size="10.9091" font-family="LMRoman10"><tspan y="-131.95006" x="85.94183 93.81821 99.27276 108.36004 114.4255 118.701869 124.15642 133.2437 136.27643 140.57462 149.0619 154.83283 160.89829 169.98557 175.44011 185.1383 191.20377 194.2365 199.69104 205.7565 208.78923 212.72742">Compromisehumandignity</tspan></text>
<text xml:space="preserve" transform="matrix(1 0 -0 1 0 792)" font-size="10.9091" font-family="LMRoman10"><tspan y="-109.63306" x="72">&#x2022;</tspan></text>
<text xml:space="preserve" transform="matrix(1 0 -0 1 0 792)" font-size="10.9091" font-family="LMRoman10"><tspan y="-109.63306" x="85.94183 94.12366 100.18912 106.25458 111.10913 115.3855 124.47278 127.50551 133.57097 142.05826 148.12372 153.57826 162.67646 170.24738 175.10193 178.13466 181.47284 186.92739 191.20375">Underminedogwelfare</tspan></text>
<text xml:space="preserve" transform="matrix(1 0 -0 1 0 792)" font-size="10.9091" font-family="LMRoman10"><tspan y="-87.317058" x="72">&#x2022;</tspan></text>
<text xml:space="preserve" transform="matrix(1 0 -0 1 0 792)" font-size="10.9091" font-family="LMRoman10"><tspan y="-87.317058" x="85.94183 93.81821 99.27276 105.33822 110.192768 115.04732 120.50187 127.16733 136.25461 141.70915 145.95279 150.80735 155.08371 158.11644 163.57099 170.23645 173.26918 179.33464 182.68373 188.13828 192.40373 201.49102 206.94556 211.1892 214.22193 219.67647">Concealmaterialinformation</tspan></text>
<text xml:space="preserve" transform="matrix(1 0 -0 1 0 792)" font-size="10.9091" font-family="LMRoman10"><tspan y="-42.112054" x="300.54499 305.99955">30</tspan></text>
</svg>
