<svg xmlns="http://www.w3.org/2000/svg" xmlns:xlink="http://www.w3.org/1999/xlink" xmlns:inkscape="http://www.inkscape.org/namespaces/inkscape" version="1.1" width="612" height="792" viewBox="0 0 612 792">
<text xml:space="preserve" transform="matrix(1 0 -0 1 0 792)" font-size="10.9091" font-family="LMRoman10"><tspan y="-709.041" x="88.364 93.81855 96.85128 113.45493 119.52039 123.76403 129.21858 133.46222 139.52768 147.46952 152.92406 158.98952 168.68772 176.56409 182.62955 186.87319 192.93865 198.39319 202.66956 205.70229 209.65139">5.1StatusandAuthority</tspan></text>
<text xml:space="preserve" transform="matrix(1 0 -0 1 0 792)" font-size="10.9091" font-family="LMRoman10"><tspan y="-709.041" x="219.0114 227.49868 235.98595 244.47322 252.9605 261.44779 269.93507 278.42234 286.9096 295.39689 303.88417 312.3605 320.84779 329.33506 337.82234 346.3096 354.79689 363.28416 371.77143 380.2587 388.74598 397.23326 405.72053 414.2078 422.69508 431.18235 439.66963 448.1569 456.64418 465.13145 473.6187 482.106 490.59327 499.08055 507.5678 516.05508">....................................</tspan></text>
<text xml:space="preserve" transform="matrix(1 0 -0 1 0 792)" font-size="10.9091" font-family="LMRoman10"><tspan y="-709.041" x="529.2114 534.66598">19</tspan></text>
<text xml:space="preserve" transform="matrix(1 0 -0 1 0 792)" font-size="10.9091" font-family="LMRoman10"><tspan y="-695.492" x="88.364 93.81855 96.85128 113.45493 123.45858 126.49131 130.78949 135.08768 138.1204 143.57495">5.2Mission</tspan></text>
<text xml:space="preserve" transform="matrix(1 0 -0 1 0 792)" font-size="10.9091" font-family="LMRoman10"><tspan y="-695.492" x="159.5786 168.06587 176.55315 185.04042 193.5277 202.01497 210.50225 218.98952 227.47679 235.96407 244.45134 252.93862 261.4259 269.91319 278.40046 286.88774 295.375 303.86228 312.34956 320.83683 329.3241 337.81138 346.28773 354.775 363.26228 371.74955 380.23683 388.7241 397.21138 405.69865 414.1859 422.6732 431.16047 439.64775 448.135 456.62229 465.10957 473.59684 482.0841 490.57139 499.05867 507.54594 516.0332">...........................................</tspan></text>
<text xml:space="preserve" transform="matrix(1 0 -0 1 0 792)" font-size="10.9091" font-family="LMRoman10"><tspan y="-695.492" x="529.1896 534.6441">20</tspan></text>
<text xml:space="preserve" transform="matrix(1 0 -0 1 0 792)" font-size="10.9091" font-family="LMRoman10" font-weight="bold"><tspan y="-671.034" x="72 88.363658 98.22548 104.149127 110.42186 116.17095 121.341869 128.31278 134.41097 141.38188 146.95644 156.88373 165.80738 172.4292 179.40012 182.88011 188.62921">6GovernanceBodies</tspan></text>
<text xml:space="preserve" transform="matrix(1 0 -0 1 0 792)" font-size="10.9091" font-family="LMRoman10" font-weight="bold"><tspan y="-671.034" x="527.45498 533.72769">20</tspan></text>
<text xml:space="preserve" transform="matrix(1 0 -0 1 0 792)" font-size="10.9091" font-family="LMRoman10"><tspan y="-657.484" x="88.364 93.81855 96.85128 113.45493 122.01858 127.16767 132.63314 137.48769 141.76406 147.82952 150.86225 156.9277 166.01499 173.89136 179.95682 184.20046 190.26592 195.72046 199.99683 203.02956 206.96775">6.1GoverningAuthority</tspan></text>
<text xml:space="preserve" transform="matrix(1 0 -0 1 0 792)" font-size="10.9091" font-family="LMRoman10"><tspan y="-657.484" x="219.02231 227.50959 235.99686 244.47322 252.9605 261.44779 269.93507 278.42234 286.9096 295.39689 303.88417 312.37144 320.8587 329.34599 337.83326 346.32054 354.8078 363.29508 371.78236 380.26963 388.7569 397.24418 405.73146 414.21873 422.706 431.19328 439.68055 448.16783 456.6551 465.14237 473.62965 482.1169 490.59327 499.08055 507.5678 516.05508">....................................</tspan></text>
<text xml:space="preserve" transform="matrix(1 0 -0 1 0 792)" font-size="10.9091" font-family="LMRoman10"><tspan y="-657.484" x="529.22238 534.6769">20</tspan></text>
<text xml:space="preserve" transform="matrix(1 0 -0 1 0 792)" font-size="10.9091" font-family="LMRoman10"><tspan y="-643.935" x="88.364 93.81855 96.85128 113.45493 121.33131 126.78586 132.54587 136.7895 141.06587 146.52042 149.55315 152.58588 157.44043 167.14954 173.215 179.28046 185.34592 189.6441 192.67684 198.7423 201.77503 207.22957 211.50594 220.89868 228.77506 233.05142 237.90598 243.36052 247.60416 250.63689 256.09144 265.7896 273.67689 279.74235 283.986 290.05146 295.506 299.78239 302.8151 306.7533">6.2ControlledSubsidiaryCreationAuthority</tspan></text>
<text xml:space="preserve" transform="matrix(1 0 -0 1 0 792)" font-size="10.9091" font-family="LMRoman10"><tspan y="-643.935" x="320.8697 329.35697 337.84425 346.3315 354.8188 363.30607 371.79335 380.2806 388.76789 397.25517 405.74244 414.2297 422.71699 431.20426 439.69154 448.1788 456.66609 465.15336 473.64064 482.1279 490.61518 499.10246 507.58973 516.0661">........................</tspan></text>
<text xml:space="preserve" transform="matrix(1 0 -0 1 0 792)" font-size="10.9091" font-family="LMRoman10"><tspan y="-643.935" x="529.2334 534.6879">20</tspan></text>
<text xml:space="preserve" transform="matrix(1 0 -0 1 0 792)" font-size="10.9091" font-family="LMRoman10"><tspan y="-630.386" x="88.364 93.81855 96.85128 113.45493 119.52039 125.58585 131.6513 135.9495 138.98223 145.04769 148.08042 153.53496 157.81133 167.21498 175.70226 181.15682 186.01137 190.28774 194.58592 197.61865 203.0732 208.8332 216.70958 222.16413 228.22959 237.93869 246.42597 252.79688 257.65144 261.9278 267.38236 271.626 274.65873 280.11329 286.17875 291.6333 298.29875 302.2369 308.30238 314.36784 319.22239 325.5933 330.44786 336.5133 342.57878 347.43333 353.49879 358.35334">6.3SubsidiaryOversightandOperationalIndependence</tspan></text>
<text xml:space="preserve" transform="matrix(1 0 -0 1 0 792)" font-size="10.9091" font-family="LMRoman10"><tspan y="-630.386" x="371.83699 380.32426 388.81153 397.2988 405.78608 414.27336 422.76063 431.2479 439.73518 448.22245 456.70973 465.197 473.68428 482.17155 490.6479 499.13517 507.62245 516.1097">..................</tspan></text>
<text xml:space="preserve" transform="matrix(1 0 -0 1 0 792)" font-size="10.9091" font-family="LMRoman10"><tspan y="-630.386" x="529.277 534.7315">20</tspan></text>
<text xml:space="preserve" transform="matrix(1 0 -0 1 0 792)" font-size="10.9091" font-family="LMRoman10"><tspan y="-616.837" x="88.364 93.81855 96.85128 113.45493 119.52039 125.58585 131.6513 135.9495 138.98223 145.04769 148.08042 153.53496 157.81133 167.21498 175.09136 180.5459 186.61136 189.64409 192.67682 195.70955 200.5641 204.80774 212.73867 218.1932 224.25867 233.95687 241.98596 246.84052 249.87325 255.32779 259.57145 264.426 270.49147 274.12419 281.25874 286.7133 290.98966 294.92787 304.3206 311.2915 315.56788 321.02244 327.0879 331.38609 336.84065 341.6952 345.93885 348.97157 354.42613 360.49159">6.4SubsidiaryConflictsandRelated-PartyTransactions</tspan></text>
<text xml:space="preserve" transform="matrix(1 0 -0 1 0 792)" font-size="10.9091" font-family="LMRoman10"><tspan y="-616.837" x="371.7825 380.26979 388.75706 397.24433 405.7316 414.21888 422.70616 431.19343 439.6807 448.16798 456.65525 465.14253 473.6298 482.11708 490.60435 499.0916 507.5789 516.06619">..................</tspan></text>
<text xml:space="preserve" transform="matrix(1 0 -0 1 0 792)" font-size="10.9091" font-family="LMRoman10"><tspan y="-616.837" x="529.22256 534.67709">21</tspan></text>
<text xml:space="preserve" transform="matrix(1 0 -0 1 0 792)" font-size="10.9091" font-family="LMRoman10"><tspan y="-603.28799" x="88.364 93.81855 96.85128 113.45493 119.52039 125.58585 131.6513 135.9495 138.98223 145.04769 148.08042 153.53496 157.81133 167.21498 174.64408 178.92044 184.37499 187.40772 190.44045 198.31682 206.65137 209.6841 213.98229 218.22592 222.50229 225.53502 231.60048 237.66594 241.90958 244.9423 250.39685 260.09504 265.5496 271.62596 281.32414 289.3532 294.20777 298.50596 303.3605 307.63688 313.09144 321.5787 328.71327 334.16783 337.20054 340.23326 345.0769">6.5SubsidiaryProfitDistributionandReservePolicy</tspan></text>
<text xml:space="preserve" transform="matrix(1 0 -0 1 0 792)" font-size="10.9091" font-family="LMRoman10"><tspan y="-603.28799" x="354.84056 363.32783 371.8151 380.30238 388.78965 397.27693 405.7642 414.24055 422.7278 431.2151 439.70237 448.18965 456.6769 465.16419 473.65147 482.13874 490.626 499.11329 507.60057 516.0878">....................</tspan></text>
<text xml:space="preserve" transform="matrix(1 0 -0 1 0 792)" font-size="10.9091" font-family="LMRoman10"><tspan y="-603.28799" x="529.2442 534.6987">21</tspan></text>
<text xml:space="preserve" transform="matrix(1 0 -0 1 0 792)" font-size="10.9091" font-family="LMRoman10"><tspan y="-589.738" x="88.364 93.81855 96.85128 113.45493 119.52039 125.58585 131.6513 135.9495 138.98223 145.04769 148.08042 153.53496 157.81133 167.21498 173.28044 179.04045 185.10591 189.34955 195.41501 200.5641 208.44048 214.50594 221.18231 229.51686 232.54959 238.00415 242.8587 247.15689 251.40053 260.4878 265.34236 271.10237 275.346 282.01145 287.466 295.38603 303.72059 306.7533 311.05149 315.34968 320.80424 323.83695 329.9024 334.14607 337.17878 342.63334 352.3315 360.2079 366.27336 370.517 376.58247 382.03703 386.3134 389.3461 393.2952">6.6SubsidiaryShutdown,Divestment,orDissolutionAuthority</tspan></text>
<text xml:space="preserve" transform="matrix(1 0 -0 1 0 792)" font-size="10.9091" font-family="LMRoman10"><tspan y="-589.738" x="405.7425 414.22978 422.71705 431.2043 439.6916 448.17887 456.66615 465.1534 473.6407 482.12797 490.61524 499.1025 507.58979 516.077">..............</tspan></text>
<text xml:space="preserve" transform="matrix(1 0 -0 1 0 792)" font-size="10.9091" font-family="LMRoman10"><tspan y="-589.738" x="529.2334 534.6879">22</tspan></text>
<text xml:space="preserve" transform="matrix(1 0 -0 1 0 792)" font-size="10.9091" font-family="LMRoman10"><tspan y="-576.18899" x="88.364 93.81855 96.85128 113.45493 123.45858 126.49131 130.78949 135.08768 138.1204 143.57495 153.28406 160.71315 164.98952 170.44406 174.6877 179.54225 184.3968 188.64044 191.66226 197.1168 206.82592 215.00774 221.0732 227.13866 231.99321 239.90232 245.96778 252.03324 258.0987 262.39689 265.4296 271.49507 274.52778 279.98234 284.2587 293.66236 301.99693 307.45149 316.53877 319.57148 325.63694 331.0915 337.15696 342.0115">6.7MissionProtectionUnderSubsidiaryDominance</tspan></text>
<text xml:space="preserve" transform="matrix(1 0 -0 1 0 792)" font-size="10.9091" font-family="LMRoman10"><tspan y="-576.18899" x="354.8297 363.317 371.80427 380.29154 388.7788 397.26609 405.75337 414.24064 422.7279 431.21519 439.69154 448.1788 456.66609 465.15336 473.64064 482.1279 490.61518 499.10246 507.58973 516.07699">....................</tspan></text>
<text xml:space="preserve" transform="matrix(1 0 -0 1 0 792)" font-size="10.9091" font-family="LMRoman10"><tspan y="-576.18899" x="529.24429 534.6988">22</tspan></text>
<text xml:space="preserve" transform="matrix(1 0 -0 1 0 792)" font-size="10.9091" font-family="LMRoman10"><tspan y="-562.63998" x="88.364 93.81855 96.85128 113.45493 119.67312 125.12767 131.19313 137.25859 143.32405 148.1786 156.0877 162.15317 166.3968 170.67317 176.12772 180.37136 185.2259 190.68045 193.71318 202.20047 210.3823 214.65866 218.9023 221.93503 226.78958 232.85504 235.88777 241.34232 245.58596 248.61869 254.07323">6.8FounderStrategicArticulation</tspan></text>
<text xml:space="preserve" transform="matrix(1 0 -0 1 0 792)" font-size="10.9091" font-family="LMRoman10"><tspan y="-562.63998" x="269.95686 278.44413 286.9314 295.41868 303.90596 312.39323 320.8805 329.36778 337.85505 346.34233 354.8296 363.31687 371.80415 380.2914 388.7787 397.26597 405.75325 414.22959 422.71687 431.20414 439.6914 448.17869 456.66596 465.15324 473.6405 482.12779 490.61506 499.10234 507.5896 516.07687">..............................</tspan></text>
<text xml:space="preserve" transform="matrix(1 0 -0 1 0 792)" font-size="10.9091" font-family="LMRoman10"><tspan y="-562.63998" x="529.24417 534.69869">23</tspan></text>
<text xml:space="preserve" transform="matrix(1 0 -0 1 0 792)" font-size="10.9091" font-family="LMRoman10"><tspan y="-549.09097" x="88.364 93.81855 96.85128 113.45493 122.01858 127.16767 132.63314 137.48769 141.76406 147.82952 150.86225 156.9277 166.01499 173.73863 179.49863 185.56409 194.95684 202.8332 208.28775 217.37503 223.74594 229.20049 233.49868 236.5314 240.77504 243.80777 249.26232 255.32778 261.99324 268.0587 272.91325 275.94596 280.8005 285.65507 289.8987 292.93144 298.386 304.45146 311.11689 316.57145 322.6478 332.34599 340.37507 345.2296 354.3169 359.466 364.626 370.08058">6.9GoverningBodyComposition,Selection,andRemoval</tspan></text>
<text xml:space="preserve" transform="matrix(1 0 -0 1 0 792)" font-size="10.9091" font-family="LMRoman10"><tspan y="-549.09097" x="380.26966 388.75694 397.2442 405.73149 414.21876 422.70603 431.1933 439.68058 448.16786 456.65513 465.1424 473.62968 482.11695 490.60423 499.0915 507.57878 516.06607">.................</tspan></text>
<text xml:space="preserve" transform="matrix(1 0 -0 1 0 792)" font-size="10.9091" font-family="LMRoman10"><tspan y="-549.09097" x="529.2224 534.67697">23</tspan></text>
<text xml:space="preserve" transform="matrix(1 0 -0 1 0 792)" font-size="10.9091" font-family="LMRoman10"><tspan y="-535.54196" x="113.455 118.90955 121.94228 127.396839 130.42957 148.36412 156.2405 161.69504 170.78232 177.15323 182.60778 186.90596 189.93869 194.18233 197.21506 202.6696">6.9.1Composition</tspan></text>
<text xml:space="preserve" transform="matrix(1 0 -0 1 0 792)" font-size="10.9091" font-family="LMRoman10"><tspan y="-535.54196" x="218.9787 227.46598 235.95325 244.44052 252.9278 261.41508 269.90235 278.38963 286.8769 295.36418 303.85145 312.3387 320.826 329.31327 337.7896 346.2769 354.76417 363.25144 371.7387 380.22599 388.71327 397.20054 405.6878 414.17509 422.66236 431.14964 439.6369 448.12419 456.61146 465.09873 473.586 482.07328 490.56056 499.04783 507.5351 516.02236">....................................</tspan></text>
<text xml:space="preserve" transform="matrix(1 0 -0 1 0 792)" font-size="10.9091" font-family="LMRoman10"><tspan y="-535.54196" x="529.1787 534.63327">23</tspan></text>
<text xml:space="preserve" transform="matrix(1 0 -0 1 0 792)" font-size="10.9091" font-family="LMRoman10"><tspan y="-521.99197" x="113.455 118.90955 121.94228 127.396839 130.42957 148.36412 155.79322 158.82595 161.85868 167.31322 170.34595 176.4114 179.44414 182.47687 185.5096 189.4587 198.85144 204.30599 210.37145 220.06964 228.40419 231.43692 235.7351 241.49512 247.56058 253.01512 256.04786 259.08058 262.11329 265.14604 270.00059 275.45515 279.6988 282.7315 288.18608">6.9.2EligibilityandDisqualification</tspan></text>
<text xml:space="preserve" transform="matrix(1 0 -0 1 0 792)" font-size="10.9091" font-family="LMRoman10"><tspan y="-521.99197" x="303.88429 312.37156 320.85884 329.3461 337.83338 346.32066 354.80793 363.2952 371.78248 380.26976 388.75703 397.2443 405.73158 414.21885 422.70613 431.1934 439.68067 448.16795 456.6552 465.1425 473.62977 482.11705 490.6043 499.09159 507.57887 516.05526">..........................</tspan></text>
<text xml:space="preserve" transform="matrix(1 0 -0 1 0 792)" font-size="10.9091" font-family="LMRoman10"><tspan y="-521.99197" x="529.22256 534.67709">23</tspan></text>
<text xml:space="preserve" transform="matrix(1 0 -0 1 0 792)" font-size="10.9091" font-family="LMRoman10"><tspan y="-508.44294" x="113.455 118.90955 121.94228 127.396839 130.42957 148.36412 154.42958 159.28414 162.31687 167.17142 172.02597 176.2696 179.30234 184.75688 194.46599 199.92053 205.986 215.68419 223.71329 228.56784 234.6333 237.66603 243.12058 247.97513 252.82968 261.91697 266.7715 272.53153">6.9.3SelectionandReplacement</tspan></text>
<text xml:space="preserve" transform="matrix(1 0 -0 1 0 792)" font-size="10.9091" font-family="LMRoman10"><tspan y="-508.44294" x="286.92066 295.40794 303.8952 312.38249 320.86976 329.35704 337.8443 346.33158 354.81886 363.30613 371.7934 380.28068 388.76795 397.25523 405.7425 414.22978 422.71705 431.2043 439.6916 448.17887 456.66615 465.1534 473.6407 482.12797 490.61524 499.1025 507.58979 516.06619">............................</tspan></text>
<text xml:space="preserve" transform="matrix(1 0 -0 1 0 792)" font-size="10.9091" font-family="LMRoman10"><tspan y="-508.44294" x="529.23348 534.688">24</tspan></text>
<text xml:space="preserve" transform="matrix(1 0 -0 1 0 792)" font-size="10.9091" font-family="LMRoman10"><tspan y="-494.89393" x="113.455 118.90955 121.94228 127.396839 130.42957 147.97139 154.9423 159.79686 164.07323 173.1605 181.09143 186.54598 192.61144 202.32054 209.28055 214.1351 218.41147 231.1424 237.96059 240.99332 250.0806 253.11333 257.35697">6.9.4TermsandTermLimits</tspan></text>
<text xml:space="preserve" transform="matrix(1 0 -0 1 0 792)" font-size="10.9091" font-family="LMRoman10"><tspan y="-494.89393" x="269.8915 278.37879 286.86607 295.35334 303.8406 312.32789 320.81517 329.30244 337.7897 346.27699 354.76426 363.25154 371.7388 380.22608 388.70243 397.1897 405.67698 414.16426 422.65153 431.1388 439.62608 448.11335 456.60063 465.0879 473.57518 482.06245 490.5497 499.037 507.52427 516.01156">..............................</tspan></text>
<text xml:space="preserve" transform="matrix(1 0 -0 1 0 792)" font-size="10.9091" font-family="LMRoman10"><tspan y="-494.89393" x="529.1679 534.62246">24</tspan></text>
<text xml:space="preserve" transform="matrix(1 0 -0 1 0 792)" font-size="10.9091" font-family="LMRoman10"><tspan y="-481.3449" x="113.455 118.90955 121.94228 127.396839 130.42957 148.36412 154.42958 158.67322 164.12776 169.5823 175.03685 179.8914 184.16777 187.2005 193.26596 202.36415 210.39325 215.2478 221.00782 227.07328 230.106 234.38237 239.23693 248.3242 253.17876 258.93876">6.9.5StaggeringRequirement</tspan></text>
<text xml:space="preserve" transform="matrix(1 0 -0 1 0 792)" font-size="10.9091" font-family="LMRoman10"><tspan y="-481.3449" x="269.93516 278.42243 286.9097 295.39698 303.88426 312.37153 320.8588 329.34608 337.83335 346.32063 354.8079 363.29518 371.78245 380.2697 388.74607 397.23335 405.7206 414.2079 422.69517 431.18244 439.6697 448.15699 456.64427 465.13154 473.6188 482.10609 490.59336 499.08064 507.5679 516.0552">..............................</tspan></text>
<text xml:space="preserve" transform="matrix(1 0 -0 1 0 792)" font-size="10.9091" font-family="LMRoman10"><tspan y="-481.3449" x="529.21157 534.6661">24</tspan></text>
<text xml:space="preserve" transform="matrix(1 0 -0 1 0 792)" font-size="10.9091" font-family="LMRoman10"><tspan y="-467.7959" x="113.455 118.90955 121.94228 127.396839 130.42957 148.36412 156.39322 161.24777 170.33506 175.49506 180.64415 186.0987">6.9.6Removal</tspan></text>
<text xml:space="preserve" transform="matrix(1 0 -0 1 0 792)" font-size="10.9091" font-family="LMRoman10"><tspan y="-467.7959" x="193.52779 202.01506 210.50234 218.9787 227.46598 235.95325 244.44052 252.9278 261.41508 269.90235 278.38963 286.8769 295.36418 303.85145 312.3387 320.826 329.31327 337.80055 346.2878 354.7751 363.26237 371.74964 380.2369 388.72419 397.21147 405.69874 414.186 422.67329 431.16056 439.64784 448.1351 456.62239 465.09873 473.586 482.07328 490.56056 499.04783 507.5351 516.02236">.......................................</tspan></text>
<text xml:space="preserve" transform="matrix(1 0 -0 1 0 792)" font-size="10.9091" font-family="LMRoman10"><tspan y="-467.7959" x="529.18966 534.64419">24</tspan></text>
<text xml:space="preserve" transform="matrix(1 0 -0 1 0 792)" font-size="10.9091" font-family="LMRoman10"><tspan y="-454.2469" x="113.455 118.90955 121.94228 127.396839 130.42957 148.36412 156.8514 162.91686 168.3714 172.64777 178.71323 191.44416 196.8987 202.96416 212.66236 219.93872 225.39327 229.6369 232.66963 238.73509">6.9.7QuorumandVoting</tspan></text>
<text xml:space="preserve" transform="matrix(1 0 -0 1 0 792)" font-size="10.9091" font-family="LMRoman10"><tspan y="-454.2469" x="252.93874 261.42604 269.9133 278.40058 286.88786 295.37513 303.8624 312.34968 320.83695 329.32423 337.8115 346.29878 354.78605 363.27333 371.7606 380.24787 388.73515 397.2224 405.7097 414.19697 422.68424 431.1715 439.65879 448.14607 456.63334 465.1206 473.60789 482.09516 490.5715 499.05879 507.54606 516.0333">................................</tspan></text>
<text xml:space="preserve" transform="matrix(1 0 -0 1 0 792)" font-size="10.9091" font-family="LMRoman10"><tspan y="-454.2469" x="529.2006 534.65518">25</tspan></text>
<text xml:space="preserve" transform="matrix(1 0 -0 1 0 792)" font-size="10.9091" font-family="LMRoman10"><tspan y="-440.6969" x="113.455 118.90955 121.94228 127.396839 130.42957 147.96048 155.23685 160.69139 165.54595 171.00049 177.06595 181.9205 191.31325 199.49507 204.94962 211.01508 217.08054 220.11327 223.146 229.21146">6.9.8VacancyHandling</tspan></text>
<text xml:space="preserve" transform="matrix(1 0 -0 1 0 792)" font-size="10.9091" font-family="LMRoman10"><tspan y="-440.6969" x="244.46237 252.94965 261.43693 269.9242 278.41148 286.89875 295.38603 303.8733 312.36058 320.84785 329.3351 337.8224 346.30967 354.79695 363.2842 371.77149 380.25877 388.74604 397.2333 405.72059 414.20787 422.69514 431.1824 439.65876 448.14604 456.6333 465.12059 473.60786 482.09513 490.5824 499.06968 507.55696 516.0442">.................................</tspan></text>
<text xml:space="preserve" transform="matrix(1 0 -0 1 0 792)" font-size="10.9091" font-family="LMRoman10"><tspan y="-440.6969" x="529.2115 534.666">25</tspan></text>
<text xml:space="preserve" transform="matrix(1 0 -0 1 0 792)" font-size="10.9091" font-family="LMRoman10"><tspan y="-427.1479" x="88.364 93.81855 96.85128 102.30583 113.45493 121.63676 127.09131 133.15677 136.7895 144.06587 149.52042 153.76406 156.79679 162.86225 171.94953 180.51317 185.66226 191.12773 195.98229 200.25865 206.32411 209.35684 215.4223 224.50959 232.23323 237.99323 244.05869 253.45143 261.3278 267.39326 272.8478 275.88053 283.80055 288.0442 295.4733 299.74967 305.49879 310.35334 315.2079 321.27336 327.3388 331.61518 337.06974 343.7461 349.81156 354.0552 358.90977 366.48069 371.93525 376.2116 385.9098 393.93888 399.39344 402.42616 407.2807">6.10Non-VotingGoverningBodyChair(ProceduralStewardRole)</tspan></text>
<text xml:space="preserve" transform="matrix(1 0 -0 1 0 792)" font-size="10.9091" font-family="LMRoman10"><tspan y="-427.1479" x="422.7171 431.20439 439.69166 448.17893 456.6662 465.15348 473.64076 482.12803 490.6153 499.10258 507.58985 516.0771">............</tspan></text>
<text xml:space="preserve" transform="matrix(1 0 -0 1 0 792)" font-size="10.9091" font-family="LMRoman10"><tspan y="-427.1479" x="529.23348 534.688">25</tspan></text>
<text xml:space="preserve" transform="matrix(1 0 -0 1 0 792)" font-size="10.9091" font-family="LMRoman10"><tspan y="-413.59889" x="113.455 118.90955 121.94228 127.396839 132.85138 135.88411 148.36412 156.39322 161.84777 164.8805 173.3787 181.71324 186.5678 189.60053 192.63326 198.69872 201.73145 205.97509 209.00782 214.46236 220.52782">6.10.1RoleDefinition.</tspan></text>
<text xml:space="preserve" transform="matrix(1 0 -0 1 0 792)" font-size="10.9091" font-family="LMRoman10"><tspan y="-413.59889" x="227.49874 235.98601 244.46237 252.94965 261.43693 269.9242 278.41148 286.89875 295.38603 303.8733 312.36058 320.84785 329.3351 337.8224 346.30967 354.79695 363.2842 371.77149 380.25877 388.74604 397.2333 405.72059 414.20787 422.69514 431.1824 439.66969 448.15696 456.64424 465.1315 473.61878 482.10606 490.5824 499.06968 507.55696 516.0442">...................................</tspan></text>
<text xml:space="preserve" transform="matrix(1 0 -0 1 0 792)" font-size="10.9091" font-family="LMRoman10"><tspan y="-413.59889" x="529.2115 534.666">25</tspan></text>
<text xml:space="preserve" transform="matrix(1 0 -0 1 0 792)" font-size="10.9091" font-family="LMRoman10"><tspan y="-400.04988" x="113.455 118.90955 121.94228 127.396839 132.85138 135.88411 148.36412 154.5823 160.03685 166.10231 172.16777 178.23323 183.08779 190.99689 198.87326 204.93872 210.39327 213.426 221.34601 229.68056 234.53511 237.87329 243.32784 249.3933 252.42603 260.3024 264.54606 272.72789 278.18244 284.2479 287.8806 295.15699 300.61155 304.8552 307.8879 313.95338 319.40794 323.65159">6.10.2FounderChairDefault(Non-Voting).</tspan></text>
<text xml:space="preserve" transform="matrix(1 0 -0 1 0 792)" font-size="10.9091" font-family="LMRoman10"><tspan y="-400.04988" x="337.8334 346.32069 354.80796 363.29524 371.7825 380.26979 388.74613 397.2334 405.72068 414.20796 422.69523 431.1825 439.66978 448.15705 456.64433 465.1316 473.61888 482.10615 490.5934 499.0807 507.56797 516.05526">......................</tspan></text>
<text xml:space="preserve" transform="matrix(1 0 -0 1 0 792)" font-size="10.9091" font-family="LMRoman10"><tspan y="-400.04988" x="529.2116 534.66616">25</tspan></text>
<text xml:space="preserve" transform="matrix(1 0 -0 1 0 792)" font-size="10.9091" font-family="LMRoman10"><tspan y="-386.50086" x="113.455 118.90955 121.94228 127.396839 132.85138 135.88411 147.96048 155.23685 160.69139 164.93503 167.96776 174.03322 183.1205 190.54959 194.82596 200.2805 206.34597 209.3787 215.44416 218.47689 222.72052 225.75325 231.2078 237.27326">6.10.3VotingProhibition.</tspan></text>
<text xml:space="preserve" transform="matrix(1 0 -0 1 0 792)" font-size="10.9091" font-family="LMRoman10"><tspan y="-386.50086" x="244.47327 252.96054 261.4478 269.9351 278.42237 286.8987 295.386 303.87327 312.36054 320.8478 329.33509 337.82237 346.30964 354.7969 363.28419 371.77146 380.25874 388.746 397.23329 405.72056 414.20783 422.6951 431.18238 439.66966 448.15693 456.6442 465.13148 473.61875 482.10603 490.5933 499.08058 507.56785 516.0551">.................................</tspan></text>
<text xml:space="preserve" transform="matrix(1 0 -0 1 0 792)" font-size="10.9091" font-family="LMRoman10"><tspan y="-386.50086" x="529.2115 534.666">25</tspan></text>
<text xml:space="preserve" transform="matrix(1 0 -0 1 0 792)" font-size="10.9091" font-family="LMRoman10"><tspan y="-372.95088" x="113.455 118.90955 121.94228 127.396839 132.85138 135.88411 148.36412 156.8514 162.91686 168.3714 172.64777 178.71323 191.44416 198.87325 204.63326 209.48781 212.52054 218.586 222.88419 225.91692 231.37146 237.43692">6.10.4QuorumExclusion.</tspan></text>
<text xml:space="preserve" transform="matrix(1 0 -0 1 0 792)" font-size="10.9091" font-family="LMRoman10"><tspan y="-372.95088" x="244.46239 252.94966 261.43696 269.92424 278.4115 286.89878 295.38606 303.87333 312.3606 320.84788 329.33515 337.82243 346.3097 354.79698 363.28425 371.7715 380.2588 388.74607 397.23335 405.7206 414.2079 422.69517 431.18244 439.65879 448.14607 456.63334 465.1206 473.60789 482.09516 490.58244 499.0697 507.55699 516.04428">.................................</tspan></text>
<text xml:space="preserve" transform="matrix(1 0 -0 1 0 792)" font-size="10.9091" font-family="LMRoman10"><tspan y="-372.95088" x="529.21157 534.6661">26</tspan></text>
<text xml:space="preserve" transform="matrix(1 0 -0 1 0 792)" font-size="10.9091" font-family="LMRoman10"><tspan y="-359.40187" x="113.455 118.90955 121.94228 127.396839 132.85138 135.88411 148.36412 158.36777 163.22232 172.01506 178.37506 183.22962 191.14963 197.21509 201.45873 206.91327 211.1569 217.22237 225.15329 231.21875 236.0733 242.13877 247.5933 251.86968 257.32423 261.56788 264.6006 270.05516 276.1206">6.10.5MemberStatusSeparation.</tspan></text>
<text xml:space="preserve" transform="matrix(1 0 -0 1 0 792)" font-size="10.9091" font-family="LMRoman10"><tspan y="-359.40187" x="286.9097 295.39698 303.88426 312.37153 320.8588 329.34608 337.83335 346.32063 354.8079 363.29518 371.78245 380.2697 388.74607 397.23335 405.7206 414.2079 422.69517 431.18244 439.6697 448.15699 456.64427 465.13154 473.6188 482.10609 490.59336 499.08064 507.5679 516.0552">............................</tspan></text>
<text xml:space="preserve" transform="matrix(1 0 -0 1 0 792)" font-size="10.9091" font-family="LMRoman10"><tspan y="-359.40187" x="529.21157 534.6661">26</tspan></text>
<text xml:space="preserve" transform="matrix(1 0 -0 1 0 792)" font-size="10.9091" font-family="LMRoman10"><tspan y="-345.85285" x="113.455 118.90955 121.94228 127.396839 132.85138 135.88411 147.96048 155.84777 161.91323 166.15686 172.22232 177.67687 181.95323 184.98596 188.92415 198.3169 205.13509 208.16782 217.2551 220.28783 224.53147 229.98601 234.22965 237.26238 242.71692 248.78238">6.10.6AuthorityLimitation.</tspan></text>
<text xml:space="preserve" transform="matrix(1 0 -0 1 0 792)" font-size="10.9091" font-family="LMRoman10"><tspan y="-345.85285" x="261.42604 269.9133 278.40058 286.88786 295.37513 303.8624 312.34968 320.83695 329.32423 337.8115 346.29878 354.78605 363.27333 371.7606 380.24787 388.73515 397.2224 405.7097 414.19697 422.68424 431.1715 439.65879 448.14607 456.63334 465.10969 473.59696 482.08424 490.5715 499.05879 507.54606 516.0333">...............................</tspan></text>
<text xml:space="preserve" transform="matrix(1 0 -0 1 0 792)" font-size="10.9091" font-family="LMRoman10"><tspan y="-345.85285" x="529.2006 534.65518">26</tspan></text>
<text xml:space="preserve" transform="matrix(1 0 -0 1 0 792)" font-size="10.9091" font-family="LMRoman10"><tspan y="-332.30384" x="113.455 118.90955 121.94228 127.396839 132.85138 135.88411 147.96048 156.1423 161.59685 166.4514 172.51686 178.58232 187.68051 195.55689 201.01143 206.77144 211.01508 215.29145 220.74599 227.41146 233.47692 238.93146 242.26964 247.12419 252.57874 258.6442 264.09877 268.37513 274.44059">6.10.7AgendaControlSafeguard.</tspan></text>
<text xml:space="preserve" transform="matrix(1 0 -0 1 0 792)" font-size="10.9091" font-family="LMRoman10"><tspan y="-332.30384" x="286.90968 295.39695 303.88423 312.3715 320.85877 329.34605 337.8333 346.3206 354.80787 363.29515 371.7824 380.26969 388.74604 397.2333 405.72059 414.20787 422.69514 431.1824 439.66969 448.15696 456.64424 465.1315 473.61878 482.10606 490.59333 499.0806 507.56788 516.0551">............................</tspan></text>
<text xml:space="preserve" transform="matrix(1 0 -0 1 0 792)" font-size="10.9091" font-family="LMRoman10"><tspan y="-332.30384" x="529.2115 534.666">26</tspan></text>
<text xml:space="preserve" transform="matrix(1 0 -0 1 0 792)" font-size="10.9091" font-family="LMRoman10"><tspan y="-318.75483" x="113.455 118.90955 121.94228 127.396839 132.85138 135.88411 148.36412 156.2405 162.30596 167.7605 170.79323 178.71324 186.89507 191.74962 197.81508 202.05872 206.33509 211.78963 214.82236 217.85509 221.79328 231.18602 236.64057 242.70603 252.41513 258.62245 264.077 268.93156 271.96427 274.99699 278.0297 282.27336 287.7279 291.97157 295.00428 300.45884 310.157 318.0334 323.48796 329.5643 333.8625 338.10615 342.3825 347.83708 350.86979 356.6298 360.87345 365.17164">6.10.8ChairNeutralityandFacilitationConstraints.</tspan></text>
<text xml:space="preserve" transform="matrix(1 0 -0 1 0 792)" font-size="10.9091" font-family="LMRoman10"><tspan y="-318.75483" x="371.7716 380.25889 388.74617 397.23344 405.7207 414.20799 422.69526 431.18254 439.6698 448.15708 456.64436 465.13163 473.6189 482.10618 490.59346 499.08073 507.568 516.05526">..................</tspan></text>
<text xml:space="preserve" transform="matrix(1 0 -0 1 0 792)" font-size="10.9091" font-family="LMRoman10"><tspan y="-318.75483" x="529.2116 534.66616">26</tspan></text>
<text xml:space="preserve" transform="matrix(1 0 -0 1 0 792)" font-size="10.9091" font-family="LMRoman10"><tspan y="-305.20484" x="113.455 118.90955 121.94228 127.396839 132.85138 135.88411 148.36412 158.36777 163.22232 168.07688 172.32051 175.35324 181.4187 190.51689 198.39327 203.84781 209.60782 215.06238 219.91693 225.98239 229.01512 235.08058 244.16786 251.89151 257.34608 261.90608 267.66609 271.96427 276.20793 281.66249 287.72795">6.10.9MeetingConveningBackstop.</tspan></text>
<text xml:space="preserve" transform="matrix(1 0 -0 1 0 792)" font-size="10.9091" font-family="LMRoman10"><tspan y="-305.20484" x="295.3861 303.87339 312.36067 320.84794 329.3352 337.82249 346.30976 354.79704 363.2843 371.77159 380.25886 388.74613 397.2334 405.72068 414.20796 422.69523 431.1825 439.66978 448.15705 456.64433 465.1316 473.61888 482.10615 490.5934 499.0807 507.56797 516.0443">...........................</tspan></text>
<text xml:space="preserve" transform="matrix(1 0 -0 1 0 792)" font-size="10.9091" font-family="LMRoman10"><tspan y="-305.20484" x="529.2116 534.66616">27</tspan></text>
<text xml:space="preserve" transform="matrix(1 0 -0 1 0 792)" font-size="10.9091" font-family="LMRoman10"><tspan y="-291.65583" x="113.455 118.90955 121.94228 127.396839 132.85138 135.88411 141.33866 147.97138 155.84775 158.88048 163.73503 167.36777 175.09142 179.36779 184.22234 189.67688 195.43689 198.46962 204.53508 213.63327 221.06237 226.82238 232.88784 235.92057 238.9533 243.80785 246.84058 251.08422 254.11695 263.50968 271.2333 276.68788 280.96424 285.2406 290.09516 296.1606">6.10.10Tie-BreakingExplicitlyBarred.</tspan></text>
<text xml:space="preserve" transform="matrix(1 0 -0 1 0 792)" font-size="10.9091" font-family="LMRoman10"><tspan y="-291.65583" x="303.88426 312.37153 320.8588 329.34608 337.83335 346.32063 354.8079 363.29518 371.78245 380.2697 388.757 397.24427 405.73155 414.2079 422.69517 431.18244 439.6697 448.15699 456.64427 465.13154 473.6188 482.10609 490.59336 499.08064 507.5679 516.0552">..........................</tspan></text>
<text xml:space="preserve" transform="matrix(1 0 -0 1 0 792)" font-size="10.9091" font-family="LMRoman10"><tspan y="-291.65583" x="529.2225 534.677">27</tspan></text>
<text xml:space="preserve" transform="matrix(1 0 -0 1 0 792)" font-size="10.9091" font-family="LMRoman10"><tspan y="-278.1068" x="113.455 118.90955 121.94228 127.396839 132.85138 135.88411 141.33866 148.3641 156.24048 162.30594 167.76049 170.79322 178.71323 186.74233 191.59688 200.68416 205.83325 210.98235 216.43689 219.46962">6.10.11ChairRemoval.</tspan></text>
<text xml:space="preserve" transform="matrix(1 0 -0 1 0 792)" font-size="10.9091" font-family="LMRoman10"><tspan y="-278.1068" x="227.4769 235.96417 244.45145 252.93872 261.426 269.90235 278.38963 286.8769 295.36418 303.85145 312.3387 320.826 329.31327 337.80055 346.2878 354.7751 363.26237 371.74964 380.2369 388.72419 397.21147 405.69874 414.186 422.67329 431.16056 439.64784 448.1351 456.62239 465.10966 473.59693 482.0842 490.57148 499.05876 507.54603 516.0224">...................................</tspan></text>
<text xml:space="preserve" transform="matrix(1 0 -0 1 0 792)" font-size="10.9091" font-family="LMRoman10"><tspan y="-278.1068" x="529.1897 534.6442">27</tspan></text>
<text xml:space="preserve" transform="matrix(1 0 -0 1 0 792)" font-size="10.9091" font-family="LMRoman10"><tspan y="-264.5578" x="88.364 93.81855 96.85128 102.30583 113.45493 119.67312 125.12767 131.19313 137.25859 143.32405 148.1786 156.0877 162.15317 166.3968 171.25136 178.82228 184.27683 188.55319 198.2623 206.2914 211.74594 214.77867">6.11FounderStewardRole</tspan></text>
<text xml:space="preserve" transform="matrix(1 0 -0 1 0 792)" font-size="10.9091" font-family="LMRoman10"><tspan y="-264.5578" x="227.5096 235.99687 244.48415 252.97142 261.4587 269.94599 278.43327 286.92054 295.39689 303.88417 312.37144 320.8587 329.34599 337.83326 346.32054 354.8078 363.29508 371.78236 380.26963 388.7569 397.24418 405.73146 414.21873 422.706 431.19328 439.68055 448.16783 456.6551 465.14237 473.62965 482.1169 490.6042 499.09147 507.57875 516.066">...................................</tspan></text>
<text xml:space="preserve" transform="matrix(1 0 -0 1 0 792)" font-size="10.9091" font-family="LMRoman10"><tspan y="-264.5578" x="529.22238 534.6769">28</tspan></text>
<text xml:space="preserve" transform="matrix(1 0 -0 1 0 792)" font-size="10.9091" font-family="LMRoman10"><tspan y="-251.0088" x="113.455 118.90955 121.94228 127.396839 132.85138 135.88411 148.36412 156.69867 161.55323 164.58596 167.61869 173.68415 176.71688 180.96051 183.99324 189.44779">6.11.1Definition</tspan></text>
<text xml:space="preserve" transform="matrix(1 0 -0 1 0 792)" font-size="10.9091" font-family="LMRoman10"><tspan y="-251.0088" x="202.02597 210.51325 219.00052 227.4878 235.97507 244.46234 252.94962 261.4369 269.92417 278.41145 286.8987 295.386 303.87327 312.36054 320.8478 329.33509 337.82237 346.30964 354.7969 363.28419 371.77146 380.25874 388.746 397.23329 405.72056 414.20783 422.6951 431.18238 439.65873 448.146 456.63328 465.12055 473.60783 482.0951 490.58238 499.06965 507.55693 516.0442">......................................</tspan></text>
<text xml:space="preserve" transform="matrix(1 0 -0 1 0 792)" font-size="10.9091" font-family="LMRoman10"><tspan y="-251.0088" x="529.2115 534.666">28</tspan></text>
<text xml:space="preserve" transform="matrix(1 0 -0 1 0 792)" font-size="10.9091" font-family="LMRoman10"><tspan y="-237.4588" x="113.455 118.90955 121.94228 127.396839 132.85138 135.88411 147.96048 155.84777 161.91323 167.67324 170.70597 175.00415 180.4587 184.73506 194.1278 200.346 206.41146 212.47692 217.33147 221.5751 224.60784 230.06238">6.11.2AdvisoryFunction</tspan></text>
<text xml:space="preserve" transform="matrix(1 0 -0 1 0 792)" font-size="10.9091" font-family="LMRoman10"><tspan y="-237.4588" x="244.46239 252.94966 261.43696 269.92424 278.4115 286.89878 295.38606 303.87333 312.3606 320.84788 329.33515 337.82243 346.3097 354.79698 363.28425 371.7715 380.2588 388.74607 397.23335 405.7206 414.19697 422.68424 431.1715 439.65879 448.14607 456.63334 465.1206 473.60789 482.09516 490.58244 499.0697 507.55699 516.04428">.................................</tspan></text>
<text xml:space="preserve" transform="matrix(1 0 -0 1 0 792)" font-size="10.9091" font-family="LMRoman10"><tspan y="-237.4588" x="529.21157 534.6661">28</tspan></text>
<text xml:space="preserve" transform="matrix(1 0 -0 1 0 792)" font-size="10.9091" font-family="LMRoman10"><tspan y="-223.9098" x="113.455 118.90955 121.94228 127.396839 132.85138 135.88411 147.96048 155.84777 160.70232 165.0005 169.24414 175.3096 180.16416 184.40779 187.44052 195.92781 201.99327 206.23691 211.09146 218.66239 224.11693 228.3933 234.45876 238.75695 244.8224 247.85514 257.56425 263.0188 269.08427 278.78245 287.117 290.14973 294.4261 299.28065 304.1352 308.37886 311.41157 316.86613 322.93159 328.38615 335.05158 342.92796 348.9934 353.23707 359.30253 364.75709 369.03346 372.06617 376.01527">6.11.3AestheticStewardshipandDirectionalAuthority</tspan></text>
<text xml:space="preserve" transform="matrix(1 0 -0 1 0 792)" font-size="10.9091" font-family="LMRoman10"><tspan y="-223.9098" x="388.7789 397.26618 405.75346 414.24073 422.728 431.21528 439.69163 448.1789 456.66618 465.15345 473.64073 482.128 490.61528 499.10255 507.5898 516.0771">................</tspan></text>
<text xml:space="preserve" transform="matrix(1 0 -0 1 0 792)" font-size="10.9091" font-family="LMRoman10"><tspan y="-223.9098" x="529.2444 534.6989">28</tspan></text>
<text xml:space="preserve" transform="matrix(1 0 -0 1 0 792)" font-size="10.9091" font-family="LMRoman10"><tspan y="-210.36081" x="113.455 118.90955 121.94228 127.396839 132.85138 135.88411 148.36412 156.69867 159.7314 164.00777 168.86232 173.71688 177.96051 180.99324 186.44779 192.51325 197.96779 204.64417 213.20781 218.66236 224.1169 230.78237 236.84783 241.09146 245.94602 253.51694 258.9715 263.24787 269.31333 273.6115 279.67698 282.7097">6.11.4DirectionalGoalStewardship</tspan></text>
<text xml:space="preserve" transform="matrix(1 0 -0 1 0 792)" font-size="10.9091" font-family="LMRoman10"><tspan y="-210.36081" x="295.39698 303.88426 312.37153 320.8588 329.34608 337.83335 346.32063 354.8079 363.29518 371.78245 380.2697 388.74607 397.23335 405.7206 414.2079 422.69517 431.18244 439.6697 448.15699 456.64427 465.13154 473.6188 482.10609 490.59336 499.08064 507.5679 516.0552">...........................</tspan></text>
<text xml:space="preserve" transform="matrix(1 0 -0 1 0 792)" font-size="10.9091" font-family="LMRoman10"><tspan y="-210.36081" x="529.21157 534.6661">29</tspan></text>
<text xml:space="preserve" transform="matrix(1 0 -0 1 0 792)" font-size="10.9091" font-family="LMRoman10"><tspan y="-196.81182" x="113.455 118.90955 121.94228 127.396839 132.85138 135.88411 147.96048 155.84777 161.91323 167.67324 170.70597 175.00415 180.4587 184.73506 194.1278 202.00418 207.45873 213.21874 217.46237 220.4951 226.25511 232.33148 235.3533 239.3024 248.69515 256.12425 260.4006 265.85517 270.09883 274.95338 279.80793 284.05158 287.0843 292.53886">6.11.5AdvisoryContinuityProtection</tspan></text>
<text xml:space="preserve" transform="matrix(1 0 -0 1 0 792)" font-size="10.9091" font-family="LMRoman10"><tspan y="-196.81182" x="303.8843 312.37159 320.85887 329.34614 337.8334 346.32069 354.80796 363.29524 371.7825 380.26979 388.74613 397.2334 405.72068 414.20796 422.69523 431.1825 439.66978 448.15705 456.64433 465.1316 473.61888 482.10615 490.5934 499.0807 507.56797 516.05526">..........................</tspan></text>
<text xml:space="preserve" transform="matrix(1 0 -0 1 0 792)" font-size="10.9091" font-family="LMRoman10"><tspan y="-196.81182" x="529.2116 534.66616">29</tspan></text>
<text xml:space="preserve" transform="matrix(1 0 -0 1 0 792)" font-size="10.9091" font-family="LMRoman10"><tspan y="-183.26282" x="113.455 118.90955 121.94228 127.396839 132.85138 135.88411 147.96048 156.1423 161.91323 166.15686 169.18959 172.82233 180.25142 184.52779 189.38234 194.2369 199.09145 205.1569 210.01146 215.77147 223.64785 229.7133 235.16785 238.50603 243.36058 248.81513 254.88059 260.33515 264.6115">6.11.6Anti-PrecedentSafeguard</tspan></text>
<text xml:space="preserve" transform="matrix(1 0 -0 1 0 792)" font-size="10.9091" font-family="LMRoman10"><tspan y="-183.26282" x="278.44425 286.93153 295.4188 303.90608 312.39335 320.8806 329.3679 337.85517 346.34245 354.8297 363.317 371.80427 380.29154 388.76789 397.25517 405.74244 414.2297 422.71699 431.20426 439.69154 448.1788 456.66609 465.15336 473.64064 482.1279 490.61518 499.10246 507.58973 516.07699">.............................</tspan></text>
<text xml:space="preserve" transform="matrix(1 0 -0 1 0 792)" font-size="10.9091" font-family="LMRoman10"><tspan y="-183.26282" x="529.23336 534.68789">30</tspan></text>
<text xml:space="preserve" transform="matrix(1 0 -0 1 0 792)" font-size="10.9091" font-family="LMRoman10"><tspan y="-169.71282" x="113.455 118.90955 121.94228 127.396839 132.85138 135.88411 148.36412 155.18231 158.21504 167.30233 170.33506 174.57869 180.03324 184.27687 187.3096 192.76415 198.8296">6.11.7Limitations</tspan></text>
<text xml:space="preserve" transform="matrix(1 0 -0 1 0 792)" font-size="10.9091" font-family="LMRoman10"><tspan y="-169.71282" x="210.49144 218.97872 227.46599 235.95326 244.44054 252.92781 261.4151 269.90238 278.38966 286.87693 295.3642 303.85148 312.33876 320.82603 329.3133 337.80058 346.28785 354.77513 363.2624 371.74967 380.23695 388.7133 397.20057 405.68785 414.1751 422.66239 431.14967 439.63694 448.1242 456.61149 465.09877 473.58604 482.0733 490.56059 499.04786 507.53514 516.0224">.....................................</tspan></text>
<text xml:space="preserve" transform="matrix(1 0 -0 1 0 792)" font-size="10.9091" font-family="LMRoman10"><tspan y="-169.71282" x="529.1788 534.6333">30</tspan></text>
<text xml:space="preserve" transform="matrix(1 0 -0 1 0 792)" font-size="10.9091" font-family="LMRoman10"><tspan y="-156.16382" x="113.455 118.90955 121.94228 127.396839 132.85138 135.88411 148.36412 154.42958 160.49504 165.3496 170.20415 175.0587 179.35689 183.65508 186.6878 192.14235">6.11.8Succession</tspan></text>
<text xml:space="preserve" transform="matrix(1 0 -0 1 0 792)" font-size="10.9091" font-family="LMRoman10"><tspan y="-156.16382" x="202.026 210.51328 219.00055 227.48783 235.9751 244.46237 252.94965 261.43693 269.9242 278.41148 286.89875 295.38603 303.8733 312.36058 320.84785 329.3351 337.8224 346.30967 354.79695 363.2842 371.77149 380.25877 388.7351 397.22239 405.70967 414.19694 422.6842 431.17149 439.65876 448.14604 456.6333 465.12059 473.60786 482.09513 490.5824 499.06968 507.55696 516.0442">......................................</tspan></text>
<text xml:space="preserve" transform="matrix(1 0 -0 1 0 792)" font-size="10.9091" font-family="LMRoman10"><tspan y="-156.16382" x="529.20059 534.6551">30</tspan></text>
<text xml:space="preserve" transform="matrix(1 0 -0 1 0 792)" font-size="10.9091" font-family="LMRoman10" font-weight="bold"><tspan y="-131.70581" x="72 88.363658 96.61093 101.4873 108.45821 111.93822 117.512767 122.46549 130.12369 138.69824 143.86916 150.14189 157.11281 160.60372 167.57463 171.05463 175.931 179.411 185.68373 192.65465 197.60738 205.26557 211.36376 218.33467 229.48378 237.92743 244.02562 247.50562 254.47653 260.22563">7Ethics,Prohibitions,andValues</tspan></text>
<text xml:space="preserve" transform="matrix(1 0 -0 1 0 792)" font-size="10.9091" font-family="LMRoman10" font-weight="bold"><tspan y="-131.70581" x="527.444 533.7167">30</tspan></text>
<text xml:space="preserve" transform="matrix(1 0 -0 1 0 792)" font-size="10.9091" font-family="LMRoman10"><tspan y="-118.156818" x="88.364 93.81855 96.85128 113.45493 121.17857 124.2113 130.27677 136.34223 139.37496 145.44042 154.5386 161.9677 166.24407 171.69861 177.76407 180.7968 186.86226 189.89499 194.13863 197.17136 202.6259 208.69136">7.1BindingProhibitions</tspan></text>
<text xml:space="preserve" transform="matrix(1 0 -0 1 0 792)" font-size="10.9091" font-family="LMRoman10"><tspan y="-118.156818" x="219.01137 227.49864 235.98592 244.47319 252.96047 261.44776 269.93504 278.4223 286.90959 295.39686 303.88414 312.3714 320.85868 329.34596 337.83323 346.3205 354.80778 363.29505 371.78233 380.2696 388.75688 397.24415 405.7314 414.2187 422.70597 431.19325 439.6696 448.15687 456.64414 465.1314 473.61869 482.10597 490.59324 499.0805 507.56779 516.05508">....................................</tspan></text>
<text xml:space="preserve" transform="matrix(1 0 -0 1 0 792)" font-size="10.9091" font-family="LMRoman10"><tspan y="-118.156818" x="529.22238 534.6769">30</tspan></text>
<text xml:space="preserve" transform="matrix(1 0 -0 1 0 792)" font-size="10.9091" font-family="LMRoman10"><tspan y="-104.60782" x="88.364 93.81855 96.85128 113.05129 120.32766 125.78221 128.81494 134.8804 139.73496 147.66588 153.12042 159.18589 168.89499 176.32408 180.60045 183.63318 189.69864 194.55319 197.58592 203.65139 206.68412 211.53867">7.2ValuesandPrinciples</tspan></text>
<text xml:space="preserve" transform="matrix(1 0 -0 1 0 792)" font-size="10.9091" font-family="LMRoman10"><tspan y="-104.60782" x="219.02231 227.50959 235.99686 244.48413 252.9714 261.45869 269.94596 278.43324 286.9205 295.40779 303.89506 312.38233 320.8696 329.35688 337.84416 346.3205 354.80778 363.29505 371.78233 380.2696 388.75688 397.24415 405.7314 414.2187 422.70597 431.19325 439.6805 448.1678 456.65507 465.14234 473.6296 482.11689 490.60417 499.09144 507.5787 516.066">....................................</tspan></text>
<text xml:space="preserve" transform="matrix(1 0 -0 1 0 792)" font-size="10.9091" font-family="LMRoman10"><tspan y="-104.60782" x="529.22238 534.6769">31</tspan></text>
<text xml:space="preserve" transform="matrix(1 0 -0 1 0 792)" font-size="10.9091" font-family="LMRoman10"><tspan y="-91.057819" x="88.364 93.81855 96.85128 113.45493 121.33131 126.78586 135.87314 142.24405 147.0986 153.16407 157.46225 162.9168 167.16043 170.19316 175.6477 185.3459 190.80045 196.8659 206.57501 212.78229 218.23683 221.26956 229.18958 236.31322 241.46231 250.86597 258.74235 264.1969 270.26237 274.56056 278.8042 283.08058 288.53514 291.56785 297.32786 301.5715">7.3CompensationandFairPayConstraints</tspan></text>
<text xml:space="preserve" transform="matrix(1 0 -0 1 0 792)" font-size="10.9091" font-family="LMRoman10"><tspan y="-91.057819" x="312.3497 320.83699 329.32426 337.81153 346.2988 354.78608 363.27336 371.76063 380.2479 388.73518 397.22245 405.70973 414.197 422.68428 431.17155 439.6588 448.1461 456.63337 465.1097 473.597 482.08427 490.57154 499.0588 507.54609 516.0333">.........................</tspan></text>
<text xml:space="preserve" transform="matrix(1 0 -0 1 0 792)" font-size="10.9091" font-family="LMRoman10"><tspan y="-91.057819" x="529.2006 534.65518">31</tspan></text>
<text xml:space="preserve" transform="matrix(1 0 -0 1 0 792)" font-size="10.9091" font-family="LMRoman10"><tspan y="-77.50882" x="113.455 118.90955 121.94228 127.396839 130.42957 148.36412 154.5823 160.03685 163.06958 170.97869 178.85506 184.3096 193.39688 199.76779 204.62235 210.6878 214.986 220.44054 224.68418 227.7169 233.17145 242.88056 249.08783 253.3642 258.81877 267.90605 272.7606 280.3315 285.78608 290.06245">7.3.1FairCompensationFramework</tspan></text>
<text xml:space="preserve" transform="matrix(1 0 -0 1 0 792)" font-size="10.9091" font-family="LMRoman10"><tspan y="-77.50882" x="303.85154 312.3388 320.82609 329.31336 337.80064 346.2879 354.77519 363.26246 371.74974 380.237 388.72428 397.21156 405.69883 414.1861 422.67338 431.16065 439.64793 448.1352 456.62248 465.09883 473.5861 482.07337 490.56065 499.0479 507.5352 516.02249">..........................</tspan></text>
<text xml:space="preserve" transform="matrix(1 0 -0 1 0 792)" font-size="10.9091" font-family="LMRoman10"><tspan y="-77.50882" x="529.18978 534.6443">31</tspan></text>
<text xml:space="preserve" transform="matrix(1 0 -0 1 0 792)" font-size="10.9091" font-family="LMRoman10"><tspan y="-42.11182" x="303.273">2</tspan></text>
</svg>
