<svg xmlns="http://www.w3.org/2000/svg" xmlns:xlink="http://www.w3.org/1999/xlink" xmlns:inkscape="http://www.inkscape.org/namespaces/inkscape" version="1.1" width="612" height="792" viewBox="0 0 612 792">
<text xml:space="preserve" transform="matrix(1 0 -0 1 0 792)" font-size="17.2154" font-family="LMRoman17"><tspan y="-665.305" x="248.826 260.7563 267.74574 284.44465 296.61595 304.5178 312.41966 320.3215 327.31095 333.40519 337.70906 345.6109 354.40797">NewDoggerland</tspan><tspan y="-643.38699" x="92.681 101.701869 109.60374 118.40081 127.19788 135.99495 142.9844 154.2605 166.19077 170.49462 176.67494 180.97879 188.88066 202.87679 220.47093 231.2822 240.07927 248.87635 254.0754 262.87248 268.9667 276.86857 282.9628 295.1513 303.94837 313.19303 320.18247 327.1719 331.47578 335.77104 340.06626 347.0557 354.95756 361.0518 365.35566 373.2575 387.2536 395.60307 403.5049 407.80879 420.90968 427.0039 438.50379 446.40565 455.2027 461.38304 468.37248 474.4667 481.92097 489.8228 495.91706 500.22093 508.10557 515.09506">FounderVision&#x0026;End-StateSpecificationv0.1(Conservative)</tspan></text>
<text xml:space="preserve" transform="matrix(1 0 -0 1 0 792)" font-size="14.3462" font-family="LMRoman12" font-weight="bold"><tspan y="-554.321" x="72 83.66346 91.74037 100.26202 106.545658 113.90526 122.4269 128.71054">Contents</tspan></text>
<text xml:space="preserve" transform="matrix(1 0 -0 1 0 792)" font-size="10.9091" font-family="LMRoman10" font-weight="bold"><tspan y="-524.829" x="72 88.363658 98.18185 104.45458 111.4255 115.60368 124.734607 131.70552 136.5819 143.55281 149.82555 154.99646 158.47646 163.00374 173.80376 182.86922 186.36013 192.45832 199.42923 204.38196 214.30925 219.18563 228.60018 234.34928 240.9711 247.94202 251.42201 256.59294 262.342 269.31294">1Non-AuthorityClause(Required)</tspan></text>
<text xml:space="preserve" transform="matrix(1 0 -0 1 0 792)" font-size="10.9091" font-family="LMRoman10" font-weight="bold"><tspan y="-524.829" x="533.72769">3</tspan></text>
<text xml:space="preserve" transform="matrix(1 0 -0 1 0 792)" font-size="10.9091" font-family="LMRoman10" font-weight="bold"><tspan y="-500.37" x="72 88.363658 96.93821 103.90913 109.08004 116.40005 122.67278 127.62551 137.5528 143.82553 151.84372 160.571 167.54192 171.02191 180.15283 189.77466 196.39649 201.97104 208.94196 219.39287 225.14197 231.7638">2PurposeofThisDocument</tspan></text>
<text xml:space="preserve" transform="matrix(1 0 -0 1 0 792)" font-size="10.9091" font-family="LMRoman10" font-weight="bold"><tspan y="-500.37" x="533.72769">3</tspan></text>
<text xml:space="preserve" transform="matrix(1 0 -0 1 0 792)" font-size="10.9091" font-family="LMRoman10" font-weight="bold"><tspan y="-475.912" x="72 88.363658 97.98548 103.73457 108.6873 112.167308 118.44004 129.58914 139.0146 144.18552 147.66551 153.93825 157.41825 168.57825 174.67644 181.64736 192.79647 204.7092 210.98194 215.8583 219.3383 225.26195 231.36014 236.23651 239.7165 245.98925 257.14927 262.02565 271.8438 278.11656 285.08747 289.26567 296.23658 299.71659 306.6875 313.65843 317.13844 324.10935 334.56028 341.5312 347.62937 352.8003 357.9712 364.06938 368.94575 372.42576 378.6985 384.44758">3DesignOriginandMotivation(Non-bindingnarrative)</tspan></text>
<text xml:space="preserve" transform="matrix(1 0 -0 1 0 792)" font-size="10.9091" font-family="LMRoman10" font-weight="bold"><tspan y="-475.912" x="533.7168">3</tspan></text>
<text xml:space="preserve" transform="matrix(1 0 -0 1 0 792)" font-size="10.9091" font-family="LMRoman10"><tspan y="-462.36299" x="88.364 93.81855 96.85128 113.0622 120.938579 127.004039 135.50223 138.84041 144.29496 148.57132 157.6586 163.11315 167.35678 170.3786 175.84407 184.33136 188.60773 193.46228 196.80046 201.65502 205.93138 210.78594 216.8514 221.70595">3.1Theformativereference</tspan></text>
<text xml:space="preserve" transform="matrix(1 0 -0 1 0 792)" font-size="10.9091" font-family="LMRoman10"><tspan y="-462.36299" x="236.00778 244.49506 252.98233 261.4696 269.95689 278.44416 286.93144 295.4187 303.90599 312.39326 320.88053 329.3678 337.85508 346.34236 354.82963 363.3169 371.80418 380.29145 388.77873 397.25508 405.74235 414.2296 422.7169 431.20417 439.69145 448.1787 456.666 465.15327 473.64054 482.1278 490.61509 499.10237 507.58964 516.0769">..................................</tspan></text>
<text xml:space="preserve" transform="matrix(1 0 -0 1 0 792)" font-size="10.9091" font-family="LMRoman10"><tspan y="-462.36299" x="534.6878">3</tspan></text>
<text xml:space="preserve" transform="matrix(1 0 -0 1 0 792)" font-size="10.9091" font-family="LMRoman10"><tspan y="-448.81398" x="88.364 93.81855 96.85128 113.45493 119.67312 123.949489 128.80403 133.65859 139.72405 145.17859 154.26587 157.8986 163.65862 169.41863 173.05136 179.11682 183.97138 188.26956 191.30229 196.75684 202.8223 209.48777 215.56414 221.01868 228.89505 234.65506 237.68779 243.14234 246.17507 249.2078 254.66234 260.72779 265.58235 270.4369 274.0696 279.82963 285.58964 289.22236 298.30964 303.7642 309.82966 312.86238 317.10603 322.56059 326.83695 329.86967 335.93513">3.2Freedom-by-design,notvigilance-by-monitoring</tspan></text>
<text xml:space="preserve" transform="matrix(1 0 -0 1 0 792)" font-size="10.9091" font-family="LMRoman10"><tspan y="-448.81398" x="346.3206 354.80787 363.29515 371.7824 380.26969 388.75697 397.24424 405.7315 414.21879 422.70606 431.19334 439.6806 448.16789 456.65516 465.14244 473.6297 482.11698 490.60426 499.09153 507.5788 516.06607">.....................</tspan></text>
<text xml:space="preserve" transform="matrix(1 0 -0 1 0 792)" font-size="10.9091" font-family="LMRoman10"><tspan y="-448.81398" x="534.67697">4</tspan></text>
<text xml:space="preserve" transform="matrix(1 0 -0 1 0 792)" font-size="10.9091" font-family="LMRoman10"><tspan y="-435.26399" x="88.364 93.81855 96.85128 113.45493 121.78949 127.24404 132.6986 136.33133 141.18589 146.94589 153.01136 156.04409 161.20409 166.65863 169.69136 174.54592 180.30593 188.1823 193.63684 199.7023 203.94594 209.40048 215.46595 220.92049 229.70232 239.10597 244.56052 250.62598 260.32417 264.62236 270.0769 273.4151 278.26966 282.20787">3.3Dog-equivalentautonomyandsafety</tspan></text>
<text xml:space="preserve" transform="matrix(1 0 -0 1 0 792)" font-size="10.9091" font-family="LMRoman10"><tspan y="-435.26399" x="295.39698 303.88426 312.37153 320.8588 329.34608 337.82243 346.3097 354.79698 363.28425 371.7715 380.2588 388.74607 397.23335 405.7206 414.2079 422.69517 431.18244 439.6697 448.15699 456.64427 465.13154 473.6188 482.10609 490.59336 499.08064 507.5679 516.0552">...........................</tspan></text>
<text xml:space="preserve" transform="matrix(1 0 -0 1 0 792)" font-size="10.9091" font-family="LMRoman10"><tspan y="-435.26399" x="534.6661">4</tspan></text>
<text xml:space="preserve" transform="matrix(1 0 -0 1 0 792)" font-size="10.9091" font-family="LMRoman10" font-weight="bold"><tspan y="-410.80598" x="72 88.363658 96.61093 103.58185 114.73095 121.701869 126.57823 132.67642 137.5528 143.3019 152.36736 165.33827 172.30919 178.40738 187.46195 197.28014 203.02924 216.27289 225.89472 232.16745 238.44019 244.71292 250.46202 255.63294 259.11296 265.21113 272.18205 283.34205 288.09843 297.22935 301.98573 308.60755 313.48393 319.233 326.20393 333.17485 338.92393 350.07304 354.9494 365.41123 374.33488 380.08396 385.6585 391.93125 402.38218">4EndState:WhatNewDoggerlandIsIntendedtoBecome</tspan></text>
<text xml:space="preserve" transform="matrix(1 0 -0 1 0 792)" font-size="10.9091" font-family="LMRoman10" font-weight="bold"><tspan y="-410.80598" x="533.7277">4</tspan></text>
<text xml:space="preserve" transform="matrix(1 0 -0 1 0 792)" font-size="10.9091" font-family="LMRoman10"><tspan y="-397.25697" x="88.364 93.81855 96.85128 113.0622 120.938579 127.004039 135.50223 139.76769 142.80042 148.86588 157.96407 167.05135 172.81134 178.8768 183.73136 190.39682 194.64046 199.49501 204.94956 211.01502 215.86957 220.14594 225.00049 231.06595 235.9205 244.40779 252.28417 255.3169 259.56056 265.626 271.08058 277.14604 285.0224 289.33149 295.39695 299.6733 304.82243 312.6988 315.7315">4.1Theringmodel(coherencewithoutsprawl)</tspan></text>
<text xml:space="preserve" transform="matrix(1 0 -0 1 0 792)" font-size="10.9091" font-family="LMRoman10"><tspan y="-397.25697" x="329.357 337.84428 346.33155 354.81883 363.3061 371.79338 380.28065 388.7679 397.2552 405.74247 414.22975 422.717 431.20429 439.69157 448.17884 456.6661 465.15339 473.64067 482.12794 490.6152 499.10249 507.58976 516.077">.......................</tspan></text>
<text xml:space="preserve" transform="matrix(1 0 -0 1 0 792)" font-size="10.9091" font-family="LMRoman10"><tspan y="-397.25697" x="534.6879">5</tspan></text>
<text xml:space="preserve" transform="matrix(1 0 -0 1 0 792)" font-size="10.9091" font-family="LMRoman10"><tspan y="-383.70796" x="113.455 118.90955 121.94228 127.396839 130.42957 148.36412 156.39322 159.42595 165.49141 174.5896 180.04415 187.92052 197.92417 200.9569 205.25508 209.55327 212.586 218.04055 227.74965 235.62602 241.08057 245.35694 253.84423 258.08787 265.51698 269.79335 272.82606 281.91334 287.3679 291.64427 296.4879 303.16429 309.22975 314.6843 320.74977 324.38249 330.44795 335.3025 340.75706 346.2116 350.45527 353.48799 358.94255 365.008 368.0407 372.89527">4.1.1Ring1:MissionCore(Primary,non-negotiable)</tspan></text>
<text xml:space="preserve" transform="matrix(1 0 -0 1 0 792)" font-size="10.9091" font-family="LMRoman10"><tspan y="-383.70796" x="380.2589 388.73527 397.22254 405.7098 414.19709 422.68437 431.17164 439.6589 448.14619 456.63346 465.12074 473.608 482.09529 490.58256 499.06983 507.5571 516.0444">.................</tspan></text>
<text xml:space="preserve" transform="matrix(1 0 -0 1 0 792)" font-size="10.9091" font-family="LMRoman10"><tspan y="-383.70796" x="534.6553">5</tspan></text>
<text xml:space="preserve" transform="matrix(1 0 -0 1 0 792)" font-size="10.9091" font-family="LMRoman10"><tspan y="-370.15895" x="113.455 118.90955 121.94228 127.396839 130.42957">4.1.2</tspan></text>
<text xml:space="preserve" transform="matrix(.9939819 0 -0 1.0060546 0 792)" font-size="10.843447" font-family="LMRoman10"><tspan y="-367.9303" x="149.26227 157.24306 160.25754 166.2865 175.36246 180.78418 188.67823 196.96262 202.38436 207.80608 211.41695 214.73505 220.15677 224.40741 231.93277 237.35449 241.60512 251.29918 256.11369 261.83903 268.18244 273.00776 277.2584 280.27287 285.08735 291.12715 295.94166 304.43208 307.44657 312.56468 317.9864 322.8009 330.7166 334.9347 342.91548 347.7408 353.16255 356.177 362.84574 368.8747 374.90367 382.78688 387.61219 393.03395 399.06288 403.3352 407.5533 410.56779 414.7859 420.81486 425.03297 428.04743 433.46916 439.4981 444.91984 447.93434 450.9488 460.3284 464.60075 470.62968 476.96226 482.38398 486.6346 492.66358 495.67805 501.707 507.12873 511.34684 516.1722 522.2011">Ring2:Dog-forwardexperiencelayer(Real,butconstitutionallysubordinated)</tspan></text>
<text xml:space="preserve" transform="matrix(1 0 -0 1 0 792)" font-size="10.9091" font-family="LMRoman10"><tspan y="-370.158" x="534.545">5</tspan></text>
<text xml:space="preserve" transform="matrix(1 0 -0 1 0 792)" font-size="10.9091" font-family="LMRoman10"><tspan y="-356.60899" x="113.45499 118.90954 121.94227 127.39682 130.42955 148.3641 156.3932 159.42594 165.4914 174.58959 180.04413 187.9205 195.3496 201.41506 207.48052 210.51325 213.54598 218.40053 222.03327 228.40418 233.25873 239.32419 244.17874 247.21147 250.2442 258.12059 264.4915 269.34605 273.6224 276.65513 285.7424 290.59696 294.8406 299.69517 307.60426 311.8479 319.72428 322.757 328.517 331.5497 340.0479 345.50248 350.34614 355.20069 360.05525 364.35343 368.6516 375.32798 381.69889 387.15345 393.2189 399.28437 405.34983 410.20439 419.90257 424.20075 429.0553 434.50987 440.88078 445.73533">4.1.3Ring3:Public-benefitperimeter(Civicaccess,boundedscope)</tspan></text>
<text xml:space="preserve" transform="matrix(1 0 -0 1 0 792)" font-size="10.9091" font-family="LMRoman10"><tspan y="-356.60899" x="456.69898 465.18626 473.67353 482.1608 490.64808 499.13536 507.62263 516.10989">........</tspan></text>
<text xml:space="preserve" transform="matrix(1 0 -0 1 0 792)" font-size="10.9091" font-family="LMRoman10"><tspan y="-356.60899" x="534.72079">5</tspan></text>
<text xml:space="preserve" transform="matrix(1 0 -0 1 0 792)" font-size="10.9091" font-family="LMRoman10"><tspan y="-343.05998" x="113.45499 118.90954 121.94227 127.39682 130.42955 148.3641 156.3932 159.42594 165.4914 174.58959 180.04413 187.9205 195.79688 201.25142 210.3387 219.12053 225.18599 231.25145 234.28418 238.23328 247.62602 253.69149 257.96784 263.4224 268.87696 273.15333 278.60789 287.69517 295.62608 299.86973 305.93519 310.17884 314.4552 317.4879 322.34248 326.58613 329.61885 339.0225 345.3825 350.83708 356.90254 362.97889 369.04435 373.8989 379.96437 386.6298 390.92799 395.78254 401.848 407.30256 411.57893 417.03349 423.09895 426.13166 430.9862 437.65165 441.94984 447.4044 450.74259 455.59715 459.53535 465.29536 468.92808 471.9608 475.00444 479.2699 483.57899 487.82264">4.1.4Ring4:Communityprograms(Strictlybounded,separable,safety-first)</tspan></text>
<text xml:space="preserve" transform="matrix(1 0 -0 1 0 792)" font-size="10.9091" font-family="LMRoman10"><tspan y="-343.05998" x="499.08085 507.5681 516.05538">...</tspan></text>
<text xml:space="preserve" transform="matrix(1 0 -0 1 0 792)" font-size="10.9091" font-family="LMRoman10"><tspan y="-343.05998" x="534.6772">6</tspan></text>
<text xml:space="preserve" transform="matrix(1 0 -0 1 0 792)" font-size="10.9091" font-family="LMRoman10" font-weight="bold"><tspan y="-318.60197" x="71.999988 88.36364 97.7891 104.76002 108.9382 113.89093 117.37093 122.2473 132.17458 140.40004 146.49823 151.66915 156.54552 163.51644 169.26554 178.62555 186.87284 192.44739 198.72013 203.67285 210.29468 215.2474 220.12378 225.87288 240.50199 245.37836 252.34928 262.8002 268.89839 272.3784 280.0475 288.97114 295.94206 300.89479 304.3748 311.3457 317.0948 322.04753 331.17845 337.2766 344.24754 355.39665 364.87666 370.04756 374.92393 378.40394 383.35667 389.45484 400.61485 406.84394 413.81486 419.56394 424.73487 431.3567 434.8367 440.41127 450.33854 459.404 465.67674 476.12767 486.57859 492.85133 499.82225 504.77497 511.00407">5On-sitePartnerEcosystem(SmallBusinessandArtisan&#x201c;ServiceCommons&#x201d;)</tspan></text>
<text xml:space="preserve" transform="matrix(1 0 -0 1 0 792)" font-size="10.9091" font-family="LMRoman10" font-weight="bold"><tspan y="-318.60197" x="533.73867">6</tspan></text>
<text xml:space="preserve" transform="matrix(1 0 -0 1 0 792)" font-size="10.9091" font-family="LMRoman10"><tspan y="-305.05296" x="88.36398 93.818538 96.851268 113.45492 120.88402 126.94948 131.22585 137.59676 143.0513 147.34949 155.83678 161.29132 167.35678 177.06589 183.4368 188.89134 194.9568 201.02227 207.08773 212.54227 216.81864 219.85137 224.70592">5.1Purposeandboundaries</tspan></text>
<text xml:space="preserve" transform="matrix(1 0 -0 1 0 792)" font-size="10.9091" font-family="LMRoman10"><tspan y="-305.05296" x="235.99684 244.48412 252.97139 261.45869 269.94596 278.43324 286.9205 295.40779 303.89506 312.38233 320.8696 329.35688 337.84416 346.33143 354.8187 363.30598 371.79325 380.28053 388.7678 397.25508 405.74235 414.2187 422.70597 431.19325 439.6805 448.1678 456.65507 465.14234 473.6296 482.11689 490.60417 499.09144 507.5787 516.066">..................................</tspan></text>
<text xml:space="preserve" transform="matrix(1 0 -0 1 0 792)" font-size="10.9091" font-family="LMRoman10"><tspan y="-305.05296" x="534.6878">6</tspan></text>
<text xml:space="preserve" transform="matrix(1 0 -0 1 0 792)" font-size="10.9091" font-family="LMRoman10"><tspan y="-291.50297" x="88.36398 93.818538 96.851268 113.45492 117.393108 123.458568 127.09129 132.8513 135.88404 141.9495 151.6586 155.93497 160.78952 166.54953 174.4259 179.88045 187.82228 193.27683 199.34229 205.40775 208.44048 212.68412 218.13866 224.20412 227.23685 235.72414 240.57869 246.3387 250.8878 256.95326 262.4078 268.47328 273.92784">5.2In-kindrentasauditableexchange</tspan></text>
<text xml:space="preserve" transform="matrix(1 0 -0 1 0 792)" font-size="10.9091" font-family="LMRoman10"><tspan y="-291.50297" x="286.9315 295.41877 303.90605 312.3933 320.88059 329.36787 337.85514 346.3424 354.82969 363.31697 371.80424 380.2915 388.77879 397.26606 405.75334 414.22969 422.71696 431.20423 439.6915 448.17878 456.66606 465.15333 473.6406 482.12788 490.61515 499.10243 507.5897 516.07699">............................</tspan></text>
<text xml:space="preserve" transform="matrix(1 0 -0 1 0 792)" font-size="10.9091" font-family="LMRoman10"><tspan y="-291.50297" x="534.6988">6</tspan></text>
<text xml:space="preserve" transform="matrix(1 0 -0 1 0 792)" font-size="10.9091" font-family="LMRoman10"><tspan y="-277.95396" x="88.36398 93.818538 96.851268 113.45492 121.63674 127.09129 133.15676 136.78949 142.85495 148.3095 157.39678 160.4295 166.49497 171.94951 178.01497 182.86952 191.36772 196.82227 202.88773 212.58592 218.04047 223.80048 228.04412 231.07685 234.70958 239.56414 245.01868 251.08414 255.32778 261.39323 265.6696 274.1678 277.2005 282.9605 287.20417 292.05873 297.81874">5.3Non-dominanceandanti-captureintent</tspan></text>
<text xml:space="preserve" transform="matrix(1 0 -0 1 0 792)" font-size="10.9091" font-family="LMRoman10"><tspan y="-277.95396" x="312.3933 320.88059 329.36787 337.85514 346.3424 354.82969 363.31697 371.80424 380.2915 388.77879 397.26606 405.75334 414.2406 422.72789 431.21516 439.6915 448.17878 456.66606 465.15333 473.6406 482.12788 490.61515 499.10243 507.5897 516.07699">.........................</tspan></text>
<text xml:space="preserve" transform="matrix(1 0 -0 1 0 792)" font-size="10.9091" font-family="LMRoman10"><tspan y="-277.95396" x="534.6988">7</tspan></text>
<text xml:space="preserve" transform="matrix(1 0 -0 1 0 792)" font-size="10.9091" font-family="LMRoman10"><tspan y="-264.40495" x="88.36398 93.818538 96.851268 113.45492 121.33129 124.36402 129.81858 134.11676 138.97132 145.03678 148.66951 151.70224 157.46224 162.91678 172.61498 175.6477 181.71317 185.05135 189.32772 194.78226 199.08045 203.32408 207.60045 213.66591 218.52046 222.7641 228.82956 233.10593 241.60413 245.84777 253.41869 258.87324 263.17143 267.41508 272.26963 275.90235 280.146 285.60057 289.23329 295.29875 300.1533 305.60786 309.8515 317.72789 323.18244 331.12428 335.42247 339.6661 344.52067 352.09159 357.54615 361.8225 367.88798 372.18617 378.25163 381.28434 387.3498 394.01524 398.86979 404.32435 410.3898 416.45527 419.48799 423.73164 426.76435 432.2189 438.28437 443.73893">5.4Closed-loopinfrastructure(waste-to-heat)asstewardship,conditional</tspan></text>
<text xml:space="preserve" transform="matrix(1 0 -0 1 0 792)" font-size="10.9091" font-family="LMRoman10"><tspan y="-264.40495" x="456.64439 465.13166 473.61894 482.1062 490.59349 499.08076 507.56803 516.0553">........</tspan></text>
<text xml:space="preserve" transform="matrix(1 0 -0 1 0 792)" font-size="10.9091" font-family="LMRoman10"><tspan y="-264.40495" x="534.6771">7</tspan></text>
<text xml:space="preserve" transform="matrix(1 0 -0 1 0 792)" font-size="10.9091" font-family="LMRoman10" font-weight="bold"><tspan y="-239.94693" x="71.999988 88.36364 97.4291 104.40002 107.88002 112.756389 119.7273 124.89822 130.9964 138.65459 147.57823 153.32733 159.42552 165.00008 171.27281 182.43283 188.53102 195.50194 206.65105 215.7165 219.1965 225.81833 229.29833 239.06198 248.6838 254.4329 264.88383 271.15657 278.12748 283.0802 287.95658 293.1275 299.22569 304.10206 307.58207 313.8548 325.0039 329.88029 339.69847 345.9712 352.9421 359.91304 366.0112 371.18214 376.0585 379.5385 384.49125 390.58943 401.73854 405.21855 411.84037 416.71675 422.46583 429.08766 433.96403">6CulturalBeaconandCivicDemonstration(Nonpartisanintent)</tspan></text>
<text xml:space="preserve" transform="matrix(1 0 -0 1 0 792)" font-size="10.9091" font-family="LMRoman10" font-weight="bold"><tspan y="-239.94693" x="533.71688">7</tspan></text>
<text xml:space="preserve" transform="matrix(1 0 -0 1 0 792)" font-size="10.9091" font-family="LMRoman10" font-weight="bold"><tspan y="-215.48793" x="71.999988 88.36364 95.214557 101.48729 108.458209 115.42912 122.40004 128.14914 133.32006 137.49825 140.97824 147.94916 152.12735 161.60736 168.57828 173.531 179.2801 185.90193 190.7783 194.2583 204.5456 214.16742 219.91652 224.86925 228.34925 234.62198 245.77109 255.39292 261.142 266.71656 270.19657 276.29475 281.46565 287.5638 292.4402 295.9202 302.19294">7Founder-in-AbsentiaDesignDeclaration</tspan></text>
<text xml:space="preserve" transform="matrix(1 0 -0 1 0 792)" font-size="10.9091" font-family="LMRoman10" font-weight="bold"><tspan y="-215.48793" x="533.7168">7</tspan></text>
<text xml:space="preserve" transform="matrix(1 0 -0 1 0 792)" font-size="10.9091" font-family="LMRoman10" font-weight="bold"><tspan y="-191.02994" x="71.999988 87.88364 97.01456 103.98547 110.95639 114.43639 119.31276 123.490947 133.30913 139.40732 144.28369 147.76369 154.03643 163.97461 173.45462 178.40735 183.36008 190.331 200.7819 207.75283 212.6292 216.10919 222.38193 233.53104 238.40741 248.2256 253.9747 260.07289 265.24378 269.42198 277.09107 282.84016 288.01106 298.47288 306.9056 312.6547 317.82563 321.30564 324.79109 328.27656 333.8511 339.94929 344.82566 348.30567 354.5784 365.7275 374.79298 381.0657 386.01844 390.8948 395.84754 403.51664 413.13847 416.61848 422.8912 429.86213 433.34214 437.86943 448.66944 457.244 462.41493 468.164 473.11674 478.8658 484.03675 490.30949 496.05857 503.02949">8Audit-NativeAssumption(Near-ZeroVerificationCosts,DignityPreserved)</tspan></text>
<text xml:space="preserve" transform="matrix(1 0 -0 1 0 792)" font-size="10.9091" font-family="LMRoman10" font-weight="bold"><tspan y="-191.02994" x="533.7059">8</tspan></text>
<text xml:space="preserve" transform="matrix(1 0 -0 1 0 792)" font-size="10.9091" font-family="LMRoman10" font-weight="bold"><tspan y="-166.57193" x="71.999988 88.36364 95.33456 100.21092 106.30911 112.58185 118.33094 129.48004 137.7055 143.8037 148.68007 155.3019 164.01827 169.77828 180.5783 185.45467 195.27286 198.75286 205.02559 211.9965 216.1747 223.7238 229.4729 235.74564 241.49474 244.97473 252.63292 261.6984 267.79658 274.7675 280.86567 286.44023 289.92024 294.4475 301.06935 305.24754 315.10935 321.20753 326.0839 331.83299 338.8039">9StagedPathway(High-Level,Capacity-Gated)</tspan></text>
<text xml:space="preserve" transform="matrix(1 0 -0 1 0 792)" font-size="10.9091" font-family="LMRoman10" font-weight="bold"><tspan y="-166.57193" x="533.7059">8</tspan></text>
<text xml:space="preserve" transform="matrix(1 0 -0 1 0 792)" font-size="10.9091" font-family="LMRoman10"><tspan y="-153.02294" x="88.36398 93.818538 96.851268 113.45492 120.88402 126.94948 132.40402 136.70221 145.20041 150.65496 158.53133 164.74951 170.20406 176.26952 182.33498 188.40044 193.85498 198.09862 201.13135 206.58589 212.65135 218.1059 224.77136 230.22592 235.08048 239.35684 245.4223 250.27686 256.95323 261.19688 267.26234 271.5387 276.39326 280.02598 284.32417 289.1787 294.63328 297.666 302.52055">9.1Phase0:Foundationalkernel(pre-scale)</tspan></text>
<text xml:space="preserve" transform="matrix(1 0 -0 1 0 792)" font-size="10.9091" font-family="LMRoman10"><tspan y="-153.02294" x="312.39329 320.88056 329.36784 337.8551 346.34239 354.82966 363.31694 371.8042 380.29148 388.76783 397.2551 405.74238 414.22966 422.71693 431.2042 439.69148 448.17875 456.66603 465.1533 473.64057 482.12785 490.6151 499.1024 507.58967 516.0769">.........................</tspan></text>
<text xml:space="preserve" transform="matrix(1 0 -0 1 0 792)" font-size="10.9091" font-family="LMRoman10"><tspan y="-153.02294" x="534.6878">8</tspan></text>
<text xml:space="preserve" transform="matrix(1 0 -0 1 0 792)" font-size="10.9091" font-family="LMRoman10"><tspan y="-139.47394" x="88.36398 93.818538 96.851268 113.45492 120.88402 126.94948 132.40402 136.70221 145.20041 150.65496 158.53133 164.59679 168.84043 174.29497 180.36043 183.39316 191.88045 199.46228 204.31684 207.34957 210.68775 216.14229 220.41866 228.90595 234.36049 240.7314 245.58596 249.86232 255.31687 259.56053 262.59324 268.0478 274.11326">9.2Phase1:Stablewelfareoperations</tspan></text>
<text xml:space="preserve" transform="matrix(1 0 -0 1 0 792)" font-size="10.9091" font-family="LMRoman10"><tspan y="-139.47394" x="286.92054 295.4078 303.89509 312.38236 320.86964 329.3569 337.84419 346.33146 354.81874 363.306 371.79328 380.28056 388.7569 397.24418 405.73146 414.21873 422.706 431.19328 439.68055 448.16783 456.6551 465.14237 473.62965 482.1169 490.6042 499.09147 507.57875 516.066">............................</tspan></text>
<text xml:space="preserve" transform="matrix(1 0 -0 1 0 792)" font-size="10.9091" font-family="LMRoman10"><tspan y="-139.47394" x="534.6769">8</tspan></text>
<text xml:space="preserve" transform="matrix(1 0 -0 1 0 792)" font-size="10.9091" font-family="LMRoman10"><tspan y="-125.923938" x="88.36398 93.818538 96.851268 113.45492 120.88402 126.94948 132.40402 136.70221 145.20041 150.65496 158.53133 166.25498 171.70952 177.77498 183.84044 189.9059 194.76045 204.45865 210.53502 216.60048 222.66594 225.69867 228.7314 237.21869 242.67324 247.52779 252.38234 257.23689 261.53507 269.46598 275.53144 278.56416 281.59687 287.05143 291.29508">9.3Phase2:Boundedpublicaccesspilots</tspan></text>
<text xml:space="preserve" transform="matrix(1 0 -0 1 0 792)" font-size="10.9091" font-family="LMRoman10"><tspan y="-125.923938" x="303.89509 312.38236 320.86964 329.3569 337.84419 346.33146 354.81874 363.306 371.79328 380.28056 388.76783 397.2551 405.74238 414.22966 422.71693 431.2042 439.68055 448.16783 456.6551 465.14237 473.62965 482.1169 490.6042 499.09147 507.57875 516.066">..........................</tspan></text>
<text xml:space="preserve" transform="matrix(1 0 -0 1 0 792)" font-size="10.9091" font-family="LMRoman10"><tspan y="-125.923938" x="534.6878">8</tspan></text>
<text xml:space="preserve" transform="matrix(1 0 -0 1 0 792)" font-size="10.9091" font-family="LMRoman10"><tspan y="-112.37494" x="88.36398 93.818538 96.851268 113.45492 120.88402 126.94948 132.40402 136.70221 145.20041 150.65496 158.53133 166.86588 172.93134 177.2077 182.66225 188.7277 191.76044 194.79317 197.8259 201.76409 211.16774 217.2332 223.29866 226.33139 229.36412 235.42958 239.06232 244.51686 250.58232">9.4Phase3:Durabilitybuild-out</tspan></text>
<text xml:space="preserve" transform="matrix(1 0 -0 1 0 792)" font-size="10.9091" font-family="LMRoman10"><tspan y="-112.37494" x="261.45869 269.94596 278.43324 286.9205 295.40779 303.89506 312.38233 320.8696 329.35688 337.83323 346.3205 354.80778 363.29505 371.78233 380.2696 388.75688 397.24415 405.7314 414.2187 422.70597 431.19325 439.6805 448.1678 456.65507 465.14234 473.6296 482.11689 490.60417 499.09144 507.5787 516.066">...............................</tspan></text>
<text xml:space="preserve" transform="matrix(1 0 -0 1 0 792)" font-size="10.9091" font-family="LMRoman10"><tspan y="-112.37494" x="534.6769">8</tspan></text>
<text xml:space="preserve" transform="matrix(1 0 -0 1 0 792)" font-size="10.9091" font-family="LMRoman10"><tspan y="-98.82594" x="88.36398 93.818538 96.851268 113.45492 120.88402 126.94948 132.40402 136.70221 145.20041 150.65496 158.53133 164.59679 168.84043 173.69498 179.14952 185.21498 190.97499 194.60773 198.90592 203.14955 208.6041 212.84774 221.33502 225.63321 229.87685 234.7314 242.31324 247.76778 252.04415 258.1096 262.40779 268.47325 271.50596">9.5Phase4:Steady-statestewardship</tspan></text>
<text xml:space="preserve" transform="matrix(1 0 -0 1 0 792)" font-size="10.9091" font-family="LMRoman10"><tspan y="-98.82594" x="286.89869 295.38597 303.87324 312.3605 320.84779 329.33506 337.82234 346.3096 354.79689 363.28416 371.77143 380.2587 388.74598 397.23326 405.72053 414.19688 422.68415 431.17143 439.6587 448.14598 456.63325 465.1205 473.6078 482.09507 490.58235 499.0696 507.5569 516.0441">............................</tspan></text>
<text xml:space="preserve" transform="matrix(1 0 -0 1 0 792)" font-size="10.9091" font-family="LMRoman10"><tspan y="-98.82594" x="534.66598">9</tspan></text>
<text xml:space="preserve" transform="matrix(1 0 -0 1 0 792)" font-size="10.9091" font-family="LMRoman10" font-weight="bold"><tspan y="-74.36794" x="71.999988 78.27272 87.70909 100.68001 107.650928 113.749118 122.814579 132.63277 138.38187 151.62552 161.24735 167.52008 173.79282 180.06555 185.81465 190.98557 194.46556 200.56375 207.53467 218.68378 223.44014 232.58197 242.40016 248.6729 257.72746 262.60383 272.08384 278.70567 283.58204 287.06205 291.24024 297.51298 303.7857 309.88389 313.3639 318.31663">10WhatNewDoggerlandIsNot(Anti-goals)</tspan></text>
<text xml:space="preserve" transform="matrix(1 0 -0 1 0 792)" font-size="10.9091" font-family="LMRoman10" font-weight="bold"><tspan y="-74.36794" x="533.7168">9</tspan></text>
<text xml:space="preserve" transform="matrix(1 0 -0 1 0 792)" font-size="10.9091" font-family="LMRoman10"><tspan y="-42.111944" x="303.27299">1</tspan></text>
</svg>
