<svg xmlns="http://www.w3.org/2000/svg" xmlns:xlink="http://www.w3.org/1999/xlink" xmlns:inkscape="http://www.inkscape.org/namespaces/inkscape" version="1.1" width="612" height="792" viewBox="0 0 612 792">
<text xml:space="preserve" transform="matrix(1 0 -0 1 0 792)" font-size="14.3462" font-family="LMRoman12" font-weight="bold"><tspan y="-707.447" x="72">1</tspan></text>
<text xml:space="preserve" transform="matrix(1 0 -0 1 0 792)" font-size="14.3462" font-family="LMRoman12" font-weight="bold"><tspan y="-707.447" x="92.185108 101.15148 107.43512 115.28249 121.56613 130.5325 142.28205 150.12941 159.09578 173.44197 185.17717 194.14354 200.42717 209.39354 217.47045 224.0697 228.56006 234.39896">StatusandAuthority</tspan></text>
<text xml:space="preserve" transform="matrix(1 0 -0 1 0 792)" font-size="10.9091" font-family="LMRoman10" font-weight="bold"><tspan y="-683.098" x="72 78.97092 83.84728 89.94547 94.82184 101.792758 106.74548">Status:</tspan></text>
<text xml:space="preserve" transform="matrix(1 0 -0 1 0 792)" font-size="10.9091" font-family="LMRoman10"><tspan y="-683.098" x="115.06913 122.79277 125.8255 131.90187 137.96733 141.00006 147.06552 156.1528 161.60735 166.75644 172.211 177.06555 181.34192 187.40738 192.86193 198.92739 203.78194 212.28014 216.57833 221.12743 227.19289 232.04744 238.1129 244.17836 247.21109">Bindinggovernanceschedule</tspan></text>
<text xml:space="preserve" transform="matrix(.9944848 0 -0 1.0055457 0 792)" font-size="10.848934" font-family="LMRoman10" font-weight="bold"><tspan y="-665.85537" x="71.91966 81.00021 87.93268 92.78216 99.71462 105.95277 111.09516 114.55597 119.04743 125.63274">Authority:</tspan></text>
<text xml:space="preserve" transform="matrix(.9944848 0 -0 1.0055457 0 792)" font-size="10.848934" font-family="LMRoman10"><tspan y="-665.85537" x="133.97557 141.79767 147.82967 153.25412 159.29698 163.51721 168.33414 178.02223 183.75046 193.12393 197.34418 203.37618 211.8492 220.3656 225.4863 230.91075 235.73853 239.99132 246.02332 249.03932 255.07132 264.1519 271.83293 277.56117 283.59318 292.96669 298.9987 305.0307 309.2835 313.558 319.59004 325.0145 330.74275 338.61909 342.8393 351.90907 356.12928 362.1613 370.63435 378.46726 383.89176 389.92378 394.19825 399.62275 402.63874 405.65473 411.68675 417.1112 421.33146 426.1592 435.84733 444.36375 449.48448 454.90895 459.72587 463.97865 470.01066 475.43516 481.47804 486.29493 494.7788 503.06736 508.79563 513.6234 519.6554 528.69259 533.5203 539.24856">AdoptedbytheGoverningBodypursuanttotheConsolidatedGovernanceDocument</tspan></text>
<text xml:space="preserve" transform="matrix(1 0 -0 1 0 792)" font-size="10.9091" font-family="LMRoman10"><tspan y="-655.999" x="71.716 77.476009 82.93056 85.96329 91.41784 94.45057">v0.5.2</tspan></text>
<text xml:space="preserve" transform="matrix(1.0099504 0 -0 .99014756 0 792)" font-size="11.017651" font-family="LMRoman10" font-weight="bold"><tspan y="-648.8427" x="71.290637 81.20652 84.72115 90.52746 95.74982 101.90869 107.13106 112.41953 119.10725 125.79496">Hierarchy:</tspan></text>
<text xml:space="preserve" transform="matrix(1.0099504 0 -0 .99014756 0 792)" font-size="11.017651" font-family="LMRoman10"><tspan y="-648.8427" x="136.21765 142.34348 148.46929 154.89257 160.4014 164.72032 170.84613 173.90903 180.04587 185.55469 189.84055 199.39286 203.67871 213.83699 218.12285 224.24868 233.80097 241.75572 247.26456 253.39037 257.73133 263.2401 266.30305 269.36595 275.49177 281.00059 285.28645 290.1893 300.9756 309.62446 314.82478 320.3446 325.24748 329.56639 335.6922 341.20103 347.32685 352.22969 361.78196 370.19947 376.01676 380.91963 387.0454 396.2231 401.12596 406.94328 411.22917 419.47038 423.81135 429.93714 436.37144 441.2743 445.5932 448.65614 454.16496 463.1333 467.4192 477.57746 486.14918 492.57249 497.4753 501.79426 507.3031 511.58894 514.65188 520.1607 526.2865 531.79537">SubordinatetotheConsolidatedGovernanceDocument;superiortoOperational</tspan></text>
<text xml:space="preserve" transform="matrix(1 0 -0 1 0 792)" font-size="10.9091" font-family="LMRoman10"><tspan y="-628.901" x="72 82.00365 87.4582 93.2182 99.28366 104.73821 107.77094">Manuals</tspan></text>
<text xml:space="preserve" transform="matrix(1.0094553 0 -0 .9906332 0 792)" font-size="11.012249" font-family="LMRoman10"><tspan y="-614.3314" x="70.93628 78.88713 85.00994 88.07134 96.0332 102.15601 106.75913 112.88194 117.782398 123.905208 130.02802 133.08942 141.60189 147.7247 152.62516 155.68656 158.74797 164.87079 169.77126 177.73311 182.63356 188.13968 194.2625 199.16297 203.47977 208.38022 212.66399 221.18747 225.47124 231.59406 235.91086 240.81131 245.15013 251.27295 256.77909 259.8405 265.96333 273.92518 279.4313 285.5541 295.28895 300.18937 303.2508 308.75694 313.09577 317.43458 320.496 323.5574 326.6188 331.51924 337.02537 341.30915 344.37059 349.8767 355.9995 363.96138 368.24516 374.36796 379.87409 387.78089 393.28703 399.70716 404.6076 408.92439 414.4305 418.7143 421.7757 427.28184 433.40464 438.91078 441.9722 445.0336 449.93406 458.45753 462.7413 468.8641 477.3766 483.51039 488.3998 491.4612 494.53364 500.65644 503.71784 508.0016 511.06297 516.5691 526.30398 531.81008">ThisScheduledefinesconcretethresholdsandclassificationsthatoperationalizethedefinitionof</tspan></text>
<text xml:space="preserve" transform="matrix(.9904545 0 -0 1.0096376 0 792)" font-size="10.804966" font-family="LMRoman10" font-style="italic"><tspan y="-589.3481" x="72.02956 81.72162 87.24296 90.83021 95.80049 100.36019 103.677318 109.198657 115.90854 123.37477 128.34506 131.9323 135.24942 140.77075">MaterialAction</tspan></text>
<text xml:space="preserve" transform="matrix(.9904545 0 -0 1.0096376 0 792)" font-size="10.804966" font-family="LMRoman10"><tspan y="-589.3481" x="151.07869 154.08248 163.76372 167.96685 173.97441 182.45632 190.25749 195.65998 201.66753 205.92469 211.32715 214.33095 217.33473 223.34229 228.74475 232.94789 237.7561 247.43735 255.91925 261.0192 266.4217 271.2299 275.45463 281.47303 286.87553 292.8831 297.69129 306.16236 314.41737 320.1332 324.9414 330.94898 339.94953 344.7577 350.45195 354.65507 362.5643 373.67179 379.67939 384.48756 388.7231 397.1942 401.39738 407.41575 411.6405 416.44868 420.70585 426.7242 432.1267 435.11967 441.13807 449.0581 454.4606 458.69618 467.17805 476.17857 480.98677 488.8636 494.26609 502.17533 506.98353 512.68856 517.49679 522.305 527.1132 533.1207 537.92898 543.9365">intheConsolidatedGovernanceDocument.Wherethresholdsaremetorexceeded,</tspan></text>
<text xml:space="preserve" transform="matrix(1 0 -0 1 0 792)" font-size="10.9091" font-family="LMRoman10"><tspan y="-581.479" x="72 76.24364 82.3091 90.79638 96.25093 101.105487 105.34912 108.38185 113.8364 123.5455 126.57823 134.50916 139.36371 144.81826 150.88372 155.73827 158.771 164.83646 169.13465 172.16738 177.62194 182.47649 185.50922 194.90196 203.98925 209.44379 213.68743 218.54198 222.81835 225.85108 231.30562 237.982 243.43654 249.502 259.2002 267.98204 274.0475 278.34568 286.23298 289.57118 295.02574 298.05845 301.09117 306.24028 317.74937 323.20393 326.23664 332.913 342.91664 348.3712 352.61485 357.4694 361.74577 364.76759 370.22215 376.8985 384.77488 389.62944 393.87309 396.9058 402.36036 412.05854 416.3349 421.18946 426.94947 433.01493 436.04765 440.324 445.17857 454.26585 459.1204 464.8804 469.12406 473.42225">theactionisconclusivelymaterialandmustfollowallMaterialActionrequirements.</tspan><tspan y="-561.155" x="72 82.00365 88.06911 92.312747 97.767299 103.832759 106.865489 109.89822 112.93095 116.869129 122.62913 130.5164 138.69823 144.76369 149.31279 155.37825 160.8328 166.89826 172.3528 177.20735 182.6619 188.72736 191.76009">Mutability:Unchangeable</tspan></text>
<text xml:space="preserve" transform="matrix(1 0 -0 1 0 792)" font-size="14.3462" font-family="LMRoman12" font-weight="bold"><tspan y="-526.78707" x="72">2</tspan></text>
<text xml:space="preserve" transform="matrix(1 0 -0 1 0 792)" font-size="14.3462" font-family="LMRoman12" font-weight="bold"><tspan y="-526.78707" x="92.185108 104.86715 112.22675 121.19313 128.55274 135.152 142.99936 152.86954 164.46128 173.42765 177.918">GeneralRule</tspan></text>
<text xml:space="preserve" transform="matrix(.9904545 0 -0 1.0096376 0 792)" font-size="10.804966" font-family="LMRoman10"><tspan y="-497.64094" x="72.286 80.38973 90.070987 95.473468 100.28168 104.48481 107.48859 112.89107 122.57232 125.576099 133.50695">Anactionisa</tspan></text>
<text xml:space="preserve" transform="matrix(.9904545 0 -0 1.0096376 0 792)" font-size="10.804966" font-family="LMRoman10" font-weight="bold"><tspan y="-497.64094" x="142.70197 154.501 160.54097 165.37079 171.06502 176.18656 179.63335 185.67331 193.34484 202.37778 207.89911 212.72893 216.17572 222.38857">MaterialAction</tspan></text>
<text xml:space="preserve" transform="matrix(.9904545 0 -0 1.0096376 0 792)" font-size="10.804966" font-family="LMRoman10"><tspan y="-497.64094" x="233.00986 236.01364 242.99365 245.99744 253.87427 262.87483 267.683 272.4912 276.69435 284.62519 290.02769 297.93693 302.74513 308.45014 313.25834 318.06654 322.87474 328.8823 336.81315 342.2156 347.90983 357.28855 361.4917 367.49928 371.73484 376.54304 380.80018 386.80775 392.21025 395.21403 404.89527 407.89903 417.58027 421.78343 427.791 430.79478 438.7256 444.73316 449.23884 455.2464 460.0546 466.06217 472.06974 475.0735 479.88169 486.55915 490.7947 495.6029 501.0054 506.40788 510.64344 516.651 519.6548 524.463 528.72018 536.651 542.0534">ifitmeetsorexceedsanythresholdinthisSchedule,regardlessof</tspan></text>
<text xml:space="preserve" transform="matrix(1 0 -0 1 0 792)" font-size="10.9091" font-family="LMRoman10"><tspan y="-488.888" x="72 75.03273 80.79273 85.03637 89.890918 95.65092 99.894557 106.57092 110.84729 115.70184 121.15639 126.01094 130.28731 134.5855 137.61823 143.68369 146.71642 149.74915 152.78188 156.72006 161.57462 168.24008 173.69463 181.60373 187.66919 193.73465 198.01102 203.46556 207.7092 210.74193 216.19647 222.26194">intent,reversibility,orduration.</tspan></text>
<text xml:space="preserve" transform="matrix(.9969955 0 -0 1.0030136 0 792)" font-size="10.876323" font-family="LMRoman10"><tspan y="-467.15614" x="72.21697 78.4056 83.84376 86.86738 89.891 95.93823 100.20175 108.68529 112.916179 121.9979 131.05788 135.89785 140.73781 148.61228 157.694 161.9249 167.97214 172.23564 177.0756 181.36089 187.40811 192.84629 195.8699 205.5607 211.60793 217.35063 222.1906 230.10857 236.16669 241.60486 249.46845 254.90662 260.96473 266.392 270.65553 276.09367 281.84724 286.0781 290.91807 299.3907 303.62156 309.6688 315.10694 322.98139 328.41957 338.11036 343.5485 348.38847 352.61933 355.64295 361.0811 370.77189 373.7955 381.72438 387.77159 393.20973 399.25697 402.87876 411.93873 417.3769 421.60777 426.44773 430.7112 433.73484 439.17298 442.1966 448.86378 452.19194 458.23915 464.28639 469.72453 478.7845 483.62446 489.36714 497.24159 505.997 512.04428 516.32949 524.204 528.48928 532.72018 535.7438 538.7674">Failuretomeetathresholddoesnotguaranteethatanactionisnon-material;judgmentmuststill</tspan></text>
<text xml:space="preserve" transform="matrix(1 0 -0 1 0 792)" font-size="10.9091" font-family="LMRoman10"><tspan y="-455.015" x="72 78.37092 86.85819 92.312747 98.378208 104.443668 107.476398 110.509128 115.36368 125.06187 131.13823 135.43642 138.46915 144.5346 153.62189 157.86553 163.93099 172.41828 178.48374 183.33829 186.37102 189.40375 195.46921 198.50194 202.74558 205.7783 211.23285 220.94196 223.97469 233.67288 237.91652 243.98198 252.46927 260.34565 265.8002 271.86567 276.16386 281.6184 284.65113 287.68385 293.7493 299.20387 303.4475 308.30207 318.01118 326.5748 331.7239 337.17848 342.03303 346.3094 352.37486 357.8294 363.89488 368.74943 377.24763 385.58219 391.3313 396.18586 402.2513 411.3386 416.19316 421.95317 426.1968">beappliedusingthedefinitionintheConsolidatedGovernanceDocument.</tspan><tspan y="-434.691" x="72 82.00365 88.06911 92.312747 97.767299 103.832759 106.865489 109.89822 112.93095 116.869129 122.62913 130.5164 138.69823 144.76369 149.31279 155.37825 160.8328 166.89826 172.3528 177.20735 182.6619 188.72736 191.76009">Mutability:Unchangeable</tspan></text>
<text xml:space="preserve" transform="matrix(1 0 -0 1 0 792)" font-size="14.3462" font-family="LMRoman12" font-weight="bold"><tspan y="-400.323" x="72">3</tspan></text>
<text xml:space="preserve" transform="matrix(1 0 -0 1 0 792)" font-size="14.3462" font-family="LMRoman12" font-weight="bold"><tspan y="-400.323" x="92.185108 102.327869 106.81823 115.78461 123.63198 132.59836 139.77146 144.26181 152.10918 161.97936 173.64282 181.71973 195.17647 208.63321 213.12357 219.4072 232.86394 240.22354 248.73084 255.01447 266.764 274.6114 283.57777 297.92396 306.89033 316.31578 323.67536 332.64173 341.6081 346.09846 355.06483">FinancialCommitmentsandSpending</tspan></text>
<text xml:space="preserve" transform="matrix(1 0 -0 1 0 792)" font-size="11.9552" font-family="LMRoman12" font-weight="bold"><tspan y="-373.383" x="72 78.73078 82.47276">3.1</tspan></text>
<text xml:space="preserve" transform="matrix(1 0 -0 1 0 792)" font-size="11.9552" font-family="LMRoman12" font-weight="bold"><tspan y="-373.383" x="99.29373 106.76573 110.50771 117.97971 124.710498 128.45247 139.06868 147.89162 154.99301 162.83562 168.96863 176.44063 183.91263 187.6546 192.89098 200.36298 205.86237 216.47858 225.82755 233.29955 238.79894 244.93195 250.24005 257.71205 264.4428 268.18479 275.6568">SingleExpenditureThresholds</tspan></text>
<text xml:space="preserve" transform="matrix(1.0099504 0 -0 .99014756 0 792)" font-size="11.017651" font-family="LMRoman10"><tspan y="-356.30046" x="70.89061 79.15385 84.982189 95.93373 100.27468 103.337589 109.4634 114.97222 118.03513 128.0722 132.97507 138.48389 147.6616 156.83931 159.9022 164.18808 173.36579 178.25763 184.08597 188.37183 196.95458 201.85744 207.67476 214.09804 219.0009 225.12671 231.25252 234.31543 238.60129 244.7271 249.04602 253.94889 262.53163 266.85057 271.75343 274.8163 283.68553 289.81135 295.93714 300.25608 304.59706 309.49989 318.67759 323.5804 329.40876 333.6946 342.27738 347.7862 357.23936 362.74815 368.87397 371.93687 374.9998 380.5086 386.0174 390.30329 393.36619 398.875 410.13505 419.3127 424.20454 429.1074 433.39326 436.45619 442.58198 453.225 458.73384 468.18699 473.0898 478.90715 483.81 488.71284 493.6157 499.7415 502.8044 508.9302 519.57327 523.85916 529.9849">Anysinglecommitment,expenditure,reimbursement,orobligationmeetingorexceedingthe</tspan></text>
<text xml:space="preserve" transform="matrix(1 0 -0 1 0 792)" font-size="10.9091" font-family="LMRoman10"><tspan y="-339.241" x="72 75.33819 80.79274 83.82547 86.8582 92.00729 99.88367 102.9164 108.98186 118.08005 122.323688 128.38915 132.66551 137.52007 141.81826 147.88372 153.33826 156.37099 162.43645 170.36737 173.4001 181.33103 190.42922 200.43286 205.8874 210.13105 214.9856 219.26197 222.2947 227.74924 234.4147 242.29108 247.14563 251.38927 254.422 259.87657 265.94203">followingthresholdsisaMaterialAction:</tspan></text>
<text xml:space="preserve" transform="matrix(1 0 -0 1 0 792)" font-size="10.9091" font-family="LMRoman10"><tspan y="-312.94" x="72">&#x2022;</tspan></text>
<text xml:space="preserve" transform="matrix(1 0 -0 1 0 792)" font-size="10.9091" font-family="LMRoman10"><tspan y="-312.94" x="85.94183 91.396389 96.85094 99.88367 105.33822 110.79277 119.88005 123.21824 128.67279 136.5928 141.44736 147.20737 153.27283 156.30556 162.37102 171.4583 176.31285 182.07286 186.3165 192.98197 197.2256 202.9856 208.44014 211.47287 215.77106 222.43653 225.7747 231.84017 236.11653 242.18199 245.21472 249.51291 255.58928 258.6111 264.68748 270.14204 274.44023 281.10566 286.5602 294.4693 298.7675 304.83296 310.8984 316.96388 319.99659 323.0293 327.88386">$2,500forequipment,tools,furnishings,orsupplies</tspan></text>
<text xml:space="preserve" transform="matrix(1 0 -0 1 0 792)" font-size="10.9091" font-family="LMRoman10"><tspan y="-290.624" x="72">&#x2022;</tspan></text>
<text xml:space="preserve" transform="matrix(1 0 -0 1 0 792)" font-size="10.9091" font-family="LMRoman10"><tspan y="-290.624" x="85.94183 91.396389 96.85094 99.88367 105.33822 110.79277 119.88005 123.21824 128.67279 136.5928 142.65827 146.93463 152.38918 155.72736 160.58191 164.8801 169.17829 172.21102 177.66556 183.73102 189.18556 195.85103 200.14922 205.00377 209.28014 215.04015 218.07288 222.92743 227.78199 232.08017 238.74564 243.60019 249.05474 255.1202 259.41838 265.48384 268.51655 272.7602 275.7929 281.85838 287.31294 293.9893 299.44386 307.35295 312.8075 318.87297 324.63298 327.66569 331.96388 337.41844 341.6948 351.08753 355.3857 360.24028 364.51664 370.27665 373.30937 378.1639 383.01847">$1,000forprofessionalservices,consulting,oradvisoryservices</tspan></text>
<text xml:space="preserve" transform="matrix(1 0 -0 1 0 792)" font-size="10.9091" font-family="LMRoman10"><tspan y="-268.307" x="72">&#x2022;</tspan></text>
<text xml:space="preserve" transform="matrix(1 0 -0 1 0 792)" font-size="10.9091" font-family="LMRoman10"><tspan y="-268.307" x="85.94183 91.396389 96.85094 102.30549 111.39277 114.73096 120.18551 128.10552 132.34915 136.62552 141.77462 147.22917 152.08373 155.11646 161.78192 164.81465 170.57465 176.6401 182.09465 185.12738 191.19284 196.64739 203.31285 208.7674 216.68741 222.75287 225.7856 230.08379 234.93834 239.2147 244.06926 248.3129 251.34563 256.80018 262.86564 268.3202 272.59657 281.9893 286.84385 292.60386 298.97477 303.8293 309.89479 314.19297 319.04753 326.97843 333.34934 338.2039 346.11299 349.1457 355.21116 361.2766 364.30934 370.06935 373.10206 379.1675 385.23298 390.68754 397.3639 403.7348 408.57847 416.49848 421.35304 426.8076 431.66215 437.42216">$500fortravel,lodging,ordiscretionaryexpensesperindividualperevent</tspan><tspan y="-242.00601" x="72 82.00365 88.06911 92.312747 97.767299 103.832759 106.865489 109.89822 112.93095 116.869129 122.62913 130.5164 138.69823 144.76369 149.31279 155.37825 160.8328 166.89826 172.3528 177.20735 182.6619 188.72736 191.76009">Mutability:Unchangeable</tspan></text>
<text xml:space="preserve" transform="matrix(1 0 -0 1 0 792)" font-size="11.9552" font-family="LMRoman12" font-weight="bold"><tspan y="-212.79701" x="72 78.73078 82.47276">3.2</tspan></text>
<text xml:space="preserve" transform="matrix(1 0 -0 1 0 792)" font-size="11.9552" font-family="LMRoman12" font-weight="bold"><tspan y="-212.79701" x="99.29373 109.45565 116.18643 122.91721 128.41661 134.54962 141.2804 147.81989 153.05626 163.67247 171.14447 178.98708 185.12009 192.59209 200.06409 203.80606 211.27806 222.49204 231.841 239.313 244.8124 250.9454 256.2535 263.72554 270.4563 274.19828 281.6703">AggregateSpendingThresholds</tspan></text>
<text xml:space="preserve" transform="matrix(.9929753 0 -0 1.0070744 0 792)" font-size="10.832467" font-family="LMRoman10"><tspan y="-190.85384" x="72.50936 82.44273 88.46559 91.47702 95.69085 98.70227 104.72513 107.73656 116.20754 120.45387 125.27432 128.28575 133.70198 137.91582 142.73627 152.40967 157.23012 162.94966 169.27584 174.09629 180.11914 186.14199 189.15341 193.36725 199.39009 203.63642 208.45688 216.3754 225.09554 231.11838 235.38637 243.25075 249.5769 258.0479 263.4641 268.88035 274.29658 278.54289 283.36335 288.77958 294.19578 298.4096 303.23008 312.90348 320.72453 326.74736 331.5678 341.2412 345.45506 351.47789 356.29835 365.6684 371.08464 375.33097 383.80198 389.8248 395.24104 399.48735 407.3517 412.76795 419.73326 423.94709 429.9699 438.44093 442.7089 448.12513 457.14857 465.61958 471.6424 475.88874 481.60826 484.92298 489.74345 494.5639 498.77775 505.45054 511.47337 517.4962 521.7425 528.0687 533.4849 537.7529 542.57339">Multiplerelatedexpendituresmustbeaggregatedwhentheyarepartofthesameproject,purpose,</tspan></text>
<text xml:space="preserve" transform="matrix(1 0 -0 1 0 792)" font-size="10.9091" font-family="LMRoman10"><tspan y="-178.655" x="71.716 77.17055 82.0251 88.09056 94.15602 99.61057 107.53058 111.806949 116.6615 119.68332 125.13787 129.38152 132.41425 137.86879 143.94516 148.24335 154.3088 157.34154 163.407 170.07247 175.52701 183.43611 187.67975 192.5343 201.62158 207.9925 213.44704 217.7234 223.17795 229.84342 237.71979 240.75252 246.81798 252.88344 258.04344 265.9198">vendorrelationship,ortemporalwindow.</tspan><tspan y="-158.331" x="71.596 79.777828 89.47601 94.930568 100.38512 105.83967 110.116039 114.97058 120.42513 125.879688 130.12332 134.97788 144.68698 149.54154 154.99608 164.08336 173.17064 176.20337 180.447 189.53429 194.38884 200.14885 208.02523 217.1125 221.96706 226.82161 231.06525 234.09798 240.16344 249.25072 254.70526 262.62528 267.47984 273.23985 278.0944 282.94895 287.8035 293.86897 296.90168 302.96714 308.4217">Anaggregatedcommitmentmeetingorexceeding:</tspan></text>
<text xml:space="preserve" transform="matrix(1 0 -0 1 0 792)" font-size="10.9091" font-family="LMRoman10"><tspan y="-132.03" x="72">&#x2022;</tspan></text>
<text xml:space="preserve" transform="matrix(1 0 -0 1 0 792)" font-size="10.9091" font-family="LMRoman10"><tspan y="-132.03" x="85.94183 91.396389 96.85094 99.88367 105.33822 110.79277 119.88005 127.756427 130.78916 135.03279 141.09825 144.13098 153.84009 159.29463 165.05464 174.44739 178.72376 184.1783 187.21103 190.24376 193.27649 199.34195 208.44014 213.89469 219.34923 222.98197 229.04743 234.19652 243.58927 249.96018 254.81473 259.0911 262.1238 267.88383 273.94929 280.61473 286.06929">$5,000withinanyrolling30-dayperiod,or</tspan></text>
<text xml:space="preserve" transform="matrix(1 0 -0 1 0 792)" font-size="10.9091" font-family="LMRoman10"><tspan y="-109.713" x="72">&#x2022;</tspan></text>
<text xml:space="preserve" transform="matrix(1 0 -0 1 0 792)" font-size="10.9091" font-family="LMRoman10"><tspan y="-109.713" x="85.94183 91.396389 96.85094 102.30549 105.33822 110.79277 116.24732 125.3346 133.21097 136.2437 140.48734 146.5528 149.58553 159.29463 164.74918 170.50919 179.90193 184.1783 189.63285 192.66558 195.6983 198.73104 204.7965 213.89469 219.34923 224.80377 228.43651 237.52379 242.97834 248.73834 252.98198 262.68016 269.05107 273.9056 278.18199 281.2147 286.9747">$10,000withinanyrolling12-monthperiod</tspan><tspan y="-83.411998" x="72 76.85455 82.309108 88.374568 92.67275 96.91639 99.94912 104.19276 110.25822 114.501857 119.3564 127.287319 136.38552 146.38916 151.8437 156.08734 160.9419 165.21826 168.25099 173.70554 180.371 188.24738 193.10193 197.34557 200.3783 205.83284 211.8983">constitutesaMaterialAction.</tspan></text>
<text xml:space="preserve" transform="matrix(1 0 -0 1 0 792)" font-size="10.9091" font-family="LMRoman10"><tspan y="-42.111997" x="303.273">2</tspan></text>
</svg>
