<svg xmlns="http://www.w3.org/2000/svg" xmlns:xlink="http://www.w3.org/1999/xlink" xmlns:inkscape="http://www.inkscape.org/namespaces/inkscape" version="1.1" width="612" height="792" viewBox="0 0 612 792">
<text xml:space="preserve" transform="matrix(1 0 -0 1 0 792)" font-size="14.3462" font-family="LMRoman12" font-weight="bold"><tspan y="-707.447" x="72 80.07691">10</tspan></text>
<text xml:space="preserve" transform="matrix(1 0 -0 1 0 792)" font-size="14.3462" font-family="LMRoman12" font-weight="bold"><tspan y="-707.447" x="100.26202 112.45628 125.91302 133.27262 142.23899 151.20536 164.6621 172.0217 180.54334 192.20679 200.05416 209.02053 223.36672 235.40319 242.76279 251.28443 255.77478 263.13438">AmendmentandReview</tspan></text>
<text xml:space="preserve" transform="matrix(.9899495 0 -0 1.0101526 0 792)" font-size="10.799458" font-family="LMRoman10"><tspan y="-676.2325" x="72.33399 80.131198 86.1357 89.13795 96.15759 102.162097 106.65467 112.65917 117.464939 123.46944 129.47394 132.47618 140.04662 149.04256 154.12909 162.59587 168.90276 176.47319 181.87291 190.86887 195.67462 201.67913 207.68363 212.48938 221.24774 226.64748 232.65198 235.65422 244.121 248.32199 254.32649 258.55989 263.9596 269.9641 275.36384 284.12223 289.52195 298.2911 305.64555 311.34767 315.5486 319.7712 325.17094 330.57069 334.80406 340.81935 343.8108 349.82609 355.2258 359.4484 367.91517 375.2696 379.503 385.20509 390.01084 394.8166 399.07157 406.09123 411.49095 418.4998 424.5043 429.31007 432.31233 435.31455 441.31907 446.1248 454.89396 457.8962 466.65458 470.85557 476.86006 484.43049 492.22767 497.6274 503.6319 507.8869 513.2866 516.2889 519.29116 525.2956 530.6954 534.8963 539.7021">ThisSchedulemaybeamendedonlythroughanExtraordinaryProcessasdefinedintheConsolidated</tspan></text>
<text xml:space="preserve" transform="matrix(1 0 -0 1 0 792)" font-size="10.9091" font-family="LMRoman10"><tspan y="-669.548" x="72 80.563648 85.71274 91.16728 96.021839 100.2982 106.36366 111.818218 117.883678 122.73822 131.23642 139.57097 145.32006 150.1746 156.24007 165.32735 170.1819 175.95282 180.19646">GovernanceDocument.</tspan><tspan y="-649.225" x="71.596 79.777828 82.810558 89.47601 94.930568 104.017848 108.87239 114.93785 121.00331 130.09059 134.94515 140.71607 144.9597 152.89063 161.67246 167.73792 172.0361 176.27974">Allamendmentsmust:</tspan></text>
<text xml:space="preserve" transform="matrix(1 0 -0 1 0 792)" font-size="10.9091" font-family="LMRoman10"><tspan y="-622.923" x="72">&#x2022;</tspan></text>
<text xml:space="preserve" transform="matrix(1 0 -0 1 0 792)" font-size="10.9091" font-family="LMRoman10"><tspan y="-622.923" x="85.94183 92.31275 100.800029 106.25458 112.32004 117.77459 123.84005 128.0837 132.93825 142.64736 148.40737 157.80011 162.07648 166.93103 171.78559 177.24013 181.5165 187.58196 192.43651 202.1347 207.60018 213.05472 217.29836 222.15291">beadoptedbyrecordedvote,</tspan></text>
<text xml:space="preserve" transform="matrix(1 0 -0 1 0 792)" font-size="10.9091" font-family="LMRoman10"><tspan y="-600.607" x="72">&#x2022;</tspan></text>
<text xml:space="preserve" transform="matrix(1 0 -0 1 0 792)" font-size="10.9091" font-family="LMRoman10"><tspan y="-600.607" x="85.94183 92.31275 100.800029 106.25457 111.109119 115.38548 119.68367 122.7164 128.17095 134.2364 139.09096 145.15642">beversioned,</tspan></text>
<text xml:space="preserve" transform="matrix(1 0 -0 1 0 792)" font-size="10.9091" font-family="LMRoman10"><tspan y="-578.291" x="72">&#x2022;</tspan></text>
<text xml:space="preserve" transform="matrix(1 0 -0 1 0 792)" font-size="10.9091" font-family="LMRoman10"><tspan y="-578.291" x="85.94183 90.24002 96.61094 101.465488 106.32004 109.35277 112.690959 122.08369 127.53824 133.6037 139.66916 142.70189 146.94553 149.97826 155.4328 161.49826 165.79645 172.47283 176.74919 181.60375 190.69103 195.84012 200.98921 206.44376 209.47649 213.77468 220.45105 225.9056 233.8147 242.90198 248.66197 254.72743 257.76017 260.79289 263.82563 268.68019 274.13475 278.3784 281.4111 286.86567 292.93113 300.86204 305.71659 311.4766 317.54206 320.57478 323.60749 328.46205 331.49476 335.7384 338.77113 343.62568">specifyadditions,removals,ormodificationsexplicitly.</tspan></text>
<text xml:space="preserve" transform="matrix(1 0 -0 1 0 792)" font-size="10.9091" font-family="LMRoman10"><tspan y="-42.112" x="303.273">5</tspan></text>
</svg>
