<svg xmlns="http://www.w3.org/2000/svg" xmlns:xlink="http://www.w3.org/1999/xlink" xmlns:inkscape="http://www.inkscape.org/namespaces/inkscape" version="1.1" width="612" height="792" viewBox="0 0 612 792">
<text xml:space="preserve" transform="matrix(1 0 -0 1 0 792)" font-size="10.9091" font-family="LMRoman10" font-weight="bold"><tspan y="-709.041" x="72 78.272739 81.75274 88.025478 94.29821 97.77821">6.10.9</tspan></text>
<text xml:space="preserve" transform="matrix(1 0 -0 1 0 792)" font-size="10.9091" font-family="LMRoman10" font-weight="bold"><tspan y="-709.041" x="113.4655 125.378238 131.12734 136.87644 141.7528 145.2328 152.20372 162.65465 171.72011 177.99285 184.61467 190.8874 196.6365 203.60742 207.08742 214.05834 224.50926 233.4329 239.5311 244.76747 251.37839 256.33113 261.2075 267.48023 274.45115">MeetingConveningBackstop.</tspan></text>
<text xml:space="preserve" transform="matrix(.995992 0 -0 1.0040242 0 792)" font-size="10.8653759" font-family="LMRoman10"><tspan y="-685.6887" x="72.28974 76.212139 83.187709 87.41434 93.45549 101.941349 110.470668 115.59912 121.03181 125.8669 130.12612 136.16727 139.18784 145.22899 154.30158 161.99427 167.73119 173.77234 183.16004 191.00482 197.04598 202.47867 205.49924 213.40924 216.73404 222.16674 225.18732 228.20789 236.13962 241.57231 249.4823 253.74153 258.57664 261.90147 267.9426 272.22355 277.05863 284.99037 289.21699 298.28959 303.12467 308.55735 314.29429 319.72697 324.56205 330.6032 339.08906 348.17253 352.43177 357.26686 362.69953 368.74067 371.76124 377.19395 385.10395 394.1548 398.98988 403.82496 408.05158 411.06129 417.11329 426.18589 431.6186 439.52857 448.61204 456.01136 460.2706 465.70329 472.04866 476.88374 481.14299 484.16355 493.5512 501.54817 506.38325 512.1202 518.16128 522.9964 527.27737 531.50399 536.3391">IftheGoverningBodyChairfailsorrefusestoconvenearegularmeetingoraProperlyRequested</tspan></text>
<text xml:space="preserve" transform="matrix(.9934788 0 -0 1.0065641 0 792)" font-size="10.837958" font-family="LMRoman10"><tspan y="-670.49777" x="72.47261 82.41102 87.23391 92.0568 96.27277 99.28572 105.31163 114.40468 118.62064 124.03963 131.98386 138.00975 142.83264 145.8456 148.85854 154.88445 159.70734 169.4073 172.42026 182.12024 188.14614 192.96903 197.78108 201.99704 205.01 210.42897">Meeting(asdefinedinSection</tspan></text>
<text xml:space="preserve" transform="matrix(.9934788 0 -0 1.0065641 0 792)" font-size="10.837958" font-family="LMRoman10"><tspan y="-670.49777" x="220.12894 225.54792 228.56087">4.8</tspan></text>
<text xml:space="preserve" transform="matrix(.9934788 0 -0 1.0065641 0 792)" font-size="10.837958" font-family="LMRoman10"><tspan y="-670.49777" x="233.97985 238.19582 244.88285 253.97589 258.24604 261.259 270.28703 276.31294 279.32588 287.82286 296.85087 302.5733 305.88975 311.30873 315.5572 318.57014 322.48265 331.87916 337.29814 344.28865 349.7076 355.1266 359.34257 362.35554 368.3814 377.47447 386.5025 391.32539 400.04997 406.3793 411.2022 415.45066 423.3949 432.4229 437.5276 446.9241 451.747 457.166 462.8884 468.30738 473.13029 479.1562 487.65315 491.8691 497.89503 506.39198 515.42 520.2429 525.0658 529.28176 532.2947 538.3206">),asimplemajorityofvotingmembersmayconvenethemeeting</tspan></text>
<text xml:space="preserve" transform="matrix(1 0 -0 1 0 792)" font-size="10.9091" font-family="LMRoman10"><tspan y="-661.35" x="71.607 79.483379 82.516109 86.75974 92.8252 98.279758 104.345218 112.22158 116.46522 122.53068 131.02887 138.90525 144.9707 150.42525 153.45798 157.73435">withouttheChair.</tspan><tspan y="-641.026" x="72 82.00365 88.06911 92.312747 97.767299 103.832759 106.865489 109.89822 112.93095 116.869129 122.62913 130.5164 138.69823 144.76369 149.31279 155.37825 160.8328 166.89826 172.3528 177.20735 182.6619 188.72736 191.76009">Mutability:Unchangeable</tspan></text>
<text xml:space="preserve" transform="matrix(1 0 -0 1 0 792)" font-size="10.9091" font-family="LMRoman10" font-weight="bold"><tspan y="-612.215" x="72 78.272739 81.75274 88.025478 94.29821 97.77821 104.05095">6.10.10</tspan></text>
<text xml:space="preserve" transform="matrix(1 0 -0 1 0 792)" font-size="10.9091" font-family="LMRoman10" font-weight="bold"><tspan y="-612.215" x="119.738239 128.46552 131.94551 137.69461 141.8728 150.79645 155.96736 161.71646 167.81465 174.43648 177.91648 184.88739 195.33832 203.5856 210.20743 217.17835 220.65834 224.13834 229.71289 233.19289 238.06926 241.54926 252.36017 261.2838 267.382 272.55293 277.72383 283.4729 290.44383">Tie-BreakingExplicitlyBarred.</tspan></text>
<text xml:space="preserve" transform="matrix(1 0 -0 1 0 792)" font-size="10.9091" font-family="LMRoman10"><tspan y="-591.62307" x="71.607 79.483379 85.548839 94.03611 102.599758 107.75976 113.2143 118.06885 122.345218 128.41068 131.4434 137.50887 146.59615 154.3198 160.07979 166.14525 175.538 183.41437 189.47983 194.93437 197.9671 205.88712 214.66895 220.7344 225.0326 232.90897 238.97443 244.42897 252.31626 257.1708 262.62538 266.92356 274.79994 279.04359 282.0763 286.93086 290.56358 296.62904 300.9054 305.75996 311.2145 316.97453 320.00724 326.0727 335.15998 340.61454 346.0691 350.31275 355.1673 359.46549">TheGoverningBodyChairmustnotcasttie-breakingvotes.</tspan><tspan y="-571.2991" x="72 82.00365 88.06911 92.312747 97.767299 103.832759 106.865489 109.89822 112.93095 116.869129 122.62913 130.5164 138.69823 144.76369 149.31279 155.37825 160.8328 166.89826 172.3528 177.20735 182.6619 188.72736 191.76009">Mutability:Unchangeable</tspan></text>
<text xml:space="preserve" transform="matrix(1 0 -0 1 0 792)" font-size="10.9091" font-family="LMRoman10" font-weight="bold"><tspan y="-542.4881" x="72 78.272739 81.75274 88.025478 94.29821 97.77821 104.05095">6.10.11</tspan></text>
<text xml:space="preserve" transform="matrix(1 0 -0 1 0 792)" font-size="10.9091" font-family="LMRoman10" font-weight="bold"><tspan y="-542.4881" x="119.738239 128.8037 135.77462 141.8728 145.3528 154.7019 164.11646 169.86556 180.31647 186.24011 192.16376 198.26195 201.74195">ChairRemoval.</tspan></text>
<text xml:space="preserve" transform="matrix(1 0 -0 1 0 792)" font-size="10.9091" font-family="LMRoman10"><tspan y="-521.8951" x="71.607 79.483379 85.548839 94.03611 102.599758 107.75976 113.2143 118.06885 122.345218 128.41068 131.4434 137.50887 146.59615 154.3198 160.07979 166.14525 175.538 183.41437 189.47983 194.93437 197.9671 205.88712 214.9744 220.12349 229.51624 235.88715 244.37444 248.6508 253.50536 262.59266 267.74177 273.2072 278.06178 287.75996 293.2145 299.27998 302.31269 311.7054 317.47633 326.86906 331.1127 337.17817 345.66545 354.22908 359.37818 364.84364 369.69819 373.97456 380.04 383.07273 389.13819 398.22547 405.9491 411.7091 417.77458 427.1673 432.62187 440.5637 443.9019 449.35646 452.38917 455.42189 460.57099 468.44737 472.74555">TheGoverningBodyChairmayberemovedonlybytheGoverningBodyasfollows:</tspan></text>
<text xml:space="preserve" transform="matrix(1 0 -0 1 0 792)" font-size="10.9091" font-family="LMRoman10"><tspan y="-495.5941" x="72">&#x2022;</tspan></text>
<text xml:space="preserve" transform="matrix(1 0 -0 1 0 792)" font-size="10.9091" font-family="LMRoman10"><tspan y="-495.5941" x="85.94183 93.97093 98.825489 107.912769 113.06186 118.22186 123.676418 130.34188 134.61824 139.4728 145.2328 151.29827 154.331 158.60736 163.46192 171.39284 180.48012 186.55649 192.62195 198.98195 203.8365 208.11287 217.20015 222.96015 226.29833 231.75287 236.02924 239.06197 243.00016 252.40381 257.85838 263.31294 267.55659 276.04386 281.4984 289.44026 295.5057 300.36027 303.39299 306.42573 312.49119 317.34574 327.0439 330.07664 339.7748 345.84028 350.69483 355.54939 359.79304 362.82575 368.2803">RemovalrequiresaSupermajorityvoteasdefinedinSection</tspan></text>
<text xml:space="preserve" transform="matrix(1 0 -0 1 0 792)" font-size="10.9091" font-family="LMRoman10"><tspan y="-495.5941" x="377.9894 383.44398 386.47669">4.5</tspan></text>
<text xml:space="preserve" transform="matrix(1 0 -0 1 0 792)" font-size="10.9091" font-family="LMRoman10"><tspan y="-495.5941" x="391.93125">.</tspan></text>
<text xml:space="preserve" transform="matrix(1 0 -0 1 0 792)" font-size="10.9091" font-family="LMRoman10"><tspan y="-473.27809" x="72">&#x2022;</tspan></text>
<text xml:space="preserve" transform="matrix(1.0099504 0 -0 .99014756 0 792)" font-size="11.017651" font-family="LMRoman10"><tspan y="-477.98738" x="85.09329 93.202289 98.10514 107.282848 112.49419 117.705539 123.21437 130.75045 136.25926 142.38507 148.5109 151.57379 155.85967 158.92256 164.4314 170.5572 176.06604 179.12895 182.19185 192.49335 196.81227 201.71514 207.53244 213.65827 216.72116 221.04009 225.94295 234.75707 242.71183 247.03073 250.09365 254.3795 258.66539 263.5682 274.1672 279.07005 284.57887 290.70469 293.76759 296.83049 301.1494 310.32713 315.8359 320.1218 323.1847 328.6935 339.29249 345.12083 355.41133 365.39329 371.5191 375.838 380.74089 384.40977 389.91856 396.04438 402.1812 406.48915 411.70045 417.2203 422.12315 432.7221 440.22514 446.04246 450.32835 455.23118 459.5501 465.6759 471.18473 478.7208 487.36967 492.581 498.10084 503.0037 507.3226 513.4484 518.9573 525.08309 529.98599">Removaladditionallyrequireswrittenconfirmationbyapre-approvedExternalGovernance</tspan></text>
<text xml:space="preserve" transform="matrix(1 0 -0 1 0 792)" font-size="10.9091" font-family="LMRoman10"><tspan y="-459.728" x="85.536 93.71783 97.994197 104.059658 107.092388 111.33602 116.19057 124.09966 128.3433 133.79785 141.73969 147.80515 152.6597 155.69243 158.72516 164.79062 169.64517 179.34337 182.3761 192.0743 198.13976 202.99431 207.84886 212.0925 215.12523 220.57978">Arbiter(asdefinedinSection</tspan></text>
<text xml:space="preserve" transform="matrix(1 0 -0 1 0 792)" font-size="10.9091" font-family="LMRoman10"><tspan y="-459.728" x="230.28888 235.74343 238.77616 244.2307">4.15</tspan></text>
<text xml:space="preserve" transform="matrix(1 0 -0 1 0 792)" font-size="10.9091" font-family="LMRoman10"><tspan y="-459.728" x="249.68524 257.5616 261.80528 267.87074 273.3253 277.56895">)that:</tspan></text>
<text xml:space="preserve" transform="matrix(1 0 -0 1 0 792)" font-size="10.9091" font-family="LMRoman10" font-weight="bold"><tspan y="-433.427" x="85.94">&#x2013;</tspan></text>
<text xml:space="preserve" transform="matrix(1 0 -0 1 0 792)" font-size="10.9091" font-family="LMRoman10"><tspan y="-433.427" x="97.66729 101.91093 107.97639 116.46366 122.52912 126.80549 132.56549 137.42005 142.2746 146.57279 154.50371 160.56917 164.87827 169.72191 179.43102 187.00194 192.45648 200.3874 206.45287 210.72924 216.48923 221.34378 226.19834 232.2638 238.32926 242.60562 248.06017 251.0929 254.12563 263.51835 266.86744 272.322 275.3547 279.62019">theprocessusedwasprocedurallyfair,</tspan></text>
<text xml:space="preserve" transform="matrix(1 0 -0 1 0 792)" font-size="10.9091" font-family="LMRoman10" font-weight="bold"><tspan y="-411.111" x="85.94">&#x2013;</tspan></text>
<text xml:space="preserve" transform="matrix(1 0 -0 1 0 792)" font-size="10.9091" font-family="LMRoman10"><tspan y="-411.111" x="97.66729 101.91093 107.97639 116.46366 121.91821 126.19458 131.64913 137.71459 143.78005 149.8455 157.78734 163.24188 167.51825 176.00554 182.071 187.831 192.68555 198.751 207.83829 212.69284 218.45285 222.69649 227.55104 237.24924 242.70378 248.76924 258.47834 264.5438 269.99836 276.0638 279.69654 285.762 290.03837 294.8929 299.13658 303.99113 309.75114 313.99479 320.06025 325.5148 328.54753 335.21296 340.6675 346.73298">thegroundsaredocumentedandnon-pretextual,and</tspan></text>
<text xml:space="preserve" transform="matrix(1 0 -0 1 0 792)" font-size="10.9091" font-family="LMRoman10" font-weight="bold"><tspan y="-388.794" x="85.94">&#x2013;</tspan></text>
<text xml:space="preserve" transform="matrix(.9899495 0 -0 1.0101526 0 792)" font-size="10.799458" font-family="LMRoman10"><tspan y="-384.88639" x="98.65856 102.85955 108.86405 116.78006 121.01345 125.81921 134.81516 139.91249 144.99906 150.39878 156.51126 159.51352 166.87874 172.88324 178.28298 185.5942 189.82759 194.63335 198.83434 204.23407 207.23632 210.23857 215.63829 219.83928 222.84154 228.24126 237.356 240.66065 246.06037 253.40399 259.4085 262.41075 266.66575 270.92073 275.72648 281.4286 285.62956 291.85005 296.0834 300.88914 307.19606 312.59577 316.82914 321.03013 324.03236 330.03688 335.43659 341.66789 346.47364 352.17576 357.57548 363.88236 368.6881 372.92149 378.3212 382.5222 385.52445 390.92417 400.0389 407.83613 410.83836 415.03935 424.15409 428.38746 433.19319 438.8953 441.89756 446.7033 454.50053 460.7318 466.13154 473.47517 478.87489 483.07585 489.08036 493.8861 501.21894 507.23423 511.4568 516.8565 521.05758 525.8633 530.669 534.87 539.6757">theremovalisnotretaliationfordissent,reporting,cooperationwithreview,orotherprotected</tspan></text>
<text xml:space="preserve" transform="matrix(1 0 -0 1 0 792)" font-size="10.9091" font-family="LMRoman10"><tspan y="-375.245" x="97.667 102.521549 107.9761 114.04156 120.10702 126.17248 131.02703 138.9034 144.96886 151.03432 157.11069 161.95433 169.87435 174.11798 180.18344 183.21617 191.1471 197.21256 202.97255 207.8271 213.89257 222.97985 227.8344 233.5944 237.83805">conductunderthisdocument.</tspan><tspan y="-348.944" x="72 79.12364 83.978199 88.25456 97.34184 100.37457 104.67276 108.97095 112.00368 118.06914 121.10187 129.60007 135.05461 139.33098 144.78553 150.85099 156.91645 162.9819 170.91283 174.251 179.70555 187.61466 195.49103 201.55649 207.01103 210.04376 217.96378 222.24015 227.0947 236.18198 241.33107 246.48017 251.93471 258.61109 261.6438 267.70927 272.5638 275.59654 281.662 287.72746 292.582">PermissiblegroundsforChairremovalinclude:</tspan></text>
<text xml:space="preserve" transform="matrix(1 0 -0 1 0 792)" font-size="10.9091" font-family="LMRoman10"><tspan y="-322.642" x="72">&#x2022;</tspan></text>
<text xml:space="preserve" transform="matrix(.9929753 0 -0 1.0070744 0 792)" font-size="10.832467" font-family="LMRoman10"><tspan y="-320.37559" x="86.54798 90.79431 95.61475 101.94092 106.76137 112.177608 116.39143 121.211879 130.90694 134.22167 139.63791 142.64933 145.66075 151.6836 155.92992 164.41175 169.82799 177.7465 181.99283 186.81328 190.128 196.15087 200.41886 205.8351 212.50789 216.72171 225.81017 230.63062 236.04685 241.76639 247.1718 251.99225 258.0151 266.50779 270.7541 275.57456 281.2941 287.31694 290.32835 294.57469 299.3951 309.0793 318.10276 322.92323 327.74369 331.95753 334.96894 340.99177 346.408 350.67597 357.35963 360.37104 366.39387 371.21434 374.22575 380.2486 386.27143 389.28285 395.3057 404.39414 411.77107 416.01737 421.4336 427.75975 432.5802 436.8265 439.83793 449.21885 457.19154 462.012 467.7315 473.75437 478.5748 482.8428 487.05665 491.87709 501.57215 511.5055 516.3259 521.14639 525.36019 528.3716 534.3945 539.81069">repeatedfailureorrefusaltoconvenerequiredmeetings,includingProperlyRequestedMeetings</tspan></text>
<text xml:space="preserve" transform="matrix(1 0 -0 1 0 792)" font-size="10.9091" font-family="LMRoman10"><tspan y="-309.093" x="84.663 88.90664 94.36119 102.29211 108.35757 113.21211 116.24484 119.27757 125.34303 130.19759 139.9067 142.93943 152.63762 158.70308 163.55764 168.41219 172.65583 175.68856 181.1431">(asdefinedinSection</tspan></text>
<text xml:space="preserve" transform="matrix(1 0 -0 1 0 792)" font-size="10.9091" font-family="LMRoman10"><tspan y="-309.093" x="190.8413 196.29584 199.32857">4.8</tspan></text>
<text xml:space="preserve" transform="matrix(1 0 -0 1 0 792)" font-size="10.9091" font-family="LMRoman10"><tspan y="-309.093" x="204.78311">)</tspan></text>
<text xml:space="preserve" transform="matrix(1 0 -0 1 0 792)" font-size="10.9091" font-family="LMRoman10"><tspan y="-286.77699" x="72">&#x2022;</tspan></text>
<text xml:space="preserve" transform="matrix(1 0 -0 1 0 792)" font-size="10.9091" font-family="LMRoman10"><tspan y="-286.77699" x="85.94183 90.2182 95.072757 101.44367 106.29822 111.75277 115.99641 120.85095 130.54915 136.61461 140.89098 146.65097 151.50553 156.36008 162.42554 168.491 172.76737 178.22191 184.88738 193.97466 197.00739 201.30558 206.16013 211.61467 217.68013 223.74559 229.81105 234.6656 242.54198 246.78562 252.86199 258.31654 266.1929 275.28019 280.73475 284.9784 289.83296 294.1093 297.14204 302.5966 305.6293 308.66203 318.05476 321.08747 330.17475 336.2402 341.69477 344.72749 349.00386 356.93476 362.3893 367.54933 373.00389 377.85844 382.1348 388.20027 393.65483 399.72029 404.57484 413.0621 416.4003 422.46577 428.53123 433.38578 437.62944 440.66215 446.1167">repeatedproceduralmisconductthatmateriallyimpairsgovernancefunction</tspan></text>
<text xml:space="preserve" transform="matrix(1 0 -0 1 0 792)" font-size="10.9091" font-family="LMRoman10"><tspan y="-264.46098" x="72">&#x2022;</tspan></text>
<text xml:space="preserve" transform="matrix(.9904545 0 -0 1.0096376 0 792)" font-size="10.804966" font-family="LMRoman10"><tspan y="-261.93656" x="86.76825 94.569438 98.80498 103.61319 109.62075 112.624538 118.632099 121.63587 130.10697 134.00756 143.0081 149.01566 154.41814 157.42192 161.65746 170.658 175.46622 181.16043 189.02645 193.22957 198.63205 206.55208 212.55963 217.36785 220.37163 223.37541 229.38297 234.19118 243.8616 246.86539 256.53584 262.5434 267.3516 272.1598 276.36296 279.3667 284.7692">CredibleImpairment(asdefinedinSection</tspan></text>
<text xml:space="preserve" transform="matrix(.9904545 0 -0 1.0096376 0 792)" font-size="10.804966" font-family="LMRoman10"><tspan y="-261.93656" x="294.43968 299.84217 302.84593 308.2484">4.20</tspan></text>
<text xml:space="preserve" transform="matrix(.9904545 0 -0 1.0096376 0 792)" font-size="10.804966" font-family="LMRoman10"><tspan y="-261.93656" x="313.6509 321.50614 327.5137 331.74928 336.55747 341.95994 346.76814 352.47319 356.6763 359.68009 365.68766 374.74223 378.97779 383.78599 386.78977 389.79353 395.196 401.20359 404.20738 412.67845 418.98857 423.79676 428.03233 431.33863 436.74113 440.97666 449.9772 455.3797 461.38728 466.19548 474.66654 480.06904 487.03825 494.83943 500.847 506.24949 509.25325 517.1517 523.15927 529.16677 533.3699 536.37368 541.1819">)preventingreliableperformanceofChairduties</tspan></text>
<text xml:space="preserve" transform="matrix(1 0 -0 1 0 792)" font-size="10.9091" font-family="LMRoman10"><tspan y="-242.144" x="72">&#x2022;</tspan></text>
<text xml:space="preserve" transform="matrix(.9899495 0 -0 1.0101526 0 792)" font-size="10.799458" font-family="LMRoman10"><tspan y="-239.71031" x="86.81251 91.61826 97.018 103.0225 107.828258 112.63402 118.033748 121.035999 130.03194 134.8377 140.529 148.00225 153.40196 159.96804 168.6292 178.5323 183.93202 188.13303 192.93878 197.17217 200.17443 205.57415 211.83783 218.88988 221.89212 227.89662 233.29636 239.30086 244.10662 247.10887 252.50859 258.77229 262.6709 268.37303 272.57398 277.37974 281.60234 286.40806 290.66307 298.13627 302.33723 307.73698 315.2534 321.2579 326.06364 329.0659 332.06816 338.07264 342.8784 352.14433 355.14659 364.41255 370.41703 375.22279 380.02854 384.2295 387.23176 392.63148">concealmentofaMaterialFinancialInterest(asdefinedinSection</tspan></text>
<text xml:space="preserve" transform="matrix(.9899495 0 -0 1.0101526 0 792)" font-size="10.799458" font-family="LMRoman10"><tspan y="-239.71031" x="401.89744 407.29716 410.2994 415.69914">4.21</tspan></text>
<text xml:space="preserve" transform="matrix(.9899495 0 -0 1.0101526 0 792)" font-size="10.799458" font-family="LMRoman10"><tspan y="-239.71031" x="421.09886 428.56129 432.79466 437.6004 440.60267 445.4084 450.49497 455.89469 461.5968 469.0592 473.2602 481.92137 489.71858 495.72309 501.1228 504.12507 511.61988 517.6243 521.8577 527.5707 532.3764 537.1822 541.43716">)relevanttoChairprocess</tspan></text>
<text xml:space="preserve" transform="matrix(1 0 -0 1 0 792)" font-size="10.9091" font-family="LMRoman10"><tspan y="-219.828" x="72">&#x2022;</tspan></text>
<text xml:space="preserve" transform="matrix(1 0 -0 1 0 792)" font-size="10.9091" font-family="LMRoman10"><tspan y="-219.828" x="85.94183 91.396389 97.461849 101.76003 106.00367 110.28004 116.3455 121.20004 125.44368 128.47641 133.93096 143.62915 149.0837 156.06552 160.34189 165.19644 170.051 175.50554 179.7819 185.84737 190.14556 196.81102 202.26557 207.72011 212.57466 218.64012 224.70558 230.16013 234.45832 241.12378 250.21106 253.24379 259.01469 265.08015 269.3238 274.17835 278.47654 285.14198 290.59654 296.0511 300.29475 308.79295 313.0693 317.91297 322.76753 328.22209 332.49845 338.5639 341.59663 347.66209 353.11665 359.793 365.24757 373.15666 377.433 382.28758 388.04759 394.11305 397.14576 401.42213 406.27668 415.97486 419.00758 424.46214 429.9167 435.37126 438.40397 444.46943">obstructionofrecords,agendas,minutes,voterecording,orrequiredlogging</tspan><tspan y="-193.52701" x="71.607 79.483379 85.548839 94.03611 102.599758 107.75976 113.2143 118.06885 122.345218 128.41068 131.4434 137.50887 146.59615 154.3198 160.07979 166.14525 175.538 184.31983 190.3962 194.69438 202.57076 208.63622 214.39621 219.25077 225.31623 234.4035 239.25806 245.01807 249.2617 255.92717 261.3817 269.269 278.3563 281.389 287.45448 290.48719 299.269 305.33448 314.42176">TheGoverningBodymustdocument,atminimum:</tspan></text>
<text xml:space="preserve" transform="matrix(1 0 -0 1 0 792)" font-size="10.9091" font-family="LMRoman10"><tspan y="-167.225" x="72">&#x2022;</tspan></text>
<text xml:space="preserve" transform="matrix(1 0 -0 1 0 792)" font-size="10.9091" font-family="LMRoman10"><tspan y="-167.225" x="85.94183 90.18547 96.25093 104.73821 109.0364 115.40732 120.26187 125.116428 128.14916 131.18189 134.21462 142.7019 148.15645 152.43282 157.88736 163.95282 170.01828 176.09465 184.02558 188.30194 193.1565 196.18923 199.22196 204.0765 213.7747 219.84017 226.21108 231.66562">thespecificgroundsreliedupon</tspan></text>
<text xml:space="preserve" transform="matrix(1 0 -0 1 0 792)" font-size="10.9091" font-family="LMRoman10"><tspan y="-144.90901" x="72">&#x2022;</tspan></text>
<text xml:space="preserve" transform="matrix(1 0 -0 1 0 792)" font-size="10.9091" font-family="LMRoman10"><tspan y="-144.90901" x="85.94183 90.18547 96.25093 104.73821 110.20367 115.65822 119.901859 128.38915 132.66551 137.52007 142.37462 147.82917 152.10553">thevoterecord</tspan></text>
<text xml:space="preserve" transform="matrix(1 0 -0 1 0 792)" font-size="10.9091" font-family="LMRoman10"><tspan y="-122.59301" x="72">&#x2022;</tspan></text>
<text xml:space="preserve" transform="matrix(1 0 -0 1 0 792)" font-size="10.9091" font-family="LMRoman10"><tspan y="-122.59301" x="85.94183 91.396389 97.15639 106.56003 110.836399 115.69095 120.53459 126.61096 130.90915 136.3637 139.39643 147.32735 152.78189 158.84735 168.54555 173.4001 178.85465 184.9201 187.95284 190.98557 194.0183 198.87285 203.11649">anyrecusalsandconflicts</tspan></text>
<text xml:space="preserve" transform="matrix(1 0 -0 1 0 792)" font-size="10.9091" font-family="LMRoman10"><tspan y="-100.27601" x="72">&#x2022;</tspan></text>
<text xml:space="preserve" transform="matrix(1 0 -0 1 0 792)" font-size="10.9091" font-family="LMRoman10"><tspan y="-100.27601" x="85.94183 90.18547 96.25093 104.73821 112.92004 117.1964 123.26186 126.29459 130.53824 135.39279 139.66916 142.70189 150.64373 158.5201 162.79647 165.8292 170.07283 174.31647 179.16011 188.86922 193.72377 199.17832 205.24378 208.2765 211.30924 215.5856 224.67288 230.12743 234.37107 237.4038 242.85834">theArbiter&#x2019;swrittenconfirmation</tspan></text>
<text xml:space="preserve" transform="matrix(1 0 -0 1 0 792)" font-size="10.9091" font-family="LMRoman10"><tspan y="-42.112009" x="300.54499 305.99955">27</tspan></text>
</svg>
