<svg xmlns="http://www.w3.org/2000/svg" xmlns:xlink="http://www.w3.org/1999/xlink" xmlns:inkscape="http://www.inkscape.org/namespaces/inkscape" version="1.1" width="612" height="792" viewBox="0 0 612 792">
<text xml:space="preserve" transform="matrix(1 0 -0 1 0 792)" font-size="17.2154" font-family="LMRoman17"><tspan y="-665.305" x="248.826 260.7563 267.74574 284.44465 296.61595 304.5178 312.41966 320.3215 327.31095 333.40519 337.70906 345.6109 354.40797">NewDoggerland</tspan><tspan y="-643.38699" x="230.09401 242.59239 250.04666 257.94853 264.93797 271.0322 279.82926 287.7311 296.52818 303.5176 315.70613 324.50318 331.0278 339.82487 346.8143 355.61137 364.40843 368.71229 375.70173">GovernanceSchedules</tspan><tspan y="-621.469" x="168.17002 176.96709 183.50894 192.30602 199.29547 208.09255 216.88962 221.19347 233.38198 249.83989 260.22077 271.03205 284.32234 291.31178 297.406 305.30787 312.2973 321.09437 328.0838 341.63233 350.42939 357.41883 365.32069 374.56535 386.75386 398.46034 405.44978 413.35163 417.6555 423.83583 429.93006 436.0243">ScheduleB-EmergencyScopeRegistry</tspan></text>
<text xml:space="preserve" transform="matrix(1 0 -0 1 0 792)" font-size="14.3462" font-family="LMRoman12" font-weight="bold"><tspan y="-532.403" x="72.000019 83.663478 91.74039 100.26203 106.54567 113.90527 122.42692 128.71056">Contents</tspan></text>
<text xml:space="preserve" transform="matrix(1 0 -0 1 0 792)" font-size="10.9091" font-family="LMRoman10" font-weight="bold"><tspan y="-503.919" x="72.000019 88.36367 96.938228 103.90914 109.080059 116.40006 122.6728 127.62553">1Purpose</tspan></text>
<text xml:space="preserve" transform="matrix(1 0 -0 1 0 792)" font-size="10.9091" font-family="LMRoman10" font-weight="bold"><tspan y="-503.919" x="533.727">2</tspan></text>
<text xml:space="preserve" transform="matrix(1 0 -0 1 0 792)" font-size="10.9091" font-family="LMRoman10" font-weight="bold"><tspan y="-479.461" x="72 88.363658 98.22548 103.97457 110.94549 116.69458 121.86549 127.963687 135.62187 144.68733 150.96007 157.93099 162.88372 167.76009 172.931 179.02919 182.50919 189.13101 194.00739">2GeneralConstraints</tspan></text>
<text xml:space="preserve" transform="matrix(1 0 -0 1 0 792)" font-size="10.9091" font-family="LMRoman10" font-weight="bold"><tspan y="-479.461" x="533.7385">2</tspan></text>
<text xml:space="preserve" transform="matrix(1 0 -0 1 0 792)" font-size="10.9091" font-family="LMRoman10" font-weight="bold"><tspan y="-455.003" x="72 88.363658 93.120029 100.09094 104.26913 111.24004 116.81459 123.087329 130.40734 140.33463 148.56009 154.30919 159.4801 164.43283 170.70557 177.67649">3In-ScopePersons</tspan></text>
<text xml:space="preserve" transform="matrix(1 0 -0 1 0 792)" font-size="10.9091" font-family="LMRoman10" font-weight="bold"><tspan y="-455.003" x="533.73867">2</tspan></text>
<text xml:space="preserve" transform="matrix(1 0 -0 1 0 792)" font-size="10.9091" font-family="LMRoman10" font-weight="bold"><tspan y="-430.54499" x="72 88.363658 93.120029 100.09094 104.26913 111.24004 116.81459 123.087329 130.40734 140.33463 149.81464 156.78556 160.26555 170.71646 176.81465 180.29465">4In-ScopeAnimals</tspan></text>
<text xml:space="preserve" transform="matrix(1 0 -0 1 0 792)" font-size="10.9091" font-family="LMRoman10" font-weight="bold"><tspan y="-430.54499" x="533.7168">3</tspan></text>
<text xml:space="preserve" transform="matrix(1 0 -0 1 0 792)" font-size="10.9091" font-family="LMRoman10" font-weight="bold"><tspan y="-406.086" x="72 88.363658 93.120029 100.09094 104.26913 111.24004 116.81459 123.087329 130.40734 140.33463 148.90918 155.531 162.15283 167.10556 170.58556 176.16011 182.2583 189.9274 196.89832 203.86923 209.96743 215.54198 221.29108">5In-ScopePhysicalSpaces</tspan></text>
<text xml:space="preserve" transform="matrix(1 0 -0 1 0 792)" font-size="10.9091" font-family="LMRoman10" font-weight="bold"><tspan y="-406.086" x="533.72769">3</tspan></text>
<text xml:space="preserve" transform="matrix(1 0 -0 1 0 792)" font-size="10.9091" font-family="LMRoman10" font-weight="bold"><tspan y="-381.628" x="72 88.363658 93.120029 100.09094 104.26913 111.24004 116.81459 123.087329 130.40734 140.33463 149.81464 154.76737 159.7201 165.4692 170.34557 179.4874 185.58559 192.5565 203.70561 213.36017 218.23654 221.71654 225.19654 228.67653 233.5529 237.0329 242.782">6In-ScopeAssetsandUtilities</tspan></text>
<text xml:space="preserve" transform="matrix(1 0 -0 1 0 792)" font-size="10.9091" font-family="LMRoman10" font-weight="bold"><tspan y="-381.628" x="533.7168">3</tspan></text>
<text xml:space="preserve" transform="matrix(1 0 -0 1 0 792)" font-size="10.9091" font-family="LMRoman10" font-weight="bold"><tspan y="-357.16999" x="72 88.363658 93.120029 100.09094 104.26913 111.24004 116.81459 123.087329 130.40734 140.33463 147.30554 153.92737 158.8801 163.75647 169.50557 179.95648">7In-ScopeSystems</tspan></text>
<text xml:space="preserve" transform="matrix(1 0 -0 1 0 792)" font-size="10.9091" font-family="LMRoman10" font-weight="bold"><tspan y="-357.16999" x="533.72769">4</tspan></text>
<text xml:space="preserve" transform="matrix(1 0 -0 1 0 792)" font-size="10.9091" font-family="LMRoman10" font-weight="bold"><tspan y="-332.711" x="72 88.363658 96.61093 103.23276 110.203678 113.68368 117.16368 122.73823 126.21823 135.2728 143.53099 150.1419 155.71646 159.20737 166.17829 171.13101 174.61101 180.88375 187.85466">8ExplicitExclusions</tspan></text>
<text xml:space="preserve" transform="matrix(1 0 -0 1 0 792)" font-size="10.9091" font-family="LMRoman10" font-weight="bold"><tspan y="-332.711" x="533.72769">4</tspan></text>
<text xml:space="preserve" transform="matrix(1 0 -0 1 0 792)" font-size="10.9091" font-family="LMRoman10" font-weight="bold"><tspan y="-308.253" x="72 88.363658 93.120029 99.74185 104.61822 110.36731 115.53822 122.50914 127.68005 133.42916 138.30553 141.78553 148.05826 157.98555 167.05101 174.02193 177.51284">9InterpretiveRule</tspan></text>
<text xml:space="preserve" transform="matrix(1 0 -0 1 0 792)" font-size="10.9091" font-family="LMRoman10" font-weight="bold"><tspan y="-308.253" x="533.72769">4</tspan></text>
<text xml:space="preserve" transform="matrix(1 0 -0 1 0 792)" font-size="10.9091" font-family="LMRoman10" font-weight="bold"><tspan y="-283.79499" x="72 78.272739 87.88366 97.36367 107.81459 113.56368 120.5346 127.505519 137.95644 143.70554 150.32736 159.39282 165.49102 172.46193 183.61104 193.02559 198.77469 205.39652 208.87651 214.62561">10AmendmentandReview</tspan></text>
<text xml:space="preserve" transform="matrix(1 0 -0 1 0 792)" font-size="10.9091" font-family="LMRoman10" font-weight="bold"><tspan y="-283.79499" x="533.7168">5</tspan></text>
<text xml:space="preserve" transform="matrix(1 0 -0 1 0 792)" font-size="10.9091" font-family="LMRoman10"><tspan y="-42.111986" x="303.273">1</tspan></text>
</svg>
