<svg xmlns="http://www.w3.org/2000/svg" xmlns:xlink="http://www.w3.org/1999/xlink" xmlns:inkscape="http://www.inkscape.org/namespaces/inkscape" version="1.1" width="612" height="792" viewBox="0 0 612 792">
<text xml:space="preserve" transform="matrix(1 0 -0 1 0 792)" font-size="10.9091" font-family="LMRoman10"><tspan y="-709.041" x="71.596 79.47237 87.35964 96.44692 105.5342 108.56693 114.63239 117.66512 126.446949 132.5124 141.59969 148.26515 152.50879 158.58516 167.07245 175.407 178.43973 183.89427 189.95973 192.99246 196.93065 206.3234 213.44704 216.47977 222.23976 227.6943 235.60341 244.39615 250.46161 254.7598 262.63618 268.09074 272.94529 277.79985 283.2544 289.31986 295.07987 302.96717 306.30537 311.75993 316.0363">Ataminimum,theDignityFloormustaccountfor:</tspan></text>
<text xml:space="preserve" transform="matrix(1 0 -0 1 0 792)" font-size="10.9091" font-family="LMRoman10"><tspan y="-682.74" x="72">&#x2022;</tspan></text>
<text xml:space="preserve" transform="matrix(1 0 -0 1 0 792)" font-size="10.9091" font-family="LMRoman10"><tspan y="-682.74" x="85.94183 92.00729 97.461849 103.527309 107.82549 110.85822 116.92368 126.02187 130.86551 136.32006 140.62915 144.87279 152.80371 158.25826 166.13463 175.22191 180.9819 187.04737 191.90192 196.2001 200.44374 207.1092 213.17467 218.62921 224.69467 228.32741 231.36014 237.4256 243.18561 249.26198 253.53835 262.93107 265.96379 270.81834 276.2729 281.12745 284.16017 292.09107 299.96745 303.00016 307.2438 313.30928 316.34199 326.0511 330.29475 336.3602 344.84748 349.12385 353.9784 357.0111 361.86567 367.01478 372.46934 378.24024 386.1166 391.57118 396.42573 401.88029 407.33485 411.6112 417.06578 423.13124 429.1967 432.2294 440.71669 446.17124 450.4476 455.30216">housingcostsatmodest,non-luxurylevelswithintherelevantgeographicarea</tspan></text>
<text xml:space="preserve" transform="matrix(1 0 -0 1 0 792)" font-size="10.9091" font-family="LMRoman10"><tspan y="-660.423" x="72">&#x2022;</tspan></text>
<text xml:space="preserve" transform="matrix(1 0 -0 1 0 792)" font-size="10.9091" font-family="LMRoman10"><tspan y="-660.423" x="85.94183 89.28002 95.04003 100.80004 110.49823 114.79642 120.86188 123.89097 126.92006 129.94916 134.80371 137.83644 142.691 148.451 156.33829 159.67647 165.13101 173.04012 178.80013 184.86559 189.10923 193.38559 196.41832 200.66196 203.69469 209.14923 215.21469 220.66924 227.34561 232.80016 238.86562 243.72017 249.48018 255.54564 261.00019 265.84385">foodsufficientfornutritionaladequacy</tspan></text>
<text xml:space="preserve" transform="matrix(1 0 -0 1 0 792)" font-size="10.9091" font-family="LMRoman10"><tspan y="-638.107" x="72">&#x2022;</tspan></text>
<text xml:space="preserve" transform="matrix(1 0 -0 1 0 792)" font-size="10.9091" font-family="LMRoman10"><tspan y="-638.107" x="85.94183 92.00729 97.461849 101.76003 104.79276 113.28004 119.3455 123.589138 126.621868 129.65459 132.68732 136.93096 139.96369 144.81824 152.76007 158.21462 164.28008 173.97827 178.83283 184.28737 193.37465 202.15648 208.22194 214.2874 217.32013 222.17469 227.62923 231.87287 234.9056 240.36014 246.4256">basicutilitiesandcommunications</tspan></text>
<text xml:space="preserve" transform="matrix(1 0 -0 1 0 792)" font-size="10.9091" font-family="LMRoman10"><tspan y="-615.791" x="72">&#x2022;</tspan></text>
<text xml:space="preserve" transform="matrix(1 0 -0 1 0 792)" font-size="10.9091" font-family="LMRoman10"><tspan y="-615.791" x="85.94183 92.00729 96.86185 102.3164 105.34913 109.592769 115.658229 120.51277 125.96732 130.24369 138.73097 144.18552 149.04007 153.89463 158.74918 163.04737 170.9892 176.44374 184.35285 187.38558 193.45104 197.74922 203.81468 208.09105 213.5456 219.61106 224.4656 232.9529 237.80745 243.262 249.022 253.26564 256.29838 262.06929 268.13475 271.16746 275.10566">healthcareaccessorinsurancecontinuity</tspan></text>
<text xml:space="preserve" transform="matrix(1 0 -0 1 0 792)" font-size="10.9091" font-family="LMRoman10"><tspan y="-593.474" x="72">&#x2022;</tspan></text>
<text xml:space="preserve" transform="matrix(1 0 -0 1 0 792)" font-size="10.9091" font-family="LMRoman10"><tspan y="-593.474" x="85.94183 90.18547 94.46184 99.91639 105.98185 110.28004 116.650959 122.10551 126.381877 130.62552 136.08007 140.3237 143.35643 148.81098 158.50917 164.57463 169.42919 174.28374 179.13829 183.43648 187.73467 193.18921 197.46558 206.86923 211.11287 220.20015 226.57106 231.42562 235.70198 239.04016 244.4947 248.77108 261.49107 265.76744 270.62199 276.382 282.44746 285.48017 289.75654 294.61109 304.30928 310.37474 316.4402 320.68385 323.71656 328.5711">transportationnecessarytoperformrequiredduties</tspan><tspan y="-567.173" x="71.607 79.483379 85.548839 94.03611 102.37067 105.4034 110.85795 116.92341 119.95614 123.90523 133.29798 140.42162 143.45435 149.21434 154.66889 162.57799 171.35982 177.42528 181.72347 189.61075 195.97075 204.46895 209.3235 214.77805 217.81078 222.66533 228.73079 231.76352 237.21807 241.4617 246.31626 256.01445 262.0799 266.37809 269.4108 275.47627 280.93083">TheDignityFloormustbecalculatedusing:</tspan></text>
<text xml:space="preserve" transform="matrix(1 0 -0 1 0 792)" font-size="10.9091" font-family="LMRoman10"><tspan y="-540.87197" x="72">&#x2022;</tspan></text>
<text xml:space="preserve" transform="matrix(1 0 -0 1 0 792)" font-size="10.9091" font-family="LMRoman10"><tspan y="-540.87197" x="85.94183 92.00729 98.072757 104.138217 107.170948 110.203678 115.05823 118.09096 127.48369 132.64369 137.79279 143.24733 146.28006 149.31279 154.76734 160.8328 163.86553 172.35282 177.20737 182.66191 186.9601 191.20374 194.83647 200.29102 203.6292 207.26194 210.29467 213.3274 219.0874 222.12014 228.1856 237.28379 243.34925 248.80379 253.04743">publiclyavailablecost-of-livingdata</tspan></text>
<text xml:space="preserve" transform="matrix(1 0 -0 1 0 792)" font-size="10.9091" font-family="LMRoman10"><tspan y="-518.55496" x="72">&#x2022;</tspan></text>
<text xml:space="preserve" transform="matrix(1 0 -0 1 0 792)" font-size="10.9091" font-family="LMRoman10"><tspan y="-518.55496" x="85.94183 91.396389 96.54548 102.00002 106.85457 111.130939 117.196399 126.283679 131.13823 136.90915 144.78553 151.15644 156.30553 161.76009 166.61464 170.891 174.8292 179.68375 186.34922 190.6474 196.71286 202.77832 207.08742 210.12015 214.41834 218.66197 223.51653 229.58199 234.43654 239.28018 245.95656 251.4111 259.3202 262.3529 265.38563 271.14564 274.17835 280.2438 285.69837 289.3311 296.902 302.35658 307.81114 316.30934 322.66935 327.5239 333.58937 338.14936 344.2148 353.3021 358.75666 363.03303 368.79304">governmentpoverty,subsistence,orliving-wagebenchmarks</tspan></text>
<text xml:space="preserve" transform="matrix(1 0 -0 1 0 792)" font-size="10.9091" font-family="LMRoman10"><tspan y="-496.23893" x="72">&#x2022;</tspan></text>
<text xml:space="preserve" transform="matrix(1 0 -0 1 0 792)" font-size="10.9091" font-family="LMRoman10"><tspan y="-496.23893" x="85.94183 90.2182 95.072757 100.527309 103.560039 109.01459 115.08005 120.5346 127.20006 133.26552 138.72006 144.78553 149.08371 152.11644 158.1819 167.28009 172.73464 178.8001 188.49829 193.35285 199.11286 205.48377 210.33832 216.40378 220.70197 229.18926 232.22199 238.28745 244.3529 247.38564 252.24019 257.09474">regionalhousingandexpenseindices</tspan><tspan y="-469.93794" x="71.607 79.483379 85.548839 94.03611 102.37067 105.4034 110.85795 116.92341 119.95614 123.90523 133.29798 140.42162 143.45435 149.21434 154.66889 162.57799 171.35982 177.42528 181.72347 189.61075 195.67621 201.13076 205.37439">TheDignityFloormustnot:</tspan></text>
<text xml:space="preserve" transform="matrix(1 0 -0 1 0 792)" font-size="10.9091" font-family="LMRoman10"><tspan y="-443.63594" x="72">&#x2022;</tspan></text>
<text xml:space="preserve" transform="matrix(1 0 -0 1 0 792)" font-size="10.9091" font-family="LMRoman10"><tspan y="-443.63594" x="85.94183 90.2182 95.072757 98.105487 107.498218 112.95277 122.661869 125.694599 131.76006 137.82552 140.85825 146.61826 149.65099 155.71645 161.7819 167.23645 173.90192 177.2401 181.51647 187.58193 193.03647 198.49102 201.52375 204.55648 208.49466 213.34922 220.01468 224.31287 229.76741 234.62197 238.89833 241.93106 244.96379 247.99652 252.85108 257.70564 264.37107 269.82563 277.74565 286.83293 289.86564 294.16383 298.462 301.49473 306.94929 316.64747 322.10203 325.13475 328.16746 333.622 339.68748 348.77476 353.6293 359.3893">relyonindividualfrugality,sacrifice,ormissionalignment</tspan></text>
<text xml:space="preserve" transform="matrix(1 0 -0 1 0 792)" font-size="10.9091" font-family="LMRoman10"><tspan y="-421.31993" x="72">&#x2022;</tspan></text>
<text xml:space="preserve" transform="matrix(1 0 -0 1 0 792)" font-size="10.9091" font-family="LMRoman10"><tspan y="-421.31993" x="85.94183 91.396389 95.69457 99.99276 106.05822 115.1455 123.632778 129.69823 135.7746 141.84006 147.2946 150.32733 160.02553 163.05826 168.5128 174.88372 180.33826 184.61463 191.28009 197.34555 202.2001 205.53829 210.39284 214.6692 218.94557 223.80013 233.49832 238.35288 243.80742 252.8947 259.2656 264.12016 270.1856 274.4838 279.93836 284.182 287.21473 292.66929 298.73475 305.40019 310.85475 318.77476 322.11296 328.1784 332.42207 338.48753 342.7639 351.25117 360.33845 365.793 371.24757 376.1021 379.73484 387.6112 393.67668 399.13124 402.16395 410.66215 416.7276 421.00398 426.45854 435.5458 438.57853 442.8767 447.73127">assumeunpaidlabor,deferredcompensation,orfuturemake-wholepromises</tspan></text>
<text xml:space="preserve" transform="matrix(1 0 -0 1 0 792)" font-size="10.9091" font-family="LMRoman10"><tspan y="-399.0039" x="72">&#x2022;</tspan></text>
<text xml:space="preserve" transform="matrix(1 0 -0 1 0 792)" font-size="10.9091" font-family="LMRoman10"><tspan y="-399.0039" x="85.94183 92.31275 100.800029 105.09821 109.95276 117.829128 124.20004 129.0546 132.08733 137.23642 148.75644 154.21099 159.971 169.36374 172.39647 177.25102 182.70557 188.16011 191.19284 194.22557 203.62923 212.7165 218.17105 224.23651 230.30197 235.75652 240.00016 244.8547 254.5529 263.6402 266.6729 272.73838 275.7711 284.55293 290.61839 299.70567">besetbelowanylegallymandatedminimums</tspan></text>
<text xml:space="preserve" transform="matrix(1.0099504 0 -0 .99014756 0 792)" font-size="11.017651" font-family="LMRoman10"><tspan y="-376.41059" x="70.74011 82.06625 88.19206 93.09492 97.41383 107.16445 116.044689 122.170497 125.2334 129.51926 132.58217 138.70798 141.77089 151.52153 157.94481 162.84767 168.97348 173.57888 179.70468 188.88239 194.39122 198.71013 204.52745 213.71619 218.61905 224.43636 227.49927 231.84023 236.12609 244.35626 248.64212 254.76795 264.51856 270.64436 273.70729 279.21607 285.3419 290.24473 294.5857 303.71934 309.22816 315.35398 321.4908 324.54267 327.6056 332.50843 338.01725 344.14308 347.20597 356.9676 363.3909 368.29374 374.41957 379.0249 385.15074 394.32844 399.83723 404.15617 414.82127 423.70146 429.82728 434.16825 443.30189 449.72517 459.47578 465.6016 469.95359 474.8454 485.83 491.9558 498.0816 501.14454 506.04737 510.3883 519.577 523.86288 529.98867">Wheremultiplebenchmarksexist,thehighestapplicablebenchmarkmustbeusedunlessthe</tspan></text>
<text xml:space="preserve" transform="matrix(1 0 -0 1 0 792)" font-size="10.9091" font-family="LMRoman10"><tspan y="-359.153" x="72 80.563648 85.71274 91.16728 96.021839 100.2982 106.36366 109.39639 115.46185 124.56004 132.28369 138.04369 144.10915 153.50189 159.56735 165.32735 170.1819 176.24736 185.33464 190.1892 195.9492 200.19284 208.12377 217.22196 222.0765 225.10924 229.96379 235.41834 239.6947 246.36017 252.42563 257.8802 263.94566 267.57838 272.43293 278.19294 282.43659 286.71296 292.1675 297.02207 301.26573 304.29844 309.753 318.24028 321.57847 327.64393 331.9421 336.18577 339.21849 342.2512 345.28395 350.1385 355.59306 359.8367 362.86943 368.32398 378.03309 381.37129 386.82585 394.73493 400.18949 409.8986 415.35316 418.37498 422.61863 427.47319 431.74955 437.815 443.26957 447.5132 450.54594 456.01139 460.86595">GoverningBodydocumentsaclear,non-extractivejustificationforanalternative.</tspan></text>
<text xml:space="preserve" transform="matrix(.9899495 0 -0 1.0101526 0 792)" font-size="10.799458" font-family="LMRoman10"><tspan y="-335.42359" x="72.33399 80.131198 86.1357 94.37569 102.62647 105.62872 111.02845 117.03295 120.0352 123.93381 133.07016 140.12221 143.12445 148.83737 154.2371 161.90473 167.90923 172.71498 176.91597 181.72174 185.95513 194.95107 197.95333 203.95783 209.35755 213.55854 216.56079 221.96053 231.39925 240.09282 246.09732 250.3523 257.98753 264.30519 272.54518 278.54966 284.26258 289.06834 295.0728 304.0688 308.8745 314.56587 318.7668 323.57258 329.57707 336.06755 340.3009 345.10667 350.80879 353.811 358.61677 366.1008 371.50053 377.50505 380.50727 385.31303 391.8035 397.20323 403.2077 412.65724 418.66175 421.664 425.91899 430.72474 433.72697 439.1267 443.38169 448.18745 457.62617 461.82716 470.6611 476.06083 479.20887 482.35694 487.16267 491.9684 496.1694 500.97514 510.42466 516.73159 521.53738 525.77078 530.0257 535.4254 541.42996">TheDignityFloordeterminationmustbedocumented,reviewable,anddisclosedtoaffectedpersons</tspan></text>
<text xml:space="preserve" transform="matrix(1 0 -0 1 0 792)" font-size="10.9091" font-family="LMRoman10"><tspan y="-325.28" x="72 78.06546 82.34183 85.37456 90.82911 98.738208 102.98184 112.08003 117.534587 123.294589 132.68733 137.54189 142.99643 152.08371 158.45462 163.30918 169.37464 173.67282 179.12737 183.371 186.40373 191.85828 201.55648 205.83284 210.6874 216.75286 222.81832 227.67287 231.9165 234.94924 240.40378 246.46924">priortoanycompensationreduction.</tspan><tspan y="-304.956" x="71.596 79.777828 85.53783 94.94147 99.217838 104.07239 109.52694 113.82513 119.27968 125.34514 130.79969 136.86515 139.89788 148.38516 154.45063 159.90517 165.97063 172.03609 179.91246 185.367 193.30884 197.55248 206.63976 212.0943 218.15976 223.01432 228.77433 234.83979 240.29433 245.14888 254.54163 263.33436 269.3998 273.698 281.57438 287.94529 296.43257 300.70893 305.56349 309.86167 315.31623 318.34895 323.8035 328.65806 338.36717 341.39988 351.09806 354.43626 359.58537 365.0508 370.50538 378.41447 383.86903 390.83995 395.0836 401.14906 409.64726 412.67997 418.74543 424.81089 427.8436 433.6036 436.63633 442.70179 448.76725 454.2218 457.25453">Anyreasonabledoubtastoadequacymustberesolvedinfavoroftheindividual.</tspan><tspan y="-284.632" x="72 82.00365 88.06911 92.312747 97.767299 103.832759 106.865489 109.89822 112.93095 116.869129 122.62913 130.5164 138.69823 144.76369 149.31279 155.37825 160.8328 166.89826 172.3528 177.20735 182.6619 188.72736 191.76009">Mutability:Unchangeable</tspan></text>
<text xml:space="preserve" transform="matrix(1 0 -0 1 0 792)" font-size="14.3462" font-family="LMRoman12" font-weight="bold"><tspan y="-250.26399" x="72">5</tspan></text>
<text xml:space="preserve" transform="matrix(1 0 -0 1 0 792)" font-size="14.3462" font-family="LMRoman12" font-weight="bold"><tspan y="-250.26399" x="92.185108 107.4925 111.982868 118.35258 124.72229 129.21265 137.28955 151.63574 160.60211 166.88574 174.73311 181.01674 188.37635 201.83309 209.19269 217.71433">MissionStatement</tspan></text>
<text xml:space="preserve" transform="matrix(1 0 -0 1 0 792)" font-size="11.9552" font-family="LMRoman12" font-weight="bold"><tspan y="-223.325" x="72 78.73078 82.47276">5.1</tspan></text>
<text xml:space="preserve" transform="matrix(1 0 -0 1 0 792)" font-size="11.9552" font-family="LMRoman12" font-weight="bold"><tspan y="-223.325" x="99.29373 106.76573 112.00211 118.54161 123.77799 131.25 141.0413 147.5808 155.0528 167.008 176.78736 184.25936 189.49573 196.96773 203.6985 209.19789 212.93987 217.80564">StatusandAuthority</tspan></text>
<text xml:space="preserve" transform="matrix(.9924717 0 -0 1.0075854 0 792)" font-size="10.826972" font-family="LMRoman10"><tspan y="-201.20577" x="72.15017 79.96725 85.987049 88.99694 96.92228 106.85062 109.86051 114.126338 118.39216 121.402057 126.815547 136.49486 142.51465 146.72635 152.13983 156.35153 161.16954 170.18842 175.00643 180.72306 188.58344 191.59334 199.51869 205.53849 210.95197 216.97176 220.57714 226.60776 229.61766 235.63745 241.65724 244.66715 250.68694 256.1004 263.99327 267.9018 275.76219 280.5802 286.29685 289.30674 293.57258 297.78428 305.7096 309.9213 318.9943 323.8123 326.8222 332.2357 336.47987 339.48979 342.80284 352.179 355.1889 360.90556 365.11726 369.93525 375.65193 383.5123 388.92579 394.9456 404.6249 410.0384 414.28257 417.29249 422.11048 427.82716 432.03886 437.45234 441.66404 444.67393 450.08744 456.10725 464.0001 467.90864 475.77986 481.79966 487.5163 492.33433 500.25965 506.27946 511.69294 519.56417 524.97769 529.2218 534.6353 540.3519">ThisMissionStatementisnon-binding.Itexiststoclarifyintentandorientation.Itdoesnotgrant</tspan></text>
<text xml:space="preserve" transform="matrix(.9899495 0 -0 1.0101526 0 792)" font-size="10.799458" font-family="LMRoman10"><tspan y="-187.28061" x="72.73098 78.13071 84.13521 88.3362 94.3407 99.740428 103.973819 106.97607 110.874668 115.65883 122.25729 127.06306 131.29644 136.1022 141.50193 145.70291 154.09409 159.49382 165.49832 168.50057 171.50283 176.90254 182.30228 186.50327 189.50553 194.90525 200.90975 205.16474 211.7632 217.16294 224.98172 229.23671 235.24121 241.5481 246.35387 250.58725 254.84224 259.64799 265.6525 274.04365 279.4434 285.1455 294.433 300.43754 304.6709 309.75746 315.45957 318.46183 322.7168 325.71907 331.11878 340.70869 346.10844 352.99848 357.19944 363.20396 366.2062 374.0466 381.84379 387.24354 393.24803 397.50303 402.90275 405.905 408.90724 414.91175 420.31147 424.51246 429.31819 438.9081 447.38569 452.47224 457.87196 462.6777 466.91108 472.91557 478.3153 484.3198 489.12556 497.5167 505.76753 511.4696 516.2754 522.27987 531.27578 536.0815 541.7836">authority,createobligations,orsupersedeanyprovisionofthisConsolidatedGovernanceDocument</tspan></text>
<text xml:space="preserve" transform="matrix(.99849888 0 -0 1.0015034 0 792)" font-size="10.892724" font-family="LMRoman10"><tspan y="-175.36937" x="72.108249 77.55461 85.47362 90.91998 96.67135 106.07176 111.51813 116.6595 122.10586 126.953128 131.22307 137.27942 140.3076 146.36396 155.45938 161.51572 167.26708 172.11434 178.17069 187.24433 192.09159 197.84293 205.72927 211.78562 216.63288 220.89192 223.9201 229.37737 234.22463 243.91915 247.25232 251.52227 256.96864 269.69136 272.7195 276.95677 284.85395 288.78623 298.49165 302.7289 308.78529 317.28163 322.12889 327.57527 332.42253 338.1739 346.0602 351.50657 358.4888 363.93516 369.6865 379.07606 383.92335 389.3697 395.42607 398.45423 401.48243 404.5106 409.35786 413.5951 420.27235 424.50959 430.56596 433.59413 441.5349 451.52354 454.5517 458.8434 463.13514 466.1633 471.60966 481.3151 487.37147 491.6087 497.05506 501.2923 506.1396 515.2132 520.0604 525.81179 533.69808 536.7262">oranygoverningdocumentderivedfromit.Intheeventofanyconflict,thisMissionStatementis</tspan></text>
<text xml:space="preserve" transform="matrix(1.0049875 0 -0 .9950372 0 792)" font-size="10.96351" font-family="LMRoman10"><tspan y="-162.89241" x="71.642688 75.9623 82.05802 88.46071 93.94247 98.24016 104.33587 107.38373 113.47944 118.9612 123.226009 131.7008 135.9656 145.05435 149.31916 155.41487 158.46273 166.38936 174.30501 179.78678 185.88248 190.2021 195.68386 198.73172 201.77959 207.8753 213.35706 217.62186 222.50061 232.20333 240.80968 245.98445 251.47719 256.35597 260.65367 266.7494 272.23115 278.32688 283.20564 291.68043 300.05656 305.84529 310.72407 316.8198 325.9524 330.83119 336.61994 344.4917 349.97346 356.06919 365.77195 370.03675 379.1255 383.3903 389.48603 397.96083 403.44258 408.62834 414.11009 418.98884 423.28654 429.38227 432.4301 438.52583 447.6146 453.71034 456.75819 461.63694 465.93464 471.41639 475.71409 480.2859 486.0856 495.48133 499.80094 504.06575 509.54756 513.8123 518.6911 528.3828 531.43069">subordinatetothisConsolidatedGovernanceDocumentandtothegoverninghierarchystatedin</tspan></text>
<text xml:space="preserve" transform="matrix(1 0 -0 1 0 792)" font-size="10.9091" font-family="LMRoman10"><tspan y="-148.535" x="72 78.06546 82.92001 87.77457 92.0182 95.050937 100.505489">Section</tspan></text>
<text xml:space="preserve" transform="matrix(1 0 -0 1 0 792)" font-size="10.9091" font-family="LMRoman10"><tspan y="-148.535" x="110.203678">2</tspan></text>
<text xml:space="preserve" transform="matrix(1 0 -0 1 0 792)" font-size="10.9091" font-family="LMRoman10"><tspan y="-148.535" x="115.658229">.</tspan><tspan y="-128.211" x="72 82.00365 88.06911 92.312747 97.767299 103.832759 106.865489 109.89822 112.93095 116.869129 122.62913 130.5164 138.5455 143.40006 149.16007 152.1928 156.49098 161.94553 168.01099 171.04372">Mutability:Revisable</tspan></text>
<text xml:space="preserve" transform="matrix(1 0 -0 1 0 792)" font-size="10.9091" font-family="LMRoman10"><tspan y="-42.112" x="300.54499 305.99955">19</tspan></text>
</svg>
