<svg xmlns="http://www.w3.org/2000/svg" xmlns:xlink="http://www.w3.org/1999/xlink" xmlns:inkscape="http://www.inkscape.org/namespaces/inkscape" version="1.1" width="612" height="792" viewBox="0 0 612 792">
<text xml:space="preserve" transform="matrix(1 0 -0 1 0 792)" font-size="10.9091" font-family="LMRoman10" font-weight="bold"><tspan y="-709.041" x="72 78.272739 81.75274 88.025478 94.29821 97.77821">6.10.4</tspan></text>
<text xml:space="preserve" transform="matrix(1 0 -0 1 0 792)" font-size="10.9091" font-family="LMRoman10" font-weight="bold"><tspan y="-709.041" x="113.4655 122.89096 129.86188 136.13462 141.30553 148.27645 162.90555 171.15283 177.77466 183.34922 186.82921 193.80013 198.75286 202.23285 208.50559 215.4765">QuorumExclusion.</tspan></text>
<text xml:space="preserve" transform="matrix(.99548986 0 -0 1.0045307 0 792)" font-size="10.859898" font-family="LMRoman10"><tspan y="-685.3429" x="71.93142 79.77226 85.81037 94.291957 102.81697 107.94284 113.372798 118.20545 122.46253 128.50064 131.51969 137.55779 146.6475 154.33632 160.07035 166.10843 175.49138 183.33222 189.37032 194.80027 197.8193 205.72531 211.76342 217.5083 222.33008 230.26868 236.30677 241.73671 249.61014 254.44278 259.87275 265.91084 271.64488 279.52915 283.75364 288.87953 296.4163 301.84623 306.1033 315.79035 321.52436 327.56248 332.9924 337.24949 343.2876 355.98283 362.0209 368.05903 371.07807 375.9107 380.18949 388.12806 392.40687 397.2395 403.2776 408.70756 412.96464 418.39457 422.61909 427.45173 430.47077 439.85374 445.28367 451.32179 457.66395 463.09388 466.11296 471.84696 476.07145 480.9041 490.602 496.03193 503.95967 513.0385 518.4685 523.89846 528.1229 531.14199 537.18008">TheGoverningBodyChairdoesnotcounttowardquorumunlessseparatelyappointedasavoting</tspan></text>
<text xml:space="preserve" transform="matrix(1 0 -0 1 0 792)" font-size="10.9091" font-family="LMRoman10"><tspan y="-674.899" x="72 81.08728 85.94183 94.723659 101.094577 105.94913 110.225498">member.</tspan><tspan y="-654.575" x="72 82.00365 88.06911 92.312747 97.767299 103.832759 106.865489 109.89822 112.93095 116.869129 122.62913 130.5164 138.69823 144.76369 149.31279 155.37825 160.8328 166.89826 172.3528 177.20735 182.6619 188.72736 191.76009">Mutability:Unchangeable</tspan></text>
<text xml:space="preserve" transform="matrix(1 0 -0 1 0 792)" font-size="10.9091" font-family="LMRoman10" font-weight="bold"><tspan y="-625.765" x="72 78.272739 81.75274 88.025478 94.29821 97.77821">6.10.5</tspan></text>
<text xml:space="preserve" transform="matrix(1 0 -0 1 0 792)" font-size="10.9091" font-family="LMRoman10" font-weight="bold"><tspan y="-625.765" x="113.4655 125.378238 131.12734 141.22916 148.54917 154.29827 163.64737 170.61829 175.49466 181.59285 186.46923 193.44014 202.57106 209.54198 215.29108 222.262 228.36019 233.5311 239.62929 244.50566 247.98566 254.25839 261.2293">MemberStatusSeparation.</tspan></text>
<text xml:space="preserve" transform="matrix(1 0 -0 1 0 792)" font-size="10.9091" font-family="LMRoman10"><tspan y="-605.172" x="71.607 79.483379 85.548839 94.03611 102.599758 107.75976 113.2143 118.06885 122.345218 128.41068 131.4434 137.50887 146.59615 154.3198 160.07979 166.14525 175.538 183.41437 189.47983 194.93437 197.9671 205.88712 208.91985 216.85077 222.91623 228.37078 236.24715 245.34534 250.7999 256.25447 260.4981 263.53083 269.59629 278.68357 287.77085 292.6254 301.40724 307.77815 312.6327 320.54179 326.31269 335.7054 341.46543 344.49815 348.7745 353.01817 359.08363 367.5709 373.02546 380.0073 386.07276 391.5273 394.56004 400.6255 403.6582 409.72367 418.81095 423.0546 429.12007 437.61827 445.49464 451.5601 457.01466 460.04737 467.95646 472.23283 477.68739 480.7201 485.57466">TheGoverningBodyChairisnotavotingmemberbyvirtueofholdingtheChairrole.</tspan><tspan y="-584.848" x="72 82.00365 88.06911 92.312747 97.767299 103.832759 106.865489 109.89822 112.93095 116.869129 122.62913 130.5164 138.69823 144.76369 149.31279 155.37825 160.8328 166.89826 172.3528 177.20735 182.6619 188.72736 191.76009">Mutability:Unchangeable</tspan></text>
<text xml:space="preserve" transform="matrix(1 0 -0 1 0 792)" font-size="10.9091" font-family="LMRoman10" font-weight="bold"><tspan y="-556.03707" x="72 78.272739 81.75274 88.025478 94.29821 97.77821">6.10.6</tspan></text>
<text xml:space="preserve" transform="matrix(1 0 -0 1 0 792)" font-size="10.9091" font-family="LMRoman10" font-weight="bold"><tspan y="-556.03707" x="113.4655 122.59642 129.56734 134.44371 141.41463 147.68737 152.85828 156.33827 160.86556 171.66558 179.21468 182.69467 193.14559 196.62558 201.50196 207.60015 212.47652 215.95652 222.22925 229.20017">AuthorityLimitation.</tspan></text>
<text xml:space="preserve" transform="matrix(1.001998 0 -0 .998006 0 792)" font-size="10.930896" font-family="LMRoman10"><tspan y="-536.5149" x="71.464229 79.35633 85.433917 93.938159 102.51891 107.67829 113.15467 118.01892 122.2929 128.38141 131.4202 137.49777 146.59227 154.33135 160.10285 166.18044 175.59194 183.48406 189.56163 195.02709 198.06587 205.99077 212.06835 217.5338 220.57259 226.65016 234.59694 240.67452 249.77996 255.85752 261.9351 264.97389 268.01268 273.47813 277.73027 282.5945 286.87944 292.34489 299.02366 304.4891 310.56669 314.81883 320.8964 326.36186 330.6468 333.68559 337.63163 347.04313 352.20256 357.67893 362.53224 370.4571 379.03788 384.2082 389.67366 394.5379 398.8228 404.90043 407.9392 414.01679 423.12223 430.8613 436.6328 442.7104 452.111 458.18858 463.05284 467.91706 470.95585 475.2626 478.3014 483.76686 489.84446 494.1512 500.8409 506.30638 512.3839 518.7566 524.2221 527.26089 533.04336 537.2955">TheGoverningBodyChairholdsnounilateralauthorityoverGoverningBodydecisions,appoint-</tspan></text>
<text xml:space="preserve" transform="matrix(1 0 -0 1 0 792)" font-size="10.9091" font-family="LMRoman10"><tspan y="-521.895" x="72 81.08728 85.94183 91.701839 95.94547 100.24366 106.92003 111.196399 116.04004 125.12732 130.28733 135.43642 140.89096 143.92369 148.22188 154.88735 160.34189 168.2619 173.71646 179.171 183.41464 188.2692 192.56739">ments,removals,orvotes.</tspan><tspan y="-501.57203" x="72 82.00365 88.06911 92.312747 97.767299 103.832759 106.865489 109.89822 112.93095 116.869129 122.62913 130.5164 138.69823 144.76369 149.31279 155.37825 160.8328 166.89826 172.3528 177.20735 182.6619 188.72736 191.76009">Mutability:Unchangeable</tspan></text>
<text xml:space="preserve" transform="matrix(1 0 -0 1 0 792)" font-size="10.9091" font-family="LMRoman10" font-weight="bold"><tspan y="-472.76103" x="72 78.272739 81.75274 88.025478 94.29821 97.77821">6.10.7</tspan></text>
<text xml:space="preserve" transform="matrix(1 0 -0 1 0 792)" font-size="10.9091" font-family="LMRoman10" font-weight="bold"><tspan y="-472.76103" x="113.4655 122.94551 129.21825 134.96735 141.93827 148.90918 159.18556 168.25102 174.52376 181.14559 186.02196 191.19287 197.4656 205.1238 212.09471 218.1929 222.022 227.7711 234.04384 241.01476 247.11295 252.28386 259.25477">AgendaControlSafeguard.</tspan></text>
<text xml:space="preserve" transform="matrix(1 0 -0 1 0 792)" font-size="10.9091" font-family="LMRoman10"><tspan y="-452.16804" x="71.607 79.483379 85.548839 94.03611 102.599758 107.75976 113.2143 118.06885 122.345218 128.41068 131.4434 137.50887 146.59615 154.3198 160.07979 166.14525 175.538 184.62528 189.77437 199.17803 204.63257 213.71985 218.5744 224.63986 234.33806 238.5817 244.64716 253.14536 262.23265 267.0763 271.93086 276.1745 279.2072 285.27268 294.37089 299.82545 305.28 310.13456 316.2 322.26548 331.35276 337.11277 346.51643 355.6037 361.3637 364.7019 370.15647 374.43284 377.46556 381.40376 390.79649 396.25105 401.7056 405.94926 414.44746 419.902 427.77839 433.23295 438.99296 448.3966 452.64027 455.67298 464.76026 469.6039">TheGoverningBodymayamendthemeetingagendabymajorityvoteatanytime.</tspan><tspan y="-431.84403" x="72 82.00365 88.06911 92.312747 97.767299 103.832759 106.865489 109.89822 112.93095 116.869129 122.62913 130.5164 138.69823 144.76369 149.31279 155.37825 160.8328 166.89826 172.3528 177.20735 182.6619 188.72736 191.76009">Mutability:Unchangeable</tspan></text>
<text xml:space="preserve" transform="matrix(1 0 -0 1 0 792)" font-size="10.9091" font-family="LMRoman10" font-weight="bold"><tspan y="-403.03404" x="72 78.272739 81.75274 88.025478 94.29821 97.77821">6.10.8</tspan></text>
<text xml:space="preserve" transform="matrix(1 0 -0 1 0 792)" font-size="10.9091" font-family="LMRoman10" font-weight="bold"><tspan y="-403.03404" x="113.4655 122.53096 129.50188 135.60007 139.08007 148.42917 158.24736 163.99646 170.96738 175.84375 181.01467 187.11286 190.59285 194.07285 198.60013 209.40015 215.49834 222.46926 233.62928 240.4802 246.57839 252.15294 255.63294 259.11296 262.59297 267.46934 273.5675 278.44389 281.9239 288.19664 299.34574 308.4112 314.68394 321.65486 326.60758 331.48396 336.65486 342.75303 346.23304 352.86576 357.74214 362.69486">ChairNeutralityandFacilitationConstraints.</tspan></text>
<text xml:space="preserve" transform="matrix(1 0 -0 1 0 792)" font-size="10.9091" font-family="LMRoman10"><tspan y="-382.44105" x="71.607 79.483379 85.548839 94.03611 102.599758 107.75976 113.2143 118.06885 122.345218 128.41068 131.4434 137.50887 146.59615 154.3198 160.07979 166.14525 175.538 183.41437 189.47983 194.93437 197.9671 205.88712 214.66895 220.7344 225.0326 232.90897 236.24715 241.70169 246.55625 249.58898 252.6217 255.65444 259.89808 265.35264 269.59629 278.08357 287.17085 292.0254 296.87995 301.1236 304.1563 310.22178 315.67634 323.61817 326.65089 336.34907 345.43635 351.5127 355.77818 361.53819 366.39274 371.24729 377.31275 383.3782 387.65458 393.10914 396.14186 399.17457 408.5673 414.64366 419.4873 425.56367 429.8073 434.08369 439.53825 446.20368 455.29096 460.7455 466.81098 472.87644 477.731 482.00736">TheGoverningBodyChairmustfacilitatemeetingsinaprocedurallyneutralmanner.</tspan><tspan y="-362.11705" x="71.607 79.483379 85.548839 94.03611 101.91248 107.97794 113.432498 116.465229 124.38523 133.16706 139.23252 143.5307 147.77434">TheChairmust:</tspan></text>
<text xml:space="preserve" transform="matrix(1 0 -0 1 0 792)" font-size="10.9091" font-family="LMRoman10"><tspan y="-335.81605" x="72">&#x2022;</tspan></text>
<text xml:space="preserve" transform="matrix(1 0 -0 1 0 792)" font-size="10.9091" font-family="LMRoman10"><tspan y="-335.81605" x="85.94183 95.02911 100.483669 103.516399 109.2764 113.520038 118.97459 122.00732 131.71642 140.8037 144.14188 149.59642 152.62915 160.53826 164.83644 171.20735 176.0619 181.51645 187.27646 190.30919 196.37465 205.46193 210.91648 215.19284 221.2583 226.11286 234.03287 239.48741 245.55287 255.25107 259.52745 264.382 269.83656 274.13475 279.5893 285.65476 291.1093 297.17478 300.2075 308.69477 312.93843 315.97114 325.0584 333.5566 336.58934 339.62205 348.70933 351.74205 355.9857">maintainafairspeakingorderandreasonabletimelimits</tspan></text>
<text xml:space="preserve" transform="matrix(1 0 -0 1 0 792)" font-size="10.9091" font-family="LMRoman10"><tspan y="-313.49906" x="72">&#x2022;</tspan></text>
<text xml:space="preserve" transform="matrix(.9964939 0 -0 1.0035185 0 792)" font-size="10.870851" font-family="LMRoman10"><tspan y="-312.39985" x="86.24238 90.503749 95.34128 99.62439 103.85315 109.288578 113.517337 122.00747 131.06288 136.4983 140.72707 143.7383 149.17372 155.22878 163.15363 168.58905 174.63324 184.33003 189.76546 195.20088 199.42963 207.91977 213.65958 219.70377 224.5413 228.82442 233.05316 236.07527 241.5107 247.55489 255.47972 260.91517 265.7527 270.01408 276.05827 281.49369 285.72245 288.74455 301.4526 306.88804 314.802 320.54185 329.92338 334.18476 339.02229 342.34877 347.18629 351.44764 356.28517 362.32939 367.16688 375.657 379.88578 388.96293 396.81169 401.07307 404.09516 408.3239 412.55268 417.39018 427.08699 431.31575 436.15327 441.8931 446.12184 452.78569 460.63444 463.65653 467.88529 473.92948 479.36494 485.41999 493.2905 499.63908 504.4766 508.73796 513.02108 519.06527 524.50076 528.7839 531.8059 537.2413">restatemotionsandvotequestionsverbatimorbyreferencetowrittentext,withoutpersuasive</tspan></text>
<text xml:space="preserve" transform="matrix(1 0 -0 1 0 792)" font-size="10.9091" font-family="LMRoman10"><tspan y="-299.95" x="85.94 89.27819 93.55456 99.00911 108.09639 111.12912 117.19458">framing</tspan></text>
<text xml:space="preserve" transform="matrix(1 0 -0 1 0 792)" font-size="10.9091" font-family="LMRoman10"><tspan y="-277.634" x="72">&#x2022;</tspan></text>
<text xml:space="preserve" transform="matrix(1 0 -0 1 0 792)" font-size="10.9091" font-family="LMRoman10"><tspan y="-277.634" x="85.94183 91.396389 97.461849 103.527309 106.560039 115.95277 121.40732 126.86187 131.71642 137.78188 143.84734 152.94553 157.24372 162.09827 167.85828 173.92374 178.77829 184.84375 189.6983 192.73104 198.7965 207.88378 212.73833 218.19287 224.25833 228.55652 231.58925 235.88744 240.13108 244.98563 250.74564 254.98928 258.022 267.42567 273.49113 279.55659 282.5893 287.44386 291.74205 299.67295 305.1275 314.21479 319.06935 325.1348 331.20027 336.0548 345.76393 351.52394 360.91667 365.1603 371.22578 379.71305 388.27668 393.43669 398.89125 403.7458 408.02217 414.08763 417.12034 423.1858 432.27308 439.9967 445.7567 451.82218">applyagendasequencingconsistentlyunlessamendedbytheGoverningBody</tspan></text>
<text xml:space="preserve" transform="matrix(1 0 -0 1 0 792)" font-size="10.9091" font-family="LMRoman10"><tspan y="-255.31801" x="72">&#x2022;</tspan></text>
<text xml:space="preserve" transform="matrix(1 0 -0 1 0 792)" font-size="10.9091" font-family="LMRoman10"><tspan y="-255.31801" x="85.94183 90.79639 96.86185 101.160037 107.225498 111.50186 119.98914 125.443698 128.47643 135.1528 139.42917 144.28372 150.04373 156.10919 159.14192 163.41829 168.26194 177.97104 183.4256 188.88014 193.12378 197.97834 202.27652 208.94199 213.21836 218.0729 222.92746 228.99292 233.2911 238.74565 241.77838 246.07657 252.75295 258.2075 264.27296 273.97114 279.73115 285.7966 291.25117 295.52754 301.593 314.3239 318.6221 322.86576 328.3203 332.56398 338.62944 346.56034 352.0149 356.29127 364.77854 369.0549 373.90946 378.764 384.21858 388.49494 394.5604 399.41496">ensureallrequiredvotes,recusals,andquorumstatusarerecorded</tspan><tspan y="-229.016" x="71.607 79.483379 85.548839 94.03611 101.91248 107.97794 113.432498 116.465229 124.38523 133.16706 139.23252 143.5307 151.40708 157.47254 162.92708 167.17072">TheChairmustnot:</tspan></text>
<text xml:space="preserve" transform="matrix(1 0 -0 1 0 792)" font-size="10.9091" font-family="LMRoman10"><tspan y="-202.71501" x="72">&#x2022;</tspan></text>
<text xml:space="preserve" transform="matrix(1 0 -0 1 0 792)" font-size="10.9091" font-family="LMRoman10"><tspan y="-202.71501" x="85.94183 90.24002 96.30548 105.39276 114.48004 119.93459 124.21096 127.24369 132.09824 140.58553 146.04007 153.96009 158.50919 164.57465 170.02919 174.30556 179.7601 184.61466 188.85829 193.71285 197.98921 201.02194 205.8765 214.36379 220.42925 225.2838 231.34926 236.8038 241.04744 249.53473 252.56746 262.27656 271.36384 280.4511 285.90568 291.97114 298.0366 302.89115 310.80024 315.04389 321.10935 326.5639 334.4512 339.90577 345.97123 351.42579 357.1858 362.04035 367.4949 371.73857 376.5931 384.52403 387.8622 393.31678 401.22587 406.68043 416.38954 421.8441 427.90956 432.1532 437.00776 442.4623 451.5496">summarizeorcharacterizedebateinamannerthatadvocatesforanoutcome</tspan></text>
<text xml:space="preserve" transform="matrix(1 0 -0 1 0 792)" font-size="10.9091" font-family="LMRoman10"><tspan y="-180.39801" x="72">&#x2022;</tspan></text>
<text xml:space="preserve" transform="matrix(1 0 -0 1 0 792)" font-size="10.9091" font-family="LMRoman10"><tspan y="-180.39801" x="85.94183 90.24002 96.30548 102.37094 108.4364 112.71277 117.56732 121.86551 129.80735 135.26189 140.71643 145.56008 151.63645 157.7019 166.78919 169.82192 174.06555 178.9201 188.00739 195.93831 202.00377 206.28014 211.73468 218.10559 222.96015 227.23651 230.26924 239.66199 243.93836 248.79291 254.55292 260.61839 265.47294 269.77113 274.01478 278.86933 288.57844 294.6439 300.70936 306.7748 311.62937 319.53846 323.7821 329.84757 332.88029 340.8112 346.87666 352.63667 357.4912 363.55668 372.64396 377.4985 383.2585">suppressagendaitemsproperlyrequestedunderthisdocument</tspan></text>
<text xml:space="preserve" transform="matrix(1 0 -0 1 0 792)" font-size="10.9091" font-family="LMRoman10"><tspan y="-158.08202" x="72">&#x2022;</tspan></text>
<text xml:space="preserve" transform="matrix(1 0 -0 1 0 792)" font-size="10.9091" font-family="LMRoman10"><tspan y="-158.08202" x="85.94183 90.79639 96.25094 102.3164 108.38186 111.41459 115.658229 118.690959 124.14551 133.8437 138.12007 142.97463 147.82918 153.28372 158.73827 164.80373 167.83646 172.0801 175.11283 180.56737 186.63283 193.3092 198.76375 203.6183 208.47286 213.3165 217.6256 225.55652 229.80016 238.88744 243.13108 249.19654 257.69474 260.72746 263.7602 269.5093 274.96388 279.24024 285.9166 291.37117 299.28025 303.57844 308.12754 314.193 319.04756 325.113 331.17848 334.21119 337.2439 343.30937 352.40757 357.86213 367.5603 373.01487 378.46943 382.7458 387.60035 392.4549 401.54219 406.39674 412.15675 416.4004 423.06584 429.1313 433.98585 437.32405 442.1786 446.45497 451.3095 457.37498 462.22953 467.08409 473.76045 479.215 487.12409 491.42228 494.455 497.4877 502.34226 508.4077 513.26229">conditionrecognition,accesstothefloor,orschedulingonagreement,deference,orsilence</tspan></text>
<text xml:space="preserve" transform="matrix(.9899495 0 -0 1.0101526 0 792)" font-size="10.799458" font-family="LMRoman10"><tspan y="-130.45653" x="72.322879 80.42247 86.12458 95.455318 100.844249 106.24397 110.44496 113.44721 119.45171 128.49086 137.48682 142.29257 150.97533 157.29302 162.09879 169.96079 178.95673 184.04328 193.37401 197.60739 202.41315 208.11527 214.11977 217.12203 221.35541 229.78978 233.99077 239.99527 245.395 253.22461 262.25297 270.05018 276.0547 281.4544 284.45668 292.31867 298.33396 303.1289 309.1442 313.34519 317.56776 322.9675 325.96974 328.972 332.87059 342.20133 347.00709 352.4068 358.4113 363.21705 368.0228 372.25617 381.88929 388.20698 396.64137 401.44709 407.13844 411.3394 416.14515 420.3785 425.18428 434.81739 437.81965 443.52177 447.72276 456.7511 460.95207 466.95658 475.39097 484.3869 489.19267 493.9984 498.19938 501.20164 507.20613 516.2345 520.46786 525.2736 530.07937 535.47909 539.71249">AnyvotingmembermayrequirethataChairneutralityconcernbeenteredintothemeetingrecord</tspan></text>
<text xml:space="preserve" transform="matrix(1 0 -0 1 0 792)" font-size="10.9091" font-family="LMRoman10"><tspan y="-118.232" x="72 77.45455 85.38547 94.48366 100.54912 104.825489 110.585498 115.42914 120.28369 126.34915 132.42552 136.69098 142.14553 148.8219 154.88736 160.3419 164.58554 169.4401">asaproceduralnote.</tspan><tspan y="-97.908008" x="72 82.00365 88.06911 92.312747 97.767299 103.832759 106.865489 109.89822 112.93095 116.869129 122.62913 130.5164 138.69823 144.76369 149.31279 155.37825 160.8328 166.89826 172.3528 177.20735 182.6619 188.72736 191.76009">Mutability:Unchangeable</tspan></text>
<text xml:space="preserve" transform="matrix(1 0 -0 1 0 792)" font-size="10.9091" font-family="LMRoman10"><tspan y="-42.112005" x="300.54499 305.99955">26</tspan></text>
</svg>
