<svg xmlns="http://www.w3.org/2000/svg" xmlns:xlink="http://www.w3.org/1999/xlink" xmlns:inkscape="http://www.inkscape.org/namespaces/inkscape" version="1.1" width="612" height="792" viewBox="0 0 612 792">
<path transform="matrix(1,0,0,-1,72,72.198978)" stroke-width=".398" stroke-linecap="butt" stroke-miterlimit="10" stroke-linejoin="miter" fill="none" stroke="#000000" d="M0 0H506.122"/>
<path transform="matrix(1,0,0,-1,72,85.948)" stroke-width=".398" stroke-linecap="butt" stroke-miterlimit="10" stroke-linejoin="miter" fill="none" stroke="#000000" d="M0 0V13.549"/>
<text xml:space="preserve" transform="matrix(1 0 -0 1 0 792)" font-size="10.9091" font-family="LMRoman10" font-weight="bold"><tspan y="-710.117" x="77.978 87.45801 97.90893 104.18166 111.15258 117.77441 126.82896 131.70532 141.35988 148.3308 157.95262">Amount(USD)</tspan></text>
<path transform="matrix(1,0,0,-1,168.817,85.948)" stroke-width=".398" stroke-linecap="butt" stroke-miterlimit="10" stroke-linejoin="miter" fill="none" stroke="#000000" d="M0 0V13.549"/>
<text xml:space="preserve" transform="matrix(1 0 -0 1 0 792)" font-size="10.9091" font-family="LMRoman10" font-weight="bold"><tspan y="-710.117" x="174.794 184.27402 191.24494 198.21585 203.38677 209.31041 215.58315 221.33225">Approver</tspan></text>
<path transform="matrix(1,0,0,-1,358.591,85.948)" stroke-width=".398" stroke-linecap="butt" stroke-miterlimit="10" stroke-linejoin="miter" fill="none" stroke="#000000" d="M0 0V13.549"/>
<text xml:space="preserve" transform="matrix(1 0 -0 1 0 792)" font-size="10.9091" font-family="LMRoman10" font-weight="bold"><tspan y="-710.117" x="364.569 373.63447 379.9072 386.8781 393.84904 397.32905 402.2054 405.68544 411.95817 418.92909">Conditions</tspan></text>
<path transform="matrix(1,0,0,-1,578.122,85.948)" stroke-width=".398" stroke-linecap="butt" stroke-miterlimit="10" stroke-linejoin="miter" fill="none" stroke="#000000" d="M0 0V13.549"/>
<path transform="matrix(1,0,0,-1,72,86.14697)" stroke-width=".398" stroke-linecap="butt" stroke-miterlimit="10" stroke-linejoin="miter" fill="none" stroke="#000000" d="M0 0H506.122"/>
<path transform="matrix(1,0,0,-1,72,99.89502)" stroke-width=".398" stroke-linecap="butt" stroke-miterlimit="10" stroke-linejoin="miter" fill="none" stroke="#000000" d="M0 0V13.549"/>
<text xml:space="preserve" transform="matrix(1 0 -0 1 0 792)" font-size="10.9091" font-family="LMRoman10"><tspan y="-696.169" x="77.978 86.15982 95.85801 100.10165 109.19984 114.65439 120.10894 123.14167 128.59622 134.05077">Upto$1,000</tspan></text>
<path transform="matrix(1,0,0,-1,168.817,99.89502)" stroke-width=".398" stroke-linecap="butt" stroke-miterlimit="10" stroke-linejoin="miter" fill="none" stroke="#000000" d="M0 0V13.549"/>
<text xml:space="preserve" transform="matrix(1 0 -0 1 0 792)" font-size="10.9091" font-family="LMRoman10"><tspan y="-696.169" x="174.794 182.8231 188.27765 191.31038 196.16493 199.79767 205.86313 210.71768 216.17223 222.54314 227.39769 237.09589 243.16135 247.40499 252.85953 256.03953 262.8632 269.68138 274.52503 279.97959">Role-ScopedStaffLead</tspan></text>
<path transform="matrix(1,0,0,-1,358.591,99.89502)" stroke-width=".398" stroke-linecap="butt" stroke-miterlimit="10" stroke-linejoin="miter" fill="none" stroke="#000000" d="M0 0V13.549"/>
<text xml:space="preserve" transform="matrix(1 0 -0 1 0 792)" font-size="10.9091" font-family="LMRoman10"><tspan y="-696.169" x="364.569 372.29264 378.3581 384.42356 389.8781 394.73268 398.97633 403.83088 409.89634 416.56178 419.59449 425.04905 430.5036 435.95817 440.8127">Budgeted;logged</tspan></text>
<path transform="matrix(1,0,0,-1,578.122,99.89502)" stroke-width=".398" stroke-linecap="butt" stroke-miterlimit="10" stroke-linejoin="miter" fill="none" stroke="#000000" d="M0 0V13.549"/>
<path transform="matrix(1,0,0,-1,72,113.44501)" stroke-width=".398" stroke-linecap="butt" stroke-miterlimit="10" stroke-linejoin="miter" fill="none" stroke="#000000" d="M0 0V13.549"/>
<text xml:space="preserve" transform="matrix(1 0 -0 1 0 792)" font-size="10.9091" font-family="LMRoman10"><tspan y="-682.62" x="77.978 83.43255 88.8871 91.91983 97.37438 102.82893 111.916217 121.014408 126.468959 131.92351 134.95624 140.41078 145.86533">$1,001&#x2013;$5,000</tspan></text>
<path transform="matrix(1,0,0,-1,168.817,113.44501)" stroke-width=".398" stroke-linecap="butt" stroke-miterlimit="10" stroke-linejoin="miter" fill="none" stroke="#000000" d="M0 0V13.549"/>
<text xml:space="preserve" transform="matrix(1 0 -0 1 0 792)" font-size="10.9091" font-family="LMRoman10"><tspan y="-682.62" x="174.794 182.2231 187.98311 192.83766 197.69222 203.75768 208.00131 211.03404 216.4886 224.9868 233.32135 236.34317 240.61954 245.47409 250.32865 254.57228 260.02684">ExecutiveDirector</tspan></text>
<path transform="matrix(1,0,0,-1,358.591,113.44501)" stroke-width=".398" stroke-linecap="butt" stroke-miterlimit="10" stroke-linejoin="miter" fill="none" stroke="#000000" d="M0 0V13.549"/>
<text xml:space="preserve" transform="matrix(1 0 -0 1 0 792)" font-size="10.9091" font-family="LMRoman10"><tspan y="-682.62" x="364.569 372.29264 378.3581 384.42356 389.8781 394.73268 398.97633 403.83088 409.89634 416.56178 419.59449 425.04905 430.5036 435.95817 440.8127">Budgeted;logged</tspan></text>
<path transform="matrix(1,0,0,-1,578.122,113.44501)" stroke-width=".398" stroke-linecap="butt" stroke-miterlimit="10" stroke-linejoin="miter" fill="none" stroke="#000000" d="M0 0V13.549"/>
<path transform="matrix(1,0,0,-1,72,126.99402)" stroke-width=".398" stroke-linecap="butt" stroke-miterlimit="10" stroke-linejoin="miter" fill="none" stroke="#000000" d="M0 0V13.549"/>
<text xml:space="preserve" transform="matrix(1 0 -0 1 0 792)" font-size="10.9091" font-family="LMRoman10"><tspan y="-669.071" x="77.978 83.43255 88.8871 91.91983 97.37438 102.82893 111.916217 121.014408 126.468959 131.92351 137.37805 140.41078 145.86533 151.31987">$5,001&#x2013;$25,000</tspan></text>
<path transform="matrix(1,0,0,-1,168.817,126.99402)" stroke-width=".398" stroke-linecap="butt" stroke-miterlimit="10" stroke-linejoin="miter" fill="none" stroke="#000000" d="M0 0V13.549"/>
<text xml:space="preserve" transform="matrix(1 0 -0 1 0 792)" font-size="10.9091" font-family="LMRoman10"><tspan y="-669.071" x="174.794 181.91765 184.95038 191.01584 196.47039 202.53585 207.3904 215.87769 224.36496 227.39406 230.42316 233.45224 238.3068 243.16135 251.08136 263.20137 270.63047 276.39048 281.24504 286.09959 292.16505 296.4087 299.4414 304.89598 313.38325 321.7178 324.75053 329.0269 333.88145 338.736 342.97966 348.4342">FinanceOfficer+ExecutiveDirector</tspan></text>
<path transform="matrix(1,0,0,-1,358.591,126.99402)" stroke-width=".398" stroke-linecap="butt" stroke-miterlimit="10" stroke-linejoin="miter" fill="none" stroke="#000000" d="M0 0V13.549"/>
<text xml:space="preserve" transform="matrix(1 0 -0 1 0 792)" font-size="10.9091" font-family="LMRoman10"><tspan y="-669.071" x="364.569 372.29264 378.3581 384.42356 389.8781 394.73268 398.97633 403.83088 409.89634 416.56178 419.59449 425.04905 430.5036 435.95817 440.8127">Budgeted;logged</tspan></text>
<path transform="matrix(1,0,0,-1,578.122,126.99402)" stroke-width=".398" stroke-linecap="butt" stroke-miterlimit="10" stroke-linejoin="miter" fill="none" stroke="#000000" d="M0 0V13.549"/>
<path transform="matrix(1,0,0,-1,72,140.54303)" stroke-width=".398" stroke-linecap="butt" stroke-miterlimit="10" stroke-linejoin="miter" fill="none" stroke="#000000" d="M0 0V13.549"/>
<text xml:space="preserve" transform="matrix(1 0 -0 1 0 792)" font-size="10.9091" font-family="LMRoman10"><tspan y="-655.522" x="77.978 86.46528 91.91982 96.77437 104.683467 110.138019 115.59257 121.04712 124.07985 129.5344 134.98894">Over$25,000</tspan></text>
<path transform="matrix(1,0,0,-1,168.817,140.54303)" stroke-width=".398" stroke-linecap="butt" stroke-miterlimit="10" stroke-linejoin="miter" fill="none" stroke="#000000" d="M0 0V13.549"/>
<text xml:space="preserve" transform="matrix(1 0 -0 1 0 792)" font-size="10.9091" font-family="LMRoman10"><tspan y="-655.522" x="174.794 183.35765 188.50675 193.9613 198.81586 203.09223 209.15769 212.19042 218.25588 227.35407 235.07772 240.8377 246.90317">GoverningBody</tspan></text>
<path transform="matrix(1,0,0,-1,358.591,140.54303)" stroke-width=".398" stroke-linecap="butt" stroke-miterlimit="10" stroke-linejoin="miter" fill="none" stroke="#000000" d="M0 0V13.549"/>
<text xml:space="preserve" transform="matrix(1 0 -0 1 0 792)" font-size="10.9091" font-family="LMRoman10"><tspan y="-655.522" x="364.569 370.63447 376.69993 383.07084 387.92539 392.20176 401.28904 407.04905 410.38725 415.8418 420.11817 423.15089 427.08909 432.8491 439.51454 447.5436 452.39817 457.25273 462.70729 466.98365 473.0491 477.90367 487.60185 495.9364 500.79096 505.6455 508.67823 512.9764 516.0091 521.4636 531.17269 538.29629 543.7508 547.99447 553.7544 561.32528 566.4852">Supermajority;RecordedDecisionPathway</tspan></text>
<path transform="matrix(1,0,0,-1,578.122,140.54303)" stroke-width=".398" stroke-linecap="butt" stroke-miterlimit="10" stroke-linejoin="miter" fill="none" stroke="#000000" d="M0 0V13.549"/>
<path transform="matrix(1,0,0,-1,72,140.742)" stroke-width=".398" stroke-linecap="butt" stroke-miterlimit="10" stroke-linejoin="miter" fill="none" stroke="#000000" d="M0 0H506.122"/>
<text xml:space="preserve" transform="matrix(1 0 -0 1 0 792)" font-size="11.9552" font-family="LMRoman12" font-weight="bold"><tspan y="-625.038" x="72 78.73078 82.47276">4.2</tspan></text>
<text xml:space="preserve" transform="matrix(1 0 -0 1 0 792)" font-size="11.9552" font-family="LMRoman12" font-weight="bold"><tspan y="-625.038" x="99.29373 109.63498 116.72441 124.19641 131.66841 139.14041 145.87119 152.0042 157.24057 163.38553 175.34073 182.0715 192.0541 201.77367 209.24567 220.07707 227.54907 231.29105 237.83054 243.06691 246.80889 253.53968 264.1559 272.97886 280.08024 287.92286 294.05589 301.5279 308.99989 312.74186 317.97825 325.45027 330.94966 337.08268">UnbudgetedorCumulativeExpenditures</tspan></text>
<text xml:space="preserve" transform="matrix(.9899495 0 -0 1.0101526 0 792)" font-size="10.799458" font-family="LMRoman10"><tspan y="-598.37" x="72.322879 80.42247 86.12458 95.49851 101.50301 107.19433 113.19883 119.21413 125.21863 130.61837 135.42412 139.6251 144.42006 154.09639 158.90215 164.60427 170.92195 175.72772 181.73223 187.73673 190.73897 194.93996 200.94446 205.17784 209.98361 216.65769 222.0574 229.96262 234.76839 240.77289 249.45565 255.46015 258.46238 263.86213 268.0631 271.06538 276.4651 284.94267 289.17604 293.98179 296.984 302.38377 306.58473 311.39048 321.0668 325.87254 331.57466 337.88154 342.6873 348.69178 354.6963 357.69856 361.8995 367.90403 372.1374 376.94316 384.86994 389.6757 395.3778 400.18354 404.9893 409.79505 415.79954 418.8018 424.80628 433.87785 439.27757 444.6773 450.07704 453.07929 458.479 463.87873 472.9503 480.7475 483.74974 487.9507 493.9552 496.95747 506.6338 515.7053 519.9387 525.33847 528.3407 531.3429 534.34518 540.3496">Anyunbudgetedexpenditure,orcumulativerelatedexpendituresexceeding$10,000withinarolling</tspan></text>
<text xml:space="preserve" transform="matrix(1 0 -0 1 0 792)" font-size="10.9091" font-family="LMRoman10"><tspan y="-590.896" x="72 77.45455 82.9091 86.54183 92.60729 97.756389 107.16003 113.520038 118.37459 122.650959 125.683689 131.44368 137.50914 144.1746 148.45098 153.30553 159.06554 165.131 168.16373 172.4401 177.29465 185.23648 193.80013 198.94922 204.40378 209.25833 213.5347 219.60016 222.63289 228.69835 237.78563 245.50928 251.26927 257.33473 266.73838 272.19294 278.2584 284.32386 288.60023 293.74934 298.89845 304.353 311.02937 316.48393 322.54939 332.24757 337.1021 342.55668 348.62214 352.92033 357.16398 360.1967 364.44035 370.5058 374.74946 379.604 387.54585 396.63313 406.63676 412.0913 416.33497 421.1895 425.46589 428.4986 433.95317 440.6186 448.49497 453.34953 457.59318 460.6259 466.08045 472.1459">90-dayperiod,requiresGoverningBodyapprovalandconstitutesaMaterialAction.</tspan></text>
<text xml:space="preserve" transform="matrix(1 0 -0 1 0 792)" font-size="14.3462" font-family="LMRoman12" font-weight="bold"><tspan y="-556.528" x="72">5</tspan></text>
<text xml:space="preserve" transform="matrix(1 0 -0 1 0 792)" font-size="14.3462" font-family="LMRoman12" font-weight="bold"><tspan y="-556.528" x="92.185108 103.848567 111.925479 120.43278 126.716419 133.31568 141.16304 148.33614 154.61977 163.58614 171.4335 181.30368 192.96715 201.04405 214.5008 227.95754 232.44789 238.73152 252.18827 259.54786 268.0695 274.35313">ContractualCommitments</tspan></text>
<path transform="matrix(1,0,0,-1,79.507,252.84803)" stroke-width=".398" stroke-linecap="butt" stroke-miterlimit="10" stroke-linejoin="miter" fill="none" stroke="#000000" d="M0 0H452.986"/>
<path transform="matrix(1,0,0,-1,79.507,266.597)" stroke-width=".398" stroke-linecap="butt" stroke-miterlimit="10" stroke-linejoin="miter" fill="none" stroke="#000000" d="M0 0V13.549"/>
<text xml:space="preserve" transform="matrix(1 0 -0 1 0 792)" font-size="10.9091" font-family="LMRoman10" font-weight="bold"><tspan y="-529.468" x="85.485 94.55046 100.8232 107.44502 112.32139 117.4923 123.59049 129.16504 138.2196 145.91053 151.65962 156.83054 171.45964 181.91057 190.3433 196.4415 199.9215 206.89241">ContractTerm/Value</tspan></text>
<path transform="matrix(1,0,0,-1,277.643,266.597)" stroke-width=".398" stroke-linecap="butt" stroke-miterlimit="10" stroke-linejoin="miter" fill="none" stroke="#000000" d="M0 0V13.549"/>
<text xml:space="preserve" transform="matrix(1 0 -0 1 0 792)" font-size="10.9091" font-family="LMRoman10" font-weight="bold"><tspan y="-529.468" x="283.62 293.1 300.07093 307.04185 312.21278 318.1364 324.40916 330.15824">Approver</tspan></text>
<path transform="matrix(1,0,0,-1,379.053,266.597)" stroke-width=".398" stroke-linecap="butt" stroke-miterlimit="10" stroke-linejoin="miter" fill="none" stroke="#000000" d="M0 0V13.549"/>
<text xml:space="preserve" transform="matrix(1 0 -0 1 0 792)" font-size="10.9091" font-family="LMRoman10" font-weight="bold"><tspan y="-529.468" x="385.031 394.09648 400.3692 407.34013 414.31105 417.79106 422.66743 426.14744 432.42018 439.39109">Conditions</tspan></text>
<path transform="matrix(1,0,0,-1,532.493,266.597)" stroke-width=".398" stroke-linecap="butt" stroke-miterlimit="10" stroke-linejoin="miter" fill="none" stroke="#000000" d="M0 0V13.549"/>
<path transform="matrix(1,0,0,-1,79.507,266.79603)" stroke-width=".398" stroke-linecap="butt" stroke-miterlimit="10" stroke-linejoin="miter" fill="none" stroke="#000000" d="M0 0H452.986"/>
<path transform="matrix(1,0,0,-1,79.507,280.544)" stroke-width=".398" stroke-linecap="butt" stroke-miterlimit="10" stroke-linejoin="miter" fill="none" stroke="#000000" d="M0 0V13.549"/>
<text xml:space="preserve" transform="matrix(1 0 -0 1 0 792)" font-size="10.9091" font-family="LMRoman10"><tspan y="-515.52" x="85.485 92.45592 97.31047 101.58684">Term</tspan></text>
<text xml:space="preserve" transform="matrix(1 0 -0 1 0 792)" font-size="10.9091" font-family="LMMathSymbols10" font-style="italic"><tspan y="-515.52" x="114.30685">&#x2264;</tspan></text>
<text xml:space="preserve" transform="matrix(1 0 -0 1 0 792)" font-size="10.9091" font-family="LMRoman10"><tspan y="-515.52" x="126.42686 135.52506 144.61234 150.06688 155.82689 160.07053 166.13599 174.06691 179.52146 185.58692 195.29602 200.75057 206.20511 211.65966 214.69239 220.14693 225.60147">6monthsand$10,000</tspan></text>
<path transform="matrix(1,0,0,-1,277.643,280.544)" stroke-width=".398" stroke-linecap="butt" stroke-miterlimit="10" stroke-linejoin="miter" fill="none" stroke="#000000" d="M0 0V13.549"/>
<text xml:space="preserve" transform="matrix(1 0 -0 1 0 792)" font-size="10.9091" font-family="LMRoman10"><tspan y="-515.52" x="283.62 291.0491 296.8091 301.66368 306.51823 312.58369 316.82734 319.86006 325.3146 333.8128 342.14738 345.1692 349.44557 354.3001 359.15467 363.39833 368.85289">ExecutiveDirector</tspan></text>
<path transform="matrix(1,0,0,-1,379.053,280.544)" stroke-width=".398" stroke-linecap="butt" stroke-miterlimit="10" stroke-linejoin="miter" fill="none" stroke="#000000" d="M0 0V13.549"/>
<text xml:space="preserve" transform="matrix(1 0 -0 1 0 792)" font-size="10.9091" font-family="LMRoman10"><tspan y="-515.52" x="385.031 393.36558 399.43104 407.9183 413.98377 417.01649 420.0492 423.0819 428.53648 433.39103 439.45649 444.31105 452.80924 457.6529 463.10746 472.19474 478.2711 481.3038 486.14747 490.3911">Duediligencecomplete</tspan></text>
<path transform="matrix(1,0,0,-1,532.493,280.544)" stroke-width=".398" stroke-linecap="butt" stroke-miterlimit="10" stroke-linejoin="miter" fill="none" stroke="#000000" d="M0 0V13.549"/>
<path transform="matrix(1,0,0,-1,79.507,294.094)" stroke-width=".398" stroke-linecap="butt" stroke-miterlimit="10" stroke-linejoin="miter" fill="none" stroke="#000000" d="M0 0V13.549"/>
<text xml:space="preserve" transform="matrix(1 0 -0 1 0 792)" font-size="10.9091" font-family="LMRoman10"><tspan y="-501.971" x="85.485 92.45592 97.31047 101.58684">Term</tspan></text>
<text xml:space="preserve" transform="matrix(1 0 -0 1 0 792)" font-size="10.9091" font-family="LMMathItalic10" font-style="italic"><tspan y="-501.971" x="114.30685">&#x003e;</tspan></text>
<text xml:space="preserve" transform="matrix(1 0 -0 1 0 792)" font-size="10.9091" font-family="LMRoman10"><tspan y="-501.971" x="126.42686 135.52506 144.61234 150.06688 155.82689 160.07053 166.13599 174.06691 179.52146 187.44147 192.89601 198.35056 203.8051 206.82692 212.28147 217.73601 226.8342 235.92148 241.37602 246.83057 252.28511 255.31784 260.7724 266.22697">6monthsor$10,001&#x2013;$50,000</tspan></text>
<path transform="matrix(1,0,0,-1,277.643,294.094)" stroke-width=".398" stroke-linecap="butt" stroke-miterlimit="10" stroke-linejoin="miter" fill="none" stroke="#000000" d="M0 0V13.549"/>
<text xml:space="preserve" transform="matrix(1 0 -0 1 0 792)" font-size="10.9091" font-family="LMRoman10"><tspan y="-501.971" x="283.62 292.18363 297.33274 302.7873 307.64186 311.9182 317.98368 321.0164 327.08186 336.18006 343.9037 349.6637 355.72917">GoverningBody</tspan></text>
<path transform="matrix(1,0,0,-1,379.053,294.094)" stroke-width=".398" stroke-linecap="butt" stroke-miterlimit="10" stroke-linejoin="miter" fill="none" stroke="#000000" d="M0 0V13.549"/>
<text xml:space="preserve" transform="matrix(1 0 -0 1 0 792)" font-size="10.9091" font-family="LMRoman10"><tspan y="-501.971" x="385.031 395.03465 400.79466 404.13285 409.5874 413.86378 416.89649 420.8347 430.22743 435.69288 441.14744 445.39109 450.23475 456.9111 459.94383 465.39839 470.85295 476.3075 481.16206">Majorityvote;logged</tspan></text>
<path transform="matrix(1,0,0,-1,532.493,294.094)" stroke-width=".398" stroke-linecap="butt" stroke-miterlimit="10" stroke-linejoin="miter" fill="none" stroke="#000000" d="M0 0V13.549"/>
<path transform="matrix(1,0,0,-1,79.507,307.643)" stroke-width=".398" stroke-linecap="butt" stroke-miterlimit="10" stroke-linejoin="miter" fill="none" stroke="#000000" d="M0 0V13.549"/>
<text xml:space="preserve" transform="matrix(1 0 -0 1 0 792)" font-size="10.9091" font-family="LMRoman10"><tspan y="-488.422" x="85.485 93.97228 99.42683 104.28137 112.19047 117.64502 123.09957 128.55413 131.58686 137.0414 142.49594 151.59413 157.04868">Over$50,000or</tspan></text>
<text xml:space="preserve" transform="matrix(1 0 -0 1 0 792)" font-size="10.9091" font-family="LMMathItalic10" font-style="italic"><tspan y="-488.422" x="164.95778">&#x003e;</tspan></text>
<text xml:space="preserve" transform="matrix(1 0 -0 1 0 792)" font-size="10.9091" font-family="LMRoman10"><tspan y="-488.422" x="177.07779 182.53234 191.63053 200.7178 206.17235 211.93236 216.176 222.24146">12months</tspan></text>
<path transform="matrix(1,0,0,-1,277.643,307.643)" stroke-width=".398" stroke-linecap="butt" stroke-miterlimit="10" stroke-linejoin="miter" fill="none" stroke="#000000" d="M0 0V13.549"/>
<text xml:space="preserve" transform="matrix(1 0 -0 1 0 792)" font-size="10.9091" font-family="LMRoman10"><tspan y="-488.422" x="283.62 292.18363 297.33274 302.7873 307.64186 311.9182 317.98368 321.0164 327.08186 336.18006 343.9037 349.6637 355.72917">GoverningBody</tspan></text>
<path transform="matrix(1,0,0,-1,379.053,307.643)" stroke-width=".398" stroke-linecap="butt" stroke-miterlimit="10" stroke-linejoin="miter" fill="none" stroke="#000000" d="M0 0V13.549"/>
<text xml:space="preserve" transform="matrix(1 0 -0 1 0 792)" font-size="10.9091" font-family="LMRoman10"><tspan y="-488.422" x="385.031 391.09648 397.16194 403.53285 408.3874 412.66377 421.75105 427.51106 430.84925 436.3038 440.58018 443.61289 447.5511 453.3111 459.97654 468.0056 476.34019 487.41294 491.6784 496.53297 502.29298 508.35844 511.39115 515.6675 520.52206">Supermajority;RDPrequired</tspan></text>
<path transform="matrix(1,0,0,-1,532.493,307.643)" stroke-width=".398" stroke-linecap="butt" stroke-miterlimit="10" stroke-linejoin="miter" fill="none" stroke="#000000" d="M0 0V13.549"/>
<path transform="matrix(1,0,0,-1,79.507,307.842)" stroke-width=".398" stroke-linecap="butt" stroke-miterlimit="10" stroke-linejoin="miter" fill="none" stroke="#000000" d="M0 0H452.986"/>
<text xml:space="preserve" transform="matrix(1 0 -0 1 0 792)" font-size="10.9091" font-family="LMRoman10"><tspan y="-468.673" x="72 80.18182 89.269107 94.12366 99.57821 105.34912 109.59276 113.869129 119.32368 124.16731 132.0546 141.14188 146.29097 155.68372 162.05463 170.54192 175.39647 181.15648 186.01103 190.86559 196.93105 201.17469 206.02924 215.73834 223.61472 226.64745 230.89109 236.95655 242.41109 248.47655 256.3529 262.41838 268.17839 273.03294 279.0984 288.18568 293.04023 298.80024 303.04389 307.89845 317.59663 322.45118 327.90574 333.9712 337.0039 340.04756 343.06938 347.92393 352.16758 355.8003 361.25486 364.60395 368.23667 371.26939 377.0294 381.27305 386.1276 390.40397 395.2585 399.5567 407.43309 411.73127 416.58583 420.86219 425.71675 430.5713 436.63676 439.66947 445.73493 451.18949">Nocontractmaybeexecutedwithoutdocumentedconflict-of-interestscreening.</tspan></text>
<text xml:space="preserve" transform="matrix(1 0 -0 1 0 792)" font-size="14.3462" font-family="LMRoman12" font-weight="bold"><tspan y="-434.305" x="72">6</tspan></text>
<text xml:space="preserve" transform="matrix(1 0 -0 1 0 792)" font-size="14.3462" font-family="LMRoman12" font-weight="bold"><tspan y="-434.305" x="92.185108 102.758258 110.1322 116.73145 123.101169 131.17807 140.14444 149.11081 156.47042 166.34059 174.18796 183.15433 197.50052 209.16399 217.24089 230.69763 240.10874 247.46834 256.43473 262.80445 270.65184 276.93547 281.4258 289.50273 303.8489 315.59846 322.77156 329.05519 333.54554 341.62245 350.5888">PersonnelandCompensationActions</tspan></text>
<text xml:space="preserve" transform="matrix(1 0 -0 1 0 792)" font-size="10.9091" font-family="LMRoman10"><tspan y="-409.955" x="71.607 79.483379 85.548839 94.03611 97.3743 102.82885 105.86158 108.89431 114.05431 121.93069 124.96342 131.02887 140.11615 145.5707 150.42525 154.66889 157.70162 163.15616 169.22162 177.15254 182.60709 185.63982 193.21074 198.37075 204.13076 212.06168 216.91623 222.37078 228.43624 232.73442 236.97806 240.01079 244.25443 250.31989 254.56352 263.05079 273.0544 278.50898 282.75263 287.60719 291.88356 294.91627 300.37083 307.04719 314.92356 319.7781 324.02177 327.05448 332.50904 338.5745 346.5054 351.95997 358.02543 367.73454 372.0109 376.86546 382.62547 388.69093 391.72364 396 404.48728 413.0509 418.2 423.65458 428.50914 432.7855 438.85096 441.88368 447.94914 457.04734 464.77098 470.52009 476.58555 485.9892 491.44377 497.50923 503.57469 507.85105 513.0001 518.14926 523.60379 526.6365">ThefollowingactionsalwaysconstituteMaterialActionsandrequireGoverningBodyapproval:</tspan></text>
<text xml:space="preserve" transform="matrix(1 0 -0 1 0 792)" font-size="10.9091" font-family="LMRoman10"><tspan y="-383.654" x="72">&#x2022;</tspan></text>
<text xml:space="preserve" transform="matrix(1 0 -0 1 0 792)" font-size="10.9091" font-family="LMRoman10"><tspan y="-383.654" x="85.94183 93.81821 98.094577 102.94913 108.40368 112.647319 115.680049 121.1346 130.8328 136.28734 143.26917 149.33463 154.18918 165.69829 171.76375 177.21829 180.25102 189.94922 194.22559 199.68013 202.71286 207.56742">Creationofnewpaidroles</tspan></text>
<text xml:space="preserve" transform="matrix(1 0 -0 1 0 792)" font-size="10.9091" font-family="LMRoman10"><tspan y="-361.33799" x="72">&#x2022;</tspan></text>
<text xml:space="preserve" transform="matrix(1 0 -0 1 0 792)" font-size="10.9091" font-family="LMRoman10"><tspan y="-361.33799" x="85.94183 93.81821 99.27276 108.36004 114.73096 119.58551 125.65097 129.94916 135.4037 139.64734 142.68007 148.13462 157.83281 163.28736 169.35282 172.691 178.75646 183.05464 187.29828 196.38556 201.24011 207.01103 211.25467 219.1856 224.04015 229.80016 234.65471 239.50926 244.36382 250.42928 253.462 259.52748 268.61476 274.0693 279.52388 292.2548 297.70936 303.7748 309.53483 315.60029 321.05485 324.08757 327.12028">Compensationadjustmentsexceeding10%annually</tspan></text>
<text xml:space="preserve" transform="matrix(1 0 -0 1 0 792)" font-size="10.9091" font-family="LMRoman10"><tspan y="-339.021" x="72">&#x2022;</tspan></text>
<text xml:space="preserve" transform="matrix(1 0 -0 1 0 792)" font-size="10.9091" font-family="LMRoman10"><tspan y="-339.021" x="85.53819 93.72002 99.48002 108.88366 113.16003 118.01457 124.08003 130.1455 135.00005 139.24369 142.27642 147.73096 157.42916 160.46189 169.54917 175.61463 178.64736 181.68009 186.53464 191.98918 196.23282 199.26555 205.33101 214.41829 218.66193 224.72739 233.22559 241.56014 244.59287 250.04741 256.11286 259.14558 263.08378 272.4765 279.60017 282.63288 288.39289 293.84745">AnyreductionimplicatingtheDignityFloor</tspan></text>
<text xml:space="preserve" transform="matrix(1 0 -0 1 0 792)" font-size="10.9091" font-family="LMRoman10"><tspan y="-316.705" x="72">&#x2022;</tspan></text>
<text xml:space="preserve" transform="matrix(1 0 -0 1 0 792)" font-size="10.9091" font-family="LMRoman10"><tspan y="-316.705" x="85.94183 92.00729 96.86185 102.31639 107.170948 111.44731 116.90186 122.96732 127.82187 136.30916 141.7637 147.21825 151.49462 156.34917 161.20372 170.291 175.14556 180.91648 185.16011 193.09104 198.54558 206.45468 210.75287 215.60742 219.85106 224.0947 227.12743 231.98198 241.06926 245.92382 251.68383 255.92746">Severanceagreementsorsettlements</tspan></text>
<text xml:space="preserve" transform="matrix(.997998 0 -0 1.002006 0 792)" font-size="10.8872599" font-family="LMRoman10"><tspan y="-289.8226" x="72.14444 80.157459 85.60109 91.6544 95.88954 98.91621 104.96952 109.814357 116.49913 120.76694 126.21056 129.23723 134.08205 137.7075 141.99709 146.8419 152.28554 158.64369 163.48853 173.19997 179.26416 182.27994 186.54775 189.5744 195.62772 204.74036 212.60095 215.62763 219.86277 225.91608 228.94275 238.65419 244.09783 250.15114 256.20448 260.47227 265.61106 271.0547 275.89955 285.61097 291.66429 296.50914 301.95277 308.00608 312.85093 318.29457 324.34788 330.09635 338.0005 343.44413 349.49745 359.20887 364.0537 369.49736 378.56645 384.9246 389.76945 395.82276 400.11235 405.556 409.7911 412.81779 418.2614 427.97285 434.02616 439.4698 445.52314 451.57646 459.52415 468.59324 473.73204 483.1386 489.49678 497.99974 503.44337 509.49668 515.56088 519.8178 524.96749 530.411 535.25588">Routine,role-scopedhiringwithinapprovedheadcountandcompensationbandsmaybeapproved</tspan></text>
<text xml:space="preserve" transform="matrix(1 0 -0 1 0 792)" font-size="10.9091" font-family="LMRoman10"><tspan y="-276.854" x="72 77.76 87.16364 91.40728 97.47274 105.960018 113.389118 119.14912 124.00366 128.85822 134.92368 139.16732 142.20005 147.6546 156.14189 164.47644 167.50917 171.78554 176.64009 181.49465 185.73828 191.19283 195.4692 202.14557 208.21103 212.4874 217.63649 223.3965 226.42923 232.49469 237.34925 247.04744 250.38562 256.45109 259.4838 266.16017 272.22563 277.97474 282.82929 288.89476 297.98204 302.83659 308.60749 312.85115 318.3057 322.54936 325.58207 331.03663 340.7348 343.76753 351.69844 354.73115 360.1857 365.64027 371.09483 375.94938 382.01484">bytheExecutiveDirector,providedfulldocumentationislogged.</tspan></text>
<text xml:space="preserve" transform="matrix(1 0 -0 1 0 792)" font-size="14.3462" font-family="LMRoman12" font-weight="bold"><tspan y="-242.48601" x="72">7</tspan></text>
<text xml:space="preserve" transform="matrix(1 0 -0 1 0 792)" font-size="14.3462" font-family="LMRoman12" font-weight="bold"><tspan y="-242.48601" x="92.185108 104.37937 110.749088 117.1188 124.4784 136.14186 148.50829 152.99864 159.36837 168.77947 176.85637 183.22609 187.71645 194.00008 198.49044 206.56734 220.91353 228.7609 237.72727 252.07346 262.66096 271.62733 278.8004 287.76679 300.77879 309.74516 316.3444 324.19178 333.15815 340.33125">AssetDispositionandEncumbrance</tspan></text>
<text xml:space="preserve" transform="matrix(.9899495 0 -0 1.0101526 0 792)" font-size="10.799458" font-family="LMRoman10"><tspan y="-214.94574" x="72.322879 80.42247 86.12458 95.02334 99.27832 104.67805 107.6803 112.48606 118.792949 121.7952 126.60096 132.00069 136.25568 141.06143 147.35752 152.16329 158.16779 162.97354 168.97805 177.6716 183.6761 187.90949 193.30922 199.31372 204.11948 208.92525 215.22133 220.62105 228.06188 234.06638 237.06864 241.32361 247.6305 253.03023 257.28523 262.68498 268.89466 274.29438 280.80647 286.20619 290.46116 294.71617 299.52189 303.72288 311.1745 318.9717 321.97395 326.17494 335.38688 343.99403 347.29869 352.6984 355.70066 363.14146 372.13743 377.53715 381.7705 387.15946 391.9652 399.37364 404.46018 409.8599 412.86216 418.86665 426.87983 431.68559 437.3877 442.19346 446.99919 451.80494 457.80943 460.81169 466.8162 475.41258 480.8123 486.212 489.21427 494.61399 500.01374 508.62089 512.85427 517.66006 523.3621 529.36666 532.36886 536.60226 541.408">Anysale,lease,encumbrance,ordisposalofassetswithafairmarketvalueexceeding$5,000requires</tspan></text>
<text xml:space="preserve" transform="matrix(1 0 -0 1 0 792)" font-size="10.9091" font-family="LMRoman10"><tspan y="-203.579" x="72 80.563648 85.71274 91.16728 96.021839 100.2982 106.36366 109.39639 115.46185 124.56004 132.28369 138.04369 144.10915 153.50189 158.95644 165.0219 171.08736 175.36373 180.51282 185.67282 191.12737 194.1601">GoverningBodyapproval.</tspan><tspan y="-183.25499" x="71.596 79.777828 85.53783 94.94147 97.9742 103.42875 109.49421 115.55967 119.1924 123.468769 128.32332 131.35605 136.8106 141.05423 145.90879 155.60698 159.85062 164.12699 169.58153 175.64699 179.94518 185.39972 190.25428 194.49791 197.53064 202.98519 212.68338 217.53794 222.99248 229.05794 233.35613 237.59976 240.63249 244.87613 250.94159 255.18523 260.03977 267.9816 277.06889 287.0725 292.52708 296.77073 301.62528 305.90165 308.93437 314.38893 321.05436 328.93074 333.78529 338.02894 341.06166 346.5162 356.2253 360.50169 365.35624 370.8108 376.26536 380.54173 386.60719 389.6399 394.49446 398.79264 406.72355 412.1781 419.14903 424.30903 429.76359 432.7963 438.86177 443.7163">Anyland-relatedtransactionconstitutesaMaterialActionregardlessofvalue.</tspan></text>
<text xml:space="preserve" transform="matrix(1 0 -0 1 0 792)" font-size="14.3462" font-family="LMRoman12" font-weight="bold"><tspan y="-148.887" x="72">8</tspan></text>
<text xml:space="preserve" transform="matrix(1 0 -0 1 0 792)" font-size="14.3462" font-family="LMRoman12" font-weight="bold"><tspan y="-148.887" x="92.185108 102.7726 116.22933 123.588939 130.18819 138.26509 145.6247 154.59107 161.76416 175.66562 187.41516 194.58826 200.87189 205.36225 213.43915 222.40552">EmergencyActions</tspan></text>
<text xml:space="preserve" transform="matrix(1 0 -0 1 0 792)" font-size="10.9091" font-family="LMRoman10"><tspan y="-124.536998" x="72 79.4291 88.51638 93.370929 97.64729 103.101848 107.95639 114.02185 118.8764 128.26914 133.72368 138.57823 142.82187 145.8546 151.30915 157.3746 165.31644 174.40372 179.55281 188.94556 195.31647 203.80376 209.2583 215.32376 221.38922 225.66559 230.82559 236.28015 241.1347 250.8329 256.28746 262.3529 265.38563 274.77836 282.65473 285.68745 289.9311 295.99656 299.02928 308.73838 312.98204 319.0475 327.53477 331.83296 336.6875 342.14207 348.51298 357.00025 363.0657 367.92027 370.95298 373.98573 380.05119 384.90574 394.61485 397.64756 407.34574 413.4112 417.9603 424.02577 428.8803 434.94578 441.01124 444.04396 452.54216 460.26579">EmergencyactionsmaybeapprovedonlywithinthescopedefinedinScheduleB.</tspan><tspan y="-104.214" x="72 79.4291 88.51638 93.370929 97.64729 103.101848 107.95639 114.02185 118.8764 128.26914 133.72368 139.78914 144.03278 150.09824 155.55278 159.82915 162.86188 166.81098 172.57099">Emergencyauthority:</tspan></text>
<text xml:space="preserve" transform="matrix(1 0 -0 1 0 792)" font-size="10.9091" font-family="LMRoman10"><tspan y="-77.911998" x="72">&#x2022;</tspan></text>
<text xml:space="preserve" transform="matrix(1 0 -0 1 0 792)" font-size="10.9091" font-family="LMRoman10"><tspan y="-77.911998" x="85.94183 92.00729 97.7673 102.62186 110.55277 116.61823 122.072788 129.96007 136.32007 141.17462 145.45099 154.53827 157.571 165.45829 168.49102 171.52375 177.5892 183.04375 189.1092 193.96376 196.99649 202.45104 209.1165 213.97106 219.4256 228.51288 237.60016 240.63289 244.87653 253.9638 258.81837 264.57838 268.82203 276.75294 281.60749 287.3675 292.22206 297.0766 301.93116 307.9966 311.02934 317.0948 326.193 331.64756 337.1021 340.13484 345.5894 351.04396 356.4985">doesnotpermitfinancialcommitmentsexceeding$2,500,</tspan></text>
<text xml:space="preserve" transform="matrix(1 0 -0 1 0 792)" font-size="10.9091" font-family="LMRoman10"><tspan y="-42.111997" x="303.273">3</tspan></text>
</svg>
