<svg xmlns="http://www.w3.org/2000/svg" xmlns:xlink="http://www.w3.org/1999/xlink" xmlns:inkscape="http://www.inkscape.org/namespaces/inkscape" version="1.1" width="612" height="792" viewBox="0 0 612 792">
<text xml:space="preserve" transform="matrix(1 0 -0 1 0 792)" font-size="11.9552" font-family="LMRoman12" font-weight="bold"><tspan y="-709.041" x="72 78.73078 85.46156 89.203548 95.934329">18.21</tspan></text>
<text xml:space="preserve" transform="matrix(1 0 -0 1 0 792)" font-size="11.9552" font-family="LMRoman12" font-weight="bold"><tspan y="-709.041" x="112.755298 126.64724 134.11923 137.8612 143.16931 148.40569 152.14766 158.28067 165.75267 169.49465 175.85482 185.19182 191.32483 201.30742 210.50096 216.00035 222.73113 227.9675 234.10051 240.07811 245.31449 249.05646 255.78723 267.74244 274.28193 281.7539 293.7091 303.87104 310.9724 316.2088 319.95079 324.434 334.46443 340.59745 345.83384 352.37333 356.1153 359.85728 366.39677 371.63316 375.37513 382.1059 394.0611 403.25465 408.75404 414.88706 420.19517 427.66719 438.88117 446.35316 451.58955 455.3315 462.0623">WhistleblowerProtectionandAnti-RetaliationPresumption</tspan></text>
<text xml:space="preserve" transform="matrix(.9899495 0 -0 1.0101526 0 792)" font-size="10.799458" font-family="LMRoman10"><tspan y="-681.5287" x="72.322879 80.42247 86.12458 95.15293 100.55266 106.55716 111.95689 116.751857 120.98524 125.25102 133.38301 138.78273 143.5885 147.78949 150.78093 156.18067 165.5222 169.72319 175.12291 180.51184 185.3176 194.64833 200.04807 205.44779 210.84752 213.84976 219.85427 224.10926 231.64728 240.37323 246.68012 251.48589 255.71927 259.97428 265.374 274.70475 278.00938 283.40913 290.96873 295.20213 300.00785 306.32554 311.72526 315.95863 320.1596 323.16188 329.16636 334.56608 340.95936 345.7651 351.4672 356.86695 363.1846 367.99037 372.22373 377.62348 381.82444 384.8267 390.83119 399.55717 407.35438 410.35664 414.5576 420.5621 426.95536 432.35508 439.9147 444.14808 448.95384 454.35356 458.60856 464.00828 470.01277 475.4125 481.4278 484.41926 493.4584 498.85813 503.0591 507.26008 512.0658 521.06179 527.0663 531.2673 534.2695 540.274">Anyadverseactiontakenagainstapersonforreporting,cooperatingwith,orreasonablyattempting</tspan></text>
<text xml:space="preserve" transform="matrix(1 0 -0 1 0 792)" font-size="10.9091" font-family="LMRoman10"><tspan y="-674.899" x="72 76.24364 85.33092 89.607288 94.46184 100.832759 106.28731 110.563678 118.44004 127.53823 132.39278 137.84732 143.91278 148.76734 153.62189 157.89826 167.59645 170.62918 180.32738 185.78192 191.54192 197.30191 207.0001 210.33829 215.79283 218.82556 223.0692 232.7783 237.63286 243.0874 249.15287 253.45105 257.6947 260.72743 264.97108 271.03654 275.28019 280.13475 288.06565 294.1311 298.40748 303.26203 307.5602 313.62568 322.71296 328.7784 333.02207 336.05479 341.50935 350.00755 358.18937 364.25483 370.32029 374.61848 379.47303">toreportaconcerningoodfaithconstitutespresumptiveAbuse.</tspan><tspan y="-654.575" x="71.596 79.47237 85.53783 91.00328 95.846927 100.12329 104.42148 112.91967 118.37422 123.228778 127.47241 130.50514 135.95969 142.02515 149.95607 152.9888 159.05426 163.90882 166.94155 173.007 179.07247 183.92702 190.59249 196.65795 202.73432 210.61069 216.06523 220.3416 228.82889 234.89435 240.34889 248.22527 251.258 254.29073 263.378 266.4107 270.65437 275.5089 285.21803 289.46168 294.91624">Adverseactionsinclude,butarenotlimitedto:</tspan></text>
<text xml:space="preserve" transform="matrix(1 0 -0 1 0 792)" font-size="10.9091" font-family="LMRoman10"><tspan y="-628.274" x="72">&#x2022;</tspan></text>
<text xml:space="preserve" transform="matrix(1 0 -0 1 0 792)" font-size="10.9091" font-family="LMRoman10"><tspan y="-628.274" x="85.94183 90.18547 95.04002 99.31639 108.40367 111.4364 117.50186 122.95641 127.20005 130.23278 135.68732 141.75278 148.41825 154.4837 159.33826 168.42554 173.88008 178.12372 181.15645 186.611 192.67646 199.35283 204.80738 212.71648 218.78194 221.81467 226.11286 230.9674 234.00014 240.0656 243.09833 246.13106 252.19652">termination,demotion,ordiscipline</tspan></text>
<text xml:space="preserve" transform="matrix(1 0 -0 1 0 792)" font-size="10.9091" font-family="LMRoman10"><tspan y="-605.958" x="72">&#x2022;</tspan></text>
<text xml:space="preserve" transform="matrix(1 0 -0 1 0 792)" font-size="10.9091" font-family="LMRoman10"><tspan y="-605.958" x="85.94183 88.97456 94.734569 98.9782 102.01093 111.09821 114.13094 120.1964 125.650959 129.89459 132.92733 138.38187 144.44733 151.1237 155.36734 161.4328 165.70917 170.56372 176.01827 180.2619 184.56009 191.22556 196.6801 204.5892 209.44376 215.20375 220.0583 224.33467 229.18923 232.22196 237.6765">intimidation,threats,orcoercion</tspan></text>
<text xml:space="preserve" transform="matrix(1 0 -0 1 0 792)" font-size="10.9091" font-family="LMRoman10"><tspan y="-583.641" x="72">&#x2022;</tspan></text>
<text xml:space="preserve" transform="matrix(1 0 -0 1 0 792)" font-size="10.9091" font-family="LMRoman10"><tspan y="-583.641" x="85.94183 92.00729 97.461849 103.527309 107.82549 110.85822 116.92368 126.02187 132.08733 135.12006 139.41825 145.4837 148.51644 153.97098 158.82553 163.66918 172.75646 177.61101 183.38193 191.2583 196.71285 204.62195 210.07649 214.93105 219.7856 224.64015 228.93834 236.88018 241.15654 246.0111 250.30928 254.55292 258.82929 261.862 266.70567 270.9493 273.98204 279.43659">housingdisplacementoraccessrestriction</tspan></text>
<text xml:space="preserve" transform="matrix(1 0 -0 1 0 792)" font-size="10.9091" font-family="LMRoman10"><tspan y="-561.325" x="72">&#x2022;</tspan></text>
<text xml:space="preserve" transform="matrix(1 0 -0 1 0 792)" font-size="10.9091" font-family="LMRoman10"><tspan y="-561.325" x="85.94183 88.97456 93.27275 98.7273 101.76003 107.214588 111.45822 114.49095 119.9455 126.01096 132.67642 136.95279 142.40734 145.44007 153.93827 158.23645 162.48009 166.75646 169.78919 175.85465 181.9201 184.95284 191.0183 196.47284 203.1383 208.59285 216.50196 220.77832 225.63288 231.69834 237.7638 242.00743 247.46198 251.70561 254.73834 260.1929 266.25837 271.71293 278.38929 284.45475 289.9093 294.18568">isolation,rolestripping,orreputationalharm</tspan></text>
<text xml:space="preserve" transform="matrix(.997998 0 -0 1.002006 0 792)" font-size="10.8872599" font-family="LMRoman10"><tspan y="-533.9519" x="71.75065 79.61125 85.664569 94.16752 100.22083 104.48864 109.333469 113.62305 119.67636 128.74546 134.79877 139.03392 142.06058 147.5042 157.20475 162.64838 169.638 177.80345 183.85677 189.91008 194.19966 202.69171 208.13536 214.18868 220.25287 223.26865 226.2953 231.14014 239.08785 245.14116 251.19448 254.22113 259.06596 263.35557 271.30326 275.5384 281.5917 290.08378 295.5274 300.37226 304.6074 310.05104 317.97694 324.03025 328.8751 337.94419 343.38783 349.44114 353.73075 357.96589 362.23368 367.6773 371.9124 376.75727 384.6941 390.44258 399.84916 404.694 407.72068 412.5655 418.00917 425.92417 430.769 436.5175 439.54414 445.59745 450.4423 456.4956 461.34046 469.8434 474.07856 480.13188 485.5755 493.45787 497.693 503.7463 512.24929 517.6929 522.5377 526.7729 529.7995 535.24319">ThepresumptionofAbuseappliesunlesstheactordemonstratesbyclearevidencethattheaction</tspan></text>
<text xml:space="preserve" transform="matrix(1 0 -0 1 0 792)" font-size="10.9091" font-family="LMRoman10"><tspan y="-521.474" x="71.607 79.17792 84.63247 88.93066">was:</tspan></text>
<text xml:space="preserve" transform="matrix(1 0 -0 1 0 792)" font-size="10.9091" font-family="LMRoman10"><tspan y="-495.173" x="72">&#x2022;</tspan></text>
<text xml:space="preserve" transform="matrix(1 0 -0 1 0 792)" font-size="10.9091" font-family="LMRoman10"><tspan y="-495.173" x="85.94183 92.00729 98.072757 102.34912 107.203678 110.236408 115.690959 119.93459 124.78914 134.48734 138.73097 147.82917 152.0728 158.13826 166.62555 170.90192 175.75647 182.12738 187.58193 191.85829 199.73467 205.18921 213.09832 217.95287 223.71286 229.1674 235.53832 240.39287 244.66924 250.12378 254.36742 257.40016 262.8547">unrelatedtothereportorcooperation</tspan></text>
<text xml:space="preserve" transform="matrix(1 0 -0 1 0 792)" font-size="10.9091" font-family="LMRoman10"><tspan y="-472.857" x="72">&#x2022;</tspan></text>
<text xml:space="preserve" transform="matrix(1 0 -0 1 0 792)" font-size="10.9091" font-family="LMRoman10"><tspan y="-472.857" x="85.94183 92.00729 96.28366 101.73821 108.10913 113.56368 117.84005 122.08369 125.11642 130.57097 136.63643 142.09098 146.33461">proportionate</tspan></text>
<text xml:space="preserve" transform="matrix(1 0 -0 1 0 792)" font-size="10.9091" font-family="LMRoman10"><tspan y="-450.54" x="72">&#x2022;</tspan></text>
<text xml:space="preserve" transform="matrix(1 0 -0 1 0 792)" font-size="10.9091" font-family="LMRoman10"><tspan y="-450.54" x="85.94183 88.97456 95.04002 101.105487 105.96004 112.330959 117.1855 123.25096 129.31642 134.17098 139.93099 144.17462 147.20735 156.6001 159.93828 166.01465 170.31284 174.55648 177.5892 180.62194 183.65467 188.50922">independentlyjustified</tspan></text>
<text xml:space="preserve" transform="matrix(.9929753 0 -0 1.0070744 0 792)" font-size="10.832467" font-family="LMRoman10"><tspan y="-421.2589" x="72.50936 81.012859 86.7324 92.45194 98.4748 102.08201 105.39674 110.81298 113.82441 118.03824 127.7333 133.75615 139.779 147.6542 156.67766 159.68907 163.95706 168.1709 173.58713 179.00337 183.82382 193.50804 197.75437 202.57483 208.90099 214.31722 218.56354 222.77738 230.70674 236.7296 245.8072 251.83005 257.24629 265.1215 269.94194 275.35816 281.381 285.649 289.86283 292.87425 297.08808 303.1109 307.32475 315.80659 324.83003 327.84144 332.10945 336.92988 342.3461 348.36894 354.39179 360.4146 365.23509 373.11027 378.5265 384.54936 394.23356 402.95368 408.9765 413.2445 421.11973 427.15339 432.56959 440.4448 444.65864 448.90498 451.91639 457.33259 462.7488 467.55845 475.46617 480.88236 486.91603 492.3214 497.14189 501.3882 505.6562 514.138 519.55429 524.37466 528.58847 531.5999 537.0161 543.039">Good-faithbutmistakenreportsdonotconstitutemisconductandmustnottriggeradverseaction.</tspan></text>
<text xml:space="preserve" transform="matrix(1 0 -0 1 0 792)" font-size="10.9091" font-family="LMRoman10"><tspan y="-403.915" x="72 82.00365 88.06911 92.312747 97.767299 103.832759 106.865489 109.89822 112.93095 116.869129 122.62913 130.5164 138.69823 144.76369 149.31279 155.37825 160.8328 166.89826 172.3528 177.20735 182.6619 188.72736 191.76009">Mutability:Unchangeable</tspan></text>
<text xml:space="preserve" transform="matrix(1 0 -0 1 0 792)" font-size="14.3462" font-family="LMRoman12" font-weight="bold"><tspan y="-369.547" x="72 80.07691">19</tspan></text>
<text xml:space="preserve" transform="matrix(1 0 -0 1 0 792)" font-size="14.3462" font-family="LMRoman12" font-weight="bold"><tspan y="-369.547" x="100.26202 111.925479 120.00239 128.96877 135.33849 141.62212 146.11248 152.3961 161.36248 167.6461 172.13646 180.21337 189.17974 197.0271 206.89728 218.93375 226.29335 235.25972 243.10709 247.59745 259.57655 270.60877 277.208 285.2849 291.56855 300.09019 307.26329 315.34019">ConstitutionalRepairProtocol</tspan></text>
<text xml:space="preserve" transform="matrix(1 0 -0 1 0 792)" font-size="11.9552" font-family="LMRoman12" font-weight="bold"><tspan y="-342.607" x="72 78.73078 85.46156 89.203548">19.1</tspan></text>
<text xml:space="preserve" transform="matrix(1 0 -0 1 0 792)" font-size="11.9552" font-family="LMRoman12" font-weight="bold"><tspan y="-342.607" x="106.02451 115.21806 122.69006 128.18946 136.03206 142.76284 148.07094">Purpose</tspan></text>
<text xml:space="preserve" transform="matrix(1.0099504 0 -0 .99014756 0 792)" font-size="11.017651" font-family="LMRoman10"><tspan y="-325.2182" x="70.901508 78.85625 84.98206 88.04497 96.4294 102.555217 106.87413 112.38295 116.66882 122.48614 127.377979 132.8868 140.0042 144.90706 150.72437 153.78728 158.12824 162.4141 170.79854 175.1395 180.64833 183.71123 188.61409 191.677 201.5378 205.82366 215.37596 221.50177 225.82068 230.72354 236.2434 241.14626 246.9746 255.30393 261.42976 267.55555 272.76689 278.2867 283.79554 286.85847 292.98426 298.49308 304.6189 307.6818 316.6281 322.75395 328.26277 332.58168 345.80287 350.7057 356.2145 362.3403 366.68128 371.5841 381.75343 387.58174 397.44255 402.3454 407.8542 413.68254 417.9684 421.0313 426.85966 432.98545 437.8883 448.0576 452.96043 459.08625 462.45765 467.96647 472.28538 477.18824 482.09107 491.26878 496.1716 501.99995 510.3293 515.83816 523.2531 528.7619">Thisprotocolexistssolelytopreventunavoidableharmcausedbycontinuedenforcementofan</tspan></text>
<text xml:space="preserve" transform="matrix(1 0 -0 1 0 792)" font-size="10.9091" font-family="LMRoman10"><tspan y="-308.465" x="72 80.18182 86.247287 90.79638 96.86184 102.31639 108.38185 113.8364 118.69095 124.1455 130.21096 133.24369 141.74188 147.80735 152.08371 157.2328 162.99282 166.02555 170.32373 173.35646 178.811 188.5092 194.57466 200.64012 206.70558 211.56014 219.48015 228.56743 234.02198 238.26561 243.12017 247.39653 250.41835 255.8729 258.9056 261.93833 271.34199 275.89109 281.95655 287.4111 293.47657 298.93113 303.78569 313.48387 318.3384 323.79298 329.85844 335.9239 338.9566 343.20027 346.23298 351.68754 357.753 362.05119">Unchangeableprovisionundermateriallychangedconditions.</tspan><tspan y="-288.141" x="71.607 79.483379 85.548839 88.581569 96.51248 102.57794 106.85431 112.30886 116.5525 122.31251 127.16705 132.6216 139.28707 148.0798 154.14527 158.44345 166.31983 172.38529 177.83983 185.72711 192.08712 200.58531 206.65077 210.94896 215.80352 225.50171 229.74535 238.83263 244.28717 250.35263 254.59627 257.629 266.71629 269.749 274.60356 283.10176 287.9563 293.41087 299.17088 304.62544 309.47999 315.54545 318.57817 323.4327 329.49818 334.35273 339.20729 345.8727 350.72727 353.75636 356.78544 359.81455 364.6691 367.7018 372.55638 378.62184 383.47639 388.33094 394.99638 400.45094 404.7273 409.8764 417.75279 421.99644 428.0619 434.73826 440.1928 448.1019 453.55647 459.62193 463.86558 469.93104 475.3856 479.66197 482.69468 486.63288 491.48744">Thisprotocolmustnotbeusedtooptimizeconvenience,efficiency,growth,orauthority.</tspan><tspan y="-267.817" x="72 82.00365 88.06911 92.312747 97.767299 103.832759 106.865489 109.89822 112.93095 116.869129 122.62913 130.5164 138.69823 144.76369 149.31279 155.37825 160.8328 166.89826 172.3528 177.20735 182.6619 188.72736 191.76009">Mutability:Unchangeable</tspan></text>
<text xml:space="preserve" transform="matrix(1 0 -0 1 0 792)" font-size="11.9552" font-family="LMRoman12" font-weight="bold"><tspan y="-238.60799" x="72 78.73078 85.46156 89.203548">19.2</tspan></text>
<text xml:space="preserve" transform="matrix(1 0 -0 1 0 792)" font-size="11.9552" font-family="LMRoman12" font-weight="bold"><tspan y="-238.60799" x="106.02451 114.249698 119.749088 123.491069 130.22185 136.95262 143.08563 153.06822 162.41719 169.88919 175.38858 181.52159 186.8297 194.3017 201.03247 204.77445">TriggerThreshold</tspan></text>
<text xml:space="preserve" transform="matrix(.99949988 0 -0 1.0005003 0 792)" font-size="10.903644" font-family="LMRoman10"><tspan y="-217.907" x="71.64284 79.51527 85.5777 94.07163 101.94407 107.39589 113.45831 117.75435 121.995868 125.02708 129.26859 135.33101 139.57253 142.60375 148.05556 154.11798 159.56981 166.23194 174.25702 179.10915 185.17157 190.6234 193.6546 201.57067 208.99604 213.27027 218.72209 222.96361 228.72074 233.57286 239.02468 245.68682 254.76953 259.92695 269.31498 275.6827 284.17665 287.20783 292.96498 298.41679 303.8686 309.32044 314.17256 323.87678 329.3286 335.39103 338.42225 347.82118 350.8524 357.8198 363.2716 366.30284 372.97584 378.42768 385.40599 389.6475 395.70994 404.19297 407.54039 412.9813 416.0125 419.0437 424.20115 432.07359 435.10478 441.1672 450.24995 455.10206 460.5539 466.6163 472.6787 475.70994 479.95149 482.98268 488.4345 494.49693 502.43476 507.88658 512.1608 520.6548 529.7375 534.5896 538.8311">TheConstitutionalRepairProtocolmaybeinvokedonlyifallofthefollowingconditionsaremet:</tspan></text>
<text xml:space="preserve" transform="matrix(1 0 -0 1 0 792)" font-size="10.9091" font-family="LMRoman10"><tspan y="-191.714" x="72">&#x2022;</tspan></text>
<text xml:space="preserve" transform="matrix(.99548986 0 -0 1.0045307 0 792)" font-size="10.859898" font-family="LMRoman10"><tspan y="-190.84932" x="86.32936 91.16201 96.59196 102.32599 106.55048 109.569538 115.303569 121.34167 126.174327 135.86135 140.694 146.73209 150.05522 155.48517 159.74225 164.57489 169.40755 178.45383 183.28649 189.02051 196.88307 202.31302 209.28505 218.36392 222.64273 228.9849 233.81755 238.65019 241.66924 244.6883 247.70734 256.17805 264.323 270.36109 274.88966 280.92778 286.3577 292.39579 297.82575 302.6584 308.08836 314.12644 317.14549 325.62709 331.66517 335.92225 341.04814 346.78215 349.80119 354.08 357.09904 362.52897 372.216 379.75279 385.1827 391.22084 394.23988 403.91603 408.74867 414.1786 420.2167 424.50636 432.97706 437.25584 443.2939 449.33204 453.6108 457.8353 463.26527 468.99928 473.2238 476.24284 481.67277 488.34077 493.7707 499.80879 509.49583 515.53396 520.3666 529.41287 534.84286 540.8809">continuedenforcementofaspecificUnchangeableprovisionwouldcausesubstantialanddemon-</tspan></text>
<text xml:space="preserve" transform="matrix(1 0 -0 1 0 792)" font-size="10.9091" font-family="LMRoman10"><tspan y="-178.165" x="85.94 90.23819 94.48183 98.758197 104.212749 110.278209 113.310939 121.79821 127.86367 133.31822 137.59459">strableharm</tspan></text>
<text xml:space="preserve" transform="matrix(1 0 -0 1 0 792)" font-size="10.9091" font-family="LMRoman10"><tspan y="-155.849" x="72">&#x2022;</tspan></text>
<text xml:space="preserve" transform="matrix(.9899495 0 -0 1.0101526 0 792)" font-size="10.799458" font-family="LMRoman10"><tspan y="-154.28263" x="86.81251 91.0135 97.018 104.65321 110.657718 116.05744 120.29083 132.11623 136.922 142.32172 148.32622 154.33072 159.73046 166.7609 173.0678 180.70302 189.69896 192.7012 196.90219 199.90445 205.30419 210.7039 214.90489 219.71067 228.54462 232.7456 238.7501 242.9835 248.38323 254.38773 259.78746 268.61064 271.61289 277.315 281.51597 286.32173 290.55509 296.5596 300.79298 305.59873 309.79969 315.1994 319.4004 322.40266 327.80238 333.80686 339.81138 345.2111 351.51799 356.32374 360.5571 365.95683 370.1578 373.16007 378.55979 384.56428 389.96403 395.79573 401.19548 407.19996 410.50459 416.5091 420.76408 424.96507 433.961 438.76676 444.46888 448.66984 454.66355 460.0633 467.12614 473.1306 477.3856 485.0208 490.42054 496.55464 501.36039 510.35636 515.1513 519.3847 524.7844 529.5902 535.59469 540.40048">theharmcannotbemitigatedthroughinterpretation,operationaladjustment,oruseofemergency</tspan></text>
<text xml:space="preserve" transform="matrix(1 0 -0 1 0 792)" font-size="10.9091" font-family="LMRoman10"><tspan y="-142.299" x="85.94 91.394557 97.460018 101.70365 107.76911 113.22366 117.50003 120.53276 124.47094">authority</tspan></text>
<text xml:space="preserve" transform="matrix(1 0 -0 1 0 792)" font-size="10.9091" font-family="LMRoman10"><tspan y="-119.982997" x="72">&#x2022;</tspan></text>
<text xml:space="preserve" transform="matrix(.9899495 0 -0 1.0101526 0 792)" font-size="10.799458" font-family="LMRoman10"><tspan y="-118.7771" x="86.81251 91.0135 97.018 105.36598 111.37048 116.77021 121.0036 133.53096 138.9307 143.16408 146.16634 150.42131 155.22708 163.02428 166.32892 170.5623 175.96204 188.4894 197.48535 202.88507 207.08606 211.89183 216.12522 219.12746 224.52719 231.07167 235.56424 241.56874 246.96846 252.97296 258.37269 263.17845 270.97566 273.9779 283.52464 286.82926 292.22898 297.03474 301.23573 307.2402 312.63993 319.1736 324.57334 332.34895 335.3512 340.15696 345.55668 350.9564 357.49009 362.29585 367.69557 373.70005 379.70457 382.70683 386.90779 389.91004 395.30976 401.31428 409.11149 415.11598 420.5157 428.2481 432.48149 437.28724 442.68696 446.94194 452.34169 458.34617 463.74589 469.7504 472.75267 481.99699 485.3016 490.70137 494.93473 499.74049 503.99546 508.8012 513.60696 519.00668 525.01119 528.01339 536.3505 541.75027">theharmarisesfrommaterialchangesinfactualorlegalconditionsnotreasonablyforeseeableat</tspan></text>
<text xml:space="preserve" transform="matrix(1 0 -0 1 0 792)" font-size="10.9091" font-family="LMRoman10"><tspan y="-106.434" x="85.94 90.18364 96.2491 104.73638 108.98002 112.01275 121.10003 129.59822 135.05277 142.02368 147.47823 153.54369 158.99823 165.06369 169.30733 172.34006 177.7946">thetimeofadoption</tspan><tspan y="-80.132999" x="72 82.00365 88.06911 92.312747 97.767299 103.832759 106.865489 109.89822 112.93095 116.869129 122.62913 130.5164 138.69823 144.76369 149.31279 155.37825 160.8328 166.89826 172.3528 177.20735 182.6619 188.72736 191.76009">Mutability:Unchangeable</tspan></text>
<text xml:space="preserve" transform="matrix(1 0 -0 1 0 792)" font-size="10.9091" font-family="LMRoman10"><tspan y="-42.111997" x="300.54499 305.99955">51</tspan></text>
</svg>
