<svg xmlns="http://www.w3.org/2000/svg" xmlns:xlink="http://www.w3.org/1999/xlink" xmlns:inkscape="http://www.inkscape.org/namespaces/inkscape" version="1.1" width="612" height="792" viewBox="0 0 612 792">
<text xml:space="preserve" transform="matrix(1 0 -0 1 0 792)" font-size="10.9091" font-family="LMRoman10"><tspan y="-709.041" x="72">&#x2022;</tspan></text>
<text xml:space="preserve" transform="matrix(1 0 -0 1 0 792)" font-size="10.9091" font-family="LMRoman10"><tspan y="-709.041" x="85.5491 92.52002 96.79639 102.25094 106.800029 112.56003 115.59276 121.65822 130.7455 136.20005 143.18187 148.63642 154.70188 160.76734 163.80007 168.0437 175.97463 183.851 186.88373 191.12737 197.19283 202.64737 208.71283 216.5892 222.04375 228.1092 232.35285 235.98558 239.01831 245.09468">Trackingofadultswithoutopt-in.</tspan></text>
<text xml:space="preserve" transform="matrix(1 0 -0 1 0 792)" font-size="10.9091" font-family="LMRoman10"><tspan y="-686.72506" x="72">&#x2022;</tspan></text>
<text xml:space="preserve" transform="matrix(1 0 -0 1 0 792)" font-size="10.9091" font-family="LMRoman10"><tspan y="-686.72506" x="85.94183 93.37093 99.43639 105.501857 108.534587 111.567317 120.05459 126.12005 129.15277 133.45096 138.30551 141.33824 146.79279 151.09098 157.15644 161.4328 169.931 176.30191 181.15647 186.61103 192.06557 198.13103 207.82923 213.28377 219.34923 225.41469 229.69106 234.84015 240.30562 245.16017 254.85837 257.89109 260.92384 265.77839 268.8111 274.87657 279.17475">Publicdisclosurebeyondapprovedfields.</tspan></text>
<text xml:space="preserve" transform="matrix(1 0 -0 1 0 792)" font-size="10.9091" font-family="LMRoman10" font-weight="bold"><tspan y="-660.42306" x="72 78.97092 83.84728 90.12002 101.26912 110.33458 116.607318 123.57823 130.54915 134.02915 138.90552 142.38552 148.65825 155.62917">StopCondition:</tspan></text>
<text xml:space="preserve" transform="matrix(1 0 -0 1 0 792)" font-size="10.9091" font-family="LMRoman10"><tspan y="-660.42306" x="163.96372 171.99282 176.84737 182.91283 188.97829 192.01102 197.46556 207.16376 212.6183 220.53832 225.39287 229.69106 234.54561 240.00016 243.03289 248.48743 252.73107 255.7638 261.21836 270.91654 275.1602 284.24748 289.10203 294.86204 299.10569 303.96025 308.2366 314.30207 319.75663 326.42207 331.87663 337.95298 342.19664 348.2621 353.71665 357.993 361.02574 365.26939 368.2912 373.14576 377.44395">Reunionorescalationtoexternalauthorities.</tspan></text>
<text xml:space="preserve" transform="matrix(1 0 -0 1 0 792)" font-size="10.9091" font-family="LMRoman10" font-weight="bold"><tspan y="-640.10006" x="72 83.912738 90.010929 96.63275 100.112758 110.214588 117.1855 131.8146 140.06189 146.68372 153.65464 157.13463 162.30554 168.40373 173.2801 176.7601 183.03284 190.00376">MaximumExpiration:</tspan></text>
<text xml:space="preserve" transform="matrix(1 0 -0 1 0 792)" font-size="10.9091" font-family="LMRoman10"><tspan y="-640.10006" x="198.3383 204.55649 210.01103 216.07649 223.9856 228.22924 233.68378 241.56015 247.62561 253.08016 259.1456 263.42198 267.72016">Four(4)hours.</tspan></text>
<text xml:space="preserve" transform="matrix(1 0 -0 1 0 792)" font-size="11.9552" font-family="LMRoman12" font-weight="bold"><tspan y="-610.89108" x="72 78.73078 82.47276 89.203548">9.11</tspan></text>
<text xml:space="preserve" transform="matrix(1 0 -0 1 0 792)" font-size="11.9552" font-family="LMRoman12" font-weight="bold"><tspan y="-610.89108" x="106.02451 114.84745 119.33065 126.06143 132.7922 144.00618 152.97258 163.31383 168.5502 172.29218 176.03415 179.77613 184.62993 196.22647 203.55501 210.0945 213.83647 217.57845 225.05045 230.54984 241.16605 250.51502 257.987 263.4864 269.61943 276.1589 281.3953 287.52833 295.0003 298.74229 306.2143 317.42829 330.19645 336.32948 340.07145 344.18403 350.7235 356.2229 366.83915 373.56993 383.55253 391.02455 397.56404 401.6766 407.80964 412.6754">E-050-UtilityFailureThreateningWelfareorSafety</tspan></text>
<text xml:space="preserve" transform="matrix(1 0 -0 1 0 792)" font-size="10.9091" font-family="LMRoman10" font-weight="bold"><tspan y="-590.29806" x="71.561 79.241008 84.41192 87.89192 94.16466 100.43739 106.186489 115.54649 122.51741 127.393779 133.49196 140.46288 147.43379 153.53199 158.7029 165.67382">TriggerStandard:</tspan></text>
<text xml:space="preserve" transform="matrix(1 0 -0 1 0 792)" font-size="10.9091" font-family="LMRoman10"><tspan y="-590.29806" x="173.99745 182.17928 186.42292 189.45565 192.48838 195.5211 199.45929 208.86295 214.31749 220.38295 224.62659 230.08113 235.53568 244.02297 248.87752 253.15389 258.00843 263.46299 267.70664 270.73936 276.8048 285.8921 288.9248 298.0121 307.09938 310.13209 316.19755 321.0521 326.8121 334.6994 338.97578 342.00849 346.30668 355.6994 359.94306 369.03034 376.60127 381.4558 384.48854 387.82673 393.28129 397.55766 406.05586 411.5104 419.4195 423.71769 429.17225 432.51045 437.365 441.3032 446.15776">Utilityoutagecreatingimminentrisktowelfareorsafety.</tspan></text>
<text xml:space="preserve" transform="matrix(1 0 -0 1 0 792)" font-size="10.9091" font-family="LMRoman10" font-weight="bold"><tspan y="-569.97409" x="72 80.225467 85.974559 91.14547 101.59639 105.07639 109.95276 114.829128 120.57822 131.72733 140.85825 146.4328 151.30918 154.80008 161.07282 168.04373 172.99646">PermittedActions:</tspan></text>
<text xml:space="preserve" transform="matrix(1 0 -0 1 0 792)" font-size="10.9091" font-family="LMRoman10"><tspan y="-543.67208" x="72">&#x2022;</tspan></text>
<text xml:space="preserve" transform="matrix(1 0 -0 1 0 792)" font-size="10.9091" font-family="LMRoman10"><tspan y="-543.67208" x="85.94183 93.97093 98.825489 101.858219 107.618228 112.47278 117.92733 122.17097 130.65825 137.02916 141.88372 147.33826 153.40372 156.43645 164.92374 170.37828 178.28739 183.74193 189.80739 192.84012 201.9274 207.38195 210.41468 218.3565 222.60015 231.68743 235.98561 241.44016 244.77834 253.26563 258.12019 263.57475 269.6402 274.49476 278.79295">Relocatepeopleoranimalstosafezones.</tspan></text>
<text xml:space="preserve" transform="matrix(1 0 -0 1 0 792)" font-size="10.9091" font-family="LMRoman10"><tspan y="-521.3561" x="72">&#x2022;</tspan></text>
<text xml:space="preserve" transform="matrix(1 0 -0 1 0 792)" font-size="10.9091" font-family="LMRoman10"><tspan y="-521.3561" x="85.53819 93.41456 98.269107 102.51274 105.54547 110.705478 116.16003 120.40366 128.89095 134.9564 139.23278 144.08733 147.72006 150.75279 156.81826 161.11644 165.36008 170.81462 173.84735 176.88008 181.73464 191.43283 197.49829 202.95284 207.50194 213.26195 219.32741 229.03652 233.3347 239.09471 243.3929 247.63654 252.49109 261.57838 269.50929 277.38566 283.4511 288.30567 292.58204 301.08024 305.32389 309.60026 315.0548 318.07664 324.15299 328.99665 335.073">Activatepre-installedbackupsystemswheretrained.</tspan></text>
<text xml:space="preserve" transform="matrix(1 0 -0 1 0 792)" font-size="10.9091" font-family="LMRoman10"><tspan y="-499.04008" x="72">&#x2022;</tspan></text>
<text xml:space="preserve" transform="matrix(1 0 -0 1 0 792)" font-size="10.9091" font-family="LMRoman10"><tspan y="-499.04008" x="85.94183 93.81821 99.27276 105.03276 109.2764 114.73095 119.585498 127.47277 132.32732 141.4146 146.25824 150.5346 155.98915 160.8437 166.90917 171.76372 181.16738 187.23284 191.47647 194.5092 197.54193 200.57466 204.51285 213.9056 218.20378 223.05834 227.3347 233.09471 236.12744 240.982 245.83655 250.13474">Contactemergencyutilityservices.</tspan></text>
<text xml:space="preserve" transform="matrix(1 0 -0 1 0 792)" font-size="10.9091" font-family="LMRoman10" font-weight="bold"><tspan y="-472.73808" x="72 78.850917 85.12365 90.29456 97.26548 100.74548 107.7164 114.68732 120.43641 131.59642 140.72734 146.3019 151.17827 154.65827 160.931 167.90192 172.85465">ForbiddenActions:</tspan></text>
<text xml:space="preserve" transform="matrix(1 0 -0 1 0 792)" font-size="10.9091" font-family="LMRoman10"><tspan y="-446.43708" x="72">&#x2022;</tspan></text>
<text xml:space="preserve" transform="matrix(1 0 -0 1 0 792)" font-size="10.9091" font-family="LMRoman10"><tspan y="-446.43708" x="85.53819 93.41456 99.48002 103.723659 109.789119 115.24367 119.520038 122.552768 127.40732 130.44005 136.50551 145.6037 151.66916 157.1237 160.15644 169.85463 174.70919 183.79647 188.65102 192.92739 198.38193 203.23648 209.30194 214.1565 223.54924 231.12017 236.5747 240.85108 250.25473 256.61476 261.4693 266.93476 272.3893 278.45478 288.15296 294.2184 298.49479 303.34934 306.98207 312.4366 318.50209 324.56755 328.8439 333.993 339.45848 344.31303 354.0112 359.46577 364.92033 369.1967 374.05125 378.9058 387.99308 392.84764 398.60765 402.8513 407.14949">Authorizingpaidemergencyworkbeyondpre-approvedagreements.</tspan></text>
<text xml:space="preserve" transform="matrix(1 0 -0 1 0 792)" font-size="10.9091" font-family="LMRoman10"><tspan y="-424.12107" x="72">&#x2022;</tspan></text>
<text xml:space="preserve" transform="matrix(1 0 -0 1 0 792)" font-size="10.9091" font-family="LMRoman10"><tspan y="-424.12107" x="85.94183 89.88002 95.94548 99.28367 103.560039 109.01459 113.312778 117.55641 121.83278 127.89824 132.75279 136.99643 143.06189 147.33826 155.82555 164.91283 170.67282 176.73828 179.77101 182.80374 185.83647 190.69103 196.14557 200.3892 203.42194 208.87648 214.94194">Infrastructuremodification.</tspan></text>
<text xml:space="preserve" transform="matrix(1 0 -0 1 0 792)" font-size="10.9091" font-family="LMRoman10" font-weight="bold"><tspan y="-397.81907" x="72 78.97092 83.84728 90.12002 101.26912 110.33458 116.607318 123.57823 130.54915 134.02915 138.90552 142.38552 148.65825 155.62917">StopCondition:</tspan></text>
<text xml:space="preserve" transform="matrix(1 0 -0 1 0 792)" font-size="10.9091" font-family="LMRoman10"><tspan y="-397.81907" x="163.96372 172.14554 176.38918 179.4219 182.45464 185.48737 189.42555 198.8183 203.09467 207.94922 212.2474 216.49105 221.94559 226.22196 231.6765 235.92014 238.95287 244.40741 254.11652 259.57109 267.48017 271.77836 276.022 281.47657 287.54203 290.57475 293.60746 296.64018 301.49473 306.34928 316.04747 320.34565 325.8002 329.1384 337.6366 343.09117 346.12388 350.36753 355.22209 359.49845 365.5639 371.01847 375.26213 378.29484 383.7494 388.60395">Utilityrestorationorstabilizedsafealternative.</tspan></text>
<text xml:space="preserve" transform="matrix(1 0 -0 1 0 792)" font-size="10.9091" font-family="LMRoman10" font-weight="bold"><tspan y="-377.49607" x="72 83.912738 90.010929 96.63275 100.112758 110.214588 117.1855 131.8146 140.06189 146.68372 153.65464 157.13463 162.30554 168.40373 173.2801 176.7601 183.03284 190.00376">MaximumExpiration:</tspan></text>
<text xml:space="preserve" transform="matrix(1 0 -0 1 0 792)" font-size="10.9091" font-family="LMRoman10"><tspan y="-377.49607" x="198.3383 204.55649 210.01103 216.07649 223.9856 228.22924 233.68378 241.56015 247.62561 253.08016 259.1456 263.42198 267.72016">Four(4)hours.</tspan></text>
<text xml:space="preserve" transform="matrix(1 0 -0 1 0 792)" font-size="11.9552" font-family="LMRoman12" font-weight="bold"><tspan y="-348.28706" x="72 78.73078 82.47276 89.203548">9.12</tspan></text>
<text xml:space="preserve" transform="matrix(1 0 -0 1 0 792)" font-size="11.9552" font-family="LMRoman12" font-weight="bold"><tspan y="-348.28706" x="106.02451 114.84745 119.33065 126.06143 132.7922 144.00618 152.97258 161.05429 167.78507 174.51584 181.24662 184.98859 192.46059 203.67456 211.14656 218.24796 223.55606 228.79244 234.92545 250.62262 260.72477 268.19679 273.43318 279.97267 286.70344">E-090-LoggingSystemOutage</tspan></text>
<text xml:space="preserve" transform="matrix(1 0 -0 1 0 792)" font-size="10.9091" font-family="LMRoman10" font-weight="bold"><tspan y="-327.69407" x="71.561 79.241008 84.41192 87.89192 94.16466 100.43739 106.186489 115.54649 122.51741 127.393779 133.49196 140.46288 147.43379 153.53199 158.7029 165.67382">TriggerStandard:</tspan></text>
<text xml:space="preserve" transform="matrix(1 0 -0 1 0 792)" font-size="10.9091" font-family="LMRoman10"><tspan y="-327.69407" x="173.99745 181.42655 185.70291 188.73564 197.82292 203.27747 207.55384 216.94658 219.97931 225.43386 230.8884 236.34294 239.37567 245.44113 254.53932 258.8375 264.5975 268.8957 273.13935 277.9939 290.7139 296.77937 302.84483 307.99394 313.15394 318.6085 321.6412 324.67393 330.12849 336.19395 339.22666 347.71394 353.1685 361.04487 365.2885 368.32124 377.4085 385.9067 391.36128 398.33219 403.78675 408.6413 412.88496 415.91767 421.37223 427.43769">Primaryloggingsystemunavailableattimeofaction.</tspan></text>
<text xml:space="preserve" transform="matrix(1 0 -0 1 0 792)" font-size="10.9091" font-family="LMRoman10" font-weight="bold"><tspan y="-307.37007" x="72 80.225467 85.974559 91.14547 101.59639 105.07639 109.95276 114.829128 120.57822 131.72733 140.85825 146.4328 151.30918 154.80008 161.07282 168.04373 172.99646">PermittedActions:</tspan></text>
<text xml:space="preserve" transform="matrix(1 0 -0 1 0 792)" font-size="10.9091" font-family="LMRoman10"><tspan y="-281.06806" x="72">&#x2022;</tspan></text>
<text xml:space="preserve" transform="matrix(1 0 -0 1 0 792)" font-size="10.9091" font-family="LMRoman10"><tspan y="-281.06806" x="85.94183 93.81821 98.094577 102.94913 108.40368 112.647319 115.680049 121.1346 130.8328 136.28734 143.26917 148.72371 151.7528 154.7819 157.81099 160.84372 166.90918 171.76374 178.4292 182.67284 188.12738 197.21466 203.58557 208.44013 212.71649 216.34923 221.20378 226.96379 229.99652 236.06198 240.91654 246.67655 254.55292 259.40748 268.49476 273.3493 277.62568 283.08024 287.93479 294.00025 298.8548 308.24754 311.28025 316.7348 325.833 330.1312 334.37486 340.4403 346.50578 350.80397">Creationofoffline,tamper-evidentemergencylogstubs.</tspan></text>
<text xml:space="preserve" transform="matrix(1 0 -0 1 0 792)" font-size="10.9091" font-family="LMRoman10"><tspan y="-258.75205" x="72">&#x2022;</tspan></text>
<text xml:space="preserve" transform="matrix(1 0 -0 1 0 792)" font-size="10.9091" font-family="LMRoman10"><tspan y="-258.75205" x="85.94183 92.00729 96.86185 101.7164 107.78186 112.05823 120.54551 124.8437 129.08734 134.54189 138.81826 144.2728 149.72734 158.22554 163.68009 170.651 174.94919 179.19283 185.25829 191.32375 199.25467 205.62558 210.48014 216.5456 222.61106 225.64379 231.70925 240.80744 245.05107 249.32744 254.78199 260.84745 265.14564 270.00019 274.27656 277.30928 283.37474 287.61839 290.6511 296.10566 302.1711">Securestorageofstubspendingtranscription.</tspan></text>
<text xml:space="preserve" transform="matrix(1 0 -0 1 0 792)" font-size="10.9091" font-family="LMRoman10" font-weight="bold"><tspan y="-232.45105" x="72 78.850917 85.12365 90.29456 97.26548 100.74548 107.7164 114.68732 120.43641 131.59642 140.72734 146.3019 151.17827 154.65827 160.931 167.90192 172.85465">ForbiddenActions:</tspan></text>
<text xml:space="preserve" transform="matrix(1 0 -0 1 0 792)" font-size="10.9091" font-family="LMRoman10"><tspan y="-206.14905" x="72">&#x2022;</tspan></text>
<text xml:space="preserve" transform="matrix(1 0 -0 1 0 792)" font-size="10.9091" font-family="LMRoman10"><tspan y="-206.14905" x="85.94183 92.16002 96.436389 101.29094 106.14549 109.77822 114.02186 118.8764 124.636409 128.88005 132.51279 137.96733 144.03279 147.06552 156.45827 160.75646 165.00009 171.06555 177.13101 181.4292">Free-text-onlystubs.</tspan></text>
<text xml:space="preserve" transform="matrix(1 0 -0 1 0 792)" font-size="10.9091" font-family="LMRoman10"><tspan y="-183.83306" x="72">&#x2022;</tspan></text>
<text xml:space="preserve" transform="matrix(1 0 -0 1 0 792)" font-size="10.9091" font-family="LMRoman10"><tspan y="-183.83306" x="85.94183 93.97093 98.825489 103.06912 107.34549 112.80004 118.25459 123.109149 127.35278 130.38552 135.84008 144.32736 153.41464 159.17464 165.2401 168.27283 171.30556 174.33829 179.19284 184.64739 188.89102 191.92375 197.3783 207.0874 212.54195 220.45105 226.51651 231.37107 234.4038 239.25835 243.50199 246.53472 251.98926 258.05473">Retroactivemodificationordeletion.</tspan></text>
<text xml:space="preserve" transform="matrix(1 0 -0 1 0 792)" font-size="10.9091" font-family="LMRoman10" font-weight="bold"><tspan y="-157.53206" x="72 78.97092 83.84728 90.12002 101.26912 110.33458 116.607318 123.57823 130.54915 134.02915 138.90552 142.38552 148.65825 155.62917">StopCondition:</tspan></text>
<text xml:space="preserve" transform="matrix(1 0 -0 1 0 792)" font-size="10.9091" font-family="LMRoman10"><tspan y="-157.53206" x="163.96372 171.3928 175.66918 178.7019 187.78919 193.24373 197.5201 206.91284 209.94557 215.40012 220.85466 226.3092 229.34194 235.4074 244.50559 248.78195 253.6256 257.93467 262.1783 267.63288 271.89836 276.7529 282.81837">Primaryloggingrestored.</tspan></text>
<text xml:space="preserve" transform="matrix(1 0 -0 1 0 792)" font-size="10.9091" font-family="LMRoman10" font-weight="bold"><tspan y="-137.20806" x="72 83.912738 90.010929 96.63275 100.112758 110.214588 117.1855 131.8146 140.06189 146.68372 153.65464 157.13463 162.30554 168.40373 173.2801 176.7601 183.03284 190.00376">MaximumExpiration:</tspan></text>
<text xml:space="preserve" transform="matrix(1 0 -0 1 0 792)" font-size="10.9091" font-family="LMRoman10"><tspan y="-137.20806" x="198.3383 204.40377 209.25832 214.71288 219.56743 225.32744 229.27654 235.03655 238.66928 242.60747 250.17839 259.26567 263.5093 268.96388 274.41844 282.30574 288.3712 293.82575 299.8912 304.16758 312.09849 316.34214 325.44035 330.284 335.73857 344.82585 350.9022 353.9349 358.77857 363.02223 371.52043 375.76408 380.04045 385.495 391.56047 395.85865 400.7132 404.98957 408.02229 414.08775 418.3314 421.3641 426.81867 432.88414">Seventy-two(72)hourstocompletetranscription.</tspan></text>
<text xml:space="preserve" transform="matrix(1.0099504 0 -0 .99014756 0 792)" font-size="11.017651" font-family="LMRoman10"><tspan y="-118.04706" x="70.901508 78.85625 84.98206 88.04497 96.35228 106.45547 112.58128 116.86715 122.37597 128.50179 131.5647 134.6276 137.6905 141.6789 151.45154 157.57735 162.48021 166.82118 169.88408 175.39292 181.51873 187.02756 191.31342 194.37633 199.88515 209.97733 215.48616 221.61197 227.73778 230.80069 233.8636 238.76645 247.07378 251.35964 260.8238 265.10969 271.2355 280.1047 287.6077 296.7854 301.68824 306.00718 311.516 316.41883 322.54466 327.44749 337.23118 343.357 348.25984 353.76866 360.19197 369.05015 377.15913 382.06196 387.57078 390.63368 394.97465 399.2605 403.57945 413.36314 419.48896 423.8079 429.0192 434.83656 437.89945 442.24043 445.3033 450.81214 456.93794 465.24528 468.30818 478.3893 482.6752 488.801 491.86393 500.17124 504.5122 509.41508 514.31796 518.6038 521.6667 527.17556 533.30136">ThisMutabilitydesignationappliestotheEmergencyScopeRegistryprovisionsinthissection,</tspan></text>
<text xml:space="preserve" transform="matrix(1.007472 0 -0 .99258336 0 792)" font-size="10.990613" font-family="LMRoman10"><tspan y="-104.10713" x="71.46601 74.5214 80.63219 85.52301 88.5784 94.689189 100.799968 103.85536 109.96614 119.07736 124.57267 127.62807 134.28836 142.37746 147.26828 152.76358 155.81897 160.14928 164.42462 168.73294 178.1519 183.04273 188.84578 193.12113 197.42945 200.48484 205.37566 213.32187 218.81717 224.92797 234.64366 239.53449 245.02979 250.84383 255.11919 259.4275 264.92283 267.9782 271.0336 275.9244 285.64015 291.14643 296.93849 301.8293 307.32463 313.4354 319.54618 322.60157 328.09687 332.40519 335.46058 340.3514 348.29765 354.40843 359.29927 362.35466 365.41004 371.52079 376.41163 386.1383 392.24909 397.13993 401.44825 406.32807 409.38346 415.50523 423.37449 432.00215 437.18974 442.69606 447.58686 451.89518 458.00596 463.50129 469.61207 474.50288 483.0096 489.1204 493.7035 499.81428 504.70509 510.8159 516.9267 519.98208 528.48886">includingallRegistryentriesandcontrolledvocabulariesdefinedherein.GovernanceScheduleB</tspan></text>
<text xml:space="preserve" transform="matrix(1 0 -0 1 0 792)" font-size="10.9091" font-family="LMRoman10"><tspan y="-89.786" x="70.724 74.967639 82.396739 91.48402 96.33856 100.61493 106.06948 110.92403 116.98949 121.84404 131.23677 137.30223 142.15679 147.61133 153.98224 162.46953 170.49863 175.35318 180.80773 183.84046 188.13864 192.38228 196.65865 202.41866 210.30594 216.3714 221.22595 226.0805 229.11324 234.56778 238.83324 243.68779 251.62963 254.66236 258.906 266.8369 271.98603 279.8624 289.5715 298.35334 304.4188 308.66246 314.117 320.18247 323.21519 326.2479 329.2806 333.2188 342.62248 346.92066 351.7752 357.84068 363.29524 367.5716 373.02616 377.2698 382.12437 385.15708 390.00074">(EmergencyScopeRegistry)declaresitsownmutabilityseparately.</tspan></text>
<text xml:space="preserve" transform="matrix(1 0 -0 1 0 792)" font-size="10.9091" font-family="LMRoman10"><tspan y="-42.112005" x="300.54499 305.99955">39</tspan></text>
</svg>
