<svg xmlns="http://www.w3.org/2000/svg" xmlns:xlink="http://www.w3.org/1999/xlink" xmlns:inkscape="http://www.inkscape.org/namespaces/inkscape" version="1.1" width="612" height="792" viewBox="0 0 612 792">
<text xml:space="preserve" transform="matrix(1 0 -0 1 0 792)" font-size="10.9091" font-family="LMRoman10"><tspan y="-709.041" x="72">&#x2022;</tspan></text>
<text xml:space="preserve" transform="matrix(1.0099504 0 -0 .99014756 0 792)" font-size="11.017651" font-family="LMRoman10"><tspan y="-716.0963" x="85.09329 93.97352 100.099338 104.440288 113.55189 119.975177 129.70377 134.60663 139.82898 145.33782 148.40073 154.52654 160.03537 164.32123 169.22409 180.17563 185.68447 191.81027 202.76181 207.08074 211.9836 218.40688 223.91571 228.23462 232.52048 237.42334 248.3749 253.27774 258.7866 264.91239 269.25337 272.31626 276.65724 280.94309 285.84596 291.67427 295.96015 299.02305 309.6661 317.62086 320.68379 324.96965 335.92118 341.43 347.56684 353.69267 356.75556 359.81849 364.7103 370.21913 376.35597 379.41886 389.14744 393.4333 398.9421 404.75944 412.95658 419.08238 422.1453 426.48625 431.3891 434.452 439.96083 444.3018 450.42759 454.74653 459.64936 467.83549 473.3443 479.47013 490.43269 494.75163 499.65449 506.07777 511.58659 515.90548 520.19137 523.2542 529.38009">mustbeevaluatedandreportedconsistentlywithapplicabletax,disclosure,andreporting</tspan></text>
<text xml:space="preserve" transform="matrix(1 0 -0 1 0 792)" font-size="10.9091" font-family="LMRoman10"><tspan y="-695.492" x="85.94 90.21637 95.07092 100.830928 106.896389 109.929119 114.20548 119.06003 128.14731 133.00186 138.76187 143.00551 147.3037 153.96916 157.00189 163.06735 167.9219 170.95464 177.0201 183.08556 186.11829 192.18375 201.28194 204.31467 210.38013 215.23468 218.26741 224.33287 228.63106 231.66379 237.11833 246.81653 249.84926 259.55836 263.802 269.25657 273.5002 278.95478 285.6202 290.47477 295.92933 305.0166 311.3875 316.24208 322.30754 326.6057 332.06028 336.30393 339.33665 344.7912 354.48939 359.94395 366.0094 371.46397 374.49668 380.25669 384.55488 387.5876 395.5185 403.39488 409.47123 414.31489 418.59126 427.08946 431.3658 436.22038 441.98039 448.04585 451.07856 455.35493 460.20948">requirements,includinginclusionintotalcompensationanalysiswhererequired</tspan><tspan y="-669.191" x="72 78.218189 83.67274 86.70547 89.7382 95.80366 100.080028 108.5673 112.810939 121.89822 130.9855 135.84006 140.69461 148.57099 152.81462 158.89099 163.73464 168.04373 176.53102 180.80739 185.66194 191.42195 197.48741 200.52014 204.79651 209.65106 218.73834 223.5929 229.3529 233.59654 241.52747 246.38202 251.83657 257.59657 263.062 267.91658 272.19294 276.43659 284.3675 288.61116 294.6766 303.16389 309.5348 314.38935 320.4548 325.30937 328.34208 331.37483 339.2512 342.2839 348.0548 352.29847 361.38575 370.47303 380.47666 385.9312 390.17488 395.02943 399.3058 402.3385 407.79307 414.46943 421.59309 424.6258 430.69126 436.1458 442.21128 447.06584 450.09855 455.5531 462.21855 466.1567 471.91673 476.16038 481.01493 485.2913 490.14585 494.44404 498.68769">FailuretomeettheserequirementsconvertsthebenefitintoaMaterialFinancialInterest.</tspan><tspan y="-648.867" x="72 82.00365 88.06911 92.312747 97.767299 103.832759 106.865489 109.89822 112.93095 116.869129 122.62913 130.5164 138.69823 144.76369 149.31279 155.37825 160.8328 166.89826 172.3528 177.20735 182.6619 188.72736 191.76009">Mutability:Unchangeable</tspan></text>
<text xml:space="preserve" transform="matrix(1 0 -0 1 0 792)" font-size="11.9552" font-family="LMRoman12" font-weight="bold"><tspan y="-619.658" x="72 78.73078 82.47276 89.203548">4.23</tspan></text>
<text xml:space="preserve" transform="matrix(1 0 -0 1 0 792)" font-size="11.9552" font-family="LMRoman12" font-weight="bold"><tspan y="-619.658" x="106.02451 111.033748 118.505748 125.977748 132.11077 139.95337 146.08638 153.55838 161.03038 167.16339 174.26479 179.50116 183.24314 194.82773 203.86586 209.99887 215.49826 219.24024 222.97623 226.71224 233.25173 240.72373 244.4657 255.08191 264.80149 271.53227 282.74626 290.58888 296.7219 304.1939 309.502 316.0415 321.2779 325.01988 331.75065 343.70588 354.01127 360.55076 365.78715">IndependentlyVerifiableCompensationData</tspan></text>
<text xml:space="preserve" transform="matrix(1.0099504 0 -0 .99014756 0 792)" font-size="11.017651" font-family="LMRoman10"><tspan y="-605.026" x="71.290637 75.268009 81.39382 87.51963 92.422489 98.84578 103.74863 109.87444 116.00026 120.90311 126.731449 131.01732 134.08022 143.70964 151.08045 155.9833 160.30223 163.36513 166.42804 169.49095 174.99977 181.12558 184.18849 192.90346 200.8582 206.36702 215.54473 221.96802 226.87088 232.99669 237.33765 242.84648 247.13234 250.19525 255.70406 265.64198 274.05949 279.5683 283.85417 293.1861 296.24903 304.40208 309.30494 314.81376 323.99143 330.41474 335.31758 341.4434 345.78437 351.29316 355.57905 358.64195 364.15077 374.08869 377.15159 383.2774 386.65983 392.16865 396.48759 405.66526 411.17408 415.45997 418.5118 424.02064 433.96958 438.31056 443.81938 449.94517 454.2641 459.16697 464.0698 474.00773 477.37913 481.69804 487.20686 500.19667 505.0995 510.92787 515.2137 518.2766 522.56246 525.62539 530.52828">IndependentlyVerifiableCompensationDataiscompensationinformationsourcedfromentities</tspan><tspan y="-591.34219" x="71.290637 76.79946 85.12881 91.254619 96.763439 101.04931 106.55813 110.899089 115.80193 120.0878 128.45021 132.73607 138.86188 144.37071 152.66699 158.17581 162.49474 171.408 176.31087 182.12819 186.41405 191.31691 195.63582 201.76165 207.27046 214.3438 218.62966 228.1489 232.43476 238.57158 247.48487 252.9937 257.31263 262.82145 268.33027 274.45606 277.51899 282.4218 287.93064 292.21653 295.27943 300.78825 306.91404 314.08656 323.26423 328.16709 332.45295 338.57878 344.39607 350.52189 356.0307 359.0936 364.60243 370.11125 373.17414 378.06596 383.57478 386.63768 389.70057 399.53938 403.82524 408.14418 413.65299 419.77879 424.11976 430.24559 435.75437 440.0733 444.97618 450.80448 455.09037 462.26286 467.77168 473.8975 484.03373 488.35267 493.2555 498.7643 503.10527 508.61408 514.73989 520.2487 526.38558 529.43746">ordatasetsthatareexternaltotheorganization,methodologicallytransparent,andreasonably</tspan></text>
<text xml:space="preserve" transform="matrix(1 0 -0 1 0 792)" font-size="10.9091" font-family="LMRoman10"><tspan y="-571.966" x="72 76.27637 81.13092 85.42911 88.46184 92.760028 97.00366 102.45821 108.218219 116.10549 120.34913 129.43642 138.5237 143.97824 150.0437 153.07643 159.14189 165.20735 168.24008 173.69463 177.93827 180.971 186.42554 192.491">resistanttomanipulation.</tspan><tspan y="-551.643" x="72 75.93819 82.00365 88.06911 92.92366 99.29458 104.149127 110.214588 116.280048 121.1346 126.8946 131.13825 134.17098 143.56372 150.84009 155.69464 159.97101 163.00374 166.03647 169.0692 174.52375 180.5892 183.62194 192.10923 199.9856 205.44014 214.52742 220.89833 225.75289 231.81835 236.11653 241.57108 245.81472 248.84745 254.30199 264.01109 272.34565 277.8002 282.04386 291.13114 299.91297 305.97843 310.2766 318.1639 322.4621 327.91667 332.1603 335.19303 339.4912 342.8294 352.22215 357.6767 360.7094 367.37486 372.8294 379.81126 384.0549 390.12037 398.60765 401.94584 407.4004 410.4331 413.46583 418.61494 426.4913 429.52403 435.58949 441.04405">IndependentlyVerifiableCompensationDatamustsatisfyallofthefollowing:</tspan></text>
<text xml:space="preserve" transform="matrix(1 0 -0 1 0 792)" font-size="10.9091" font-family="LMRoman10"><tspan y="-525.341" x="72">&#x2022;</tspan></text>
<text xml:space="preserve" transform="matrix(1 0 -0 1 0 792)" font-size="10.9091" font-family="LMRoman10"><tspan y="-525.341" x="85.94183 91.396389 95.67275 98.70548 104.160037 107.192768 113.258228 118.712779 122.95641 131.4437 134.78188 139.05825 144.51279 157.24372 166.331 170.62918 176.08373 182.14919 186.42555 191.2801 199.7674 205.83286 211.2874 219.17469 224.02924 229.48378 235.24379 239.48743 243.7638 249.21834 252.25107 255.2838 260.13835 269.83653 275.59654 285.00019 289.24385 295.3093 303.79658 309.25114 313.5275 318.98207 324.4366 330.50209 333.5348 338.38935 343.8439 348.08757 351.12028 356.57484 366.273 371.72758 379.64759 383.89125 389.9567 398.44398 403.29853 408.75309 417.84037 424.21128 429.06584 435.1313 439.42948 444.88404 449.1277 453.98225 463.68043 466.71315 472.7786 478.84407 481.87678 487.63679 490.6695 496.73497 502.8004 508.25498">originatefromasourcenotcontrolledbytheorganizationorthecompensatedindividual</tspan></text>
<text xml:space="preserve" transform="matrix(1 0 -0 1 0 792)" font-size="10.9091" font-family="LMRoman10"><tspan y="-503.025" x="72">&#x2022;</tspan></text>
<text xml:space="preserve" transform="matrix(1 0 -0 1 0 792)" font-size="10.9091" font-family="LMRoman10"><tspan y="-503.025" x="85.94183 92.00729 95.04002 99.33821 104.192768 107.225498 112.680049 116.97823 125.46551 134.5528 139.40735 143.65099 149.71645 155.47644 161.5419 166.99645 170.02918 175.48372 180.93827 190.33101 195.78556 203.70557 208.00376 213.4583 222.54558 228.61104 231.64377 234.6765 240.74196 249.82924 255.8947 261.34925 265.64744 268.68016 276.62199 280.92018 286.98564 290.0147 293.0438 296.0729 300.92747 303.96018 308.81474 314.57475 322.4511 326.69477 335.79298 341.24754 345.54573 349.8439 354.69847 358.99665 366.92756 371.20393 376.05848 379.0912 382.1239 387.57847 393.64393 396.67665 399.70936 402.74208 406.68028">disclosemethodologyorsamplingbasissufficienttoassessreliability</tspan></text>
<text xml:space="preserve" transform="matrix(1 0 -0 1 0 792)" font-size="10.9091" font-family="LMRoman10"><tspan y="-480.70899" x="72">&#x2022;</tspan></text>
<text xml:space="preserve" transform="matrix(1 0 -0 1 0 792)" font-size="10.9091" font-family="LMRoman10"><tspan y="-480.70899" x="85.94183 92.31275 100.800029 105.65457 111.72003 115.9964 120.272769 125.12732 130.88733 138.77462 146.65099 149.68372 153.92736 159.99282 163.02555 172.72374 181.81102 186.08739 190.94194 196.39649 200.69467 206.14922 212.21468 217.66922 223.73468 226.76741 235.26561 239.50925 242.54198 251.62926 260.11653 266.18199 271.63655 275.9129 278.94563 283.80018 289.25474 298.9529 303.22929 308.08384 311.11656 316.5711 320.81477 323.84748 329.30204 337.80024 342.04389 351.13117 355.37483 361.44029 369.92756 374.7821 380.23667 389.32395 395.69486 400.5494 406.61488 410.91307 416.3676 420.61128 423.64399 429.09855 438.79673 444.86219 449.71675 454.5713 457.604 461.9022 464.9349 470.38948">becurrentwithinareasonabletimehorizonrelativetothecompensationdecision</tspan></text>
<text xml:space="preserve" transform="matrix(1 0 -0 1 0 792)" font-size="10.9091" font-family="LMRoman10"><tspan y="-458.392" x="72">&#x2022;</tspan></text>
<text xml:space="preserve" transform="matrix(1 0 -0 1 0 792)" font-size="10.9091" font-family="LMRoman10"><tspan y="-458.392" x="85.94183 92.31275 100.800029 106.25458 111.10913 115.963687 120.81824 125.116428 129.41461 132.44734 138.5128 141.54553 150.03282 153.371 158.82555 166.74556 171.02193 175.87648 181.63649 184.66922 189.52378 197.40015 204.06562 209.52016 215.58562 221.65108 224.6838 228.92745 235.59291 241.04746 248.96747 253.23293 258.08747 264.15293 267.18565 270.21836 275.0729 280.52748 284.77113 287.80384 293.2584">beaccessibleforreview,audit,orreplication</tspan><tspan y="-432.091" x="71.596 79.47237 84.32692 89.18147 94.036029 100.10149 104.34512 109.799678 115.865139 118.897869 127.38514 131.69423 137.14878 143.21424 147.4906 152.33425 157.1888 165.13063 168.16336 174.22882 179.08338 182.1161 188.18157 194.24703 199.10158 205.76705 211.8325 217.89797 225.78525 231.23979 235.51616 244.00345 250.06891 255.52346 263.3998 266.43254 269.46525 278.55253 281.58525 285.8289 290.68345 300.38163 304.62528 310.07984">Acceptablesourcesinclude,butarenotlimitedto:</tspan></text>
<text xml:space="preserve" transform="matrix(1 0 -0 1 0 792)" font-size="10.9091" font-family="LMRoman10"><tspan y="-405.789" x="72">&#x2022;</tspan></text>
<text xml:space="preserve" transform="matrix(1 0 -0 1 0 792)" font-size="10.9091" font-family="LMRoman10"><tspan y="-405.789" x="85.94183 92.00729 97.461849 101.70548 104.73821 110.192768 116.258228 121.712779 124.74551 127.77824 137.17098 142.62552 150.54553 154.8219 159.67646 165.131 168.16373 173.61827 179.68373 185.13828 188.171 191.20374 200.59648 204.87285 209.7274 214.58196 220.0365 225.49105 231.5565 234.58924 239.44379 244.29834 253.99654 258.85108 264.30564 273.3929 279.76383 284.61839 290.68385 294.98204 300.43659 304.68025 307.71296 313.1675 322.8657 327.16389 333.22935 337.5057 342.97117 347.81483 353.57484">nationallyorregionallyrecognizedcompensationsurveys</tspan></text>
<text xml:space="preserve" transform="matrix(1 0 -0 1 0 792)" font-size="10.9091" font-family="LMRoman10"><tspan y="-383.473" x="72">&#x2022;</tspan></text>
<text xml:space="preserve" transform="matrix(1 0 -0 1 0 792)" font-size="10.9091" font-family="LMRoman10"><tspan y="-383.473" x="85.94183 91.396389 96.54548 102.00002 106.85457 111.130939 117.196399 126.283679 131.13823 136.90915 144.78553 147.81826 153.2728 159.6437 165.09825 173.00736 177.30554 181.54918 187.00373 191.24736 194.28009 198.57828 202.82192 205.85465 210.7092 218.64012 224.09467 232.01468 238.08014 244.1456 250.21106 253.24379 256.27653 264.7638 267.7965 273.25108 279.62199 285.07655 292.98564 299.0511 304.50566 308.7493 314.20387 320.26933 325.72389 330.02207 334.87663">governmentlaborstatisticsorpubliclabordatabases</tspan></text>
<text xml:space="preserve" transform="matrix(1 0 -0 1 0 792)" font-size="10.9091" font-family="LMRoman10"><tspan y="-361.15699" x="72">&#x2022;</tspan></text>
<text xml:space="preserve" transform="matrix(1 0 -0 1 0 792)" font-size="10.9091" font-family="LMRoman10"><tspan y="-361.15699" x="85.94183 90.2182 95.072757 101.138217 107.203678 111.44731 116.90186 122.96732 126.00005 134.48734 137.52007 143.58553 149.65099 155.71645 160.01464 164.25827 168.53464 177.9383 182.79285 188.24739 197.33467 203.70558 208.56014 214.6256 218.92378 224.37833 228.62197 231.6547 237.10924 246.80744 253.17835 258.0329 264.09837 268.64747 274.71293 283.8002 289.25477 293.53114 299.29115">reputableindustrycompensationbenchmarks</tspan></text>
<text xml:space="preserve" transform="matrix(1 0 -0 1 0 792)" font-size="10.9091" font-family="LMRoman10"><tspan y="-338.84" x="72">&#x2022;</tspan></text>
<text xml:space="preserve" transform="matrix(1 0 -0 1 0 792)" font-size="10.9091" font-family="LMRoman10"><tspan y="-338.84" x="85.94183 88.97456 95.04002 101.105487 105.96004 112.330959 117.1855 123.25096 129.31642 134.17098 139.93099 144.17462 147.20735 156.6001 161.45465 166.9092 172.97466 179.04012 185.11649 189.96013 194.20377 199.05832 208.76743 213.01107 219.07653 222.10926 226.38562 232.45108 236.08382 242.14928 247.60382 251.88019 255.81839 265.21113 269.5093 273.75297 279.8293 285.89479 288.9275 293.78205">independentlyconductedthird-partystudies</tspan><tspan y="-312.539" x="72 80.18182 86.247287 91.701839 96.55638 101.410938 106.26549 112.33095 116.574588 122.02914 128.09459 131.12732 139.61461 143.9128 149.36734 155.4328 159.70917 164.56372 169.41828 177.3601 180.39284 186.4583 191.31285 194.34558 200.41104 206.4765 211.33106">Unacceptablesourcesinclude:</tspan></text>
<text xml:space="preserve" transform="matrix(1 0 -0 1 0 792)" font-size="10.9091" font-family="LMRoman10"><tspan y="-286.238" x="72">&#x2022;</tspan></text>
<text xml:space="preserve" transform="matrix(1 0 -0 1 0 792)" font-size="10.9091" font-family="LMRoman10"><tspan y="-286.238" x="85.94183 88.97456 94.734569 98.9782 103.83275 108.109119 114.174579 119.62913 122.66186 125.69459 135.08733 140.54187 145.39643 151.46189 156.31644 160.5928 166.04735 170.29099 175.14554 184.85465 189.15283 195.21829 199.49466 204.94922 209.80377 215.56378 223.4947 228.94925 236.86927 241.72382 246.022 250.26564 253.29837 262.38566 267.8402 272.08387 276.93843">internallygeneratedsurveysorestimates</tspan></text>
<text xml:space="preserve" transform="matrix(1 0 -0 1 0 792)" font-size="10.9091" font-family="LMRoman10"><tspan y="-263.92103" x="72">&#x2022;</tspan></text>
<text xml:space="preserve" transform="matrix(1 0 -0 1 0 792)" font-size="10.9091" font-family="LMRoman10"><tspan y="-263.92103" x="85.94183 91.396389 97.461849 102.31639 107.170948 113.236408 118.690959 122.93459 128.38915 135.05461 139.33098 144.18553 150.55644 156.01099 160.28736 164.53099 172.46192 177.91646 185.83647 190.11284 194.96739 199.82195 204.09832 210.16378 213.1965 217.44014 222.2947 230.2038 234.48017 239.33472 245.40018 249.67655 254.5311 258.82929 263.68385 269.44386 273.6875 279.14207 283.3857 286.41844 291.873 297.93846 305.86936 313.74574 316.77845 321.0221 327.08757 332.5421 338.60758 346.49488 350.79307 356.85853 362.92399 369.2949 374.74946 379.02583 383.26948 386.3022 392.36766 401.45494 407.5204 412.97496 417.2186">anecdotalreportsorrecruiterrepresentationswithoutsupportingdata</tspan></text>
<text xml:space="preserve" transform="matrix(1 0 -0 1 0 792)" font-size="10.9091" font-family="LMRoman10"><tspan y="-241.60503" x="72">&#x2022;</tspan></text>
<text xml:space="preserve" transform="matrix(1 0 -0 1 0 792)" font-size="10.9091" font-family="LMRoman10"><tspan y="-241.60503" x="85.94183 92.00729 97.461849 103.527309 107.160037 111.40367 115.68004 121.13459 127.20005 131.49823 137.56369 143.01824 147.2946 152.14916 157.90917 165.79645 173.36737 178.22193 187.92012 193.37467 198.82921 204.28376 208.56012 213.41468 218.86922 224.32376 228.5674 234.02194 238.29831 246.24015 249.27288 254.72742 259.27653 265.03654 268.06925 274.1347 283.222 292.30928 297.16383 301.40748 307.47294 313.23295 319.2984 324.75297 327.78569 333.24024 338.6948 341.7275 346.58207 352.03663 358.70207 364.76753 367.80024 372.09843 376.95298 379.9857 385.44026 389.73844 395.8039 400.08027">non-transparentwebaggregatorslackingmethodologicaldisclosure</tspan></text>
<text xml:space="preserve" transform="matrix(1 0 -0 1 0 792)" font-size="10.9091" font-family="LMRoman10"><tspan y="-219.28903" x="72">&#x2022;</tspan></text>
<text xml:space="preserve" transform="matrix(1 0 -0 1 0 792)" font-size="10.9091" font-family="LMRoman10"><tspan y="-219.28903" x="85.94183 90.24002 95.69457 101.76003 106.0364 110.890949 115.7455 123.676418 131.55278 134.58551 138.82915 148.53826 157.62554 163.691 166.72373 171.00009 175.85465 180.7092 188.58557 191.6183 194.65103 200.71649 206.17104 212.2365 217.09105 220.12378 225.57833 232.2547 235.28743 241.04744 245.29108 250.14563 254.422 259.27656 263.57475 271.4511 274.48384 284.182 288.42567 294.502 302.9893 307.84385 313.2984 322.38569 328.7566 333.61116 339.6766 343.9748 349.42936 353.673 356.70573 362.16029 371.85847 377.31303 383.37849 387.62214 392.47669 397.93125 407.01853">sourceswithadirectfinancialinterestinthecompensationoutcome</tspan></text>
<text xml:space="preserve" transform="matrix(1.0099504 0 -0 .99014756 0 792)" font-size="11.017651" font-family="LMRoman10"><tspan y="-194.90732" x="70.74011 82.06625 88.19206 93.09492 97.41383 106.64663 115.526859 121.65267 124.715579 129.00144 132.06435 138.19016 141.25307 150.48586 155.38872 159.70763 164.61049 170.7363 173.79921 179.92502 182.98793 192.22072 196.56168 202.07051 208.19632 212.51525 217.4181 222.32097 231.00289 237.1287 240.1916 245.70043 250.60327 254.9222 260.431 265.33387 272.914 277.1999 283.32569 292.55848 301.20735 306.41868 311.9385 316.84138 321.16029 327.2861 330.349 336.47483 346.31358 354.11408 359.92036 366.05723 376.20448 385.0847 391.21049 395.55146 404.16728 410.29307 416.09938 421.0022 427.12803 436.30574 441.20857 447.0369 455.6527 459.93858 466.0644 475.3082 479.62715 485.13594 489.4218 492.4847 497.99354 504.11936 509.62818 512.69107 521.9239 525.29537 530.8042">Wheremultiplecrediblesourcesdiverge,theGoverningBodymustdocumenttherationalefor</tspan></text>
<text xml:space="preserve" transform="matrix(1 0 -0 1 0 792)" font-size="10.9091" font-family="LMRoman10"><tspan y="-179.438" x="72 76.29819 81.15274 84.18547 89.04002 93.89458 98.138217 101.170948 107.236408 116.323688 120.56732 126.63278 135.13098 141.49098 146.34554 152.411 156.97101 163.03647 172.12375 177.5783 181.85466 191.2474 197.31287 201.61106 206.4656 212.53107">selectingthebenchmarkused.</tspan><tspan y="-159.114" x="71.596 79.777828 85.53783 94.94147 99.217838 104.07239 109.52694 113.82513 119.27968 125.34514 130.79969 136.86515 139.89788 148.38516 154.45063 159.90517 165.97063 172.03609 179.91246 185.367 193.30884 197.55248 206.63976 209.67249 215.73795 221.8034 226.65796 233.02887 237.88343 243.94889 250.01435 254.8689 260.93437 265.7889 274.27619 279.73075 287.65077 293.10533 297.95988 302.23625 305.26896 308.30168 311.3344 316.78898 322.85444 325.88716 328.91987 331.95259 335.89079 345.2835 354.06535 360.1417 364.43989 372.31626 378.68717 387.17445 391.4508 396.30537 400.60356 406.0581 409.09083 414.54539 419.39994 429.10905 434.5636 440.01817 445.47273 448.49455 454.5709 458.86909 466.74546 472.8109 477.1091 485.59638 491.05094 498.03279 502.27644 508.3419 516.82919 522.8946 528.3491 532.5928 538.0473">Anyreasonabledoubtastoindependenceorverifiabilitymustberesolvedagainstuseofthedata.</tspan><tspan y="-138.791" x="72 82.00365 88.06911 92.312747 97.767299 103.832759 106.865489 109.89822 112.93095 116.869129 122.62913 130.5164 138.69823 144.76369 149.31279 155.37825 160.8328 166.89826 172.3528 177.20735 182.6619 188.72736 191.76009">Mutability:Unchangeable</tspan></text>
<text xml:space="preserve" transform="matrix(1 0 -0 1 0 792)" font-size="10.9091" font-family="LMRoman10"><tspan y="-42.112" x="300.54499 305.99955">17</tspan></text>
</svg>
