<svg xmlns="http://www.w3.org/2000/svg" xmlns:xlink="http://www.w3.org/1999/xlink" xmlns:inkscape="http://www.inkscape.org/namespaces/inkscape" version="1.1" width="612" height="792" viewBox="0 0 612 792">
<text xml:space="preserve" transform="matrix(.9899495 0 -0 1.0101526 0 792)" font-size="10.799458" font-family="LMRoman10"><tspan y="-701.91476" x="72.73098 80.83057 87.13746 92.537189 102.1703 106.403697 111.20945 115.410449 118.41269 122.64608 127.45184 136.44779 141.25356 146.94486 154.77446 160.1742 168.02539 173.42513 178.82486 181.8271 187.8316 193.52292 197.7239 203.12363 207.35703 216.68776 220.88875 225.12213 230.52187 236.52637 240.78134 243.7836 247.98459 250.98683 256.38658 266.00886 269.3135 273.54689 278.9466 291.56037 296.9601 301.76585 305.96684 308.96907 314.3688 322.79237 327.04734 331.24833 336.05406 343.5489 348.9486 353.18199 359.1865 363.44148 369.44596 372.4482 378.45274 385.0836 389.28459 395.28907 403.72346 406.7257 412.7302 417.53596 423.54048 432.22325 438.54093 443.34666 449.038 456.86759 463.00169 468.40144 474.4059 480.41044 486.41493 491.22068 499.07185 503.8776 509.5797 513.7807 518.5865 522.8199 530.6927 534.8937 540.8982">Uponretirementorvoluntarytransitionfromactivestewardship,theincumbentFounderentersthe</tspan></text>
<text xml:space="preserve" transform="matrix(1 0 -0 1 0 792)" font-size="10.9091" font-family="LMRoman10"><tspan y="-695.492" x="72 78.218189 83.67274 89.7382 95.80366 101.86912 106.72366 114.63276 120.69822 124.94186 129.7964 137.36733 142.82187 147.09824 156.80735 161.08371 166.53826 169.57099 178.05828 183.51282 191.44374 197.5092 202.36376 205.39649 208.42922 214.49468 219.34923 229.05834 232.09107 241.78926 247.85472 252.70928 257.5638 261.80747 264.84019 270.29475">FounderStewardroleasdefinedinSection</tspan></text>
<text xml:space="preserve" transform="matrix(1 0 -0 1 0 792)" font-size="10.9091" font-family="LMRoman10"><tspan y="-695.492" x="279.99293 285.44749 288.4802 293.93476">6.11</tspan></text>
<text xml:space="preserve" transform="matrix(1 0 -0 1 0 792)" font-size="10.9091" font-family="LMRoman10"><tspan y="-695.492" x="299.3893">.</tspan></text>
<text xml:space="preserve" transform="matrix(1.0099504 0 -0 .99014756 0 792)" font-size="11.017651" font-family="LMRoman10"><tspan y="-681.8863" x="71.290637 79.55387 85.97716 91.48598 101.83156 104.89446 111.02027 115.92313 121.431949 127.55776 133.06659 137.96945 141.03237 145.00972 149.9346 157.3605 162.26337 168.0917 172.37757 176.69649 186.72255 189.78545 195.6138 199.89966 209.61724 213.90309 220.0289 229.14052 235.44261 240.95145 247.07726 253.20307 259.3289 264.23173 272.7594 278.8852 283.17109 288.0739 295.7312 301.24 305.55894 315.8935 320.2124 325.72123 328.78416 337.89573 340.95863 349.51936 355.94264 360.8455 365.16444 374.3421 377.40504 381.6909 385.97679 390.8796 401.21415 406.72297 412.8488 415.91169 425.9488 429.0117 436.5918 440.8777 447.0035 456.11509 464.76396 469.97529 475.49513 480.39796 484.7169 490.8427 493.9056 500.03144 509.74897 517.54946 523.3558 529.48159">Uponincapacity,entryintotheFounderStewardroleispermittedonlyiftheGoverningBody</tspan></text>
<text xml:space="preserve" transform="matrix(.9899495 0 -0 1.0101526 0 792)" font-size="10.799458" font-family="LMRoman10"><tspan y="-654.96939" x="72.73098 76.96436 81.77013 86.57589 91.97562 96.20901 102.21351 109.92432 118.76907 121.771327 124.773578 130.77808 136.78258 139.78482 145.78932 154.64488 158.84587 164.85037 170.2501 177.90692 182.10791 188.11241 196.36319 199.36545 205.36995 210.1757 216.1802 224.87377 231.18065 235.98642 241.68854 249.34535 255.46865 260.86836 266.88365 272.88816 278.89265 283.6984 291.3768 296.18254 301.58229 311.04258 315.27598 320.0817 323.08396 326.0862 331.48594 337.49043 340.49269 349.63984 355.9575 360.76325 364.9966 368.30125 373.701 377.93437 390.37535 394.57633 400.5808 408.84239 416.6396 422.64408 428.04383 431.04606 438.72447 444.12419 450.1287 459.589 464.98875 470.99324 476.69535 479.6976 483.95259 489.3523 493.5857 502.74363 506.04826 512.05276 518.0572 522.863 527.06399 530.06619 535.4659 541.4704">recordsafindingthattheincumbentFoundercanreliablyperformtheChairandadvisoryfunctions</tspan></text>
<text xml:space="preserve" transform="matrix(1 0 -0 1 0 792)" font-size="10.9091" font-family="LMRoman10"><tspan y="-648.07" x="72 78.06546 82.92001 87.2182 92.072757 96.34912 99.38185 105.75277 110.607318 120.305507 123.338237 133.03643 139.1128 143.95644 148.81099 153.05463 156.08736 161.5419">describedinSection</tspan></text>
<text xml:space="preserve" transform="matrix(1 0 -0 1 0 792)" font-size="10.9091" font-family="LMRoman10"><tspan y="-648.07" x="171.251 176.70555 179.73828 185.19283">6.11</tspan></text>
<text xml:space="preserve" transform="matrix(1 0 -0 1 0 792)" font-size="10.9091" font-family="LMRoman10"><tspan y="-648.07" x="190.64737">.</tspan><tspan y="-627.74606" x="72 78.06546 84.13092 88.680019 98.389118 103.24367 109.00367 113.24731 117.523677 123.283679">Suchentry:</tspan></text>
<text xml:space="preserve" transform="matrix(1 0 -0 1 0 792)" font-size="10.9091" font-family="LMRoman10"><tspan y="-601.445" x="72">&#x2022;</tspan></text>
<text xml:space="preserve" transform="matrix(1 0 -0 1 0 792)" font-size="10.9091" font-family="LMRoman10"><tspan y="-601.445" x="85.94183 92.00729 97.7673 102.62186 110.55277 116.61823 122.072788 129.96007 134.2037 139.04735 143.32372 152.411 155.44373 161.50919 166.96373 171.20737 179.70557 183.9492 190.01467 198.50196 204.72014 210.17469 216.24015 222.3056 228.37107 233.22562 237.50199 240.53472 248.46564 251.49837 257.5638 262.41838 268.17839 272.42204 275.45475 279.40385 288.79658 294.25114 302.16023 308.22569 311.2584 315.55659 319.80024 325.2548 329.53117 332.56388 337.41844 342.873 349.54936 353.84754 358.0912 363.54576 367.7894 373.85487">doesnotterminatetheFounder&#x2019;sidentityorhistoricalstatus</tspan></text>
<text xml:space="preserve" transform="matrix(1 0 -0 1 0 792)" font-size="10.9091" font-family="LMRoman10"><tspan y="-579.128" x="72">&#x2022;</tspan></text>
<text xml:space="preserve" transform="matrix(1 0 -0 1 0 792)" font-size="10.9091" font-family="LMRoman10"><tspan y="-579.128" x="85.94183 90.2182 95.072757 101.138217 105.41458 110.269138 114.56732 119.421878 125.18188 129.42552 137.36736 146.45464 150.731 155.58556 159.8292 164.10556 168.96012 174.41466 182.29103 185.62921 189.90558 195.36013 208.08014 214.1456 219.3056 225.06562 228.69835 232.94199 238.39653 242.02927 248.09473 253.24382 262.63655 268.0911 274.462 279.31657 283.59294 289.0475 293.29115 296.32386 301.7784 307.84388 313.29844 319.96388 325.41844 331.4839 341.193 347.25846 353.01847 358.77848 363.07667 366.10939 370.96394 376.4185 383.08393 390.66575 396.1203 400.39668">representsaretreatfromday-to-dayoperationalandphysicalwork</tspan></text>
<text xml:space="preserve" transform="matrix(1 0 -0 1 0 792)" font-size="10.9091" font-family="LMRoman10"><tspan y="-556.812" x="72">&#x2022;</tspan></text>
<text xml:space="preserve" transform="matrix(1 0 -0 1 0 792)" font-size="10.9091" font-family="LMRoman10"><tspan y="-556.812" x="85.94183 92.00729 96.28366 101.138217 105.4364 110.290958 114.56732 120.021869 124.87642 132.80735 137.6619 143.11644 148.88736 153.131 156.16373 161.92374 167.9892 171.02193 174.96012 184.36377 189.81832 196.78923 205.87651 208.90924 213.20743 217.50562 220.53835 225.99289 235.69109 241.14563 245.422 249.66564 252.69837 257.55293 263.61839 266.6511 272.10566 276.3493 279.38203 284.83659 294.5457 300.00025 306.0657 315.7639 318.7966 324.25117 330.31663 335.77119 339.4039 345.46937 350.92393 355.2003 358.233 363.08757 368.5421 378.2403 383.09486 388.5494 394.61488 399.46943 403.7458 408.60035 414.6658 419.52037">preservescontinuityofmissionarticulationandlong-horizoncoherence</tspan><tspan y="-530.511" x="72 82.00365 88.06911 92.312747 97.767299 103.832759 106.865489 109.89822 112.93095 116.869129 122.62913 130.5164 138.69823 144.76369 149.31279 155.37825 160.8328 166.89826 172.3528 177.20735 182.6619 188.72736 191.76009">Mutability:Unchangeable</tspan></text>
<text xml:space="preserve" transform="matrix(1 0 -0 1 0 792)" font-size="11.9552" font-family="LMRoman12" font-weight="bold"><tspan y="-501.302" x="72 78.73078 82.47276">4.2</tspan></text>
<text xml:space="preserve" transform="matrix(1 0 -0 1 0 792)" font-size="11.9552" font-family="LMRoman12" font-weight="bold"><tspan y="-501.302" x="99.29373 106.76573 112.00211 118.13513 127.48409 134.01165 139.51103 146.98303 152.30309 159.77509 163.51706">Stewardship</tspan></text>
<text xml:space="preserve" transform="matrix(1.0099504 0 -0 .99014756 0 792)" font-size="11.017651" font-family="LMRoman10"><tspan y="-485.4923" x="71.290637 77.41644 81.70231 86.60516 94.26243 99.77126 104.09018 110.21599 114.556949 120.68276 123.74567 133.54036 136.60327 144.62412 150.13295 159.92765 162.99054 169.11637 175.24217 180.14504 186.56832 191.47118 197.59699 203.73381 208.62566 214.45401 222.41976 227.62009 233.13993 238.04279 242.36171 246.70267 249.76558 255.2744 261.10273 269.0575 272.42887 278.5547 284.6805 289.58335 293.86924 296.93214 302.44096 312.24668 316.56559 321.46846 325.8094 332.2327 337.74153 343.86735 348.20829 351.2712 357.397 360.45994 369.04267 373.38365 378.89247 381.95536 386.8582 389.91007 399.40733 402.7787 408.2875 416.27534 421.17817 426.68699 432.51533 436.80119 439.86408 445.6924 451.81825 454.88114 458.86955 463.7834 470.5372 473.60014 479.42845 483.71434 488.61717 494.12599 498.44493 501.5078 505.4852 510.41014 517.16397 522.6728 528.7986">Stewardshipisanindependentoversightfunctionresponsiblesolelyforcontinuity,integrity,and</tspan></text>
<text xml:space="preserve" transform="matrix(1 0 -0 1 0 792)" font-size="10.9091" font-family="LMRoman10"><tspan y="-467.159" x="72 75.33819 80.79274 83.82547 86.8582 92.92366 97.20003 105.68731 111.75277 117.20732 121.76733 127.52733 131.82552 136.06916 141.5237 147.58916 153.65462 156.68735 162.7528 171.84009 179.71646 185.78192 190.63648 194.91284 203.40013 208.85468 214.00377 219.46924 224.32379 228.60016 234.66562 240.12017 246.18563 251.04018 259.52748 268.61476 273.4693 278.0184 284.08387 289.53843 295.60389 298.6366 302.93479 312.02207 319.9639 324.81846 330.273 336.33848 342.40394 347.8585 355.73487 361.18943 367.56034 372.4149 376.69126 382.1458 386.38948 394.87675 400.3313 408.2622 414.32768 419.18223 423.4804 426.51313 431.96769 438.03315 442.8877 448.95317">failurebackstoppingwheregovernancemechanismscannotoperateasdesigned.</tspan><tspan y="-446.836" x="72 78.06546 82.3091 87.16365 94.734569 100.18912 104.465488 110.530948 114.82913 120.89459 123.92732 129.99279">Stewardship:</tspan></text>
<text xml:space="preserve" transform="matrix(1 0 -0 1 0 792)" font-size="10.9091" font-family="LMRoman10"><tspan y="-420.534" x="72">&#x2022;</tspan></text>
<text xml:space="preserve" transform="matrix(1 0 -0 1 0 792)" font-size="10.9091" font-family="LMRoman10"><tspan y="-420.534" x="85.94183 88.97456 96.90548 102.97094 108.42549 116.31277 125.40005 133.96369 139.11278 144.57825 149.42189 153.69826 159.76372 162.79645 168.86191 177.9601 185.68375 191.44374 197.5092">isnotaGoverningBody</tspan></text>
<text xml:space="preserve" transform="matrix(1 0 -0 1 0 792)" font-size="10.9091" font-family="LMRoman10"><tspan y="-398.218" x="72">&#x2022;</tspan></text>
<text xml:space="preserve" transform="matrix(1 0 -0 1 0 792)" font-size="10.9091" font-family="LMRoman10"><tspan y="-398.218" x="85.94183 92.00729 97.461849 100.494579 106.560039 114.49095 120.55641 129.6546 136.02552 141.48006 144.51279 147.54552 152.40007 158.16008 161.79282 170.8801 176.33464 182.09465 185.12738 191.19284 196.64739 203.31285 208.76741 214.22196 218.46559 221.49832 227.56378 233.01833 239.68379 245.13834 253.05835 259.1238 262.15653 266.4329 271.28746 276.142 280.38566 283.41838 288.87294 297.3602 302.81477 308.88023 313.12388 319.18934 324.6439 328.92027 331.95298 335.89118">holdsnopolicy-making,voting,ordirectiveauthority</tspan></text>
<text xml:space="preserve" transform="matrix(1 0 -0 1 0 792)" font-size="10.9091" font-family="LMRoman10"><tspan y="-375.90199" x="72">&#x2022;</tspan></text>
<text xml:space="preserve" transform="matrix(1 0 -0 1 0 792)" font-size="10.9091" font-family="LMRoman10"><tspan y="-375.90199" x="85.94183 90.79639 96.55639 99.58912 103.88731 108.13094 116.06186 121.51641 127.58187 130.6146 140.01825 144.26189 153.34917 159.41463 163.691 168.54555 172.84374 177.69829 181.97466 187.42922 195.9165 201.99288 206.25833 212.01833 216.87288 221.72743 227.7929 233.85836 238.13472 243.58927 250.26564 255.10929 260.56385 266.33476 270.5784 273.6111 279.37113 285.43659 288.4693 292.4075 301.81117 307.26573 313.33119 323.02937 329.09483 333.3712 338.22575 343.6803 348.53486 354.29487 362.18217 368.24763 373.10218 378.55674 384.6222 387.6549 393.41493 397.96403 407.35676 412.8113 420.7204 425.57496 431.0295 437.09498 441.33863 447.40409 451.68046">existsonlytopreserveproceduralcontinuityandpreventdeadlockorcapture</tspan></text>
<text xml:space="preserve" transform="matrix(1 0 -0 1 0 792)" font-size="10.9091" font-family="LMRoman10"><tspan y="-353.585" x="72">&#x2022;</tspan></text>
<text xml:space="preserve" transform="matrix(1 0 -0 1 0 792)" font-size="10.9091" font-family="LMRoman10"><tspan y="-353.585" x="85.94183 94.723659 100.789119 105.0873 112.97458 119.04004 124.49459 132.37097 138.74188 147.22917 152.98917 157.84372 162.69828 168.76374 174.8292 177.86193 182.71648 192.41468 198.17469 207.57834 213.03289 218.7929 228.18564 234.55655 239.4111 243.68747 247.98566 253.4402 263.1493 268.00386 274.0693 278.34568 282.62205 287.4657 293.2366 297.48027 300.51298 309.9057 314.2039 319.05845 323.3348 329.09483 332.12754 338.193 347.28028 352.73484 362.44395 366.6876 372.75306 381.24034 389.80397 394.95307 400.41853 405.26219 409.53855 415.604 418.63673 424.71308 433.80036 441.524 447.284 453.34947">mustnotbeoccupiedbyanypersoncurrentlyservingontheGoverningBody</tspan></text>
<text xml:space="preserve" transform="matrix(1 0 -0 1 0 792)" font-size="10.9091" font-family="LMRoman10"><tspan y="-331.26899" x="72">&#x2022;</tspan></text>
<text xml:space="preserve" transform="matrix(1 0 -0 1 0 792)" font-size="10.9091" font-family="LMRoman10"><tspan y="-331.26899" x="85.94183 94.723659 100.789119 105.0873 112.97458 119.04004 124.49459 132.37097 138.74188 147.22917 152.98917 157.84372 162.69828 168.76374 174.8292 177.86193 182.71648 192.41468 198.17469 207.57834 211.82198 217.88744 226.37473 232.59291 238.04746 244.11292 250.17838 256.24385 261.0984 265.37477 272.0402 278.2584 283.71296 289.7784 295.84388 301.90934 306.7639 314.67298 320.73844 324.9821 329.83665 337.40757 342.86213 347.1385 353.20396 359.8803 365.33488 373.24397 378.69853 384.45854 393.86219 398.71675 404.47676 409.3313 414.18586 420.2513 424.49497 427.52769 432.98225 441.4695 445.7677 450.01136 455.4659 458.6459">mustnotbeoccupiedbytheFounder,FounderSteward,oranyexecutivestaff</tspan><tspan y="-304.968" x="72 78.06546 82.3091 87.16365 94.734569 100.18912 104.465488 110.530948 114.82913 120.89459 123.92732 133.63643 139.09098 145.15644 149.40007 155.46553 160.92008 165.19644 168.22917 172.16736 181.5601 184.59284 192.53467 195.5674 198.60013 207.68741 210.72014 214.96378 219.81833 229.51653 233.81472 238.05835 242.33472 245.36745 250.222 254.46564 257.49836 266.89109 271.13475 280.22203 284.46568 290.54203 299.0293 302.3675 308.43296 314.4984 319.35298 323.59663 326.62934 332.0839 338.14936 346.08027 350.9348 356.69483 362.76029 365.793 368.8257 373.68028 376.71299 380.95664 383.98936 393.38209 398.23664 404.00755 410.073 419.16029 424.01484 428.2912 433.74577 437.9894 442.84397 452.54216 455.57487 465.27305 469.5167 475.58216 478.61488 486.5567 492.62217 498.38218 503.23674 509.3022 518.38949 523.244 529.00399 533.2476">Stewardshipauthorityislimitedstrictlytothefunctionsexplicitlyenumeratedinthisdocument.</tspan><tspan y="-284.64399" x="72 82.00365 88.06911 92.312747 97.767299 103.832759 106.865489 109.89822 112.93095 116.869129 122.62913 130.5164 138.69823 144.76369 149.31279 155.37825 160.8328 166.89826 172.3528 177.20735 182.6619 188.72736 191.76009">Mutability:Unchangeable</tspan></text>
<text xml:space="preserve" transform="matrix(1 0 -0 1 0 792)" font-size="11.9552" font-family="LMRoman12" font-weight="bold"><tspan y="-255.43498" x="72 78.73078 82.47276">4.3</tspan></text>
<text xml:space="preserve" transform="matrix(1 0 -0 1 0 792)" font-size="11.9552" font-family="LMRoman12" font-weight="bold"><tspan y="-255.43498" x="99.29373 106.76573 112.00211 118.13513 127.48409 134.01165 139.51103 146.98303 150.725 160.52826 170.6304 174.3684 178.10639 181.84438 187.82198">Steward&#x2019;sOffice</tspan></text>
<text xml:space="preserve" transform="matrix(1.0034939 0 -0 .99651828 0 792)" font-size="10.947215" font-family="LMRoman10"><tspan y="-235.6625" x="71.35768 79.26157 85.34822 93.84326 99.92992 104.188388 109.0599 116.668209 122.141819 126.43312 132.51978 135.5631 143.49983 152.01677 155.05644 158.09612 161.1358 166.00731 174.50235 177.54567 185.49335 189.75182 195.83847 204.3335 213.45253 216.49585 222.58252 225.62584 234.74488 240.21849 246.88533 252.35895 258.4456 267.5646 270.60795 276.69459 279.73789 284.0511 288.30958 292.6009 298.0745 302.33296 305.37629 310.86085 319.35588 324.2274 330.0075 336.09416 340.38548 345.25697 349.57017 353.88337 356.9267 362.4003 372.1105 377.5841 384.56843 390.6551 394.91355 399.78504 407.38243 412.85606 417.14735 423.234 427.5472 433.63386 436.6772 446.39833 450.6896 455.56114 461.34126 467.4279 470.4712 474.7625 479.634 489.3442 493.60267 502.69984 507.57133 513.3515 518.223 523.09457 529.18118 533.43966">TheSteward&#x2019;sOfficeistheminimaladministrativeexpressionofStewardshiprequiredtoexecute</tspan></text>
<text xml:space="preserve" transform="matrix(1 0 -0 1 0 792)" font-size="10.9091" font-family="LMRoman10"><tspan y="-221.293" x="72 76.85455 82.309108 88.06911 92.312747 95.345478 101.10548 107.18185 110.20367 114.152759 123.54549 126.883678 132.94913 139.01459 143.86914 148.11278 151.14551 156.60005 162.66551 170.60735 175.45099 181.211 187.28737 190.3201 193.34192 198.19647 201.2292 205.47284 208.50557 217.90923 223.36377 227.64014 233.09468 238.85469 243.09833 247.95288 257.65107 263.42198 272.8147 277.05836 283.1238 286.15653 294.08744 300.1529 305.9129 310.76747 316.83293 325.9202 330.77476 336.53477 340.7784">continuityfunctionsexplicitlygrantedbythisdocument.</tspan><tspan y="-200.969" x="71.607 79.483379 85.548839 94.03611 100.10157 104.34521 109.19975 116.78158 122.23613 126.5125 132.57796 135.61069 143.54161 152.02889 155.05799 158.08708 161.11617 165.97072 170.82527">TheSteward&#x2019;sOffice:</tspan></text>
<text xml:space="preserve" transform="matrix(1 0 -0 1 0 792)" font-size="10.9091" font-family="LMRoman10"><tspan y="-174.66699" x="72">&#x2022;</tspan></text>
<text xml:space="preserve" transform="matrix(1 0 -0 1 0 792)" font-size="10.9091" font-family="LMRoman10"><tspan y="-174.66699" x="85.94183 95.02911 100.17821 109.58185 115.0364 119.890949 127.76731 133.22187 139.28733 142.32006 151.7128 159.58917 165.65464 170.50919 174.78556 183.27285 187.51648 193.58194 196.61467 204.5565 210.62197 216.38196 221.23651 227.30197 236.38925 241.2438 247.00382 254.88019 259.73475 265.49476 271.5602 274.59294 277.62565 282.4802 285.5129 289.75657 292.78929 302.182 307.63658 313.70204 317.94569 324.02204 329.4766 333.74208 336.77479 341.62934 346.4839 354.42573 360.49119 364.73484 369.5894 377.1603 382.61488 386.89125 392.9567 397.25489 403.32035 406.35307 416.05125 419.08396 424.85487 429.0985 433.95307 438.22944 443.684 448.53855 454.29856 458.5422 461.57493 467.02949">mayactonlywherethisdocumentexplicitlyauthorizesStewardshipintervention</tspan></text>
<text xml:space="preserve" transform="matrix(1 0 -0 1 0 792)" font-size="10.9091" font-family="LMRoman10"><tspan y="-152.351" x="72">&#x2022;</tspan></text>
<text xml:space="preserve" transform="matrix(1 0 -0 1 0 792)" font-size="10.9091" font-family="LMRoman10"><tspan y="-152.351" x="85.94183 94.723659 100.789119 105.0873 112.97458 118.42913 123.283679 131.16005 140.24733 145.10189 149.65099 155.71645 161.17099 167.23645 170.26918 175.12374 180.57828 183.61101 186.64374 196.03649 201.49103 207.55649 217.2656 225.14197 228.1747 232.41834 238.4838 243.93834 250.0038 257.88017 263.94563 266.97834 271.27653 276.13108 280.40745 285.262 289.50566 292.53837 297.99293">mustactmechanicallyandwithoutdiscretion</tspan></text>
<text xml:space="preserve" transform="matrix(1 0 -0 1 0 792)" font-size="10.9091" font-family="LMRoman10"><tspan y="-130.035" x="72">&#x2022;</tspan></text>
<text xml:space="preserve" transform="matrix(1 0 -0 1 0 792)" font-size="10.9091" font-family="LMRoman10"><tspan y="-130.035" x="85.94183 94.723659 100.789119 105.0873 112.97458 119.04004 124.78914 129.64369 135.70915 144.79644 149.65099 155.4219 163.29828 168.75283 171.78556 178.45102 183.90557 188.76012 193.00376 196.03649 201.49103 207.55649 215.49832 219.74196 225.1965 230.65106 235.50562">mustdocumentallactionstaken</tspan></text>
<text xml:space="preserve" transform="matrix(1 0 -0 1 0 792)" font-size="10.9091" font-family="LMRoman10"><tspan y="-107.718" x="72">&#x2022;</tspan></text>
<text xml:space="preserve" transform="matrix(1 0 -0 1 0 792)" font-size="10.9091" font-family="LMRoman10"><tspan y="-107.718" x="85.94183 94.723659 100.789119 105.0873 112.97458 119.04004 122.07277 126.37096 130.66915 136.12369 139.15642 144.61098 153.09827 158.55281 164.61827 168.86191 174.31645 183.40373 188.85828 193.10192 196.13465 200.9892 206.44374 209.47647 212.5092 221.91286 227.3674 233.43286 238.28742 246.7747 251.01834 257.0838 265.57109 269.81474 274.0911 277.1238 282.57838 288.03294 292.88749 297.16386 300.19657 306.26203 315.3493 320.20387 325.65843 331.72389 337.78935 340.82206 345.0657 348.09843 353.55299 363.2621 366.2948 374.2257 378.50209 383.35664 387.65483 393.10939 396.1421 401.59666 406.4512">mustdissolveautomaticallyoncethetriggeringconditionisresolved</tspan><tspan y="-81.417" x="71.607 79.483379 85.548839 94.03611 100.10157 104.34521 109.19975 116.78158 122.23613 126.5125 132.57796 135.61069 143.54161 152.02889 155.05799 158.08708 161.11617 165.97072 174.45801 183.23984 189.3053 193.60349 201.49077 207.55623 213.01078 217.25441">TheSteward&#x2019;sOfficemustnot:</tspan></text>
<text xml:space="preserve" transform="matrix(1 0 -0 1 0 792)" font-size="10.9091" font-family="LMRoman10"><tspan y="-42.112" x="303.273">7</tspan></text>
</svg>
