<svg xmlns="http://www.w3.org/2000/svg" xmlns:xlink="http://www.w3.org/1999/xlink" xmlns:inkscape="http://www.inkscape.org/namespaces/inkscape" version="1.1" width="612" height="792" viewBox="0 0 612 792">
<text xml:space="preserve" transform="matrix(1 0 -0 1 0 792)" font-size="14.3462" font-family="LMRoman12" font-weight="bold"><tspan y="-707.447" x="72">1</tspan></text>
<text xml:space="preserve" transform="matrix(1 0 -0 1 0 792)" font-size="14.3462" font-family="LMRoman12" font-weight="bold"><tspan y="-707.447" x="92.185108 103.21733 112.18371 118.78296 128.19406 136.27097 142.64069 155.38011 163.22748 172.19385 186.54004 201.84745 206.3378 212.70752 219.07724 223.5676 231.6445 245.99069 255.68872 264.21037 270.93873">PurposeandMissionLock</tspan></text>
<text xml:space="preserve" transform="matrix(1.0059822 0 -0 .9940535 0 792)" font-size="10.974359" font-family="LMRoman10"><tspan y="-687.1843" x="71.57184 79.80261 84.6862 96.22025 104.60466 110.09184 115.57902 121.0662 125.94979 130.25174 133.30261 138.78978 144.89153 154.60384 159.48741 165.28188 168.33275 172.65665 176.92566 184.86013 189.184 194.67119 197.72206 202.60565 205.65653 215.06156 219.33058 228.42833 233.9155 240.01725 245.20812 250.6953 256.79704 261.68064 270.1748 273.22569 277.4947 285.42918 289.75306 294.02207 299.50926 303.77827 308.66188 318.37419 322.96147 329.0632 334.5504 338.85237 341.90324 346.17228 351.65943 357.76118 360.81205 365.69563 372.3571 379.9733 384.85688 387.90776 391.2659 396.75306 401.05503 405.93864 412.60008 418.08723 424.18898 433.90129 438.2252 442.4942 447.3778 455.005 460.4922 464.79417 470.8959 475.2198 481.32154 484.3724 494.08473 500.18647 506.2882 510.59016 516.9992 522.4864 526.8103 531.69387 536.0178">NewDoggerlandexistssolelytoadvanceitsstatedcharitable,welfare,andstewardshippurposes.</tspan></text>
<text xml:space="preserve" transform="matrix(.9899495 0 -0 1.0101526 0 792)" font-size="10.799458" font-family="LMRoman10"><tspan y="-662.8186" x="72.322879 80.42247 84.67745 88.932437 93.7382 97.939189 102.19417 108.69545 114.09518 120.09968 124.30067 130.30516 135.7049 139.93828 142.94054 146.82834 151.6125 158.11377 163.5135 169.51799 178.96753 184.36725 190.67414 195.4799 199.71329 205.11302 209.31401 212.31626 217.71599 223.72049 231.42049 240.11406 246.11856 250.37354 258.01957 264.02406 269.42378 277.08058 283.08506 287.8908 293.59294 296.59516 301.9949 306.19587 314.44664 317.75129 321.98466 327.38438 339.82536 344.02635 350.03083 354.83659 359.09156 367.34236 373.34684 379.35136 383.58473 389.90238 395.30213 399.5571 404.36286 408.61784 416.43666 424.53623 433.39179 438.7915 443.58647 447.78746 450.7897 456.4918 459.49406 463.39265 472.5398 481.53575 486.6331 495.7802 501.78474 507.7892 513.7937 518.5995 522.8329 531.8288 534.83108 540.8355">Assets,authority,andoperationsmustnotdeviatefromthesepurposes.Noactivitymayundermine</tspan></text>
<text xml:space="preserve" transform="matrix(1.0099504 0 -0 .99014756 0 792)" font-size="11.017651" font-family="LMRoman10"><tspan y="-662.52658" x="71.290637 77.41644 82.92527 93.10558 100.76285 105.6657 108.72861 112.100009 117.60883 121.92775 126.830608 134.82942 140.65776 146.78357 155.96128 161.47011 172.26741 178.39322 181.45613 186.96497 193.09078 196.15369 200.14208 205.05594 213.06578 218.57462 227.56502 231.85088 237.97669 247.55104 250.61396 256.12278 262.2486 267.75743 271.42628 275.71217 280.615 284.93394 298.7831 303.12406 307.40995 312.31278 319.97004 325.47886 329.7978 335.9236 340.26457 346.39039 349.45329 360.25059 365.7594 371.8852 374.94813 378.01103 383.51985 389.02867 393.3145 396.3774 401.88624 408.01206 417.02449 422.5333 430.57618 434.86204 440.98786 450.56217 456.07099 460.38993 465.89875 471.40757 477.53337 480.59629 485.4991 491.00794 495.2938 498.35673 503.86555 509.99137 521.07516 529.3384">dogwelfare,humandignity,orthelong-termstewardshipobligationsoftheorganization.No</tspan></text>
<text xml:space="preserve" transform="matrix(1.0049875 0 -0 .9950372 0 792)" font-size="10.96351" font-family="LMRoman10"><tspan y="-645.6543" x="71.642688 77.12444 82.0032 86.268009 89.315868 95.1046 98.15245 102.11028 111.516979 120.64958 125.824359 135.23105 141.62277 150.11948 154.38428 158.68199 163.54979 169.03154 173.29634 178.1751 187.88877 193.37053 201.29715 207.39286 213.48857 219.58428 224.46305 228.76074 237.89334 240.94121 247.03691 250.08478 256.1805 265.28025 272.88893 277.7677 280.81556 284.17039 289.65214 293.9498 298.82859 305.49443 311.59013 314.63798 320.11973 326.21546 329.2633 333.22114 338.11085 344.7657 350.24745 358.1521 362.48268 366.74748 371.6153 379.23493 384.71669 389.01438 395.1101 399.42973 405.52546 408.5733 418.287 422.6066 428.08836 431.1362 436.00404 439.05189 448.45857 454.8503 459.72908 464.60786 470.0896 476.18534 480.50495 489.00169 492.04954 499.92137 502.9692 512.1018 518.5045 523.98629 528.3059 533.18466">activitymaybetreatedasunderminingwelfare,dignity,orstewardshipsolelybecauseitimposes</tspan></text>
<text xml:space="preserve" transform="matrix(1.0099504 0 -0 .99014756 0 792)" font-size="11.017651" font-family="LMRoman10"><tspan y="-635.1589" x="71.290637 74.35354 80.47935 85.3822 88.44511 94.57092 99.47378 105.30211 109.58798 115.09681 118.15971 125.46442 129.75029 132.81319 141.9909 146.89376 150.56264 153.62554 156.68845 165.86615 168.92906 173.21492 178.11779 184.24359 191.5483 197.05712 205.48563 214.66333 217.72624 222.0121 225.07501 230.58383 236.09267 240.37853 245.28139 255.51677 261.64259 267.7684 272.08735 278.21315 283.116 289.2418 297.70338 301.98924 308.11506 313.62388 322.01933 327.52815 331.84709 340.8595 346.98533 351.88816 356.79103 361.69386 366.03483 370.37577 375.88459 380.20353 390.14146 394.4273 404.04573 410.17155 414.49049 419.3933 424.91316 429.816 435.63334 444.0398 449.5486 453.86756 458.7704 464.2792 468.56507 473.46794 481.89646 488.02226 493.53108 497.85 511.13728 516.6461 525.08566 529.37149">incidental,time-limited,ormitigatedburdensthatarenecessarytopreventgreaterharmorto</tspan></text>
<text xml:space="preserve" transform="matrix(1.001998 0 -0 .998006 0 792)" font-size="10.930896" font-family="LMRoman10"><tspan y="-616.5815" x="71.85644 76.72069 82.186138 86.47105 90.75596 100.1456 105.611049 111.68863 119.558879 128.66432 131.70311 136.00989 140.31667 143.35546 148.82089 154.89849 158.53847 164.0039 167.04271 170.0815 175.54694 181.62451 186.48876 196.18447 202.26204 208.33962 212.59175 215.63054 220.49478 228.43062 234.5082 240.58577 246.66336 251.5276 259.43067 263.6828 269.76039 272.79917 280.72407 286.80165 292.57316 297.4374 303.51499 312.62043 317.48466 323.2562 327.5083 334.16523 340.24284 344.52775 349.68714 355.45866 358.49745 364.58598 369.43928 379.14595 383.39805 389.47563 397.958 404.03559 408.89985 413.76408 418.62834 422.9351 427.24186 430.28065 434.2267 443.61637 449.69395 455.1594 459.46617 462.50495 470.42988 473.46867 481.39356 487.47114 493.24266 498.1069 504.18449 513.2899 518.1542 523.92568 528.1778 533.04208">carryoutmission-aligneddutiesunderthisdocument,providedthenecessitybasisisdocumented</tspan></text>
<text xml:space="preserve" transform="matrix(1 0 -0 1 0 792)" font-size="10.9091" font-family="LMRoman10"><tspan y="-601.802" x="72 76.85455 82.309108 88.06911 92.312747 97.1673 106.25458 112.625499 118.08005 122.356418 127.81097 133.87642 138.73097 144.18552 150.25098 154.54917 157.5819 166.97464 170.00737 179.71648 183.96012 190.02558 198.51287 203.9674 210.03287 216.09833 219.13106 222.16379 227.01834 232.47289 238.53835 241.57108 250.05837 253.0911 258.54566 264.0002 270.67658 273.7093 279.4693 283.71296 288.5675 292.84388 298.90934 303.1857 308.04026 312.2839 317.73847 321.98213 325.01484 330.4694 340.16758 346.23304 351.6876 355.93125 360.7858 367.45124 372.9058 380.8258 388.8549 393.70945 398.564 404.01856 408.29493 414.36039 419.21495 428.91313 437.24769 442.10224 446.9568 449.9895 454.2877 457.3204 462.77497 472.47315 479.6077 485.06227 489.3059 495.06593 502.63685 507.78596 512.6405">contemporaneouslyintheapplicablelog,interpretationnote,orRecordedDecisionPathway.</tspan></text>
<text xml:space="preserve" transform="matrix(1 0 -0 1 0 792)" font-size="11.9552" font-family="LMRoman12" font-weight="bold"><tspan y="-572.593" x="72 78.73078 82.47276">1.1</tspan></text>
<text xml:space="preserve" transform="matrix(1 0 -0 1 0 792)" font-size="11.9552" font-family="LMRoman12" font-weight="bold"><tspan y="-572.593" x="99.29373 109.59911 116.329898 127.54387 134.08336 137.82534 145.29734 149.78054 157.25254 165.09514 171.22815 177.20575 180.94773 184.68372 188.41973 198.88053 208.98267 216.45467 221.69104 225.43302 236.64699 240.38896 246.36656 252.90605 258.14244 261.8844 268.61518 280.57038 290.28996 297.02073 304.49275 309.80085 315.03724 320.53663 327.0761 330.81809 337.9195">Domain-SpecificOptimizationConstraint</tspan></text>
<text xml:space="preserve" transform="matrix(.9904545 0 -0 1.0096376 0 792)" font-size="10.804966" font-family="LMRoman10"><tspan y="-546.73086" x="72.6939 80.79762 85.60583 97.06991 105.3249 110.72738 116.12986 121.53235 126.34055 130.57611 133.56909 138.97158 144.98993 154.64957 163.34757 169.35512 173.61228 181.47829 187.48584 192.29405 196.55121 199.555 204.95748 210.96503 216.36751 220.57064 229.03092 238.09629 244.10384 248.33937 251.34316 260.3437 265.7462 269.98176 279.34968 285.65977 290.46797 296.47554 301.28373 304.2875 307.29133 312.0995 315.10328 320.50578 324.74134 334.09843 337.41557 342.81806 350.7057 355.5139 360.91639 365.72459 369.9601 379.31724 384.71974 391.04066 395.84886 400.0844 405.4869 409.69004 412.69383 418.0963 424.10389 429.50639 432.51014 439.166 443.42317 449.44154 454.84403 459.04719 462.05094 467.45344 470.44639 477.11305 482.51554 490.414 495.2222 500.92723 507.23735 512.04556 516.28109 519.2849 524.09317 529.79818 534.0013 537.00509 542.40756">NewDoggerlandmustdesignateaprimarybeneficiaryforeveryoperational,spatial,orexperiential</tspan></text>
<text xml:space="preserve" transform="matrix(1 0 -0 1 0 792)" font-size="10.9091" font-family="LMRoman10"><tspan y="-538.451" x="72 78.06546 83.52001 92.60729 98.061847 101.094577 107.160037">domain.</tspan></text>
<text xml:space="preserve" transform="matrix(1.0099504 0 -0 .99014756 0 792)" font-size="11.017651" font-family="LMRoman10"><tspan y="-523.28268" x="70.74011 82.06625 85.12916 89.41502 95.54084 98.603748 109.85277 120.473789 126.5996 132.10843 141.28614 146.79497 149.85787 155.98369 164.5444 172.80765 177.7105 190.77744 199.19493 204.70377 210.2126 215.72142 220.62429 224.9432 228.0061 233.51494 239.64075 250.88977 260.06748 265.2788 276.2083 281.71714 287.84297 292.1288 295.1917 304.36943 307.4323 312.33518 322.36125 327.26408 332.7729 338.8987 345.0245 348.08744 352.3733 355.43623 360.945 367.07084 376.524 382.0328 388.1586 391.22154 402.16206 405.53346 411.04228 420.4734 424.75926 430.88508 440.91114 447.03697 451.9398 456.28077 459.34367 464.85249 470.9783 476.4871 480.77299 485.6758 496.91383 503.03965 507.35859 510.42149 519.5992 525.10806 529.42697">Withinadomain,NewDoggerlandmayoptimizeconditionsonlyforthedesignatedprimary</tspan></text>
<text xml:space="preserve" transform="matrix(1 0 -0 1 0 792)" font-size="10.9091" font-family="LMRoman10"><tspan y="-504.578" x="72 78.37092 83.225467 89.290927 94.14548 97.17821 100.21094 105.06549 108.09822 113.55277 117.82914 122.672779">beneficiary.</tspan><tspan y="-484.254" x="71.444 82.658557 85.691287 89.93492 96.00038 99.03311 108.7313 117.82949 123.89495 129.3495 138.43679 143.89133 146.92406 152.98952 159.65499 167.8368 172.69136 184.20047 192.53502 197.98957 203.4441 208.89865 213.7532 218.02957 221.0623 226.51685 232.5823 242.29141 251.07324 257.1387 261.4369 269.31327 273.58964 278.44419 282.74238 289.11329 293.96784 298.8224 306.69877 312.15333 315.18605 321.8624 327.92787 333.38243 339.44789 343.0806 349.14607 353.42243 356.45515 365.54243 370.99699 375.27336 384.66609 391.037 395.89155 401.957 406.81156 409.84428 412.877 417.73158 420.76429 426.21885 430.4952 433.52793 438.38249 442.68067">Withinadomain,NewDoggerlandmustrespectallnon-primarybeneficiaries.</tspan></text>
<text xml:space="preserve" transform="matrix(1.0099504 0 -0 .99014756 0 792)" font-size="11.017651" font-family="LMRoman10"><tspan y="-468.54737" x="71.290637 79.55387 84.45672 97.03888 105.45637 110.96519 116.47402 121.98285 126.88571 131.20462 134.26753 139.77637 145.90218 156.65541 165.53565 171.66146 176.00241 184.9157 191.0415 196.55034 205.46361 210.97245 217.09825 221.38413 224.44702 233.62473 236.68764 241.5905 251.12078 256.02363 261.53245 267.65827 273.7841 276.847 281.13285 284.19578 289.7046 295.83039 304.80979 308.18119 313.69 322.63636 331.81407 337.32286 341.64179 351.17207 355.45793 361.58375 367.09257 377.8458 383.3546 389.4804 399.01069 405.434 410.33683 416.46266 421.36549 424.42839 427.4913 432.39414 435.45704 440.96586 445.2848 455.74055 463.69529 466.74717 471.03306 477.1699 480.2328 490.98603 495.2719 501.3977 510.92799 515.2689 520.7778 529.9555">NewDoggerlandmustnotoptimizeconditionsformorethanonebeneficiarywithinthesame</tspan></text>
<text xml:space="preserve" transform="matrix(1 0 -0 1 0 792)" font-size="10.9091" font-family="LMRoman10"><tspan y="-450.381" x="72 78.06546 83.52001 92.60729 98.061847 101.094577 107.160037">domain.</tspan></text>
<text xml:space="preserve" transform="matrix(.99899956 0 -0 1.0010015 0 792)" font-size="10.898185" font-family="LMRoman10"><tspan y="-429.62776" x="72.072109 80.24575 85.09544 96.60393 104.930149 110.37924 115.82833 121.27743 126.11622 130.3883 133.418 138.86708 144.92647 154.62586 163.39891 169.4583 173.75217 181.63156 187.69095 193.14005 201.01943 207.07883 211.3727 219.85147 222.88117 228.94055 234.99994 241.05934 244.08902 249.53812 254.38779 260.44718 265.29689 273.7866 279.23567 287.15864 296.2477 302.3071 307.1568 311.45066 314.48039 319.92945 325.98884 332.65855 338.1076 344.47215 349.32185 353.59394 359.04304 363.2824 366.3012 371.75028 377.82057 383.26966 386.29936 392.95817 398.40724 406.31935 411.16905 416.92326 423.28779 428.1266 432.39869 435.42839 440.27809 446.0432 450.2826 453.3123 458.76139 465.42018 470.86927 477.23377 480.56864 485.41835 490.26805 494.50743 497.5371 502.9862 511.4759 514.5056 524.1941 529.64328 535.39749">NewDoggerlandmustnotuseindulgenceasadesign,operational,orexperientialobjectiveinany</tspan></text>
<text xml:space="preserve" transform="matrix(1 0 -0 1 0 792)" font-size="10.9091" font-family="LMRoman10"><tspan y="-416.508" x="72 78.06546 83.52001 92.60729 98.061847 101.094577 107.160037">domain.</tspan><tspan y="-396.185" x="72 82.00365 88.06911 92.312747 97.767299 103.832759 106.865489 109.89822 112.93095 116.869129 122.62913 130.5164 138.69823 144.76369 149.31279 155.37825 160.8328 166.89826 172.3528 177.20735 182.6619 188.72736 191.76009">Mutability:Unchangeable</tspan></text>
<text xml:space="preserve" transform="matrix(1 0 -0 1 0 792)" font-size="14.3462" font-family="LMRoman12" font-weight="bold"><tspan y="-361.817" x="72">2</tspan></text>
<text xml:space="preserve" transform="matrix(1 0 -0 1 0 792)" font-size="14.3462" font-family="LMRoman12" font-weight="bold"><tspan y="-361.817" x="92.185108 103.920299 112.88667 119.17031 128.13669 136.2136 142.81285 147.3032 153.1421 160.32955 170.19972 182.82437 187.31473 194.67433 201.27359 209.12096 215.72022 222.43424 230.95587 238.12897 247.99915 255.84651 264.8129 279.1591 290.1913 296.79057 304.15016 311.32325 318.68284 327.6492 335.0088 343.97517 351.14826">Authority,Hierarchy,andPrecedence</tspan></text>
<text xml:space="preserve" transform="matrix(1 0 -0 1 0 792)" font-size="10.9091" font-family="LMRoman10"><tspan y="-337.46699" x="71.607 79.483379 85.548839 94.03611 99.49066 104.650669 110.10521 114.95976 119.23613 125.30159 128.33432 134.39978 143.48706 149.55252 152.58525 157.4398 161.71617 167.17072 171.44709 175.99619 181.7562 191.15985 194.19258 202.1235 205.15624 208.18897 213.94898 218.80353 228.51264 233.96718 241.8981 245.23628 250.69083 253.72356 256.7563 261.9054 269.78178 274.07997">Thegoverninghierarchyisfixedasfollows:</tspan></text>
<text xml:space="preserve" transform="matrix(1 0 -0 1 0 792)" font-size="10.9091" font-family="LMRoman10"><tspan y="-311.166" x="72 77.45455">1.</tspan></text>
<text xml:space="preserve" transform="matrix(1 0 -0 1 0 792)" font-size="10.9091" font-family="LMRoman10"><tspan y="-311.166" x="85.94183 92.76002 97.61456 103.069118 108.52367 115.189128 120.64368 126.70914 136.41825 144.44734 149.3019 154.75644 160.8219 163.85463 169.30918 173.55281 179.00736 183.28372 192.67647 200.55284 206.00739 215.09467 221.16013 224.19286 227.22559 232.68013 238.74559 243.60015 252.08744 256.0256 262.09107 266.38926 270.6329 274.90928 280.97474 290.062 294.91658 300.68748 304.93113">LegalandRegulatoryComplianceInstruments</tspan></text>
<text xml:space="preserve" transform="matrix(1 0 -0 1 0 792)" font-size="10.9091" font-family="LMRoman10"><tspan y="-288.849" x="72 77.45455">2.</tspan></text>
<text xml:space="preserve" transform="matrix(1 0 -0 1 0 792)" font-size="10.9091" font-family="LMRoman10"><tspan y="-288.849" x="85.5491 93.425479 99.49094 102.52367 110.45458 118.330959 123.78551 129.85097 134.14916 139.6037 142.63643 145.66916 151.73462 157.18917 161.4328 166.28736 175.99646 184.5601 189.7092 195.16376 200.01831 204.29468 210.36014 215.81468 221.88014 226.7347 235.22199 243.55654 249.31653 254.17108 260.23655 269.32383 274.17839 279.9384">ThisConsolidatedGovernanceDocument</tspan></text>
<text xml:space="preserve" transform="matrix(1 0 -0 1 0 792)" font-size="10.9091" font-family="LMRoman10"><tspan y="-266.533" x="72 77.45455">3.</tspan></text>
<text xml:space="preserve" transform="matrix(1 0 -0 1 0 792)" font-size="10.9091" font-family="LMRoman10"><tspan y="-266.533" x="85.94183 94.429119 100.80003 105.65459 109.930957 115.385509 119.62914 122.66187 128.11643 134.18189 139.63643 146.3019 156.30554 161.76009 167.5201 173.58556 179.0401 182.07283">OperationalManuals</tspan></text>
<text xml:space="preserve" transform="matrix(1 0 -0 1 0 792)" font-size="10.9091" font-family="LMRoman10"><tspan y="-244.217" x="72 77.45455">4.</tspan></text>
<text xml:space="preserve" transform="matrix(1 0 -0 1 0 792)" font-size="10.9091" font-family="LMRoman10"><tspan y="-244.217" x="85.94183 93.065479 98.52003 101.55276 104.58549 109.44003 112.47276 117.32732 125.25823 130.71279 136.78916 146.48735 153.91645 158.19281 163.9528 168.80736 173.66191 179.72737 185.79283 190.0692 194.92375">PoliciesandProcedures</tspan></text>
<text xml:space="preserve" transform="matrix(1.007472 0 -0 .99258336 0 792)" font-size="10.990613" font-family="LMRoman10"><tspan y="-219.54329" x="71.46601 75.433628 85.14933 90.64464 96.45867 105.86664 110.75746 116.25277 122.36355 125.41894 128.47434 131.52973 136.42055 140.6959 147.3562 153.467 156.52239 162.01769 168.12847 173.01929 177.32762 180.9875 186.4828 190.79113 196.90192 201.79274 209.70598 215.81676 221.61981 226.51064 232.62142 241.7766 246.66742 252.47048 256.74583 264.69206 269.5829 275.07823 280.88127 285.1566 289.4649 294.96025 298.0156 305.8849 312.75404 317.64485 323.14018 328.63548 335.2958 340.7911 346.9019 356.61759 360.9259 365.81675 371.31205 377.42283 380.4782 385.97355 390.24888 395.74418 400.05253 409.46049 413.7688 418.65965 424.46269 430.57347 433.62886 437.93717 442.82798 451.9832 456.874 462.68806 466.96339 474.89863 479.78947 485.28477 491.09883 495.37416 499.68247 505.1778 511.8381 514.8935 524.6092 530.1045 533.1599">Inanyconflict,higher-orderdocumentscontrol.Legalandregulatoryrequirementscontrolinall</tspan></text>
<text xml:space="preserve" transform="matrix(1 0 -0 1 0 792)" font-size="10.9091" font-family="LMRoman10"><tspan y="-204.366" x="72 76.85455 82.309108 86.60729 91.46184 95.760028 102.42548 106.70185 111.5564 117.01095 122.4655 126.74187 132.80733 135.84006 140.69461 144.9928 152.93463 158.38918 165.36009 170.81464 176.57465 185.9783 189.01103 194.77104 199.01468 203.86923 208.1456 214.21106 219.6656 226.33107 232.39653 236.6729 241.82199 247.582 250.61473 254.91292 257.94566 263.4002 269.46568">cases,regardlessofanyinternalprovision.</tspan></text>
<text xml:space="preserve" transform="matrix(.995992 0 -0 1.0040242 0 792)" font-size="10.8653759" font-family="LMRoman10"><tspan y="-183.30437" x="72.28974 78.33089 84.37204 90.717418 96.1501 100.40933 106.450489 109.471057 115.51221 120.94489 125.171527 128.19211 133.62479 143.30583 151.15064 154.1712 158.39783 164.43898 167.45957 177.1406 181.36724 187.40837 190.42896 198.33895 204.38008 207.40067 212.23577 216.495 221.92769 226.1869 230.71779 236.4547 245.83152 251.2642 256.39268 261.82539 266.66047 270.91969 276.96086 284.88169 290.31437 296.35554 300.58216 306.6233 312.056 316.31523 319.3358 323.25819 328.08244 334.73204 340.77317 346.20588 354.0724 357.09297 362.82987 367.0565 371.89158 376.15083 382.19197 386.45118 391.28627 395.5129 400.9456 405.1722 408.19279 413.62547 419.66664 427.55488 438.7245 444.76564 449.6007 453.85997 462.32408 468.36524 477.4378 483.47898 486.4995 490.75877 495.59385 500.42893 508.28459 513.1197 518.55239 524.5935 527.6141 530.6346 533.6552 538.4903">Subordinationwithinthishierarchygovernsauthority,notinterpretation.Wherenodirectconflict</tspan></text>
<text xml:space="preserve" transform="matrix(.99095919 0 -0 1.0091233 0 792)" font-size="10.810472" font-family="LMRoman10"><tspan y="-168.9516" x="72.656879 77.46754 83.17547 86.18078 90.44011 94.64538 98.9047 105.58558 110.990818 116.698749 122.40668 128.4173 132.01718 135.32518 140.73043 143.73574 147.941 157.62718 160.63249 166.34043 170.54569 175.35636 179.59406 185.60468 189.84238 194.65303 198.8583 204.26354 208.46881 211.47412 216.87935 226.56554 231.97078 239.8408 244.04607 250.0567 258.5429 261.54826 266.65077 274.14244 278.9531 283.21244 291.09327 295.90397 301.30918 310.3143 316.6276 321.43827 325.64356 330.45423 336.16215 344.043 347.0483 351.85899 357.2534 362.0641 368.74497 371.75028 379.68519 385.99848 390.80915 395.04689 404.052 407.0573 411.2626 415.46788 420.27857 429.96473 435.36994 441.38056 444.38587 453.76936 457.07737 462.4826 470.38508 475.79029 480.60096 484.80625 487.81156 493.2168 499.2274 507.1623 511.36759 517.37826 522.78347 530.6643 536.0695 540.30728">exists,good-faithinterpretationatthelowestcompetentlevelispermittedonlyforactionsthatare</tspan></text>
<text xml:space="preserve" transform="matrix(.9899495 0 -0 1.0101526 0 792)" font-size="10.799458" font-family="LMRoman10"><tspan y="-155.36663" x="72.73098 78.73548 84.13521 91.943218 101.84632 107.24605 111.44704 116.2528 120.48619 123.48844 128.88817 135.50823 143.29463 148.10039 152.30139 155.30364 160.70337 166.70787 170.96285 177.59372 183.59822 187.8316 192.91814 198.62026 201.62252 207.62702 212.43277 222.05509 226.31006 232.31456 236.80713 246.42945 249.4317 255.123 259.324 264.12974 268.36314 274.3676 278.60099 283.40675 287.6077 293.00746 297.2084 300.21067 305.61039 315.2327 321.2372 326.93934 331.74507 339.6071 345.61158 351.0113 358.83009 363.63584 367.8692 372.67497 378.07469 382.27568 390.68843 396.69294 401.49867 412.9029 418.30265 424.30714 428.50813 434.5126 439.91233 444.14573 447.14796 451.04655 460.35569 465.7554 473.5958 478.99555 485.00004 488.0023 491.00456 496.40428 501.804 506.00498 509.0072 514.4069 520.41146 528.2843 533.684 539.6885">notMaterialActions,providedsuchinterpretationdoesnotcreatenewauthorityorobligationsand</tspan></text>
<text xml:space="preserve" transform="matrix(1 0 -0 1 0 792)" font-size="10.9091" font-family="LMRoman10"><tspan y="-143.395" x="72 75.03273 82.963649 87.24001 92.09456 96.94911 102.40366 106.68003 112.74549 117.60004 127.309139 132.76369 140.69461 146.14916 155.84735 158.88008 164.651 168.89464 173.74919 178.01465 184.09102 188.36739 193.21103 197.45467 202.90921 207.15285 210.18558 215.64012 225.34923 231.41469 236.86923 241.11287 249.60016 257.47654 263.542 268.39656 278.10566 281.13838 289.01475 294.4693 297.6493 300.8293 305.68388 310.53843 314.78208 322.71299 328.77845 333.0548 338.81483 343.66938 348.52394 354.5894 360.65486 364.9312 369.78578">isrecordedasaninterpretationnotewhenitaffectsprocedure.</tspan></text>
<text xml:space="preserve" transform="matrix(1.0024968 0 -0 .9975093 0 792)" font-size="10.936338" font-family="LMRoman10"><tspan y="-123.3783" x="71.82068 75.7687 81.54308 85.79732 90.66399 94.951038 101.03164 105.31869 110.18536 114.43959 119.90776 124.161998 127.2023 132.67047 142.38193 148.46254 153.93071 158.18495 163.05164 170.99141 176.45958 180.74662 189.24414 195.32476 200.79293 206.88446 210.52628 216.60689 219.64719 225.72779 231.8084 234.84871 240.9293 250.02834 255.4965 261.57713 271.28858 277.3692 286.46824 292.54884 298.017 305.9021 310.76875 315.05583 319.9225 325.39064 329.64488 338.1424 344.223 348.51008 353.3767 358.24339 363.11006 369.19068 374.0573 379.83174 384.08598 390.7571 396.22529 402.30589 406.56013 412.65168 418.1198 422.39598 425.43626 429.3952 434.2619 440.93305 446.4012 454.31913 459.78727 465.8679 468.90818 471.94847 477.41664 482.8848 487.13905 490.17933 495.6475 501.7281 506.03703 513.9221 517.8701 523.65548 527.90969 532.7763 537.06338">Interpretationnotesarenon-bindinganddonotcreateprecedent,authority,orobligations.Inter-</tspan></text>
<text xml:space="preserve" transform="matrix(.9929753 0 -0 1.0070744 0 792)" font-size="10.832467" font-family="LMRoman10"><tspan y="-108.752658" x="72.50936 78.53222 82.77854 87.59899 91.81282 97.22906 101.44289 104.45431 109.87055 119.543949 125.5668 130.98303 135.19687 140.01734 147.93585 156.65599 162.67884 166.94683 174.8112 180.83406 186.25029 194.11467 200.44083 208.91182 213.73227 216.7437 220.95754 225.77799 235.45137 240.86762 248.78614 251.79756 257.8204 263.84327 268.6637 274.98985 279.8103 285.83314 291.856 296.67643 302.39598 310.26036 315.67658 321.6994 325.91325 331.9361 337.3523 341.59864 344.61006 348.52058 357.89067 360.89128 370.56468 375.98088 381.7004 391.0705 399.04319 403.86366 408.68409 414.1003 418.34663 424.36949 429.1899 438.8633 447.1393 451.95979 456.7802 459.79164 464.05964 467.07106 472.48728 482.16069 489.23429 494.6505 498.86436 504.58387 512.1016 517.2037 526.5737 531.99 538.0128">pretationnotesmustnotbecitedasindependentauthorityinanyRecordedDecisionPathwayand</tspan></text>
<text xml:space="preserve" transform="matrix(.9969955 0 -0 1.0030136 0 792)" font-size="10.876323" font-family="LMRoman10"><tspan y="-95.68464" x="72.21697 80.97242 87.01965 91.30493 99.17939 105.22662 110.66479 118.53924 124.891017 133.37453 137.60543 141.86894 146.70891 152.14708 156.37798 161.21794 170.89788 176.33603 184.26488 190.61664 196.05481 199.07842 202.10204 206.942 216.32826 222.37549 228.42273 231.44635 236.2863 240.57158 248.50041 251.82859 257.26676 261.53028 270.5902 276.02839 279.052 282.0756 291.46186 296.90003 302.94725 308.38539 314.43263 318.66349 323.50346 333.19425 337.4251 343.47236 347.73585 353.174 359.22123 364.6594 374.3502 378.58106 384.62828 393.11183 398.54997 404.59718 410.6444 413.668 416.69163 421.5316 426.96974 433.01695 436.04057 444.51319 449.95133 455.08497 460.53398 465.36308 469.62657 475.6738 481.11195 487.17005 491.9991 500.48265 505.9208 513.8279 520.1797 525.6178 528.6414 531.66506 536.505">mustnotbetreatedaspolicyunlessformallyadoptedthroughtheapplicablegovernanceorpolicy</tspan></text>
<text xml:space="preserve" transform="matrix(1 0 -0 1 0 792)" font-size="10.9091" font-family="LMRoman10"><tspan y="-82.423" x="72 78.06546 82.34183 88.10184 92.95639 97.81094 102.10913 106.40732">process.</tspan></text>
<text xml:space="preserve" transform="matrix(1 0 -0 1 0 792)" font-size="10.9091" font-family="LMRoman10"><tspan y="-42.111997" x="303.273">5</tspan></text>
</svg>
