<svg xmlns="http://www.w3.org/2000/svg" xmlns:xlink="http://www.w3.org/1999/xlink" xmlns:inkscape="http://www.inkscape.org/namespaces/inkscape" version="1.1" width="612" height="792" viewBox="0 0 612 792">
<text xml:space="preserve" transform="matrix(1.0079683 0 -0 .99209478 0 792)" font-size="10.996026" font-family="LMRoman10"><tspan y="-714.6908" x="71.43082 76.32404 82.140949 87.946849 91.00374 95.31418 100.812198 106.92598 116.08567 120.9789 126.7848 134.67993 140.17795 143.38329 146.58863 151.47087 155.78131 160.67453 170.40602 175.29924 180.79726 189.95696 193.32175 198.81975 203.1302 211.01435 216.51236 222.62615 232.34664 237.84465 243.95844 248.2359 253.73392 259.84773 265.3457 274.2085 283.62113 287.89857 292.23097 297.1242 300.18113 303.5459 307.20759 312.1008 317.59883 323.4157 327.69316 333.19114 336.24806 342.36186 347.25508 356.97557 360.03248 365.83836 371.95216 377.45014 380.50706 386.62086 392.11885 398.78245 406.42469 411.92268 416.23313 425.0849 429.36235 435.47615 442.15074 449.78199 455.27998 459.5574 464.45066 468.76109 475.42469 480.9227 487.03648 496.76795 505.87266 510.20509 514.4825 518.79299 524.29098 530.4048">environmentofferedcomfortandautonomy(self-containedlodging,warmth,water,andastrong</tspan></text>
<text xml:space="preserve" transform="matrix(1.0099504 0 -0 .99014756 0 792)" font-size="11.017651" font-family="LMRoman10"><tspan y="-702.41256" x="71.290637 75.631587 80.53444 86.66025 91.001209 100.70775 106.216579 114.38065 119.58098 124.48383 130.0037 134.90654 139.22547 145.04277 149.32865 155.45446 158.51737 164.64318 174.9557 178.01862 187.15224 193.27806 198.78688 204.9127 211.04953 214.11243 219.00428 225.14112 230.34143 239.41997 245.54579 251.05461 254.11753 258.43647 263.3393 274.26884 282.22358 285.28648 289.57237 300.49085 305.39369 308.45658 313.35945 318.86827 327.99089 333.4997 339.62553 350.55503 355.45787 361.58369 364.95509 370.4639 374.7828 379.68568 384.5885 390.09733 396.22315 399.28605 408.98158 413.8844 419.39323 425.51905 429.86 434.14588 438.4648 443.97364 447.03654 452.86488 457.15074 466.29539 470.58128 475.4841 481.30146 487.42726 490.49018 493.55308 498.4559 501.51884 510.5974 514.9163 521.0421 524.10507 529.0079 533.3489">senseof&#x201c;everythingishandled&#x201d;)pairedwithclearandenforceableconstraints(explicitrules,</tspan></text>
<text xml:space="preserve" transform="matrix(1 0 -0 1 0 792)" font-size="10.9091" font-family="LMRoman10"><tspan y="-681.943" x="72 76.29819 81.75274 85.09093 89.94548 93.57821 99.03276 105.09822 111.16368 115.44005 120.58914 126.054599 130.90915 140.60735 143.64008 149.70554 155.771 161.83646 166.0801 170.37828 177.04375 182.49829 188.56375 198.27286 204.33832 209.19287 212.53105 217.9856 224.05106 227.08379 231.32743 239.25835 243.50199 249.56745 255.02199 262.90928 267.18565 272.0402 278.10566 284.1711 289.02568 293.88023 303.5784 307.85478 310.88749 315.18568 324.5784 330.03297 336.09843 345.80754 351.873 356.14936 361.0039 366.45848 371.31303 377.07304 381.31669 386.17124 395.86943 404.9567 407.9894 412.2876 418.36396 422.66215 427.5167 431.76036">safe-approvedinputs,anddefaultsthatreducedriskandpreventedmisuse).</tspan></text>
<text xml:space="preserve" transform="matrix(1.0099504 0 -0 .99014756 0 792)" font-size="11.017651" font-family="LMRoman10"><tspan y="-668.20248" x="70.901508 78.85625 84.98206 93.74109 98.060009 102.96286 107.30382 113.42963 116.49253 124.6456 132.29184 137.80068 146.00882 152.13465 157.64347 165.7855 168.84842 174.97423 181.10004 187.22585 190.28876 195.79759 200.70046 206.82627 211.72913 220.49918 223.87058 229.37941 237.5545 240.6174 244.90328 253.1004 258.31175 266.2665 276.2595 280.60047 286.10929 291.61814 296.52098 303.51719 309.643 315.7688 323.9109 333.27589 339.4017 342.4646 347.97343 354.0992 357.16215 361.1505 366.96788 370.63673 376.76255 381.08149 385.9843 390.3253 395.22813 399.54707 405.36439 408.4273 414.5531 423.9291 428.27009 432.55595 438.06477 442.35066 447.25349 455.6269 458.9983 463.3172 468.22007 473.1229 479.24873 484.75755 497.8024 505.75718 508.8201 513.10598 519.23178 524.7406 530.8664">Theresultwasnotindulgenceforitsownsake,butadignity-preservingstate:freedomwithout</tspan></text>
<text xml:space="preserve" transform="matrix(.99899956 0 -0 1.0010015 0 792)" font-size="10.898185" font-family="LMRoman10"><tspan y="-647.42166" x="72.072109 76.616649 82.67604 88.12513 93.57423 97.86811 104.5487 109.99779 116.05718 125.76746 130.03955 134.88924 139.18314 147.07341 154.9419 157.97159 162.21099 168.27037 173.71945 179.77886 187.66913 193.42337 196.45307 201.90215 204.93184 207.96152 213.41062 219.47 224.31969 229.16938 237.07056 244.93904 251.00934 259.499 265.71098 271.16007 277.21943 283.2788 289.3382 294.1879 302.11088 305.1406 310.8948 315.1342 319.9839 326.04328 332.10267 340.04743 344.2868 353.38679 357.65888 362.50859 367.34739 371.61949 376.46919 381.91828 386.15766 394.65824 398.8976 404.957 410.4061 418.29637 421.63124 426.48094 431.33064 434.36033 437.39 443.4494 452.54939 455.5791 465.28938 474.37846 479.22816 484.67723 490.44236 494.68174 499.53144 508.60963 514.96328 520.41238 524.6845 530.1336 534.4057 539.2554">chaos,andrestwithoutvigilance.TheFounderintendstorecreatethatfeelinginacontemporary,</tspan></text>
<text xml:space="preserve" transform="matrix(1 0 -0 1 0 792)" font-size="10.9091" font-family="LMRoman10"><tspan y="-634.521" x="71.607 79.17792 84.03247 87.0652 90.40339 95.85794 100.13431 104.98886 108.62159 111.65432 114.68705 118.96342 123.261608 131.14888 136.00344 141.45798 147.21799 151.46163 156.31618 162.07619 166.31983">welfare-firstcontext.</tspan></text>
<text xml:space="preserve" transform="matrix(1 0 -0 1 0 792)" font-size="11.9552" font-family="LMRoman12" font-weight="bold"><tspan y="-605.311" x="72 78.73078 82.47276">3.2</tspan></text>
<text xml:space="preserve" transform="matrix(1 0 -0 1 0 792)" font-size="11.9552" font-family="LMRoman12" font-weight="bold"><tspan y="-605.311" x="99.29373 106.62227 112.12166 118.25468 124.387699 131.8597 138.59047 149.80445 154.28765 161.38904 168.49044 172.97364 180.44564 186.57865 191.88675 195.62873 202.3595 209.8315 218.05667 225.52867 232.25945 241.97902 249.08042 252.82239 259.55317 263.29515 267.0371 273.5766 281.04859 287.02619 293.1592 297.64244 304.74385 311.8452 316.32844 327.54243 334.2732 341.74519 345.48716 350.72355 357.4543 362.9537 366.69569 374.16767">Freedom-by-design,notvigilance-by-monitoring</tspan></text>
<text xml:space="preserve" transform="matrix(.9899495 0 -0 1.0101526 0 792)" font-size="10.799458" font-family="LMRoman10"><tspan y="-578.8422" x="72.322879 83.727108 88.53287 93.932598 98.165988 106.26558 111.665309 115.92029 121.92479 124.92704 129.16043 134.56015 138.76114 141.7634 147.16312 156.47226 159.4745 167.03412 171.2351 179.92868 188.92462 194.32436 199.72408 207.83448 210.83673 218.33155 224.64923 230.04897 234.30396 238.55893 241.56119 247.56569 250.56793 258.66755 264.06727 269.46699 274.8667 277.86897 287.1781 290.48274 295.88249 303.42048 312.11405 316.6174 322.62193 325.62419 328.6264 337.93556 342.13655 350.8301 355.08509 360.18244 369.18919 374.5889 377.89356 382.0945 386.90028 394.4275 397.42973 403.43424 409.43873 413.94209 419.9466 426.32908 431.42643 435.32505 438.32728 450.6171 456.0168 461.41654 464.4188 470.4233 479.12767 483.32865 492.033 496.23399 502.23847 510.33808 515.7378 520.5436 524.74459 527.74679 533.44888 536.45108 540.3497">Acoreaspirationistomakeitpossibleagainforachildtosayafterlunch,&#x201c;I&#x2019;mgoingtotheactivity</tspan></text>
<text xml:space="preserve" transform="matrix(.99849888 0 -0 1.0015034 0 792)" font-size="10.892724" font-family="LMRoman10"><tspan y="-570.31167" x="72.108249 77.55461 81.824558 86.67182 92.11819 95.14636 103.91501 109.361377 115.417728 125.11225 128.44542 133.89179 141.789 150.87352 156.92987 162.37624 166.64618 171.49344 177.2448 185.10935 189.34662 198.43114 204.78159 213.26702 218.71338 224.76973 227.79792 236.27243 240.5097 249.58335 253.87508 259.0273 268.40596 273.5473 278.99366 284.74504 289.88639 295.63777 304.40638 312.27095 315.2991 319.53639 325.5927 331.03907 337.10633 344.97087 349.26258 355.31895 358.3471 362.61708 368.06343 371.09159 374.11976 380.1761 389.24974 392.2779 398.02928 402.2665 411.35105 417.10243 420.13059 425.57695 428.6051 431.63328 437.07963 443.136 447.98326 452.8305 460.70597 468.57054 474.6269 483.10145 486.1296 491.89186 496.1291 500.97639 506.72776 514.5923 517.6204 525.5503 531.6066 537.053">area,&#x201d;andforaparenttobeabletosay&#x201c;okay&#x201d;withoutspiralingintovigilance.Theintentisnot</tspan></text>
<text xml:space="preserve" transform="matrix(1 0 -0 1 0 792)" font-size="10.9091" font-family="LMRoman10"><tspan y="-557.62" x="72 76.24364 85.33092 90.78547 96.85093 102.30548 106.58185 112.0364 117.80731 122.05095 126.9055 135.39279 140.84734 146.9128 151.15644 156.01099 161.46553 170.55281 175.40737 179.70555 186.37102 192.43648 198.50194 206.38922 210.63286 219.72014 225.7856 230.64015 234.93834 237.97107 243.42562 253.12381 257.97837 263.43293 269.49839 275.56385 278.59657 282.8402 285.87294 291.32749 297.39295 305.33479 309.57844 315.6439 321.09846 328.97483 338.0621 343.51667 348.97123 357.46943 361.7676 366.62217 370.89854 373.93125 379.3858 385.45127 393.38218 399.44764 404.9022 409.17857 421.89857 427.96403 434.02949 437.0622 440.0949 445.56037 450.41493 453.44764 462.84037 467.084 473.14949 477.42585 482.8804 488.94587 494.40043 500.46589">toguaranteeoutcomes,buttodesignconditionsthatmakeseriousharmunlikelythrough:</tspan></text>
<text xml:space="preserve" transform="matrix(1 0 -0 1 0 792)" font-size="10.9091" font-family="LMRoman10"><tspan y="-531.319" x="72">&#x2022;</tspan></text>
<text xml:space="preserve" transform="matrix(1 0 -0 1 0 792)" font-size="10.9091" font-family="LMRoman10"><tspan y="-531.319" x="85.94183 92.31275 97.7673 103.83276 109.898227 115.963687 120.81824 130.51644 135.97098 140.82553 146.28008 151.73462 156.01099 161.46553 167.53099 173.30191 182.69466 188.1492 194.21466 203.91286 208.76741 214.22196 219.99288 224.23651 228.50197 233.95652 236.98925 240.02198 244.87653 254.58563 260.0402 264.89476 269.7493 274.60386 278.90205 286.83296 293.20387 298.65843 301.69114 307.45115 311.6948 315.99299">boundedgeographyandcontrolledaccesspoints,</tspan></text>
<text xml:space="preserve" transform="matrix(1 0 -0 1 0 792)" font-size="10.9091" font-family="LMRoman10"><tspan y="-509.00199" x="72">&#x2022;</tspan></text>
<text xml:space="preserve" transform="matrix(1 0 -0 1 0 792)" font-size="10.9091" font-family="LMRoman10"><tspan y="-509.00199" x="85.94183 90.79639 93.82912 98.68367 104.13822 112.04732 116.323688 122.389148 125.421878 130.27643 138.21826 143.6728 149.73827 159.43647 165.19647 171.26194 180.34922 185.80376 191.86922 200.36742 206.43288 211.28743 214.62561 220.08016 226.14562 229.17835 233.42198 237.72017">clearrulesandhumanedefaults,</tspan></text>
<text xml:space="preserve" transform="matrix(1 0 -0 1 0 792)" font-size="10.9091" font-family="LMRoman10"><tspan y="-486.68598" x="72">&#x2022;</tspan></text>
<text xml:space="preserve" transform="matrix(1 0 -0 1 0 792)" font-size="10.9091" font-family="LMRoman10"><tspan y="-486.68598" x="85.94183 90.79639 96.25094 105.33822 111.70914 116.56369 120.80733 125.66188 131.42189 139.29827 143.59645 147.84009 153.29463 156.32373 159.35283 162.38191 168.44738 177.54557 183.0001 189.06557 198.76377 204.52378 207.5565 211.85469 214.88742 220.95288 223.98561 232.4729 238.53836 243.39292 246.42565 252.4911">competentstaffingandvisiblehelp,</tspan></text>
<text xml:space="preserve" transform="matrix(1 0 -0 1 0 792)" font-size="10.9091" font-family="LMRoman10"><tspan y="-464.36997" x="72">&#x2022;</tspan></text>
<text xml:space="preserve" transform="matrix(1 0 -0 1 0 792)" font-size="10.9091" font-family="LMRoman10"><tspan y="-464.36997" x="85.94183 92.00729 96.28366 101.138217 107.203678 110.236408 115.09096 119.334598 124.78915 130.8546 133.88733 142.37462 148.44008 152.71645 158.47644 163.331 168.18555 174.251 180.31647 184.59284 189.44739 197.37831 200.71649 206.17104 214.09105 218.36742 223.22197 229.28743 235.35289 238.38562 241.41835 244.45108 249.30564 254.76018 259.0038 262.03654 267.4911 277.18928 282.64384 288.7093 298.40748 303.26203 307.5602 312.41477 317.86933 320.90205 326.3566 330.60026 333.63298 339.08753 345.15299">predictableproceduresforreunificationandescalation,</tspan></text>
<text xml:space="preserve" transform="matrix(1 0 -0 1 0 792)" font-size="10.9091" font-family="LMRoman10"><tspan y="-442.05299" x="72">&#x2022;</tspan></text>
<text xml:space="preserve" transform="matrix(1 0 -0 1 0 792)" font-size="10.9091" font-family="LMRoman10"><tspan y="-442.05299" x="85.94183 91.396389 97.461849 107.160037 112.01459 117.7855 123.5455 126.57823 130.8546 136.30915 142.3746 151.46189 156.31644 162.07645 166.32009 174.251 180.31647 185.17102 189.46921 192.50194 197.95648 204.02194 208.8765 218.5856 222.82924 231.91652 236.19289 241.04744 247.1129 253.17836 258.0329 266.52018 269.85838 275.31294 279.5893 284.44386 288.74205 293.5966 298.45115 303.9057 309.97117 313.00389 321.49116 327.5566 333.01118 337.86573 343.32029 347.59666 353.6621 357.9712">andenvironmentsdesignedtoreduceforeseeablehazards.</tspan></text>
<text xml:space="preserve" transform="matrix(.9899495 0 -0 1.0101526 0 792)" font-size="10.799458" font-family="LMRoman10"><tspan y="-411.57347" x="72.169338 83.27118 89.27567 94.081439 98.31483 105.79885 110.03224 114.838 120.23773 124.492717 128.7477 134.75218 138.98558 144.3853 150.3898 155.19557 162.6796 166.88059 171.68636 176.17893 182.18343 188.18793 193.58765 196.5899 201.98963 207.38936 210.3916 215.19738 222.13063 227.53035 231.76375 239.24777 245.25228 249.50727 254.31302 262.99577 267.19676 272.00248 275.00474 280.40446 283.4067 289.28163 294.68135 300.68586 304.8868 308.48304 311.4853 320.16807 328.11647 335.16853 339.06715 349.99617 357.79338 362.02674 365.029 369.28398 373.48497 379.48945 384.88917 390.89369 396.89817 401.15318 405.35414 411.22904 415.43 421.4345 426.24028 434.62065 440.02037 444.25373 451.73774 454.74 460.44209 464.64308 469.44883 475.4533 481.45783 486.26356 494.94633 500.34605 507.2685 512.6682 518.68356 522.88449 525.8867 531.28646 537.29098 542.6907">Wherereassurancetechnologiesareused(e.g.,opt-inRFIDwristbands),theyareintendedasoptional</tspan></text>
<text xml:space="preserve" transform="matrix(1.0099504 0 -0 .99014756 0 792)" font-size="11.017651" font-family="LMRoman10"><tspan y="-406.20515" x="71.290637 75.631587 81.7574 87.88321 94.3065 99.81533 104.13425 108.42012 116.95879 120.33019 125.83903 134.35567 137.72707 143.2359 152.4136 155.4765 158.53942 161.60233 166.50519 175.04386 182.99861 189.12442 198.83098 206.48825 211.99709 217.82543 226.309 230.59487 236.72068 241.62354 250.80124 258.2051 264.33094 269.83976 278.32337 283.83216 292.37086 296.71183 300.99769 305.31663 311.44245 316.34529 320.63117 326.757 331.0759 336.58473 343.84538 349.97117 354.2901 359.19297 363.51188 368.41474 374.23207 380.35789 383.42079 387.76176 390.82466 395.11054 400.01338 408.55207 411.92347 417.43226 425.94895 430.2899 435.7987 439.1701 444.07295 448.05033 458.0654 463.57423 472.09089 481.79743 490.97514 495.87797 500.4833 506.60914 512.118 518.2438 521.3067 525.64767">supportsforfamilieswhowantthem,notasstructuralprerequisitesforsafetyoramechanism</tspan><tspan y="-392.5213" x="71.290637 76.79946 84.1262 89.02905 94.53787 100.36621 104.65208 108.959987 114.46881 117.531719 126.45602 134.71926 139.62212 151.53221 159.94969 165.45853 170.96736 176.47618 181.37905 185.69797 188.76087 194.2697 200.39551 210.46566 213.52855 221.82485 224.88776 230.7161 235.00196 239.90482 246.03063 252.15645 257.0593 267.14045 271.4263 280.87947 287.31376 296.16093 300.5019 306.0107 309.3821 318.24028 323.14314 329.26893 334.77775 340.90357 346.41239 356.49354 360.7794 366.9052 372.41404 380.65525 383.71815 391.94837 399.60563 405.11445 411.24024 414.30317 424.3843 430.5101 436.01893 444.26014 448.57908 453.4819 456.54484 466.3065 471.8153 481.89646 486.1823 490.50126 496.01008 500.61543 506.43275 509.4957 515.6215 525.0857 529.3715">ofcontrol.NewDoggerlandisintendedtobesafeenoughthatitwouldnotrelyontrackingto</tspan></text>
<text xml:space="preserve" transform="matrix(.9939819 0 -0 1.0060546 0 792)" font-size="10.843447" font-family="LMRoman10"><tspan y="-372.84754" x="72.43593 75.75402 81.78298 87.811939 92.63727 96.85538 99.86986 105.29157 114.98562 119.257938 124.67966 127.99775 132.82309 135.83756 140.65206 148.55693 156.68953 162.41487 171.8053 177.22704 183.25598 187.47409 190.48857 195.9103 201.93926 207.36098 214.02971 218.2478 222.49845 227.92017 232.44188 238.16722 241.1817 247.21067 256.2975 259.31196 267.2494 270.26387 275.9892 280.2073 285.03266 291.0616 297.09056 301.9159 311.60997 315.82804 324.91487 331.24745 339.72703 345.7668 351.79579 356.04643 362.37898 367.80073 372.07304 376.89839 380.50926 383.5237 386.5382 395.5708 398.58528 402.80339 407.62873 417.31193 421.53004 430.61686 434.88917 440.3109 443.629 448.4543 452.3688 461.75926 467.18098 473.20994 482.904 487.1546 491.97996 498.0089 504.03788 507.05235 510.0668 513.0813 517.9066 523.3283 527.5464 530.56088 535.9826 542.01156">functionsafely.Anyoptionaltrackingisintendedtobepurpose-limitedtosafetyandreunification,</tspan></text>
<text xml:space="preserve" transform="matrix(1 0 -0 1 0 792)" font-size="10.9091" font-family="LMRoman10"><tspan y="-361.555" x="72 78.06546 81.09819 86.55274 92.6182 95.65093 99.58911 105.34911 108.98184 115.0473 119.32367 124.17822 128.47641 133.33097 137.60733 143.36734 146.40007 152.46553 157.92008 164.59645 170.051 176.11646 185.81465 191.88011 196.15648 201.61103 205.85466 210.70922 215.56377 219.8074 224.66196 234.36016 239.8147 245.26924 250.72379 253.75652 259.82197 264.12016 272.00746 281.09474 284.12745 288.42564 294.4911 298.78929 303.64384">dignity-preserving,andprotectedagainstmisuse.</tspan></text>
<text xml:space="preserve" transform="matrix(1 0 -0 1 0 792)" font-size="11.9552" font-family="LMRoman12" font-weight="bold"><tspan y="-332.346" x="72 78.73078 82.47276">3.3</tspan></text>
<text xml:space="preserve" transform="matrix(1 0 -0 1 0 792)" font-size="11.9552" font-family="LMRoman12" font-weight="bold"><tspan y="-332.346" x="99.29373 109.59911 116.329898 123.06068 127.54388 133.6769 140.77829 148.25029 151.99227 158.34049 164.87998 168.62195 174.75496 181.85636 191.57593 198.11542 205.58742 210.82379 217.55457 225.02657 231.75734 242.60071 254.1853 260.7248 268.19679 280.15199 285.46009 291.99958 296.11216 302.24519 307.11097">Dog-equivalentautonomyandsafety</tspan></text>
<text xml:space="preserve" transform="matrix(1.0009996 0 -0 .9990015 0 792)" font-size="10.920003" font-family="LMRoman10"><tspan y="-312.06459" x="71.53549 79.41973 85.49126 88.527019 96.46586 100.76833 106.22834 115.3247 123.820468 126.856227 132.31623 137.77622 140.81197 149.30774 152.34349 160.29325 163.31809 169.09476 173.34264 178.20204 184.27356 190.34508 195.20449 204.91237 209.16025 218.2566 223.7166 229.78812 235.85965 238.8954 248.29753 252.54541 261.64176 267.71327 273.17326 278.63325 282.94667 290.8309 296.9024 302.3624 307.8224 315.76124 320.06373 326.13523 331.5952 337.66676 340.70249 350.41035 355.26976 361.0355 367.41276 372.27217 376.5528 379.58854 384.44795 390.51945 395.37886 403.8746 409.3346 414.7946 419.654 425.7255 430.5849 439.987 447.87126 450.90699 455.15489 461.22639 464.26216 473.97 478.2725 483.73249 487.074 491.9334 495.88645 501.6522 512.5722 516.8747 522.94619 528.4062 533.26559 538.125">Thissamelogicisintendedtoapplytodogs:dogsshouldexperienceagencywithinsafety&#x2014;space,</tspan></text>
<text xml:space="preserve" transform="matrix(1.0099504 0 -0 .99014756 0 792)" font-size="11.017651" font-family="LMRoman10"><tspan y="-301.1713" x="71.290637 76.19348 82.3193 86.638217 89.70112 94.306499 100.432308 109.610019 114.51286 120.330188 124.61606 132.61487 137.51773 143.02655 146.08946 155.26717 163.26598 168.77481 174.90062 185.68689 190.02785 194.3137 198.63263 204.75844 209.6613 213.94716 220.07299 224.39189 229.29476 240.09206 244.99492 250.80121 255.70406 261.5214 264.5843 268.92527 273.21113 278.11399 284.23979 289.14265 294.04548 305.06315 313.01789 316.0808 320.36668 326.4925 332.0013 338.1271 347.07347 353.49678 358.3996 361.46253 367.58833 377.76863 383.89445 390.02024 394.3612 400.48704 405.38987 416.18714 419.25007 425.06739 429.35328 439.53355 443.8745 450.29783 455.20066 460.1035 464.38938 469.8982 474.80104 477.86393 482.76679 490.75459 495.10658 499.39247 503.7114 508.60328 512.9552 517.2962 525.28396 530.7928">enrichment,calm,andstructuredcoexistence&#x2014;withoutbeingpushedintospectacle,stress,or</tspan></text>
<text xml:space="preserve" transform="matrix(1 0 -0 1 0 792)" font-size="10.9091" font-family="LMRoman10"><tspan y="-284.655" x="72 78.06546 84.13092 93.2182 98.67275 104.73821 110.192768 115.647319 120.50186 130.20006 135.05461 140.81462 147.18553 152.64008 156.93827 163.00373 167.28009 172.13465 180.02193 187.8983 193.96376 202.45105 207.3056 213.06562 218.82563 221.85836 226.13472 231.58927 237.65473 246.742 251.59656 257.35658 265.24388 274.0257 280.09117 284.38935 292.26573 296.54209 301.39665 310.48393 315.93849 318.9712 328.6803 336.25123 341.10578 344.1385 347.47669 352.93125 357.2076 362.06217 365.6949 368.7276 371.76036 376.0367 380.3349 388.21128 393.66584 399.7313 409.4404 415.50587 418.53858 423.99314 430.0586 433.0913 437.0295 442.78953 446.42225 452.79316 458.2477 464.31318 470.37864 476.4441 481.29866 487.3641">unmanagedexposure.Theenvironmentmustremainwelfare-firstanddignity-bounded.</tspan></text>
<text xml:space="preserve" transform="matrix(1 0 -0 1 0 792)" font-size="14.3462" font-family="LMRoman12" font-weight="bold"><tspan y="-250.287" x="72">4</tspan></text>
<text xml:space="preserve" transform="matrix(1 0 -0 1 0 792)" font-size="14.3462" font-family="LMRoman12" font-weight="bold"><tspan y="-250.287" x="92.185108 102.7726 111.738979 126.085178 135.05155 141.33518 149.18254 155.46617 162.82578 174.48923 191.15952 200.12589 207.97325 219.6367 232.26136 239.62096 256.66426 269.03068 277.10758 285.18449 293.26139 300.62098 307.2202 311.71058 319.55796 328.52433 342.8705 348.88157 360.6311 366.64216 375.1638 381.44743 388.807 397.77339 406.73976 414.09934 428.44554 434.72917 448.18589 459.66285 467.02244 474.19554 482.27244 495.72917">EndState:WhatNewDoggerlandIsIntendedtoBecome</tspan></text>
<text xml:space="preserve" transform="matrix(1 0 -0 1 0 792)" font-size="10.9091" font-family="LMRoman10"><tspan y="-225.937" x="72 80.18182 85.03638 96.54548 104.880039 110.33459 115.78914 121.24369 126.098239 130.3746 133.40734 138.86188 144.92734 154.63645 157.66918 165.6001 168.63283 174.39284 178.63648 183.49103 189.55649 195.62195 200.4765 210.18561 214.42925 223.51653 229.88744 234.74199 239.59654 245.05109 254.13837 262.62565 271.71293 277.77839 283.23295 288.6875 292.32023 297.17478 302.02934 307.80024 312.04389 316.88755 321.1639 326.01847 335.72758 340.02577 344.2694 349.12397 356.6949 362.14945 366.4258 372.49128 376.78947 382.85493 385.88764 395.58583 400.44038 405.89494 414.9822 421.04768 427.11314 435.05497 439.2986 445.36408 450.81864 458.695 461.72773 466.0259">NewDoggerlandisintendedtobecomeadog-centeredstewardshipcampusthatis:</tspan></text>
<text xml:space="preserve" transform="matrix(1 0 -0 1 0 792)" font-size="10.9091" font-family="LMRoman10"><tspan y="-199.636" x="72">&#x2022;</tspan></text>
<text xml:space="preserve" transform="matrix(1 0 -0 1 0 792)" font-size="10.9091" font-family="LMRoman10" font-weight="bold"><tspan y="-199.636" x="85.49456 94.21093 99.96002 103.440029 107.26912 113.36731 118.53822 124.287319 128.4655 131.95096 135.43642 140.60733 145.56006">welfare-first</tspan></text>
<text xml:space="preserve" transform="matrix(1 0 -0 1 0 792)" font-size="10.9091" font-family="LMRoman10"><tspan y="-199.636" x="154.06917 158.3128 164.37827 169.83281 175.28736 183.21828 188.67282 196.61466 202.68012 206.95648 209.98921 219.07649 224.53104 228.8074 238.20015 244.57106 249.42562 255.49108 260.3456 263.37834 266.41108 271.26564 274.29835 279.7529 284.02928 287.06199 291.91654 296.21473 300.45838">(dogsasprimarybeneficiaries),</tspan></text>
<text xml:space="preserve" transform="matrix(1 0 -0 1 0 792)" font-size="10.9091" font-family="LMRoman10"><tspan y="-177.32" x="72">&#x2022;</tspan></text>
<text xml:space="preserve" transform="matrix(1.0049875 0 -0 .9950372 0 792)" font-size="10.96351" font-family="LMRoman10" font-weight="bold"><tspan y="-178.2044" x="85.51351 92.519199 96.016559 102.32057 109.326259 112.823619 117.37347 124.02832 128.22734 135.23302 140.42974 146.20749 151.18492 156.96269 162.1594 168.81426 172.31162 179.31729">dignity-preserving</tspan></text>
<text xml:space="preserve" transform="matrix(1.0049875 0 -0 .9950372 0 792)" font-size="10.96351" font-family="LMRoman10"><tspan y="-178.2044" x="189.37084 193.63564 199.42438 205.52008 214.65268 220.13445 226.23015 234.1787 240.27442 244.57212 250.05387 254.31867 259.19746 264.0762 268.34104 273.2198 282.94447 288.4262 296.37477 301.25355 306.7353 310.38615 316.7779 321.65666 327.75239 332.63117 335.67903 338.72688 343.60566 346.6535 352.13526 356.43296 359.4808 364.35957 368.67918 375.35597 381.4517 390.56239 395.44117 401.2299 406.10865 410.40635 415.27415 418.322 423.80378 429.91044 436.57627 440.87397 445.75273 450.01753 455.4993 458.54713 461.59498 467.07673 471.34153 474.38938 479.87117 485.96687 492.64366 498.1254 506.05204 510.93077 516.71957 520.9843 525.28207 530.7638 535.6425">(humansprotectedasco-beneficiaries;nocoercion,retaliation,orextrac-</tspan></text>
<text xml:space="preserve" transform="matrix(1 0 -0 1 0 792)" font-size="10.9091" font-family="LMRoman10"><tspan y="-163.771" x="85.94 90.18364 93.21637 98.67092 104.73638 108.98002">tion),</tspan></text>
<text xml:space="preserve" transform="matrix(1 0 -0 1 0 792)" font-size="10.9091" font-family="LMRoman10"><tspan y="-141.454" x="72">&#x2022;</tspan></text>
<text xml:space="preserve" transform="matrix(1 0 -0 1 0 792)" font-size="10.9091" font-family="LMRoman10" font-weight="bold"><tspan y="-141.454" x="85.94183 90.89456 95.77093 101.52002 110.23639 116.33458 121.50549 128.47641 133.42914 140.40006 143.88005 150.85097 155.02916 162.34917 168.6219 175.59282 182.56374 189.53466 195.28376">stewardship-bounded</tspan></text>
<text xml:space="preserve" transform="matrix(1 0 -0 1 0 792)" font-size="10.9091" font-family="LMRoman10"><tspan y="-141.454" x="205.8874 210.13105 213.16378 218.61832 224.68378 234.39289 239.84743 245.91289 255.61109 261.06565 265.36384 269.66203 274.51658 278.76023 286.70207 290.9457 295.22209 300.07664 305.5312 309.77485 314.6294 324.32759 329.78215 337.71305 340.74577 346.20033 352.26579 357.72035 361.35307 367.41853 372.87309 377.14945 380.18217 385.0367 390.49128 400.20039 406.26585 412.3313 416.57496 419.60768 424.46223 428.7604 433.00407">(landandassetstreatedaslong-horizonduties),</tspan></text>
<text xml:space="preserve" transform="matrix(1 0 -0 1 0 792)" font-size="10.9091" font-family="LMRoman10"><tspan y="-119.13799" x="72">&#x2022;</tspan></text>
<text xml:space="preserve" transform="matrix(1 0 -0 1 0 792)" font-size="10.9091" font-family="LMRoman10" font-weight="bold"><tspan y="-119.13799" x="85.94183 89.42729 92.91275 99.88367 105.98186 112.952777 118.52732 122.007328 128.10552 131.58551 135.0655 145.86553 151.03644 156.78554 161.73827 165.21826 168.70917 172.18917 177.93827 184.56009">financiallyresilient</tspan></text>
<text xml:space="preserve" transform="matrix(1 0 -0 1 0 792)" font-size="10.9091" font-family="LMRoman10"><tspan y="-119.13799" x="193.0692 197.31284 202.76738 208.83284 211.86557 220.35286 224.5965 233.69469 237.99288 244.05834 248.35652 252.60016 258.05473 261.08744 270.7856 275.64018 281.09474 285.3711 293.85838 301.73475 304.76747 309.0111 315.07658 320.53114 326.5966 334.4839 340.54936 344.8257 347.85844 351.19664 355.44029 358.473 364.53846 373.62574 376.65846 382.41847 386.6621 395.7603 400.61488 406.37489 410.61854 414.8949 420.34947 425.204 429.44767 432.48039 437.93495 444.0004 448.24406">(abletosustaincarewithoutdriftingintoextraction),</tspan></text>
<text xml:space="preserve" transform="matrix(1 0 -0 1 0 792)" font-size="10.9091" font-family="LMRoman10"><tspan y="-96.82199" x="72">&#x2022;</tspan></text>
<text xml:space="preserve" transform="matrix(1 0 -0 1 0 792)" font-size="10.9091" font-family="LMRoman10"><tspan y="-96.82199" x="85.94183 91.396389 97.461849">and</tspan></text>
<text xml:space="preserve" transform="matrix(1 0 -0 1 0 792)" font-size="10.9091" font-family="LMRoman10" font-weight="bold"><tspan y="-96.82199" x="107.160037 113.43277 119.356418 125.62915 131.37825 136.54917 143.52008 149.61827 156.58919 162.16374 167.91284 172.10195 175.58194 181.33104 187.60378 191.08377 198.05469 201.53469">governance-legible</tspan></text>
<text xml:space="preserve" transform="matrix(1 0 -0 1 0 792)" font-size="10.9091" font-family="LMRoman10"><tspan y="-96.82199" x="210.91652 215.16016 224.24744 230.00743 233.34561 238.80016 246.70926 251.25836 257.32383 262.77839 265.8111 270.66566 275.5202 283.46205 288.9166 293.19297 301.68025 306.5348 312.2948 318.36027 321.39299 326.84754 329.88026 335.9457 341.40028 347.46574 350.49845 355.353 362.01844 365.05116 370.5057 375.96028 381.41484 386.26939 392.33485 399.00028 404.45484 410.5203 420.2294 424.50578 429.36033 435.12034 438.15306 443.0076 450.57853 456.03309 462.09855 465.13127 469.9858 474.22947">(majorchoicesareexplainable,logged,andreviewable).</tspan></text>
<text xml:space="preserve" transform="matrix(1 0 -0 1 0 792)" font-size="10.9091" font-family="LMRoman10"><tspan y="-42.11199" x="303.273">4</tspan></text>
</svg>
