<svg xmlns="http://www.w3.org/2000/svg" xmlns:xlink="http://www.w3.org/1999/xlink" xmlns:inkscape="http://www.inkscape.org/namespaces/inkscape" version="1.1" width="612" height="792" viewBox="0 0 612 792">
<text xml:space="preserve" transform="matrix(1 0 -0 1 0 792)" font-size="10.9091" font-family="LMRoman10"><tspan y="-709.041" x="72">&#x2022;</tspan></text>
<text xml:space="preserve" transform="matrix(1 0 -0 1 0 792)" font-size="10.9091" font-family="LMRoman10"><tspan y="-709.041" x="85.94183 90.79639 95.072757 99.92731 105.38186 109.625499 112.658229 118.11278 127.81097 133.26552 140.24735 145.70189 151.4619 160.85465 165.13101 170.58556 173.61829 182.10558 189.98195 193.01468 197.25832 206.96743 210.00016 216.06562 222.13108 226.98563 233.35654 238.21109 244.27655 250.34201 255.19657 260.95658 268.83296 273.13114 279.50205 284.3566 290.42207 296.48753 299.52024 305.5857 314.6839 320.13847 328.04756 332.9021 338.35667 344.11668 348.36033 352.6367 358.09126 362.9458 367.18946 370.22218 376.28764 385.3749 390.82948 396.89494 401.13859 407.20405 412.6586 416.93498 419.96769 423.91679">creationofanyrolewithindependentspendingorcontractingauthority</tspan><tspan y="-682.74" x="72 82.00365 88.06911 92.312747 97.767299 103.832759 106.865489 109.89822 112.93095 116.869129 122.62913 130.5164 138.69823 144.76369 149.31279 155.37825 160.8328 166.89826 172.3528 177.20735 182.6619 188.72736 191.76009">Mutability:Unchangeable</tspan></text>
<text xml:space="preserve" transform="matrix(1 0 -0 1 0 792)" font-size="14.3462" font-family="LMRoman12" font-weight="bold"><tspan y="-648.372" x="72">7</tspan></text>
<text xml:space="preserve" transform="matrix(1 0 -0 1 0 792)" font-size="14.3462" font-family="LMRoman12" font-weight="bold"><tspan y="-648.372" x="92.185108 102.7726 116.22933 123.588939 130.18819 138.26509 145.6247 154.59107 161.76416 175.66562 183.51299 192.47936 206.82555 217.41304 225.93468 233.10778 240.46738 249.43375 255.71738 260.20774 268.28465 282.63084 295.04029 301.41">EmergencyandExceptionUse</tspan></text>
<text xml:space="preserve" transform="matrix(1 0 -0 1 0 792)" font-size="10.9091" font-family="LMRoman10"><tspan y="-624.02206" x="72 75.93819 81.69819 87.15273 92.91274 97.76729 103.22184 107.46548 110.49821 115.95276 125.66186 131.11641 134.45459">Invocationof:</tspan></text>
<text xml:space="preserve" transform="matrix(1 0 -0 1 0 792)" font-size="10.9091" font-family="LMRoman10"><tspan y="-597.721" x="72">&#x2022;</tspan></text>
<text xml:space="preserve" transform="matrix(1 0 -0 1 0 792)" font-size="10.9091" font-family="LMRoman10"><tspan y="-597.721" x="85.94183 93.37093 102.45821 107.31276 111.58913 117.04368 121.898227 127.963687 132.81824 142.21099 150.08736 156.16373 160.40737 166.47283 171.92737 176.20374 179.23647 183.17465">EmergencyAuthority</tspan></text>
<text xml:space="preserve" transform="matrix(1 0 -0 1 0 792)" font-size="10.9091" font-family="LMRoman10"><tspan y="-575.404" x="72">&#x2022;</tspan></text>
<text xml:space="preserve" transform="matrix(1 0 -0 1 0 792)" font-size="10.9091" font-family="LMRoman10"><tspan y="-575.404" x="85.94183 93.81821 99.27276 105.03276 109.2764 112.30913 118.08004 124.1455 127.17823 131.11643 140.50917 148.38555 154.451 158.69464 164.7601 170.21465 174.49102 177.52375 181.47284">ContinuityAuthority</tspan></text>
<text xml:space="preserve" transform="matrix(1 0 -0 1 0 792)" font-size="10.9091" font-family="LMRoman10"><tspan y="-553.088" x="72">&#x2022;</tspan></text>
<text xml:space="preserve" transform="matrix(1 0 -0 1 0 792)" font-size="10.9091" font-family="LMRoman10"><tspan y="-553.088" x="85.94183 92.16002 97.61457 103.68003 109.74549 115.81095 121.2655 125.50914 128.54187 133.99642 140.06188 145.51642 152.18189 159.61098 165.67644 171.13098 175.42917 183.92737 186.9601 192.72011 196.96375 201.8183 206.09467 209.1274 221.84741 227.91287 233.36742 239.43288 245.49834 248.53107 251.5638 257.62925 266.72746 275.81474 280.6584 284.90205 290.9784 296.7275 302.79298">FoundationalPhaseinterimhandlingmethods</tspan><tspan y="-526.787" x="72 75.03273 82.963649 87.81819 93.27274 99.3382 104.19275 107.22548 113.29094 117.58913 120.62186 126.08731 130.94187 133.9746 143.36734 152.45462 162.45827 167.91281 172.15645 177.011 181.28737 184.3201 189.77465 196.44011 204.3274 209.18195 213.42559 216.45832 221.91286 227.97832">isconclusivelyaMaterialAction.</tspan><tspan y="-506.46299" x="72 82.00365 88.06911 92.312747 97.767299 103.832759 106.865489 109.89822 112.93095 116.869129 122.62913 130.5164 138.69823 144.76369 149.31279 155.37825 160.8328 166.89826 172.3528 177.20735 182.6619 188.72736 191.76009">Mutability:Unchangeable</tspan></text>
<text xml:space="preserve" transform="matrix(1 0 -0 1 0 792)" font-size="14.3462" font-family="LMRoman12" font-weight="bold"><tspan y="-472.09498" x="72">8</tspan></text>
<text xml:space="preserve" transform="matrix(1 0 -0 1 0 792)" font-size="14.3462" font-family="LMRoman12" font-weight="bold"><tspan y="-472.09498" x="92.185108 98.19616 106.70346 112.9871 120.361049 126.9603 134.80767 141.98076 148.26439 152.75475 160.83165 175.17784 191.84813 196.33849 202.62212 216.9683 229.09085 238.50196 245.86156 252.46082 260.3082 266.59184 271.08219 279.1591 288.12547 295.97285 305.84303 321.15043 328.9978 337.5051 346.47148 354.31886 358.8092">InteractionWithOperationalManuals</tspan></text>
<text xml:space="preserve" transform="matrix(1 0 -0 1 0 792)" font-size="10.9091" font-family="LMRoman10"><tspan y="-447.74497" x="72 80.48728 86.8582 91.71275 95.98912 101.44367 105.68731 108.72004 114.17459 120.24005 125.6946 132.36006 142.36371 147.81826 153.57826 159.64373 165.09827 168.131 176.07283 184.85466 190.92012 195.2183 199.46195">OperationalManualsmust:</tspan></text>
<text xml:space="preserve" transform="matrix(1 0 -0 1 0 792)" font-size="10.9091" font-family="LMRoman10"><tspan y="-421.44398" x="72">&#x2022;</tspan></text>
<text xml:space="preserve" transform="matrix(1 0 -0 1 0 792)" font-size="10.9091" font-family="LMRoman10"><tspan y="-421.44398" x="85.94183 90.2182 95.072757 98.41094 103.26549 107.541858 112.39641 118.46187 123.31642 131.80371 136.04735 142.11281 145.14554 153.08737 159.15283 163.70194 169.7674 174.62195 180.68741 186.75287 189.7856 198.27289 203.12744 208.88745 214.95291 217.98564 221.01837 225.87293 228.90566 233.14929 236.18202 245.57477 253.45114 259.5166 264.37117 268.64753 277.14573 281.4439 287.80393 292.65849 298.72395 304.7894 307.8221 313.88758 322.98579 328.44035 336.34944 341.804 347.86946 353.9349 358.21128 363.36039 368.5204 373.97496 380.64039 383.6731 386.7058 395.7931 398.8258 403.06947 411.00038 416.45494 422.53129 428.8913 433.74586 439.2004 443.47679">referencethisScheduleexplicitlywherespendingorapprovallimitsappear,</tspan></text>
<text xml:space="preserve" transform="matrix(1 0 -0 1 0 792)" font-size="10.9091" font-family="LMRoman10"><tspan y="-399.12797" x="72">&#x2022;</tspan></text>
<text xml:space="preserve" transform="matrix(1 0 -0 1 0 792)" font-size="10.9091" font-family="LMRoman10"><tspan y="-399.12797" x="85.94183 92.00729 96.28366 101.73821 107.80367 110.8364 116.90186 119.93459 127.81096 132.66551 135.69824 139.97461 144.82917 150.89463 159.68737 165.14192 169.99648 175.75649 180.00012 183.03285 188.4874 198.1856 203.95652 213.34926 217.64745 223.7129 226.74564 229.77837 234.022 238.26564 241.29837 247.36383 256.4511 261.90568 269.82569 274.12388 278.97843 284.73844 290.8039 295.65846 301.7239 306.57847 309.61119 315.67665 324.76393 330.21849 335.07304 339.31669 342.3494 347.80397 353.86943 358.1676">prohibitcircumventionbysplittingorsequencingactions,</tspan></text>
<text xml:space="preserve" transform="matrix(1 0 -0 1 0 792)" font-size="10.9091" font-family="LMRoman10"><tspan y="-376.81098" x="72">&#x2022;</tspan></text>
<text xml:space="preserve" transform="matrix(1 0 -0 1 0 792)" font-size="10.9091" font-family="LMRoman10"><tspan y="-376.81098" x="85.94183 92.00729 96.86185 100.200038 105.65459 111.72005 114.75278 122.62914 126.87278 135.97098 145.97463 151.42917 155.6728 160.52736 164.80373 167.83646 173.291 179.95647 187.83284 192.6874 196.93103 199.96376 205.4183 215.1165 219.39287 224.84741 230.91287 235.15651 238.18924 244.26561 253.35289 261.22926 267.2947 272.14927 276.42564 284.9129 290.97837 297.04383 301.89839 306.75294 311.0293 315.27296 320.7275 323.76023 329.52024 333.46934 342.86207 347.7166 353.47663 356.50935 360.80754 365.05119 369.34938">defaulttoMaterialActionroutingwhereuncertaintyexists.</tspan><tspan y="-350.50999" x="72 82.00365 88.06911 92.312747 97.767299 103.832759 106.865489 109.89822 112.93095 116.869129 122.62913 130.5164 138.69823 144.76369 149.31279 155.37825 160.8328 166.89826 172.3528 177.20735 182.6619 188.72736 191.76009">Mutability:Unchangeable</tspan></text>
<text xml:space="preserve" transform="matrix(1 0 -0 1 0 792)" font-size="10.9091" font-family="LMRoman10"><tspan y="-42.11197" x="303.273">4</tspan></text>
</svg>
