<svg xmlns="http://www.w3.org/2000/svg" xmlns:xlink="http://www.w3.org/1999/xlink" xmlns:inkscape="http://www.inkscape.org/namespaces/inkscape" version="1.1" width="612" height="792" viewBox="0 0 612 792">
<text xml:space="preserve" transform="matrix(1 0 -0 1 0 792)" font-size="10.9091" font-family="LMRoman10" font-weight="bold"><tspan y="-709.041" x="72 78.272739 88.363658 95.33457 100.21094 105.96003 114.6764 120.77459 125.9455 132.91641 137.86914 144.84006 148.32006 159.46916 165.56735 172.53827 183.69828 191.92374 197.67284 202.84375 213.29467 219.39286 226.36377 232.11287 239.08379 244.65834 254.58563 263.6511 269.92384 276.89476 281.84748 286.72386 291.89479 297.99296 301.47297 308.0948 312.97117">17StewardshipandPermanenceConstraints</tspan></text>
<text xml:space="preserve" transform="matrix(1 0 -0 1 0 792)" font-size="10.9091" font-family="LMRoman10" font-weight="bold"><tspan y="-709.041" x="527.4768 533.7495">46</tspan></text>
<text xml:space="preserve" transform="matrix(1 0 -0 1 0 792)" font-size="10.9091" font-family="LMRoman10" font-weight="bold"><tspan y="-684.583" x="72 78.272739 88.363658 97.429119 100.90912 107.00731 111.96004 116.912769 120.39277 123.87823 127.363689 132.93824 139.03643 143.9128 147.39279 153.66553 160.63645 168.30554 177.78556 182.95647 189.92739 193.40738 198.28376 203.45467 209.55286 214.42923 217.90923 224.18196 231.15288 238.81107 244.90926 251.88018 263.02928 272.1602 277.73475 283.3093 289.58204 296.55296 303.17478 308.05116 314.14933 321.12025 324.60026 328.09117 331.57118 336.09846">18Classification,Arbitration,andAccountability</tspan></text>
<text xml:space="preserve" transform="matrix(1 0 -0 1 0 792)" font-size="10.9091" font-family="LMRoman10" font-weight="bold"><tspan y="-684.583" x="527.42227 533.69497">46</tspan></text>
<text xml:space="preserve" transform="matrix(1 0 -0 1 0 792)" font-size="10.9091" font-family="LMRoman10"><tspan y="-671.034" x="88.364 93.81855 99.2731 102.30583 113.0513 120.927669 125.78221 130.02585 133.05858 138.51313 148.22223 156.0986 159.13134 164.58588 168.88407 173.18225 176.21498 179.24771 182.28044 187.135 192.58954 196.83318 199.8659 205.32045">18.1ActionClassification</tspan></text>
<text xml:space="preserve" transform="matrix(1 0 -0 1 0 792)" font-size="10.9091" font-family="LMRoman10"><tspan y="-671.034" x="219.00046 227.48773 235.975 244.46228 252.94956 261.43684 269.91319 278.40046 286.88774 295.375 303.86228 312.34956 320.83683 329.3241 337.81138 346.29866 354.78593 363.2732 371.76048 380.24775 388.73503 397.2223 405.70957 414.19685 422.6841 431.1714 439.65867 448.14595 456.6332 465.12049 473.60777 482.09504 490.5823 499.06959 507.55686 516.0332">....................................</tspan></text>
<text xml:space="preserve" transform="matrix(1 0 -0 1 0 792)" font-size="10.9091" font-family="LMRoman10"><tspan y="-671.034" x="529.2005 534.655">46</tspan></text>
<text xml:space="preserve" transform="matrix(1 0 -0 1 0 792)" font-size="10.9091" font-family="LMRoman10"><tspan y="-657.484" x="88.364 93.81855 99.2731 102.30583 113.45493 123.45858 126.49131 130.78949 135.03313 140.48767 145.94223">18.2Mistake</tspan></text>
<text xml:space="preserve" transform="matrix(1 0 -0 1 0 792)" font-size="10.9091" font-family="LMRoman10"><tspan y="-657.484" x="159.58953 168.0768 176.56407 185.05135 193.53862 202.0259 210.51317 218.98954 227.4768 235.96408 244.45136 252.93863 261.4259 269.91319 278.40046 286.88774 295.375 303.86228 312.34956 320.83683 329.3241 337.81138 346.29866 354.78593 363.2732 371.76048 380.24775 388.73503 397.2223 405.70957 414.19685 422.6841 431.1714 439.65867 448.14595 456.6332 465.10957 473.59684 482.0841 490.57139 499.05867 507.54594 516.0332">...........................................</tspan></text>
<text xml:space="preserve" transform="matrix(1 0 -0 1 0 792)" font-size="10.9091" font-family="LMRoman10"><tspan y="-657.484" x="529.2005 534.655">47</tspan></text>
<text xml:space="preserve" transform="matrix(1 0 -0 1 0 792)" font-size="10.9091" font-family="LMRoman10"><tspan y="-643.935" x="88.364 93.81855 99.2731 102.30583 113.0513 121.23312 124.265857 129.7204 132.75313 138.20767 142.45131 145.48404 150.93859">18.3Violation</tspan></text>
<text xml:space="preserve" transform="matrix(1 0 -0 1 0 792)" font-size="10.9091" font-family="LMRoman10"><tspan y="-643.935" x="168.07678 176.56406 185.05133 193.5386 202.02588 210.51316 219.00043 227.4877 235.97498 244.45134 252.93862 261.4259 269.91319 278.40046 286.88774 295.375 303.86228 312.34956 320.83683 329.3241 337.81138 346.29866 354.78593 363.2732 371.76048 380.24775 388.73503 397.2223 405.70957 414.19685 422.6841 431.1714 439.65867 448.14595 456.6332 465.12049 473.60777 482.09504 490.57139 499.05867 507.54594 516.0332">..........................................</tspan></text>
<text xml:space="preserve" transform="matrix(1 0 -0 1 0 792)" font-size="10.9091" font-family="LMRoman10"><tspan y="-643.935" x="529.2005 534.655">47</tspan></text>
<text xml:space="preserve" transform="matrix(1 0 -0 1 0 792)" font-size="10.9091" font-family="LMRoman10"><tspan y="-630.386" x="88.364 93.81855 99.2731 102.30583 113.0513 121.23312 127.298587 133.36405 137.66223">18.4Abuse</tspan></text>
<text xml:space="preserve" transform="matrix(1 0 -0 1 0 792)" font-size="10.9091" font-family="LMRoman10"><tspan y="-630.386" x="151.10225 159.58953 168.0768 176.56407 185.05135 193.53862 202.0259 210.51317 219.00045 227.48772 235.97499 244.46227 252.94954 261.43684 269.9241 278.41139 286.89866 295.38594 303.8732 312.36048 320.83683 329.3241 337.81138 346.29866 354.78593 363.2732 371.76048 380.24775 388.73503 397.2223 405.70957 414.19685 422.6841 431.1714 439.65867 448.14595 456.6332 465.12049 473.60777 482.09504 490.5823 499.06959 507.55686 516.0441">............................................</tspan></text>
<text xml:space="preserve" transform="matrix(1 0 -0 1 0 792)" font-size="10.9091" font-family="LMRoman10"><tspan y="-630.386" x="529.2005 534.655">47</tspan></text>
<text xml:space="preserve" transform="matrix(1 0 -0 1 0 792)" font-size="10.9091" font-family="LMRoman10"><tspan y="-616.837" x="88.364 93.81855 99.2731 102.30583 113.45493 121.33131 124.36404 129.81859 134.11678 138.41497 141.4477 144.48043 147.51316 152.3677 157.82225 162.06589 165.09862 170.55316 180.26227 188.13864 194.2041 198.44774 204.5132 209.96775 214.24411 217.27684 221.21503">18.5ClassificationAuthority</tspan></text>
<text xml:space="preserve" transform="matrix(1 0 -0 1 0 792)" font-size="10.9091" font-family="LMRoman10"><tspan y="-616.837" x="235.97504 244.46231 252.94959 261.43687 269.92414 278.4114 286.89869 295.38597 303.87324 312.3605 320.83686 329.32414 337.8114 346.29869 354.78596 363.27323 371.7605 380.24778 388.73506 397.22233 405.7096 414.19688 422.68415 431.17143 439.6587 448.14598 456.63325 465.1205 473.6078 482.09507 490.58235 499.0696 507.5569 516.0441">..................................</tspan></text>
<text xml:space="preserve" transform="matrix(1 0 -0 1 0 792)" font-size="10.9091" font-family="LMRoman10"><tspan y="-616.837" x="529.2005 534.655">47</tspan></text>
<text xml:space="preserve" transform="matrix(1 0 -0 1 0 792)" font-size="10.9091" font-family="LMRoman10"><tspan y="-603.28799" x="88.364 93.81855 99.2731 102.30583 113.45493 120.578578 126.03313 132.09859 136.95314 143.62952 149.69498 154.54953 157.58226 162.43682 167.29137 171.535 174.56774 180.02228">18.6PanelSelection</tspan></text>
<text xml:space="preserve" transform="matrix(1 0 -0 1 0 792)" font-size="10.9091" font-family="LMRoman10"><tspan y="-603.28799" x="193.57138 202.05866 210.54593 219.0223 227.50957 235.99684 244.48412 252.97139 261.45869 269.94596 278.43324 286.9205 295.40779 303.89506 312.38233 320.8696 329.35688 337.84416 346.33143 354.8187 363.30598 371.79325 380.28053 388.7678 397.25508 405.74235 414.2296 422.7169 431.20417 439.69145 448.1787 456.666 465.14234 473.6296 482.11689 490.60417 499.09144 507.5787 516.066">.......................................</tspan></text>
<text xml:space="preserve" transform="matrix(1 0 -0 1 0 792)" font-size="10.9091" font-family="LMRoman10"><tspan y="-603.28799" x="529.2333 534.6878">47</tspan></text>
<text xml:space="preserve" transform="matrix(1 0 -0 1 0 792)" font-size="10.9091" font-family="LMRoman10"><tspan y="-589.738" x="88.364 93.81855 99.2731 102.30583 113.45493 121.48403 126.33858 129.3713 134.82585 139.06949 142.10222 147.55677 153.62223 157.92041 163.98587 167.0186 176.7277 180.97135 190.05863 197.33499 202.78954 205.82227 211.88773 216.74228">18.7RelationshiptoValues</tspan></text>
<text xml:space="preserve" transform="matrix(1 0 -0 1 0 792)" font-size="10.9091" font-family="LMRoman10"><tspan y="-589.738" x="227.48775 235.97502 244.4623 252.94957 261.43687 269.92414 278.4114 286.89869 295.38597 303.87324 312.3605 320.84779 329.33506 337.82234 346.3096 354.79689 363.28416 371.7605 380.24778 388.73506 397.22233 405.7096 414.19688 422.68415 431.17143 439.6587 448.14598 456.63325 465.1205 473.6078 482.09507 490.58235 499.0696 507.5569 516.0441">...................................</tspan></text>
<text xml:space="preserve" transform="matrix(1 0 -0 1 0 792)" font-size="10.9091" font-family="LMRoman10"><tspan y="-589.738" x="529.2005 534.655">47</tspan></text>
<text xml:space="preserve" transform="matrix(1 0 -0 1 0 792)" font-size="10.9091" font-family="LMRoman10"><tspan y="-576.18899" x="88.364 93.81855 99.2731 102.30583 113.45493 121.33131 124.36404 129.81859 134.11678 138.41497 141.4477 144.48043 147.51316 152.3677 157.82225 162.06589 165.09862 170.55316 180.26227 186.32773 190.57137 196.02591 202.09137 208.15683 213.61138 217.88774 223.9532">18.8ClassificationStandards</tspan></text>
<text xml:space="preserve" transform="matrix(1 0 -0 1 0 792)" font-size="10.9091" font-family="LMRoman10"><tspan y="-576.18899" x="235.97504 244.46231 252.94959 261.43687 269.92414 278.4114 286.89869 295.38597 303.87324 312.3605 320.84779 329.33506 337.82234 346.29869 354.78596 363.27323 371.7605 380.24778 388.73506 397.22233 405.7096 414.19688 422.68415 431.17143 439.6587 448.14598 456.63325 465.1205 473.6078 482.09507 490.58235 499.0696 507.5569 516.0441">..................................</tspan></text>
<text xml:space="preserve" transform="matrix(1 0 -0 1 0 792)" font-size="10.9091" font-family="LMRoman10"><tspan y="-576.18899" x="529.2005 534.655">48</tspan></text>
<text xml:space="preserve" transform="matrix(1 0 -0 1 0 792)" font-size="10.9091" font-family="LMRoman10"><tspan y="-562.63998" x="88.364 93.81855 99.2731 102.30583 113.45493 121.17857 127.24403 131.5204 137.58586 142.44042 152.14952 157.60407 164.57498 172.00408 176.28044 182.04044 187.49498">18.9BurdenofProof</tspan></text>
<text xml:space="preserve" transform="matrix(1 0 -0 1 0 792)" font-size="10.9091" font-family="LMRoman10"><tspan y="-562.63998" x="202.0368 210.52408 219.01136 227.49863 235.9859 244.47318 252.96045 261.44773 269.935 278.42228 286.90956 295.39683 303.8841 312.37138 320.85865 329.34593 337.8332 346.32048 354.80775 363.295 371.7823 380.26957 388.75685 397.2441 405.73139 414.21867 422.70594 431.1932 439.66957 448.15684 456.6441 465.13139 473.61866 482.10594 490.5932 499.08049 507.56776 516.055">......................................</tspan></text>
<text xml:space="preserve" transform="matrix(1 0 -0 1 0 792)" font-size="10.9091" font-family="LMRoman10"><tspan y="-562.63998" x="529.2223 534.6768">48</tspan></text>
<text xml:space="preserve" transform="matrix(1 0 -0 1 0 792)" font-size="10.9091" font-family="LMRoman10"><tspan y="-549.09097" x="88.364 93.81855 99.2731 102.30583 107.76038 113.06221 120.03313 124.88768 129.18587 133.4295 136.46224 145.54952 151.00406 156.76407 166.15682 174.49137 179.34592 182.37865 185.41138 191.47684 194.50957 198.7532 201.78594 207.24048">18.10TestimonyDefinition</tspan></text>
<text xml:space="preserve" transform="matrix(1 0 -0 1 0 792)" font-size="10.9091" font-family="LMRoman10"><tspan y="-549.09097" x="219.00049 227.48777 235.97504 244.46231 252.94959 261.43687 269.92414 278.4114 286.89869 295.38597 303.87324 312.3605 320.84779 329.33506 337.82234 346.3096 354.79689 363.28416 371.77143 380.2587 388.74598 397.23326 405.72053 414.2078 422.69508 431.18235 439.6587 448.14598 456.63325 465.1205 473.6078 482.09507 490.58235 499.0696 507.5569 516.0441">....................................</tspan></text>
<text xml:space="preserve" transform="matrix(1 0 -0 1 0 792)" font-size="10.9091" font-family="LMRoman10"><tspan y="-549.09097" x="529.2114 534.66598">48</tspan></text>
<text xml:space="preserve" transform="matrix(1 0 -0 1 0 792)" font-size="10.9091" font-family="LMRoman10"><tspan y="-535.54196" x="88.364 93.81855 99.2731 102.30583 107.76038 113.0513 121.23312 127.298587 133.6695 138.52405 143.97859 147.01132">18.11Appeals</tspan></text>
<text xml:space="preserve" transform="matrix(1 0 -0 1 0 792)" font-size="10.9091" font-family="LMRoman10"><tspan y="-535.54196" x="159.58953 168.0768 176.56407 185.05135 193.53862 202.0259 210.51317 219.00045 227.48772 235.97499 244.46227 252.94954 261.43684 269.9241 278.41139 286.89866 295.38594 303.8732 312.36048 320.83683 329.3241 337.81138 346.29866 354.78593 363.2732 371.76048 380.24775 388.73503 397.2223 405.70957 414.19685 422.6841 431.1714 439.65867 448.14595 456.6332 465.12049 473.60777 482.09504 490.5823 499.06959 507.55686 516.0441">...........................................</tspan></text>
<text xml:space="preserve" transform="matrix(1 0 -0 1 0 792)" font-size="10.9091" font-family="LMRoman10"><tspan y="-535.54196" x="529.2005 534.655">48</tspan></text>
<text xml:space="preserve" transform="matrix(1 0 -0 1 0 792)" font-size="10.9091" font-family="LMRoman10"><tspan y="-521.99197" x="88.364 93.81855 99.2731 102.30583 107.76038 113.45493 120.578578 126.03313 132.09859 136.95314 143.62952 150.58953 155.44408 159.72045 172.45137 179.88047 185.94593 189.2841 194.73865 199.01502 203.86957 208.72412 217.8114 222.66596 228.42597">18.12PanelTermEnforcement</tspan></text>
<text xml:space="preserve" transform="matrix(1 0 -0 1 0 792)" font-size="10.9091" font-family="LMRoman10"><tspan y="-521.99197" x="235.99687 244.48415 252.97142 261.4587 269.94599 278.43327 286.92054 295.4078 303.89509 312.38236 320.86964 329.3569 337.84419 346.33146 354.81874 363.306 371.79328 380.28056 388.76783 397.2551 405.74238 414.22966 422.71693 431.2042 439.68055 448.16783 456.6551 465.14237 473.62965 482.1169 490.6042 499.09147 507.57875 516.066">..................................</tspan></text>
<text xml:space="preserve" transform="matrix(1 0 -0 1 0 792)" font-size="10.9091" font-family="LMRoman10"><tspan y="-521.99197" x="529.2333 534.6878">48</tspan></text>
<text xml:space="preserve" transform="matrix(1 0 -0 1 0 792)" font-size="10.9091" font-family="LMRoman10"><tspan y="-508.44294" x="88.364 93.81855 99.2731 102.30583 107.76038 113.45493 121.942218 128.00768 133.46222 137.73859 143.80405 156.53498 162.60044 168.05498 171.39316 176.24771 181.70226 187.76772 193.22226 197.49863 203.56409">18.13QuorumSafeguards</tspan></text>
<text xml:space="preserve" transform="matrix(1 0 -0 1 0 792)" font-size="10.9091" font-family="LMRoman10"><tspan y="-508.44294" x="219.01137 227.49864 235.98592 244.47319 252.96047 261.44776 269.93504 278.4223 286.90959 295.38594 303.8732 312.36048 320.84776 329.33503 337.8223 346.30958 354.79685 363.28413 371.7714 380.25868 388.74595 397.23323 405.7205 414.20777 422.69505 431.1823 439.6696 448.15687 456.64414 465.1314 473.61869 482.10597 490.59324 499.0805 507.56779 516.05508">....................................</tspan></text>
<text xml:space="preserve" transform="matrix(1 0 -0 1 0 792)" font-size="10.9091" font-family="LMRoman10"><tspan y="-508.44294" x="529.2114 534.66598">48</tspan></text>
<text xml:space="preserve" transform="matrix(1 0 -0 1 0 792)" font-size="10.9091" font-family="LMRoman10"><tspan y="-494.89393" x="88.364 93.81855 99.2731 102.30583 107.76038 113.0513 121.23312 125.50949 131.57495 134.60768 138.85132 143.70587 151.61498 158.74953 164.49861 169.95316 176.62953 180.56772 186.32773 190.57137 195.42592 200.88047 205.15683 208.18956 212.12775">18.14ArbiterPoolIntegrity</tspan></text>
<text xml:space="preserve" transform="matrix(1 0 -0 1 0 792)" font-size="10.9091" font-family="LMRoman10"><tspan y="-494.89393" x="227.49868 235.98595 244.47322 252.9605 261.44779 269.93507 278.42234 286.9096 295.39689 303.88417 312.37144 320.8587 329.34599 337.83326 346.32054 354.8078 363.29508 371.78236 380.26963 388.7569 397.24418 405.73146 414.21873 422.706 431.19328 439.66963 448.1569 456.64418 465.13145 473.6187 482.106 490.59327 499.08055 507.5678 516.05508">...................................</tspan></text>
<text xml:space="preserve" transform="matrix(1 0 -0 1 0 792)" font-size="10.9091" font-family="LMRoman10"><tspan y="-494.89393" x="529.22238 534.6769">48</tspan></text>
<text xml:space="preserve" transform="matrix(1 0 -0 1 0 792)" font-size="10.9091" font-family="LMRoman10"><tspan y="-481.3449" x="88.364 93.81855 99.2731 102.30583 107.76038 113.0513 121.23312 125.50949 131.57495 134.60768 138.85132 143.70587 151.61498 159.7968 164.09499 168.40409 171.4259 176.88045 182.95682 192.0441 196.88774 202.65866 210.53504 218.56414 224.01868 230.08414 236.1496 241.60414 250.69142 253.72415 258.5787 264.03327 268.27693 271.30964 276.7642">18.15ArbiterAssignmentRandomization</tspan></text>
<text xml:space="preserve" transform="matrix(1 0 -0 1 0 792)" font-size="10.9091" font-family="LMRoman10"><tspan y="-481.3449" x="286.89875 295.38603 303.8733 312.36058 320.84785 329.3351 337.8224 346.30967 354.79695 363.2842 371.77149 380.25877 388.74604 397.2333 405.72059 414.19694 422.6842 431.17149 439.65876 448.14604 456.6333 465.12059 473.60786 482.09513 490.5824 499.06968 507.55696 516.0442">............................</tspan></text>
<text xml:space="preserve" transform="matrix(1 0 -0 1 0 792)" font-size="10.9091" font-family="LMRoman10"><tspan y="-481.3449" x="529.2115 534.666">49</tspan></text>
<text xml:space="preserve" transform="matrix(1 0 -0 1 0 792)" font-size="10.9091" font-family="LMRoman10"><tspan y="-467.7959" x="88.364 93.81855 99.2731 102.30583 107.76038 113.45493 119.52039 123.76403 128.61858 136.1895 141.64405 145.92041 151.98587 156.28406 162.36043 165.38225 175.09136 182.815 188.26955 192.81865 198.57866 202.87685 207.12049 212.57503">18.16StewardshipBackstop</tspan></text>
<text xml:space="preserve" transform="matrix(1 0 -0 1 0 792)" font-size="10.9091" font-family="LMRoman10"><tspan y="-467.7959" x="227.48777 235.97504 244.46231 252.94959 261.43687 269.92414 278.4114 286.89869 295.38597 303.87324 312.3605 320.84779 329.33506 337.82234 346.3096 354.79689 363.28416 371.7605 380.24778 388.73506 397.22233 405.7096 414.19688 422.68415 431.17143 439.6587 448.14598 456.63325 465.1205 473.6078 482.09507 490.58235 499.0696 507.5569 516.0441">...................................</tspan></text>
<text xml:space="preserve" transform="matrix(1 0 -0 1 0 792)" font-size="10.9091" font-family="LMRoman10"><tspan y="-467.7959" x="529.2005 534.655">49</tspan></text>
<text xml:space="preserve" transform="matrix(1 0 -0 1 0 792)" font-size="10.9091" font-family="LMRoman10"><tspan y="-454.2469" x="88.364 93.81855 99.2731 102.30583 107.76038 113.45493 120.88403 129.97132 134.82587 139.10224 144.55678 149.41133 155.47679 160.33135 169.72409 178.28774 184.04773 189.80773 195.87319 199.50592 205.7241 211.17865 214.21138 218.45502 228.15322 235.5823 239.85868 244.71323 249.01142 255.07688 264.16416 270.2296 274.47328 277.50599 282.96055">18.17EmergencyGood-FaithPresumption</tspan></text>
<text xml:space="preserve" transform="matrix(1 0 -0 1 0 792)" font-size="10.9091" font-family="LMRoman10"><tspan y="-454.2469" x="295.40785 303.8951 312.3824 320.86967 329.35694 337.83329 346.32057 354.80784 363.2951 371.78239 380.26966 388.75694 397.2442 405.73149 414.21876 422.70603 431.1933 439.68058 448.16786 456.65513 465.1424 473.62968 482.11695 490.60423 499.0915 507.57878 516.06607">...........................</tspan></text>
<text xml:space="preserve" transform="matrix(1 0 -0 1 0 792)" font-size="10.9091" font-family="LMRoman10"><tspan y="-454.2469" x="529.2224 534.67697">49</tspan></text>
<text xml:space="preserve" transform="matrix(1 0 -0 1 0 792)" font-size="10.9091" font-family="LMRoman10"><tspan y="-440.6969" x="88.364 93.81855 99.2731 102.30583 107.76038 113.45493 120.578578 126.03313 130.27677 134.5204 139.37496 143.65132 149.71678 153.34952 161.07317 166.52771 170.8259 175.68045 185.38956 193.26593 198.72048 202.99684 207.27321 212.72776 219.09867 224.5532 228.82958 234.28412 238.52776 241.56049 247.01503">18.18Pattern-BasedCorroboration</tspan></text>
<text xml:space="preserve" transform="matrix(1 0 -0 1 0 792)" font-size="10.9091" font-family="LMRoman10"><tspan y="-440.6969" x="261.43687 269.92414 278.4114 286.89869 295.38597 303.87324 312.3605 320.84779 329.33506 337.82234 346.3096 354.79689 363.28416 371.77143 380.2587 388.74598 397.22233 405.7096 414.19688 422.68415 431.17143 439.6587 448.14598 456.63325 465.1205 473.6078 482.09507 490.58235 499.0696 507.5569 516.0441">...............................</tspan></text>
<text xml:space="preserve" transform="matrix(1 0 -0 1 0 792)" font-size="10.9091" font-family="LMRoman10"><tspan y="-440.6969" x="529.2005 534.655">50</tspan></text>
<text xml:space="preserve" transform="matrix(1 0 -0 1 0 792)" font-size="10.9091" font-family="LMRoman10"><tspan y="-427.1479" x="88.364 93.81855 99.2731 102.30583 107.76038 113.0513 121.23312 126.993129 131.23677 134.2695 137.90224 144.87316 150.3277 159.41498 165.78589 170.64044 178.54955 185.97864 190.255 195.10956 199.40775 205.4732 214.56049 220.62595 224.86959 227.90232 233.35686">18.19Anti-TamperPresumption</tspan></text>
<text xml:space="preserve" transform="matrix(1 0 -0 1 0 792)" font-size="10.9091" font-family="LMRoman10"><tspan y="-427.1479" x="244.46233 252.9496 261.4369 269.92417 278.41145 286.8987 295.386 303.87327 312.36054 320.8478 329.33509 337.82237 346.30964 354.7969 363.28419 371.77146 380.25874 388.746 397.23329 405.72056 414.1969 422.68418 431.17146 439.65873 448.146 456.63328 465.12055 473.60783 482.0951 490.58238 499.06965 507.55693 516.0442">.................................</tspan></text>
<text xml:space="preserve" transform="matrix(1 0 -0 1 0 792)" font-size="10.9091" font-family="LMRoman10"><tspan y="-427.1479" x="529.2115 534.666">50</tspan></text>
<text xml:space="preserve" transform="matrix(1 0 -0 1 0 792)" font-size="10.9091" font-family="LMRoman10"><tspan y="-413.59889" x="88.364 93.81855 99.2731 102.30583 107.76038 113.45493 121.48403 126.33858 130.63677 133.6695 139.73496 144.58951 150.65497 155.50952 163.99681 171.4259 175.70227 181.15682 185.40045 190.255 195.10956 199.3532 202.38593 207.84047 217.54958 225.88413 228.91686 233.21504 238.97505 245.04051 250.49506 253.52779 256.56053 259.59324 262.62599 267.48054 272.9351 277.17875 280.21147 285.66603 295.3642 303.54603 309.91694 315.3715 325.06968 333.2515 339.31697 345.38243 349.6806">18.20ResidenceProtectionDisqualificationUponAbuse</tspan></text>
<text xml:space="preserve" transform="matrix(1 0 -0 1 0 792)" font-size="10.9091" font-family="LMRoman10"><tspan y="-413.59889" x="363.317 371.80427 380.29154 388.7788 397.26609 405.75337 414.24064 422.7279 431.21519 439.70246 448.18974 456.677 465.16429 473.65156 482.13883 490.6261 499.11338 507.60066 516.0879">...................</tspan></text>
<text xml:space="preserve" transform="matrix(1 0 -0 1 0 792)" font-size="10.9091" font-family="LMRoman10"><tspan y="-413.59889" x="529.24429 534.6988">50</tspan></text>
<text xml:space="preserve" transform="matrix(1 0 -0 1 0 792)" font-size="10.9091" font-family="LMRoman10"><tspan y="-400.04988" x="88.364 93.81855 99.2731 102.30583 107.76038 112.898578 124.11313 130.17859 133.21132 137.5095 141.75315 144.78588 149.64043 155.70589 158.73862 163.88771 171.46955 176.3241 184.2332 191.6623 195.93866 201.3932 205.63684 210.4914 215.34595 219.58959 222.62232 228.07686 237.77506 243.2296 249.29506 259.00416 267.18598 272.94599 277.18965 280.22236 283.85508 291.88417 296.7387 300.98237 306.43693 309.46965 312.50236 317.9569 322.20057 325.23329 330.68785 340.38603 347.81513 352.0915 356.94606 361.24424 367.3097 376.39698 382.46244 386.7061 389.7388 395.19337">18.21WhistleblowerProtectionandAnti-RetaliationPresumption</tspan></text>
<text xml:space="preserve" transform="matrix(1 0 -0 1 0 792)" font-size="10.9091" font-family="LMRoman10"><tspan y="-400.04988" x="405.75337 414.24064 422.7279 431.21519 439.70246 448.18974 456.677 465.16429 473.65156 482.13883 490.6261 499.11338 507.60066 516.077">..............</tspan></text>
<text xml:space="preserve" transform="matrix(1 0 -0 1 0 792)" font-size="10.9091" font-family="LMRoman10"><tspan y="-400.04988" x="529.2443 534.69888">51</tspan></text>
<text xml:space="preserve" transform="matrix(1 0 -0 1 0 792)" font-size="10.9091" font-family="LMRoman10" font-weight="bold"><tspan y="-375.59089" x="72 78.272739 88.363658 97.429119 103.70185 110.67277 115.625499 120.50186 123.981868 128.85823 135.82915 140.70552 144.18552 150.45825 157.42917 163.52736 171.18555 180.6001 186.3492 193.32012 199.4183 202.90921 212.25832 220.83287 226.00379 232.27652 237.1529 243.77472 249.34928 255.62201">19ConstitutionalRepairProtocol</tspan></text>
<text xml:space="preserve" transform="matrix(1 0 -0 1 0 792)" font-size="10.9091" font-family="LMRoman10" font-weight="bold"><tspan y="-375.59089" x="527.4441 533.7168">51</tspan></text>
<text xml:space="preserve" transform="matrix(1 0 -0 1 0 792)" font-size="10.9091" font-family="LMRoman10"><tspan y="-362.04188" x="88.364 93.81855 99.2731 102.30583 113.45493 120.88403 126.94949 131.22586 137.59677 143.05132 147.3495">19.1Purpose</tspan></text>
<text xml:space="preserve" transform="matrix(1 0 -0 1 0 792)" font-size="10.9091" font-family="LMRoman10"><tspan y="-362.04188" x="159.60044 168.0877 176.57498 185.06226 193.54953 202.0368 210.52408 219.00045 227.48772 235.97499 244.46227 252.94954 261.43684 269.9241 278.41139 286.89866 295.38594 303.8732 312.36048 320.84776 329.33503 337.8223 346.30958 354.79685 363.28413 371.7714 380.25868 388.74595 397.23323 405.7205 414.20777 422.69505 431.1823 439.6696 448.15687 456.64414 465.12049 473.60777 482.09504 490.5823 499.06959 507.55686 516.0441">...........................................</tspan></text>
<text xml:space="preserve" transform="matrix(1 0 -0 1 0 792)" font-size="10.9091" font-family="LMRoman10"><tspan y="-362.04188" x="529.2114 534.66598">51</tspan></text>
<text xml:space="preserve" transform="matrix(1 0 -0 1 0 792)" font-size="10.9091" font-family="LMRoman10"><tspan y="-348.49287" x="88.364 93.81855 99.2731 102.30583 113.06221 120.03313 124.309497 127.342227 132.79677 138.25131 143.10587 151.01497 158.89134 164.9568 169.23317 174.08773 178.38591 184.45137 189.90592 192.93865">19.2TriggerThreshold</tspan></text>
<text xml:space="preserve" transform="matrix(1 0 -0 1 0 792)" font-size="10.9091" font-family="LMRoman10"><tspan y="-348.49287" x="202.03684 210.52411 219.01139 227.49866 235.98593 244.4623 252.94957 261.43687 269.92414 278.4114 286.89869 295.38597 303.87324 312.3605 320.84779 329.33506 337.82234 346.3096 354.79689 363.28416 371.77143 380.2587 388.74598 397.23326 405.72053 414.2078 422.69508 431.18235 439.66963 448.1569 456.64418 465.13145 473.6187 482.106 490.58235 499.0696 507.5569 516.0441">......................................</tspan></text>
<text xml:space="preserve" transform="matrix(1 0 -0 1 0 792)" font-size="10.9091" font-family="LMRoman10"><tspan y="-348.49287" x="529.2114 534.66598">51</tspan></text>
<text xml:space="preserve" transform="matrix(1 0 -0 1 0 792)" font-size="10.9091" font-family="LMRoman10"><tspan y="-334.94386" x="88.364 93.81855 99.2731 102.30583 113.45493 117.39312 123.15312 128.61859 134.36768 139.22223 144.67678 148.92041 151.95314 157.40769 167.11679 175.14589 180.00045 185.76045 191.82592 194.85865 199.13501 203.98957 213.07685 217.9314 223.6914 227.93505">19.3InvocationRequirements</tspan></text>
<text xml:space="preserve" transform="matrix(1 0 -0 1 0 792)" font-size="10.9091" font-family="LMRoman10"><tspan y="-334.94386" x="235.98596 244.47324 252.96051 261.44779 269.93507 278.42234 286.9096 295.39689 303.88417 312.37144 320.8587 329.34599 337.83326 346.32054 354.8078 363.29508 371.78236 380.26963 388.7569 397.23326 405.72053 414.2078 422.69508 431.18235 439.66963 448.1569 456.64418 465.13145 473.6187 482.106 490.59327 499.08055 507.5678 516.05508">..................................</tspan></text>
<text xml:space="preserve" transform="matrix(1 0 -0 1 0 792)" font-size="10.9091" font-family="LMRoman10"><tspan y="-334.94386" x="529.2114 534.66598">52</tspan></text>
<text xml:space="preserve" transform="matrix(1 0 -0 1 0 792)" font-size="10.9091" font-family="LMRoman10"><tspan y="-321.39485" x="88.364 93.81855 99.2731 102.30583 113.45493 119.52039 124.37494 129.82949 136.2004 144.68769 151.50588 154.5386 163.62589 166.65862 170.90225 176.3568 180.60044 183.63317 189.0877">19.4ScopeLimitation</tspan></text>
<text xml:space="preserve" transform="matrix(1 0 -0 1 0 792)" font-size="10.9091" font-family="LMRoman10"><tspan y="-321.39485" x="202.0368 210.52408 219.01136 227.49863 235.9859 244.46227 252.94954 261.43684 269.9241 278.41139 286.89866 295.38594 303.8732 312.36048 320.84776 329.33503 337.8223 346.30958 354.79685 363.28413 371.7714 380.25868 388.74595 397.23323 405.7205 414.20777 422.69505 431.1823 439.6696 448.15687 456.64414 465.1314 473.61869 482.10597 490.5823 499.06959 507.55686 516.0441">......................................</tspan></text>
<text xml:space="preserve" transform="matrix(1 0 -0 1 0 792)" font-size="10.9091" font-family="LMRoman10"><tspan y="-321.39485" x="529.2114 534.66598">52</tspan></text>
<text xml:space="preserve" transform="matrix(1 0 -0 1 0 792)" font-size="10.9091" font-family="LMRoman10"><tspan y="-307.84584" x="88.364 93.81855 99.2731 102.30583 113.45493 117.39312 123.15312 127.39676 132.25131 136.52768 139.56041 152.29134 160.47316 165.9277 170.20407 182.92409 192.92774 195.96047 200.2041 203.23683 208.69138 214.14592 218.38956 221.42229 226.87683 236.57503 243.70958 248.55323 254.6296 260.69505 263.72776 269.7932 278.8805 286.90959 291.76414 297.8296 303.28416 306.31687">19.5InterimHarmMitigationPendingRepair</tspan></text>
<text xml:space="preserve" transform="matrix(1 0 -0 1 0 792)" font-size="10.9091" font-family="LMRoman10"><tspan y="-307.84584" x="320.8587 329.34599 337.83326 346.32054 354.8078 363.29508 371.78236 380.26963 388.7569 397.24418 405.73146 414.21873 422.706 431.19328 439.68055 448.16783 456.6551 465.14237 473.62965 482.1169 490.6042 499.09147 507.57875 516.0551">........................</tspan></text>
<text xml:space="preserve" transform="matrix(1 0 -0 1 0 792)" font-size="10.9091" font-family="LMRoman10"><tspan y="-307.84584" x="529.2224 534.67697">52</tspan></text>
<text xml:space="preserve" transform="matrix(1 0 -0 1 0 792)" font-size="10.9091" font-family="LMRoman10"><tspan y="-294.29585" x="88.364 93.81855 99.2731 102.30583 113.45493 121.78949 126.64404 129.67678 134.82587 144.22953 149.68407 155.74953 165.44773 173.78227 176.815 181.11319 185.96775 189.00048 194.45502 198.7532 204.81867 209.09503">19.6DelayandDisclosure</tspan></text>
<text xml:space="preserve" transform="matrix(1 0 -0 1 0 792)" font-size="10.9091" font-family="LMRoman10"><tspan y="-294.29585" x="219.01142 227.49869 235.98596 244.47324 252.96051 261.44779 269.92414 278.4114 286.89869 295.38597 303.87324 312.3605 320.84779 329.33506 337.82234 346.3096 354.79689 363.28416 371.77143 380.2587 388.74598 397.23326 405.72053 414.2078 422.69508 431.18235 439.66963 448.1569 456.64418 465.13145 473.6187 482.106 490.59327 499.08055 507.5678 516.0442">....................................</tspan></text>
<text xml:space="preserve" transform="matrix(1 0 -0 1 0 792)" font-size="10.9091" font-family="LMRoman10"><tspan y="-294.29585" x="529.2115 534.666">53</tspan></text>
<text xml:space="preserve" transform="matrix(1 0 -0 1 0 792)" font-size="10.9091" font-family="LMRoman10"><tspan y="-280.74684" x="88.364 93.81855 99.2731 102.30583 113.45493 120.578578 126.03313 130.33132 134.57495 138.2186 146.2477 151.09134 157.16771 162.62226 165.64408 173.56409 181.59319 186.44774 192.20775 195.24048 200.09503">19.7Post-RepairReview</tspan></text>
<text xml:space="preserve" transform="matrix(1 0 -0 1 0 792)" font-size="10.9091" font-family="LMRoman10"><tspan y="-280.74684" x="219.0005 227.48778 235.97505 244.45142 252.93869 261.42597 269.91325 278.4005 286.8878 295.37507 303.86235 312.3496 320.83689 329.32417 337.81144 346.2987 354.78599 363.27326 371.76054 380.2478 388.73509 397.22236 405.70964 414.1969 422.68418 431.17146 439.65873 448.146 456.63328 465.12055 473.60783 482.0951 490.57145 499.05873 507.546 516.03329">....................................</tspan></text>
<text xml:space="preserve" transform="matrix(1 0 -0 1 0 792)" font-size="10.9091" font-family="LMRoman10"><tspan y="-280.74684" x="529.20059 534.6551">53</tspan></text>
<text xml:space="preserve" transform="matrix(1 0 -0 1 0 792)" font-size="10.9091" font-family="LMRoman10"><tspan y="-42.11183" x="303.273">4</tspan></text>
</svg>
