<svg xmlns="http://www.w3.org/2000/svg" xmlns:xlink="http://www.w3.org/1999/xlink" xmlns:inkscape="http://www.inkscape.org/namespaces/inkscape" version="1.1" width="612" height="792" viewBox="0 0 612 792">
<text xml:space="preserve" transform="matrix(1.0099504 0 -0 .99014756 0 792)" font-size="11.017651" font-family="LMRoman10"><tspan y="-716.0963" x="71.290637 79.55387 89.81131 92.874217 98.702548 102.98842 107.891269 112.21019 118.336 122.654918 127.55778 131.84365 137.35247 141.63832 144.70124 150.21007 161.08448 170.26219 175.47354 186.03946 192.47377 202.12523 207.63407 213.75988 219.2687 225.39452 229.68038 234.58324 245.45766 249.79862 255.30744 258.37034 263.2732 266.3361 276.91304 282.42185 293.2963 297.58216 303.70799 313.35945 319.48524 324.99406 329.34605 332.39793 341.4985 347.00733 355.12733 360.03019 365.53898 371.3673 376.88716 381.79 387.9158 390.97874 395.88157 402.0074 406.91023 411.81309 419.91105 424.8139 427.87315 430.93238 433.99159 438.89445 441.95735 446.86018 452.986 457.88883 462.8027 470.91169 477.0375 481.35646 486.25929 491.16215 496.06498 502.1908 507.09364 512.91098 517.1968 525.3058 530.81466">Nointerpretationmaybeadoptedsolelyonthebasisofconvenience,efficiency,precedent,or</tspan></text>
<text xml:space="preserve" transform="matrix(1 0 -0 1 0 792)" font-size="10.9091" font-family="LMRoman10"><tspan y="-695.492" x="72 75.03273 81.09819 85.39638 89.640018 92.672748 96.91638 102.98184 107.22548 110.25821 115.71276 121.77822 127.23277 133.89824 139.9637 144.24007 149.09462 152.4328 157.28736 161.56372 166.41828 172.48374 177.33829 182.19284">institutionalpreference.</tspan></text>
<text xml:space="preserve" transform="matrix(1.0099504 0 -0 .99014756 0 792)" font-size="11.017651" font-family="LMRoman10"><tspan y="-681.8863" x="71.290637 75.268009 82.47355 91.82754 96.1134 99.176319 107.91331 112.23222 117.13507 126.31278 131.82161 134.88452 141.01033 149.18544 154.69428 158.07669 162.36255 167.2544 175.41847 180.9273 187.05312 193.17893 196.24184 202.05916 205.12206 211.24787 220.59085 224.87671 231.00252 234.06543 242.25156 248.37737 251.44028 256.3431 260.66206 266.17088 270.4898 275.08418 280.91249 285.82637 292.78953 297.07539 303.2012 311.94923 321.1269 326.6357 330.9216 335.20747 340.11033 348.26338 357.1436 363.26939 367.61036 375.73039 382.15367 390.90168 395.8045 400.14549 405.0483 410.55714 413.62004 419.12886 423.41474 428.31758 438.27754 442.5634 451.90635 456.19224 462.32908 471.06605 479.02079 482.0837 487.5925 491.93348 496.27445 499.33735 502.40025 505.46318 510.366 515.8748 520.1607 523.2236 528.7324">Ifatieremainsafterapplyingthishierarchy,themattermustbeescalatedtotheClassification</tspan></text>
<text xml:space="preserve" transform="matrix(1 0 -0 1 0 792)" font-size="10.9091" font-family="LMRoman10"><tspan y="-661.619" x="72 79.12364 84.57819 90.643657 95.4982 102.17457 105.51276 110.96731 118.8764 124.941867 130.70186 135.55641 141.62187 150.70915 155.5637 161.32372 165.56735 170.4219 180.1201 184.39647 189.25102 193.54921 199.00376 202.03649 208.10195 212.34558 215.37831 220.83286 226.89832">Panelfordocumentedresolution.</tspan><tspan y="-641.29507" x="72 82.00365 88.06911 92.312747 97.767299 103.832759 106.865489 109.89822 112.93095 116.869129 122.62913 130.5164 138.69823 144.76369 149.31279 155.37825 160.8328 166.89826 172.3528 177.20735 182.6619 188.72736 191.76009">Mutability:Unchangeable</tspan></text>
<text xml:space="preserve" transform="matrix(1 0 -0 1 0 792)" font-size="11.9552" font-family="LMRoman12" font-weight="bold"><tspan y="-612.08609" x="72 78.73078 85.46156 89.203548">15.2</tspan></text>
<text xml:space="preserve" transform="matrix(1 0 -0 1 0 792)" font-size="11.9552" font-family="LMRoman12" font-weight="bold"><tspan y="-612.08609" x="106.02451 114.84745 121.38695 126.88634 130.62831 137.7297 142.2129 149.6849 154.92128 161.46077 168.19155 178.80776 189.37616 195.73633 202.45516 208.58817 214.08756 221.55956 228.09905 235.57105 241.54865 252.16486 261.3584 266.8578 270.59977 278.07179 284.04939 287.79136 295.26338 299.00535">Early-StageGovernancePrinciple</tspan></text>
<text xml:space="preserve" transform="matrix(.9899495 0 -0 1.0101526 0 792)" font-size="10.799458" font-family="LMRoman10"><tspan y="-585.5481" x="72.33399 80.131198 86.1357 94.46208 99.86181 104.94836 110.34808 115.15384 119.38723 125.39173 130.79148 136.79598 141.60173 149.92812 153.23276 157.46614 162.86588 171.86182 176.66759 184.1516 189.55133 193.78472 203.00746 208.40718 215.23246 223.33205 228.1378 239.44484 247.69562 253.09535 258.4951 263.8948 268.70057 272.93394 275.9362 281.3359 287.3404 296.8655 299.86778 307.64338 310.64564 316.34776 320.5487 325.35447 331.04579 335.24678 338.249 343.64875 349.65324 355.05296 358.0552 361.05747 370.28019 376.2847 381.09043 385.34544 388.34767 393.7474 399.7519 404.55766 414.08277 418.28373 427.1933 433.51097 441.8373 445.14198 451.14646 454.1487 457.15098 466.36289 471.76264 478.0803 482.88606 487.11943 492.51914 496.72013 499.72239 505.1221 511.1266 516.5263 523.0384 529.04287 533.2763 536.2785 541.6782">ThegovernanceframeworkofNewDoggerlandisintentionallydesignedtobefullyoperationalprior</tspan></text>
<text xml:space="preserve" transform="matrix(1.0014988 0 -0 .9985033 0 792)" font-size="10.925451" font-family="LMRoman10"><tspan y="-578.81027" x="71.89225 76.14225 85.2213 90.68403 94.96681 100.42954 105.892269 111.96682 115.0041 119.86592 125.32865 129.57866 132.61594 138.07866 144.15322 149.61594 156.28046 160.5851 165.44692 170.90964 173.94692 182.42507 187.8878 195.78691 200.06969 204.93152 211.00608 217.08061 221.33063 226.79335 231.04337 234.08063 239.54337 245.61792 251.08066 257.73426 266.83515 272.29789 276.54789 282.62245 286.90519 289.94248 293.8975 298.7593 306.62565 314.5138 320.58836 323.62565 331.5575 335.86213 340.72395 346.49259 352.56715 357.42897 363.50349 368.36534 371.4026 377.47715 386.55619 390.83897 395.70079 398.73805 401.77534 406.63716 411.49897 415.749 423.6699 427.91993 433.99446 442.48353 448.55809 452.84086 455.87815 461.95268 466.8145 469.85179 475.92634 478.96363 487.44175 491.69178 497.7663 503.22904 511.09538 515.4 520.86276 524.2059 529.06777 533.02279 537.88467">toorganizationalscaleorreputationalmaturity.Thissequencingreflectstheprinciplethatsafety,</tspan></text>
<text xml:space="preserve" transform="matrix(1 0 -0 1 0 792)" font-size="10.9091" font-family="LMRoman10"><tspan y="-564.395" x="72 77.45455 82.3091 87.16365 92.6182 98.68366 104.443668 108.6873 114.14185 120.20731 123.24004 126.27277 129.3055 133.24369 138.09824 144.7637 150.21825 156.2837 165.99282 170.84737 176.30191 182.06192 186.30556 190.58193 196.03647 202.70194 211.49468 217.56014 221.85832 229.7347 235.80016 240.07653 244.93108 249.78563 254.64019 260.70564 269.1929 274.64747 278.92384 284.07295 291.9493 296.19297 305.90208 310.17845 315.633 319.87666 325.9421 330.79667 338.70576 342.9494 349.01487 354.46943 364.1676 367.5058 372.96037 375.99308 379.0258 384.1858 395.6949 398.7276 402.97126">accountability,andcontrolmustprecedegrowthratherthanfollowit.</tspan></text>
<text xml:space="preserve" transform="matrix(1.006479 0 -0 .99356278 0 792)" font-size="10.979779" font-family="LMRoman10"><tspan y="-547.59597" x="71.53651 77.80596 83.91072 88.181858 94.286609 98.59068 107.08903 113.19379 118.07979 122.96578 126.018169 130.3442 133.39658 138.88646 144.99123 152.92961 157.23369 162.11969 167.60958 173.09946 177.40352 183.50829 186.56067 192.66544 201.76767 206.65367 212.451 218.55577 224.04564 230.1504 234.47644 237.52883 243.0187 249.12348 255.79918 259.159 265.26377 271.36854 277.4733 280.52568 286.63044 295.73265 300.0587 304.3298 308.63389 314.73866 319.62467 323.89579 330.00056 334.30464 339.19065 345.85536 351.3452 359.26167 364.75154 371.16374 376.0497 380.35383 385.8437 390.1148 393.16719 398.65708 404.76185 410.2517 416.9164 421.18754 426.07356 435.2197 441.6209 450.72315 455.04917 461.16493 466.6548 469.6962 476.37187 482.77308 491.27143 496.15745 501.3509 506.8408 509.89317 515.99789 521.48776 525.7589 530.6449">Futuredecisionsregardingexpansion,fundingstructure,oroperationaltemposhallbeevaluated</tspan></text>
<text xml:space="preserve" transform="matrix(1.0099504 0 -0 .99014756 0 792)" font-size="11.017651" font-family="LMRoman10"><tspan y="-535.80099" x="71.290637 76.79946 82.30829 87.817119 90.88003 97.00584 101.346797 109.400699 113.68656 119.81238 122.87528 130.98427 137.11008 141.429 144.49192 150.61772 155.52059 158.58348 164.7093 167.7722 172.67507 179.53907 187.4938 190.5567 194.84258 204.73642 210.86223 215.18115 220.084 223.45542 228.35828 232.67719 237.58005 243.70586 248.60872 257.27964 262.7774 265.84034 271.36018 276.263 286.15687 290.44276 299.7196 305.84544 310.16438 315.0672 319.40818 324.311 328.62995 334.44728 337.51017 343.636 352.91285 358.41065 363.62199 369.1418 374.04466 378.3636 384.4894 389.9982 396.12403 401.0269 409.69776 412.76069 418.578 422.86387 427.76673 433.27555 437.59446 440.65739 444.64576 454.23115 459.44248 464.95133 469.85417 477.94114 483.44996 488.3528 493.25566 498.15849 501.2214 506.12425 510.44319 515.952 520.23788 523.3008 529.4266">againstthisprinciple,withpreferencegiventopreservinggovernanceintegrityoveraccelerating</tspan></text>
<text xml:space="preserve" transform="matrix(1 0 -0 1 0 792)" font-size="10.9091" font-family="LMRoman10"><tspan y="-516.973" x="72 77.45455 83.52001 87.76365 92.618198 98.07275 107.16003 112.01457 116.31276">outcomes.</tspan></text>
<text xml:space="preserve" transform="matrix(1 0 -0 1 0 792)" font-size="14.3462" font-family="LMRoman12" font-weight="bold"><tspan y="-482.605" x="72 80.07691">16</tspan></text>
<text xml:space="preserve" transform="matrix(1 0 -0 1 0 792)" font-size="14.3462" font-family="LMRoman12" font-weight="bold"><tspan y="-482.605" x="100.26202 109.05624 116.90361 121.393978 125.88434 134.85071 141.44997 154.18939 166.81406 174.66143 183.62779 192.59416 197.08452 201.57488 210.54125">FailureHandling</tspan></text>
<text xml:space="preserve" transform="matrix(1.0099504 0 -0 .99014756 0 792)" font-size="11.017651" font-family="LMRoman10"><tspan y="-462.81489" x="71.290637 81.39382 84.456729 88.79768 93.08355 98.59238 104.11222 109.015079 118.435169 123.943988 128.26291 138.24489 143.13674 148.95406 155.38837 160.29123 165.19409 169.47995 174.38282 180.50862 192.80432 200.60482 206.11365 212.23946 215.90833 219.27974 224.78856 227.85147 232.13733 243.34229 248.85112 253.75399 258.03987 261.10276 266.61158 272.7374 277.07835 285.58399 290.48686 295.99565 302.12147 307.0243 311.92716 317.43598 320.49888 329.67658 334.5794 340.40776 344.6936 353.19926 358.70808 368.1061 372.42506 377.3279 381.61378 387.1226 390.1855 393.2484 398.75724 403.0431 406.106 411.6148 422.81977 428.32859 432.6475 442.6295 448.75529 453.07423 458.58305 464.70887 467.77177 473.89759 476.96049 481.24638 486.1492 492.27503 504.57075 512.0737 516.39266 520.71157 526.2204 530.5393">Mistakesareexpected.Bad-faithactions,concealment,orretaliationareprohibited.Errors</tspan></text>
<text xml:space="preserve" transform="matrix(1 0 -0 1 0 792)" font-size="10.9091" font-family="LMRoman10"><tspan y="-444.706" x="72 77.45455 83.52001 89.58547 93.86184 98.716388 103.01457 107.31276 112.16731 121.8655 126.10914 130.3855 135.84004 141.9055 146.2146 152.28006 157.7346 162.01097 166.85462 172.62554 176.86917 179.9019 189.29465 198.07648 204.14194 208.44013 216.32741 222.39287 227.84741 235.72379 242.0947 250.58199 256.64744 262.7129 268.77836 271.81108 276.10926 282.1747 287.02928 296.73838 301.03657 306.49113 309.52384 314.3784 317.4111 326.80384 330.14204 335.5966 343.50569 349.2657 354.12025 358.9748 365.04026 369.31663 373.593 378.44755 384.513 389.36756 394.2221">addressedtransparentlymustnotbepunishedsolelyforoccurrence.</tspan><tspan y="-424.382" x="72 82.00365 88.06911 92.312747 97.767299 103.832759 106.865489 109.89822 112.93095 116.869129 122.62913 130.5164 138.5455 143.40006 149.16007 152.1928 156.49098 161.94553 168.01099 171.04372">Mutability:Revisable</tspan></text>
<text xml:space="preserve" transform="matrix(1 0 -0 1 0 792)" font-size="14.3462" font-family="LMRoman12" font-weight="bold"><tspan y="-390.01399" x="72 80.07691">17</tspan></text>
<text xml:space="preserve" transform="matrix(1 0 -0 1 0 792)" font-size="14.3462" font-family="LMRoman12" font-weight="bold"><tspan y="-390.01399" x="100.26202 109.22839 115.51203 122.871639 134.09037 141.93773 148.53699 157.50336 163.87308 172.83945 177.3298 191.676 199.52336 208.48973 222.83592 233.40908 240.76868 247.36794 260.82469 268.67207 277.63844 284.99803 293.9644 301.13749 313.8769 325.54035 333.61726 342.58363 348.95335 355.23698 361.8362 369.6836 374.17396 382.6956 388.97923">StewardshipandPermanenceConstraints</tspan></text>
<text xml:space="preserve" transform="matrix(1 0 -0 1 0 792)" font-size="10.9091" font-family="LMRoman10"><tspan y="-365.66398" x="72">&#x2022;</tspan></text>
<text xml:space="preserve" transform="matrix(1 0 -0 1 0 792)" font-size="10.9091" font-family="LMRoman10"><tspan y="-365.66398" x="85.94183 92.76002 98.21457 104.28003 109.73458 113.36731 121.54913 127.003688 131.28006 134.31279 139.16735 144.62189 154.32009 162.65464 168.7201 172.66919 178.4292 186.30558 194.4874 203.57468 207.87287 213.93833 219.39287 223.66924 227.91287 231.54561 235.78925 240.6438 244.92017 257.6511 263.10566 268.5602 271.59294 277.6584 285.5893 290.7384 296.20387 301.0584 308.9675 312.0002 317.45478 323.52024 328.9748 332.6075 336.85118 341.70573 345.9821 358.7021 363.00028 367.24394 372.09849 379.6694 385.12397 389.40034 395.4658 399.76399 405.82945 408.86216">Long-HorizonDuty:Noshort-termgainsoverlong-termstewardship</tspan></text>
<text xml:space="preserve" transform="matrix(1 0 -0 1 0 792)" font-size="10.9091" font-family="LMRoman10"><tspan y="-343.34797" x="72">&#x2022;</tspan></text>
<text xml:space="preserve" transform="matrix(1 0 -0 1 0 792)" font-size="10.9091" font-family="LMRoman10"><tspan y="-343.34797" x="85.94183 94.12366 99.57821 105.64367 109.2764 116.7055 122.4655 126.70914 130.9855 136.44005 141.2946 145.53824 148.57097 154.02553 162.52373 169.95282 174.22919 177.26192 183.32738 188.18193 191.20375 197.28012 200.31285 205.1565 213.04378 221.2256 230.31288 234.61107 238.8547 243.13108 249.19654 254.05109 258.29475 264.3602 268.63658 277.13478 286.22206 291.37117 300.7639 305.61845 311.37846 315.6221 319.89848 325.35304 330.20759 338.08396 343.24397 348.69853 351.73124 357.7967 366.28398 369.62217 373.89854 379.3531 392.0731 395.1058 400.56037 406.62583 412.69129 419.36766 424.8222 430.88768 433.92039 443.00767 448.46223 451.49494 455.79313 462.45857 467.91313 475.8222 482.1931 487.04768 492.50224 498.5677 501.6004">Non-ExtractivePrinciple:Nostructuremayextractvaluefromland,animals,orpeople</tspan></text>
<text xml:space="preserve" transform="matrix(1 0 -0 1 0 792)" font-size="10.9091" font-family="LMRoman10"><tspan y="-321.03196" x="72">&#x2022;</tspan></text>
<text xml:space="preserve" transform="matrix(1 0 -0 1 0 792)" font-size="10.9091" font-family="LMRoman10"><tspan y="-321.03196" x="85.94183 95.94548 101.40003 104.43276 110.192768 114.4364 119.290958 125.356418 130.81096 136.87642 141.73097 150.22917 158.71645 164.7819 167.81464 170.84737 176.30191 181.75646 186.00009 189.03282 194.48737 200.55283 208.4292 216.61103 225.6983 231.15285 237.2183 242.67285 248.73831 252.98195 256.01469 261.46925 271.17835 276.6329 283.60383 289.05839 293.35658 297.65476 302.5093 306.75297 314.6948 318.93846 325.0039 330.45848 338.33485 343.1894 348.64396 354.7094 357.74214 365.6185 371.9894 380.47669 384.75306 389.6076 395.06217 399.36036 404.8149 410.88038 416.33494 422.4004 425.4331 434.83677 443.92405 449.3786 452.41133 458.17134 462.41499 467.86955 470.90226 476.9677 481.82228">MaintenanceObligation:Noadoptionofassetsthatcan&#x2019;tbereasonablymaintained</tspan></text>
<text xml:space="preserve" transform="matrix(1 0 -0 1 0 792)" font-size="10.9091" font-family="LMRoman10"><tspan y="-298.71498" x="72">&#x2022;</tspan></text>
<text xml:space="preserve" transform="matrix(1 0 -0 1 0 792)" font-size="10.9091" font-family="LMRoman10"><tspan y="-298.71498" x="85.94183 94.27638 100.34184 104.61821 110.07276 116.13822 119.17095 122.20368 125.23641 129.1746 138.57826 146.00736 150.28372 155.13828 158.47646 163.33101 167.59647 172.45102 178.51648 183.37104 188.22559 196.11287 202.32015 207.48015 212.93471 218.38925 226.29836 230.57472 235.42928 241.49474 246.94928 249.98201 254.25838 259.71293 265.77839 268.8111 277.29838 282.75294 288.8184 298.5275 304.59297 310.65843 314.93479 320.38935 326.4548 329.48753 337.9748 343.42936 349.4948 353.73847 356.77119 362.22575 368.2912">DurabilityPreference:Favorrepairableanddurableoptions</tspan></text>
<text xml:space="preserve" transform="matrix(1 0 -0 1 0 792)" font-size="10.9091" font-family="LMRoman10"><tspan y="-276.39897" x="72">&#x2022;</tspan></text>
<text xml:space="preserve" transform="matrix(1 0 -0 1 0 792)" font-size="10.9091" font-family="LMRoman10"><tspan y="-276.39897" x="85.94183 92.00729 96.25093 101.105487 108.6764 114.13095 118.40732 124.47278 128.77097 134.83643 137.86916 147.57826 156.06554 161.5201 166.37465 174.28376 182.77103 188.83649 193.08013 196.11286 205.20014 208.23287 213.08742 218.54196 222.7856 225.81833 231.27288 237.33834 245.22562 253.10199 258.55656 262.85475 270.7311 276.18568 284.09477 289.54933 293.82569 298.9748 306.85118 311.09483 320.80393 325.65849 331.11305 337.1785 343.24397 348.69853 356.5749 361.724 367.18946 372.044 376.32038 380.59675 383.61857 389.69493 398.1822 403.03675 408.4913 412.76768 421.25495 427.3204 433.38587 437.62953 440.66224 445.51679">StewardshipOverOptimization:Costorgrowthcannotoverridecoreduties</tspan></text>
<text xml:space="preserve" transform="matrix(1 0 -0 1 0 792)" font-size="10.9091" font-family="LMRoman10"><tspan y="-254.08296" x="72">&#x2022;</tspan></text>
<text xml:space="preserve" transform="matrix(1 0 -0 1 0 792)" font-size="10.9091" font-family="LMRoman10"><tspan y="-254.08296" x="85.53819 93.41456 99.48002 104.93457 111.00003 115.24367 118.2764 123.74185 132.22914 140.10552 145.56006 154.64734 160.7128 163.74553 166.77826 172.2328 178.29827 183.15282 188.00737 195.88375 205.88739 210.74195 214.98558 221.05104 226.81104 232.8765 240.80742 249.8947 255.0547 264.44743 268.99653 275.06199 280.51655 286.582 292.03657 296.8911 303.55656 309.622 315.69837 323.57475 329.6402 335.09477 339.37113 348.4584 356.3893 365.4766 370.6257 380.02937 386.09483 391.54939 399.42576 405.79667 414.28395 419.7385 422.7712 425.80393 430.95304 438.53486 443.3894">AdaptiveCompliance:Methodsmaychange,butharmsmaynotbeallowed</tspan><tspan y="-227.78096" x="72 82.00365 88.06911 92.312747 97.767299 103.832759 106.865489 109.89822 112.93095 116.869129 122.62913 130.5164 138.69823 144.76369 149.31279 155.37825 160.8328 166.89826 172.3528 177.20735 182.6619 188.72736 191.76009">Mutability:Unchangeable</tspan></text>
<text xml:space="preserve" transform="matrix(1 0 -0 1 0 792)" font-size="14.3462" font-family="LMRoman12" font-weight="bold"><tspan y="-193.41297" x="72 80.07691">18</tspan></text>
<text xml:space="preserve" transform="matrix(1 0 -0 1 0 792)" font-size="14.3462" font-family="LMRoman12" font-weight="bold"><tspan y="-193.41297" x="100.26202 111.925479 116.41584 124.263217 130.63294 137.00266 141.49301 145.9762 150.45938 157.63248 165.47985 171.76348 176.25383 184.33074 193.2971 203.16728 215.36156 221.96082 230.92719 235.41754 241.70117 248.30043 256.1478 262.43144 266.92179 274.9987 283.96507 293.83525 301.68263 310.649 324.99519 336.73039 343.90348 351.07658 359.15348 368.11985 376.64149 382.9251 390.7725 399.73887 404.22923 408.71958 413.20994 419.04884">Classification,Arbitration,andAccountability</tspan></text>
<text xml:space="preserve" transform="matrix(1 0 -0 1 0 792)" font-size="11.9552" font-family="LMRoman12" font-weight="bold"><tspan y="-166.47296" x="72 78.73078 85.46156 89.203548">18.1</tspan></text>
<text xml:space="preserve" transform="matrix(1 0 -0 1 0 792)" font-size="11.9552" font-family="LMRoman12" font-weight="bold"><tspan y="-166.47296" x="106.02451 115.80386 121.78146 127.017848 130.75983 137.4906 149.4458 159.16538 162.90735 169.44684 174.76689 180.075 183.81697 187.55298 191.28897 197.26657 203.80606 209.04244 212.78441 219.51519">ActionClassification</tspan></text>
<text xml:space="preserve" transform="matrix(1 0 -0 1 0 792)" font-size="10.9091" font-family="LMRoman10"><tspan y="-145.88097" x="71.596 79.777828 82.810558 89.47601 98.56329 104.017848 108.26148 113.11603 117.392398 120.425128 125.87968 132.55605 138.01059 142.85424 147.09787 150.1306 155.58515 161.6506 169.59244 178.37427 184.43973 188.73792 196.6252 202.9852 211.4834 216.33795 219.37068 224.82523 229.12342 233.4216 236.45433 239.48706 242.51979 247.37435 257.07255 262.5271 270.458 280.46165 283.49436 287.79255 292.0362 297.49076 302.9562 307.81077 314.4762 322.65803 325.69075 331.1453 334.178 339.63258 343.87623 346.90895 352.3635 358.42897 365.0944 370.54896 378.45805 386.63987 392.71623 398.78169 403.07987 407.93443">AllmaterialactionsmustbeclassifiedasMistake,Violation,orAbuse.</tspan><tspan y="-125.55697" x="72 82.00365 88.06911 92.312747 97.767299 103.832759 106.865489 109.89822 112.93095 116.869129 122.62913 130.5164 138.69823 144.76369 149.31279 155.37825 160.8328 166.89826 172.3528 177.20735 182.6619 188.72736 191.76009">Mutability:Unchangeable</tspan></text>
<text xml:space="preserve" transform="matrix(1 0 -0 1 0 792)" font-size="10.9091" font-family="LMRoman10"><tspan y="-42.11197" x="300.54499 305.99955">46</tspan></text>
</svg>
