<svg xmlns="http://www.w3.org/2000/svg" xmlns:xlink="http://www.w3.org/1999/xlink" xmlns:inkscape="http://www.inkscape.org/namespaces/inkscape" version="1.1" width="612" height="792" viewBox="0 0 612 792">
<text xml:space="preserve" transform="matrix(1 0 -0 1 0 792)" font-size="10.9091" font-family="LMRoman10"><tspan y="-709.041" x="72">&#x2022;</tspan></text>
<text xml:space="preserve" transform="matrix(1 0 -0 1 0 792)" font-size="10.9091" font-family="LMMono10"><tspan y="-709.041" x="85.658199 91.385478 97.112758 102.840038 108.567317 114.29459 120.02187 125.74915 131.47643 137.2037 142.93099 148.65827 154.38555 160.11283 165.8401 171.56739 177.29467 183.02194 188.74922 194.4765">ASSET.SAFETY.SIGNAGE</tspan></text>
<text xml:space="preserve" transform="matrix(.99146357 0 -0 1.00861 0 792)" font-size="10.815974" font-family="LMRoman10"><tspan y="-676.9118" x="72.61992 79.9856 88.99531 93.80841 98.04827 103.45626 108.26936 114.28305 119.09615 128.49524 133.90323 139.9169 144.12432 150.138 155.54598 159.78585 162.79268 166.69725 176.08551 184.79238 190.80605 195.06754 202.96321 208.97689 214.38486 222.28054 227.6885 233.70218 237.90959 243.92328 249.33126 253.57112 256.57798 261.39106 269.89244 274.70558 280.11357 286.12724 289.13407 293.3415 298.74949 305.44456 314.45429 320.1651 326.17878 329.1856 332.19245 335.19929 340.01243 345.4204 349.6278 352.63468 358.04264 364.0563 370.7514 374.99128 379.8044 385.81809 388.82493 394.2329 399.04603 403.85914 412.86885 417.68199 423.3928 427.60023 434.29533 439.7033 447.6314 453.6451 457.88499 463.5958 468.4089 474.4226 478.66249 483.4756 492.4853 497.2984 503.00926 510.90495 517.22146 522.03457 527.44259 532.8506 538.86428">Emergencyauthoritymustnotauthorizecapitalmodification,replacement,orprocurementbeyond</tspan></text>
<text xml:space="preserve" transform="matrix(1 0 -0 1 0 792)" font-size="10.9091" font-family="LMRoman10"><tspan y="-669.191" x="72 78.06546 82.34183 87.19638 90.82911 96.28366 102.34912 108.41458 112.69095 117.84004 123.294589 128.14914 137.85825 143.31279 148.76734 153.0437 157.89826 162.7528 171.84009 176.69464 182.45465 186.69829 190.99648">pre-approvedagreements.</tspan></text>
<text xml:space="preserve" transform="matrix(1 0 -0 1 0 792)" font-size="14.3462" font-family="LMRoman12" font-weight="bold"><tspan y="-634.82199" x="72">7</tspan></text>
<text xml:space="preserve" transform="matrix(1 0 -0 1 0 792)" font-size="14.3462" font-family="LMRoman12" font-weight="bold"><tspan y="-634.82199" x="92.185108 98.19616 107.16254 112.54236 121.508739 128.68184 136.75875 146.16985 158.90927 167.87564 176.39728 182.767 189.05063 196.41024 209.86698">In-ScopeSystems</tspan></text>
<text xml:space="preserve" transform="matrix(1 0 -0 1 0 792)" font-size="10.9091" font-family="LMRoman10"><tspan y="-610.47299" x="72 79.4291 88.51638 93.370929 97.64729 103.101848 107.95639 114.02185 118.8764 128.26914 133.72368 139.78914 144.03278 150.09824 155.55278 159.82915 162.86188 166.81098 176.20372 185.291 190.4401 199.83284 205.28739 208.46739 211.64739 216.50194 221.35649 229.24378 233.48741 239.55287 248.04016 251.37834 256.8329 259.8656 262.89833 268.04743 275.9238 278.9565 285.02198 294.12019 298.41838 304.17839 308.47657 312.7202 317.57478 326.66206 330.96025">Emergencyauthoritymayaffectthefollowingsystems:</tspan></text>
<text xml:space="preserve" transform="matrix(1 0 -0 1 0 792)" font-size="10.9091" font-family="LMRoman10"><tspan y="-584.17196" x="72">&#x2022;</tspan></text>
<text xml:space="preserve" transform="matrix(1 0 -0 1 0 792)" font-size="10.9091" font-family="LMMono10"><tspan y="-584.17196" x="85.94183 91.66911 97.39639 103.12367 108.85095 114.57823 120.30551 126.03279 131.76007 137.48735 143.21463 148.94191 154.66919 160.39647 166.12375 171.85103 177.57831 183.30559 189.03287 194.76015 200.48743">SYSTEM.ACCESS_CONTROL</tspan></text>
<text xml:space="preserve" transform="matrix(1 0 -0 1 0 792)" font-size="10.9091" font-family="LMRoman10"><tspan y="-561.8549" x="72">&#x2022;</tspan></text>
<text xml:space="preserve" transform="matrix(1 0 -0 1 0 792)" font-size="10.9091" font-family="LMMono10"><tspan y="-561.8549" x="85.94183 91.66911 97.39639 103.12367 108.85095 114.57823 120.30551 126.03279 131.76007 137.48735 143.21463 148.94191 154.66919 160.39647 166.12375 171.85103 177.57831 183.30559 189.03287 194.76015 200.48743 206.2147">SYSTEM.LOGGING_PRIMARY</tspan></text>
<text xml:space="preserve" transform="matrix(1 0 -0 1 0 792)" font-size="10.9091" font-family="LMRoman10"><tspan y="-539.53897" x="72">&#x2022;</tspan></text>
<text xml:space="preserve" transform="matrix(1 0 -0 1 0 792)" font-size="10.9091" font-family="LMMono10"><tspan y="-539.53897" x="85.94183 91.66911 97.39639 103.12367 108.85095 114.57823 120.30551 126.03279 131.76007 137.48735 143.21463 148.94191 154.66919 160.39647 166.12375 171.85103 177.57831 183.30559 189.03287 194.76015 200.48743 206.2147">SYSTEM.LOGGING_OFFLINE</tspan></text>
<text xml:space="preserve" transform="matrix(1 0 -0 1 0 792)" font-size="10.9091" font-family="LMRoman10"><tspan y="-513.2379" x="72 78.06546 83.82546 88.12365 92.36729 97.22183 109.94184 115.39639 120.250949 125.1055 129.96006 134.25824 142.20008 148.26554 154.331 160.39646 165.251 173.16011 178.01467 187.10195 191.9565 196.23287 201.68741 206.54196 212.60742 217.46198 226.85472 232.30927 238.37473 242.61837 248.68383 254.13837 258.41474 261.44746 265.38566 274.7893 283.57115 289.6366 293.93479 298.17845">Systemaccessunderemergencyauthoritymust:</tspan></text>
<text xml:space="preserve" transform="matrix(1 0 -0 1 0 792)" font-size="10.9091" font-family="LMRoman10"><tspan y="-486.9359" x="72">&#x2022;</tspan></text>
<text xml:space="preserve" transform="matrix(1 0 -0 1 0 792)" font-size="10.9091" font-family="LMRoman10"><tspan y="-486.9359" x="85.94183 92.31275 100.800029 105.04366 108.07639 117.16367 122.01822 125.65095 128.68367 131.7164 140.80368 143.83641 148.08005 152.9346 159.00006">betime-limited,</tspan></text>
<text xml:space="preserve" transform="matrix(1 0 -0 1 0 792)" font-size="10.9091" font-family="LMRoman10"><tspan y="-464.6199" x="72">&#x2022;</tspan></text>
<text xml:space="preserve" transform="matrix(1 0 -0 1 0 792)" font-size="10.9091" font-family="LMRoman10"><tspan y="-464.6199" x="85.94183 92.00729 96.28366 101.138217 105.4364 110.290958 114.56732 120.021869 128.50916 133.9637 140.02916 146.10553 149.13826 153.3819 158.83644 164.9019 167.93463 170.96736 173.98918 177.93828 182.78192">preserveauditability,</tspan></text>
<text xml:space="preserve" transform="matrix(1 0 -0 1 0 792)" font-size="10.9091" font-family="LMRoman10"><tspan y="-442.3039" x="72">&#x2022;</tspan></text>
<text xml:space="preserve" transform="matrix(1 0 -0 1 0 792)" font-size="10.9091" font-family="LMRoman10"><tspan y="-442.3039" x="85.94183 90.2182 95.072757 100.5273 105.38185 109.65822 117.534587 122.989139 129.0546 133.29824 138.75278 147.84006 153.2946 157.53824 160.57097 165.42552 170.88007 173.9128 176.94553 186.34918 192.41464 198.78556 204.2401 213.9383 218.23648 222.48012 227.93466 237.63286 242.48741 247.94196 254.00742 260.07289 263.1056 267.34925 270.38197 275.83653 281.90199">revertautomaticallyuponstopcondition.</tspan></text>
<text xml:space="preserve" transform="matrix(1 0 -0 1 0 792)" font-size="14.3462" font-family="LMRoman12" font-weight="bold"><tspan y="-407.9349" x="72">8</tspan></text>
<text xml:space="preserve" transform="matrix(1 0 -0 1 0 792)" font-size="14.3462" font-family="LMRoman12" font-weight="bold"><tspan y="-407.9349" x="92.185108 102.7726 111.29424 120.26062 124.750988 129.24135 136.41445 140.9048 152.56826 163.15575 171.67739 178.85048 183.34084 192.3072 198.67693 203.16728 211.24419 220.21056">ExplicitExclusions</tspan></text>
<text xml:space="preserve" transform="matrix(1 0 -0 1 0 792)" font-size="10.9091" font-family="LMRoman10"><tspan y="-383.5859" x="72 79.4291 88.51638 93.370929 97.64729 103.101848 107.95639 114.02185 118.8764 128.26914 133.72368 139.78914 144.03278 150.09824 155.55278 159.82915 162.86188 166.81098 176.20372 184.98555 191.05101 195.3492 203.22557 209.30194 214.75649 222.63286 229.00377 237.49106 242.34561 248.10562 252.96018 257.23655 262.0911 265.1238 269.422 274.27656 283.97474 291.8511 294.88383 299.12748 308.83659 313.10206 317.9566 322.2548 328.6257 333.48027 338.3348 346.2221 350.46577 355.92033">Emergencyauthoritymustnotbeexercisedwithrespectto:</tspan></text>
<text xml:space="preserve" transform="matrix(1 0 -0 1 0 792)" font-size="10.9091" font-family="LMRoman10"><tspan y="-357.2849" x="72">&#x2022;</tspan></text>
<text xml:space="preserve" transform="matrix(1 0 -0 1 0 792)" font-size="10.9091" font-family="LMRoman10"><tspan y="-357.2849" x="85.94183 88.97456 92.00729 98.072757 103.527309 109.592769 114.44731 117.48004 122.93459 129.60005 135.0546 139.90915 144.7637 150.21825 156.2837 162.05463 166.29827 174.22919 179.68373 187.59284 193.6583 199.11284 205.1783 210.93831 213.97104 220.0365 229.13469 233.43288 239.19289 243.49108 247.73471 252.58927 261.67655 265.97474">financialaccountsorbankingsystems,</tspan></text>
<text xml:space="preserve" transform="matrix(1 0 -0 1 0 792)" font-size="10.9091" font-family="LMRoman10"><tspan y="-334.96794" x="72">&#x2022;</tspan></text>
<text xml:space="preserve" transform="matrix(1 0 -0 1 0 792)" font-size="10.9091" font-family="LMRoman10"><tspan y="-334.96794" x="85.94183 90.79639 96.25094 102.01094 106.25458 110.530948 115.9855 120.84004 125.08368 133.02552 138.48006 146.38916 151.84372 156.69828 162.76374 168.8292 174.28374 182.19284 187.0474 192.50194 201.58922 210.6765 213.70923 217.95287 227.04015 231.8947 237.66562 241.90926 246.20745">contractsorvendorcommitments,</tspan></text>
<text xml:space="preserve" transform="matrix(1 0 -0 1 0 792)" font-size="10.9091" font-family="LMRoman10"><tspan y="-312.65193" x="72">&#x2022;</tspan></text>
<text xml:space="preserve" transform="matrix(1 0 -0 1 0 792)" font-size="10.9091" font-family="LMRoman10"><tspan y="-312.65193" x="85.94183 90.79639 96.25094 105.33822 111.70914 116.56369 122.62915 126.92734 132.38188 136.62552 139.65825 145.1128 151.17826 157.84372 163.90918 169.05828 174.81829 179.09465 184.5492 187.58193 190.61466 197.29103 202.74558 210.65468 217.02559 221.88014 227.9456 232.80016 235.83289 238.86562 243.10926 247.40744">compensation,payroll,orbenefits,</tspan></text>
<text xml:space="preserve" transform="matrix(1 0 -0 1 0 792)" font-size="10.9091" font-family="LMRoman10"><tspan y="-290.3359" x="72">&#x2022;</tspan></text>
<text xml:space="preserve" transform="matrix(1 0 -0 1 0 792)" font-size="10.9091" font-family="LMRoman10"><tspan y="-290.3359" x="85.94183 92.00729 97.461849 101.70548 110.79276 115.09095 120.85095 125.14914 129.39278 134.24733 143.33461 151.27645 157.3419 162.79645 170.67282 175.52738 181.28739 187.35285 190.38558 193.4183 198.27286 201.30559 205.54923 208.58196 217.9747 221.00743 224.04016 228.33835 232.58199 237.43654 247.14565 252.60019 260.5311 263.5638 269.62928 273.262 277.56019 282.41474 287.8693 294.2402 299.09477">datasystemsnotexplicitlylistedasin-scope,</tspan></text>
<text xml:space="preserve" transform="matrix(1 0 -0 1 0 792)" font-size="10.9091" font-family="LMRoman10"><tspan y="-268.01893" x="72">&#x2022;</tspan></text>
<text xml:space="preserve" transform="matrix(1 0 -0 1 0 792)" font-size="10.9091" font-family="LMRoman10"><tspan y="-268.01893" x="85.94183 91.396389 96.54548 102.00002 106.85457 111.130939 117.196399 122.65095 128.7164 133.57096 142.06916 146.34552 151.20008 156.05463 161.50917 165.78554 171.851 179.78192 185.23647 189.4801 195.54557 200.40012 208.30922 212.55286 218.61832 224.07286 233.78197 238.63652 247.7238 252.57836 256.85475 262.3093 267.15296 273.2293 278.07298 287.47663 290.50935 295.9639 305.05119 309.34938 313.59303 319.65849 325.72395 330.02214">governancerecordsotherthanemergencylogstubs.</tspan></text>
<text xml:space="preserve" transform="matrix(1 0 -0 1 0 792)" font-size="14.3462" font-family="LMRoman12" font-weight="bold"><tspan y="-233.65093" x="72">9</tspan></text>
<text xml:space="preserve" transform="matrix(1 0 -0 1 0 792)" font-size="14.3462" font-family="LMRoman12" font-weight="bold"><tspan y="-233.65093" x="92.185108 98.19616 106.70346 112.9871 120.361049 126.9603 135.92667 142.52593 149.88553 156.16916 160.65952 168.72208 181.4615 193.05324 202.0196 206.50997">InterpretiveRule</tspan></text>
<text xml:space="preserve" transform="matrix(1 0 -0 1 0 792)" font-size="10.9091" font-family="LMRoman10"><tspan y="-209.30193" x="71.607 79.483379 85.548839 88.581569 96.51248 102.57794 107.13795 113.20341 118.05795 124.12341 130.18888 133.2216 141.7089 150.49073 156.55619 160.85437 168.74166 175.10166 183.59986 186.63259 192.3926 196.63623 201.49079 205.76715 211.83261 216.10898 220.96353 225.20717 230.06172 239.75992 245.82538 251.27993 255.55629 259.83265 264.98176 272.85813 275.89085 280.7454 288.62174 299.8363 305.91267 310.75633 315.03269 323.53089 328.98545 337.76728 343.83274 346.86546 352.32 358.38548 361.41819 365.35639 374.76005 379.6146 385.3746 388.39643 392.7055 396.94917 401.24736 407.91279 410.9455 416.7055 420.94917 425.8037 430.08009 436.14555 440.4219 445.27647 449.5201 454.97468 459.21833 462.25105 467.7056 477.40379 486.1965 492.26197 496.56016 504.43653 507.77473 512.92379 518.3892 523.84378 528.1092">ThisSchedulemustbeinterpretednarrowly.Whereambiguityexists,interpretationmustfavor:</tspan></text>
<text xml:space="preserve" transform="matrix(1 0 -0 1 0 792)" font-size="10.9091" font-family="LMRoman10"><tspan y="-182.99993" x="72">&#x2022;</tspan></text>
<text xml:space="preserve" transform="matrix(1 0 -0 1 0 792)" font-size="10.9091" font-family="LMRoman10"><tspan y="-182.99993" x="85.94183 92.00729 97.461849 101.73821 114.45822 123.5455 126.57823 132.64369 135.67642 144.7637 147.79644 152.65099 158.10553 162.34917 165.3819 170.83644 176.9019">harmminimization,</tspan></text>
<text xml:space="preserve" transform="matrix(1 0 -0 1 0 792)" font-size="10.9091" font-family="LMRoman10"><tspan y="-160.68393" x="72">&#x2022;</tspan></text>
<text xml:space="preserve" transform="matrix(1 0 -0 1 0 792)" font-size="10.9091" font-family="LMRoman10"><tspan y="-160.68393" x="85.94183 92.00729 95.04002 100.494579 106.560039 109.592769 113.530948 122.934589 129.00005 133.27642 138.13097 142.42916 147.2837 151.56008 156.70917 162.16371 166.40735 169.44008 174.89463 180.96009">dignitypreservation,</tspan></text>
<text xml:space="preserve" transform="matrix(1 0 -0 1 0 792)" font-size="10.9091" font-family="LMRoman10"><tspan y="-138.36794" x="72">&#x2022;</tspan></text>
<text xml:space="preserve" transform="matrix(1 0 -0 1 0 792)" font-size="10.9091" font-family="LMRoman10"><tspan y="-138.36794" x="85.94183 90.18547 96.25093 104.73821 109.0364 118.12368 123.57823 126.61096 129.64369 134.49825 138.79644 146.68372 151.53827 154.71828 157.89827 162.75283 167.60738 171.85102 174.87284 180.3383 188.82559 193.12378 197.97834 203.43288 209.80379 214.65834">thesmallesteffectivescope.</tspan></text>
<text xml:space="preserve" transform="matrix(1 0 -0 1 0 792)" font-size="10.9091" font-family="LMRoman10"><tspan y="-42.11194" x="303.273">4</tspan></text>
</svg>
