<svg xmlns="http://www.w3.org/2000/svg" xmlns:xlink="http://www.w3.org/1999/xlink" xmlns:inkscape="http://www.inkscape.org/namespaces/inkscape" version="1.1" width="612" height="792" viewBox="0 0 612 792">
<text xml:space="preserve" transform="matrix(1 0 -0 1 0 792)" font-size="11.9552" font-family="LMRoman12" font-weight="bold"><tspan y="-709.041" x="72 78.73078 85.46156 89.203548 95.934329">18.18</tspan></text>
<text xml:space="preserve" transform="matrix(1 0 -0 1 0 792)" font-size="11.9552" font-family="LMRoman12" font-weight="bold"><tspan y="-709.041" x="112.755298 121.56628 128.10578 133.34215 138.57852 144.71154 150.21092 157.68292 162.16613 171.74224 178.28173 183.58983 189.72284 201.67804 211.39762 218.12839 223.62778 229.12717 235.85794 243.70055 250.43132 255.93071 262.4702 267.7066 271.44859 278.17936">Pattern-BasedCorroboration</tspan></text>
<text xml:space="preserve" transform="matrix(1.0099504 0 -0 .99014756 0 792)" font-size="11.017651" font-family="LMRoman10"><tspan y="-695.2984" x="71.290637 79.39963 84.302478 90.72577 95.628627 101.13744 105.42331 110.326168 116.45197 123.28291 126.345829 132.47164 138.59745 143.5003 149.9236 154.82645 160.95227 167.07808 171.98094 177.80928 182.09514 185.15805 194.69933 197.76224 203.27106 208.77989 214.28873 219.19158 229.05239 234.56122 239.46407 243.74994 246.81284 252.32167 258.44749 266.51243 270.79829 276.93513 282.43293 290.45378 295.9626 299.02549 302.0884 307.59724 317.458 320.52095 330.3707 334.6566 337.71949 346.8972 351.80003 358.63099 367.80867 372.71153 376.99739 383.1232 388.9295 395.05534 401.87525 407.38407 415.438 419.72386 425.23268 429.5516 435.06044 439.96327 447.97309 457.1508 462.36213 471.91444 478.33775 486.9756 491.26145 495.58039 500.4722 505.98103 510.26689 515.16976 525.0306 530.5394">Repeated,independentlyloggedactionsthatalignintime,method,ortargetmaybetreatedas</tspan></text>
<text xml:space="preserve" transform="matrix(1 0 -0 1 0 792)" font-size="10.9091" font-family="LMRoman10"><tspan y="-674.899" x="72 76.85455 82.309108 86.58547 90.86184 96.31639 102.68731 108.14186 112.41823 117.87278 122.11642 125.14915 130.6037 139.09099 143.94554 149.70555 152.73828 158.80374 163.6583 169.72376 174.57831 183.0656 187.92015 193.38562 198.22927 207.93837 210.9711 217.94202 224.00748 233.10567 237.40386 240.43659 246.50205 251.95659 254.98932 263.4766 266.5093 272.57478 277.42933 280.46205 286.5275 291.38206 297.14207 305.01844 308.05116 314.1275 320.19297 325.04753 331.40754 336.2621 342.32756 348.393 353.24757 359.01847 363.26213 366.29484 375.68757 384.77485 389.6294 394.48396 398.7276 406.6585 410.90217 416.96763 425.46583 433.64765 439.7131 445.77857 450.07676 458.56404 462.80769 468.87315 473.1495 478.00407 482.30226 488.3677 493.82228 496.85499 502.92045">corroborativeevidenceevenifnosingleincidentindependentlymeetstheAbusethreshold.</tspan><tspan y="-654.575" x="72 79.12364 84.57819 88.82183 93.06547 97.92001 102.19638 108.26184 116.20367 125.29095 130.44005 139.8328 144.68735 150.14189 154.41826 158.69463 164.14917 170.52008 175.97463 180.25099 185.70554 189.94918 198.43647 201.4692 207.2292 211.47284 216.3274 222.09832 226.34195 233.00742 237.28379 242.13834 246.68744 252.44745 255.48018 260.33473 264.6329 268.9311 274.99656 279.8511 284.1493 288.44749 295.1129 300.56748 308.4875 313.34205 318.7966 324.86207 329.7166 334.57118 340.02574 343.05845 352.14573 357.00028 362.76029 370.63667 378.51304 384.5785 389.43305 395.4985">Patternsmaycorroborateintent,recklessness,orconcealmentwhen:</tspan></text>
<text xml:space="preserve" transform="matrix(1 0 -0 1 0 792)" font-size="10.9091" font-family="LMRoman10"><tspan y="-628.274" x="72">&#x2022;</tspan></text>
<text xml:space="preserve" transform="matrix(1 0 -0 1 0 792)" font-size="10.9091" font-family="LMRoman10"><tspan y="-628.274" x="85.94183 91.396389 96.25093 100.49457 103.5273 108.98185 115.04731 122.978229 127.25459 132.10915 136.9637 143.02916 150.94918 157.01464 163.0801 169.14556 174.0001 181.90921 186.2074 192.27286 198.33832 202.6365 206.88014 212.33469 218.0947 222.33834 225.37107 230.8256 233.85834 236.89107 246.29473 250.59291 253.62564 262.71293 265.74565 268.77836 274.2329 282.142 286.99656 290.02928 294.30564 299.1602 305.22566 314.31294 318.6111 322.85478 328.30934 334.3748 339.22935 344.0839">actionsrecurundersubstantiallysimilarcircumstances</tspan></text>
<text xml:space="preserve" transform="matrix(1 0 -0 1 0 792)" font-size="10.9091" font-family="LMRoman10"><tspan y="-605.958" x="72">&#x2022;</tspan></text>
<text xml:space="preserve" transform="matrix(1 0 -0 1 0 792)" font-size="10.9091" font-family="LMRoman10"><tspan y="-605.958" x="85.94183 91.396389 94.576389 97.75639 102.61095 107.4655 111.70914 116.56369 126.26188 132.32733 137.78188 142.05825 146.30188 149.33461 154.18917 162.131 167.58554 175.49465 179.73828 185.19283 189.4692 194.92374 199.77829 204.02193 211.95285 217.10195 222.56742 227.42197 231.69834 234.72016 240.1747">affectedpartiesortargetsoverlap</tspan></text>
<text xml:space="preserve" transform="matrix(1 0 -0 1 0 792)" font-size="10.9091" font-family="LMRoman10"><tspan y="-583.641" x="72">&#x2022;</tspan></text>
<text xml:space="preserve" transform="matrix(1 0 -0 1 0 792)" font-size="10.9091" font-family="LMRoman10"><tspan y="-583.641" x="85.94183 88.97456 94.429119 99.88367 104.181858 110.84731 115.09095 118.12368 127.21096 130.24369 136.30915 141.76369 148.44007 153.8946 161.80371 167.86917 172.72373 177.57828 180.61101 184.9092 187.94193 193.39647 203.09467 209.16013 214.61467 218.8583 224.62923 232.20015 237.34925 243.10926 251.04018 255.33837 261.4147 266.5638 278.0729 282.92747 288.38203 294.44749 298.74568 301.77839 306.07658 310.32023 315.17478 320.93479 328.82209 334.88755 339.7421 345.5021 348.53483 353.98939 358.23304 361.26576 366.7203">logs,timing,ordecisionpathwaysshowconsistentdeviation</tspan></text>
<text xml:space="preserve" transform="matrix(1.0014988 0 -0 .9985033 0 792)" font-size="10.925451" font-family="LMRoman10"><tspan y="-558.1754" x="71.89225 79.026569 84.489299 88.739299 92.989299 97.85112 102.1339 108.20845 111.846637 117.92118 123.38391 127.688549 132.55037 142.25218 147.11402 152.57674 156.85951 161.1423 166.60503 172.98548 178.44821 182.72006 188.1828 192.4328 195.47008 200.9328 210.63462 219.42961 225.50418 229.8088 237.68607 243.76064 249.22336 257.0897 261.37245 266.23429 269.27156 278.66746 284.1302 293.82106 298.12565 304.2002 310.58067 313.92384 318.78569 323.6475 327.8975 330.93479 336.39753 344.8866 347.9239 357.01383 363.0993 367.38209 372.23298 376.54853 380.85313 383.8904 389.35316 395.4277 403.34864 408.81135 411.84864 417.31138 423.3859 431.86405 437.32679 443.41227 453.10313 461.8981 467.97267 472.27726 480.1545 486.53498 495.01313 500.47584 504.7586 510.22135 516.2959 522.3705 528.445 533.3069">Pattern-basedcorroborationmustnotrelyonsubjectiveimpressionsaloneandmustbegrounded</tspan></text>
<text xml:space="preserve" transform="matrix(1 0 -0 1 0 792)" font-size="10.9091" font-family="LMRoman10"><tspan y="-543.791" x="72 75.03273 84.73092 89.007289 93.86183 98.716388 104.17094 108.4473 114.512767 119.36731 129.07642 132.4146 137.86914 142.7237 146.96733 151.26552">inrecordedfacts.</tspan><tspan y="-523.46707" x="72 82.00365 88.06911 92.312747 97.767299 103.832759 106.865489 109.89822 112.93095 116.869129 122.62913 130.5164 138.69823 144.76369 149.31279 155.37825 160.8328 166.89826 172.3528 177.20735 182.6619 188.72736 191.76009">Mutability:Unchangeable</tspan></text>
<text xml:space="preserve" transform="matrix(1 0 -0 1 0 792)" font-size="11.9552" font-family="LMRoman12" font-weight="bold"><tspan y="-494.25807" x="72 78.73078 85.46156 89.203548 95.934329">18.19</tspan></text>
<text xml:space="preserve" transform="matrix(1 0 -0 1 0 792)" font-size="11.9552" font-family="LMRoman12" font-weight="bold"><tspan y="-494.25807" x="112.755298 122.91721 130.00666 135.24303 138.985 143.4682 151.70534 158.24483 169.4588 177.3014 183.43442 193.417 202.61055 208.10994 214.24295 219.55106 227.02306 238.23703 245.70903 250.9454 254.68738 261.41816">Anti-TamperPresumption</tspan></text>
<text xml:space="preserve" transform="matrix(1.0044899 0 -0 .9955302 0 792)" font-size="10.95808" font-family="LMRoman10"><tspan y="-475.79173" x="71.27598 79.494548 85.29137 94.6934 97.739749 103.52561 107.78831 112.66465 118.46148 122.72417 125.77051 131.24956 137.34224 142.82129 149.48381 154.96285 158.0092 162.2719 167.14824 171.4438 176.92285 181.18553 184.23189 189.71094 195.80364 202.46616 206.78363 212.87633 218.96904 225.06174 229.3573 234.23365 238.55113 242.8686 245.91497 251.39402 257.4867 264.14924 270.24195 275.1183 279.4358 283.6985 287.99406 294.08677 298.9631 303.2258 306.27217 311.7512 317.84388 324.5064 329.98545 337.8972 341.25038 346.7294 352.83308 357.11766 360.164 365.04039 370.5194 374.78208 377.82844 383.30747 393.02729 398.50633 405.47569 408.522 414.00105 419.48008 423.79759 430.4601 434.75569 439.63203 444.5084 449.98744 454.283 460.37568 464.69319 471.3557 476.83476 484.7465 490.22554 496.3182 502.41093 505.45729 513.3361 517.5988 521.8944 527.3735 530.4198 533.4661">Anyintentionalalteration,suppression,destruction,orfabricationoflogs,records,oraudittrails</tspan></text>
<text xml:space="preserve" transform="matrix(1 0 -0 1 0 792)" font-size="10.9091" font-family="LMRoman10"><tspan y="-460.116" x="72 76.85455 82.309108 88.374568 92.67275 96.91639 99.94912 104.19276 110.25822 114.501857 119.3564 127.287319 133.35277 137.62914 140.66187 149.74915 158.84734 162.18552 167.64006 172.49462 175.52735 184.01464 188.86919 194.6292 197.66193 203.72739 208.58194 214.6474 219.50196 227.98925 233.44379 240.42562 248.60744 251.64017 257.09474 260.12745 265.582 269.82566 272.85838 278.31294 284.3784">constitutesprimafacieevidenceofViolation.</tspan></text>
<text xml:space="preserve" transform="matrix(.99849888 0 -0 1.0015034 0 792)" font-size="10.892724" font-family="LMRoman10"><tspan y="-439.13188" x="72.108249 76.04052 83.01186 87.24914 92.695499 101.76914 108.130489 112.97775 117.247699 120.27587 126.33223 135.42766 144.5013 149.94765 154.18492 159.03218 163.30213 166.3303 171.77667 174.80486 177.83304 187.22257 190.25075 199.32437 205.38072 210.82709 213.85527 218.12522 226.05512 230.90238 233.93056 239.37693 243.66866 247.96039 250.98857 254.01676 257.04493 261.8922 267.33857 271.5758 274.60398 280.05033 286.1067 292.78395 297.02119 303.07756 311.563 317.61936 321.8893 326.7366 331.02833 337.0847 346.15834 352.2147 356.45195 359.4801 364.92646 374.6319 379.47917 383.77088 388.61817 394.0645 397.09269 402.53904 406.77629 411.62355 419.55348 423.7907 432.8861 441.05567 447.11204 453.1684 457.4601 465.9456 472.00196 478.0583 481.08647 485.93376 490.22547 498.16627 502.4035 508.45988 516.9453 522.39169 527.2389 531.47616 536.9225">Iftamperingmateriallyimpairsclassification,thepresumptionescalatestoAbuseunlesstheactor</tspan></text>
<text xml:space="preserve" transform="matrix(1 0 -0 1 0 792)" font-size="10.9091" font-family="LMRoman10"><tspan y="-426.243" x="72 78.06546 82.92001 92.00729 97.461849 103.527309 107.82549 112.06913 116.3455 121.80005 126.043689 130.89824 138.82917 147.92736 152.7819 157.05828 161.91283 167.97829 171.01102 177.07648 180.1092 184.96376 191.62923 197.69469 203.14923 209.21469 212.84743 217.70198 223.46199 229.52745 232.56018 238.01473 241.04746 245.29109 250.74564 254.98928 258.022 263.47657 271.96385 276.8184 282.27296 288.3384 292.6475 297.49116">demonstratesacredible,non-exploitativecause.</tspan><tspan y="-405.919" x="72 80.563648 86.323657 92.083667 98.149127 101.78185 105.12004 110.57459 113.60732 117.85096 127.54915 132.4037 136.68007 140.95644 146.41098 150.68735 158.61827 162.86191 168.92737 174.38191 182.2692 187.72374 192.0001 200.4874 206.55286 210.82923 216.28377 225.37105 231.43651 235.68015 238.71288 248.10562 254.17108 257.2038 261.50199 266.35655 269.38926 274.8438 279.142 283.99656 293.70567 299.16023 305.22569 314.92387 319.7784 325.23298 329.50935 333.7857 338.64027 343.4948 347.73847 352.59303 362.2912 368.35667 377.45487 383.52033 388.97489 396.85127 401.7058 407.16038 413.22584 417.52403 421.76768 424.80039 429.04405 435.1095 439.35316 447.84043 452.08409 457.53865 466.62593 472.99684 477.85139 482.12776 485.16047 491.22593 496.68049">Good-faitherrorsthatarepromptlydisclosedandcorrecteddonotconstitutetampering.</tspan></text>
<text xml:space="preserve" transform="matrix(1.0099504 0 -0 .99014756 0 792)" font-size="11.017651" font-family="LMRoman10"><tspan y="-389.4319" x="71.290637 78.793659 87.97136 92.874217 97.19313 102.70195 107.604808 113.73062 118.63347 128.11968 131.18259 136.6914 145.88013 150.2211 154.50696 160.63277 166.75858 174.76842 183.64865 189.77446 194.11544 202.07016 208.50447 217.07622 225.03096 229.34989 232.4128 236.69866 240.98451 245.88738 255.68207 259.96794 269.15666 274.66548 284.46018 289.96897 296.0948 302.52909 307.43196 313.55775 319.68357 323.35246 328.86125 334.98707 338.04997 342.96385 349.71766 354.00355 359.51234 368.69004 375.11335 380.01618 384.3351 388.004 392.90684 398.72416 401.78709 407.91288 412.81575 418.64405 426.59883 430.91773 435.8206 440.72343 446.23225 450.55119 460.3569 464.69786 470.5152 474.85615 479.14204 484.04487 496.89143 506.06913 510.97196 515.8748 520.1607 523.2236 529.3494">Emergencylogstubsmustbewrittentoanappend-only,tamper-evidentrecordsystemmeeting</tspan><tspan y="-375.74806" x="71.290637 77.71392 83.22275 86.28565 89.34856 94.25141 100.06873 103.73761 109.86342 114.76627 117.82918 120.89209 127.01791 131.92076 141.66037 144.72328 150.54059 154.82645 159.72931 165.23815 169.55706 172.61997 176.60836 186.02845 190.34737 195.25023 201.06754 207.19335 210.25626 214.57518 219.47805 228.65575 233.5586 239.38695 243.6728 248.01377 255.89138 264.30888 269.2117 272.27464 277.17747 281.46336 284.52626 290.03507 299.77467 305.28349 313.20518 322.38288 328.18919 334.31498 337.3779 340.4408 343.5037 348.40657 353.91535 358.20124 361.26414 366.77296 376.50154 385.38175 391.50755 395.8485 403.74818 410.17149 418.6771 424.8029 429.70576 433.9916 438.89448 443.7973 448.0832 453.59199 459.7178 462.7807 472.2008 477.10365 482.921 485.9839 492.1097 497.01255 502.84089 510.7405 516.86636 523.2896 528.79849">policy-definedintegrityrequirements.Deletionormodificationmustbedetectablyevidentupon</tspan></text>
<text xml:space="preserve" transform="matrix(1 0 -0 1 0 792)" font-size="10.9091" font-family="LMRoman10"><tspan y="-358.497" x="72 76.27637 81.13092 86.89092 89.92365 94.7782 102.65457">review.</tspan><tspan y="-338.173" x="72 82.00365 88.06911 92.312747 97.767299 103.832759 106.865489 109.89822 112.93095 116.869129 122.62913 130.5164 138.69823 144.76369 149.31279 155.37825 160.8328 166.89826 172.3528 177.20735 182.6619 188.72736 191.76009">Mutability:Unchangeable</tspan></text>
<text xml:space="preserve" transform="matrix(1 0 -0 1 0 792)" font-size="11.9552" font-family="LMRoman12" font-weight="bold"><tspan y="-308.964" x="72 78.73078 85.46156 89.203548 95.934329">18.20</tspan></text>
<text xml:space="preserve" transform="matrix(1 0 -0 1 0 792)" font-size="11.9552" font-family="LMRoman12" font-weight="bold"><tspan y="-308.964" x="112.755298 122.785709 128.91872 134.22682 137.9688 145.4408 151.5738 159.0458 165.0234 175.63962 184.83316 190.33255 197.06333 202.2997 208.43271 214.41031 219.64669 223.38866 230.11943 242.07463 252.38002 256.122 261.4301 268.5315 276.00349 282.54298 286.28495 290.02693 293.7629 297.4989 303.4765 310.016 315.25239 318.99436 325.72514 337.68037 348.0216 355.8642 362.59498 374.55018 384.7121 392.18409 399.65608 404.96418">ResidenceProtectionDisqualificationUponAbuse</tspan></text>
<text xml:space="preserve" transform="matrix(.9949875 0 -0 1.0050378 0 792)" font-size="10.854417" font-family="LMRoman10"><tspan y="-286.92555" x="71.95669 80.097499 85.828639 95.196 98.213527 101.23106 107.26611 113.31203 116.3187 122.36462 131.42804 136.85526 143.81295 151.95375 157.98882 164.02387 168.3005 176.7778 182.81285 188.84792 194.88297 199.71318 207.60433 211.82669 217.86176 220.87928 228.803 234.83806 239.65741 244.48763 248.70999 251.72751 257.15473 266.83686 272.26408 278.2991 282.52146 287.94868 296.9904 302.41758 306.63996 309.65748 314.4877 319.9149 322.93244 325.94996 335.31733 339.5397 344.3699 348.62486 357.66658 360.6841 366.71916 372.14634 376.3687 381.1989 389.11183 394.539 397.55656 404.2212 408.4761 413.30635 417.58299 420.60054 426.63557 431.4658 437.50083 442.33103 450.7975 456.83253 461.08747 466.51466 470.73704 475.56724 480.39747 484.6198 487.63737 493.06455 499.09959 507.01249 512.4397 516.69467 522.1218 527.85299 532.0754 536.90567">AnyfindingofAbuseunderthisSectionautomaticallyterminatesallresidenceprotectionsgranted</tspan></text>
<text xml:space="preserve" transform="matrix(1 0 -0 1 0 792)" font-size="10.9091" font-family="LMRoman10"><tspan y="-274.822" x="72 78.06546 84.13092 90.19638 95.050937 102.96003 109.02549 113.880039 118.73459 122.978229 126.010959 131.4655">underSection</tspan></text>
<text xml:space="preserve" transform="matrix(1 0 -0 1 0 792)" font-size="10.9091" font-family="LMRoman10"><tspan y="-274.822" x="141.1746 146.62915">13</tspan></text>
<text xml:space="preserve" transform="matrix(1 0 -0 1 0 792)" font-size="10.9091" font-family="LMRoman10"><tspan y="-274.822" x="155.71643 159.05461 164.50916 172.41826 176.6619 182.72736 191.22556 196.6801 199.8601 203.0401 207.89466 213.96012 220.02558 223.0583 229.12377 238.21105 241.24378 247.30924 253.3747 256.4074 262.16743 265.20014 271.2656 277.33106 282.7856 285.81834">fortheoffendingindividual.</tspan><tspan y="-254.49799" x="71.607 78.57792 83.432468 87.70883 96.79611 99.82884 105.8943 111.348857 115.59249 118.62522 124.07977 133.77797 139.84343 145.90889 151.97435 156.8289 164.738 168.98165 175.0471 178.07984 186.02167 190.31986 196.38532 202.45078 206.74897 211.60352 216.45807 220.7017 223.73444 229.18898 235.25444">Terminationunderthissubsection:</tspan></text>
<text xml:space="preserve" transform="matrix(1 0 -0 1 0 792)" font-size="10.9091" font-family="LMRoman10"><tspan y="-228.19699" x="72">&#x2022;</tspan></text>
<text xml:space="preserve" transform="matrix(1 0 -0 1 0 792)" font-size="10.9091" font-family="LMRoman10"><tspan y="-228.19699" x="85.94183 88.97456 96.90548 105.99276 111.44731 117.51277 123.57823 129.03278 133.27642 138.73096 143.00733 152.41098 157.86553 163.93099 173.62918 179.69464 185.14919 191.21465 194.84738 200.91284 203.94557 208.24376 213.09832 217.37468 222.22924 226.47287 229.5056 234.96015 241.0256 246.48015 250.75652">ismandatoryandnon-discretionary</tspan></text>
<text xml:space="preserve" transform="matrix(1 0 -0 1 0 792)" font-size="10.9091" font-family="LMRoman10"><tspan y="-205.87999" x="72">&#x2022;</tspan></text>
<text xml:space="preserve" transform="matrix(1 0 -0 1 0 792)" font-size="10.9091" font-family="LMRoman10"><tspan y="-205.87999" x="85.94183 91.396389 97.461849 103.527309 106.560039 109.592769 114.44731 122.37823 126.654598 131.50914 136.96369 142.41823 146.6946 152.76006 155.79279 160.64734 164.94553 172.88736 178.3419 185.31282 189.55646 194.41101 200.17102 206.23648 210.51285 215.3674 222.04378 226.32015 231.77469 234.79651 239.65106 246.32744 251.78199 259.69108 263.96745 268.822 271.8547 277.30928 281.55293 284.58564 290.0402 296.10566 300.40385 306.4693 309.502">appliesregardlessoftenure,role,orrelationship</tspan></text>
<text xml:space="preserve" transform="matrix(1 0 -0 1 0 792)" font-size="10.9091" font-family="LMRoman10"><tspan y="-183.564" x="72">&#x2022;</tspan></text>
<text xml:space="preserve" transform="matrix(1 0 -0 1 0 792)" font-size="10.9091" font-family="LMRoman10"><tspan y="-183.564" x="85.94183 92.00729 97.7673 102.62186 110.55277 116.61823 122.072788 129.96007 134.23644 139.08008 144.84009 150.91646 153.93828 158.21465 166.71285 175.80013 180.09832 184.95287 191.01833 196.47287 200.74924 206.20378 210.44742 218.93471 224.40018 229.85472 234.09836 242.58565 248.04019 255.9493 262.01475 266.2911 272.05113 276.90568 281.76023 286.0584">doesnotrequireaseparatevoteorprocess</tspan></text>
<text xml:space="preserve" transform="matrix(1 0 -0 1 0 792)" font-size="10.9091" font-family="LMRoman10"><tspan y="-161.248" x="72">&#x2022;</tspan></text>
<text xml:space="preserve" transform="matrix(1 0 -0 1 0 792)" font-size="10.9091" font-family="LMRoman10"><tspan y="-161.248" x="85.94183 90.18547 95.64002 101.09457 105.94911 113.89094 118.74548 121.92548 125.10549 129.94913 134.80368 142.69097 148.75643 155.12734 160.58188 170.28008 173.3128 176.34554 182.411 187.86554 194.531 199.38556 202.41829 207.87284 212.17102 216.46921 219.50194 222.53467 225.5674 230.42195 235.8765 240.12014 243.15287 248.6074 258.3165 263.77107 271.68016 276.5347 282.2947 288.36018 293.81474 299.8802 304.17839 308.42204 311.45475 316.9093 326.6184 332.07298 339.04389 344.49845 350.5639 356.9348 361.78938 367.24394">takeseffectuponfinalclassificationorexhaustionofappeal</tspan></text>
<text xml:space="preserve" transform="matrix(.99949988 0 -0 1.0005003 0 792)" font-size="10.903644" font-family="LMRoman10"><tspan y="-134.87853" x="71.64284 79.51527 85.5777 88.6089 96.557659 102.62009 105.6513 109.94733 115.70445 121.76688 127.218708 130.24993 133.28113 136.31235 139.34355 144.19568 149.6475 153.88903 156.92023 162.37206 172.08719 178.14962 183.90674 188.75887 196.70761 202.77004 208.22187 216.11609 221.56792 224.74633 227.92473 232.77687 237.61809 245.51233 249.75385 255.81627 264.32109 268.5953 271.62654 277.07835 282.83549 287.077 295.02577 300.47758 307.46678 313.5292 318.98103 325.04347 328.67436 334.12617 337.30458 340.483 345.3351 351.39753 357.45997 360.49119 366.5536 375.6581 381.72053 387.17237 391.4466 395.6881 398.71934 403.57148 411.5202 417.5826 423.64506 426.67625 431.52839 435.8244 443.77317 446.80436 452.8668 458.9292 463.7813 470.14906 475.00117 481.0636 487.126 491.97816 497.73527 501.9768 505.008 514.41787 517.4491 526.5318 532.59426 535.6255 538.6567">Thisdisqualificationdoesnotaffecttherightsofnon-offendingpartiesunlessindependentlyimpli-</tspan></text>
<text xml:space="preserve" transform="matrix(1 0 -0 1 0 792)" font-size="10.9091" font-family="LMRoman10"><tspan y="-121.397" x="72 76.85455 82.309108 86.55274 91.40729 101.10548 106.87639 116.26912 121.12367 124.1564 129.61095 133.90914 138.20732 141.24005 144.27278 147.30551 152.16007 157.61461 161.85825 164.89098 170.34552 176.41098">catedbyclassification.</tspan><tspan y="-101.073009" x="72 82.00365 88.06911 92.312747 97.767299 103.832759 106.865489 109.89822 112.93095 116.869129 122.62913 130.5164 138.69823 144.76369 149.31279 155.37825 160.8328 166.89826 172.3528 177.20735 182.6619 188.72736 191.76009">Mutability:Unchangeable</tspan></text>
<text xml:space="preserve" transform="matrix(1 0 -0 1 0 792)" font-size="10.9091" font-family="LMRoman10"><tspan y="-42.112009" x="300.54499 305.99955">50</tspan></text>
</svg>
