<svg xmlns="http://www.w3.org/2000/svg" xmlns:xlink="http://www.w3.org/1999/xlink" xmlns:inkscape="http://www.inkscape.org/namespaces/inkscape" version="1.1" width="612" height="792" viewBox="0 0 612 792">
<text xml:space="preserve" transform="matrix(1 0 -0 1 0 792)" font-size="11.9552" font-family="LMRoman12" font-weight="bold"><tspan y="-709.041" x="72 82.10214 94.85834 99.34154 106.07232 112.8031 116.54508 129.85123 138.67417 146.14617 150.25876 156.98954 162.48892 168.46652 174.59954 185.8135 191.94652 199.04792">OM-11.EEnforcement</tspan></text>
<text xml:space="preserve" transform="matrix(1 0 -0 1 0 792)" font-size="10.9091" font-family="LMRoman10"><tspan y="-688.448" x="72">&#x2022;</tspan></text>
<text xml:space="preserve" transform="matrix(1 0 -0 1 0 792)" font-size="10.9091" font-family="LMRoman10"><tspan y="-688.448" x="85.53819 93.72002 96.75275 103.418209 108.27275 117.36003 122.214588 126.49095 131.9455 136.80005 142.86551 147.72006 157.11281 160.14554 165.91646 171.37102 177.13101 181.98557 187.44011 191.68375 194.71648 200.17102 206.23648 214.1674 219.62195 225.68741 229.93105 235.38559 244.47287 249.92742 254.17105 257.20378 262.05833 267.51289 270.5456 273.5783 282.97105 287.26924 291.51289 296.96745 301.2438 309.1311 318.21839 322.49476 327.3493 333.1093 336.14204 340.99659 352.50569 357.36024 360.39295 366.15296 370.70207 376.46208">Allemergencyinvocationsautomaticallystartareviewclock.</tspan></text>
<text xml:space="preserve" transform="matrix(1 0 -0 1 0 792)" font-size="10.9091" font-family="LMRoman10"><tspan y="-666.132" x="72">&#x2022;</tspan></text>
<text xml:space="preserve" transform="matrix(1 0 -0 1 0 792)" font-size="10.9091" font-family="LMMono10"><tspan y="-666.132" x="85.94183 91.66911 103.12367 108.85095 114.57823 126.03279 131.76007 137.48735 143.21463 148.94191 160.39647 166.12375 177.57831 183.30559 189.03287 194.76015 200.48743 206.2147 211.94199 217.66927 223.39655 229.12383 234.8511 240.57839 246.30567 252.03295 263.4875 269.21476 274.94203 280.66929 286.39656 292.1238 297.85108 303.57835 309.3056 315.03288 326.4874 332.21467 337.94194 343.6692 349.39646 355.12373 360.85099 366.57826 372.3055 383.76005 389.4873 400.94184 406.6691 412.39637 418.12364 423.8509 435.30543 441.03269 446.75996 452.4872 458.21449 463.94175 469.669 475.39628 481.12355 492.57807 498.30534 504.0326 509.75987 521.2144 526.9417 532.669 544.1236 549.8509 555.5782 561.3055 567.0328 572.7601 578.48739">IFtheactorisincapacitated,displaced,detained,orundercoercion,THENthelogging</tspan><tspan y="-652.583" x="85.94 91.66728 97.39456 103.12184 108.84912 114.5764 120.30368 126.03096 137.48552 143.2128 154.66736 160.39464 166.12192 171.8492 177.57648 183.30376 194.75832 200.4856 206.21288 211.94016 217.66744 229.122 234.84928 240.57656 252.03112 257.7584 263.48567 269.21293 274.9402 280.66746 286.3947 292.12199 297.84925 303.5765 315.03105 320.7583 326.48558 332.21284 337.9401">deadlineistolleduntiltheincapacityends.</tspan></text>
<text xml:space="preserve" transform="matrix(1 0 -0 1 0 792)" font-size="10.9091" font-family="LMRoman10"><tspan y="-630.266" x="72">&#x2022;</tspan></text>
<text xml:space="preserve" transform="matrix(1 0 -0 1 0 792)" font-size="10.9091" font-family="LMMono10"><tspan y="-630.266" x="85.94183 91.66911 103.12367 108.85095 114.57823 120.30551 126.03279 131.76007 137.48735 143.21463 148.94191 154.66919 166.12375 171.85103 177.57831 183.30559 189.03287 194.76015 200.48743 211.94199 217.66927 229.12383 234.8511 240.57839 246.30567 252.03295 257.76023 263.4875 269.21476 280.66929 286.39656 292.1238 297.85108 309.3056 315.03288 320.76014 332.21467 337.94194 343.6692 349.39646 355.12373 366.57826 372.3055 378.03279 383.76005 395.21458 400.94184 406.6691 412.39637 418.12364 423.8509 429.57817 435.30543 446.75996 452.4872 458.21449 463.94175 469.669 475.39628 481.12355 492.57807 498.30534 504.0326 509.75987 515.4871 521.2144 532.669 538.3963">IFincapacitytollingisinvoked,THENtheactormustcompleteloggingwithin72</tspan><tspan y="-616.717" x="85.94 91.66728 97.39456 103.12184 108.84912 120.30368 126.03096 137.48552 143.2128 148.94008 154.66736 160.39464 166.12192 171.8492 177.57648 189.03104 194.75832 200.4856 206.21288 211.94016 217.66744 223.39472 229.122 234.84928">hoursofrestoredcapacity.</tspan></text>
<text xml:space="preserve" transform="matrix(1 0 -0 1 0 792)" font-size="10.9091" font-family="LMRoman10"><tspan y="-594.401" x="72">&#x2022;</tspan></text>
<text xml:space="preserve" transform="matrix(1 0 -0 1 0 792)" font-size="10.9091" font-family="LMMono10"><tspan y="-594.401" x="85.94183 91.66911 103.12367 108.85095 114.57823 120.30551 126.03279 131.76007 137.48735 143.21463 148.94191 154.66919 166.12375 171.85103 177.57831 183.30559 189.03287 194.76015 200.48743 211.94199 217.66927 223.39655 229.12383 234.8511 240.57839 246.30567 257.76023 263.4875 274.94203 280.66929 286.39656 292.1238 297.85108 309.3056 315.03288 320.76014 326.4874 337.94194 343.6692 349.39646 355.12373 360.85099 366.57826 372.3055 378.03279 383.76005 395.21458 400.94184 406.6691 412.39637 418.12364 423.8509 429.57817 435.30543 441.03269 446.75996 452.4872 458.21449 463.94175 469.669 481.12355 486.8508 492.57807 498.30534 504.0326 515.4871 521.2144 526.9417 532.669 538.3963 544.1236">IFincapacitytollingexceeds14days,THENautomaticClassificationPanelreview</tspan><tspan y="-580.852" x="85.94 91.66728 103.12184 108.84912 114.5764 120.30368 126.03096 131.75824 137.48552 143.2128 148.94008 154.66736">istriggered.</tspan></text>
<text xml:space="preserve" transform="matrix(1 0 -0 1 0 792)" font-size="10.9091" font-family="LMRoman10"><tspan y="-558.535" x="72">&#x2022;</tspan></text>
<text xml:space="preserve" transform="matrix(1 0 -0 1 0 792)" font-size="10.9091" font-family="LMMono10"><tspan y="-558.535" x="85.94183 91.66911 103.12367 108.85095 114.57823 120.30551 126.03279 131.76007 137.48735 143.21463 148.94191 154.66919 166.12375 171.85103 177.57831 183.30559 189.03287 194.76015 200.48743 211.94199 217.66927 229.12383 234.8511 240.57839 246.30567 252.03295 257.76023 263.4875 274.94203 280.66929 286.39656 292.1238 297.85108 303.57835 309.3056 320.76014 326.4874 332.21467 337.94194 343.6692 349.39646 355.12373 360.85099 366.57826 372.3055 383.76005 389.4873 395.21458 400.94184 406.6691 418.12364 423.8509 435.30543 441.03269 446.75996 452.4872 458.21449 463.94175 469.669 475.39628 481.12355 486.8508 498.30534 504.0326 509.75987 515.4871 521.2144 526.9417 532.669 538.3963 544.1236">IFincapacitytollingisclaimedwithoutreasonablebasisorsupportingevidence,</tspan><tspan y="-544.98599" x="85.653 91.38028 97.10756 102.83484 114.2894 120.01668 125.74396 137.19852 142.9258 148.65308 154.38036 160.10764 165.83492 177.28948 183.01676 188.74404 194.47132 200.1986 205.92588 211.65316 217.38043 223.10771 234.56227 240.28955 246.01683 251.74411 257.47138 263.19865 268.9259 274.65318 286.1077 291.83497 303.2895 309.01676 314.74403 320.47129 326.19856 331.9258 337.65309 343.38035 349.1076 360.56214 366.2894 372.01667 377.74394 383.4712 389.19847 394.92573 405.093 410.82026 422.27479 433.7293 439.45658 445.18385 450.9111 456.63838 462.36564 468.0929 473.82017 479.54743 485.2747 491.00196 496.72923 502.45649 508.18376 519.6383 525.3656 531.0929 536.8202 542.5475">THENtheactionescalatesdirectlytoViolationreview.IFaClassificationPanel</tspan><tspan y="-531.43698" x="85.94 91.66728 97.39456 103.12184 108.84912 114.5764 126.03096 131.75824 143.2128 148.94008 154.66736 160.39464 166.12192 171.8492 177.57648 183.30376 189.03104 194.75832 206.21288 211.94016 217.66744 223.39472 234.84928 240.57656 246.30384 257.7584 263.48567 269.21293 274.9402 280.66746 286.3947 292.12199 297.84925 309.30378 315.03105 320.7583 326.48558 332.21284 337.9401 343.66737 355.1219 360.84916 366.57643 372.30369 378.03096 383.7582 389.48548 395.21275 400.94 412.39454 418.1218 423.84907 429.57633 435.3036 441.03086 446.75813 452.48539 458.21266 469.66719 475.39445 486.84898 492.57624 498.3035 504.03077 509.75804 515.4853 521.2126 526.9399 532.6672 538.3945 544.12179 549.84909 555.57638">reviewistriggered,THENtheinvokingactor&#x2019;semergencyauthorityisautomatically</tspan><tspan y="-517.88796" x="85.94 91.66728 97.39456 103.12184 108.84912 114.5764 120.30368 126.03096 131.75824 143.2128 148.94008 154.66736 160.39464 166.12192 177.57648 183.30376 189.03104 194.75832 200.4856 206.21288 217.66744 223.39472 229.122 234.84928 240.57656 246.30384 252.03112 257.7584">suspendeduntilreviewclosure.</tspan></text>
<text xml:space="preserve" transform="matrix(1 0 -0 1 0 792)" font-size="10.9091" font-family="LMRoman10"><tspan y="-495.57096" x="72">&#x2022;</tspan></text>
<text xml:space="preserve" transform="matrix(1 0 -0 1 0 792)" font-size="10.9091" font-family="LMMono10"><tspan y="-495.57096" x="85.94183 91.66911 97.39639 103.12367 108.85095 114.57823 120.30551 126.03279 131.76007 137.48735 148.94191 154.66919 166.12375 171.85103 177.57831 189.03287 194.76015 200.48743 206.2147 211.94199 217.66927 229.12383 234.8511 240.57839 246.30567 252.03295 263.4875 269.21476 274.94203 280.66929 286.39656 292.1238 297.85108 309.3056 315.03288 320.76014 326.4874 332.21467 337.94194 343.6692 349.39646 355.12373 360.85099 372.3055 378.03279 383.76005 389.4873 395.21458 400.94184 406.6691 418.12364 423.8509 429.57817 435.30543 441.03269 446.75996 452.4872 458.21449 469.669 475.39628 481.12355 486.8508 492.57807 498.30534 504.0326 509.75987 515.4871 526.9417 532.669 538.3963 544.1236 549.8509">Expirationofthereviewclockwithoutdocumentedclosurerequiresautomatichuman</tspan><tspan y="-482.02195" x="85.94 91.66728 97.39456 103.12184 108.84912 114.5764 126.03096 131.75824 143.2128 148.94008 154.66736 166.12192 171.8492 177.57648 183.30376 189.03104 194.75832 200.4856 206.21288 211.94016 217.66744 223.39472 229.122 234.84928 240.57656 252.03112 257.7584 263.48567 269.21293 274.9402 286.3947 292.12199 303.5765 309.30378 315.03105 326.48558 332.21284 337.9401 343.66737 349.39463 355.1219 360.84916 366.57643 372.30369">reviewbytheClassificationPaneloritsdelegate.</tspan></text>
<text xml:space="preserve" transform="matrix(1 0 -0 1 0 792)" font-size="10.9091" font-family="LMRoman10"><tspan y="-459.70594" x="72">&#x2022;</tspan></text>
<text xml:space="preserve" transform="matrix(1 0 -0 1 0 792)" font-size="10.9091" font-family="LMMono10"><tspan y="-459.70594" x="85.94183 91.66911 103.12367 108.85095 114.57823 120.30551 126.03279 131.76007 137.48735 143.21463 148.94191 160.39647 166.12375 171.85103 177.57831 183.30559 189.03287 200.48743 206.2147 211.94199 223.39655 229.12383 234.8511 240.57839 246.30567 252.03295 263.4875 269.21476 274.94203 280.66929 286.39656 292.1238 297.85108 309.3056 315.03288 320.76014 326.4874 332.21467 337.94194 343.6692 349.39646 355.12373 360.85099 366.57826 372.3055 378.03279 383.76005 395.21458 400.94184 412.39637 418.12364 423.8509 429.57817 435.30543 441.03269 446.75996 452.4872 458.21449 463.94175 469.669 475.39628 481.12355 486.8508 498.30534 504.0326 509.75987 515.4871 521.2144 526.9417 532.669 538.3963 544.1236 549.8509">Noemergencyactionmaybypassquorum,term-validity,orclassificationsafeguards</tspan><tspan y="-446.15693" x="85.94 91.66728 97.39456 103.12184 108.84912 114.5764 120.30368 126.03096 137.48552 143.2128 154.66736 160.39464 166.12192 177.57648 183.30376 189.03104 194.75832 200.4856 206.21288 211.94016 217.66744 223.39472 229.122 234.84928 240.57656 246.30384">requiredbytheConstitution.</tspan></text>
<text xml:space="preserve" transform="matrix(1 0 -0 1 0 792)" font-size="11.9552" font-family="LMRoman12" font-weight="bold"><tspan y="-416.94795" x="72 82.10214 94.85834 99.34154 106.07232 112.8031 116.54508 129.4806 138.30355 149.51752 155.65053 161.14992 167.88069 174.0137 181.4857 187.4633 199.0479 206.37644 211.87583 218.00884 225.11023 232.58223 238.71524 246.18724 252.16484 263.74946 276.50566 283.23643 290.70845 294.4504 299.6868 306.41758 311.91697 315.65895 323.13093">OM-11.FEmergencyFrequencyMonitoring</tspan></text>
<text xml:space="preserve" transform="matrix(1 0 -0 1 0 792)" font-size="10.9091" font-family="LMMono10"><tspan y="-396.35496" x="72 77.72728 89.18184 94.90912 100.6364 106.36368 112.09096 117.81824 123.54552 129.2728 135.00008 146.45464 152.18192 157.9092 163.63648 169.36376 175.09104 180.81832 186.5456 192.27288 203.72743 209.45471 220.90927 226.63655 232.36383 238.09111 243.81839 249.54567 255.27295 266.72749 272.45475 278.182 283.90928 289.63655 295.3638 306.81834 312.5456 318.27287 324.00013 335.45466 341.18193 346.90919 352.63645 358.3637 369.81825 375.5455 381.27278 387.00004 392.7273 398.45457 409.9091 421.36363 427.09089 432.81816 438.5454 444.27268 449.99995 455.7272 467.18174 472.909 478.63627 484.36354 490.0908 495.81806 501.54533 512.9999 518.7272 524.45449 530.18179 541.63638 547.36367 553.09097">IFemergencyauthorityisinvokedbeyondpeernormswithinarollingperiod,THENthe</tspan><tspan y="-382.80595" x="72 77.72728 83.45456 89.18184 94.90912 100.6364 112.09096 117.81824 123.54552 129.2728 140.72736 146.45464 152.18192 157.9092 163.63648 169.36376 175.09104 180.81832 192.27288 203.72743 209.45471 215.18199 220.90927 226.63655 232.36383 238.09111 243.81839 249.54567 255.27295 261.0002 272.45475 278.182 283.90928 289.63655 295.3638 301.09107 306.81834 312.5456 318.27287 329.7274 335.45466 341.18193 346.90919 352.63645 358.3637 369.81825 375.5455 381.27278 392.7273 398.45457 404.18183 409.9091 415.63636 421.36363 427.09089 432.81816 444.27268 449.99995 455.7272 461.45448 467.18174 472.909 478.63627 484.36354 490.0908 501.54533 507.27259 512.9999 518.7272 524.45449 530.18179 535.90908 541.63638 547.36367 553.09097 558.81826 564.54556 570.2728 576.0001">systemmustgenerateacomparativeanalyticsreportandinitiatemandatoryClassification</tspan><tspan y="-369.25596" x="72 77.72728 83.45456 89.18184 94.90912 106.36368 112.09096 117.81824 123.54552 129.2728 135.00008 140.72736">Panelreview.</tspan></text>
<text xml:space="preserve" transform="matrix(1 0 -0 1 0 792)" font-size="11.9552" font-family="LMRoman12" font-weight="bold"><tspan y="-340.04695" x="72 82.10214 94.85834 99.34154 106.07232 112.8031 116.54508 131.59668 139.67839 146.40917 152.94866 164.90386 172.37586 179.84786 185.98087 193.45287 200.92487 204.66684 212.13884 223.35282 229.8923 237.3643 249.3195 257.54469 263.04408 266.78605 273.32554 280.0563">OM-11.GLoadSheddingandTriage</tspan></text>
<text xml:space="preserve" transform="matrix(1 0 -0 1 0 792)" font-size="10.9091" font-family="LMMono10"><tspan y="-319.45396" x="72 77.72728 89.18184 94.90912 100.6364 106.36368 112.09096 117.81824 129.2728 135.00008 140.72736 146.45464 152.18192 157.9092 169.36376 175.09104 180.81832 186.5456 192.27288 198.00016 203.72743 215.18199 220.90927 226.63655 232.36383 238.09111 243.81839 249.54567 255.27295 266.72749 272.45475 278.182 283.90928 289.63655 295.3638 301.09107 306.81834 312.5456 318.27287 324.00013 335.45466 341.18193 346.90919 352.63645 364.09098 369.81825 375.5455 387.00004 392.7273 398.45457 404.18183 409.9091 415.63636 421.36363 427.09089 432.81816 438.5454 444.27268 449.99995 455.7272 461.45448 472.909 478.63627 484.36354 490.0908 495.81806 507.27259 512.9999 518.7272 524.45449 535.90908 541.63638 547.36367 553.09097 558.81826 564.54556 570.2728 576.0001 581.7274 587.4547">IFreviewvolumeexceedscapacitythresholds,THENtheClassificationPanelmustprioritize</tspan><tspan y="-305.90495" x="72 77.72728 83.45456 89.18184 94.90912 106.36368 112.09096 123.54552 129.2728 135.00008 140.72736 146.45464 152.18192 157.9092 163.63648 169.36376 175.09104 180.81832 186.5456 198.00016 203.72743 215.18199 220.90927 226.63655 232.36383 238.09111 243.81839 249.54567 255.27295 261.0002 272.45475 278.182 283.90928 289.63655 295.3638 312.54563 318.2729 324.00016 329.72743 335.45469 341.18196 346.9092 352.63648 364.091 369.81828 375.54554 381.2728 387.00007 398.4546 404.18186 409.90913 415.63639 421.36366 427.0909 438.54545 444.2727 449.99998 455.72724 461.4545 467.18177 478.6363 484.36357 490.09083 501.54536 507.2726 512.9999 518.7272 524.45449 530.18179 535.90908 541.63638 547.36367 553.09097 558.81826">casesbydemonstratedorpotentialharm.Deferredcasesremainloggedandreviewable.</tspan></text>
<text xml:space="preserve" transform="matrix(1 0 -0 1 0 792)" font-size="14.3462" font-family="LMRoman12" font-weight="bold"><tspan y="-271.53694" x="72 84.12254 99.42994 104.80977 117.004039 126.87422 137.90645 144.5057 151.86531 157.24514 169.2816 176.6412 184.71811 189.20847 195.57819 201.86182 208.46108 216.30844 222.59207 227.08243 235.15933 249.50553 261.62806 271.03916 278.39875 284.998 292.84538 299.129 303.61936 312.58573 326.04246 338.68147 346.04106 352.6403 361.60667 368.96626 378.83644 385.12007 397.48649 404.88914 413.41078 418.7906 426.8675">OM-A.Pre-RegistrationOperatingKernel(Day-1)</tspan></text>
<text xml:space="preserve" transform="matrix(1 0 -0 1 0 792)" font-size="10.9091" font-family="LMRoman10" font-weight="bold"><tspan y="-247.18793" x="72 78.97092 83.84728 89.94547 94.82184 101.792758 106.74548">Status:</tspan></text>
<text xml:space="preserve" transform="matrix(1 0 -0 1 0 792)" font-size="10.9091" font-family="LMRoman10"><tspan y="-247.18793" x="115.06913 122.79277 125.8255 131.90187 137.96733 141.00006 147.06552 156.1528 162.21826 168.28372 172.56009 175.59282 181.65828 190.74556 196.81102 201.08739 205.94194 209.57468 213.85105 218.7056 224.16014 227.19287 231.49106 235.7347 240.01107 245.4656 249.70925 252.74198 258.19654 267.90565 273.9711 280.03657 285.49113 289.7893 298.27659 303.73115 309.7966 312.8293">Bindingduringpre-registrationphaseonly</tspan></text>
<text xml:space="preserve" transform="matrix(1 0 -0 1 0 792)" font-size="10.9091" font-family="LMRoman10" font-weight="bold"><tspan y="-233.63793" x="71.523 80.65392 87.62484 92.501209 99.47212 105.74486 110.91577 114.395778 118.92305 125.544879">Authority:</tspan></text>
<text xml:space="preserve" transform="matrix(1 0 -0 1 0 792)" font-size="10.9091" font-family="LMRoman10"><tspan y="-233.63793" x="133.87943 139.94489 146.01035 152.38126 157.8358 162.11217 168.17763 171.21036 177.27582 182.73036 186.974 195.46129 199.70493 208.7922 213.03585 219.1013 227.5995 235.47588 240.93042 246.99588 251.29407 255.5377 258.57044 262.8141 268.87956 273.1232 276.1559 281.61048 291.30867 296.7632 302.82868 312.52687 320.40324 325.8578 331.92326 336.23234 341.6869 344.7196 347.74143 353.81779 359.27235 363.516 368.35966 378.06877 386.6324 391.7815 397.23606 402.0906 406.36698 412.43244 417.887 423.95246 428.807 437.3052 445.63978 451.3889 456.24345 462.3089 471.39619 476.25074 482.02165">SubordinatetotheConstitutionandConsolidatedGovernanceDocument</tspan></text>
<text xml:space="preserve" transform="matrix(.9899495 0 -0 1.0101526 0 792)" font-size="10.799458" font-family="LMRoman10" font-weight="bold"><tspan y="-217.87699" x="72.73098 80.89537 87.45064 94.351497 97.79652 102.91547 108.95236 113.77972 117.22475 123.43443 130.33528">Expiration:</tspan></text>
<text xml:space="preserve" transform="matrix(.9899495 0 -0 1.0101526 0 792)" font-size="10.799458" font-family="LMRoman10"><tspan y="-217.87699" x="138.26209 146.0593 152.0638 155.06606 162.16129 166.41626 171.22203 176.02779 180.22878 183.22023 188.61995 197.4647 202.27046 207.97258 213.97708 216.97934 221.21273 226.01848 233.11373 238.51345 244.51795 248.71894 254.11867 263.11463 268.51435 272.71534 275.7176 280.52333 285.92308 288.9253 291.92756 300.45915 306.46363 312.7813 318.18104 327.015 330.31965 335.71937 339.95274 348.9487 354.34843 360.19093 365.59068 369.82405 375.22377 380.6235 386.628 389.63026 394.43598 399.83573 404.03669 407.03895 412.43867 418.44319 423.8429 429.67463 433.908 438.71376 444.11347 447.11573 451.3707 455.57167 459.80506 465.20478 469.40574 472.408 477.8077 486.65248 492.05223 499.12583 504.52558 509.3313 513.5323 516.52377 521.62106 527.02078 531.22177 534.224 539.6237">Thissectionexpiresautomaticallyuponformalorganizationalregistrationoractivation</tspan></text>
<text xml:space="preserve" transform="matrix(1 0 -0 1 0 792)" font-size="10.9091" font-family="LMRoman10"><tspan y="-206.54" x="72 77.45455 84.42547 93.52366 102.0873 107.2364 112.69094 117.54549 121.82185 127.887317 130.92005 136.9855 146.07279 153.79644 159.55643 165.62189 170.47644 177.1419 185.01828 191.08374 194.11647 198.66558 204.74195 209.58559 215.05106 219.90561 227.81472 233.5747 238.42926 243.28382 249.34928 253.62564 261.55656 264.58927 267.622 271.89839 276.19657 280.44023">ofaGoverningBody,whicheveroccursfirst.</tspan></text>
<text xml:space="preserve" transform="matrix(1 0 -0 1 0 792)" font-size="11.9552" font-family="LMRoman12" font-weight="bold"><tspan y="-177.331" x="72 82.10214 94.85834 99.34154 109.503459 113.24544 124.45942 131.93143 137.90903 144.6398 152.4824 163.09862 169.6381 177.1101 189.0653 196.39385 203.86585 211.33785 217.31545 222.55182 226.2938 233.02457">OM-A.1ScopeandFunction</tspan></text>
<text xml:space="preserve" transform="matrix(.9934788 0 -0 1.0065641 0 792)" font-size="10.837958" font-family="LMRoman10"><tspan y="-155.71587" x="72.077037 79.90204 85.92795 88.940898 96.86344 101.1336 105.95649 110.77939 114.995349 118.00829 123.42728 133.09474 139.12065 143.94355 146.9565 149.96944 155.99533 160.81824 168.74077 177.81214 182.0281 186.851 195.87903 202.20839 207.62737 211.87584 217.29482 221.5433 230.9073 235.7302 241.45264 246.27553 251.09842 257.12434 261.34028 264.35325 269.77223 279.4505 284.86949 289.69239 293.94084 299.96675 304.78965 311.44416 316.86314 322.889 328.92576 331.9279 334.94087 339.76374 345.1827 351.20863 354.2216 362.69688 368.11585 374.14173 377.1547 386.5295 392.55543 398.58134 402.8298 405.84275 411.86866 420.92918 425.14515 431.17106 439.64634 445.6722 449.9207 454.7436 458.35264 462.6011 467.424 472.84297 475.85594 480.1261 484.34208 488.59056 494.00953 498.22547 501.23844 506.6574 516.3357 522.36166 528.3876 533.8066 538.0767 542.8996">Thissectiondefinesatemporaryexecutionkernelapplicableonlyduringthepre-registrationphase.</tspan></text>
<text xml:space="preserve" transform="matrix(.9899495 0 -0 1.0101526 0 792)" font-size="10.799458" font-family="LMRoman10"><tspan y="-135.04296" x="72.33399 80.131198 86.1357 89.13795 96.902759 101.15774 105.9635 110.769268 114.97025 117.9725 123.37223 132.88655 137.6923 141.92569 146.73146 152.13118 156.33217 161.13794 168.90274 174.90724 183.8168 189.21652 194.31388 199.7136 204.51937 208.75275 214.75725 220.15699 226.16149 230.96724 239.28282 244.68256 250.68706 254.88805 260.89253 266.29228 270.52565 273.5279 277.42646 282.1998 288.75508 293.56083 298.96055 304.96507 308.26969 313.07545 317.3088 325.0736 331.07814 339.98768 345.3874 350.78715 354.9881 357.99037 363.99485 372.9044 379.2113 384.30863 391.79267 396.59843 400.8318 407.37626 412.77598 418.7805 428.3056 434.3101 440.0122 444.81797 452.58277 458.58729 463.987 471.69779 480.69377 486.40666 492.41117 495.41343 498.71806 507.93 513.3297 519.03189 528.2438 532.4772 537.8769 540.8791">Thissectioncreatesnogovernanceauthority,confersnovotingpower,anddoesnotmodifyanyrole</tspan></text>
<text xml:space="preserve" transform="matrix(1 0 -0 1 0 792)" font-size="10.9091" font-family="LMRoman10"><tspan y="-122.865" x="72 78.06546 82.92001 85.95274 88.98547 95.050937 99.90549 109.603679 112.636409 122.345508 128.41097 131.4437 136.89824 142.9637 147.81826 152.09462 155.72736 161.1819 165.45827 171.52373 176.37828 184.28739 190.35285 196.11284 200.96739 207.03285 216.12014 220.97469 226.7347 230.97834 235.27652">definedinhigher-orderdocuments.</tspan></text>
<text xml:space="preserve" transform="matrix(1 0 -0 1 0 792)" font-size="10.9091" font-family="LMRoman10"><tspan y="-42.112" x="303.273">9</tspan></text>
</svg>
