<svg xmlns="http://www.w3.org/2000/svg" xmlns:xlink="http://www.w3.org/1999/xlink" xmlns:inkscape="http://www.inkscape.org/namespaces/inkscape" version="1.1" width="612" height="792" viewBox="0 0 612 792">
<text xml:space="preserve" transform="matrix(1 0 -0 1 0 792)" font-size="11.9552" font-family="LMRoman12" font-weight="bold"><tspan y="-709.041" x="72 78.73078 85.46156 89.203548">18.2</tspan></text>
<text xml:space="preserve" transform="matrix(1 0 -0 1 0 792)" font-size="11.9552" font-family="LMRoman12" font-weight="bold"><tspan y="-709.041" x="106.02451 118.780719 122.5227 127.83081 133.06719 139.60668 146.33747">Mistake</tspan></text>
<text xml:space="preserve" transform="matrix(1 0 -0 1 0 792)" font-size="10.9091" font-family="LMRoman10"><tspan y="-688.448" x="72 80.563648 86.323657 92.083667 101.78185 105.12004 110.57459 113.60732 117.85096 127.54915 139.68007 143.95644 148.81099 154.26554 158.56372 164.01827 170.08373 175.53827 181.60373 184.63646 193.12375 199.49466 204.34922 207.38195 210.41468 215.26923 222.24015 234.36016 240.42562 244.70198 250.15653 259.2438 265.30928 273.19657 279.26203 282.29475 286.59294 291.44749 294.4802 299.93476 304.23295 310.2984 314.57478 323.06205 335.18205 341.2584 346.71296 352.7784 356.41114 360.6875 365.54206 370.3857 376.46208 380.72755 385.0039 389.85847 395.92393 400.77848 409.27668 421.39668 431.4003 434.433 438.7312 442.97486 448.4294 453.88398 458.73854">Goodfaith+reasonablebelief+promptdisclosure+non-recurrence=Mistake.</tspan><tspan y="-668.124" x="72 80.0291 84.88365 90.643657 96.709117 99.741847 104.01821 108.87276 116.80367 121.65822 127.11277 131.38913 135.6655 140.52005 145.3746 149.61824 152.65097 158.10552 167.80371 173.25826 179.32372 189.03282 195.09828 200.85828 205.71283 211.77829 220.86557 225.72013 231.48014 235.72377 241.17832 245.42195 248.45468 253.90923 263.6074 269.06196 275.1274 278.16014 283.01469">Requirescorrectionanddocumentationonly.</tspan><tspan y="-647.801" x="72 82.00365 88.06911 92.312747 97.767299 103.832759 106.865489 109.89822 112.93095 116.869129 122.62913 130.5164 138.69823 144.76369 149.31279 155.37825 160.8328 166.89826 172.3528 177.20735 182.6619 188.72736 191.76009">Mutability:Unchangeable</tspan></text>
<text xml:space="preserve" transform="matrix(1 0 -0 1 0 792)" font-size="11.9552" font-family="LMRoman12" font-weight="bold"><tspan y="-618.74807" x="72 78.73078 85.46156 89.203548">18.3</tspan></text>
<text xml:space="preserve" transform="matrix(1 0 -0 1 0 792)" font-size="11.9552" font-family="LMRoman12" font-weight="bold"><tspan y="-618.74807" x="106.02451 116.18643 119.92841 126.659198 130.40117 136.94066 142.17704 145.919 152.64978">Violation</tspan></text>
<text xml:space="preserve" transform="matrix(1 0 -0 1 0 792)" font-size="10.9091" font-family="LMRoman10"><tspan y="-598.155" x="72 75.93819 81.69819 85.941829 90.79637 96.55637 100.80001 103.83274 109.28729 115.36366 120.818218 127.48367 133.24369 139.0037 145.06916 150.5237 154.82189 159.12007 165.79645 170.64009 176.09464 182.171 187.01465 191.8692 197.32375 200.35648 209.44376 214.29831 220.06923 224.31287 230.97834 235.2547 240.10926 244.65836 250.41837 253.4511 258.30564 262.60383 270.53474 276.6002 279.6329 283.9311 288.20747 293.062 298.51658 303.97114 308.2475 314.31297 320.98933 326.44389 334.35298 340.72389 345.57844 349.8548 354.15299 357.1857 361.4839 365.72755 370.5821 376.64756 381.5021 389.98939 395.44395 398.78215 403.0258 407.88035 415.78944 420.64399 426.09855 430.3749 434.65129 439.50584 444.36039 448.60404 451.63676 457.0913 466.7895 478.9204 487.10224 490.13496 495.5895 498.62223 504.07679 508.32044 511.35316 516.8077 522.8731">Intentionalbypass,concealment,recklessdisregard,orpersistenceaftercorrection=Violation.</tspan><tspan y="-577.83108" x="72 80.0291 84.88365 90.643657 96.709117 99.741847 104.01821 108.87276 116.80367 120.14186 125.59641 129.87277 138.96006 144.4146 151.09098 155.36734 160.2219 165.9819 169.00373 173.85828 181.73465">Requiresformalreview.</tspan><tspan y="-557.5071" x="72 82.00365 88.06911 92.312747 97.767299 103.832759 106.865489 109.89822 112.93095 116.869129 122.62913 130.5164 138.69823 144.76369 149.31279 155.37825 160.8328 166.89826 172.3528 177.20735 182.6619 188.72736 191.76009">Mutability:Unchangeable</tspan></text>
<text xml:space="preserve" transform="matrix(1 0 -0 1 0 792)" font-size="11.9552" font-family="LMRoman12" font-weight="bold"><tspan y="-528.4541" x="72 78.73078 85.46156 89.203548">18.4</tspan></text>
<text xml:space="preserve" transform="matrix(1 0 -0 1 0 792)" font-size="11.9552" font-family="LMRoman12" font-weight="bold"><tspan y="-528.4541" x="106.02451 116.18643 123.65843 131.13043 136.43854">Abuse</tspan></text>
<text xml:space="preserve" transform="matrix(1 0 -0 1 0 792)" font-size="10.9091" font-family="LMRoman10"><tspan y="-507.8611" x="72 82.00365 86.8582 91.71275 95.95639 103.88731 112.06913 115.10186 120.55641 123.58914 129.04369 133.28733 136.32006 141.7746 151.4837 156.33826 160.61463 163.63645 167.88008 172.73464 177.011 180.04373 189.14192 201.26194 206.11649 211.8765 217.94196 220.97469 226.42923 229.46196 237.33834 240.37107 246.14199 250.38562 255.24018 261.00019 265.24385 271.90928 276.18565 281.0402 285.28385 290.7384 293.77113 296.80384 302.2584 306.50205 309.53477 314.98933 321.05479 327.7202 331.99659 336.85115 343.22206 348.0766 352.32026 355.35298 359.59663 362.62934 368.0839 374.14936 380.8148 386.26936 394.18937 399.0439 403.32029 408.16395 414.2403 417.26213 423.33848 426.3712 434.85847 440.92393 446.37849 450.65486 459.74214">MeetsViolationcriteria+exploitintent,retaliation,repetition,orcredibleharm.</tspan><tspan y="-487.53813" x="72 80.0291 84.88365 90.643657 96.709117 99.741847 104.01821 108.87276 116.80367 121.65822 125.956409 130.81096 136.2655 139.29824 144.75278 148.99642 152.02915 157.48369 167.1928 172.64734 178.7128 188.411 197.49828 202.64737 212.05103 216.29467 220.57103 223.59285 229.0474 234.50194 239.35649 247.2765 252.73105 258.7965 263.04017 269.10563 274.56019 278.83656 281.86927 285.80747 295.2002 299.47657 304.33113 313.4184 318.5675 323.7275 329.18208 332.21479">Requiresescalationandmaytriggerauthorityremoval.</tspan><tspan y="-467.2141" x="72 82.00365 88.06911 92.312747 97.767299 103.832759 106.865489 109.89822 112.93095 116.869129 122.62913 130.5164 138.69823 144.76369 149.31279 155.37825 160.8328 166.89826 172.3528 177.20735 182.6619 188.72736 191.76009">Mutability:Unchangeable</tspan></text>
<text xml:space="preserve" transform="matrix(1 0 -0 1 0 792)" font-size="11.9552" font-family="LMRoman12" font-weight="bold"><tspan y="-438.1611" x="72 78.73078 85.46156 89.203548">18.5</tspan></text>
<text xml:space="preserve" transform="matrix(1 0 -0 1 0 792)" font-size="11.9552" font-family="LMRoman12" font-weight="bold"><tspan y="-438.1611" x="106.02451 115.744098 119.48608 126.02557 131.33368 136.64179 140.38376 144.11975 147.85576 153.83336 160.37285 165.60923 169.3512 176.08197 188.03717 197.82849 205.30049 210.53687 218.00887 224.73964 230.23903 233.981 238.83481">ClassificationAuthority</tspan></text>
<text xml:space="preserve" transform="matrix(1 0 -0 1 0 792)" font-size="10.9091" font-family="LMRoman10"><tspan y="-417.5681" x="71.596 83.41055 87.65419 93.71965 97.99602 102.85057 107.705127 111.33785 120.42513 125.27968 134.06151 140.43242 145.28697 153.20699 159.27245 164.72699 170.79245 175.647 182.31247 185.3452 193.27613 197.55249 202.40705 208.16706 214.23252 217.26525 221.54161 226.39617 232.46163 240.3489 248.53073 257.618 263.98893 268.84349 273.11985 277.41804 282.8726 292.57078 301.65806 306.80717 316.21083 321.06538 324.09809 329.55265 333.85084 338.14903 341.18174 344.51994 353.91267 358.1563 364.22178 369.07633 372.10905 380.01814 385.17814 393.0545 402.7527 407.60725 413.0618 419.12727 425.19273 431.25819 436.11274 440.35639">Athree-memberpanelisrequired.Nopersonmayclassifytheirownconduct.</tspan><tspan y="-397.2441" x="72 82.00365 88.06911 92.312747 97.767299 103.832759 106.865489 109.89822 112.93095 116.869129 122.62913 130.5164 138.69823 144.76369 149.31279 155.37825 160.8328 166.89826 172.3528 177.20735 182.6619 188.72736 191.76009">Mutability:Unchangeable</tspan></text>
<text xml:space="preserve" transform="matrix(1 0 -0 1 0 792)" font-size="11.9552" font-family="LMRoman12" font-weight="bold"><tspan y="-368.1911" x="72 78.73078 85.46156 89.203548">18.6</tspan></text>
<text xml:space="preserve" transform="matrix(1 0 -0 1 0 792)" font-size="11.9552" font-family="LMRoman12" font-weight="bold"><tspan y="-368.1911" x="106.02451 114.835498 121.37499 128.84699 134.98 143.20517 150.67717 156.82213 160.5641 166.69712 172.67472 177.91109 181.65306 188.38384">PanelSelection</tspan></text>
<text xml:space="preserve" transform="matrix(1 0 -0 1 0 792)" font-size="10.9091" font-family="LMRoman10"><tspan y="-347.5981" x="72 79.4291 84.88365 89.43275 99.141849 105.207309 110.66186 116.72732 121.58186 128.24733 137.33461 142.18917 150.971 157.3419 162.19646 170.10556 173.13829 181.08013 185.37831 190.23287 193.2656 198.10924 202.96379 207.20743 212.06198 221.77109 224.80382 230.86928 236.93474 241.78929 248.1602 253.01476 259.0802 265.14567 270.0002 275.76023 280.00389 283.0366 292.42933 298.18934 303.94935">Eachpanelmemberisselectedindependentlyby:</tspan></text>
<text xml:space="preserve" transform="matrix(1 0 -0 1 0 792)" font-size="10.9091" font-family="LMRoman10"><tspan y="-321.29713" x="72">&#x2022;</tspan></text>
<text xml:space="preserve" transform="matrix(1 0 -0 1 0 792)" font-size="10.9091" font-family="LMRoman10"><tspan y="-321.29713" x="85.94183 94.50548 99.65457 105.109119 109.96367 114.240039 120.3055 125.76005 131.8255 136.68006">Governance</tspan></text>
<text xml:space="preserve" transform="matrix(1 0 -0 1 0 792)" font-size="10.9091" font-family="LMRoman10"><tspan y="-298.9811" x="72">&#x2022;</tspan></text>
<text xml:space="preserve" transform="matrix(1 0 -0 1 0 792)" font-size="10.9091" font-family="LMRoman10"><tspan y="-298.9811" x="85.94183 92.00729 96.25093 101.105487 108.6764 114.13095 118.40732 124.47278 128.77097 134.83643 137.86916">Stewardship</tspan></text>
<text xml:space="preserve" transform="matrix(1 0 -0 1 0 792)" font-size="10.9091" font-family="LMRoman10"><tspan y="-276.66413" x="72">&#x2022;</tspan></text>
<text xml:space="preserve" transform="matrix(1 0 -0 1 0 792)" font-size="10.9091" font-family="LMRoman10"><tspan y="-276.66413" x="85.94183 92.00729 96.25093 101.70548 104.88548 111.69822 120.79641 128.22551 133.98552 138.22916 143.08371 147.36008 153.42554 158.88008">Staff/External</tspan></text>
<text xml:space="preserve" transform="matrix(.99196776 0 -0 1.0080973 0 792)" font-size="10.821475" font-family="LMRoman10"><tspan y="-248.35202" x="72.58301 76.489559 83.46941 87.67897 93.69571 102.17975 107.59049 111.83251 117.24325 122.65399 128.67073 131.6791 136.49465 141.90538 146.11493 149.1233 154.53404 160.55078 163.55916 171.50212 175.76578 179.97533 185.38608 188.54055 195.36347 200.17902 205.58975 211.60649 217.32024 225.19826 228.20662 236.13877 239.45014 244.26569 251.77579 256.59135 264.50184 268.7114 274.72816 280.1389 289.8241 294.03367 300.0504 304.29243 309.10798 317.592 321.80158 327.21235 335.09037 341.42094 346.2365 350.47853 354.74217 360.15293 366.16966 370.4333 377.11015 382.52088 390.43138 393.43974 400.41957 404.62913 410.64585 419.12989 425.15748 429.36705 434.17176 441.68186 447.0926 451.33464 457.35136 461.615 467.63175 470.6401 480.33616 484.57817 489.9889 492.98643 501.4813 504.48966 512.42178 517.5187 522.9294 527.7449 533.1556 538.8693 543.07888">Iftheorganization&#x2019;sstaffcountisfewerthanthree(3)persons,oriftheStewardshiproleisvacant,</tspan></text>
<text xml:space="preserve" transform="matrix(1.0044899 0 -0 .9955302 0 792)" font-size="10.95808" font-family="LMRoman10"><tspan y="-237.87728" x="71.67818 75.940868 82.033557 90.537029 96.01607 99.21035 102.404628 107.28097 112.15732 116.420009 121.28539 131.00522 135.3227 140.19905 143.24539 148.12174 152.99808 157.26078 160.30713 165.78618 175.506 179.82347 182.86983 188.34888 196.22772 202.32042 207.19678 210.54994 216.02899 222.12169 225.16805 229.43073 237.37535 241.63803 250.74422 256.22325 265.93214 270.80848 276.59437 280.85707 285.73344 290.029 296.12168 301.6007 308.27418 313.7532 319.84593 326.2345 331.71354 334.7599 340.5567 344.8194 349.69575 358.1883 362.51676 367.38215 370.4285 375.30485 380.1812 384.4439 389.32026 399.04008 404.82597 414.23896 418.50166 424.59437 433.09785 438.57688 444.66957 451.05815 456.53718 459.58354 465.38035 469.64305 472.6894 478.78208 487.8773 494.27684 500.06269 506.15538 515.5574 518.9106 523.2062 528.68527">theaffectedselectionslotdefaultstoanexternalappointeeselectedbytheappointingbodyfrom</tspan></text>
<text xml:space="preserve" transform="matrix(1.0014988 0 -0 .9985033 0 792)" font-size="10.925451" font-family="LMRoman10"><tspan y="-223.59966" x="71.89225 77.35498 86.45588 91.91861 97.99316 107.07221 113.452678 118.3145 122.59728 126.90191 132.36463 138.43918 146.36014 154.2483 160.33377 169.41283 173.71747 179.18019 183.4302 186.46747 190.7721 194.1153 203.50026 207.75028 213.82482 222.31389 225.35117 231.42572 237.50028 242.36209 248.73162 253.59345 259.668 265.74256 270.60438 276.67893 281.54075 290.02983 294.3126 299.1744 304.94303 311.01759 314.05488 318.33766 323.1885 332.2894 337.15126 342.9308 347.1808 355.1017 360.56446 367.53489 372.99763 382.68849 390.12873 395.89735 400.14738 405.0092 409.29197 415.3665 420.82923 427.48283 436.0593 441.21614 446.68977 451.55158 455.83436 461.90888 467.3716 473.44618 478.30799 486.78614 494.9802 499.26298 505.33753 508.3748 512.6248 517.48666 525.38577 529.63577 535.09848">amongpersonswhosatisfytheindependencerequirementsofanExternalGovernanceArbiter(as</tspan></text>
<text xml:space="preserve" transform="matrix(.9899495 0 -0 1.0101526 0 792)" font-size="10.799458" font-family="LMRoman10"><tspan y="-207.60823" x="72.73098 78.73548 83.54124 86.54349 89.54574 95.55024 100.356 109.81633 112.81858 122.278919 128.2942 133.08916 137.89492 142.09592 145.09816 150.4979">definedinSection</tspan></text>
<text xml:space="preserve" transform="matrix(.9899495 0 -0 1.0101526 0 792)" font-size="10.799458" font-family="LMRoman10"><tspan y="-207.60823" x="159.96901 165.36875 168.37099 173.77072">4.14</tspan></text>
<text xml:space="preserve" transform="matrix(.9899495 0 -0 1.0101526 0 792)" font-size="10.799458" font-family="LMRoman10"><tspan y="-207.60823" x="179.17044 183.37143 189.8727 194.67847 200.38059 205.18634 208.18859 214.19309 220.19759 223.19985 229.20435 238.0599 242.86566 248.87017 253.10355 257.33695 262.1427 267.834 275.50166 283.97923 289.06578 294.46549 299.27125 303.5046 309.5091 312.51136 318.51588 327.3714 335.01744 340.71955 346.72404 355.8928 364.88877 369.6945 378.3773 384.69496 389.5007 393.73408 397.98908 404.49037 408.6913 414.69584 422.9574 429.0915 434.4912 440.4957 446.5002 452.5047 457.31047 461.54383 468.0451 473.44486 479.44935 488.90968 493.11064 499.11515 507.3875 513.5108 518.9105 524.9258 530.9303 536.9348 541.74057">),excludingcurrentGoverningBodymembers,theFounder,andtheFounder</tspan></text>
<text xml:space="preserve" transform="matrix(1 0 -0 1 0 792)" font-size="10.9091" font-family="LMRoman10"><tspan y="-196.166" x="72 78.06546 82.3091 87.16365 94.734569 100.18912 104.465488 110.530948">Steward.</tspan></text>
<text xml:space="preserve" transform="matrix(1.0004999 0 -0 .9995003 0 792)" font-size="10.914554" font-family="LMRoman10"><tspan y="-175.93093" x="71.57123 79.45154 85.52003 88.554279 96.48915 105.58098 108.61522 114.68371 117.71795 126.80978 132.26705 135.3013 138.93585 143.23619 148.09317 153.55045 156.5847 165.07622 171.14472 175.4232 180.57489 186.33777 189.37201 193.67237 196.7066 202.16388 211.86693 217.93541 223.69829 228.55527 236.49016 242.55866 248.01593 255.89623 260.7532 266.5161 272.5846 278.04188 284.11036 293.81343 299.8819 305.33918 311.40766 316.26466 322.93345 328.3907 334.4592 338.70497 344.77348 350.2307 354.50923 357.5435 361.48365 370.88108 376.33836 382.40684 392.1099 396.35566 401.21263 405.49113 414.58296 417.61723 423.6857 429.14299 433.38874 438.24574 446.1806 451.63786 457.70637 461.95216 467.4094 476.50123 481.9585 486.20426 489.23854 494.0955 499.55278 502.587 505.62126 515.0187 522.89907 528.9675 533.82449">Thisminimal-scaleprovisiondoesnotexpandpanelauthorityandterminatesautomaticallywhen</tspan></text>
<text xml:space="preserve" transform="matrix(1 0 -0 1 0 792)" font-size="10.9091" font-family="LMRoman10"><tspan y="-162.293" x="72 76.24364 82.3091 90.79638 95.09457 99.3382 104.792758 107.821849 110.85094 113.880039 119.945499 129.04369 134.49823 142.40734 147.56734 153.02188 157.86553 163.32007 169.39644 174.24008 183.64374 188.49829 193.95284 200.0183 206.08376 209.11649 213.36013 216.39286 221.8474 231.5456 234.57833 242.52016 246.78562 251.64017 255.93836 261.3929 264.42564 269.89109 274.74565 280.8111">thestaffingorvacancyconditionisresolved.</tspan><tspan y="-141.97" x="72 82.00365 88.06911 92.312747 97.767299 103.832759 106.865489 109.89822 112.93095 116.869129 122.62913 130.5164 138.5455 143.40006 149.16007 152.1928 156.49098 161.94553 168.01099 171.04372">Mutability:Revisable</tspan></text>
<text xml:space="preserve" transform="matrix(1 0 -0 1 0 792)" font-size="11.9552" font-family="LMRoman12" font-weight="bold"><tspan y="-112.917" x="72 78.73078 85.46156 89.203548">18.7</tspan></text>
<text xml:space="preserve" transform="matrix(1 0 -0 1 0 792)" font-size="11.9552" font-family="LMRoman12" font-weight="bold"><tspan y="-112.917" x="106.02451 116.054927 122.18794 125.929927 132.46942 137.7058 141.44777 148.17855 155.65055 160.95865 168.43065 172.17263 184.12783 189.3642 200.57817 209.6163 216.15579 219.89777 227.36977 233.50278">RelationshiptoValues</tspan></text>
<text xml:space="preserve" transform="matrix(1 0 -0 1 0 792)" font-size="10.9091" font-family="LMRoman10"><tspan y="-92.324" x="72 75.93819 82.9091 88.06911 93.52366 96.55639 102.62185 107.476398 115.40731 124.49459 129.94915 134.19278 139.04734 143.3237 146.35643 151.81098 154.8437 157.87644 167.26918 171.54555 176.4001 179.43283 184.88738 189.13101 197.62921 201.87285 210.96013 217.02559 222.48014 226.7565 235.84378 242.50925 246.75289 252.81835 261.31654 267.382 272.83656 278.902 283.75657 290.422 299.20384 305.2693 309.56748 317.45478 322.90934 327.20753 331.5057 336.36027 340.65846 348.58937 356.46574 362.5312 367.38575 371.6294 377.69486 382.5494 390.4585 394.70216 400.7676 405.62217 415.02583 422.59675 427.4513 431.72767 440.21495 443.24766 448.7022 454.76768 460.22224 464.4986 469.35316 475.4186">Ifvaluesmateriallyrelatetoharm,thepanelmustassesswhethertheywereignored.</tspan><tspan y="-72" x="72 82.00365 88.06911 92.312747 97.767299 103.832759 106.865489 109.89822 112.93095 116.869129 122.62913 130.5164 138.69823 144.76369 149.31279 155.37825 160.8328 166.89826 172.3528 177.20735 182.6619 188.72736 191.76009">Mutability:Unchangeable</tspan></text>
<text xml:space="preserve" transform="matrix(1 0 -0 1 0 792)" font-size="10.9091" font-family="LMRoman10"><tspan y="-42.112" x="300.54499 305.99955">47</tspan></text>
</svg>
