<svg xmlns="http://www.w3.org/2000/svg" xmlns:xlink="http://www.w3.org/1999/xlink" xmlns:inkscape="http://www.inkscape.org/namespaces/inkscape" version="1.1" width="612" height="792" viewBox="0 0 612 792">
<text xml:space="preserve" transform="matrix(1 0 -0 1 0 792)" font-size="10.9091" font-family="LMRoman10"><tspan y="-709.041" x="72">&#x2022;</tspan></text>
<text xml:space="preserve" transform="matrix(1 0 -0 1 0 792)" font-size="10.9091" font-family="LMRoman10"><tspan y="-709.041" x="85.94183 88.97456 96.85093 102.91639 105.94912 110.22549 115.08003 119.934589 124.17822 127.21095 136.61461 142.68007 146.95644 151.80008 157.26555 162.1201 167.88011 172.12375 180.05467 183.0874 192.17469 201.26197 204.2947 210.36016 215.2147 220.98563 228.862 234.92746 240.382 244.65837">itdirectlypreventsimminentharm</tspan></text>
<text xml:space="preserve" transform="matrix(1 0 -0 1 0 792)" font-size="10.9091" font-family="LMRoman10"><tspan y="-686.72506" x="72">&#x2022;</tspan></text>
<text xml:space="preserve" transform="matrix(1 0 -0 1 0 792)" font-size="10.9091" font-family="LMRoman10"><tspan y="-686.72506" x="85.94183 92.00729 101.094577 104.127307 108.98186 113.280048 121.22187 124.2546 130.0146 135.1637 140.61824 144.91643 147.94916 153.41463 161.90192 167.35646 170.38919 174.63283 179.48738 183.76375 189.82921 195.28376 199.52739 202.56012 208.01468 216.50197 219.5347 227.47653 232.62563 237.77472 243.22927 246.262 249.29473 254.74927 260.81474 263.84745">nolessinvasivealternativeisavailable</tspan></text>
<text xml:space="preserve" transform="matrix(1 0 -0 1 0 792)" font-size="10.9091" font-family="LMRoman10"><tspan y="-664.408" x="72">&#x2022;</tspan></text>
<text xml:space="preserve" transform="matrix(1 0 -0 1 0 792)" font-size="10.9091" font-family="LMRoman10"><tspan y="-664.408" x="85.94183 92.00729 98.072757 102.34912 107.80367 112.04731 115.08004 120.53459 130.23279 133.26552 141.20735 144.24008 147.27281 156.36009 159.39282 163.63646 168.49102">durationislimited</tspan></text>
<text xml:space="preserve" transform="matrix(1 0 -0 1 0 792)" font-size="10.9091" font-family="LMRoman10"><tspan y="-642.09207" x="72">&#x2022;</tspan></text>
<text xml:space="preserve" transform="matrix(1 0 -0 1 0 792)" font-size="10.9091" font-family="LMRoman10"><tspan y="-642.09207" x="85.94183 92.00729 101.094577 107.160037 113.225498 117.50186 122.356418 125.389148 130.84369 135.08733 139.94188 149.65099 153.92736 156.96009 161.25827 167.01828 174.9492 180.40375 184.68012 193.1674 196.20014 201.97106 206.21469 210.49106 216.24015 222.3056 228.37107 233.22562 238.08017">nounrelatedrisksareintroduced</tspan></text>
<text xml:space="preserve" transform="matrix(1 0 -0 1 0 792)" font-size="10.9091" font-family="LMRoman10"><tspan y="-619.77609" x="72">&#x2022;</tspan></text>
<text xml:space="preserve" transform="matrix(.9929753 0 -0 1.0070744 0 792)" font-size="10.832467" font-family="LMRoman10"><tspan y="-615.4223" x="86.54798 93.9249 102.94834 107.76878 112.015117 117.43135 122.2518 128.27466 133.09511 142.47603 147.89226 153.91512 158.12895 164.15181 169.56804 173.81436 176.82578 180.73632 190.11722 198.83736 204.86022 209.1282 217.0034 223.02626 228.44249 236.3177 242.64386 251.12569 257.14854 261.41654 266.237 275.9212 279.23594 284.65214 292.57069 297.9869 302.79655 307.01039 310.0218 315.43803 321.46086 329.40107 333.6149 339.63777 345.05397 352.92918 358.3454 362.5917 371.07356 374.08497 378.33128 382.5776 387.39805 392.80348 397.6239 401.87025 406.1382 409.14964 415.1725 418.1839 426.6657 434.4868 437.4982 441.71205 447.73487 453.1511 459.17393 467.06 475.56349 480.66557 486.0818 490.90226 495.14857 501.17143 504.18284 510.20567 519.28329 526.9527 532.67227 538.6951">EmergencyauthoritymustnotbeusedforactionsthatareirreversiblewithoutGoverningBody</tspan></text>
<text xml:space="preserve" transform="matrix(1 0 -0 1 0 792)" font-size="10.9091" font-family="LMRoman10"><tspan y="-606.227" x="85.94 91.394557 97.460018 103.525478 107.80184 112.950939 118.11094 123.56549 126.59822">approval.</tspan></text>
<text xml:space="preserve" transform="matrix(1 0 -0 1 0 792)" font-size="10.9091" font-family="LMMono10"><tspan y="-579.925" x="72 77.72728 89.18184 94.90912 100.6364 112.09096 117.81824 123.54552 129.2728 135.00008 140.72736 146.45464 152.18192 157.9092 169.36376 175.09104 186.5456 192.27288 198.00016 209.45471 215.18199 220.90927 226.63655 238.09111 243.81839 249.54567 255.27295 266.72749 272.45475 278.182 283.90928 289.63655 295.3638 301.09107 306.81834 312.5456 318.27287 324.00013 329.7274 335.45466 341.18193 352.63645 358.3637 364.09098 369.81825 375.5455 381.27278 392.7273 398.45457 409.9091 415.63636 421.36363 427.09089 432.81816 438.5454 444.27268 449.99995 455.7272 461.45448">IFanycriterionisnotmet,THENclassificationreviewismandatory.</tspan></text>
<text xml:space="preserve" transform="matrix(1 0 -0 1 0 792)" font-size="11.9552" font-family="LMRoman12" font-weight="bold"><tspan y="-550.716" x="72 82.10214 94.85834 99.34154 106.07232 112.8031 116.54508 130.74787 140.77828 147.50905 151.25102 154.993 158.73497 166.20697 177.42095 182.43018 189.53157 196.2504 203.36374 209.34134 215.88083 221.1172 224.85918 231.58995 243.54515 251.77033 257.2697 261.0117 267.74247 274.47325 280.60627">OM-11.CRollingInvocationTrigger</tspan></text>
<text xml:space="preserve" transform="matrix(1 0 -0 1 0 792)" font-size="10.9091" font-family="LMMono10"><tspan y="-530.123" x="72 77.72728 89.18184 94.90912 100.6364 106.36368 112.09096 117.81824 123.54552 129.2728 135.00008 146.45464 152.18192 157.9092 163.63648 169.36376 175.09104 180.81832 186.5456 192.27288 203.72743 209.45471 220.90927 226.63655 232.36383 238.09111 243.81839 249.54567 255.27295 266.72749 272.45475 278.182 283.90928 295.3638 301.09107 306.81834 312.5456 324.00013 329.7274 335.45466 341.18193 352.63645 358.3637 369.81825 375.5455 381.27278 392.7273 398.45457 404.18183 409.9091 421.36363 427.09089 432.81816 438.5454 444.27268 449.99995 455.7272 461.45448 467.18174 472.909 484.36354 490.0908 495.81806 501.54533 507.27259 512.9999 524.45449 535.90908 541.63638 547.36367 553.09097 558.81826 564.54556 570.2728">IFemergencyauthorityisinvokedmorethanoncebythesameindividualwithinarolling</tspan><tspan y="-516.574" x="72 77.72728 83.45456 89.18184 94.90912 100.6364 112.09096 117.81824 123.54552 129.2728 135.00008 140.72736 146.45464 157.9092 163.63648 169.36376 175.09104 186.5456 192.27288 203.72743 209.45471 215.18199 220.90927 226.63655 232.36383 238.09111 243.81839 249.54567 261.0002 266.72749 272.45475 278.182 283.90928 289.63655 295.3638 306.81834 312.5456 318.27287 324.00013 329.7274 335.45466 346.90919 352.63645 358.3637 364.09098 375.5455 381.27278 387.00004 392.7273 398.45457 404.18183">90-daywindow,THENanautomaticpatternreviewmustoccur.</tspan><tspan y="-496.24998" x="72 77.72728 89.18184 94.90912 106.36368 112.09096 117.81824 123.54552 129.2728 135.00008 140.72736 146.45464 152.18192 157.9092 169.36376 175.09104 180.81832 186.5456 192.27288 198.00016 203.72743 215.18199 220.90927 226.63655 232.36383 238.09111 243.81839 249.54567 255.27295 261.0002 272.45475 278.182 283.90928 289.63655 295.3638 301.09107 306.81834 312.5456 318.27287 324.00013 335.45466 341.18193 346.90919 352.63645 364.09098 369.81825 375.5455 387.00004 392.7273 398.45457 404.18183 409.9091 415.63636 421.36363 427.09089 432.81816 438.5454 449.99995 455.7272 461.45448 467.18174 472.909 478.63627 484.36354 490.0908 495.81806 501.54533 512.9999 518.7272 530.18179 535.90908 541.63638 547.36367">IFanindividualinvokesemergencyauthority,THENanyadditionalinvocationbythat</tspan><tspan y="-482.70097" x="72 77.72728 83.45456 89.18184 94.90912 100.6364 106.36368 112.09096 117.81824 123.54552 135.00008 140.72736 146.45464 152.18192 157.9092 163.63648 175.09104 180.81832 186.5456 198.00016 203.72743 209.45471 215.18199 226.63655 232.36383 243.81839 249.54567 255.27295 261.0002 266.72749 278.182 283.90928 289.63655 295.3638 301.09107 306.81834 312.5456 318.27287 324.00013 329.7274 335.45466 341.18193 346.90919 358.3637 364.09098 369.81825 375.5455 381.27278 387.00004 392.7273 398.45457 409.9091 421.36363 427.09089 432.81816 438.5454 444.27268 449.99995 455.7272 461.45448 467.18174 478.63627 484.36354 490.0908 495.81806 501.54533 507.27259 512.9999 524.45449 530.18179 535.90908 541.63638 547.36367 553.09097">individualwithinthenext24hoursautomaticallytriggersamandatorypatternreview</tspan><tspan y="-469.15196" x="72 77.72728 83.45456 89.18184 94.90912 106.36368 112.09096 117.81824 129.2728 135.00008 140.72736 146.45464 157.9092 163.63648 169.36376 180.81832 186.5456 192.27288 198.00016 203.72743 209.45471 215.18199 220.90927 232.36383 238.09111 243.81839 249.54567 255.27295 261.0002 266.72749 272.45475 278.182 283.90928 295.3638 301.09107 306.81834 312.5456 324.00013 329.7274 335.45466 341.18193 346.90919 352.63645 364.09098 369.81825 381.27278 387.00004 392.7273 398.45457 404.18183 409.9091 415.63636 427.09089 432.81816 438.5454 444.27268 449.99995 455.7272 461.45448 467.18174 478.63627 484.36354 490.0908 495.81806 501.54533">flag,butdoesnotprohibitinvocationwhenneededtopreventimminentharm.</tspan></text>
<text xml:space="preserve" transform="matrix(1.0099504 0 -0 .99014756 0 792)" font-size="11.017651" font-family="LMRoman10"><tspan y="-453.29408" x="71.290637 78.49618 84.005 88.29087 92.57674 97.47958 101.79851 112.089 116.40791 121.31076 127.128078 130.19098 135.09384 147.21327 156.0935 162.21932 166.56029 175.01082 181.14765 186.65648 195.10701 201.23282 205.55175 210.4546 214.79557 220.92137 230.09908 239.16661 248.34433 251.40723 255.74817 260.65104 266.15983 272.28565 278.41148 284.53727 289.44013 297.9017 303.41053 309.53633 319.8268 328.70704 334.83283 339.1738 347.62437 353.75016 358.653 362.02439 367.5332 373.65904 376.72193 385.1835 389.4694 399.14289 409.24607 412.30897 416.64994 420.9358 426.4446 431.96446 441.03199 445.9348 448.9977 454.50654 458.8475 463.18846 466.25138 469.31428 472.37718 477.28004 482.78886 487.0747 490.13764 495.64643 505.93693 512.06277 518.18856 521.25149 526.15438 530.4953">PatternreviewmustnotpresumemisconductandmustdefaulttoMistakeclassificationunless</tspan><tspan y="-439.61024" x="71.290637 76.19348 82.0108 85.07371 91.199527 96.10238 102.22819 107.13104 116.37485 120.7158 126.84162 132.97846 139.40174 144.91057 149.22948 153.51534 162.19727 170.4605 173.5234 179.03224 182.09514 187.60398 191.88983 194.95275 200.46157 210.93936 216.44818 225.10807 233.3713 239.49712 245.62293 249.96389 259.21873 265.3445 271.47035 277.59617 282.499 291.15888 295.44477 301.5706 310.82539 318.78013 324.28895 330.41477 334.7557 339.0416 342.1045 346.39039 352.5162 356.80207 359.865 365.37379 371.4996 374.5625 383.25544 391.21018 394.2731 399.7819 404.12287 408.46385 411.52674 414.58964 417.65257 422.5554 428.0642 432.35008 435.413 440.9218 447.0476 454.63877 462.902 467.22096 473.34675 476.40968 480.69554 485.01448 490.5233 494.80915 497.87208 503.3809 509.50669 517.09786 522.6067 528.7325">evidencesupportsViolationorAbuseundertheConstitution&#x2019;sClassification,Arbitration,and</tspan></text>
<text xml:space="preserve" transform="matrix(1 0 -0 1 0 792)" font-size="10.9091" font-family="LMRoman10"><tspan y="-421.73" x="71.596 79.47237 84.32692 89.18147 94.636028 100.701488 106.46149 110.705127 116.159679 122.236049 125.257869 128.29059 131.32332 135.27242 144.66516 150.73062 155.00699 160.15608 165.91609 168.94882 173.24701 176.27974 181.73429 187.79975 192.09793">Accountabilityprovisions.</tspan></text>
<text xml:space="preserve" transform="matrix(1 0 -0 1 0 792)" font-size="11.9552" font-family="LMRoman12" font-weight="bold"><tspan y="-392.521" x="72 82.10214 94.85834 99.34154 106.07232 112.8031 116.54508 131.33367 141.12499 148.59699 156.06899 159.81096 169.53054 180.05112 187.1525 193.88327 200.98467">OM-11.DAuditHooks</tspan></text>
<text xml:space="preserve" transform="matrix(1 0 -0 1 0 792)" font-size="10.9091" font-family="LMMono10"><tspan y="-371.928" x="72 77.72728 89.18184 94.90912 100.6364 106.36368 112.09096 117.81824 123.54552 129.2728 135.00008 146.45464 152.18192 157.9092 163.63648 169.36376 175.09104 180.81832 186.5456 192.27288 203.72743 209.45471 220.90927 226.63655 232.36383 238.09111 243.81839 249.54567 255.27295 261.0002 272.45475 278.182 283.90928 289.63655 301.09107 306.81834 312.5456 324.00013 329.7274 335.45466 341.18193 346.90919 352.63645 364.09098 369.81825 375.5455 381.27278 387.00004">IFemergencyauthorityisinvoked,THENthesystemmust:</tspan></text>
<text xml:space="preserve" transform="matrix(1 0 -0 1 0 792)" font-size="10.9091" font-family="LMRoman10"><tspan y="-345.626" x="72">&#x2022;</tspan></text>
<text xml:space="preserve" transform="matrix(1 0 -0 1 0 792)" font-size="10.9091" font-family="LMMono10"><tspan y="-345.626" x="85.658199 91.385478 97.112758 102.840038 108.567317 114.29459 120.02187 125.74915 131.47643 142.93099 148.65827 154.38555 165.8401 171.56739 177.29467 183.02194 188.74922 194.4765">Timestamptheaction</tspan></text>
<text xml:space="preserve" transform="matrix(1 0 -0 1 0 792)" font-size="10.9091" font-family="LMRoman10"><tspan y="-323.31" x="72">&#x2022;</tspan></text>
<text xml:space="preserve" transform="matrix(1 0 -0 1 0 792)" font-size="10.9091" font-family="LMMono10"><tspan y="-323.31" x="85.94183 91.66911 97.39639 103.12367 114.57823 120.30551 126.03279 137.48735 143.21463 148.94191 154.66919 160.39647 166.12375 171.85103 183.30559 189.03287 194.76015 200.48743 206.2147 211.94199 217.66927">Flagtheactor&#x2019;saccount</tspan></text>
<text xml:space="preserve" transform="matrix(1 0 -0 1 0 792)" font-size="10.9091" font-family="LMRoman10"><tspan y="-300.994" x="72">&#x2022;</tspan></text>
<text xml:space="preserve" transform="matrix(1 0 -0 1 0 792)" font-size="10.9091" font-family="LMMono10"><tspan y="-300.994" x="85.94183 91.66911 97.39639 103.12367 108.85095 114.57823 120.30551 126.03279 137.48735 143.21463 148.94191 154.66919 160.39647 166.12375 171.85103 177.57831 183.30559 194.76015 200.48743 206.2147 217.66927 223.39655 229.12383 234.8511 240.57839 252.03295 257.76023 263.4875 269.21476 274.94203 280.66929 292.1238 297.85108 309.3056 315.03288 320.76014 326.4874 332.21467">Schedulemandatorylogentrywithin72hours</tspan></text>
<text xml:space="preserve" transform="matrix(1 0 -0 1 0 792)" font-size="10.9091" font-family="LMRoman10"><tspan y="-278.677" x="72">&#x2022;</tspan></text>
<text xml:space="preserve" transform="matrix(1 0 -0 1 0 792)" font-size="10.9091" font-family="LMMono10"><tspan y="-278.677" x="85.94183 91.66911 97.39639 103.12367 108.85095 114.57823 126.03279 131.76007 137.48735 143.21463 148.94191 154.66919 160.39647 166.12375 171.85103 183.30559 189.03287 194.76015 200.48743 211.94199 217.66927 223.39655 234.8511 240.57839 246.30567 252.03295 257.76023 269.21476 274.94203 280.66929 286.39656 292.1238">NotifyGoverningBodyandAuditroles</tspan></text>
<text xml:space="preserve" transform="matrix(1.0094553 0 -0 .9906332 0 792)" font-size="11.012249" font-family="LMRoman10"><tspan y="-254.76233" x="71.3256 78.82494 87.998149 92.8986 97.2154 102.72153 107.62198 113.74479 118.64524 128.07172 131.1221 136.94759 142.46472 148.26818 153.16864 158.67476 162.95851 166.01992 171.52603 177.64885 185.59969 194.47556 200.59838 204.93721 212.82198 219.25315 227.75461 230.81601 236.32213 241.82825 247.33437 252.23482 261.96968 267.4758 273.5986 283.3224 292.4956 298.00175 304.13557 312.637 317.8458 323.0546 328.56074 331.62217 334.68357 340.1897 346.3125 349.37394 357.88639 361.25614 366.76228 374.68006 379.5805 385.39497 389.67875 394.5792 398.89598 405.01878 410.5249 417.19837 422.7045 427.02128 433.14408 436.2055 440.48927 445.3897 453.3075 458.81364 466.74244 472.24858 478.37138 484.49418 487.5556 495.4514 500.95753 507.08033 511.41917 516.3196 520.6364 526.1425 531.04299">Emergencyinvocationsmustbeloggedandmadeavailableforexternalarbiterorauditobserver</tspan></text>
<text xml:space="preserve" transform="matrix(1.0099504 0 -0 .99014756 0 792)" font-size="11.017651" font-family="LMRoman10"><tspan y="-241.20345" x="71.290637 75.60955 80.5124 86.32972 89.39263 94.29548 102.25023 110.326168 118.29192 124.41773 128.7036 134.21244 143.39014 148.89897 153.18483 156.24774 164.81948 170.94528 176.45412 180.73998 183.80289 186.8658 189.9287 194.83156 200.34038 204.62625 207.68915 213.19799 223.00368 227.28955 236.46726 241.97608 251.77077 256.6736 262.49098 266.77684 271.6797 275.9986 282.12443 287.63325 294.36503 299.87385 304.19279 310.31858 313.3815 317.66737 322.57023 330.56907 336.07786 344.06568 349.5745 355.7003 361.8261 364.889 372.84379 378.3526 384.4784 388.81938 393.7222 398.04115 403.56098 408.46385 416.45164 419.51457 427.5354 431.85435 436.75718 442.57453 448.70033 451.76325 456.08216 460.98503 470.7797 476.2885 482.41435 485.47724 494.96345 498.02635 505.07765 510.58647 516.7123 525.284 530.79287">review.Automaticnotificationtoanexternalarbiterorauditobserverisrequiredonlyifoneor</tspan></text>
<text xml:space="preserve" transform="matrix(1 0 -0 1 0 792)" font-size="10.9091" font-family="LMRoman10"><tspan y="-225.278" x="72 81.08728 86.54183 90.8182 99.30547 104.760028 111.74185 115.98549 122.05095 130.53824 133.87642 139.33097 142.3637 145.39643 150.54552 158.42189 161.45462 167.52008 176.61827 181.46192 186.91646 192.99283 199.05829 202.09102 206.33466 209.36739 214.82193 220.88739 228.81832 234.27286 238.54923 247.03652 256.12379 260.97834 265.222">moreofthefollowingconditionsaremet:</tspan></text>
<text xml:space="preserve" transform="matrix(1 0 -0 1 0 792)" font-size="10.9091" font-family="LMRoman10"><tspan y="-198.976" x="72">&#x2022;</tspan></text>
<text xml:space="preserve" transform="matrix(1 0 -0 1 0 792)" font-size="10.9091" font-family="LMRoman10"><tspan y="-198.976" x="85.94183 90.18547 96.25093 104.73821 109.59276 118.68004 123.53459 127.81096 133.2655 138.12006 144.18552 149.04007 158.43282 163.88736 168.74192 172.98555 176.01828 181.47283 191.18193 194.21466 202.14559 208.21105 213.66559 221.55287 224.89105 230.95652 233.98925 237.02198 246.41472 250.69109 255.54564 261.00019 265.85475 270.1311 274.4293 279.28385 288.98204 296.8584 299.8911 304.13478 310.20024 313.23295 322.94206 325.97477 330.2184 338.14933 344.21479 349.06935 353.9239 356.9566 362.41117 366.68754 371.54209 381.24028 386.09483 391.85484 397.9203 400.953 405.22938 410.68394 414.92759 417.9603 423.41487 433.12397 441.00035 444.03306 450.0985 456.16398 461.31309">theemergencyactionisnotfullyreversedwithinitsdeclaredexpirationwindow</tspan></text>
<text xml:space="preserve" transform="matrix(1 0 -0 1 0 792)" font-size="10.9091" font-family="LMRoman10"><tspan y="-176.66" x="72">&#x2022;</tspan></text>
<text xml:space="preserve" transform="matrix(1.0099504 0 -0 .99014756 0 792)" font-size="11.017651" font-family="LMRoman10"><tspan y="-178.41786" x="85.09329 89.37916 95.504978 105.61918 110.522029 119.69974 124.602588 128.92151 134.43035 139.32219 145.45902 150.35086 161.37952 166.88835 171.79122 176.07707 179.13997 184.6488 195.98596 205.16367 210.6725 214.95836 219.86122 224.18013 227.24304 232.75188 235.81478 238.87769 249.89533 255.40416 258.6158 261.82746 266.7303 271.63316 275.919 285.47135 296.19154 302.6148 307.51768 311.83659 316.17756 321.68638 327.81217 336.48307 341.99189 346.33287 350.6738 355.57667 359.86253 368.54447 374.05326 383.57255 389.69834 395.20716 404.38487 409.89366 412.95658 424.29374 430.71705 435.61988 441.13975 446.64854 452.77436 464.1115 468.3974 474.52323 484.63743 487.70033 496.87803 506.0557 510.94755 517.08438 520.1363 525.64517 529.93099">theemergencyactionmateriallyaffectsaperson,asset,ordomainbeyondtheimmediate</tspan></text>
<text xml:space="preserve" transform="matrix(1 0 -0 1 0 792)" font-size="10.9091" font-family="LMRoman10"><tspan y="-163.111" x="85.94 90.794559 99.881839 104.73639 109.01276 114.46731 119.32185 125.387317 130.24187 139.63462 144.48917 149.94371 156.00917 162.07463 165.10736 169.351 172.38373 177.83827">emergencycondition</tspan></text>
<text xml:space="preserve" transform="matrix(1 0 -0 1 0 792)" font-size="10.9091" font-family="LMRoman10"><tspan y="-140.79399" x="72">&#x2022;</tspan></text>
<text xml:space="preserve" transform="matrix(1 0 -0 1 0 792)" font-size="10.9091" font-family="LMRoman10"><tspan y="-140.79399" x="85.94183 90.18547 96.25093 104.73821 109.0364 114.49095 123.57823 132.07643 137.53098 142.38553 146.62917 152.08371 159.99282 163.02555 168.78556 174.24011 179.69466 185.16013 190.01468 197.9456 202.80016 211.88744 216.74199 221.01836 226.4729 231.32746 237.39292 242.24747 251.64022 257.09477 263.16023 267.40388 273.46934 278.9239 283.20027 286.23298 290.17118 299.57484 308.6621 314.11668 318.39305 326.8803 331.12397 337.18943 342.64399 352.34217 357.79673 363.86219 368.71675 377.21495 385.0913 388.12403 392.36769 398.43315 401.46586 411.16404 420.2513 424.52769 429.98225 433.01496 436.04768 439.08039 445.14585 454.24406 459.6986 465.15318 468.7859 474.85136 480.00047 489.3932 497.26957 500.30229 506.36775 512.43319 517.59317">thesameactorinvokesemergencyauthoritymorethanoncewithinarolling90-daywindow</tspan></text>
<text xml:space="preserve" transform="matrix(1 0 -0 1 0 792)" font-size="10.9091" font-family="LMRoman10"><tspan y="-118.47799" x="72">&#x2022;</tspan></text>
<text xml:space="preserve" transform="matrix(1 0 -0 1 0 792)" font-size="10.9091" font-family="LMRoman10"><tspan y="-118.47799" x="85.94183 91.396389 97.15639 106.56003 110.836399 115.69095 121.45095 127.51641 130.54914 134.8255 139.66915 149.37825 152.41098 157.86553 166.9528 171.80736 174.84009 179.69464 188.78192 193.63648 199.39649 207.28377 210.3165 218.24742 227.3347 230.36743 234.66562 238.9638 241.99654 248.062 253.51654 260.18199 263.2147 269.28016 274.1347 279.58927 285.65473 289.9529 292.98564 297.2838 301.52748 306.38203 312.15293 316.39659 323.062 328.51658 336.42567 342.49113 347.34568 350.3784 355.5275 360.99296 365.8475 375.5457 381.9166 386.77116 392.2257 397.68028 403.74574 413.4439 419.81483 424.66938 428.94575 438.03303 441.06575 445.3094 449.55305 454.4076 464.10578 467.1385 470.1712 479.25849 482.2912 486.53486">anyrequiredlogelementismissing,inconsistent,ordelayedbeyondpermittedlimits</tspan></text>
<text xml:space="preserve" transform="matrix(1 0 -0 1 0 792)" font-size="10.9091" font-family="LMRoman10"><tspan y="-42.11199" x="303.273">8</tspan></text>
</svg>
