<svg xmlns="http://www.w3.org/2000/svg" xmlns:xlink="http://www.w3.org/1999/xlink" xmlns:inkscape="http://www.inkscape.org/namespaces/inkscape" version="1.1" width="612" height="792" viewBox="0 0 612 792">
<text xml:space="preserve" transform="matrix(1 0 -0 1 0 792)" font-size="10.9091" font-family="LMRoman10"><tspan y="-709.041" x="72">&#x2022;</tspan></text>
<text xml:space="preserve" transform="matrix(1 0 -0 1 0 792)" font-size="10.9091" font-family="LMRoman10"><tspan y="-709.041" x="85.94183 90.79639 95.072757 99.92731 105.38186 109.625499 118.11277 121.1455 126.60005 132.66551 138.12006 141.75279 145.99643 150.85099 155.12735 167.84737 172.12374 176.97829 181.27648 185.52011 189.79648 192.82921 197.68376 201.9274 204.96013 210.41468 216.48014 224.42197 229.87651 239.5747 245.02925 249.8838 254.73836 259.5929 263.89109 268.18928">createlong-termrestrictionsonaccess.</tspan></text>
<text xml:space="preserve" transform="matrix(1 0 -0 1 0 792)" font-size="14.3462" font-family="LMRoman12" font-weight="bold"><tspan y="-674.67306" x="72">4</tspan></text>
<text xml:space="preserve" transform="matrix(1 0 -0 1 0 792)" font-size="14.3462" font-family="LMRoman12" font-weight="bold"><tspan y="-674.67306" x="92.185108 98.19616 107.16254 112.54236 121.508739 128.68184 136.75875 146.16985 158.90927 171.10355 180.06992 184.56027 198.01702 205.86438 210.35474">In-ScopeAnimals</tspan></text>
<text xml:space="preserve" transform="matrix(1 0 -0 1 0 792)" font-size="10.9091" font-family="LMRoman10"><tspan y="-650.32308" x="72 79.4291 88.51638 93.370929 97.64729 103.101848 107.95639 114.02185 118.8764 128.26914 133.72368 139.78914 144.03278 150.09824 155.55278 159.82915 162.86188 166.81098 176.20372 185.291 190.4401 199.83284 205.28739 208.46739 211.64739 216.50194 221.35649 229.24378 233.48741 239.55287 248.04016 251.37834 256.8329 259.8656 262.89833 268.04743 275.9238 278.9565 285.02198 294.12019 299.57475 305.6402 308.6729 317.7602 323.21476 329.8802 334.73475 337.76747 343.22203 347.5202 351.8184 356.67295 360.97114">Emergencyauthoritymayaffectthefollowinganimalclasses:</tspan></text>
<text xml:space="preserve" transform="matrix(1 0 -0 1 0 792)" font-size="10.9091" font-family="LMRoman10"><tspan y="-624.02206" x="72">&#x2022;</tspan></text>
<text xml:space="preserve" transform="matrix(1 0 -0 1 0 792)" font-size="10.9091" font-family="LMMono10"><tspan y="-624.02206" x="85.658199 91.385478 97.112758 102.840038 108.567317 114.29459 120.02187 125.74915 131.47643 137.2037">ANIMAL.DOG</tspan></text>
<text xml:space="preserve" transform="matrix(1 0 -0 1 0 792)" font-size="10.9091" font-family="LMRoman10"><tspan y="-601.70608" x="72">&#x2022;</tspan></text>
<text xml:space="preserve" transform="matrix(1 0 -0 1 0 792)" font-size="10.9091" font-family="LMMono10"><tspan y="-601.70608" x="85.658199 91.385478 97.112758 102.840038 108.567317 114.29459 120.02187 125.74915 131.47643 137.2037 142.93099 148.65827">ANIMAL.OTHER</tspan></text>
<text xml:space="preserve" transform="matrix(.99146357 0 -0 1.00861 0 792)" font-size="10.815974" font-family="LMRoman10"><tspan y="-570.49209" x="72.61992 79.9856 88.99531 93.80841 98.04827 103.45626 108.26936 114.28305 119.09615 128.4628 133.87079 139.88446 144.09188 150.10555 155.51354 159.7534 162.76024 166.6648 176.04225 184.7383 190.75197 195.01346 202.88748 208.90116 214.30915 222.18317 227.59116 233.60483 237.81224 243.82592 249.2339 253.47377 256.4806 261.2829 269.76264 272.76948 277.00935 281.2492 286.06236 291.4703 296.27265 300.5125 304.77403 307.78086 313.80534 316.80137 325.2811 334.2908 339.10395 345.1176 348.12446 352.93757 358.34556 365.0082 371.02189 375.835 380.64814 383.65498 387.91648 390.9233 396.3313 402.34498 406.60649 413.2799 418.09306 424.10673 428.31416 434.32783 439.7358 445.74949 451.15748 455.41899 458.4258 463.8338 470.50724 475.91523 483.8109 488.62403 494.33488 500.65138 505.4645 509.70439 512.7112 521.7209 526.534 532.2449 536.4523 541.8603">Emergencyauthoritymustnotauthorizeirreversiblemedicaldecisions,euthanasia,orexperimental</tspan></text>
<text xml:space="preserve" transform="matrix(1 0 -0 1 0 792)" font-size="10.9091" font-family="LMRoman10"><tspan y="-561.855" x="72 76.24364 80.520008 85.37456 90.82911 95.07275 104.16003 109.01457 114.774578 119.01821">treatment.</tspan></text>
<text xml:space="preserve" transform="matrix(1 0 -0 1 0 792)" font-size="14.3462" font-family="LMRoman12" font-weight="bold"><tspan y="-527.487" x="72">5</tspan></text>
<text xml:space="preserve" transform="matrix(1 0 -0 1 0 792)" font-size="14.3462" font-family="LMRoman12" font-weight="bold"><tspan y="-527.487" x="92.185108 98.19616 107.16254 112.54236 121.508739 128.68184 136.75875 146.16985 158.90927 169.9415 178.46314 186.98477 193.35449 197.84485 205.01795 212.86531 222.73549 231.70186 240.66823 248.5156 255.68869 263.04829">In-ScopePhysicalSpaces</tspan></text>
<text xml:space="preserve" transform="matrix(1 0 -0 1 0 792)" font-size="10.9091" font-family="LMRoman10"><tspan y="-503.138" x="72 79.4291 88.51638 93.370929 97.64729 103.101848 107.95639 114.02185 118.8764 128.26914 133.72368 139.78914 144.03278 150.09824 155.55278 159.82915 162.86188 166.81098 176.20372 185.291 190.4401 199.83284 205.28739 208.46739 211.64739 216.50194 221.35649 229.24378 234.69832 239.55287 244.40743 249.25107 253.56017 261.49107 265.7347 274.822 280.27656 288.19657 294.26203 298.5602 307.0475 312.50205 319.47297 323.7166 329.78208 338.28028 341.61848 347.07304 350.10575 353.13847 358.28758 366.16395 369.19667 375.26213 384.3494 388.64759 394.71305 400.1676 405.02217 413.52037 418.364 421.39674 426.8513 431.16038 435.45857 440.3131 444.6113">Emergencyauthoritymayaffectaccesstooruseofthefollowingspaceclasses:</tspan></text>
<text xml:space="preserve" transform="matrix(1 0 -0 1 0 792)" font-size="10.9091" font-family="LMRoman10"><tspan y="-476.836" x="72">&#x2022;</tspan></text>
<text xml:space="preserve" transform="matrix(1 0 -0 1 0 792)" font-size="10.9091" font-family="LMMono10"><tspan y="-476.836" x="85.94183 91.66911 97.39639 103.12367 108.85095 114.57823 120.30551 126.03279 131.76007 137.48735 143.21463 148.94191 154.66919 160.39647">SPACE.BUILDING</tspan></text>
<text xml:space="preserve" transform="matrix(1 0 -0 1 0 792)" font-size="10.9091" font-family="LMRoman10"><tspan y="-454.52" x="72">&#x2022;</tspan></text>
<text xml:space="preserve" transform="matrix(1 0 -0 1 0 792)" font-size="10.9091" font-family="LMMono10"><tspan y="-454.52" x="85.94183 91.66911 97.39639 103.12367 108.85095 114.57823 120.30551 126.03279 131.76007 137.48735">SPACE.ROOM</tspan></text>
<text xml:space="preserve" transform="matrix(1 0 -0 1 0 792)" font-size="10.9091" font-family="LMRoman10"><tspan y="-432.20399" x="72">&#x2022;</tspan></text>
<text xml:space="preserve" transform="matrix(1 0 -0 1 0 792)" font-size="10.9091" font-family="LMMono10"><tspan y="-432.20399" x="85.94183 91.66911 97.39639 103.12367 108.85095 114.57823 120.30551 126.03279 131.76007 137.48735 143.21463 148.94191 154.66919 160.39647">SPACE.CORRIDOR</tspan></text>
<text xml:space="preserve" transform="matrix(1 0 -0 1 0 792)" font-size="10.9091" font-family="LMRoman10"><tspan y="-409.887" x="72">&#x2022;</tspan></text>
<text xml:space="preserve" transform="matrix(1 0 -0 1 0 792)" font-size="10.9091" font-family="LMMono10"><tspan y="-409.887" x="85.94183 91.66911 97.39639 103.12367 108.85095 114.57823 120.30551 126.03279 131.76007 137.48735 143.21463">SPACE.TRAIL</tspan></text>
<text xml:space="preserve" transform="matrix(1 0 -0 1 0 792)" font-size="10.9091" font-family="LMRoman10"><tspan y="-387.57099" x="72">&#x2022;</tspan></text>
<text xml:space="preserve" transform="matrix(1 0 -0 1 0 792)" font-size="10.9091" font-family="LMMono10"><tspan y="-387.57099" x="85.94183 91.66911 97.39639 103.12367 108.85095 114.57823 120.30551 126.03279 131.76007 137.48735 143.21463">SPACE.FIELD</tspan></text>
<text xml:space="preserve" transform="matrix(1 0 -0 1 0 792)" font-size="10.9091" font-family="LMRoman10"><tspan y="-365.25498" x="72">&#x2022;</tspan></text>
<text xml:space="preserve" transform="matrix(1 0 -0 1 0 792)" font-size="10.9091" font-family="LMMono10"><tspan y="-365.25498" x="85.94183 91.66911 97.39639 103.12367 108.85095 114.57823 120.30551 126.03279 131.76007 137.48735 143.21463 148.94191 154.66919 160.39647 166.12375 171.85103 177.57831 183.30559 189.03287">SPACE.WATER_FEATURE</tspan></text>
<text xml:space="preserve" transform="matrix(1 0 -0 1 0 792)" font-size="10.9091" font-family="LMRoman10"><tspan y="-342.938" x="72">&#x2022;</tspan></text>
<text xml:space="preserve" transform="matrix(1 0 -0 1 0 792)" font-size="10.9091" font-family="LMMono10"><tspan y="-342.938" x="85.94183 91.66911 97.39639 103.12367 108.85095 114.57823 120.30551 126.03279 131.76007 137.48735 143.21463 148.94191 154.66919">SPACE.PARKING</tspan></text>
<text xml:space="preserve" transform="matrix(1 0 -0 1 0 792)" font-size="10.9091" font-family="LMRoman10"><tspan y="-316.637" x="72 79.4291 88.51638 93.370929 97.64729 103.101848 107.95639 114.02185 118.8764 128.26914 133.72368 139.78914 144.03278 150.09824 155.55278 159.82915 162.86188 166.81098 176.20372 185.291 190.4401 199.83284 205.28739 211.35285 214.38558 223.78923 228.0656 232.92015 237.21834 241.46198 245.73834 248.77108 253.62563 261.50199 265.74565 271.8111 280.29838 289.38566 292.41838 298.48384 301.51655 310.29838 316.37474 329.09474 333.3929 339.45838 344.91294 349.1566 352.1893 357.64387 364.3093 368.60749 373.46205 378.9166 385.2875 393.77479 399.84025 404.6948 409.54936 414.4039 418.7021 423.00028 428.45484 432.7312 442.13487 446.3785 455.4658 461.53126 465.80763 470.66218 476.11674 480.97129 486.7313 494.6186 500.68406 506.1386 510.41499 519.50228">Emergencyauthoritymayonlyrestricttheminimumspatialscopenecessarytopreventharm.</tspan></text>
<text xml:space="preserve" transform="matrix(1 0 -0 1 0 792)" font-size="14.3462" font-family="LMRoman12" font-weight="bold"><tspan y="-282.26899" x="72">6</tspan></text>
<text xml:space="preserve" transform="matrix(1 0 -0 1 0 792)" font-size="14.3462" font-family="LMRoman12" font-weight="bold"><tspan y="-282.26899" x="92.185108 98.19616 107.16254 112.54236 121.508739 128.68184 136.75875 146.16985 158.90927 171.10355 177.47327 183.84299 191.20259 197.48622 209.23577 217.08313 226.0495 240.39569 252.80516 259.0888 263.57917 268.06953 272.55989 278.8435 283.33387 290.69346">In-ScopeAssetsandUtilities</tspan></text>
<text xml:space="preserve" transform="matrix(1 0 -0 1 0 792)" font-size="10.9091" font-family="LMRoman10"><tspan y="-257.91899" x="72 79.4291 88.51638 93.370929 97.64729 103.101848 107.95639 114.02185 118.8764 128.26914 133.72368 139.78914 144.03278 150.09824 155.55278 159.82915 162.86188 166.81098 176.20372 185.291 190.4401 199.83284 205.28739 208.46739 211.64739 216.50194 221.35649 229.24378 233.48741 239.55287 248.04016 251.37834 256.8329 259.8656 262.89833 268.04743 275.9238 278.9565 285.02198 294.12019 299.57475 303.87294 308.1711 313.02568 320.90205 325.7566 328.7893 334.24388 338.54206 342.84025 347.6948 351.99299">Emergencyauthoritymayaffectthefollowingassetclasses:</tspan></text>
<text xml:space="preserve" transform="matrix(1 0 -0 1 0 792)" font-size="10.9091" font-family="LMRoman10"><tspan y="-231.61798" x="72">&#x2022;</tspan></text>
<text xml:space="preserve" transform="matrix(1 0 -0 1 0 792)" font-size="10.9091" font-family="LMMono10"><tspan y="-231.61798" x="85.658199 91.385478 97.112758 102.840038 108.567317 114.29459 120.02187 125.74915 131.47643 137.2037 142.93099 148.65827 154.38555 160.11283 165.8401 171.56739 177.29467">ASSET.UTILITY.GAS</tspan></text>
<text xml:space="preserve" transform="matrix(1 0 -0 1 0 792)" font-size="10.9091" font-family="LMRoman10"><tspan y="-209.30199" x="72">&#x2022;</tspan></text>
<text xml:space="preserve" transform="matrix(1 0 -0 1 0 792)" font-size="10.9091" font-family="LMMono10"><tspan y="-209.30199" x="85.658199 91.385478 97.112758 102.840038 108.567317 114.29459 120.02187 125.74915 131.47643 137.2037 142.93099 148.65827 154.38555 160.11283 165.8401 171.56739 177.29467 183.02194 188.74922 194.4765 200.20378 205.93106">ASSET.UTILITY.ELECTRIC</tspan></text>
<text xml:space="preserve" transform="matrix(1 0 -0 1 0 792)" font-size="10.9091" font-family="LMRoman10"><tspan y="-186.98499" x="72">&#x2022;</tspan></text>
<text xml:space="preserve" transform="matrix(1 0 -0 1 0 792)" font-size="10.9091" font-family="LMMono10"><tspan y="-186.98499" x="85.658199 91.385478 97.112758 102.840038 108.567317 114.29459 120.02187 125.74915 131.47643 137.2037 142.93099 148.65827 154.38555 160.11283 165.8401 171.56739 177.29467 183.02194 188.74922">ASSET.UTILITY.WATER</tspan></text>
<text xml:space="preserve" transform="matrix(1 0 -0 1 0 792)" font-size="10.9091" font-family="LMRoman10"><tspan y="-164.66899" x="72">&#x2022;</tspan></text>
<text xml:space="preserve" transform="matrix(1 0 -0 1 0 792)" font-size="10.9091" font-family="LMMono10"><tspan y="-164.66899" x="85.658199 91.385478 97.112758 102.840038 108.567317 114.29459 120.02187 125.74915 131.47643 137.2037 142.93099 148.65827 154.38555 160.11283 165.8401 171.56739 177.29467 183.02194">ASSET.UTILITY.HVAC</tspan></text>
<text xml:space="preserve" transform="matrix(1 0 -0 1 0 792)" font-size="10.9091" font-family="LMRoman10"><tspan y="-142.353" x="72">&#x2022;</tspan></text>
<text xml:space="preserve" transform="matrix(1 0 -0 1 0 792)" font-size="10.9091" font-family="LMMono10"><tspan y="-142.353" x="85.658199 91.385478 97.112758 102.840038 108.567317 114.29459 120.02187 125.74915 131.47643 137.2037 142.93099 148.65827 154.38555 160.11283 165.8401 171.56739 177.29467 183.02194 188.74922 194.4765 200.20378">ASSET.SAFETY.FIRE_EXT</tspan></text>
<text xml:space="preserve" transform="matrix(1 0 -0 1 0 792)" font-size="10.9091" font-family="LMRoman10"><tspan y="-120.035999" x="72">&#x2022;</tspan></text>
<text xml:space="preserve" transform="matrix(1 0 -0 1 0 792)" font-size="10.9091" font-family="LMMono10"><tspan y="-120.035999" x="85.658199 91.385478 97.112758 102.840038 108.567317 114.29459 120.02187 125.74915 131.47643 137.2037 142.93099 148.65827 154.38555 160.11283 165.8401 171.56739">ASSET.SAFETY.AED</tspan></text>
<text xml:space="preserve" transform="matrix(1 0 -0 1 0 792)" font-size="10.9091" font-family="LMRoman10"><tspan y="-97.71999" x="72">&#x2022;</tspan></text>
<text xml:space="preserve" transform="matrix(1 0 -0 1 0 792)" font-size="10.9091" font-family="LMMono10"><tspan y="-97.71999" x="85.658199 91.385478 97.112758 102.840038 108.567317 114.29459 120.02187 125.74915 131.47643 137.2037 142.93099 148.65827 154.38555 160.11283 165.8401 171.56739 177.29467 183.02194 188.74922 194.4765 200.20378 205.93106">ASSET.SAFETY.FIRST_AID</tspan></text>
<text xml:space="preserve" transform="matrix(1 0 -0 1 0 792)" font-size="10.9091" font-family="LMRoman10"><tspan y="-75.40399" x="72">&#x2022;</tspan></text>
<text xml:space="preserve" transform="matrix(1 0 -0 1 0 792)" font-size="10.9091" font-family="LMMono10"><tspan y="-75.40399" x="85.658199 91.385478 97.112758 102.840038 108.567317 114.29459 120.02187 125.74915 131.47643 137.2037 142.93099 148.65827 154.38555 160.11283 165.8401 171.56739 177.29467 183.02194 188.74922 194.4765 200.20378 205.93106 211.65834 217.38562 223.1129 228.84018">ASSET.SAFETY.BARRICADE_KIT</tspan></text>
<text xml:space="preserve" transform="matrix(1 0 -0 1 0 792)" font-size="10.9091" font-family="LMRoman10"><tspan y="-42.11199" x="303.273">3</tspan></text>
</svg>
