<svg xmlns="http://www.w3.org/2000/svg" xmlns:xlink="http://www.w3.org/1999/xlink" xmlns:inkscape="http://www.inkscape.org/namespaces/inkscape" version="1.1" width="612" height="792" viewBox="0 0 612 792">
<text xml:space="preserve" transform="matrix(1 0 -0 1 0 792)" font-size="11.9552" font-family="LMRoman12" font-weight="bold"><tspan y="-709.041" x="72 78.73078 82.47276 89.203548">4.10</tspan></text>
<text xml:space="preserve" transform="matrix(1 0 -0 1 0 792)" font-size="11.9552" font-family="LMRoman12" font-weight="bold"><tspan y="-709.041" x="106.02451 118.780719 125.32021 130.5566 136.6896 142.189 145.93097 152.47046 160.69564 170.47499 176.45259 181.68897 185.43094 192.16172">MaterialAction</tspan></text>
<text xml:space="preserve" transform="matrix(.9899495 0 -0 1.0101526 0 792)" font-size="10.799458" font-family="LMRoman10"><tspan y="-681.5287" x="72.322879 83.79189 93.695 99.09473 103.295719 108.10148 112.33487 115.33712 120.73685 127.10853 134.89495 139.7007 143.90169 146.90393 152.30367 161.6776 164.67986 172.30428 177.704 183.40612 192.46686 197.8666 202.67235 206.87334 209.8756 215.27532 221.27982 227.71631 233.72081 238.52657 243.33232 246.33458 250.58956 253.59181 258.99153 264.99604 271.4217 276.8214 285.81739 288.81965 293.07463 297.3296 300.33186 305.73158 311.73609 318.17256 323.5723 329.57679 333.77778 339.78227 345.182 349.41539 352.4176 357.22337 362.62309 366.82408 369.82633 375.22605 381.23057 387.65623 393.05595 400.65876 405.7561 411.15583 415.96159 420.18415 424.4175 427.41978 433.4243 441.59947 445.8004 451.80494 457.20466 464.77507 473.77104 479.17076 483.37174 488.1775 492.41087 495.41313 500.81285 503.8151 506.81733 515.88888 521.28866 524.4367 527.58468 532.39047 537.19619 541.39718">AMaterialActionisanyaction,decision,omission,authorization,oroverridethatmateriallyaffects</tspan></text>
<text xml:space="preserve" transform="matrix(.995992 0 -0 1.0040242 0 792)" font-size="10.8653759" font-family="LMRoman10"><tspan y="-672.194" x="71.008609 75.23524 80.66792 88.58878 94.62994 99.46503 102.4856 105.50618 111.547328 116.382419 126.07433 129.0949 138.77594 144.8171 149.65219 154.48729 158.71392 161.7345 167.16719">(asdefinedinSection</tspan></text>
<text xml:space="preserve" transform="matrix(.995992 0 -0 1.0040242 0 792)" font-size="10.8653759" font-family="LMRoman10"><tspan y="-672.194" x="176.84824 182.28093 185.3015">4.9</tspan></text>
<text xml:space="preserve" transform="matrix(.995992 0 -0 1.0040242 0 792)" font-size="10.8653759" font-family="LMRoman10"><tspan y="-672.194" x="190.73419 198.61159 204.04428 209.7812 219.15802 225.5034 230.3385 234.59774 238.87868 244.31137 250.35253 257.02388 262.45658 266.73753 271.01847 275.85356 280.08018 286.74064 292.78178 298.21449 307.26536 312.69804 315.7186 321.75975 328.43107 333.86378 339.9049 342.92549 345.94606 351.37873 356.81144 361.03807 364.05863 369.4913 375.53245 382.1929 386.47386 391.90657 395.23139 400.06648 403.98887 413.37657 418.20075 423.63346 429.6855 435.72663 438.7472 442.97383 445.9944 451.42707 457.4682 464.12867 471.66926 476.50434 479.52488 482.8497 488.28239 492.54164 501.0166 506.44929 512.4904 516.71707 521.5522 526.98489 536.0357 540.87088">)anyperson,asset,domain,obligation,safetycondition,welfareoutcome,</tspan></text>
<text xml:space="preserve" transform="matrix(1 0 -0 1 0 792)" font-size="10.9091" font-family="LMRoman10"><tspan y="-661.35" x="72 78.06546 81.09819 86.55274 92.6182 95.65093 99.58911 108.99275 115.05821 119.33458 124.78913 129.03278 133.88733 138.74188 142.98552 146.00734 151.46189 157.53826 164.20372 169.65827 177.56737 183.02191 188.171 193.63648 198.49103 202.7674 208.83286 214.2874 220.35286 225.20742 233.6947 242.78199 247.63654 252.18564 258.2511 263.70567 269.77113 272.80384 277.10203 286.1893">dignityprotection,orgovernancemechanism.</tspan><tspan y="-641.026" x="71.596 83.41055 93.4142 98.86875 103.11239 107.966938 112.2433 115.27603 120.73058 127.40695 135.28333 140.13788 144.38152 147.41425 152.86879 162.56699 165.59972 171.66518 176.51973 179.55246 185.61792 191.68338 196.53794 200.83612">AMaterialActionincludes:</tspan></text>
<text xml:space="preserve" transform="matrix(1 0 -0 1 0 792)" font-size="10.9091" font-family="LMRoman10"><tspan y="-614.725" x="72">&#x2022;</tspan></text>
<text xml:space="preserve" transform="matrix(1 0 -0 1 0 792)" font-size="10.9091" font-family="LMRoman10"><tspan y="-614.725" x="85.94183 91.396389 97.15639 106.56003 112.62549 117.48004 122.334598 125.367328 129.66551 132.69824 138.15279 147.85099 152.09462 158.16008 163.61463 171.491 175.76737 180.62192 186.38193 192.44739 195.48012 199.75649 204.61104 212.55287 221.64015 225.91652 230.77108 235.62563 241.08017 245.35654 251.422 256.27656 265.97474 271.4293 276.88386 281.1275 289.6257 295.69117 301.75663 307.82209 312.67665 320.58573 324.82939 330.89485 333.92756 341.85847 347.92393 353.68394 358.53849 364.60395 373.69123 378.54579 384.3058">anydecisionthatrequiresarecordedvoteunderthisdocument</tspan></text>
<text xml:space="preserve" transform="matrix(1 0 -0 1 0 792)" font-size="10.9091" font-family="LMRoman10"><tspan y="-592.40798" x="72">&#x2022;</tspan></text>
<text xml:space="preserve" transform="matrix(1 0 -0 1 0 792)" font-size="10.9091" font-family="LMRoman10"><tspan y="-592.40798" x="85.94183 91.396389 97.15639 106.56003 109.59276 115.35276 120.807308 126.567317 131.42186 136.8764 141.12004 144.15277 149.60732 159.30551 164.76006 171.74188 176.58553 185.6728 190.52736 194.80373 200.25827 205.11283 211.17829 216.03284 225.4365 230.89104 236.9565 241.20014 247.2656 252.72014 256.99653 260.02925 263.96745">anyinvocationofemergencyauthority</tspan></text>
<text xml:space="preserve" transform="matrix(1 0 -0 1 0 792)" font-size="10.9091" font-family="LMRoman10"><tspan y="-570.092" x="72">&#x2022;</tspan></text>
<text xml:space="preserve" transform="matrix(1 0 -0 1 0 792)" font-size="10.9091" font-family="LMRoman10"><tspan y="-570.092" x="85.94183 91.396389 97.15639 106.56003 111.70912 117.163669 122.01822 126.294589 130.57096 133.60369 139.66915 148.15644 153.61098 160.5928 169.68009 176.051 181.50554 184.53827 187.571 192.42555 197.2692 203.94557 210.01103 214.2874 220.03649 224.89104 229.74559 235.81105 241.87651 246.15288 251.00743 257.6838 261.982 267.43656 270.77476 275.6293 281.08387 287.14933 292.60389 296.88026 302.9457 309.61116 315.0657 322.9748 329.04026 333.8948 337.233 342.68757 348.75303 351.78575 359.67304 363.9494 368.80397 373.10215 377.3458 381.62217 384.65489 389.50944 393.75309 396.7858 402.24037">anyoverrideofapolicy,procedure,safeguard,ordefaultrestriction</tspan></text>
<text xml:space="preserve" transform="matrix(1 0 -0 1 0 792)" font-size="10.9091" font-family="LMRoman10"><tspan y="-547.776" x="72">&#x2022;</tspan></text>
<text xml:space="preserve" transform="matrix(.9899495 0 -0 1.0101526 0 792)" font-size="10.799458" font-family="LMRoman10"><tspan y="-542.2705" x="86.81251 92.212238 97.914348 106.91029 112.31002 117.11578 121.31677 124.31902 129.71875 139.0279 143.22888 149.23339 154.6331 162.12793 166.93369 171.18868 175.38967 180.7894 186.7939 189.79615 192.79839 197.05338 203.05788 207.86363 215.42327 221.42777 225.66115 230.4669 235.27268 240.07843 246.08293 250.88869 256.58003 264.08564 268.2866 274.2911 279.69084 287.18565 294.68049 300.0802 306.08473 309.08695 318.3961 322.62947 327.4352 332.83494 337.08995 342.48966 348.49415 353.8939 359.89839 362.90065 371.8966 374.89884 380.90336 383.9056 386.90785 392.91236 397.71809 403.7226 408.52836 416.63874 419.94337 425.94786 430.14884 436.15333 440.38673 448.4863 454.49079 459.29655 464.1023 467.10456 471.35954 474.3618 479.7615 485.766 493.32563 498.72535 505.32383 514.0282 518.2832 521.2854 530.2813 533.28359 536.28579 541.6855">anyactionthatestablishesprecedentthatwouldreasonablyinfluencefuturedecisionsofasimilar</tspan></text>
<text xml:space="preserve" transform="matrix(1 0 -0 1 0 792)" font-size="10.9091" font-family="LMRoman10"><tspan y="-534.226" x="85.94 89.87818 95.63818 102.0091">type</tspan></text>
<text xml:space="preserve" transform="matrix(1 0 -0 1 0 792)" font-size="10.9091" font-family="LMRoman10"><tspan y="-511.91" x="72">&#x2022;</tspan></text>
<text xml:space="preserve" transform="matrix(.9899495 0 -0 1.0101526 0 792)" font-size="10.799458" font-family="LMRoman10"><tspan y="-506.765" x="86.81251 91.04589 96.445629 102.45013 106.651119 109.653369 115.65786 123.84386 129.24359 134.04935 138.25034 141.25258 146.65232 152.65682 160.28124 164.48223 170.48673 175.88645 183.46767 188.86739 193.10079 201.28676 205.52016 210.32592 215.71485 220.5206 224.75399 229.00897 232.01123 238.01573 241.01798 245.82373 252.26023 256.49363 261.89335 264.8956 269.70133 273.29759 277.55256 282.3583 287.75804 294.0757 298.88145 304.88597 311.32246 316.72218 322.72666 332.1114 335.11366 340.51338 345.9131 351.31285 356.11857 365.4925 371.497 380.27696 386.28147 391.68119 399.2624 405.56929 410.37504 415.18077 420.5805 429.57646 437.76243 447.66554 453.06526 457.26625 462.07197 466.30534 469.3076 474.7073 481.079 488.87623 493.68196 497.88294 500.8852 506.2849 512.2894 519.9246 524.1796 529.57937 532.58157 537.38729 540.3895">routineactionsthatarereversible,role-scoped,andloggeddonotbecomeMaterialActionssolely</tspan></text>
<text xml:space="preserve" transform="matrix(1 0 -0 1 0 792)" font-size="10.9091" font-family="LMRoman10"><tspan y="-498.361" x="85.94 92.00546 98.07092 106.558208 110.80184 119.90003 125.660037 131.42005 137.79096 143.2455 147.48914 153.5546 158.40915 162.65279 165.68552 170.54007 175.99462 182.66008 188.72554 193.0019 197.85646 202.71102 207.56557 213.63103 218.48558 224.24559 232.12197 236.97652 242.43106 248.49652 253.35108 258.20564 262.482 268.54747 276.4893 281.94386 289.85295 295.3075 301.37297 305.67115 309.9148 314.19117 319.64573 324.50028 332.37666 338.4421 343.6021 351.4785 357.54396 361.84214 366.0858 370.36216 375.2167 380.67127 393.39128 399.45674 402.48945 406.78764 412.2422 417.69676 421.9731 426.82768 431.68223 440.7695 445.62406 451.38407 455.62773">duetohypotheticalprecedentconcernsorabstractdownstreamdisagreement.</tspan></text>
<text xml:space="preserve" transform="matrix(.9899495 0 -0 1.0101526 0 792)" font-size="10.799458" font-family="LMRoman10"><tspan y="-467.31553" x="72.73098 76.62958 83.454837 87.688228 92.49399 97.893718 102.1487 107.54843 113.55293 118.95266 124.95716 127.95941 136.2858 142.2903 145.29254 149.54753 154.94725 160.34699 164.58037 169.38614 174.1919 183.18784 187.9936 193.6849 201.40653 206.2123 211.9144 214.91666 219.17165 223.37264 227.62761 234.18289 239.58263 247.35823 253.06035 259.06483 264.46458 267.4668 270.46907 273.4713 276.47358 281.2793 290.79365 296.80894 302.81343 308.81794 313.62367 321.36686 327.37138 332.17713 336.98286 341.18385 344.1861 349.58583">Ifreasonabledisagreementexists,asqualifiedunderSection</tspan></text>
<text xml:space="preserve" transform="matrix(.9899495 0 -0 1.0101526 0 792)" font-size="10.799458" font-family="LMRoman10"><tspan y="-467.31553" x="359.11094 364.51066 367.5129">4.9</tspan></text>
<text xml:space="preserve" transform="matrix(.9899495 0 -0 1.0101526 0 792)" font-size="10.799458" font-family="LMRoman10"><tspan y="-467.31553" x="372.91264 379.4679 384.8676 392.64323 396.8442 405.75376 413.55097 419.56626 424.3612 428.56217 434.57746 439.37245 447.1264 452.52613 462.05125 467.451 472.2567 476.4577 479.45997 484.85969 494.3848 497.38706 505.16264 514.1586 519.55838 523.7593 528.56509 532.79849 535.80068 541.2004 544.20266">,astowhetheranactionismaterial,</tspan></text>
<text xml:space="preserve" transform="matrix(1 0 -0 1 0 792)" font-size="10.9091" font-family="LMRoman10"><tspan y="-458.51" x="72 75.03273 82.909099 91.70183 97.76729 102.065479 109.94184 116.31276 124.80004 129.04369 133.32006 138.1746 143.62915 147.87279 152.72734 162.42554 167.88008 175.82192 184.9092 194.91284 200.36739 204.61103 209.46558 213.74195 216.77468 222.22922 228.89469 236.77106 241.62561 245.86925 248.90198 254.35652 260.42198">itmustbetreatedasaMaterialAction.</tspan><tspan y="-438.187" x="72 82.00365 88.06911 92.312747 97.767299 103.832759 106.865489 109.89822 112.93095 116.869129 122.62913 130.5164 138.69823 144.76369 149.31279 155.37825 160.8328 166.89826 172.3528 177.20735 182.6619 188.72736 191.76009">Mutability:Unchangeable</tspan></text>
<text xml:space="preserve" transform="matrix(1 0 -0 1 0 792)" font-size="11.9552" font-family="LMRoman12" font-weight="bold"><tspan y="-409.006" x="72 78.73078 82.47276 89.203548">4.11</tspan></text>
<text xml:space="preserve" transform="matrix(1 0 -0 1 0 792)" font-size="11.9552" font-family="LMRoman12" font-weight="bold"><tspan y="-409.006" x="106.02451 116.054927 122.18794 128.16555 134.89632 140.3957 147.8677 154.00072 165.95592 176.2613 182.39432 188.37192 192.11389 197.422 201.16397 207.89475 219.84995 228.67288 235.21237 240.44875 247.53818 256.88716 263.05604">RecordedDecisionPathway</tspan></text>
<text xml:space="preserve" transform="matrix(.995992 0 -0 1.0040242 0 792)" font-size="10.8653759" font-family="LMRoman10"><tspan y="-386.85725" x="71.88412 83.68391 91.68083 96.51592 101.35101 106.7837 111.04292 117.084079 121.91917 131.61109 139.91225 144.74735 149.58245 152.60301 156.88397 159.90454 165.33724 175.04003 182.1351 187.5678 191.79444 197.53134 205.07192 210.20038 219.58808 222.60866 230.54038 234.767 240.80815 249.29402 258.34489 261.36543 267.4066 270.42713 279.17378 285.21495 297.9274 302.76249 308.1952 317.24604 323.2872 326.30778 331.14286 335.36949 343.85533 351.7001 355.95936 358.97993 363.20655 367.43318 372.26826 381.96018 386.2194 391.05448 395.88957 401.32228 405.58149 415.2734 419.50004 425.54118 430.97389 438.85127 443.13224 449.18428 454.3127 462.1575 470.08924 476.13038 481.25886 492.75444 498.1871 504.22828 513.92019 521.765 527.5019 536.90048">ARecordedDecisionPathwayistheminimumcompletewrittenrecordthatshowshowandwhya</tspan></text>
<text xml:space="preserve" transform="matrix(1 0 -0 1 0 792)" font-size="10.9091" font-family="LMRoman10"><tspan y="-374.864" x="72 82.00365 87.4582 91.701839 96.55638 100.83275 103.86548 109.32003 115.98549 123.861858 128.7164 132.96004 135.99277 141.44731 151.15642 155.40006 160.8546 168.78553 174.85099 179.70554 182.73827 185.771 191.83646 196.69101 206.40012 209.43285 219.13105 225.1965 230.05106 234.90561 239.14925 242.18198 247.63652">MaterialAction(asdefinedinSection</tspan></text>
<text xml:space="preserve" transform="matrix(1 0 -0 1 0 792)" font-size="10.9091" font-family="LMRoman10"><tspan y="-374.864" x="257.33473 262.78929 265.822 271.27656">4.10</tspan></text>
<text xml:space="preserve" transform="matrix(1 0 -0 1 0 792)" font-size="10.9091" font-family="LMRoman10"><tspan y="-374.864" x="276.7311 284.6184 292.18934 297.6439 305.5748 311.02937 317.09483 321.33848 327.40394 332.8585 337.13487 340.16758 345.02214 349.87669 359.57487 365.02943 371.09489 380.804 385.65855 391.41856 396.2731 401.12767 407.1931 411.43678 416.29133 422.35679">)wasauthorizedandexecuted.</tspan><tspan y="-354.54103" x="71.596 83.41055 91.43965 96.294208 101.14876 106.60331 110.87968 116.94514 121.79968 131.50879 139.84334 144.69789 149.55245 152.57427 156.88336 159.91609 165.37064 175.06884 182.19248 187.64702 191.89066 197.65067 205.2325 210.38159 219.77434 228.55617 234.62163 238.93073 246.8071 249.83983 255.90529 260.75984 263.79255 269.858 275.92347 284.41075 289.8653 292.898 299.56346 305.018 311.99986 316.2435 322.30897 330.79624 334.13444 339.589 342.6217 345.65443 350.80354 358.6799 361.71263 367.77809 373.23265">ARecordedDecisionPathwaymustincludeallofthefollowing:</tspan></text>
<text xml:space="preserve" transform="matrix(1 0 -0 1 0 792)" font-size="10.9091" font-family="LMRoman10"><tspan y="-328.239" x="72">&#x2022;</tspan></text>
<text xml:space="preserve" transform="matrix(1 0 -0 1 0 792)" font-size="10.9091" font-family="LMRoman10"><tspan y="-328.239" x="85.94183 95.02911 101.094577 107.160037 110.192768 115.95277 122.01823 130.51642 133.54915 139.61461 144.46916 150.22917 154.47281 157.50554 160.53827 163.571 168.42555 176.33466 179.67284 185.12738 193.0474 197.29103 203.35649 211.84378 217.29833 222.15288 226.39652 229.42925 234.88379 244.58199 248.85836 253.7129 258.56745 264.022 268.29838">auniqueidentifierfortheactionrecord</tspan></text>
<text xml:space="preserve" transform="matrix(1 0 -0 1 0 792)" font-size="10.9091" font-family="LMRoman10"><tspan y="-305.923" x="72">&#x2022;</tspan></text>
<text xml:space="preserve" transform="matrix(1 0 -0 1 0 792)" font-size="10.9091" font-family="LMRoman10"><tspan y="-305.923" x="85.94183 90.18547 96.25093 104.73821 110.192768 115.04732 119.290958 124.74551 132.66553 138.12007 146.02918 152.40009 158.14917 164.22554 173.61829 177.86193 183.92739 189.38193 197.2583 202.71285 208.7783 213.02194 219.0874 224.54195 228.81832 231.85105 236.7056 241.56015 251.26926 255.5129 261.57835 270.0656 275.52018 280.37474 284.61839 287.6511 293.10566">theactororbodythatauthorizedtheaction</tspan></text>
<text xml:space="preserve" transform="matrix(1 0 -0 1 0 792)" font-size="10.9091" font-family="LMRoman10"><tspan y="-283.607" x="72">&#x2022;</tspan></text>
<text xml:space="preserve" transform="matrix(1 0 -0 1 0 792)" font-size="10.9091" font-family="LMRoman10"><tspan y="-283.607" x="85.94183 90.18547 96.25093 104.73821 110.80367 116.258228 120.50186 129.00006 134.4546 140.52007 150.21826 154.4619 157.49463 166.58191 175.0692 180.52375 187.50557 192.96012 199.02558 203.26921 209.33467 214.78922 219.06558 222.09832 226.95287 232.40741 236.65105 239.68378 245.13832">thedateandtimeofauthorization</tspan></text>
<text xml:space="preserve" transform="matrix(1 0 -0 1 0 792)" font-size="10.9091" font-family="LMRoman10"><tspan y="-261.29" x="72">&#x2022;</tspan></text>
<text xml:space="preserve" transform="matrix(1 0 -0 1 0 792)" font-size="10.9091" font-family="LMRoman10"><tspan y="-261.29" x="85.94183 90.18547 96.25093 104.73821 108.98185 113.25822 116.29095 121.7455 127.20005 132.0546 136.33097 139.3637 145.42916 154.52735 159.37099 164.82553 170.9019 176.96736 180.00009 184.24373 187.27646 192.731 198.79647 206.72739 212.18193 218.24739 227.94559 232.18923 238.25469 246.75289 251.05107 257.42198 262.27653 267.13108 270.1529 273.1856 276.22926 284.71653 290.78199 295.63655 300.4911 303.5238 307.822 310.8547 316.30928 326.00746 332.37837 337.2329 340.26564 346.3311 355.41838 364.50566 369.9602 376.02568">thetriggeringconditionsandthespecificdecisionbeingmade</tspan></text>
<text xml:space="preserve" transform="matrix(1 0 -0 1 0 792)" font-size="10.9091" font-family="LMRoman10"><tspan y="-238.97402" x="72">&#x2022;</tspan></text>
<text xml:space="preserve" transform="matrix(1 0 -0 1 0 792)" font-size="10.9091" font-family="LMRoman10"><tspan y="-238.97402" x="85.94183 90.18547 96.25093 104.73821 109.0364 113.890949 119.3455 125.716419 134.2037 139.65825 146.64008 149.6728 158.76009 164.82555 170.28009 175.13465 179.37828 186.04375 189.07648 195.14194 199.99649 203.02922 209.09468 215.16014 218.19287 224.25833 233.35652 241.2329 247.29836 252.7529 260.62928 263.662 271.5929 277.04747 280.22746 283.40748 288.26203 293.11659 297.36024 302.21479 311.91297 317.36753 323.44389 333.14207 341.01844 347.0839 352.53846 360.41484 363.44755 371.38938 377.45484 382.9094 390.78578 396.24034 399.42033 402.60035 407.4549 412.30946 416.5531 421.40766">thescopeofimpact,includingwhatisaffectedandwhatisnotaffected</tspan></text>
<text xml:space="preserve" transform="matrix(1 0 -0 1 0 792)" font-size="10.9091" font-family="LMRoman10"><tspan y="-216.65802" x="72">&#x2022;</tspan></text>
<text xml:space="preserve" transform="matrix(1.0099504 0 -0 .99014756 0 792)" font-size="11.017651" font-family="LMRoman10"><tspan y="-218.81386" x="85.09329 89.37916 95.504978 104.56148 110.0703 116.19611 120.48198 126.61881 132.12763 136.43553 139.49845 143.48683 153.46883 159.59464 165.10347 169.44443 172.50734 176.8483 184.20809 187.271 193.3968 198.29967 201.36258 207.48839 213.6142 216.67711 222.80292 232.46541 236.75128 242.8881 251.94463 256.28559 262.7089 267.61174 272.51457 275.57749 278.64039 281.70329 290.7708 295.1118 300.01463 304.91746 309.20335 312.26625 317.77507 323.90089 328.18675 332.5277 340.96723 346.47605 354.01213 358.29798 364.4238 367.4867 375.98133 382.10713 387.91343 392.81629 398.94209 408.11979 413.0226 418.85096 427.3015 432.8103 441.2829 446.79173 453.215 458.11787 462.4368 467.9456 472.23149 475.29438 480.8032 486.92903 492.43785 499.6654 508.84315 514.352 520.18038 526.30618 531.815">theauthoritybasis,includingthespecificsection(s)ofthisdocumentoroperationalmanual</tspan></text>
<text xml:space="preserve" transform="matrix(1 0 -0 1 0 792)" font-size="10.9091" font-family="LMRoman10"><tspan y="-203.108" x="85.94 92.00546 96.28183 102.04184 106.89639 111.750949 117.81641 123.88187 128.15824 136.64553 140.92189 145.77645 148.80918 151.8419 156.69646 166.39466 172.46012 178.83103 184.28557">procedurereliedupon</tspan></text>
<text xml:space="preserve" transform="matrix(1 0 -0 1 0 792)" font-size="10.9091" font-family="LMRoman10"><tspan y="-180.792" x="72">&#x2022;</tspan></text>
<text xml:space="preserve" transform="matrix(1 0 -0 1 0 792)" font-size="10.9091" font-family="LMRoman10"><tspan y="-180.792" x="85.94183 91.396389 97.15639 106.56003 110.836399 115.69095 121.45095 127.51641 130.54914 134.8255 139.66915 149.37825 154.83281 160.28736 164.53099 173.01828 177.29465 182.1492 187.00376 192.4583 196.73467 202.80013 209.4765 215.23651 221.30197 226.75652 231.03289 237.09835 249.81836 254.11655 258.3602 263.81477 268.0584 274.12388 278.42207 285.0875 289.36387 294.2184 299.07298 305.13844 309.4366 314.89118 317.9239 322.22209 328.89845 334.353 340.41847 350.11665 355.5712 361.63667 365.93486 370.1785 375.03306 380.79307 385.0367 388.06944 393.524 399.58946 407.53129 415.40766 421.4731 426.32768 430.60404 439.0913 444.54588 450.61134 456.6768 459.7095 462.74223 467.59678 473.05134 479.1168 482.1495">anyrequiredvoterecord,quorumstatus,recusals,andabstentionswhereapplicable</tspan></text>
<text xml:space="preserve" transform="matrix(1 0 -0 1 0 792)" font-size="10.9091" font-family="LMRoman10"><tspan y="-158.47602" x="72">&#x2022;</tspan></text>
<text xml:space="preserve" transform="matrix(1 0 -0 1 0 792)" font-size="10.9091" font-family="LMRoman10"><tspan y="-158.47602" x="85.94183 90.18547 96.25093 104.73821 107.77094 113.225498 118.680049 124.1346 127.16733 133.23279 142.33098 145.36371 151.1128 155.96735 161.42189 165.66553 168.69826 174.1528 183.86191 189.31645 195.38191 205.08011 209.32375 215.3892 223.8765 230.2474 235.10196 239.37833 243.67652 249.13106 258.84016 263.11653 267.97108 272.26927 278.62928 284.08384 290.1493 294.45838 297.4911 303.55656 306.58927 315.07655 318.41474 323.8693 331.77839 336.63294 342.0875 351.17478 357.24024 360.27296 365.1275 369.37117 372.40388 378.46934 387.5566 393.01118 398.78208 408.1748 411.513 416.96757 420.00028 423.033 428.1821 436.05848 439.6912 445.14576 454.85487 460.92033 466.68034 471.524 477.60035 486.68763 491.53129 497.3022 501.54585 507.0004 511.24406 514.2768 519.7313">thelogginglocationandthepersonresponsibleforcompletinganyfollow-ondocumentation</tspan><tspan y="-132.17401" x="72 75.93819 82.9091 88.363658 94.13457 103.5273 107.803668 112.65822 118.41822 124.48368 127.51641 131.79279 136.64734 146.34554 151.20009 154.23282 159.08737 168.17465 173.0292 178.78922 186.6765 189.70923 197.64015 206.72743 209.76016 214.05835 218.35654 221.38927 227.45473 232.90927 239.57474 243.81838 249.88384 258.38203 266.4111 271.26567 276.1202 281.57478 285.85115 291.9166 296.77116 306.46934 314.8039 319.65846 324.513 327.54573 331.8439 334.87663 340.33119 350.02937 357.1639 362.61848 366.86213 372.62214 380.19306 385.34217 394.74583 397.77854 405.70945 408.74217 414.50218 419.66218 425.11674 428.14945 431.18217 437.24763">Ifanyrequiredelementismissing,theRecordedDecisionPathwayisinvalid.</tspan></text>
<text xml:space="preserve" transform="matrix(.9899495 0 -0 1.0101526 0 792)" font-size="10.799458" font-family="LMRoman10"><tspan y="-110.72683" x="72.73098 78.86507 84.26479 91.91082 96.71658 105.712528 110.51829 114.75168 120.151409 124.95717 130.96167 135.76743 144.88217 150.28189 155.08766 159.28865 162.2909 167.69063 173.69513 177.9501 184.41898 193.23134 201.17974 205.98549 210.79126 216.19098 220.42438 226.42888 231.23464 240.65177 248.90254 253.70832 258.51408 261.51634 265.7713 268.77357 274.17329 283.5904 290.64247 296.04219 300.24317 305.93449 313.4293 318.52665 327.6414 332.44715 338.14924 341.1515 345.40647 349.60746 357.27507 363.27958 369.58647 374.98619 384.4141 389.21986 393.45323 398.25898 403.6587 407.85966 410.8619 416.26164 425.67878 431.0785 437.79576 446.6081 451.41386 456.81358 465.80955 471.81407 474.81629 477.81855 483.21827 488.92039 496.534 501.33973 510.3357 515.1414 519.3748 524.7746 529.5803 535.58486 540.39059">Foremergencyactions,aRecordedDecisionPathwayexistsuponcreationofacompliantemergency</tspan></text>
<text xml:space="preserve" transform="matrix(1 0 -0 1 0 792)" font-size="10.9091" font-family="LMRoman10"><tspan y="-98.301" x="72 75.03273 80.48728 89.57456 93.87275 98.11639 104.18185 113.890949 118.7455 124.20005 129.96006 134.20369 139.65824 142.69097 148.75643 151.78916 157.85462 163.30916 169.97463 175.42917 183.31645 192.40373 195.43647 201.50193 204.53466 213.31649 219.38195 228.46923">logstubcontaining,atminimum:</tspan></text>
<text xml:space="preserve" transform="matrix(1 0 -0 1 0 792)" font-size="10.9091" font-family="LMRoman10"><tspan y="-72" x="72">&#x2022;</tspan></text>
<text xml:space="preserve" transform="matrix(1 0 -0 1 0 792)" font-size="10.9091" font-family="LMRoman10"><tspan y="-72" x="85.94183 90.18547 96.25093 104.73821 110.80367 116.86913 119.90186 125.661869 131.72733 140.22553 143.25826 149.32372 154.17827 159.93828 164.18192 167.21465 170.24738 173.2801 178.13466">theuniqueidentifier</tspan></text>
<text xml:space="preserve" transform="matrix(1 0 -0 1 0 792)" font-size="10.9091" font-family="LMRoman10"><tspan y="-42.112" x="300.54499 305.99955">11</tspan></text>
</svg>
