<svg xmlns="http://www.w3.org/2000/svg" xmlns:xlink="http://www.w3.org/1999/xlink" xmlns:inkscape="http://www.inkscape.org/namespaces/inkscape" version="1.1" width="612" height="792" viewBox="0 0 612 792">
<text xml:space="preserve" transform="matrix(1 0 -0 1 0 792)" font-size="10.9091" font-family="LMRoman10" font-weight="bold"><tspan y="-709.041" x="72 78.97092 83.84728 89.94547 94.82184 101.792758 106.74548">Status:</tspan></text>
<text xml:space="preserve" transform="matrix(1 0 -0 1 0 792)" font-size="10.9091" font-family="LMRoman10"><tspan y="-709.041" x="115.06913 122.79277 125.8255 131.90187 137.96733 141.00006 147.06552 156.1528 164.71645 169.86554 175.3201 180.17465 184.45102 190.51648 195.97103 202.03649 206.89104 215.38924 222.51288 227.96743 231.00016 234.03289 238.88744">BindingGovernancePolicy</tspan></text>
<text xml:space="preserve" transform="matrix(.9939819 0 -0 1.0060546 0 792)" font-size="10.843447" font-family="LMRoman10" font-weight="bold"><tspan y="-691.3064" x="71.95604 81.032009 87.96097 92.80798 99.736949 105.971927 111.11172 114.57078 119.05996 125.64193">Authority:</tspan></text>
<text xml:space="preserve" transform="matrix(.9939819 0 -0 1.0060546 0 792)" font-size="10.843447" font-family="LMRoman10"><tspan y="-691.3064" x="133.98055 141.80953 147.83849 153.26021 159.28917 163.50727 168.33261 178.02666 183.752 193.13158 197.34969 203.37865 211.85822 220.37032 225.48844 230.91016 235.73549 239.98613 246.01509 249.02957 255.05852 264.1345 271.81166 277.54786 283.5768 292.9564 298.98536 305.0143 309.26493 313.53727 319.56623 324.98796 330.7133 338.58564 342.80375 351.89057 356.10868 362.13764 370.61723 378.4462 383.86793 389.89689 394.1692 399.59095 402.6054 405.61988 411.64884 417.0706 421.28868 426.114 435.80809 444.32017 449.43827 454.84919 459.6745 463.9251 469.95408 475.3758 481.40476 486.2301 494.72053 503.0049 508.73027 513.5556 519.58456 528.6171 533.44247 539.1677">AdoptedbytheGoverningBodypursuanttotheConsolidatedGovernanceDocument</tspan></text>
<text xml:space="preserve" transform="matrix(.9899495 0 -0 1.0101526 0 792)" font-size="10.799458" font-family="LMRoman10" font-weight="bold"><tspan y="-675.08908" x="72.73098 81.21935 88.1202 93.23915 100.49638 106.70607 111.609027 117.30034">Purpose:</tspan></text>
<text xml:space="preserve" transform="matrix(.9899495 0 -0 1.0101526 0 792)" font-size="10.799458" font-family="LMRoman10"><tspan y="-675.08908" x="125.44313 133.69391 138.49968 141.50193 144.50418 150.50868 158.59749 162.79848 168.80298 176.89177 179.89403 185.29375 190.69348 196.09322 199.09546 205.09996 210.4997 216.86057 222.2603 228.2648 234.2693 237.27155 241.47254 246.87227 252.87677 255.87902 258.88127 261.8835 265.7821 270.56626 276.92716 282.32688 288.3314 297.61894 301.8199 307.2196 316.21559 322.53327 327.339 331.56159 335.1686 339.96357 345.66569 348.66795 354.68324 359.47819 365.1803 372.66429 376.89768 381.7034 387.40553 393.41004 396.41227 400.64567 405.4514 414.44737 419.2531 424.9552 429.1562 436.69419 439.99885 445.39857 452.91499 458.3147 461.31697 467.6022 473.00196 478.0885 483.48823 488.29399 492.52735 498.53187 503.3376 512.6251 518.02487 522.83059 527.03158 530.0338 535.43356 541.43807">Definethelogging,auditability,andtamper-evidentrequirementsforallgovernedactions</tspan></text>
<text xml:space="preserve" transform="matrix(.9899495 0 -0 1.0101526 0 792)" font-size="10.799458" font-family="LMRoman10" font-weight="bold"><tspan y="-661.6762" x="72.73098 81.21935 86.338298 92.02961 97.548137 103.23945 110.140308 115.83162 122.732479 128.25099 133.9423">Precedence:</tspan></text>
<text xml:space="preserve" transform="matrix(.9899495 0 -0 1.0101526 0 792)" font-size="10.799458" font-family="LMRoman10"><tspan y="-661.6762" x="142.20389 148.20839 154.21289 160.53058 165.9303 170.1529 176.1682 179.17044 185.17494 190.57468 194.77567 203.09125 207.29224 216.20178 220.40277 226.40727 234.72287 242.52007 247.9198 253.9243 258.1793 263.579 266.58128 269.58354 275.588 280.98774 285.18873 289.99449 299.5088 307.98637 313.0837 318.47264 323.27839 327.51176 333.51628 338.916 344.92048 349.72624 358.0418 366.2926 372.0055 376.81126 382.81578 391.8117 396.61747 402.30879 406.50978 413.07585 417.8816 423.2813 428.98344 433.18443 437.4178 442.8175 445.81977 448.82203 451.82426 457.82878 466.7383 474.53553 480.54 485.34577 489.57914 497.8947 502.12809 506.93385 510.23847 515.0442 519.2776 524.0834 530.0879 534.8936 539.69937">SubordinatetotheConsolidatedGovernanceDocument;controllingwherereferenced</tspan></text>
<text xml:space="preserve" transform="matrix(1 0 -0 1 0 792)" font-size="10.9091" font-family="LMRoman10" font-weight="bold"><tspan y="-654.844" x="72 83.912738 90.88365 95.76002 101.85821 108.829128 112.30913 115.78913 119.269138 123.79641 130.41823">Mutability:</tspan></text>
<text xml:space="preserve" transform="matrix(1 0 -0 1 0 792)" font-size="10.9091" font-family="LMRoman10"><tspan y="-654.844" x="138.75278 146.78188 151.63643 157.39644 160.42917 164.72736 170.1819 176.24736 179.28009 187.76738 193.22193 199.28739 202.32012 211.71286 217.48378 226.87653 234.30562 240.06563 244.30927 248.58563 254.04018 259.49473 263.7711 269.83656 272.86927 278.93473 284.38929 288.66566 298.05839 305.4875 309.76387 315.52388 320.37843 325.23298 329.53117">RevisableonlybyExtraordinaryProcess</tspan></text>
<text xml:space="preserve" transform="matrix(1 0 -0 1 0 792)" font-size="14.3462" font-family="LMRoman12" font-weight="bold"><tspan y="-620.855" x="72">1</tspan></text>
<text xml:space="preserve" transform="matrix(1 0 -0 1 0 792)" font-size="14.3462" font-family="LMRoman12" font-weight="bold"><tspan y="-620.855" x="92.185108 103.21733 112.18371 118.78296 128.19406 136.27097 142.64069">Purpose</tspan></text>
<text xml:space="preserve" transform="matrix(.9899495 0 -0 1.0101526 0 792)" font-size="10.799458" font-family="LMRoman10"><tspan y="-590.51077" x="72.33399 80.131198 86.1357 89.13795 96.902759 103.9548 109.35453 112.35678 115.35903 120.164798 129.37674 135.38124 140.187 143.18924 146.1915 152.196 157.00176 164.76657 168.96756 174.98287 183.29845 192.29439 195.29665 201.30115 204.30339 212.98615 218.99065 231.50724 235.70822 240.51398 245.00655 251.01105 257.01557 260.0178 264.82356 270.22328 276.73536 282.13508 288.15037 297.6647 303.6692 307.90257 313.60469 318.41044 323.2162 329.22068 335.22517 339.45857 344.85829 351.37037 355.60374 360.40946 366.11158 372.1161 375.11836 379.3517 384.15745 393.1534 397.95918 403.6613 407.86225 415.62705 418.9317 424.33143 432.07463 435.07688 440.4766 445.8763 451.27607 454.2783 460.2828 465.68254 472.2378 476.47117 481.27693 486.08268 491.4824 495.705 505.2301 508.23234 513.92367 518.1247 522.9304 528.33016 532.56356 535.5658 539.4644 544.2485">ThisPolicydefinestheminimumtechnicalandproceduralrequirementsforlogging,recordintegrity,</tspan><tspan y="-577.0969" x="72.73098 78.13071 84.13521 90.13971 93.14196 97.34295 102.742679 108.74718 111.74943 114.75168 117.75393 121.65253 126.43669 132.50598 137.90572 143.91022 152.81977 157.05315 161.85892 166.0599 170.86566 176.56778 180.76877 183.77101 189.17075 198.09111 203.49083 208.2966 212.52999 217.92972 222.1847 229.35553 234.75527 237.7575 243.66481 247.9306 253.63272 257.8877 262.08869 266.89445 275.8904 283.05046 288.45018 293.54753 298.94725 303.753 307.98637 313.99085 318.7966 327.70616 333.40827 342.0262 346.2272 352.2317 359.95329 368.0529 372.8586 383.5717 391.82246 397.22218 402.6219 408.02165 412.82737 417.04997 420.05223 425.45195 431.46723 440.37678 445.77653 450.87385 456.2736 461.0793 465.31269 471.3172 476.71693 482.72145 487.52717 495.23799 498.5426 502.77598 508.17573 517.1717 521.9774 529.4723 534.872 539.1054 544.8075">auditability,andretentionacrossallsystemsgovernedbytheNewDoggerlandgovernanceframework.</tspan></text>
<text xml:space="preserve" transform="matrix(.9934788 0 -0 1.0065641 0 792)" font-size="10.837958" font-family="LMRoman10"><tspan y="-558.96389" x="72.47261 80.60108 89.67245 95.09143 99.91433 104.13029 107.14324 112.56222 122.25136 126.49984 131.32273 137.04517 143.07106 146.08402 150.33249 153.34545 159.37134 168.4427 171.45566 176.87464 182.29361 187.71259 190.72553 196.75144 205.83364 211.85953 217.88544 223.91133 228.73423 236.6351 240.85108 246.87697 255.3631 263.1881 268.6071 274.633 278.90315 284.3221 287.33509 290.34806 296.37394 301.7929 306.00889 310.8318 320.51008 329.01786 334.13337 339.55235 344.37525 348.6237 354.6496 360.06858 366.09449 370.91737 379.39265 387.67286 393.3953 398.21818 404.24409 413.2721 418.095 423.8174 431.69664 440.72465 445.8293 455.215 460.9374 465.7603 470.58323 476.6091 484.50999 490.53587 496.56178 499.57475 504.3976 508.6678 516.6012 519.6141 527.4825 532.30538 537.72439">NoactionrequiringloggingundertheConsolidatedGovernanceDocumentmayoccurunlessitcan</tspan></text>
<text xml:space="preserve" transform="matrix(1 0 -0 1 0 792)" font-size="10.9091" font-family="LMRoman10"><tspan y="-549.083" x="72 78.37092 86.85819 89.89092 95.345478 100.800029 106.25458 111.10913 120.80732 123.84005 133.54915 138.4037 143.85825 152.94553 159.01099 162.04372 165.07645 170.53099 176.59645 181.451 189.9383 197.81467 200.8474 205.09104 214.78923 219.03287 225.09833 228.13106 236.07289 243.19654 248.65108 251.6838 254.71654 259.57109 264.42564">beloggedincompliancewiththisPolicy.</tspan></text>
<text xml:space="preserve" transform="matrix(1 0 -0 1 0 792)" font-size="14.3462" font-family="LMRoman12" font-weight="bold"><tspan y="-515.094" x="72">2</tspan></text>
<text xml:space="preserve" transform="matrix(1 0 -0 1 0 792)" font-size="14.3462" font-family="LMRoman12" font-weight="bold"><tspan y="-515.094" x="92.185108 101.15148 108.324588 116.4015 125.81261">Scope</tspan></text>
<text xml:space="preserve" transform="matrix(1 0 -0 1 0 792)" font-size="10.9091" font-family="LMRoman10"><tspan y="-490.745" x="71.607 79.483379 85.548839 88.581569 96.51248 103.64703 109.101589 112.134319 115.167049 120.02159 129.41432 134.86887 140.93433 146.99979 150.03252 153.06525 157.9198 165.85073 170.09436 175.5489">ThisPolicyappliesto:</tspan></text>
<text xml:space="preserve" transform="matrix(1 0 -0 1 0 792)" font-size="10.9091" font-family="LMRoman10"><tspan y="-464.443" x="72">&#x2022;</tspan></text>
<text xml:space="preserve" transform="matrix(1 0 -0 1 0 792)" font-size="10.9091" font-family="LMRoman10"><tspan y="-464.443" x="85.94183 91.396389 94.429119 101.094577 109.12367 113.978229 118.83278 124.28733 128.56369 134.62915 139.4837 149.19281 157.52736 162.371 167.22556 170.25829 174.55648 177.5892 183.04375 192.75286 199.8765 205.33104 209.57468 215.33469 222.91652 228.06562 233.82563 238.12381">allRecordedDecisionPathways,</tspan></text>
<text xml:space="preserve" transform="matrix(1 0 -0 1 0 792)" font-size="10.9091" font-family="LMRoman10"><tspan y="-442.12699" x="72">&#x2022;</tspan></text>
<text xml:space="preserve" transform="matrix(1 0 -0 1 0 792)" font-size="10.9091" font-family="LMRoman10"><tspan y="-442.12699" x="85.94183 91.396389 94.429119 101.094577 111.09822 116.55277 120.79641 125.650959 129.92733 132.96006 138.4146 145.08007 152.96735 157.8219 162.06554 165.09827 170.55281 176.61827 180.91646">allMaterialActions,</tspan></text>
<text xml:space="preserve" transform="matrix(1 0 -0 1 0 792)" font-size="10.9091" font-family="LMRoman10"><tspan y="-419.81098" x="72">&#x2022;</tspan></text>
<text xml:space="preserve" transform="matrix(1 0 -0 1 0 792)" font-size="10.9091" font-family="LMRoman10"><tspan y="-419.81098" x="85.94183 91.396389 94.429119 101.094577 105.94913 115.03641 119.89096 124.16733 129.62187 134.47643 140.54189 145.39644 154.78919 160.24373 165.09828 169.34192 172.37465 177.8292 183.89466 188.19284">allemergencyactions,</tspan></text>
<text xml:space="preserve" transform="matrix(1 0 -0 1 0 792)" font-size="10.9091" font-family="LMRoman10"><tspan y="-397.494" x="72">&#x2022;</tspan></text>
<text xml:space="preserve" transform="matrix(1 0 -0 1 0 792)" font-size="10.9091" font-family="LMRoman10"><tspan y="-397.494" x="85.94183 91.396389 94.429119 101.094577 106.549129 111.70913 117.16367 122.01822 126.294589 132.36005 137.81459 143.88005 148.7346 157.2219 162.67646 168.131 172.37464 177.22919 185.17102 190.62557 196.69103 206.38922 211.84377 217.90923 223.97469 228.25106 233.40015 238.56015 244.0147 247.04743 251.34561">allgovernancevotesandapprovals,</tspan></text>
<text xml:space="preserve" transform="matrix(1 0 -0 1 0 792)" font-size="10.9091" font-family="LMRoman10"><tspan y="-375.17799" x="72">&#x2022;</tspan></text>
<text xml:space="preserve" transform="matrix(1 0 -0 1 0 792)" font-size="10.9091" font-family="LMRoman10"><tspan y="-375.17799" x="85.94183 91.396389 97.15639 106.56003 112.01458 116.869129 121.11276 124.14549 129.60004 139.29824 144.15279 149.9128 155.97826 159.01099 162.04372 166.89827 169.931 174.17464 177.20737 186.60012 190.87648 195.73104 201.49105 207.5565 210.58924 214.8656 219.72016 229.41835 233.66199 242.76018 249.12018 257.61839 260.6511 266.10566 271.5602 277.01478 281.86933 291.5675 297.3275 306.73118 313.10209 318.55665 321.57847 324.61119 329.46574 338.8694 344.32395 352.23304 356.53123 361.08033 367.14579 372.00035 378.0658 384.13127 387.16398 392.01853">anyactionexplicitlyrequiredtobeloggedbypolicyorschedule.</tspan></text>
<text xml:space="preserve" transform="matrix(1 0 -0 1 0 792)" font-size="14.3462" font-family="LMRoman12" font-weight="bold"><tspan y="-341.18898" x="72">3</tspan></text>
<text xml:space="preserve" transform="matrix(1 0 -0 1 0 792)" font-size="14.3462" font-family="LMRoman12" font-weight="bold"><tspan y="-341.18898" x="92.185108 103.848567 111.925479 118.52473 131.26416 140.96219 149.0391 157.116 165.1929 169.68326 178.64963 192.10636 204.14282 211.50243 220.02407 228.99044 233.48079 240.08005 247.43965 260.8964 268.25599 276.77763 283.06126">CoreLoggingRequirements</tspan></text>
<text xml:space="preserve" transform="matrix(1 0 -0 1 0 792)" font-size="10.9091" font-family="LMRoman10"><tspan y="-316.83897" x="71.596 79.777828 82.810558 89.47601 94.930568 100.09057 105.54511 110.39966 114.676029 120.741489 125.59604 135.29424 138.32697 143.78151 152.86879 157.72335 163.49427 167.7379 172.01427 175.047 179.89064 187.83248 196.6143 202.67977 206.97795 214.86524 217.88706 223.96343 228.80707 231.8398 237.91617 243.98163 248.83618 255.50165 260.9562 268.83259 277.91987 280.95259 287.01805 290.05076 298.83259 304.89805 313.98533">Allgovernedlogentriesmustinclude,atminimum:</tspan></text>
<text xml:space="preserve" transform="matrix(1 0 -0 1 0 792)" font-size="10.9091" font-family="LMRoman10"><tspan y="-290.53797" x="72">&#x2022;</tspan></text>
<text xml:space="preserve" transform="matrix(1 0 -0 1 0 792)" font-size="10.9091" font-family="LMRoman10"><tspan y="-290.53797" x="85.94183 95.02911 101.094577 107.160037 110.192768 115.95277 122.01823 130.51642 135.37097 141.13098 145.37462 149.65099 159.04373 162.07646 168.14192 172.99648 178.75649 183.00012 186.03285 189.06558 192.10923 196.95287 201.22924">auniqueentryidentifier,</tspan></text>
<text xml:space="preserve" transform="matrix(1 0 -0 1 0 792)" font-size="10.9091" font-family="LMRoman10"><tspan y="-268.22196" x="72">&#x2022;</tspan></text>
<text xml:space="preserve" transform="matrix(1 0 -0 1 0 792)" font-size="10.9091" font-family="LMRoman10"><tspan y="-268.22196" x="85.94183 90.18547 93.2182 102.30548 107.160037 111.45822 115.70186 121.15641 130.24369 139.94188 144.18552 152.36734 160.24372 168.12009 172.36373">timestamp(UTC),</tspan></text>
<text xml:space="preserve" transform="matrix(1 0 -0 1 0 792)" font-size="10.9091" font-family="LMRoman10"><tspan y="-245.90496" x="72">&#x2022;</tspan></text>
<text xml:space="preserve" transform="matrix(1 0 -0 1 0 792)" font-size="10.9091" font-family="LMRoman10"><tspan y="-245.90496" x="85.94183 91.396389 96.25093 100.49457 105.94912 113.858219 116.890949 122.956409 127.81096 133.57097 137.8146 140.84734 144.79644 154.18918 159.64373 165.70919 175.40738 179.68375 185.13829 188.17102 193.02558">actoridentityandrole,</tspan></text>
<text xml:space="preserve" transform="matrix(1 0 -0 1 0 792)" font-size="10.9091" font-family="LMRoman10"><tspan y="-223.58896" x="72">&#x2022;</tspan></text>
<text xml:space="preserve" transform="matrix(1 0 -0 1 0 792)" font-size="10.9091" font-family="LMRoman10"><tspan y="-223.58896" x="85.94183 91.396389 97.461849 101.70548 107.77094 113.225498 117.50186 120.53459 124.47277 133.87642 138.15279 143.00734 146.02916 149.06189 153.91645 163.62555 169.69101 176.06192 181.51647 187.58193">authorityreliedupon,</tspan></text>
<text xml:space="preserve" transform="matrix(1 0 -0 1 0 792)" font-size="10.9091" font-family="LMRoman10"><tspan y="-201.27297" x="72">&#x2022;</tspan></text>
<text xml:space="preserve" transform="matrix(1 0 -0 1 0 792)" font-size="10.9091" font-family="LMRoman10"><tspan y="-201.27297" x="85.94183 91.396389 96.25093 100.49457 103.5273 108.98185 118.68004 124.7455 129.60005 133.89824 138.75279 143.02916 146.06189 152.12735 156.37099 159.40372 164.85826 170.92372">actiondescription,</tspan></text>
<text xml:space="preserve" transform="matrix(1 0 -0 1 0 792)" font-size="10.9091" font-family="LMRoman10"><tspan y="-178.95597" x="72">&#x2022;</tspan></text>
<text xml:space="preserve" transform="matrix(1 0 -0 1 0 792)" font-size="10.9091" font-family="LMRoman10"><tspan y="-178.95597" x="85.94183 91.396389 94.576389 97.75639 102.61095 107.4655 111.70914 116.56369 126.26188 130.56006 135.41461 140.86916 147.24007 155.72736 161.1819 167.55281 170.89099 175.74555 180.6001 184.84374 192.77466 197.0183 200.05103 207.03285 212.4874 218.2474 224.00742 228.25106">affectedscopeobjects(ifany),</tspan></text>
<text xml:space="preserve" transform="matrix(1 0 -0 1 0 792)" font-size="10.9091" font-family="LMRoman10"><tspan y="-156.63997" x="72">&#x2022;</tspan></text>
<text xml:space="preserve" transform="matrix(1 0 -0 1 0 792)" font-size="10.9091" font-family="LMRoman10"><tspan y="-156.63997" x="85.94183 88.97456 92.00729 98.072757 103.832759 109.28731 114.74186 123.22913 127.47277 136.57097 140.84734 145.70189 148.73462 154.18917 158.4328 163.27645 172.98555 177.8401 183.60012 187.84375 192.12012 195.15285 200.0074 204.30559">linkagetorelatedentries.</tspan></text>
<text xml:space="preserve" transform="matrix(1 0 -0 1 0 792)" font-size="14.3462" font-family="LMRoman12" font-weight="bold"><tspan y="-122.65097" x="72">4</tspan></text>
<text xml:space="preserve" transform="matrix(1 0 -0 1 0 792)" font-size="14.3462" font-family="LMRoman12" font-weight="bold"><tspan y="-122.65097" x="92.185108 103.21733 109.81658 114.306949 127.76368 135.61106 142.21031 156.11177 165.8098 173.8867 181.96361 190.04051 194.53087 203.49724 216.95397 225.92034 234.44197 240.81169 247.09532 254.45493">PrimaryLoggingSystem</tspan></text>
<text xml:space="preserve" transform="matrix(1 0 -0 1 0 792)" font-size="10.9091" font-family="LMRoman10"><tspan y="-98.30097" x="71.607 79.483379 85.548839 94.03611 101.46521 105.74158 108.77431 117.86159 123.31614 127.59251 136.99616 143.81435 149.26889 154.72344 160.17798 163.21071 169.27617 178.36345 184.42891 190.18892 194.4871 198.73075 203.5853 216.30532 225.09806 231.16352 235.4617 243.33808 247.63626 253.0908 257.33445 260.36717 264.66535 268.00355 277.39628 282.85084 285.88356 292.5599 298.01448 304.98539 309.22904 315.2945 323.78178 327.13087 332.58543 335.61814 338.63996 343.79997 351.67634 354.70906 360.7745 366.22908">ThePrimaryLoggingSystemmustsatisfyallofthefollowing:</tspan></text>
<text xml:space="preserve" transform="matrix(1 0 -0 1 0 792)" font-size="10.9091" font-family="LMRoman10"><tspan y="-71.99997" x="72">&#x2022;</tspan></text>
<text xml:space="preserve" transform="matrix(1 0 -0 1 0 792)" font-size="10.9091" font-family="LMRoman10"><tspan y="-71.99997" x="85.94183 91.396389 97.461849 103.83276 108.68732 114.75278 120.81824 124.450969 129.90552 135.97098 139.00371 148.39646 156.27283 160.5492 163.58193 167.82556 176.32376 185.41104 191.16013 197.22559 202.08014 205.11287">append-onlywritemodel,</tspan></text>
<text xml:space="preserve" transform="matrix(1 0 -0 1 0 792)" font-size="10.9091" font-family="LMRoman10"><tspan y="-42.11197" x="303.273">2</tspan></text>
</svg>
