<svg xmlns="http://www.w3.org/2000/svg" xmlns:xlink="http://www.w3.org/1999/xlink" xmlns:inkscape="http://www.inkscape.org/namespaces/inkscape" version="1.1" width="612" height="792" viewBox="0 0 612 792">
<text xml:space="preserve" transform="matrix(1 0 -0 1 0 792)" font-size="10.9091" font-family="LMRoman10"><tspan y="-709.041" x="88.364 96.85128 106.85493 110.487659 118.66948 121.70221 130.78949 140.79314 146.24768 152.31314 158.3786 163.83315 168.07678 173.53133 177.8077 187.21135 194.02954 199.48409 204.93863 210.39318 213.4259 219.49137 228.57865 236.60774 241.4623 247.2223 253.28777 256.3205 260.59687 265.45143 274.5387 279.39326 285.15327 289.3969">OM-A.3MandatoryLoggingRequirements</tspan></text>
<text xml:space="preserve" transform="matrix(1 0 -0 1 0 792)" font-size="10.9091" font-family="LMRoman10"><tspan y="-709.041" x="303.8733 312.36058 320.84785 329.3351 337.8224 346.30967 354.79695 363.2842 371.77149 380.25877 388.74604 397.2333 405.72059 414.20787 422.69514 431.1824 439.66969 448.15696 456.64424 465.12059 473.60786 482.09513 490.5824 499.06968 507.55696 516.0442">..........................</tspan></text>
<text xml:space="preserve" transform="matrix(1 0 -0 1 0 792)" font-size="10.9091" font-family="LMRoman10"><tspan y="-709.041" x="529.2115 534.666">10</tspan></text>
<text xml:space="preserve" transform="matrix(1 0 -0 1 0 792)" font-size="10.9091" font-family="LMRoman10"><tspan y="-695.492" x="88.364 96.85128 106.85493 110.487659 118.66948 121.70221 130.78949 140.79314 146.24768 152.31314 158.3786 163.83315 168.07678 173.53133 177.8077 187.21135 194.64044 198.93863 203.79319 209.24773 212.28046 217.735 221.97864 225.01137 230.46591 240.16411 248.04048 253.49503 259.5605 265.62596 268.65867 272.9023 275.93504 281.3896 287.45506">OM-A.4MandatoryEscalationConditions</tspan></text>
<text xml:space="preserve" transform="matrix(1 0 -0 1 0 792)" font-size="10.9091" font-family="LMRoman10"><tspan y="-695.492" x="295.38597 303.87324 312.3605 320.84779 329.33506 337.82234 346.3096 354.79689 363.28416 371.77143 380.2587 388.74598 397.23326 405.72053 414.2078 422.69508 431.18235 439.66963 448.1569 456.64418 465.1205 473.6078 482.09507 490.58235 499.0696 507.5569 516.0441">...........................</tspan></text>
<text xml:space="preserve" transform="matrix(1 0 -0 1 0 792)" font-size="10.9091" font-family="LMRoman10"><tspan y="-695.492" x="529.2114 534.66598">11</tspan></text>
<text xml:space="preserve" transform="matrix(1 0 -0 1 0 792)" font-size="10.9091" font-family="LMRoman10"><tspan y="-681.943" x="88.364 96.85128 106.85493 110.487659 118.66948 121.70221 130.78949 138.97132 145.03678 149.33496 154.7895 157.82224 163.8877 168.13134 176.62953 184.05863 188.33499 193.78954 199.855 202.88773 208.95319 211.98592 216.22956 219.26229 224.71683 230.78229">OM-A.5AbsoluteProhibitions</tspan></text>
<text xml:space="preserve" transform="matrix(1 0 -0 1 0 792)" font-size="10.9091" font-family="LMRoman10"><tspan y="-681.943" x="244.4732 252.96048 261.44776 269.93504 278.4223 286.89866 295.38594 303.8732 312.36048 320.84776 329.33503 337.8223 346.30958 354.79685 363.28413 371.7714 380.25868 388.74595 397.23323 405.7205 414.20777 422.69505 431.1823 439.6696 448.15687 456.64414 465.1314 473.61869 482.10597 490.59324 499.0805 507.56779 516.05508">.................................</tspan></text>
<text xml:space="preserve" transform="matrix(1 0 -0 1 0 792)" font-size="10.9091" font-family="LMRoman10"><tspan y="-681.943" x="529.2114 534.66598">11</tspan></text>
<text xml:space="preserve" transform="matrix(1 0 -0 1 0 792)" font-size="10.9091" font-family="LMRoman10"><tspan y="-668.394" x="88.364 96.85128 106.85493 110.487659 118.66948 121.70221 130.78949 137.00768 142.46222 148.52768 152.80405 156.43679 164.6186 170.07315 176.13861 184.04772 191.4768 200.56409 205.41864 209.695 215.14955 220.0041 226.06957 230.92412 240.32778 247.14597 250.1787 259.266 262.2987 266.54237 271.99693 276.24058 279.2733 284.72785">OM-A.6Four-HourEmergencyLimitation</tspan></text>
<text xml:space="preserve" transform="matrix(1 0 -0 1 0 792)" font-size="10.9091" font-family="LMRoman10"><tspan y="-668.394" x="295.38606 303.87333 312.3606 320.84788 329.33515 337.82243 346.3097 354.79698 363.28425 371.7715 380.2588 388.74607 397.23335 405.7206 414.2079 422.69517 431.18244 439.6697 448.15699 456.64427 465.13154 473.6188 482.10609 490.59336 499.08064 507.5679 516.0552">...........................</tspan></text>
<text xml:space="preserve" transform="matrix(1 0 -0 1 0 792)" font-size="10.9091" font-family="LMRoman10"><tspan y="-668.394" x="529.21157 534.6661">11</tspan></text>
<text xml:space="preserve" transform="matrix(1 0 -0 1 0 792)" font-size="10.9091" font-family="LMRoman10" font-weight="bold"><tspan y="-643.935" x="72 81.42546 93.338199 97.51638 106.440029 114.09821 122.67277 127.84368 133.59278 137.77097 147.18552 152.93462 159.20735 162.69826 167.65099 172.52736 177.69828 183.79647 188.67284 192.15283 198.42557 209.57468 218.14923 221.62923 225.10923 231.38196 240.43653 250.29836 257.26927 260.74928 267.72019 273.81837 280.78929 286.36384 296.302 301.17839 309.07658 312.55659 317.72749 322.6802 331.73478 338.0075 348.45845 358.08027 363.82936 370.45118 375.4039">OM-B.Pre-RegistrationPilotGuidance(First30Days)</tspan></text>
<text xml:space="preserve" transform="matrix(1 0 -0 1 0 792)" font-size="10.9091" font-family="LMRoman10" font-weight="bold"><tspan y="-643.935" x="527.44406 533.71676">11</tspan></text>
<text xml:space="preserve" transform="matrix(1 0 -0 1 0 792)" font-size="10.9091" font-family="LMRoman10"><tspan y="-630.386" x="88.364 96.85128 106.85493 110.487659 118.211299 121.244029 130.33132 138.2186 143.06224 147.30588 153.38225 158.83679 165.50226 173.53136 178.9859 182.01863 186.87319 194.80411 199.04775 207.22957 216.31685 224.49868 228.80777 233.10596 239.17142 248.2587 253.11325 262.81144 270.6878 276.75328 280.99693 287.06239 292.51695 296.7933 299.82603 303.76423 309.52424">OM-B.1ActualRoles(NoAssumedAuthority)</tspan></text>
<text xml:space="preserve" transform="matrix(1 0 -0 1 0 792)" font-size="10.9091" font-family="LMRoman10"><tspan y="-630.386" x="320.82609 329.31336 337.80064 346.2879 354.77519 363.26246 371.74974 380.237 388.72428 397.21156 405.69883 414.1861 422.67338 431.16065 439.64793 448.1352 456.62248 465.10975 473.59703 482.0843 490.57157 499.05885 507.5461 516.02249">........................</tspan></text>
<text xml:space="preserve" transform="matrix(1 0 -0 1 0 792)" font-size="10.9091" font-family="LMRoman10"><tspan y="-630.386" x="529.18978 534.6443">11</tspan></text>
<text xml:space="preserve" transform="matrix(1 0 -0 1 0 792)" font-size="10.9091" font-family="LMRoman10"><tspan y="-616.837" x="88.364 96.85128 106.85493 110.487659 118.211299 121.244029 130.33132 138.66587 143.52042 148.37497 151.4077 155.70589 158.73862 164.19316 173.90227 181.77864 184.81137 190.26592 194.5641 198.86229 201.89502 204.92775 207.96048 212.81504 218.26958 222.51322 225.54595 231.00049 240.69869 247.6696 253.12415 259.1896 262.22233">OM-B.2DecisionClassificationTable</tspan></text>
<text xml:space="preserve" transform="matrix(1 0 -0 1 0 792)" font-size="10.9091" font-family="LMRoman10"><tspan y="-616.837" x="269.91325 278.4005 286.8878 295.37507 303.86235 312.3496 320.83689 329.32417 337.81144 346.2987 354.78599 363.27326 371.76054 380.2478 388.73509 397.22236 405.70964 414.1969 422.68418 431.17146 439.65873 448.146 456.63328 465.12055 473.60783 482.0951 490.58238 499.06965 507.55693 516.03329">..............................</tspan></text>
<text xml:space="preserve" transform="matrix(1 0 -0 1 0 792)" font-size="10.9091" font-family="LMRoman10"><tspan y="-616.837" x="529.20059 534.6551">12</tspan></text>
<text xml:space="preserve" transform="matrix(1 0 -0 1 0 792)" font-size="10.9091" font-family="LMRoman10"><tspan y="-603.28799" x="88.364 96.85128 106.85493 110.487659 118.211299 121.244029 130.33132 138.20769 143.66223 147.9386 152.21497 157.97498 161.0077 167.07317 172.52771 176.16045 184.03682 189.49137 195.55683 201.01137 205.86592 208.89865 212.83684 222.2405 229.2005 233.47687 236.5096 242.28052 250.15689 253.18962 257.466 262.32057">OM-B.3Carrying-CapacityTripwires</tspan></text>
<text xml:space="preserve" transform="matrix(1 0 -0 1 0 792)" font-size="10.9091" font-family="LMRoman10"><tspan y="-603.28799" x="269.9133 278.40058 286.88786 295.37513 303.8624 312.34968 320.83695 329.32423 337.8115 346.29878 354.78605 363.27333 371.7606 380.24787 388.73515 397.2224 405.7097 414.19697 422.68424 431.1715 439.64787 448.13514 456.6224 465.10969 473.59696 482.08424 490.5715 499.05879 507.54606 516.0333">..............................</tspan></text>
<text xml:space="preserve" transform="matrix(1 0 -0 1 0 792)" font-size="10.9091" font-family="LMRoman10"><tspan y="-603.28799" x="529.2006 534.65518">12</tspan></text>
<text xml:space="preserve" transform="matrix(1 0 -0 1 0 792)" font-size="10.9091" font-family="LMRoman10"><tspan y="-589.738" x="88.364 96.85128 106.85493 110.487659 118.211299 121.244029 130.33132 137.7604 143.21495 147.49132 150.52405 156.28406 159.9168 165.98226 170.22589 175.68044 181.13498 189.63318 196.45137 201.90592 207.36046 212.815 215.84774 221.9132 231.00048 241.00412 245.85868 250.40778 256.47325 261.9278 267.99327 271.02598 275.32417">OM-B.4Early-StageLoggingMechanism</tspan></text>
<text xml:space="preserve" transform="matrix(1 0 -0 1 0 792)" font-size="10.9091" font-family="LMRoman10"><tspan y="-589.738" x="295.3751 303.86238 312.34965 320.8369 329.3242 337.81147 346.29875 354.786 363.2733 371.76057 380.24784 388.7351 397.22239 405.70967 414.19694 422.6842 431.17149 439.65876 448.14604 456.6333 465.12059 473.60786 482.09513 490.5824 499.06968 507.55696 516.0442">...........................</tspan></text>
<text xml:space="preserve" transform="matrix(1 0 -0 1 0 792)" font-size="10.9091" font-family="LMRoman10"><tspan y="-589.738" x="529.20059 534.6551">12</tspan></text>
<text xml:space="preserve" transform="matrix(1 0 -0 1 0 792)" font-size="10.9091" font-family="LMRoman10"><tspan y="-576.18899" x="88.364 96.85128 106.85493 110.487659 118.211299 121.244029 130.33132 140.64041 145.49497 150.34952 156.10953 159.14226 168.535 174.60047 179.45502 182.48775 185.82593 189.45867 197.48777 202.34232 208.10233 211.13506 215.98961 227.49872 235.52782 240.38237 246.14238 252.20784 255.24057 259.51695 264.3715 273.45878 278.31333 284.08424">OM-B.5WeeklySelf-ReviewRequirement</tspan></text>
<text xml:space="preserve" transform="matrix(1 0 -0 1 0 792)" font-size="10.9091" font-family="LMRoman10"><tspan y="-576.18899" x="295.4079 303.89518 312.38246 320.86973 329.357 337.84428 346.33155 354.81883 363.3061 371.79338 380.28065 388.7679 397.2552 405.74247 414.22975 422.717 431.20429 439.69157 448.17884 456.6661 465.14247 473.62974 482.117 490.60429 499.09156 507.57884 516.0661">...........................</tspan></text>
<text xml:space="preserve" transform="matrix(1 0 -0 1 0 792)" font-size="10.9091" font-family="LMRoman10"><tspan y="-576.18899" x="529.2334 534.6879">13</tspan></text>
<text xml:space="preserve" transform="matrix(1 0 -0 1 0 792)" font-size="10.9091" font-family="LMRoman10"><tspan y="-42.11194" x="303.273">2</tspan></text>
</svg>
