<svg xmlns="http://www.w3.org/2000/svg" xmlns:xlink="http://www.w3.org/1999/xlink" xmlns:inkscape="http://www.inkscape.org/namespaces/inkscape" version="1.1" width="612" height="792" viewBox="0 0 612 792">
<text xml:space="preserve" transform="matrix(1 0 -0 1 0 792)" font-size="10.9091" font-family="LMRoman10"><tspan y="-709.041" x="72">&#x2022;</tspan></text>
<text xml:space="preserve" transform="matrix(1 0 -0 1 0 792)" font-size="10.9091" font-family="LMRoman10"><tspan y="-709.041" x="85.94183 95.02911 100.483669 104.7273 110.79276 115.06913 123.556407 129.01096 135.07642 141.14188 144.1746 152.06189 156.33826 161.19281 166.64736 172.71282 175.74555 181.811 186.66556 190.96375 198.89467 204.34922 210.41468 220.11287 224.96743 230.72743 234.97107 239.82563 244.10199 250.16745 255.622 262.29838 266.57475 271.4293 277.1893 280.22203 285.07658 296.58567 300.86204 306.3166 312.38206 316.6257 319.65843 325.72389 330.57844 334.87663">matureauditreadinessandexternalreviewroutines.</tspan></text>
<text xml:space="preserve" transform="matrix(1 0 -0 1 0 792)" font-size="11.9552" font-family="LMRoman12" font-weight="bold"><tspan y="-679.83206" x="72 78.73078 82.47276">9.5</tspan></text>
<text xml:space="preserve" transform="matrix(1 0 -0 1 0 792)" font-size="11.9552" font-family="LMRoman12" font-weight="bold"><tspan y="-679.83206" x="99.29373 108.48728 115.95928 122.49878 127.806888 138.4231 145.15387 154.87345 162.34545 167.58182 173.71483 180.25432 187.72632 194.82772 199.31092 204.61902 209.8554 216.39488 221.63126 232.24747 237.55558 242.79195 248.92496 258.27394 264.81343 270.3128 277.7848 283.0929 290.56489 294.30686">Phase4:Steady-statestewardship</tspan></text>
<text xml:space="preserve" transform="matrix(1 0 -0 1 0 792)" font-size="10.9091" font-family="LMRoman10"><tspan y="-659.239" x="72">&#x2022;</tspan></text>
<text xml:space="preserve" transform="matrix(1 0 -0 1 0 792)" font-size="10.9091" font-family="LMRoman10"><tspan y="-659.239" x="85.94183 91.396389 97.7673 102.62186 106.898227 112.352779 116.59641 125.08369 130.53824 138.46916 147.56735 153.63282 159.69828 163.97464 169.42919 175.49465 178.52738 187.01467 190.0474 196.11286 200.41104 204.65468 207.68741 211.93105 217.9965 222.24015 225.27288 230.72742 240.43653 248.3129 251.34563 255.58927 265.28746 269.58564 273.82929 279.28385 285.3493 288.38203 296.8693 304.44023 309.29478 312.32749 315.66569 321.12025 325.3966 333.8948 339.34938 345.41484 349.65849 355.72395 361.7894 366.03306 373.96397 379.41853 385.48399 395.19309 399.49128 403.73493 409.18949 415.25495 418.28767 426.77494 432.8404 435.8731 441.32768 447.39314 450.42585 454.36405 463.7677 469.83317 474.10954 479.5641 483.80775 488.6623 493.51686 497.7605 500.7932 506.24778 512.31326 516.6114">operateasadurableinstitutionwithstablewelfareoutputsandstabledignityprotections,</tspan></text>
<text xml:space="preserve" transform="matrix(1 0 -0 1 0 792)" font-size="10.9091" font-family="LMRoman10"><tspan y="-636.92306" x="72">&#x2022;</tspan></text>
<text xml:space="preserve" transform="matrix(1 0 -0 1 0 792)" font-size="10.9091" font-family="LMRoman10"><tspan y="-636.92306" x="85.94183 90.79639 96.25093 101.70548 104.73821 110.19276 118.69094 122.98913 126.02186 131.17096 139.04734 142.08007 151.47281 159.34918 162.38191 166.62555 172.69101 178.14556 184.21102 192.0983 198.16376 202.44013 205.47286 208.81104 213.05467">evolveslowlywithoutdrift,</tspan></text>
<text xml:space="preserve" transform="matrix(1 0 -0 1 0 792)" font-size="10.9091" font-family="LMRoman10"><tspan y="-614.606" x="72">&#x2022;</tspan></text>
<text xml:space="preserve" transform="matrix(1 0 -0 1 0 792)" font-size="10.9091" font-family="LMRoman10"><tspan y="-614.606" x="85.94183 92.00729 96.28366 101.138217 105.4364 110.290958 114.56732 120.021869 128.50916 133.9637 139.1237 144.57826 149.43282 153.70919 159.77465 165.22919 171.29465 176.1492 184.63649 187.66922 192.52378 197.97832 201.01105 207.0765 210.10924 213.14197 216.1747 220.11289 229.51654 234.97109 239.82564 244.0911 249.54564 253.85474 261.78565 267.2402 272.09477 278.16023 283.01478 287.29115 292.7457 296.98936 300.02207 305.47663 311.54209 315.84028">preservegovernancelegibilityacrossgenerations.</tspan><tspan y="-588.305" x="72 79.4291 83.70547 89.16002 94.61457 98.89094 103.74548 108.04367 112.34186 115.37459 120.82914 130.52733 133.56006 141.50189 144.53462 150.29463 154.53827 159.39282 165.45829 171.52375 176.3783 186.07649 190.32013 199.41832 205.78923 214.27652 219.13108 224.58562 230.65108 236.10562 240.96018 243.9929 247.93109 253.6911 257.32383 263.38929 267.66566 270.69837 276.15293 281.00749 287.07295 293.7493 299.81477 305.26933 313.1457 318.60026 327.38209 333.44755 336.48027 340.7239 343.75663 349.21119 355.27665 358.90937 364.97483 369.2512 372.2839 377.73847 382.59303 388.65849">Progressionisintendedtobecapacity-driven,notambition-driven.</tspan></text>
<text xml:space="preserve" transform="matrix(1 0 -0 1 0 792)" font-size="14.3462" font-family="LMRoman12" font-weight="bold"><tspan y="-553.937" x="72 80.07691">10</tspan></text>
<text xml:space="preserve" transform="matrix(1 0 -0 1 0 792)" font-size="14.3462" font-family="LMRoman12" font-weight="bold"><tspan y="-553.937" x="100.26202 116.932308 125.89868 133.74605 145.4095 158.03415 165.39376 182.43704 194.80347 202.88037 210.95728 219.03418 226.39379 232.99304 237.4834 245.33077 254.29714 268.64335 274.6544 286.40394 299.0286 307.1055 318.76896 325.05259 337.24687 345.75416 352.03779 356.52815 361.90797 369.98487 378.06178 385.90916 390.3995 396.76924">WhatNewDoggerlandIsNot(Anti-goals)</tspan></text>
<text xml:space="preserve" transform="matrix(1 0 -0 1 0 792)" font-size="10.9091" font-family="LMRoman10"><tspan y="-529.58706" x="72 80.18182 85.03638 96.54548 104.880039 110.33459 115.78914 121.24369 126.098239 130.3746 133.40734 138.86188 144.92734 154.63645 157.66918 165.6001 171.66556 177.1201 184.99648 188.0292 193.80013 198.04376 202.89832 208.96378 215.02924 219.88379 229.58199 233.82563 242.9129 249.28382 254.13837">NewDoggerlandisnotintendedtobe:</tspan></text>
<text xml:space="preserve" transform="matrix(1 0 -0 1 0 792)" font-size="10.9091" font-family="LMRoman10"><tspan y="-503.28605" x="72">&#x2022;</tspan></text>
<text xml:space="preserve" transform="matrix(1 0 -0 1 0 792)" font-size="10.9091" font-family="LMRoman10"><tspan y="-503.28605" x="85.94183 95.02911 100.483669 104.76003 109.92004 117.79641 122.04005 128.1055 131.73824 134.77097 137.8037 142.08007 146.37825 154.25463 160.32009 163.35282 168.80736 173.051 176.38918 181.84372 186.12009 198.8401 204.29465 212.21466 216.51285 221.3674 226.82195 229.85468 234.70923 238.34197 243.79651 248.04015 251.67288 257.12745 260.16017 263.19288 266.8256 271.68016 277.1347 281.4329 285.67655 293.60746 299.062 303.33839 308.79295 314.2475 320.31297 323.34568 328.20024 333.6548 337.89845 340.93116 346.3857 352.45118">agrowth-firstplatformorscale-at-all-costsorganization,</tspan></text>
<text xml:space="preserve" transform="matrix(1 0 -0 1 0 792)" font-size="10.9091" font-family="LMRoman10"><tspan y="-480.97004" x="72">&#x2022;</tspan></text>
<text xml:space="preserve" transform="matrix(1 0 -0 1 0 792)" font-size="10.9091" font-family="LMRoman10"><tspan y="-480.97004" x="85.94183 95.02911 98.3673 103.82185 109.887317 115.952777 122.029148 126.87279 131.14916 134.78189 139.63645 145.09099 150.86191 155.10555 159.38191 164.83646 167.86919 170.90192 175.75647 185.45467 188.4874 194.55286 198.85105 203.09468 206.12741 210.37105 216.43651 220.68015 223.71288 229.16742 235.23288">afounder-controlledinstitution,</tspan></text>
<text xml:space="preserve" transform="matrix(1 0 -0 1 0 792)" font-size="10.9091" font-family="LMRoman10"><tspan y="-458.65306" x="72">&#x2022;</tspan></text>
<text xml:space="preserve" transform="matrix(1 0 -0 1 0 792)" font-size="10.9091" font-family="LMRoman10"><tspan y="-458.65306" x="85.94183 91.396389 101.094577 105.94913 111.72004 115.96368 120.81822 125.09459 129.33823 134.79277 137.81459 143.89096 152.97824 157.82189 163.5928 171.46918 176.92374 181.77829 187.54921 193.61467 202.10196 206.3456 212.41106 217.8656 225.74198 230.59653 236.05107 245.13835 251.20381 255.48018 260.93473 270.022 273.05473 277.3529 282.20747 290.1493 297.7202 302.57478 305.60749 308.94569 314.40025 318.6766 327.16389 332.61845 340.52754 346.593 349.6257 355.08027 361.14573 364.17845 368.12754 372.9712">anentertainmentvenuethatcompromiseswelfareordignity,</tspan></text>
<text xml:space="preserve" transform="matrix(1 0 -0 1 0 792)" font-size="10.9091" font-family="LMRoman10"><tspan y="-436.33705" x="72">&#x2022;</tspan></text>
<text xml:space="preserve" transform="matrix(1 0 -0 1 0 792)" font-size="10.9091" font-family="LMRoman10"><tspan y="-436.33705" x="85.94183 95.02911 100.49457 105.34912 111.41458 114.44731 119.290958 122.323688 130.82189 134.16007 139.61461 147.52371 153.58917 157.86554 160.89827 166.05828 171.51282 175.75646 184.24375 189.0983 194.8583 199.10195 203.37831 208.83286 213.68741 217.93105 220.96378 226.41832 232.48378 239.14925 245.2147 249.49108 254.34563 258.6438 262.88746 265.92018 271.37474 276.22929 282.8947 288.34928 296.2693 299.302 305.36747 308.70567 314.16023 318.43659 327.52388 332.97843 339.64387 344.4984 350.25843 354.50209 357.5348 361.77845 364.81117 369.6657 378.753 383.60755 389.36756 393.6112 397.9094">avehicleforprivateextraction,prestige,orinformalentitlements,</tspan></text>
<text xml:space="preserve" transform="matrix(1 0 -0 1 0 792)" font-size="10.9091" font-family="LMRoman10"><tspan y="-414.02104" x="72">&#x2022;</tspan></text>
<text xml:space="preserve" transform="matrix(1 0 -0 1 0 792)" font-size="10.9091" font-family="LMRoman10"><tspan y="-414.02104" x="85.94183 95.02911 99.3273 105.0873 109.38549 113.62913 118.48367 131.2146 139.09098 145.15644 150.01099 154.28736 162.77465 167.6292 176.71648 181.57103 185.8474 191.30194 196.1565 202.22196 207.0765 216.46926 219.50199 224.95653 230.41107 233.4438 241.93109 248.302 253.15656 258.0111 263.46568 272.55296 277.4075 285.3384 294.4366 298.7348 304.80027 310.86573 315.1639 319.40757 322.44029 326.68394 332.7494 336.99305 345.48033 348.8185 354.27308 362.19309 367.64765 372.79676 378.2513 383.10588 387.38224 393.4477 398.90226 404.9677 409.82228 414.67683">asystemwhereemergencylogicbecomesasubstituteforgovernance,</tspan></text>
<text xml:space="preserve" transform="matrix(1 0 -0 1 0 792)" font-size="10.9091" font-family="LMRoman10"><tspan y="-391.70405" x="72">&#x2022;</tspan></text>
<text xml:space="preserve" transform="matrix(.9939819 0 -0 1.0060546 0 792)" font-size="10.843447" font-family="LMRoman10"><tspan y="-389.34764" x="86.46033 95.52545 99.79777 105.82672 110.077358 115.499088 120.32442 123.3389 126.35338 129.36786 134.78958 140.81855 145.64388 150.46921 154.08008 160.10904 164.35968 167.37416 172.78505 177.61038 187.28275 192.10808 197.83342 203.55876 206.57324 210.82387 216.2456 222.27455 231.30715 236.13248 241.85782 249.71933 253.93743 259.9664 265.38813 273.2496 277.5219 283.55088 289.57984 293.85218 298.07029 301.08476 305.30287 311.33183 315.54994 320.37525 328.29096 337.32356 342.7453 348.77424 351.78874 356.00685 361.42857 365.67918 368.69367 374.72264 383.7769 387.09498 392.51673 400.4107 406.43968 411.265 415.53733 418.55183 423.97355 430.0025 436.66038 441.4857 446.9074 455.94004 462.27259 467.09794 471.31605 476.14137 482.17033 486.99568 491.82099 498.47886 503.90058 509.92955 519.60189 523.81997 528.07058 534.0995 538.3718 542.5899">asurveillance-drivenenvironmentthatsubstitutesmonitoringfordesign,competence,andtrust.</tspan></text>
<text xml:space="preserve" transform="matrix(1 0 -0 1 0 792)" font-size="14.3462" font-family="LMRoman12" font-weight="bold"><tspan y="-357.336" x="72 80.07691">11</tspan></text>
<text xml:space="preserve" transform="matrix(1 0 -0 1 0 792)" font-size="14.3462" font-family="LMRoman12" font-weight="bold"><tspan y="-357.336" x="100.26202 115.56941 123.41679 127.90715 136.41445 142.69808 150.05768 159.02405 166.87142 175.83779 183.01088 195.7503 207.34204 216.30841 220.79877 233.5382 238.47328 246.55019 258.52928 269.748 278.71437 283.2047 294.95426 307.32069 315.85667 323.02976 331.99613 345.45286 352.81245 361.31974">MaintenanceRuleforThisDocument</tspan></text>
<text xml:space="preserve" transform="matrix(1.0029956 0 -0 .9970134 0 792)" font-size="10.941778" font-family="LMRoman10"><tspan y="-333.9845" x="71.39314 79.293109 85.37673 88.41855 96.35133 102.43497 108.21222 113.08131 119.16494 128.27945 133.14855 138.92581 146.8039 155.9184 161.08292 170.48192 176.8719 185.36273 189.65192 194.52101 200.29828 203.3401 207.65117 212.52027 222.22562 225.5738 231.0447 238.95561 243.8247 246.86653 252.33742 256.6266 259.6684 263.6184 273.01737 278.48826 284.5719 294.27726 297.31907 300.3609 306.44456 311.31364 314.35545 317.39729 321.34727 330.74623 335.0026 344.09519 348.35154 354.43519 362.926 369.1628 374.6337 380.72828 386.81193 392.89558 397.76466 402.05384 405.08473 413.0175 416.0593 421.8475 426.10386 430.97294 436.7502 441.0066 447.6701 453.75376 459.8374 467.71549 470.7573 478.63539 487.45445 493.5381 497.84916 505.72724 510.01643 514.8855 524 529.4709 532.5127">ThisdocumentmayberevisedforclarityandfidelitytotheFounder&#x2019;sintent,butitmustremain</tspan></text>
<text xml:space="preserve" transform="matrix(.9899495 0 -0 1.0101526 0 792)" font-size="10.799458" font-family="LMRoman10"><tspan y="-316.22746" x="72.73098 76.98596 81.18695 85.42034 88.42259 93.22835 97.42934 100.43159 109.61113 113.86611 119.87061 126.1883 131.58802 135.82141 141.82592 144.82816 150.83266 156.23239 160.43338 168.71657 174.11629 180.12079 189.60272 195.60723 200.41298 204.64636 207.64862 213.04834 217.85411 223.85861 231.69902 239.79862 245.48992 254.68027 258.90287 263.70863 269.41075 272.41297 276.66798 279.6702 285.06996 294.56266 298.7636 304.76814 310.16786 317.84626 322.652 328.05174 334.0562 337.05848 346.5404 352.8581 361.14125 364.1435 369.8456 374.0466 378.85234 383.0857 389.0902 393.32359 398.12934 402.3303 407.13606 416.61799 422.0177 429.75013 434.55586 438.7892 443.59498 448.9947 453.19569 456.19795 462.20243 471.0796 477.08409 481.88984 493.17527 498.57499 504.57948 507.58174 510.58399 515.9837 521.3834 525.5844 528.5866 533.9863 539.99087 544.24588">strictlysubordinateandderived.Anyrevisionthatcouldbeinterpretedascreatingnewobligations,</tspan></text>
<text xml:space="preserve" transform="matrix(1 0 -0 1 0 792)" font-size="10.9091" font-family="LMRoman10"><tspan y="-305.889" x="72 78.37092 83.225467 87.50183 96.58911 99.62184 103.92003 108.218219 111.250949 116.7055 122.77096 127.069149 133.7346 137.97824 144.0437 148.32007 153.17462 157.47281 163.53827 168.99282 172.02555 178.091 182.38919 189.06557 194.52011 202.42922 207.88376 213.94922 218.19286 224.25832 229.71286 233.98923 237.02196 240.96015 250.3638 259.14564 265.2111 269.50929 277.38566 283.75657 292.24385 296.5202 301.37477 304.71296 309.5675 314.42207 318.6657 323.52027 329.58573">permissions,thresholds,orauthoritymustberejected.</tspan></text>
<text xml:space="preserve" transform="matrix(1 0 -0 1 0 792)" font-size="10.9091" font-family="LMRoman10"><tspan y="-42.112" x="303.273">9</tspan></text>
</svg>
