<svg xmlns="http://www.w3.org/2000/svg" xmlns:xlink="http://www.w3.org/1999/xlink" xmlns:inkscape="http://www.inkscape.org/namespaces/inkscape" version="1.1" width="612" height="792" viewBox="0 0 612 792">
<text xml:space="preserve" transform="matrix(1 0 -0 1 0 792)" font-size="14.3462" font-family="LMRoman12" font-weight="bold"><tspan y="-707.447" x="72 80.07691">12</tspan></text>
<text xml:space="preserve" transform="matrix(1 0 -0 1 0 792)" font-size="14.3462" font-family="LMRoman12" font-weight="bold"><tspan y="-707.447" x="100.26202 112.45628 125.91302 133.27262 142.23899 151.20536 164.6621 172.0217 180.54334">Amendment</tspan></text>
<text xml:space="preserve" transform="matrix(.9899495 0 -0 1.0101526 0 792)" font-size="10.799458" font-family="LMRoman10"><tspan y="-676.2325" x="72.33399 80.131198 86.1357 89.13795 97.021549 104.07359 109.47332 112.464778 115.467029 120.27279 129.60352 138.59947 143.69681 153.02754 159.33443 167.7688 173.16854 182.16448 186.97025 192.97475 198.97925 203.785 213.41812 218.81786 224.82236 227.8246 237.14453 241.34552 247.36083 251.5834 256.98313 262.9984 268.39814 278.02046 283.42018 293.0533 300.40776 306.10987 310.31083 314.54423 319.94395 325.34367 329.57704 335.58155 338.5838 344.5883 349.988 354.2214 363.55213 370.90657 375.13996 380.84208 385.6478 390.45356 394.70854 402.59217 407.99189 415.8755 421.88 426.68574 429.688 432.69026 438.69474 443.5005 453.13365 456.13587 465.769 469.96998 475.9745 484.39805 492.19526 497.59498 503.5995 507.85447 513.2542 516.2564 519.25869 525.2632 530.6629 534.8639 539.6696">ThisPolicymaybeamendedonlythroughanExtraordinaryProcessasdefinedintheConsolidated</tspan></text>
<text xml:space="preserve" transform="matrix(1 0 -0 1 0 792)" font-size="10.9091" font-family="LMRoman10"><tspan y="-669.548" x="72 80.563648 85.71274 91.16728 96.021839 100.2982 106.36366 111.818218 117.883678 122.73822 131.23642 139.57097 145.32006 150.1746 156.24007 165.32735 170.1819 175.95282 180.19646">GovernanceDocument.</tspan><tspan y="-649.225" x="71.596 79.777828 82.810558 89.47601 94.930568 104.017848 108.87239 114.93785 121.00331 130.09059 134.94515 140.71607 144.9597 152.89063 161.67246 167.73792 172.0361 179.92339 186.28339 194.78159 199.05796 203.9125 208.76706 214.2216 218.49797 224.56343 229.41799 235.48345 242.14891 247.60347 252.45803 256.73439 261.03257 264.06529 269.51985 275.5853 280.43986 286.5053 293.17076 298.6253 304.69078 314.39988 320.46534 326.5308 332.59626 335.62898 338.66169 342.95988 349.02534 353.87989 363.57807 369.03263 372.06535 377.5199 383.58537 389.03993 393.3381 396.37083 402.43629 410.93449 416.99995 421.2763 424.30903 429.76359 437.67268 443.12724 447.98179 452.25816 456.55635 459.58906 465.0436 471.10908 475.40727">Allamendmentsmustberecorded,versioned,andpublishedalongsidepriorversions.</tspan></text>
<text xml:space="preserve" transform="matrix(1 0 -0 1 0 792)" font-size="10.9091" font-family="LMRoman10"><tspan y="-42.112" x="303.273">5</tspan></text>
</svg>
