<svg xmlns="http://www.w3.org/2000/svg" xmlns:xlink="http://www.w3.org/1999/xlink" xmlns:inkscape="http://www.inkscape.org/namespaces/inkscape" version="1.1" width="612" height="792" viewBox="0 0 612 792">
<text xml:space="preserve" transform="matrix(1 0 -0 1 0 792)" font-size="11.9552" font-family="LMRoman12" font-weight="bold"><tspan y="-709.041" x="72 82.10214 94.85834 99.34154 108.9057 112.64768 123.861667 136.6298 142.76282 148.89583 155.99723 159.7392 171.32379 178.79579 184.9288 188.67078 192.79532 197.27852 207.29698 213.43 220.54334 224.28531 230.41832 244.6211 254.6515 260.78453 267.8859 275.3579 279.09989 284.59928 290.7323 301.9463 308.0793 315.16877">OM-B.5WeeklySelf-ReviewRequirement</tspan></text>
<text xml:space="preserve" transform="matrix(1 0 -0 1 0 792)" font-size="10.9091" font-family="LMMono10"><tspan y="-688.448" x="72 77.72728 89.18184 94.90912 100.6364 106.36368 112.09096 117.81824 123.54552 129.2728 135.00008 146.45464 152.18192 157.9092 163.63648 169.36376 175.09104 186.5456 192.27288 198.00016 203.72743 209.45471 215.18199 220.90927 226.63655 232.36383 238.09111 243.81839 249.54567 255.27295 261.0002 266.72749 272.45475 278.182 289.63655 295.3638 301.09107 306.81834 318.27287 324.00013 329.7274 335.45466 346.90919 352.63645 358.3637 369.81825 375.5455 381.27278 387.00004 398.45457 404.18183 409.9091 421.36363 427.09089 432.81816 438.5454 444.27268 449.99995 461.45448 467.18174 472.909 478.63627 484.36354 490.0908 495.81806 501.54533 512.9999 518.7272 524.45449 530.18179 535.90908">IFoperatingduringpre-registration,THENonceperweektheactingoperatormust:</tspan></text>
<text xml:space="preserve" transform="matrix(1 0 -0 1 0 792)" font-size="10.9091" font-family="LMRoman10"><tspan y="-662.147" x="72">&#x2022;</tspan></text>
<text xml:space="preserve" transform="matrix(1 0 -0 1 0 792)" font-size="10.9091" font-family="LMRoman10"><tspan y="-662.147" x="85.94183 93.97093 98.825489 104.58549 107.61822 112.47276 123.981868 129.43642 132.46915 139.13462 142.16735 147.62189 153.07643">Reviewalllogs</tspan></text>
<text xml:space="preserve" transform="matrix(1 0 -0 1 0 792)" font-size="10.9091" font-family="LMRoman10"><tspan y="-639.82998" x="72">&#x2022;</tspan></text>
<text xml:space="preserve" transform="matrix(1 0 -0 1 0 792)" font-size="10.9091" font-family="LMRoman10"><tspan y="-639.82998" x="85.94183 93.065479 96.098209 101.55276 110.64004 116.09459 121.8655 131.25824 137.3237 140.35643 144.65462 149.50917 154.96372 164.051 167.38918 172.84372 177.12009 184.99646 190.451 198.37102 203.82556 212.60739 218.67285 221.70558 227.16013 233.22559 236.25832 240.1965">Flaganydiscomfortorambiguity</tspan></text>
<text xml:space="preserve" transform="matrix(1 0 -0 1 0 792)" font-size="10.9091" font-family="LMRoman10"><tspan y="-617.514" x="72">&#x2022;</tspan></text>
<text xml:space="preserve" transform="matrix(1 0 -0 1 0 792)" font-size="10.9091" font-family="LMRoman10"><tspan y="-617.514" x="85.94183 93.97093 98.825489 103.68004 109.13459 113.41096 123.109149 128.56369 134.62915 143.12735 147.42554 152.28009 158.0401 162.28374 167.13829 173.20375 178.0583 186.5456 192.00014 198.0656 204.13106 208.40743 213.26198 217.56017 221.85836 224.89109 230.95655 240.05474 246.41474 251.86928 256.1129 260.96748 266.73838 270.98204 274.01475 279.4693 286.13475 290.9893 296.7493 300.99296 305.8475 310.12388 316.18934 321.6439 328.30934 332.5857 337.44026 343.20027 346.23298 351.08753 362.59663 367.45118 372.90574 378.9712 383.82575 388.6803 392.95668">Recordonesentenceaddressingpotentialexternalreviewconcern</tspan></text>
<text xml:space="preserve" transform="matrix(1 0 -0 1 0 792)" font-size="10.9091" font-family="LMMono10"><tspan y="-591.21298" x="72 77.72728 83.45456 89.18184 94.90912 100.6364 106.36368 117.81824 123.54552 135.00008 140.72736 146.45464 152.18192 157.9092 163.63648 169.36376 180.81832 186.5456 192.27288 198.00016 203.72743 209.45471 220.90927 226.63655 232.36383 238.09111 243.81839 249.54567 261.0002 266.72749 272.45475 278.182 283.90928 289.63655 295.3638 301.09107 306.81834 312.5456 318.27287 329.7274 335.45466 341.18193 346.90919 352.63645 358.3637 364.09098 369.81825 375.5455 381.27278 387.00004 398.45457 404.18183 409.9091 415.63636 421.36363 427.09089 432.81816 438.5454 444.27268 449.99995 455.7272 461.45448">Failuretoperformweeklyreviewconstitutesoperationaldegradation.</tspan></text>
<text xml:space="preserve" transform="matrix(1 0 -0 1 0 792)" font-size="10.9091" font-family="LMRoman10"><tspan y="-42.11194" x="300.54499 305.99955">13</tspan></text>
</svg>
