<svg xmlns="http://www.w3.org/2000/svg" xmlns:xlink="http://www.w3.org/1999/xlink" xmlns:inkscape="http://www.inkscape.org/namespaces/inkscape" version="1.1" width="612" height="792" viewBox="0 0 612 792">
<text xml:space="preserve" transform="matrix(1 0 -0 1 0 792)" font-size="10.9091" font-family="LMRoman10"><tspan y="-709.041" x="72">&#x2022;</tspan></text>
<text xml:space="preserve" transform="matrix(1 0 -0 1 0 792)" font-size="10.9091" font-family="LMMono10"><tspan y="-709.041" x="85.658199 91.385478 97.112758 102.840038 114.29459 120.02187 125.74915 131.47643 137.2037 142.93099 148.65827 154.38555 160.11283 165.8401 177.29467 183.02194 188.74922 194.4765 200.20378 205.93106 217.38562 223.1129 234.56746 240.29474 246.02202 251.7493 263.20384 268.9311 280.38563 286.11289 291.84016 297.5674 303.29469 309.02195 314.7492 320.47648 326.20375 337.65827 343.38554 349.1128 354.84007 360.56733 366.2946 372.02186 377.7491 383.47639 389.20365 400.65818 406.38545 412.1127 417.83998 423.56724 429.2945 435.02177 440.74903 446.4763 457.93083 463.65809 469.38536 475.1126 480.83988 486.56715 492.2944 503.74894 509.4762 515.2035 520.9308 526.6581 532.3854 538.1127 543.83999 549.56729 555.29458 561.02188 566.74917">Thisgap-bridgecannotbeusedtoauthorizecontracts,spending,partnercommitments,</tspan><tspan y="-695.492" x="85.94 91.66728 97.39456 103.12184 108.84912 120.30368 126.03096 131.75824 137.48552 143.2128 148.94008 154.66736 160.39464 166.12192 171.8492 177.57648 189.03104 194.75832 200.4856 206.21288 211.94016 217.66744 229.122 234.84928 240.57656 246.30384 252.03112 257.7584 263.48567 269.21293 274.9402 280.66746 286.3947 297.84925 303.5765 309.30378 315.03105 320.7583 326.48558 337.9401 343.66737 349.39463 355.1219 360.84916 366.57643 372.30369 378.03096 389.48548 395.21275 406.66728 412.39454 418.1218 429.57633 435.3036 441.03086 446.75813 452.48539 458.21266 469.66719 475.39445 481.1217 486.84898 498.3035 504.03077 509.75804 515.4853 521.2126 532.6672 538.3945">staffdiscipline,accessrevocation,policychanges,oranyactionthatwouldbe</tspan><tspan y="-681.943" x="85.94 97.39456 103.12184 108.84912 114.5764 120.30368 126.03096 131.75824 137.48552 148.94008 154.66736 160.39464 166.12192 171.8492 177.57648 189.03104 194.75832 200.4856 206.21288 211.94016 223.39472 229.122 234.84928 246.30384 252.03112 257.7584 263.48567 269.21293 274.9402 280.66746 286.3947 292.12199 297.84925 303.5765 309.30378 320.7583 326.48558 337.9401 343.66737 349.39463 355.1219 360.84916 366.57643 372.30369 383.7582 389.48548 400.94 406.66728 412.39454 418.1218 423.84907 429.57633 435.3036 441.03086 446.75813 452.48539 463.9399 469.66719 475.39445 481.1217 486.84898 492.57624 498.3035 504.03077 515.4853 526.9399 532.6672 538.3945 544.12179 549.84909 555.57638 561.30368 567.03097">aMaterialActionundertheConstitutionasdefinedinGovernanceScheduleA(10.10).</tspan></text>
<text xml:space="preserve" transform="matrix(1 0 -0 1 0 792)" font-size="10.9091" font-family="LMRoman10"><tspan y="-659.626" x="72">&#x2022;</tspan></text>
<text xml:space="preserve" transform="matrix(1 0 -0 1 0 792)" font-size="10.9091" font-family="LMMono10"><tspan y="-659.626" x="85.94183 91.66911 103.12367 114.57823 120.30551 126.03279 131.76007 137.48735 143.21463 148.94191 154.66919 160.39647 166.12375 177.57831 183.30559 194.76015 200.48743 206.2147 211.94199 223.39655 229.12383 234.8511 246.30567 252.03295 257.76023 269.21476 274.94203 280.66929 286.39656 297.85108 303.57835 309.3056 315.03288 320.76014 326.4874 332.21467 337.94194 343.6692 349.39646 355.12373 366.57826 372.3055 378.03279 389.4873 395.21458 406.6691 418.12364 423.8509 429.57817 435.30543 441.03269 446.75996 452.4872 458.21449 463.94175 469.669 475.39628 481.12355 486.8508 498.30534 504.0326 509.75987 515.4871 521.2144 526.9417 532.669 544.1236 549.8509 555.5782 561.3055 567.0328 572.7601">IFaGAP-BRIDGEisusedforthesameoperationalgaporasubstantiallysimilaraction</tspan><tspan y="-646.07699" x="85.94 91.66728 97.39456 103.12184 114.5764 120.30368 126.03096 131.75824 143.2128 148.94008 154.66736 160.39464 171.8492 177.57648 183.30376 189.03104 194.75832 200.4856 211.94016 217.66744 223.39472 234.84928 240.57656 246.30384 252.03112 257.7584 263.48567 269.21293 280.66746 286.3947 292.12199 297.84925 303.5765 309.30378 320.7583 326.48558 332.21284 337.9401 343.66737 349.39463 355.1219 366.57643 372.30369 378.03096 383.7582 395.21275 400.94 406.66728 418.1218 423.84907 429.57633 435.3036 441.03086 446.75813 452.48539 458.21266 463.9399 475.39445 481.1217 486.84898 492.57624 504.03077 509.75804 515.4853 521.2126 532.6672 538.3945 544.12179 549.84909 555.57638">morethanoncewithinanyrolling30-dayperiod,THENtheGoverningBodymustplace</tspan><tspan y="-632.52798" x="85.94 91.66728 97.39456 108.84912 114.5764 120.30368 131.75824 137.48552 148.94008 154.66736 160.39464 171.8492 177.57648 183.30376 189.03104 200.4856 206.21288 211.94016 217.66744 223.39472 229.122 234.84928 246.30384 252.03112 257.7584 263.48567 269.21293 274.9402 280.66746 292.12199 297.84925 303.5765 309.30378 315.03105 320.7583 332.21284 337.9401 343.66737 355.1219 360.84916 366.57643 372.30369 378.03096 383.7582 389.48548 395.21275 400.94 406.66728 418.1218 423.84907 429.57633 435.3036 441.03086 446.75813 452.48539 458.21266 463.9399 469.66719 475.39445 481.1217 492.57624 498.3035 504.03077 515.4853 521.2126 526.9399 532.6672 538.3945 544.12179 549.84909">thegaponthenextregularmeetingagendaforcorrectiveinstruction,ANDfurther</tspan><tspan y="-618.97897" x="85.94 91.66728 97.39456 103.12184 108.84912 114.5764 120.30368 126.03096 131.75824 137.48552 148.94008 154.66736 160.39464 171.8492 177.57648 183.30376 194.75832 200.4856 206.21288 211.94016 223.39472 229.122 234.84928 246.30384 252.03112 263.48567 269.21293 274.9402 280.66746 286.3947 292.12199 297.84925 303.5765 309.30378 315.03105 326.48558 332.21284 337.9401 343.66737 349.39463 355.1219 366.57643 372.30369 378.03096 383.7582 389.48548 395.21275 400.94 406.66728 412.39454 423.84907 429.57633 435.3036 441.03086 452.48539 458.21266 463.9399 469.66719 475.39445 481.1217 486.84898 492.57624 498.3035 509.75804 515.4853 521.2126 526.9399 532.6672 538.3945 544.12179 549.84909 555.57638 561.30368">GAP-BRIDGEuseforthatgapisprohibitedunlessGoverningBodyexpresslyauthorizes</tspan><tspan y="-605.42996" x="85.94 91.66728 97.39456 103.12184 108.84912 114.5764 120.30368 126.03096 131.75824 137.48552 143.2128 148.94008 160.39464 166.12192 177.57648 183.30376 189.03104 194.75832 200.4856 206.21288 211.94016 217.66744">continuationinwriting.</tspan></text>
<text xml:space="preserve" transform="matrix(1 0 -0 1 0 792)" font-size="10.9091" font-family="LMRoman10"><tspan y="-583.1129" x="72">&#x2022;</tspan></text>
<text xml:space="preserve" transform="matrix(1 0 -0 1 0 792)" font-size="10.9091" font-family="LMMono10"><tspan y="-583.1129" x="85.94183 91.66911 103.12367 108.85095 120.30551 126.03279 131.76007 137.48735 143.21463 148.94191 154.66919 160.39647 166.12375 171.85103 177.57831 189.03287 194.76015 200.48743 211.94199 217.66927 229.12383 234.8511 240.57839 246.30567 252.03295 257.76023 263.4875 269.21476 274.94203 280.66929 292.1238 297.85108 303.57835 315.03288 320.76014 326.4874 332.21467 337.94194 343.6692 349.39646 355.12373 366.57826 372.3055 378.03279 383.76005 395.21458 400.94184 406.6691 412.39637 418.12364 429.57817 435.30543 441.03269 446.75996 452.4872 463.94175 469.669 475.39628 481.12355 486.8508 492.57807 498.30534 504.0326 515.4871 521.2144 526.9417 532.669 544.1236 549.8509">IFanoperationalgapisdiscoveredANDstoppingworkwouldcauseimminentharmto</tspan><tspan y="-569.5639" x="85.94 91.66728 97.39456 108.84912 114.5764 120.30368 126.03096 131.75824 137.48552 143.2128 154.66736 160.39464 171.8492 177.57648 183.30376 189.03104 194.75832 206.21288 211.94016 217.66744 223.39472 229.122 234.84928 240.57656 246.30384 257.7584 263.48567 269.21293 274.9402 286.3947 292.12199 297.84925 303.5765 309.30378 315.03105 326.48558 332.21284 337.9401 343.66737 349.39463 355.1219 360.84916 366.57643 372.30369 383.7582 389.48548 395.21275 400.94 406.66728 412.39454 418.1218 423.84907 429.57633 435.3036 446.75813 452.48539 458.21266 463.9399 469.66719 475.39445 481.1217 492.57624 498.3035 504.03077 509.75804 521.2126 526.9399 538.3945 544.12179 549.84909 555.57638 561.30368 567.03097 572.75827 578.48556 584.2128">dogwelfareorhumandignity,THENinvokeEmergencyInvocation(OM-11)onlytoimplement</tspan><tspan y="-556.0149" x="85.94 91.66728 97.39456 108.84912 114.5764 120.30368 126.03096 131.75824 137.48552 143.2128 154.66736 160.39464 166.12192 171.8492 177.57648 183.30376 189.03104 194.75832 200.4856 211.94016 217.66744 223.39472 229.122 234.84928 240.57656 246.30384 257.7584 263.48567 269.21293 274.9402 280.66746 286.3947 297.84925 303.5765 315.03105 320.7583 326.48558 332.21284 337.9401 343.66737 349.39463 360.84916 366.57643 372.30369 378.03096 389.48548 395.21275 400.94 406.66728 412.39454 423.84907 429.57633 435.3036 446.75813 452.48539 458.21266 463.9399 469.66719 475.39445 486.84898 492.57624 498.3035 509.75804 515.4853 521.2126 532.6672 538.3945 544.12179 549.84909">theminimumtemporarycontrolneededtopreventthatharm,ANDrecord(1)thegap,</tspan><tspan y="-542.4659" x="85.367008 91.094287 96.82156 108.27612 114.0034 119.73068 131.18524 136.91252 142.6398 148.36708 159.82164 165.54892 171.2762 177.00348 182.73076 194.18532 199.9126 205.63988 217.09444 222.82172 228.549 240.00356 245.73084 251.45812 257.1854 262.91267 268.63993 274.3672 280.09446 285.82173 297.27626 303.0035 308.73078 314.45805 320.1853 325.91258 331.63984 337.3671 348.82164 354.5489 360.27616 371.73069 377.45796 383.1852 394.63975 400.367 406.09428 411.82154 417.5488 423.27607 429.00334 434.7306 440.45787 446.18513 457.63966 463.3669 469.09419 480.5487 486.27598 492.00325 503.45777 509.18504 514.9123 526.3669 532.0942 543.54879 549.27609 555.00338 560.73068 566.45797 572.18527 577.91256 583.63986 589.3671 595.0944">(2)theharmrisk,(3)thetemporarycontrol,(4)whoauthorizedit,and(5)anexpiration</tspan><tspan y="-528.9169" x="85.94 91.66728 97.39456 103.12184 108.84912 120.30368 126.03096 131.75824 143.2128 148.94008 154.66736 160.39464 166.12192 171.8492 183.30376 189.03104 194.75832 200.4856 206.21288 211.94016 217.66744 223.39472 229.122 240.57656 246.30384 252.03112 257.7584 269.21293 274.9402 280.66746 292.12199 297.84925 303.5765 309.30378 315.03105 320.7583 332.21284 337.9401 349.39463 355.1219 360.84916 366.57643 378.03096 383.7582 395.21275 400.94 406.66728 412.39454 418.1218 423.84907 429.57633 435.3036 441.03086 452.48539 458.21266 463.9399 469.66719 481.1217 486.84898 492.57624 498.3035 509.75804 515.4853 521.2126 532.6672 538.3945 544.12179 549.84909 555.57638 561.30368 567.03097 572.75827">time,ANDnotifyGoverningBodyforreviewassoonasfeasible,ELSEhalttheaffected</tspan><tspan y="-515.3669" x="85.94 91.66728 97.39456 103.12184 108.84912 114.5764 126.03096 131.75824 137.48552 143.2128 148.94008 160.39464 166.12192 171.8492 177.57648 183.30376 189.03104 194.75832 200.4856 206.21288 217.66744 223.39472 229.122 234.84928 246.30384 252.03112 257.7584 263.48567 269.21293 274.9402 286.3947 292.12199 297.84925 303.5765 309.30378 315.03105 320.7583 326.48558 332.21284">actionuntilGoverningBodyissuesguidance.</tspan></text>
<text xml:space="preserve" transform="matrix(1 0 -0 1 0 792)" font-size="10.9091" font-family="LMRoman10"><tspan y="-493.05088" x="72">&#x2022;</tspan></text>
<text xml:space="preserve" transform="matrix(1 0 -0 1 0 792)" font-size="10.9091" font-family="LMMono10"><tspan y="-493.05088" x="85.94183 91.66911 97.39639 103.12367 114.57823 120.30551 126.03279 131.76007 137.48735 143.21463 148.94191 154.66919 160.39647 166.12375 177.57831 183.30559 189.03287 200.48743 206.2147 211.94199 217.66927 229.12383 234.8511 240.57839 246.30567 252.03295 257.76023 263.4875 269.21476 274.94203 280.66929 286.39656 292.1238 297.85108 303.57835 309.3056 315.03288 320.76014 326.4874 332.21467 337.94194 343.6692 355.12373 360.85099 366.57826 378.03279 383.76005 389.4873 400.94184 406.6691 412.39637 418.12364 423.8509 429.57817 441.03269 446.75996 452.4872 463.94175 469.669 475.39628 486.8508 492.57807 498.30534 504.0326 515.4871 521.2144 526.9417 532.669 538.3963 544.1236 549.8509 555.5782 561.3055">OM-0GAP-BRIDGEandOM-1PROVISIONAL-AUTHORITYaretwolabelsforthesametemporary</tspan><tspan y="-479.50187" x="85.94 91.66728 97.39456 103.12184 108.84912 114.5764 120.30368 131.75824 137.48552 143.2128 148.94008 154.66736 160.39464 177.57648 183.30376 189.03104 194.75832 200.4856 206.21288 211.94016 217.66744 223.39472 229.122 234.84928 246.30384 252.03112 257.7584 263.48567 269.21293 274.9402 280.66746 286.3947 297.84925 303.5765 315.03105 320.7583 326.48558 332.21284 337.9401 343.66737 355.1219 360.84916 366.57643 372.30369 378.03096 383.7582 389.48548 400.94 406.66728 418.1218 423.84907 429.57633 435.3036 441.03086 446.75813 452.48539 458.21266 469.66719 475.39445 481.1217 486.84898 498.3035 504.03077 509.75804 521.2126 526.9399 532.6672 538.3945 544.12179 549.84909 555.57638 561.30368 567.03097 572.75827 578.48556 584.2128 589.9401">controlclass:PROVISIONALCONTROL.IFeitherpathwayisinvoked,THENallprohibitions,</tspan><tspan y="-465.95286" x="85.94 91.66728 97.39456 103.12184 108.84912 114.5764 120.30368 131.75824 137.48552 143.2128 148.94008 154.66736 160.39464 166.12192 171.8492 177.57648 183.30376 189.03104 194.75832 200.4856 211.94016 217.66744 223.39472 229.122 234.84928 240.57656 246.30384 252.03112 257.7584 263.48567 274.9402 280.66746 286.3947 292.12199 297.84925 303.5765 309.30378 320.7583 326.48558 332.21284 343.66737 349.39463 355.1219 360.84916 366.57643 372.30369 378.03096 383.7582 389.48548 395.21275 400.94 406.66728 412.39454 423.84907 429.57633 435.3036 441.03086 446.75813 458.21266 463.9399 469.66719 475.39445 486.84898 492.57624 498.3035 504.03077 515.4853 521.2126 526.9399 532.6672 538.3945 544.12179 549.84909 555.57638">loggingrequirements,expirationlimits,andnon-precedentrulesfromBOTHsections</tspan><tspan y="-452.40287" x="85.94 91.66728 97.39456 103.12184 108.84912 120.30368 126.03096 131.75824 137.48552 143.2128 148.94008 154.66736 160.39464 166.12192 171.8492 177.57648 183.30376 189.03104 200.4856 206.21288 211.94016 223.39472 229.122 234.84928 246.30384 252.03112 257.7584 263.48567 269.21293 274.9402 280.66746 286.3947 292.12199 303.5765 309.30378 315.03105 320.7583 326.48558 332.21284 337.9401 343.66737 349.39463 355.1219 366.57643 372.30369 378.03096 383.7582 389.48548 395.21275 400.94 406.66728 412.39454">applycumulatively,andthestrictestconstraintcontrols.</tspan></text>
<text xml:space="preserve" transform="matrix(1 0 -0 1 0 792)" font-size="14.3462" font-family="LMRoman12" font-weight="bold"><tspan y="-418.03486" x="72 84.12254 99.42994 104.80977 112.88668 124.55015 136.29969 145.26605 151.54969 160.51605 168.59296 175.19222 179.68257 185.50713 199.42293 217.35569 229.70777 237.08171 244.2548 248.74517 255.11489 259.60527 267.68217 282.02836 292.61585 298.98558 306.15867 314.00605 318.4964 326.34379 332.6274 337.11778 345.19468">OM-1.Authority&#x0026;DecisionEscalation</tspan></text>
<text xml:space="preserve" transform="matrix(1 0 -0 1 0 792)" font-size="10.9091" font-family="LMRoman10"><tspan y="-393.68586" x="72">&#x2022;</tspan></text>
<text xml:space="preserve" transform="matrix(1 0 -0 1 0 792)" font-size="10.9091" font-family="LMMono10"><tspan y="-393.68586" x="85.94183 91.66911 103.12367 114.57823 120.30551 126.03279 131.76007 137.48735 143.21463 148.94191 154.66919 166.12375 171.85103 177.57831 183.30559 189.03287 194.76015 200.48743 206.2147 211.94199 217.66927 229.12383 234.8511 240.57839 246.30567 252.03295 257.76023 263.4875 274.94203 280.66929 286.39656 292.1238 297.85108 303.57835 309.3056 315.03288 326.4874 332.21467 337.94194 343.6692 349.39646 355.12373 360.85099 372.3055 378.03279 383.76005 389.4873 395.21458 400.94184 406.6691 412.39637 423.8509 429.57817 435.30543 441.03269 446.75996 452.4872 458.21449 469.669 475.39628 486.8508 492.57807 498.30534 504.0326 509.75987 521.2144 526.9417 532.669 538.3963">IFadecisionmateriallyaffectswelfare,safety,dignity,assets,orland,THEN</tspan><tspan y="-380.13685" x="85.94 91.66728 97.39456 103.12184 108.84912 114.5764 120.30368 126.03096 131.75824 137.48552 148.94008 154.66736 160.39464 166.12192 171.8492 177.57648 183.30376 189.03104 200.4856 206.21288 217.66744 223.39472 229.122 240.57656 246.30384 252.03112 257.7584 263.48567 269.21293 274.9402 280.66746 286.3947 297.84925 303.5765 309.30378 315.03105 326.48558 332.21284 343.66737 349.39463 355.1219 360.84916 366.57643 372.30369 378.03096 383.7582 389.48548">documentedapprovalbytheGoverningBodyisrequired.</tspan></text>
<text xml:space="preserve" transform="matrix(1 0 -0 1 0 792)" font-size="10.9091" font-family="LMRoman10"><tspan y="-357.81986" x="72">&#x2022;</tspan></text>
<text xml:space="preserve" transform="matrix(1 0 -0 1 0 792)" font-size="10.9091" font-family="LMMono10"><tspan y="-357.81986" x="85.94183 91.66911 97.39639 103.12367 108.85095 114.57823 120.30551 126.03279 137.48735 143.21463 148.94191 154.66919 160.39647 166.12375 177.57831 183.30559 189.03287 194.76015 200.48743 206.2147 211.94199 217.66927 223.39655 229.12383 240.57839 246.30567 252.03295 263.4875 269.21476 274.94203 280.66929 286.39656 292.1238 297.85108 303.57835 309.3056 315.03288 326.4874 332.21467 337.94194 343.6692 349.39646 355.12373 360.85099 366.57826 378.03279 383.76005 389.4873 400.94184 406.6691 412.39637 418.12364 423.8509 429.57817 435.30543 446.75996 452.4872 458.21449 463.94175 469.669 475.39628 481.12355 486.8508 492.57807 498.30534 504.0326 515.4871 521.2144 532.669 538.3963 544.1236 549.8509 555.5782 561.3055 567.0328 572.7601 578.48739 584.21469">MaterialActionthresholdsandescalationtriggersaredefinedexclusivelyinGovernance</tspan><tspan y="-344.27085" x="85.94 91.66728 97.39456 103.12184 108.84912 114.5764 120.30368 126.03096 137.48552 148.94008 154.66736 160.39464 166.12192 171.8492 177.57648 183.30376 189.03104">ScheduleA(10.10).</tspan></text>
<text xml:space="preserve" transform="matrix(1 0 -0 1 0 792)" font-size="10.9091" font-family="LMRoman10"><tspan y="-321.95484" x="72">&#x2022;</tspan></text>
<text xml:space="preserve" transform="matrix(1 0 -0 1 0 792)" font-size="10.9091" font-family="LMMono10"><tspan y="-321.95484" x="85.94183 91.66911 103.12367 114.57823 120.30551 126.03279 131.76007 137.48735 143.21463 148.94191 154.66919 166.12375 171.85103 183.30559 189.03287 194.76015 200.48743 206.2147 211.94199 217.66927 229.12383 234.8511 240.57839 252.03295 257.76023 263.4875 269.21476 274.94203 280.66929 286.39656 292.1238 297.85108 303.57835 309.3056 320.76014 326.4874 332.21467 337.94194 349.39646 355.12373 360.85099 366.57826 372.3055 378.03279 383.76005 389.4873 395.21458 400.94184 412.39637 418.12364 423.8509 429.57817 435.30543 446.75996 452.4872 458.21449 469.669 475.39628 481.12355 492.57807 498.30534 504.0326 509.75987 515.4871 521.2144 532.669 538.3963 544.1236 549.8509 555.5782">IFadecisionisroutineandreversible,THENdesignatedstaffmayactwithintheir</tspan><tspan y="-308.40583" x="85.94 91.66728 97.39456 103.12184 114.5764 120.30368 126.03096 131.75824 137.48552 143.2128">rolescope.</tspan></text>
<text xml:space="preserve" transform="matrix(1 0 -0 1 0 792)" font-size="10.9091" font-family="LMRoman10"><tspan y="-286.08885" x="72">&#x2022;</tspan></text>
<text xml:space="preserve" transform="matrix(1 0 -0 1 0 792)" font-size="10.9091" font-family="LMMono10"><tspan y="-286.08885" x="85.94183 91.66911 103.12367 108.85095 114.57823 120.30551 126.03279 131.76007 137.48735 143.21463 148.94191 160.39647 166.12375 177.57831 183.30559 189.03287 194.76015 200.48743 206.2147 211.94199 217.66927 229.12383 234.8511 240.57839 246.30567 257.76023 263.4875 269.21476 280.66929 286.39656 292.1238 297.85108 303.57835 309.3056 315.03288 320.76014 332.21467 337.94194 343.6692 349.39646 360.85099 366.57826 372.3055 383.76005 389.4873 395.21458 400.94184 406.6691 412.39637 418.12364 429.57817 435.30543 441.03269 446.75996 452.4872 463.94175 469.669 475.39628 481.12355 486.8508 492.57807 498.30534 504.0326 509.75987 515.4871 526.9417 532.669 538.3963 544.1236 549.8509 555.5782">IFauthorityisunclear,THENthedecisionmustnotproceeduntilclarified,EXCEPT</tspan><tspan y="-272.53984" x="85.653 91.38028 97.10756 102.83484 108.56212 120.01668 125.74396 137.19852 142.9258 148.65308 160.10764 165.83492 171.5622 177.28948 183.01676 188.74404 194.47132 200.1986 211.65316 217.38043 228.83499 234.56227 240.28955 246.01683 251.74411 257.47138 263.19865 268.9259 280.38044 286.1077 291.83497 297.56224 303.2895 309.01676 314.74403 320.47129 326.19856 331.9258 337.65309 349.1076 354.83488 360.56214 372.01667 377.74394 383.4712 389.19847 394.92573 400.65299 412.1075 417.83479 423.56205 435.01658 440.74385 446.4711 452.19837 457.92564 463.6529 469.38017 480.8347 486.56196 492.2892 498.01649 509.471 515.1983 520.9256 526.6529 532.3802 538.1075">THAT:IFthedecisionisroutine,reversible,andwithintheactor&#x2019;srolescope,</tspan><tspan y="-258.9908" x="85.653 91.38028 97.10756 102.83484 114.2894 120.01668 125.74396 137.19852 142.9258 148.65308 154.38036 160.10764 171.5622 177.28948 183.01676 194.47132 200.1986 205.92588 211.65316 217.38043 223.10771 228.83499 240.28955 246.01683 251.74411 257.47138 263.19865 268.9259 274.65318 280.38044 286.1077 291.83497 297.56224 303.2895 309.01676 320.47129 326.19856 331.9258 337.65309 349.1076 354.83488 366.2894 372.01667 377.74394 389.19847 394.92573 400.65299 406.38026 412.1075 423.56205 429.2893 435.01658 440.74385 446.4711 452.19837 457.92564 469.38017 480.8347 486.56196 492.2892 503.74375 509.471 515.1983 520.9256 532.3802 538.1075">THENtheactormayproceedprovisionallyONLYIFtheactorcreatesalogstubat</tspan><tspan y="-245.44182" x="85.94 91.66728 97.39456 103.12184 114.5764 120.30368 131.75824 137.48552 143.2128 148.94008 154.66736 160.39464 171.8492 177.57648 183.30376 189.03104 200.4856 211.94016 217.66744 223.39472 229.122 234.84928 240.57656 246.30384 252.03112 257.7584 263.48567 269.21293 274.9402 280.66746 286.3947 292.12199 297.84925 303.5765 309.30378 315.03105 320.7583 326.48558 337.9401 343.66737 349.39463 355.1219 360.84916 366.57643 378.03096 383.7582 389.48548 395.21275 400.94 412.39454 418.1218 423.84907 429.57633 435.3036 441.03086 452.48539 458.21266 463.9399 475.39445 481.1217 486.84898 492.57624 498.3035 504.03077 515.4853 521.2126 526.9399 532.6672 538.3945 544.12179 549.84909 555.57638">timeofactionwithaPROVISIONAL-AUTHORITYreasoncode,statesthenarrowintended</tspan><tspan y="-231.89282" x="85.94 91.66728 97.39456 103.12184 108.84912 114.5764 126.03096 131.75824 137.48552 148.94008 154.66736 160.39464 166.12192 177.57648 183.30376 194.75832 200.4856 206.21288 211.94016 217.66744 223.39472 229.122 234.84928 240.57656 246.30384 257.7584 263.48567 269.21293 274.9402 286.3947 292.12199 297.84925 309.30378 315.03105 320.7583 326.48558 332.21284 337.9401 343.66737 349.39463 355.1219 366.57643 372.30369 383.7582 389.48548 395.21275 400.94 406.66728 412.39454 423.84907 429.57633 435.3036 446.75813 452.48539 463.9399 469.66719 475.39445 486.84898 492.57624 498.3035 504.03077 509.75804 515.4853 521.2126 526.9399 532.6672 538.3945">scope,andsetsanexpirationtimenotexceeding72hours;ANDIFanyreasonable</tspan><tspan y="-218.34282" x="85.94 91.66728 97.39456 103.12184 108.84912 114.5764 120.30368 126.03096 131.75824 137.48552 143.2128 148.94008 160.39464 166.12192 171.8492 177.57648 183.30376 189.03104 200.4856 206.21288 211.94016 217.66744 229.122 234.84928 240.57656 252.03112 257.7584 263.48567 269.21293 274.9402 280.66746 292.12199 297.84925 309.30378 315.03105 320.7583 326.48558 332.21284 337.9401 343.66737 349.39463 355.1219 360.84916 372.30369 378.03096 383.7582 389.48548 395.21275 400.94 406.66728 412.39454 418.1218 429.57633 435.3036 446.75813 452.48539 463.9399 469.66719 475.39445 486.84898 492.57624 498.3035 504.03077 509.75804 515.4853 526.9399 532.6672 538.3945 544.12179 549.84909 555.57638">disagreementarisesthattheactionismateriallyaffectingORiftheactionproves</tspan><tspan y="-204.79383" x="85.94 91.66728 97.39456 108.84912 114.5764 120.30368 126.03096 131.75824 137.48552 143.2128 148.94008 154.66736 160.39464 171.8492 177.57648 183.30376 189.03104 194.75832 200.4856 206.21288 217.66744 223.39472 229.122 234.84928 240.57656 246.30384 252.03112 263.48567 269.21293 274.9402 280.66746 286.3947 292.12199 297.84925 303.5765 309.30378 315.03105 320.7583 326.48558 332.21284 337.9401 349.39463 355.1219 360.84916 366.57643 378.03096 383.7582 389.48548 400.94 406.66728 412.39454 418.1218 423.84907 429.57633 435.3036 441.03086 446.75813 452.48539 458.21266 469.66719 475.39445 481.1217 486.84898 492.57624 498.3035 509.75804 515.4853 521.2126 526.9399 538.3945 544.12179 549.84909 555.57638">notreversiblewithoutfurtherauthorization,THENtheprovisionalactionmuststop</tspan><tspan y="-191.24483" x="85.94 91.66728 97.39456 108.84912 114.5764 126.03096 131.75824 137.48552 143.2128 148.94008 154.66736 160.39464 166.12192 171.8492 183.30376 189.03104 194.75832 200.4856 206.21288 211.94016 217.66744 223.39472 229.122 234.84928 240.57656 252.03112 257.7584 263.48567 274.9402 280.66746 286.3947 292.12199 297.84925 303.5765 309.30378 315.03105 320.7583 332.21284 337.9401 343.66737 349.39463 360.84916 366.57643 372.30369 378.03096 383.7582 389.48548 395.21275 406.66728 412.39454 418.1218 429.57633 435.3036 441.03086 446.75813 458.21266 463.9399 469.66719 475.39445 481.1217 486.84898 492.57624 498.3035 504.03077 509.75804 515.4853 526.9399 532.6672 538.3945 544.12179 549.84909 555.57638 561.30368">andbeescalatedimmediatelyforGoverningBodyreview;ANDthisprovisionalpathway</tspan><tspan y="-177.69583" x="85.94 91.66728 97.39456 103.12184 108.84912 114.5764 126.03096 131.75824 143.2128 148.94008 154.66736 160.39464 171.8492 177.57648 189.03104 194.75832 200.4856 206.21288 211.94016 217.66744 229.122 234.84928 240.57656 246.30384 252.03112 257.7584 263.48567 269.21293 274.9402 280.66746 286.3947 292.12199 303.5765 309.30378 315.03105 320.7583 326.48558 332.21284 343.66737 349.39463 355.1219 360.84916 366.57643 372.30369 383.7582 389.48548 395.21275 400.94 406.66728 412.39454 418.1218 423.84907 429.57633 435.3036 446.75813 452.48539 458.21266 463.9399 469.66719 475.39445 486.84898 492.57624 498.3035 504.03077 509.75804 515.4853 526.9399 532.6672 538.3945 544.12179 549.84909 555.57638 561.30368">cannotbeusedtocreateobligations,commitfunds,disciplinestaff,revokeaccess,</tspan><tspan y="-164.14684" x="85.94 91.66728 103.12184 108.84912 114.5764 120.30368 126.03096 131.75824 137.48552 143.2128 148.94008 160.39464 166.12192 171.8492 177.57648 183.30376 189.03104 194.75832 200.4856 206.21288 211.94016">orestablishprecedent.</tspan></text>
<text xml:space="preserve" transform="matrix(1 0 -0 1 0 792)" font-size="10.9091" font-family="LMRoman10"><tspan y="-141.82984" x="72">&#x2022;</tspan></text>
<text xml:space="preserve" transform="matrix(1 0 -0 1 0 792)" font-size="10.9091" font-family="LMMono10"><tspan y="-141.82984" x="85.94183 91.66911 103.12367 108.85095 114.57823 120.30551 126.03279 131.76007 137.48735 143.21463 148.94191 154.66919 160.39647 166.12375 171.85103 177.57831 183.30559 189.03287 194.76015 200.48743 206.2147 211.94199 217.66927 229.12383 234.8511 246.30567 252.03295 257.76023 263.4875 269.21476 274.94203 280.66929 292.1238 297.85108 303.57835 315.03288 320.76014 326.4874 337.94194 343.6692 349.39646 355.12373 366.57826 372.3055 378.03279 383.76005 389.4873 395.21458 400.94184 406.6691 418.12364 423.8509 429.57817 435.30543 441.03269 446.75996 452.4872 458.21449 469.669 475.39628 481.12355 486.8508 498.30534 504.0326 509.75987 515.4871 526.9417 532.669 538.3963 544.1236">IFPROVISIONAL-AUTHORITYisinvokedforthesamedecisioncategorymorethanonce</tspan><tspan y="-128.28084" x="85.653 91.38028 97.10756 102.83484 108.56212 114.2894 125.74396 131.47124 137.19852 148.65308 154.38036 160.10764 165.83492 171.5622 177.28948 183.01676 194.47132 200.1986 205.92588 211.65316 217.38043 223.10771 234.56227 240.28955 246.01683 251.74411 257.47138 263.19865 268.9259 280.38044 286.1077 291.83497 297.56224 309.01676 314.74403 320.47129 331.9258 337.65309 343.38035 349.1076 354.83488 366.2894 372.01667 377.74394 383.4712 394.92573 400.65299 406.38026 412.1075 417.83479 423.56205 429.2893 435.01658 446.4711 452.19837 457.92564 469.38017 475.10743 480.8347 486.56196 492.2892 498.01649 503.74375 509.471 515.1983 526.6529 532.3802 538.1075 543.8348">withinanyrolling30-dayperiod,THENtheactormustescalateforGoverningBody</tspan><tspan y="-114.73184" x="85.94 91.66728 97.39456 103.12184 108.84912 114.5764 120.30368 126.03096 131.75824 137.48552 143.2128 148.94008 154.66736 166.12192 171.8492 177.57648 183.30376 189.03104 194.75832 206.21288 211.94016 217.66744 229.122 234.84928 240.57656 246.30384 252.03112 257.7584 263.48567 274.9402 280.66746 286.3947 292.12199 297.84925 303.5765 309.30378 315.03105 320.7583 326.48558 332.21284 343.66737 349.39463 355.1219 360.84916 366.57643 372.30369 383.7582 389.48548 400.94 406.66728 412.39454 418.1218 429.57633 435.3036 441.03086 446.75813 452.48539 458.21266 463.9399 469.66719 475.39445">clarificationbeforeanyfurtherprovisionalactioninthatcategory.</tspan></text>
<text xml:space="preserve" transform="matrix(1 0 -0 1 0 792)" font-size="10.9091" font-family="LMRoman10"><tspan y="-92.41584" x="72">&#x2022;</tspan></text>
<text xml:space="preserve" transform="matrix(1 0 -0 1 0 792)" font-size="10.9091" font-family="LMMono10"><tspan y="-92.41584" x="85.94183 91.66911 97.39639 108.85095 114.57823 120.30551 126.03279 131.76007 137.48735 143.21463 148.94191 160.39647 166.12375 177.57831 183.30559 189.03287 194.76015 206.2147 211.94199 217.66927 223.39655 229.12383 234.8511 240.57839 246.30567 257.76023 269.21476 274.94203 280.66929 286.39656 292.1238 297.85108 303.57835 309.3056 320.76014 326.4874 332.21467 337.94194 343.6692 349.39646 355.12373 360.85099 372.3055 378.03279 389.4873 395.21458 400.94184 406.6691 412.39637 418.12364 423.8509 435.30543 441.03269 452.4872 458.21449 463.94175 475.39628 481.12355 486.8508 492.57807 498.30534 504.0326 515.4871 521.2144 532.669 538.3963 544.1236">Forpurposesofthissection,adecisioncategoryisdefinedbythenatureofthe</tspan><tspan y="-78.86584" x="85.94 91.66728 97.39456 103.12184 108.84912 114.5764 120.30368 126.03096 131.75824 143.2128 148.94008 154.66736 160.39464 166.12192 171.8492 177.57648 183.30376 189.03104 200.4856 206.21288 211.94016 223.39472 229.122 234.84928 246.30384 252.03112 257.7584 263.48567 269.21293 280.66746 286.3947 297.84925 303.5765 309.30378 315.03105 320.7583 326.48558 332.21284 343.66737 349.39463 355.1219 366.57643 372.30369 383.7582 389.48548 395.21275 400.94 406.66728 412.39454 418.1218 423.84907 429.57633 435.3036 441.03086 452.48539 458.21266 463.9399 469.66719 475.39445 481.1217 486.84898 492.57624 498.3035 504.03077 509.75804 521.2126 526.9399 538.3945 544.12179 549.84909 555.57638">authorityambiguityandtheclassofimpact,notbysuperficialdifferencesinfact</tspan></text>
<text xml:space="preserve" transform="matrix(1 0 -0 1 0 792)" font-size="10.9091" font-family="LMRoman10"><tspan y="-42.111837" x="303.273">4</tspan></text>
</svg>
