<svg xmlns="http://www.w3.org/2000/svg" xmlns:xlink="http://www.w3.org/1999/xlink" xmlns:inkscape="http://www.inkscape.org/namespaces/inkscape" version="1.1" width="612" height="792" viewBox="0 0 612 792">
<text xml:space="preserve" transform="matrix(1 0 -0 1 0 792)" font-size="10.9091" font-family="LMRoman10"><tspan y="-709.041" x="72">&#x2022;</tspan></text>
<text xml:space="preserve" transform="matrix(1 0 -0 1 0 792)" font-size="10.9091" font-family="LMRoman10"><tspan y="-709.041" x="85.94183 94.50548 99.65457 105.109119 109.96367 114.240039 120.3055 125.76005 131.8255 136.68006 145.17826 154.26554 159.41463 168.80738 173.08374 177.9383 187.02558 192.17467 197.64014 206.12743 209.4656 214.92015 222.82926 227.6838 233.13835 239.20381 243.502 248.35655 255.03293 261.0984 267.16386 275.04023 281.10569 286.56025 294.4366 300.50209 306.56755 309.60026 312.63298 318.08753 322.33119 327.18574 331.4621 336.91667 339.94938 342.9821 352.38575 356.6621 361.51667 367.58213 370.61485 376.0694 380.91307">Governancemayremoveforcause,butnotunilaterallyreplace</tspan></text>
<text xml:space="preserve" transform="matrix(1 0 -0 1 0 792)" font-size="10.9091" font-family="LMRoman10"><tspan y="-686.72506" x="72">&#x2022;</tspan></text>
<text xml:space="preserve" transform="matrix(1 0 -0 1 0 792)" font-size="10.9091" font-family="LMRoman10"><tspan y="-686.72506" x="85.94183 93.97093 98.825489 104.890949 107.923679 113.37823 118.23277 123.087329 132.1746 137.02916 142.78917 147.0328 154.96373 163.75647 169.82193 174.12012 181.99649 187.45104 191.7274 194.76013 200.21468 203.2474 209.31287 214.76741 219.01105 227.49834 230.83652 235.11289 240.56743 253.29836 257.542 263.60746 272.09474 276.3929 281.84748 290.93476 299.42204 304.27659 309.73115 313.9748 318.82936 324.2839 329.73847 334.01484">Replacementsmustoriginatefromthesamecategory</tspan><tspan y="-660.42306" x="72 82.00365 88.06911 92.312747 97.767299 103.832759 106.865489 109.89822 112.93095 116.869129 122.62913 130.5164 138.69823 144.76369 149.31279 155.37825 160.8328 166.89826 172.3528 177.20735 182.6619 188.72736 191.76009">Mutability:Unchangeable</tspan></text>
<text xml:space="preserve" transform="matrix(1 0 -0 1 0 792)" font-size="11.9552" font-family="LMRoman12" font-weight="bold"><tspan y="-631.21408" x="72 78.73078 85.46156 89.203548 95.934329">18.15</tspan></text>
<text xml:space="preserve" transform="matrix(1 0 -0 1 0 792)" font-size="11.9552" font-family="LMRoman12" font-weight="bold"><tspan y="-631.21408" x="112.755298 122.91721 128.41661 135.88861 139.63059 144.86696 150.99997 160.98256 171.14449 176.45259 181.7607 185.50267 192.23345 199.70545 210.91942 217.05243 224.15383 233.8734 243.90381 250.4433 257.91529 265.38728 272.11805 283.33204 287.074 293.0516 299.5911 304.82749 308.56947 315.30024">ArbiterAssignmentRandomization</tspan></text>
<text xml:space="preserve" transform="matrix(1.0084641 0 -0 .99160686 0 792)" font-size="11.001436" font-family="LMRoman10"><tspan y="-615.7894" x="70.84437 82.15385 88.270648 93.16628 97.47884 105.97196 110.25152 116.36832 119.42672 127.358768 133.47557 139.27333 144.16896 150.28577 159.44997 164.3456 170.16536 178.04238 182.35494 187.25058 193.05934 199.17613 202.23455 206.5471 211.44274 219.37477 224.87549 234.57877 242.08174 247.8905 252.17006 257.0547 261.36723 267.48405 272.98475 279.64064 288.27677 293.48045 298.99214 303.88777 308.20033 314.31715 319.81785 325.93467 330.8303 339.3234 347.5745 351.88706 358.00386 361.06227 365.34184 370.22645 374.539 381.20588 385.48545 391.60227 400.08436 408.33546 412.648 418.7648 421.8232 426.10279 430.9984 438.90846 447.7756 453.8924 458.22697 466.104 472.51789 481.011 486.5117 490.84626 495.18083 498.23924 503.73994 509.85673 514.7523 524.4666 530.2864">WherethisdocumentrequiresanExternalGovernanceArbiter,theArbitermustbeassignedby</tspan></text>
<text xml:space="preserve" transform="matrix(1.0049875 0 -0 .9950372 0 792)" font-size="10.96351" font-family="LMRoman10"><tspan y="-600.05" x="71.642688 80.73144 86.82715 92.61588 97.49464 103.590358 112.72296 117.601718 123.39045 127.65526 132.53401 142.24768 146.5454 152.02715 158.12287 164.21857 169.70032 182.43991 186.75954 191.6383 194.68618 199.56493 204.44368 208.70848 211.75635 217.2381 226.94081 233.03653 237.33423 243.12296 248.00171 252.88047 257.20008 265.12669 268.4815 272.77919 278.26094 291.01155 295.27635 301.37205 309.8578 314.73658 317.78443 320.83229 326.31404 329.36189 335.4576 338.50547 346.9912 355.21385 359.51155 365.60725 368.6551 372.9199 377.79869 385.70335 392.10606 397.89479 403.37654 406.42439 413.0792 419.17494 425.27067 428.3185 433.19728 437.51689 445.44349 449.74119 455.22294 461.31867 467.42536 472.9071 485.64674 489.96635 494.8451 497.89295 502.77174 507.6505 511.9153 514.96316 520.4449 530.1476 533.19546">adocumentedrandomselectionprocessfromtheeligibleArbiterpool,unlessrandomselectionis</tspan></text>
<text xml:space="preserve" transform="matrix(1 0 -0 1 0 792)" font-size="10.9091" font-family="LMRoman10"><tspan y="-583.523" x="72 75.03273 81.09819 84.43638 89.290927 94.745479 99.04366 102.07639 108.14185 111.17458 119.66186 125.72732 131.79277 140.29097 144.5346 153.62189 158.47644 163.93099 169.99645 173.02918 176.0619 179.09464 183.94919 188.19283 192.49102 199.15648 205.22194 211.2874 216.4474 221.5965 227.05104 230.08377 233.1165 238.57105 244.6365 247.66924 250.70197 253.7347 257.67289 262.52745 269.19288 274.64744 282.56745 286.8111 289.8438 298.9311 303.78565 307.41838 312.26203 316.5384 319.5711 323.81477 326.84748 331.70204 337.1566 343.83296 348.6875 354.14207 360.20753 364.5057 368.74937 373.02574 378.4803 381.513 387.273 391.51667 395.81486">infeasibleduetoconflicts,unavailability,ortime-criticalconstraints.</tspan></text>
<text xml:space="preserve" transform="matrix(1.0014988 0 -0 .9985033 0 792)" font-size="10.925451" font-family="LMRoman10"><tspan y="-564.04318" x="71.33708 82.56844 88.643 93.50482 97.787609 106.287609 111.750339 121.47398 129.66808 133.95087 140.02542 143.0627 147.3127 152.17453 160.09549 166.17005 171.63277 177.71825 182.56914 189.25551 192.29279 200.24652 204.51837 209.3802 215.14884 221.22339 224.26067 228.54344 233.40528 239.47982 246.16619 250.4162 256.49076 265.00169 271.07624 276.53895 282.6135 287.4753 294.1508 302.95668 309.03123 313.33583 321.224 327.60447 336.10444 339.44764 344.91038 349.1931 358.294 363.15583 372.8795 378.64814 388.06587 392.34864 397.21046 403.5909 408.44178 413.9045 418.1545 423.01637 432.74 437.02278 442.48548 448.56004 454.63459 460.0973 472.8473 477.15193 482.01374 485.05104 489.91285 494.76374 499.01374 502.05104 507.51377 517.2374 520.58059 524.86337 530.32608">WhereanArbiterpanelisrequired,thepanelmustbeformedbyrepeatedrandomselectionfrom</tspan></text>
<text xml:space="preserve" transform="matrix(1.0034939 0 -0 .99651828 0 792)" font-size="10.947215" font-family="LMRoman10"><tspan y="-551.57046" x="71.74931 76.00778 82.09444 90.57853 95.45004 98.49337 101.53669 107.01029 110.05363 116.140277 119.1836 127.667697 135.87812 140.16942 146.25609 149.29941 153.55788 158.42938 166.33329 172.72644 178.49562 183.96923 190.62512 194.88359 203.98073 208.2392 214.32584 222.80994 227.10124 231.97277 237.75289 243.83954 246.88288 251.17418 256.0457 265.7449 271.83155 277.30519 283.3918 288.2633 294.91923 299.23243 302.27577 307.14726 312.01875 318.67466 326.57859 329.6219 333.88038 343.5796 348.45109 353.9247 360.01136 363.0547 366.098 369.14134 374.01283 378.27128 386.19709 390.51029 395.38179 399.6731 404.5446 409.4161 415.50276 420.37425 430.0735 435.5471 441.64469 451.3439 455.63523 460.5067 466.59336 469.6367 475.1103 479.9818 484.8533 494.55253 500.6392 504.9524 507.9957 514.0824 523.1686 527.427 533.5136">theeligibleArbiterpooltotherequiredpanelsize,withconflictsscreenedandreplacedusingthe</tspan></text>
<text xml:space="preserve" transform="matrix(1 0 -0 1 0 792)" font-size="10.9091" font-family="LMRoman10"><tspan y="-536.101" x="72 76.29819 81.75274 90.84002 99.32729 108.41457 113.26912 117.51276 123.57822 129.33821 135.40367">samemethod.</tspan></text>
<text xml:space="preserve" transform="matrix(1.0099504 0 -0 .99014756 0 792)" font-size="11.017651" font-family="LMRoman10"><tspan y="-520.90927" x="71.290637 75.268009 83.068508 87.38742 92.89625 99.022068 105.15889 110.66772 124.27452 128.61548 133.51834 136.58124 141.4841 146.38697 150.67282 153.73574 159.24456 169.79946 172.86237 181.64345 184.70635 190.83217 194.20357 199.10643 204.61527 208.95623 212.01914 218.14495 221.20786 226.1107 233.81204 238.0979 244.22373 253.5667 259.0755 265.20133 271.62464 277.13343 280.19636 286.02467 290.31056 293.37345 299.49928 309.4372 315.86048 321.6778 327.8036 338.05003 346.93025 353.05607 357.397 366.112 372.2378 378.0551 382.95796 389.08378 398.26145 403.1643 408.98164 417.7076 421.99348 428.1193 437.45124 440.51417 446.63996 450.01136 454.91419 460.423 464.76399 467.82688 473.9527 477.0156 480.0785 483.14143 487.1298 497.38725 502.89607 509.02189 519.5768 523.8626 529.98849">Ifrandomselectionisinfeasible,theappointingbodymustdocumenttheinfeasibilityandthe</tspan></text>
<text xml:space="preserve" transform="matrix(1 0 -0 1 0 792)" font-size="10.9091" font-family="LMRoman10"><tspan y="-502.228" x="72 77.45455 80.48728 84.73092 89.585468 93.86183 99.92729 105.38184 109.62548 112.65821 118.112758 126.60003 135.68732 140.54187 144.7855 150.85097 156.61096 166.32007 172.38553 178.45099 184.51645 189.371 197.2801 201.52375 207.5892 210.62194 218.55286 222.85105 228.9165 234.99288 239.29106 244.14562 248.98926 253.2329 256.26564 261.72019 267.78565 275.6729 285.67655 291.742 295.98567 301.44023 307.50569 310.5384 313.5711 316.60383 320.54203 326.30204 334.1893 342.37113 348.43659 352.9857 359.05116 364.5057 370.57118 376.02574 380.88029 386.33485 392.4003 395.433">alternativemethodunderthissubsection.Mutability:Unchangeable</tspan><tspan y="-481.904" x="72 75.93819 82.9091 87.18547 92.64002 98.70548 104.77094 110.225498 122.95641 127.2546 132.10915 135.14188 139.99643 144.85099 149.09462 152.12735 157.5819 167.28009 170.31282 178.24375 181.27648 187.34194 190.68012 195.53467 200.98921 205.2874 208.32013 214.38559 217.41832 222.27288 228.94925 233.19289 239.25835 247.74564 253.20018 259.26564 265.63655 271.0911 274.1238 279.88383 284.12748 287.1602 293.22566 302.32386 308.68388 314.44389 320.50935 329.90208 338.6948 344.76026 349.05845 356.9348 363.00028 368.76029 373.61485 379.6803 388.76759 393.62214 399.38215 403.6258">Ifrandomselectionisinfeasible,theappointingbodymustdocument:</tspan></text>
<text xml:space="preserve" transform="matrix(1 0 -0 1 0 792)" font-size="10.9091" font-family="LMRoman10"><tspan y="-455.603" x="72">&#x2022;</tspan></text>
<text xml:space="preserve" transform="matrix(1 0 -0 1 0 792)" font-size="10.9091" font-family="LMRoman10"><tspan y="-455.603" x="85.94183 90.18547 96.25093 104.73821 109.0364 115.40732 120.26187 125.116428 128.14916 131.18189 134.21462 142.7019 145.73464 151.8001 155.13828 159.99283 165.44738 169.74556 172.77829 178.85466 181.87648 184.90921 187.94194 191.89104 201.28379 205.56015 210.4147 215.86925 220.16744 225.62198 231.68744">thespecificinfeasibilityreason,</tspan></text>
<text xml:space="preserve" transform="matrix(1 0 -0 1 0 792)" font-size="10.9091" font-family="LMRoman10"><tspan y="-433.286" x="72">&#x2022;</tspan></text>
<text xml:space="preserve" transform="matrix(1 0 -0 1 0 792)" font-size="10.9091" font-family="LMRoman10"><tspan y="-433.286" x="85.94183 90.18547 96.25093 104.73821 109.59276 115.04731 121.11277 124.1455 127.17823 130.21096 135.0655 139.30915 147.25098 151.54917 156.40372 160.68009 165.53464 170.38919 176.45465 181.3092 187.37467">theconflictsscreened,</tspan></text>
<text xml:space="preserve" transform="matrix(1 0 -0 1 0 792)" font-size="10.9091" font-family="LMRoman10"><tspan y="-410.97" x="72">&#x2022;</tspan></text>
<text xml:space="preserve" transform="matrix(1 0 -0 1 0 792)" font-size="10.9091" font-family="LMRoman10"><tspan y="-410.97" x="85.94183 90.18547 96.25093 104.73821 109.0364 113.890949 116.923679 121.77823 126.63278 130.87642 133.90915 139.3637 149.0728 158.16008 163.01464 167.25827 173.32373 179.07282 188.78192 194.84738 199.14557 204.00012 210.06558 216.73105 222.1856 228.25106">theselectionmethodused,and</tspan></text>
<text xml:space="preserve" transform="matrix(1 0 -0 1 0 792)" font-size="10.9091" font-family="LMRoman10"><tspan y="-388.654" x="72">&#x2022;</tspan></text>
<text xml:space="preserve" transform="matrix(1 0 -0 1 0 792)" font-size="10.9091" font-family="LMRoman10"><tspan y="-388.654" x="85.5491 93.425479 99.18548 108.58912 112.832759 118.89822 127.38549 131.68367 136.53823 139.57096 144.4255 149.28006 153.5237 158.37825 168.07645 176.25827 180.53464 186.6001 189.63283 193.87647 198.73102 206.64012 213.01103 217.86559 222.16378 230.05106 236.11652 240.39289 245.24744 249.54563 254.40018 258.66566 264.1311 268.98567 276.91658 279.94929 286.01475 292.0802 296.93476 303.30567 308.16023 314.22569 320.29115 325.1457 331.21116 336.0657 344.55299 350.61845 356.6839 362.74937 367.6039 375.52394 381.5894 386.44395 391.2876 395.53126 398.56398 404.01853">whytheselectedArbiterbestpreservesindependenceunderSection</tspan></text>
<text xml:space="preserve" transform="matrix(1 0 -0 1 0 792)" font-size="10.9091" font-family="LMRoman10"><tspan y="-388.654" x="413.72764 419.1822 422.2149 427.66947">4.14</tspan></text>
<text xml:space="preserve" transform="matrix(1 0 -0 1 0 792)" font-size="10.9091" font-family="LMRoman10"><tspan y="-388.654" x="433.12403">.</tspan><tspan y="-362.352" x="72 82.00365 88.06911 92.312747 97.767299 103.832759 106.865489 109.89822 112.93095 116.869129 122.62913 130.5164 138.69823 144.76369 149.31279 155.37825 160.8328 166.89826 172.3528 177.20735 182.6619 188.72736 191.76009">Mutability:Unchangeable</tspan></text>
<text xml:space="preserve" transform="matrix(1 0 -0 1 0 792)" font-size="11.9552" font-family="LMRoman12" font-weight="bold"><tspan y="-333.143" x="72 78.73078 85.46156 89.203548 95.934329">18.16</tspan></text>
<text xml:space="preserve" transform="matrix(1 0 -0 1 0 792)" font-size="11.9552" font-family="LMRoman12" font-weight="bold"><tspan y="-333.143" x="112.755298 120.227298 125.46368 131.5967 140.94567 147.4732 152.9726 160.4446 165.76465 173.23665 176.97863 188.93383 198.49799 205.03748 210.6325 217.7339 223.042 228.27838 235.00916">StewardshipBackstop</tspan></text>
<text xml:space="preserve" transform="matrix(1.0099504 0 -0 .99014756 0 792)" font-size="11.017651" font-family="LMRoman10"><tspan y="-315.66004" x="71.290637 75.268009 82.91425 87.20012 93.325939 102.50363 111.15249 116.36384 121.88368 126.78654 131.10546 137.23126 140.29418 146.41999 156.20366 164.00417 169.81046 175.93627 186.02843 189.41086 194.91968 197.98259 201.03449 209.6613 213.94716 223.73084 228.04976 233.55858 237.84445 243.35327 247.63913 256.81687 262.94267 268.45149 274.5773 279.48014 282.54307 285.60597 289.94694 294.2328 298.57377 306.07676 310.36265 316.49949 325.6772 331.80299 336.08888 340.9917 348.63798 354.1468 358.46574 364.59153 367.65446 376.28129 384.853 387.91224 390.97148 394.0307 398.93354 408.11125 412.3971 417.9059 426.52174 432.64753 437.55039 440.61329 443.6762 449.802 454.70487 465.1055 468.16844 478.5691 484.6949 489.59776 494.50059 498.78648 501.84938 507.35823">IftheGoverningBodyfailstorotatepanelists,theSteward&#x2019;sOffice(asdefinedinSection</tspan></text>
<text xml:space="preserve" transform="matrix(1.0099504 0 -0 .99014756 0 792)" font-size="11.017651" font-family="LMRoman10"><tspan y="-315.66004" x="517.75888 523.2677 526.3306">4.3</tspan></text>
<text xml:space="preserve" transform="matrix(1.0099504 0 -0 .99014756 0 792)" font-size="11.017651" font-family="LMRoman10"><tspan y="-315.66004" x="531.8395">)</tspan><tspan y="-301.97624" x="71.290637 76.79946 82.92527 89.348567 94.85738 97.920299 103.74863 108.0345 116.23163 125.59663 129.88249 134.78534 143.96305 150.39737 155.90619 160.22512 165.73395 170.05286 179.72635 182.78926 188.6176 192.90346 197.80632 202.12523 205.17713 218.22203 227.39974 232.3026 241.1718 247.60611 252.50897 260.68409 265.02503 269.3109 273.62986 276.69276 281.5956 285.88148 288.94438 298.6179 301.9893 307.4981 315.67323 320.57609 326.0849 331.9132 336.1991 339.262 345.09034 351.21617 354.27906 358.25645 367.92997 374.0668 380.19264 384.51155 390.93486 396.44367 400.7846 405.68748 413.8846 419.39344 425.51927 435.50126 441.62709 447.13587 455.28895 460.18077 463.24366 466.30659 471.8154 474.8783 481.00413 484.06703 492.83705 496.20845 501.71726 509.89237 519.2574 522.6288 528.75466 531.8175">appointsatemporaryinterimmemberstrictlyforcontinuitypurposesandnoteligibleforafull</tspan></text>
<text xml:space="preserve" transform="matrix(1 0 -0 1 0 792)" font-size="10.9091" font-family="LMRoman10"><tspan y="-285.452" x="72 76.24364 81.09819 85.37456 94.46184">term.</tspan><tspan y="-265.128" x="72 82.00365 88.06911 92.312747 97.767299 103.832759 106.865489 109.89822 112.93095 116.869129 122.62913 130.5164 138.69823 144.76369 149.31279 155.37825 160.8328 166.89826 172.3528 177.20735 182.6619 188.72736 191.76009">Mutability:Unchangeable</tspan></text>
<text xml:space="preserve" transform="matrix(1 0 -0 1 0 792)" font-size="11.9552" font-family="LMRoman12" font-weight="bold"><tspan y="-235.91899" x="72 78.73078 85.46156 89.203548 95.934329">18.17</tspan></text>
<text xml:space="preserve" transform="matrix(1 0 -0 1 0 792)" font-size="11.9552" font-family="LMRoman12" font-weight="bold"><tspan y="-235.91899" x="112.755298 121.57823 132.7922 138.92522 144.4246 151.15538 157.28839 164.76039 170.73799 182.32259 192.89099 199.99237 207.09375 214.56575 219.04895 226.38945 232.92894 236.67092 241.90729 253.86249 263.05604 268.55543 274.68846 279.99656 287.46858 298.68257 306.15455 311.39094 315.1329 321.86369">EmergencyGood-FaithPresumption</tspan></text>
<text xml:space="preserve" transform="matrix(.9899495 0 -0 1.0101526 0 792)" font-size="10.799458" font-family="LMRoman10"><tspan y="-213.16185" x="72.169338 83.27118 89.27567 94.081439 103.18538 107.99114 116.98708 121.79285 126.02624 131.42597 136.23172 142.23622 147.04198 155.84355 161.24327 167.24777 171.44876 177.45326 182.853 187.08638 190.08864 193.97643 202.778 205.78025 213.13468 216.13694 221.83905 227.23877 232.6385 238.02742 242.83319 251.93714 256.13813 264.63734 270.6418 274.87519 279.68095 285.08067 289.8864 295.57774 302.87818 305.8804 314.87638 323.87236 326.87458 332.8791 337.68486 343.38694 350.68739 356.69187 362.09159 366.32499 375.32093 381.5306 385.7856 391.7901 397.79463 402.0496 406.85536 412.55744 418.56196 423.3677 429.06983 436.37025 440.6036 445.40937 451.11149 454.1137 458.91947 469.81614 478.4989 484.50343 488.76918 496.0588 502.3765 507.18223 512.582 515.5842 524.6881 532.48538 535.4876 539.68856">Whenemergencyauthorityisinvokedtopreventimminentharm,subsequentreviewmustbeginwith</tspan></text>
<text xml:space="preserve" transform="matrix(1.0099504 0 -0 .99014756 0 792)" font-size="11.017651" font-family="LMRoman10"><tspan y="-203.78478" x="71.290637 80.42426 86.55008 90.868999 95.77185 100.1128 106.23862 115.41632 121.54214 125.828 128.89092 134.39975 144.15036 149.6592 156.65541 162.16423 167.97054 173.78786 183.53849 186.90988 192.41872 195.48163 199.76749 209.5181 215.64392 221.76973 224.83264 229.7355 234.07646 242.04222 246.94509 252.7624 255.82532 261.95115 266.85398 272.9798 277.88264 286.4103 289.4732 295.59904 301.72483 304.78776 309.69059 315.1994 319.48527 324.38813 332.3539 337.25675 342.76557 348.8914 353.79423 358.69706 364.20588 367.26878 376.44648 381.3493 387.16667 391.4525 398.15126 402.47019 407.37303 411.9784 417.79573 420.8586 425.76148 430.10243 438.0682 444.19404 447.25694 451.5979 455.9168 460.81968 466.3285 471.83729 476.15623 482.28205 488.96977 494.47859 502.42234 507.3252 513.1425 519.2683 522.33126 527.8401 530.90298">apresumptionofgoodfaithunlessevidenceindicatesconcealment,recklessdisregard,orexploit</tspan></text>
<text xml:space="preserve" transform="matrix(1 0 -0 1 0 792)" font-size="10.9091" font-family="LMRoman10"><tspan y="-188.228" x="72 75.03273 80.79273 85.03637 89.890918 95.65092 99.894557">intent.</tspan></text>
<text xml:space="preserve" transform="matrix(1.0034939 0 -0 .99651828 0 792)" font-size="10.947215" font-family="LMRoman10"><tspan y="-168.49065" x="71.35768 79.26157 85.34822 88.39155 96.31733 102.41493 106.69529 111.56681 115.880008 121.97761 131.09664 137.18329 141.44176 144.48508 149.9587 159.65792 165.74457 171.5247 176.39621 184.322 190.40865 195.88225 203.7533 209.83995 214.13127 219.00278 224.48735 229.35886 235.13899 243.02098 247.31229 252.1838 257.96394 260.9963 265.8678 273.7717 280.43858 285.31007 288.3534 293.827 298.1402 302.45344 305.49674 308.54008 311.58338 316.4549 321.9285 326.18696 329.2303 334.7039 340.79054 347.44645 352.92008 360.83494 365.70643 371.18003 377.26667 381.5799 386.4514 392.2315 398.31816 403.18965 409.2763 414.1478 419.0193 425.6752 431.76185 437.84849 445.7305 448.77384 456.64488 462.73155 467.02284 472.49647 478.5831 481.6264 487.71305 490.75639 495.01487 502.94065 508.41426 514.51187 519.9855 524.857 529.14828 533.4614">Thispresumptiondoesnotpreventreview,classification,orconsequence,butitprohibitsadverse</tspan></text>
<text xml:space="preserve" transform="matrix(1 0 -0 1 0 792)" font-size="10.9091" font-family="LMRoman10"><tspan y="-154.355" x="72 76.85455 79.88728 85.341838 89.64002 93.93821 96.97094 100.00367 103.0364 107.890949 113.3455 117.589138 120.621868 126.076419 135.77462 141.84008 147.29462 151.5928 156.44736 166.15647 170.45465 175.9092 178.94193 183.79648 186.82921 196.22196 201.6765 211.3747 214.71288 218.98925 223.8438 229.6038 235.66927 240.52382 246.58928 251.44384 256.29838 262.9638 269.02928 273.30564 278.7602 283.61476 289.6802 294.53477 299.3893 306.05476 311.5093 319.42933 324.88389 330.94935 335.193 340.04756 345.5021 354.5894 363.07667 368.53123 374.59669 378.89488 383.74943 389.50944 397.39674 401.69493 407.76039 413.82585 420.19676 425.6513 429.91679 434.16044 437.19316 443.2695 452.35679 457.21134 462.97135 466.00407 472.06953 476.92408 482.98954 487.8441 492.69865">classificationbasedsolelyonfrequency,urgency,oroutcomeabsentsupportingevidence.</tspan></text>
<text xml:space="preserve" transform="matrix(1.0099504 0 -0 .99014756 0 792)" font-size="11.017651" font-family="LMRoman10"><tspan y="-135.36469" x="71.290637 79.39963 84.302478 90.72577 95.628627 101.13744 105.42331 110.326168 120.17595 125.0788 134.2565 139.15937 143.47829 148.9871 153.88997 160.01578 164.91864 174.45992 177.52283 183.35117 188.87102 194.6773 199.58017 205.089 209.37487 212.43778 217.9466 224.07242 232.13733 237.96569 247.50696 251.79282 257.91865 266.54545 270.88639 276.3952 285.5729 294.1997 299.70854 304.61137 308.89726 314.40608 322.44895 330.4037 333.4666 337.75248 343.8783 346.9412 356.791 366.02375 370.34269 375.8515 378.9144 381.97734 385.04023 391.16606 400.3988 404.71775 409.62059 415.43794 418.50083 423.40367 435.0824 441.50569 446.40855 450.72746 453.79039 459.59669 469.45747 474.96629 481.0921 485.37797 490.88679 500.06449 505.5733 509.85914 512.92208 517.82498 523.33377 526.39669 529.4486">Repeatedemergencyinvocationsbythesameactorwithinarollingreviewperiodautomatically</tspan></text>
<text xml:space="preserve" transform="matrix(1.0024968 0 -0 .9975093 0 792)" font-size="10.936338" font-family="LMRoman10"><tspan y="-120.782848" x="71.82068 76.07492 80.36197 83.40227 88.87043 94.3386 99.20527 107.11224 116.18941 125.29937 130.76753 136.84815 142.92876 148.39693 152.65117 158.11934 162.40637 171.80069 176.66736 182.13553 191.2455 197.3261 202.79428 207.08132 212.54949 216.80373 219.84404 225.32314 233.7988 239.26699 245.3476 250.81577 253.85607 259.63047 263.9394 266.97969 274.9085 280.37669 286.45729 296.15785 302.23844 307.7066 313.7872 318.65388 325.3141 329.60118 334.4678 340.24223 343.2825 348.14918 356.0452 363.90843 370.15309 374.44013 379.29588 385.07026 391.1618 396.01756 402.10908 406.9648 416.35917 421.8273 424.86759 430.33576 436.41639 444.90296 453.70674 459.78733 464.09626 471.97044 478.05104 483.5192 491.39338 497.47398 502.34065 506.59489 511.46159 515.7486 524.8585 527.89889 533.97946">triggeramandatorycomparativeanalysisandpanelreview.Frequencyalonemustnotdetermine</tspan></text>
<text xml:space="preserve" transform="matrix(.9969955 0 -0 1.0030136 0 792)" font-size="10.876323" font-family="LMRoman10"><tspan y="-106.61171" x="72.21697 77.05694 80.08056 85.518718 89.80399 94.089267 97.112888 100.136508 103.16012 108.000087 113.43825 117.669139 120.69276 126.13091 132.17815 138.83444 144.89257 150.9398 158.80339 161.82701 169.6906 178.44605 184.49329 188.77855 196.65302 200.90564 205.7456 211.48831 217.53554 220.55916 224.82266 233.3062 237.5371 243.58432 252.05699 258.10423 263.5424 269.5896 274.42955 281.08586 285.3167 294.38755 299.8257 304.12187 308.40715 313.24708 317.53236 325.4503 331.49754 336.93568 341.16658 345.39744 350.2374 354.5009 360.54814 364.8334 371.4897 377.5369 382.37687 387.2168 390.24043 394.5257 397.5493 402.98747 409.03468 412.6565 418.7037 424.14189 428.37275 434.12629 441.67448 446.80809 456.18345 461.92613 467.97337 473.4115 476.43513 479.4587 483.38508 488.21415 494.88136 500.3195 506.36674 516.04666 520.3319 525.1719 530.61007 536.96188">classification,butitmustrequirethepaneltoassesspatterns,decision-pathwayquality,andscope</tspan></text>
<text xml:space="preserve" transform="matrix(1 0 -0 1 0 792)" font-size="10.9091" font-family="LMRoman10"><tspan y="-93.384" x="72 76.85455 82.309108 91.396389 97.461849 100.494579 103.527309 108.98186 115.04732 119.90187 124.756427">compliance.</tspan><tspan y="-73.060009" x="72 82.00365 88.06911 92.312747 97.767299 103.832759 106.865489 109.89822 112.93095 116.869129 122.62913 130.5164 138.69823 144.76369 149.31279 155.37825 160.8328 166.89826 172.3528 177.20735 182.6619 188.72736 191.76009">Mutability:Unchangeable</tspan></text>
<text xml:space="preserve" transform="matrix(1 0 -0 1 0 792)" font-size="10.9091" font-family="LMRoman10"><tspan y="-42.112009" x="300.54499 305.99955">49</tspan></text>
</svg>
