<svg xmlns="http://www.w3.org/2000/svg" xmlns:xlink="http://www.w3.org/1999/xlink" xmlns:inkscape="http://www.inkscape.org/namespaces/inkscape" version="1.1" width="612" height="792" viewBox="0 0 612 792">
<text xml:space="preserve" transform="matrix(1 0 -0 1 0 792)" font-size="11.9552" font-family="LMRoman12" font-weight="bold"><tspan y="-709.041" x="72 78.73078 82.47276 89.203548">4.14</tspan></text>
<text xml:space="preserve" transform="matrix(1 0 -0 1 0 792)" font-size="11.9552" font-family="LMRoman12" font-weight="bold"><tspan y="-709.041" x="106.02451 114.84745 121.94884 127.18522 133.31824 138.81763 146.28963 152.82912 161.05429 171.62268 177.98285 184.70168 190.83469 196.33408 203.80608 210.34557 217.81757 223.79517 234.41138 244.5733 250.0727 257.54469 261.28666 266.52305 272.65608">ExternalGovernanceArbiter</tspan></text>
<text xml:space="preserve" transform="matrix(1.0084641 0 -0 .99160686 0 792)" font-size="11.001436" font-family="LMRoman10"><tspan y="-694.27517" x="70.995098 79.24617 88.96044 96.452419 102.26118 106.54073 111.43637 115.74894 121.86574 127.36645 134.02231 142.65845 147.86212 153.36283 158.25847 162.57102 168.68782 174.18854 180.30535 185.20099 193.69408 201.94518 206.25772 212.37453 215.43294 219.7125 224.60813 232.51816 235.57656 243.50859 249.00931 258.7236 261.78199 267.8988 274.0156 278.91127 285.3361 290.23173 296.3485 302.46534 307.36097 313.16975 321.04679 324.1052 330.22203 336.3388 339.39723 345.20597 348.26435 354.38117 360.49797 365.9987 372.65458 378.15528 386.0653 392.49015 398.2879 404.40473 413.81095 418.1235 423.01914 427.2987 432.79945 435.85783 441.97465 446.87028 456.58457 460.91914 466.41984 469.47825 474.37388 477.43229 486.8385 491.11808 500.21626 506.33308 510.64564 515.8493 521.6581 524.7165 530.83328">AnExternalGovernanceArbiterisanindependentindividualorbodyretainedsolelytoprovide</tspan></text>
<text xml:space="preserve" transform="matrix(1 0 -0 1 0 792)" font-size="10.9091" font-family="LMRoman10"><tspan y="-674.899" x="72 78.06546 82.92001 88.98547 93.22911 97.50548 102.96003 109.62549 115.08004 121.1455 124.48369 130.54915 136.62552 139.64734 144.50189 149.95644 154.20008 157.2328 162.68735 168.7528 175.42919 179.70555 184.5601 190.32012 193.35285 198.2074 206.08377 212.74924 218.20378 226.11289 231.56743 237.63289 243.69835 247.97472 253.13472 258.2838 263.73838 270.4038 273.742 279.80747 285.87294 290.72749 294.97114 298.00386 303.4584 309.52388 317.4657 322.32026 328.08027 334.14573 338.4221 343.27665 347.57484 351.87303 354.90574 364.29847 368.57484 373.42939 379.1894 385.25486 388.28758 392.56394 397.4185 407.11668 412.88758 422.2803 426.52397 432.58943 435.62214 443.55305 449.6185 455.3785 460.23307 466.29853 475.3858 480.24037 486.00038 490.24403">neutraladjudication,review,orapprovalfunctionsexpresslyrequiredbythisdocument.</tspan><tspan y="-654.575" x="71.596 79.777828 89.47601 96.90511 102.665119 106.90875 111.763309 116.03967 122.10513 127.559688 134.23606 142.7997 147.94879 153.40335 158.2579 162.53427 168.59973 174.05428 180.11974 184.97429 193.46158 201.6434 205.91977 211.98523 215.01796 219.2616 224.11615 232.03617 240.818 246.88346 251.18164 259.058 263.3562 268.81077 273.0544 276.08714 280.3853 283.7235 293.12718 298.58174 301.61445 308.27989 313.73445 320.70536 324.949 331.01448 339.51268 342.85087 348.30543 351.33815 354.37086 359.51997 367.39634 370.42906 376.4945 385.5818 390.43635 395.8909 401.95637 408.02183 411.05455 415.2982 418.3309 423.78547 429.85093 434.1491">AnExternalGovernanceArbitermustsatisfyallofthefollowingconditions:</tspan></text>
<text xml:space="preserve" transform="matrix(1 0 -0 1 0 792)" font-size="10.9091" font-family="LMRoman10"><tspan y="-628.274" x="72">&#x2022;</tspan></text>
<text xml:space="preserve" transform="matrix(1 0 -0 1 0 792)" font-size="10.9091" font-family="LMRoman10"><tspan y="-628.274" x="85.94183 88.97456 96.90548 102.97094 108.42549 116.31277 125.40005 130.2546 136.32006 140.59642 144.87279 149.72734 155.48735 163.37464 168.82918 176.73828 180.07646 185.531 189.80738 198.89466 203.7492 211.65831 220.74559 225.60015 234.38198 240.75289 245.60744 253.51654 258.9711 265.95295 270.1966 276.26206 284.74934 293.31297 298.46208 303.92753 308.77119 313.04756 319.113 322.14573 328.22209 337.30937 345.033 350.793 356.85847">isnotacurrentorformermemberoftheGoverningBody</tspan></text>
<text xml:space="preserve" transform="matrix(1 0 -0 1 0 792)" font-size="10.9091" font-family="LMRoman10"><tspan y="-605.958" x="72">&#x2022;</tspan></text>
<text xml:space="preserve" transform="matrix(1 0 -0 1 0 792)" font-size="10.9091" font-family="LMRoman10"><tspan y="-605.958" x="85.94183 88.97456 96.90548 102.97094 108.42549 116.31277 120.556407 126.621868 135.10915 141.32733 146.78188 152.84734 158.9128 164.97826 169.83281 174.10918 180.77465 186.99283 192.44738 198.51284 204.5783 210.64376 215.4983 223.40741 229.47287 233.7165 238.57106 246.14199 251.59653 255.8729 261.93836 268.61473 274.06929 281.97837 287.43293 293.19294 302.5966 307.45115 313.21116 318.0657 322.90937 328.98573 333.22938 336.2512 341.71665 350.20393 355.65849 363.56758 368.42213 377.5094 383.57487 386.60758 391.75669 397.22215 402.0767 410.56398 416.01853 422.98945 427.2331 433.29856 441.79676 447.2513 451.52769 456.98225 462.4368 468.50227 471.53498 476.38954 481.8441 486.08775 489.12046 494.575">isnottheFounder,FounderSteward,oranyexecutiveoremployeeoftheorganization</tspan></text>
<text xml:space="preserve" transform="matrix(1 0 -0 1 0 792)" font-size="10.9091" font-family="LMRoman10"><tspan y="-583.641" x="72">&#x2022;</tspan></text>
<text xml:space="preserve" transform="matrix(1 0 -0 1 0 792)" font-size="10.9091" font-family="LMRoman10"><tspan y="-583.641" x="85.94183 92.00729 97.461849 105.39276 111.45822 120.55641 129.64369 135.09824 139.34188 144.19643 148.4728 151.50553 156.96007 163.62554 166.65827 169.691 175.75646 181.211 187.27646 192.13101 195.16374 200.61829 203.65102 210.31649 213.65467 219.1092 228.19649 231.22922 234.26195 237.29468 242.74922 245.78195 252.45833 257.91288 265.82197 270.12016 276.1856 282.55653 287.41108 291.68745 297.44746 300.48017 304.77836 310.2329 314.50929 323.902 328.17839 333.03294 336.06565 341.5202 345.76387 348.79658 354.25114 360.3166 364.61479 370.68025 373.71296 383.41114 391.2875 394.32023 398.56388 408.27299 413.72755 419.48756 428.88029 434.33485 439.49485 444.9494 449.80397 454.08033 460.14579 465.00035 474.69853 480.76399 486.21855 490.4949 494.4331">hasnomaterialfinancial,familial,orsupervisoryrelationshipwithanygovernedparty</tspan></text>
<text xml:space="preserve" transform="matrix(1 0 -0 1 0 792)" font-size="10.9091" font-family="LMRoman10"><tspan y="-561.325" x="72">&#x2022;</tspan></text>
<text xml:space="preserve" transform="matrix(.9904545 0 -0 1.0096376 0 792)" font-size="10.804966" font-family="LMRoman10"><tspan y="-555.9668" x="86.76825 92.77581 98.17829 106.11994 112.12751 117.52999 125.40681 131.41437 135.64992 140.74985 146.45487 149.45865 155.4662 160.27442 169.95568 175.96323 181.36569 184.36949 194.06154 198.3187 203.1269 207.36244 213.06746 216.07125 220.87946 225.68767 233.61852 237.82166 246.90862 251.11176 257.1193 265.60118 271.00367 275.23924 280.64173 286.04423 292.0518 295.05555 299.86375 305.26625 309.4694 312.47315 317.87565 327.5569 335.35807 338.36186 342.565 348.58338 351.57633 361.2684 365.47154 371.47914 379.961 385.97938 390.20414 395.0123 399.8205 404.6287 410.63627 413.64006 419.6476 428.7346 432.6352 440.12303 444.9312 450.63627 454.53688 460.24189 463.83998 467.14628 472.54878 478.55635 486.46559 490.6687 496.0712 501.4737 509.36134 518.3619 523.76437 529.45858 533.6617 539.66928 543.92636">hasnotprovidedpaidservicestotheorganizationwithintheprecedingtwenty-four(24)months,</tspan></text>
<text xml:space="preserve" transform="matrix(1 0 -0 1 0 792)" font-size="10.9091" font-family="LMRoman10"><tspan y="-547.776" x="85.94 90.794559 96.55456 101.4091 106.26366 112.32912 120.20548 123.54367 128.99822 136.91823 142.98369 147.26006 150.29279 155.74733 163.65644 169.11098 173.38735 179.4528 182.48554 186.72917 191.58373 199.49283 203.79102 208.64557 212.92194 218.68195 221.71468 226.56923">exceptforpriorarbiterservice</tspan></text>
<text xml:space="preserve" transform="matrix(1 0 -0 1 0 792)" font-size="10.9091" font-family="LMRoman10"><tspan y="-525.459" x="72">&#x2022;</tspan></text>
<text xml:space="preserve" transform="matrix(1 0 -0 1 0 792)" font-size="10.9091" font-family="LMRoman10"><tspan y="-525.459" x="85.94183 92.00729 97.461849 105.39276 111.45822 120.55641 125.410968 130.86551 136.62552 140.86916 143.90189 149.96735 155.42189 160.27645 166.03646 173.92374 178.77829 184.23284 193.32012 199.68012 204.53467 210.60013 214.89832 220.35286 224.5965 227.62923 233.08377 242.79288 247.03652 250.06925 254.9238 264.62199 268.86564 277.9529 283.40748 289.47294 293.71659 298.57115 304.0257 313.11299 317.96754">hasnocontingentcompensationtiedtooutcomes</tspan></text>
<text xml:space="preserve" transform="matrix(1 0 -0 1 0 792)" font-size="10.9091" font-family="LMRoman10"><tspan y="-503.14299" x="72">&#x2022;</tspan></text>
<text xml:space="preserve" transform="matrix(1 0 -0 1 0 792)" font-size="10.9091" font-family="LMRoman10"><tspan y="-503.14299" x="85.94183 88.97456 96.90548 101.20367 106.05821 109.09094 113.945499 118.80005 123.043689 127.89824 137.60735 141.85099 147.91645 152.19281 157.64736 163.71282 169.16736 178.86556 187.95284 194.0183 199.77829 204.63285 210.6983 219.78559 224.64014 230.40015 234.64379 239.49834 249.20745 255.2729 259.54927 265.30928 270.15293 275.00749 279.30567 287.2475 293.31297 298.1675 302.4657 305.4984 310.95298 317.01844 321.873 331.57118 335.81483 344.91304 350.9785 355.25486 360.1094 364.4076 369.26216 373.5385 378.99308 387.48036 390.51307 396.57853 402.64399 407.49855 413.86946 418.724 424.78947 430.85493 435.70948 441.77494 446.6295">isselectedthroughadocumentedprocessdesignedtopreserveindependence</tspan><tspan y="-476.84199" x="71.596 79.777828 89.47601 96.90511 102.665119 106.90875 111.763309 116.03967 122.10513 127.559688 134.23606 142.7997 147.94879 153.40335 158.2579 162.53427 168.59973 174.05428 180.11974 184.97429 193.46158 201.6434 205.91977 211.98523 215.01796 219.2616 224.11615 228.39252">AnExternalGovernanceArbiter:</tspan></text>
<text xml:space="preserve" transform="matrix(1 0 -0 1 0 792)" font-size="10.9091" font-family="LMRoman10"><tspan y="-450.53999" x="72">&#x2022;</tspan></text>
<text xml:space="preserve" transform="matrix(1 0 -0 1 0 792)" font-size="10.9091" font-family="LMRoman10"><tspan y="-450.53999" x="85.94183 92.00729 97.461849 100.494579 106.560039 114.49095 120.55641 129.6546 135.10915 140.25824 145.7128 150.56735 154.84372 160.90918 163.94191 170.00737 179.10556 184.5601 190.62557 194.8692 200.93466 206.3892 210.66558 213.6983 217.63649">holdsnogoverningauthority</tspan></text>
<text xml:space="preserve" transform="matrix(1 0 -0 1 0 792)" font-size="10.9091" font-family="LMRoman10"><tspan y="-428.22398" x="72">&#x2022;</tspan></text>
<text xml:space="preserve" transform="matrix(1 0 -0 1 0 792)" font-size="10.9091" font-family="LMRoman10"><tspan y="-428.22398" x="85.94183 95.02911 100.17821 109.58185 115.64731 121.10186 128.97823 132.01096 136.30915 140.60733 146.67279 155.16008 161.53099 166.98554 170.01827 173.051 177.90555">maynotissuepolicy</tspan></text>
<text xml:space="preserve" transform="matrix(1 0 -0 1 0 792)" font-size="10.9091" font-family="LMRoman10"><tspan y="-405.90797" x="72">&#x2022;</tspan></text>
<text xml:space="preserve" transform="matrix(1 0 -0 1 0 792)" font-size="10.9091" font-family="LMRoman10"><tspan y="-405.90797" x="85.94183 95.02911 100.17821 109.58185 115.0364 119.890949 127.76731 133.22187 139.28733 142.32006 151.7128 159.58917 162.6219 166.86554 172.931 175.96373 185.67284 189.91648 195.98194 204.46923 208.76741 213.62197 219.0765 225.44742 233.93471 238.78926 244.54927 250.61473 253.64746 256.68019 261.53474 264.56745 268.8111 271.8438 281.23655 286.6911 290.96748 296.42204 302.18205 306.4257 311.28025 320.98936 326.74937 336.1421 340.38575 346.4512 349.48393 357.42576 363.4912 369.25123 374.10578 380.17124 389.2585 394.11308 399.87309">mayactonlywithinthescopeexplicitlygrantedbythisdocument</tspan></text>
<text xml:space="preserve" transform="matrix(1 0 -0 1 0 792)" font-size="10.9091" font-family="LMRoman10"><tspan y="-383.59098" x="72">&#x2022;</tspan></text>
<text xml:space="preserve" transform="matrix(1 0 -0 1 0 792)" font-size="10.9091" font-family="LMRoman10"><tspan y="-383.59098" x="85.94183 94.723659 100.789119 105.0873 112.97458 116.00731 120.3055 124.60368 130.66915 139.15644 147.0328 151.30918 154.3419 158.58554 162.82918 167.68373 177.38193 180.41466 183.44739 189.51285 195.57831 198.61104 204.6765 210.13105 218.07288 225.94925 232.01471 236.86927 246.56746 250.84383 255.69838 261.45838 267.52384 270.55656 274.83293 279.68748">mustissuewrittenfindingswhenrequired</tspan><tspan y="-357.28999" x="72 78.218189 83.67274 86.70547 89.7382 95.80366 100.080028 108.5673 112.810939 121.89822 130.9855 135.84006 140.69461 148.57099 154.02553 159.79645 169.1892 174.04375 177.07648 180.1092 185.56375 188.59648 194.66194 197.69467 200.7274 203.76013 207.69832 217.09107 221.94562 227.40016 233.46562 239.54199 242.57472 246.81836 249.84018 255.29473 265.0038 269.28019 274.13475 280.2002 286.26567 291.1202 295.39659 303.32749 307.57115 313.6366 322.1348 330.31663 334.5821 340.65846 343.69117 347.9348 352.77848 360.6985 366.15306 372.2185 378.58943 384.04399 387.0767 392.8367 397.08036 406.16764 411.0222 416.7822 424.65858 427.69129 433.4622 438.6113 444.06587 447.09858 450.1313 456.19676">FailuretomeetanyeligibilityconditionrenderstheArbiterappointmentinvalid.</tspan></text>
<text xml:space="preserve" transform="matrix(1.0099504 0 -0 .99014756 0 792)" font-size="11.017651" font-family="LMRoman10"><tspan y="-340.319" x="70.89061 79.15385 84.982189 94.60059 101.02389 105.92674 110.24566 114.58661 120.09544 130.02234 139.20005 144.40038 154.01879 157.0817 160.14459 163.2075 171.91146 177.42029 187.34719 195.61043 199.92934 206.05516 209.11806 213.40393 218.30678 226.42679 233.92981 236.99272 240.05564 245.56446 248.62737 254.75319 257.8161 260.879 263.94194 267.9193 277.53773 285.49247 291.6183 297.12709 300.19 303.2529 308.15577 314.28157 319.79039 328.4943 336.75755 342.26637 346.55223 349.61515 354.51799 359.4208 367.87138 376.1346 382.5689 388.07774 398.0046 402.3125 407.21537 412.1182 417.02107 420.08396 426.20979 430.49565 437.41474 441.70063 447.82643 456.51936 465.1682 470.37956 475.89939 480.80223 485.12117 491.24699 494.30989 500.4357 509.74559 517.5461 523.35238 529.4782">AnypersonmayfileanArbiterEligibilityChallengeNotice.Uponreceipt,theGoverningBody</tspan><tspan y="-326.63517" x="71.290637 80.17086 86.29667 90.63763 98.8568 101.91971 107.42853 116.881679 121.16754 127.293369 136.12953 142.26636 147.77519 152.06105 155.11295 160.0158 168.86298 176.81772 179.88062 184.16648 190.2923 193.3552 203.42534 207.4027 215.05998 219.96283 225.79119 229.77957 235.59688 239.26576 242.63716 248.146 254.2718 262.52406 266.80995 272.31874 277.82756 286.05778 292.18357 297.69239 303.8182 308.13716 316.4114 321.92024 328.04603 338.11619 344.24198 349.14485 353.4307 358.33357 362.6525 371.83018 374.8931 381.0189 389.8661 394.7579 397.8208 400.8837 406.39253 409.4554 415.58125 418.64414 421.70707 424.76997 428.75837 438.52003 446.47477 449.53767 453.82356 459.94938 463.01228 473.07139 476.44279 481.9516 488.0774 492.39634 496.68223 501.58506 506.48789 516.55807 520.8439 526.3527 531.8616">mustlogthenoticewithintwenty-four(24)hoursanddetermineeligibilitywithinfourteen(14)</tspan></text>
<text xml:space="preserve" transform="matrix(1 0 -0 1 0 792)" font-size="10.9091" font-family="LMRoman10"><tspan y="-309.868" x="72 78.06546 83.214557 88.974559 93.27274 99.94911 104.22548 109.08003 113.923679 119.37823 123.654598 129.73096 132.75278 138.82915 147.91643 152.16007 158.22553 166.71282 172.77828 177.63283 181.87647 186.73102 191.00739 200.09467 203.1274 209.19286 214.6474 218.89104 221.92377 227.37831 237.0765 242.53105 248.60742 258.3056 263.76017 269.21473 273.45838 281.94566 286.22203 291.07658 295.37477 301.44023 304.47294 308.71659">days,recordingthedeterminationandvoteresult.</tspan></text>
<text xml:space="preserve" transform="matrix(1.0054849 0 -0 .9945449 0 792)" font-size="10.968936" font-family="LMRoman10"><tspan y="-291.13218" x="71.60725 75.56703 82.543277 85.59264 91.691379 96.572559 99.62192 102.67129 108.155757 111.205127 117.303859 120.35322 123.40259 126.44099 130.41175 139.82309 142.87245 150.80298 155.68415 161.16863 167.26737 170.31673 173.36609 177.66593 186.80304 191.68422 197.78296 204.45206 208.71898 214.8177 223.30767 231.53435 235.83419 241.93292 244.98227 249.24919 254.13036 262.04994 266.34974 271.83424 274.8836 283.37358 286.42295 294.36445 299.55278 305.03724 309.91844 315.4029 319.6698 324.551 334.25849 337.615 343.09947 351.01905 355.28596 361.38468 366.86915 374.75584 383.89295 389.3774 393.64433 397.91123 402.79243 410.701 416.1855 422.2842 432.0027 441.09596 445.39576 450.27693 456.37565 459.42503 464.90953 469.79069 474.67189 483.80903 488.6902 494.49278 502.36845 510.59516 514.89498 520.9937 524.0431 528.31008 533.1912">Ifineligibilityisconfirmed,theArbiterroleisvacatedforthatmatterandareplacementArbiter</tspan></text>
<text xml:space="preserve" transform="matrix(1 0 -0 1 0 792)" font-size="10.9091" font-family="LMRoman10"><tspan y="-275.995" x="72 80.78182 86.84728 91.14547 99.032749 105.39275 113.89094 119.34549 123.64368 127.941867 130.9746 136.42914 142.4946 147.34915 157.04735 163.11281 169.17827 175.24373 180.09828 188.0183 194.08376 198.93831 203.79286 208.0365 211.06923 216.52378">mustbeassignedunderSection</tspan></text>
<text xml:space="preserve" transform="matrix(1 0 -0 1 0 792)" font-size="10.9091" font-family="LMRoman10"><tspan y="-275.995" x="226.22197 231.67652 234.70925 240.16379">4.14</tspan></text>
<text xml:space="preserve" transform="matrix(1 0 -0 1 0 792)" font-size="10.9091" font-family="LMRoman10"><tspan y="-275.995" x="249.25107 254.70561 260.77107 270.48017 274.72383 280.78929 289.27656 297.45838 301.73475 307.8002 310.83293 315.07658 319.93113 327.8402 336.02204 340.32023 344.6184 347.65113 353.10569 359.17115 368.25843 373.11299 378.88389 386.76026 394.78935 400.2439 406.30937 412.37483 417.82939 426.91667 429.94938 434.80393 440.25849 444.50215 447.53486 452.9894 462.6876 466.96397 473.02943 476.06214 480.9167 485.21488">andtheArbiterAssignmentRandomizationrules.</tspan><tspan y="-255.67099" x="72 82.00365 88.06911 92.312747 97.767299 103.832759 106.865489 109.89822 112.93095 116.869129 122.62913 130.5164 138.69823 144.76369 149.31279 155.37825 160.8328 166.89826 172.3528 177.20735 182.6619 188.72736 191.76009">Mutability:Unchangeable</tspan></text>
<text xml:space="preserve" transform="matrix(1 0 -0 1 0 792)" font-size="11.9552" font-family="LMRoman12" font-weight="bold"><tspan y="-226.46199" x="72 78.73078 82.47276 89.203548">4.15</tspan></text>
<text xml:space="preserve" transform="matrix(1 0 -0 1 0 792)" font-size="11.9552" font-family="LMRoman12" font-weight="bold"><tspan y="-226.46199" x="106.02451 115.21806 120.71745 126.85047 131.33368 141.4956 148.9676 156.4396 161.939 168.29917 175.01799 181.151 193.1062 201.92914 209.03054 214.2669 220.39992 225.8993 233.3713 239.9108 248.13597 258.70439 265.06455 271.79533 277.92835 283.42774 290.89973 297.4392 304.9112 310.8888 321.50505 331.66697 337.16636 344.63838 348.38035 353.61674 359.74977">Pre-ApprovedExternalGovernanceArbiter</tspan></text>
<text xml:space="preserve" transform="matrix(.99196776 0 -0 1.0080973 0 792)" font-size="10.821475" font-family="LMRoman10"><tspan y="-204.21541" x="72.58301 78.72961 84.14034 92.06167 98.07841 104.09515 108.33717 114.65691 120.06766 124.331317 129.14687 137.08983 142.50058 149.48043 153.68997 159.70671 162.71508 170.65805 176.67479 182.38854 187.20409 193.22083 202.2351 207.05066 212.7644 216.97394 223.65079 227.69803 233.71477 237.95679 242.77234 246.37589 251.78662 257.80339 263.8201 268.0621 273.16987 278.5806 283.39616 293.08137 300.4508 306.16456 310.3741 315.18968 319.4317 325.44844 330.85917 337.54685 346.0417 351.1386 356.54936 361.36494 365.60694 371.6237 377.03443 383.05116 387.86674 396.3616 404.4777 408.7197 414.73646 417.7448 421.95439 426.76994 431.01197 438.72764 447.74195 452.55754 457.96827 463.985 471.9171 477.32786 487.0239 495.13999 499.38203 505.39875 508.4071 512.6167 517.4322 525.3427 533.1559 539.17257">Forpurposesofthisdocument,"pre-approvedExternalGovernanceArbiter"meansanArbiterwho</tspan></text>
<text xml:space="preserve" transform="matrix(1 0 -0 1 0 792)" font-size="10.9091" font-family="LMRoman10"><tspan y="-192.32" x="72 75.03273 82.963649 88.4182 91.45093 95.727298 100.58185 106.0364 112.10186 121.5055 124.53823 134.23642 138.48006 144.54552 153.0328 159.09827 165.16373 171.22919 174.26192 177.29465 181.59284 187.6692 192.51285 202.22196 207.0765 210.10924 213.14197 218.59651 221.62924 227.6947 230.72743 239.21472 247.39655 251.67292 257.73838 260.7711 265.01475 269.8693 277.77839 284.1493 289.9093 295.36387 302.0293 307.48387 315.37117 319.6148 325.68028 334.16755 338.4112 341.4439 350.5312 359.01847 363.26213 369.32759 377.81486 385.99668 390.27305 396.3385 399.37123 403.61488 408.46943 416.38945 419.72764 425.7931 431.85856 436.7131 440.95677 443.98948 449.44404 459.1422 462.17494 470.10585 474.3822 479.23677 484.99678 491.06224 494.09495 498.3713 503.22587 509.29133">isalreadyinthepublishedeligibleArbiterpoolatthetimetheArbiterfunctionisrequired.</tspan><tspan y="-171.996" x="72 80.18182 89.269107 93.56729 98.421848 104.487308 109.94186 114.21822 119.672779 123.91641 132.41461 137.86916 143.93462 150.00008 154.27645 159.42554 164.57463 170.02918 176.70555 181.00374 185.24738 190.10193 199.80013 208.8874 214.0365 223.44016 229.80016 238.29836 241.33109 250.41837 256.78929 262.24385 266.54203 271.39659 281.09477 287.46568 292.32023 297.77479 303.22935 309.2948 318.99299 322.0257 328.09117 332.9457 335.97843 342.04389 346.34208 349.3748 354.82936 364.53846 367.57118 377.26936 381.513 387.57847 396.06575 400.9203 403.953 406.98573 412.44029 415.473 421.53846 424.57118 433.06938 441.2512 445.52757 451.59303 454.62574 458.8694 463.72395 471.63304 478.00395 483.75306 489.2076 492.24034">NoseparateapprovalstepmaybeimposedbeyondinclusionintheeligibleArbiterpool.</tspan><tspan y="-151.672" x="71.596 79.777828 85.53783 94.94147 99.217838 104.07239 113.15967 118.30876 123.457859 128.9124 135.58878 138.92696 143.20333 148.65787 161.37789 165.62152 171.68698 180.17427 185.02883 188.06156 191.09429 196.54883 199.58156 205.64702 208.67975 217.16704 225.34886 229.62523 235.69069 238.72342 242.96706 247.82161 255.74163 262.10163 267.86164 273.3162 279.99256 288.77439 294.83985 299.13804 307.0144 313.3853 321.8726 324.9053 330.35987 335.81443 341.26899 346.12355 355.83265 363.709 366.74174 370.98539 380.68357 385.53813 390.99269 397.05815 401.35633 409.8436 415.29817 421.36363 431.07273 435.92729 439.10728 442.2873 447.14186 451.9964 456.24006 459.27278 464.72734 473.2146 477.45826 480.49098 489.57826 494.4328 498.731 502.97465 508.4292 517.5165 523.5819">AnyremovalfromtheeligibleArbiterpoolmustbeloggedwithcauseandeffectivetimestamp.</tspan><tspan y="-131.34799" x="72 82.00365 88.06911 92.312747 97.767299 103.832759 106.865489 109.89822 112.93095 116.869129 122.62913 130.5164 138.69823 144.76369 149.31279 155.37825 160.8328 166.89826 172.3528 177.20735 182.6619 188.72736 191.76009">Mutability:Unchangeable</tspan></text>
<text xml:space="preserve" transform="matrix(1 0 -0 1 0 792)" font-size="10.9091" font-family="LMRoman10"><tspan y="-42.11199" x="300.54499 305.99955">13</tspan></text>
</svg>
