<svg xmlns="http://www.w3.org/2000/svg" xmlns:xlink="http://www.w3.org/1999/xlink" xmlns:inkscape="http://www.inkscape.org/namespaces/inkscape" version="1.1" width="612" height="792" viewBox="0 0 612 792">
<text xml:space="preserve" transform="matrix(1.0099504 0 -0 .99014756 0 792)" font-size="11.017651" font-family="LMRoman10"><tspan y="-716.0963" x="71.290637 79.862369 86.28566 91.18851 95.50743 101.01626 105.302127 108.365039 113.873859 119.999668 125.5085 132.66997 142.77315 148.28199 154.11032 160.23615 165.74497 168.80788 177.24739 186.42511 191.63646 201.54132 205.86025 210.7631 214.1345 219.03737 223.35628 228.25914 234.38497 239.28781 248.28925 252.5751 258.7009 267.70234 275.8113 280.71415 286.22297 289.28587 293.62684 297.9127 302.23164 312.14753 318.27336 324.39915 332.7836 341.6528 347.7786 352.11958 360.504 366.62983 372.13865 380.52308 385.4259 391.24324 397.36906 402.87788 409.0037 415.1295 422.41218 425.47508 431.3034 435.58927 440.49214 444.81105 450.93687 455.2558 460.15864 464.44453 471.72718 477.236 485.6535 491.7793 497.28813 501.60707 505.926 511.1374 523.1907 526.25357 530.5394">OperationalManualsmayreferencetheRegistrybutmustnotexpand,interpret,ornarrowits</tspan></text>
<text xml:space="preserve" transform="matrix(1 0 -0 1 0 792)" font-size="10.9091" font-family="LMRoman10"><tspan y="-695.492" x="72 76.29819 81.15274 86.60729 92.97821 97.83276">scope.</tspan></text>
<text xml:space="preserve" transform="matrix(1 0 -0 1 0 792)" font-size="11.9552" font-family="LMRoman12" font-weight="bold"><tspan y="-666.283" x="72 78.73078 82.47276">9.1</tspan></text>
<text xml:space="preserve" transform="matrix(1 0 -0 1 0 792)" font-size="11.9552" font-family="LMRoman12" font-weight="bold"><tspan y="-666.283" x="99.29373 108.11667 119.33064 125.46366 130.96306 137.69384 143.82685 151.29885 157.27645 168.86104 178.65236 186.12436 191.36074 198.83274 205.5635 211.0629 214.80487 219.65868 231.24327 238.71527 246.18727 253.65927 258.96739 265.1004">EmergencyAuthoritySunset</tspan></text>
<text xml:space="preserve" transform="matrix(.99196776 0 -0 1.0080973 0 792)" font-size="10.821475" font-family="LMRoman10"><tspan y="-640.50369" x="72.175739 80.29185 83.30022 89.96625 95.37698 100.4739 105.88464 110.7002 114.94222 120.95896 126.3697 132.38643 137.20198 142.01753 145.62108 151.03182 157.04857 163.0653 167.30733 172.41507 177.8258 182.64136 192.30493 197.12049 206.13477 210.95032 215.19234 220.60308 225.41863 231.43537 236.25092 245.62232 251.63906 255.88108 261.59483 266.41038 271.22596 277.2427 283.25944 287.50148 292.31703 300.2275 305.63825 311.655 321.32939 326.7401 332.45387 341.81446 349.1947 358.209 363.01377 367.25578 372.6665 377.4821 383.4988 388.3144 397.68577 403.7025 408.51808 413.9288 420.24858 428.72178 436.68638 441.50196 446.9127 449.92106 454.1847 458.39427 462.63627 471.99687 476.8124 482.52616 486.73573 490.97776 493.9861 498.80168 506.72297 512.1337 518.15048 523.56118 529.5779 533.7874 538.6029">Allgovernance-approvedemergencyproceduresandanyEmergencyScopeRegistryentriesadopted</tspan></text>
<text xml:space="preserve" transform="matrix(1.003992 0 -0 .99602386 0 792)" font-size="10.952649" font-family="LMRoman10"><tspan y="-634.66458" x="71.71372 77.49672 86.916 95.513828 100.69443 106.170749 111.04468 115.33812 121.42779 126.90411 132.99379 137.86772 146.37793 152.4676 157.03487 163.12454 167.99848 174.08815 180.17783 183.22266 191.73288 197.2092 205.13893 213.73676 218.90642 224.39369 229.25667 233.55011 239.63979 242.68462 248.77429 257.8869 265.64137 271.42439 277.51405 286.93333 292.40968 297.28358 301.54417 304.57807 310.0544 319.78034 325.25669 331.34638 335.60694 341.08329 350.20683 355.68318 359.94377 362.9886 367.86253 373.33888 376.3837 379.42857 388.84785 393.72175 399.50477 405.59443 408.63929 412.9327 421.4429 425.39683 432.998 437.8719 443.66584 447.61976 453.40278 457.05003 460.40153 465.87788 471.96754 479.89726 484.15785 489.63417 495.1105 503.00736 512.1309 517.60726 523.3902 527.6508 533.7405">byGovernanceScheduleorGoverningBodyactionautomaticallyexpiretwenty-four(24)months</tspan></text>
<text xml:space="preserve" transform="matrix(1 0 -0 1 0 792)" font-size="10.9091" font-family="LMRoman10"><tspan y="-618.592" x="72 77.45455 80.79274 85.03638 89.89093 97.800029 103.25458 109.32004 115.3855 119.661869 124.82187 129.97097 135.4255 142.09098 148.15644 154.2219 157.25463 162.10918 166.40737 174.3492 179.20375 184.96376 191.02922 194.06195 197.09468 201.94924 204.98197 209.2256 212.25833 221.65108 225.92745 230.782 236.23654 239.26564 242.29474 245.32382 249.60019 258.68748 263.54203 273.2402 279.0002 288.40388 292.64753 298.71299 307.20027 315.7639 320.913 326.37846 331.233 335.49848 341.57484 344.60755 350.673 359.76029 367.48393 373.24394 379.3094 384.15306">afterapprovalunlessexplicitlyreaffirmedbytheGoverningBody.</tspan></text>
<text xml:space="preserve" transform="matrix(1.0099504 0 -0 .99014756 0 792)" font-size="11.017651" font-family="LMRoman10"><tspan y="-604.22109" x="71.290637 77.58171 83.09053 91.83855 97.03887 102.558719 108.06754 111.13045 117.256259 122.76509 128.8909 133.79376 143.1147 148.62352 156.42403 162.54984 168.05867 174.18448 180.31029 184.59615 192.28647 196.57234 202.69815 212.01909 219.52211 228.69982 233.60268 237.92159 243.43042 248.33329 254.45909 259.36195 269.59736 275.72315 280.626 286.13484 292.5581 301.89006 309.99906 314.9019 320.4107 323.4736 327.81459 332.10044 336.41938 346.6548 351.55763 357.38597 361.6718 365.99076 369.05369 373.9565 382.71556 388.84138 393.7442 396.8071 399.87004 405.99583 410.89869 421.44258 424.50547 430.6313 433.69419 436.7571 442.8829 452.21485 455.27778 465.82167 470.1075 476.23335 479.29624 488.0553 494.1811 499.99839 504.8902 511.027 520.2048 525.0966 530.925">Foravoidanceofdoubt,theEmergencyScopeRegistryentriesdefinedinlineinthisdocument</tspan></text>
<text xml:space="preserve" transform="matrix(.9949875 0 -0 1.0050378 0 792)" font-size="10.854417" font-family="LMRoman10"><tspan y="-581.7881" x="71.08029 75.30266 82.69452 86.30904 91.736248 97.16345 106.25945 110.48182 116.51688 120.771808 126.19901 132.23407 137.66129 147.35428 154.757 158.37152 163.79874 169.22595 174.65317 181.32863 184.34615 190.3812 195.21141 198.22893 204.26399 208.54064 211.55815 216.98537 221.81558 229.70674 235.13396 239.38889 247.8879 256.0287 262.06376 266.5792 272.6251 278.05229 284.08735 289.51454 294.34474 299.77195 305.80699 308.82453 317.31269 322.14289 327.5701 333.60514 337.88179 342.10417 345.12168 349.34407 355.3791 359.60148 362.619 368.0462 374.08125 379.50846 386.19477 392.2298 396.48475 401.608 407.33915 410.35667 414.63334 417.65086 423.07807 429.1131 437.05854 442.48576 448.52079 458.21379 463.64097 467.8959 476.3949 482.42994 487.85716 495.7483 500.02494 506.06 512.3989 515.7204 520.5506 525.38088 533.26119 537.4836">(E-001throughE-090,inclusive)areUnchangeableconstitutionalprovisionsandarenotsubjectto</tspan></text>
<text xml:space="preserve" transform="matrix(.9939819 0 -0 1.0060546 0 792)" font-size="10.843447" font-family="LMRoman10"><tspan y="-567.73159" x="72.43593 77.26126 82.9866 89.015567 92.030048 96.28067 101.70239 105.920497 108.934978 114.3567 124.05074 130.0797 136.10865 142.1376 146.96294 154.87866 159.09677 165.12574 168.14022 176.08846 180.3608 186.38974 192.4187 196.69103 201.51636 206.34169 210.5598 213.57428 218.996 225.02497 232.94068 240.76966 246.79862 249.8131 257.75053 262.02284 268.06263 274.09159 278.36393 283.18925 291.07246 296.49418 302.52314 308.5521 311.56657 314.58106 319.40638 327.34379 331.5619 340.6487 346.07044 351.18858 356.6103 361.4356 365.68626 371.71519 377.13694 383.1659 387.9912 392.81657 396.42744 401.84916 407.8781 413.90708 418.15769 423.2758 428.6975 433.52287 443.21693 448.04225 453.76759 457.9857 462.81105 468.84 473.1123 476.12678 481.54853 487.57749 491.8498 498.52937 503.95109 509.98005 516.0199 519.03439 523.25247 526.25607 531.6778 537.7176 541.98989">expirationunderthissubsection.Thissunsetappliestogovernance-approvedextensions,additions,</tspan></text>
<text xml:space="preserve" transform="matrix(1 0 -0 1 0 792)" font-size="10.9091" font-family="LMRoman10"><tspan y="-557.62" x="72 77.45455 85.36365 91.42911 95.705478 101.465488 106.32004 111.17459 117.24005 123.30551 127.58188 133.03643 139.70189 144.55644 147.58917 153.04372 159.41463 164.86917 169.14554 174.60009 178.84372 181.87645 187.331 193.39646 201.32738 206.78192 213.76375 218.6183 227.70558 232.56014 236.8365 242.29105 247.1456 253.21106 258.0656 267.45835 272.9129 278.97837 283.22203 289.28749 294.74205 299.0184 302.05113 305.98933 310.84388 317.5093 323.57478 329.02934 336.91664 341.16029 350.24757 354.4912 360.55668 369.04396 373.8985 379.35307 385.41853 389.7167 393.96037 396.99308 401.23674 407.3022 411.54585 414.57856 420.0331 426.09858 431.55314 438.2295 444.29496 449.7495 454.0477 458.90226 461.93498 464.96769 471.03315 475.8877">orproceduralelaborationsofemergencyauthority,nottotheconstitutionalbaseline.</tspan><tspan y="-537.296" x="72 80.0291 84.88365 90.3382 93.367298 96.396389 99.42548 103.70185 112.78913 118.24368 122.48732 125.52005 130.9746 140.67279 144.94916 149.80371 155.56372 161.62918 164.66191 168.93828 173.79283 178.09102">Reaffirmationrequires:</tspan></text>
<text xml:space="preserve" transform="matrix(1 0 -0 1 0 792)" font-size="10.9091" font-family="LMRoman10"><tspan y="-510.99504" x="72">&#x2022;</tspan></text>
<text xml:space="preserve" transform="matrix(1 0 -0 1 0 792)" font-size="10.9091" font-family="LMRoman10"><tspan y="-510.99504" x="85.94183 95.02911 99.30548 104.160037 109.01459 114.46914 118.74551 124.81097 129.66551 139.37462 144.82917 149.97826 155.43282 160.28737 164.56374 170.6292 176.08374 182.1492 187.00376 195.49105 200.9456 206.40015 210.64379">arecordedgovernancevote</tspan></text>
<text xml:space="preserve" transform="matrix(1 0 -0 1 0 792)" font-size="10.9091" font-family="LMRoman10"><tspan y="-488.67903" x="72">&#x2022;</tspan></text>
<text xml:space="preserve" transform="matrix(1 0 -0 1 0 792)" font-size="10.9091" font-family="LMRoman10"><tspan y="-488.67903" x="85.94183 90.79639 96.25094 102.3164 105.34913 108.38186 112.658229 121.74551 127.20006 131.4437 134.47643 139.93097 149.62917 153.8728 159.93827 165.3928 173.28009 177.52373 183.58919 192.07648 197.53102 203.59648 207.84012 213.90558 219.36013 223.63649 226.66922 230.6074 240.01107 244.28743 249.14199 258.22926 263.6838 266.71653 272.78199 280.7129 286.77836 291.6329 296.48747 301.342 305.6402 309.9384 315.39295 319.6693 329.06205 334.5166 340.58207 350.29118 356.35664 361.8112 366.08757 370.36393 375.51304 383.3894 386.42213 395.81486 400.11305 404.9676 410.42216 416.79307 421.6476">confirmationthattheauthorityremainsnecessaryandnarrowlyscoped</tspan></text>
<text xml:space="preserve" transform="matrix(1 0 -0 1 0 792)" font-size="10.9091" font-family="LMRoman10"><tspan y="-466.36204" x="72">&#x2022;</tspan></text>
<text xml:space="preserve" transform="matrix(1 0 -0 1 0 792)" font-size="10.9091" font-family="LMRoman10"><tspan y="-466.36204" x="85.94183 90.2182 95.072757 100.22185 105.6764 108.70913 111.74186 117.80732 123.26187 127.50551 130.53824 135.99279 145.70189 151.15644 159.06554 163.3419 168.19646 171.8292 176.68375 182.44376 186.6874 190.96376 200.3565 203.38924 213.09835 217.34198 223.40744 231.89473 239.32382 248.4111 253.26566 257.54203 262.99659 267.85115 273.9166 278.77116 288.16389 294.22935 299.0839 304.53846 310.90937 319.40757 327.43666 332.2803 337.73487 340.76759 345.07667 349.3203 353.5858">revalidationorre-entryintheEmergencyScopeRegistry</tspan></text>
<text xml:space="preserve" transform="matrix(.9899495 0 -0 1.0101526 0 792)" font-size="10.799458" font-family="LMRoman10"><tspan y="-435.63813" x="72.73098 80.679378 85.48514 90.884868 93.883518 96.882167 99.88081 104.114208 113.110149 118.50987 122.71087 125.71312 131.11284 140.42198 145.82172 152.44178 157.8415 163.5328 172.55036 178.55486 182.78824 187.87477 193.57689 196.57915 200.83412 203.83638 209.2361 218.55603 223.95577 229.96027 235.35999 241.36449 245.56548 250.37125 259.68037 265.38249 274.38923 281.74366 287.44578 291.64677 295.88014 301.27986 306.67958 310.91297 316.91746 319.9197 325.9242 331.32395 335.5573 344.56407 351.9185 356.15187 361.86479 366.6705 371.47627 375.73124 383.29087 391.98445 397.98896 402.24394 409.74955 412.75178 416.95277 421.20774 426.0135 429.01576 435.6358 441.33793 446.14366 450.9494 456.95393 464.4919 470.19404 479.20079 486.5552 492.25733 496.4583 500.69169 506.0914 511.49116 515.7245 521.729 524.7312 530.7357 536.13546 540.36886">ReaffirmationofanyprovisionadoptedbyExtraordinaryProcessmustitselfoccurbyExtraordinary</tspan></text>
<text xml:space="preserve" transform="matrix(1 0 -0 1 0 792)" font-size="10.9091" font-family="LMRoman10"><tspan y="-426.512" x="72 79.4291 83.70547 89.46548 94.32002 99.174579 103.47276 107.77095">Process.</tspan></text>
<text xml:space="preserve" transform="matrix(.9899495 0 -0 1.0101526 0 792)" font-size="10.799458" font-family="LMRoman10"><tspan y="-402.10557" x="72.73098 76.62958 82.82847 87.63423 96.63018 101.43594 105.66933 111.06905 115.87482 121.87932 126.68508 135.27065 140.67038 146.67488 150.87587 156.88037 162.28009 166.51349 169.51573 173.41434 182.01071 186.81647 192.51859 198.52309 201.52535 205.75873 210.56449 217.70293 223.70743 229.71193 237.41196 241.61295 249.90694 255.91144 261.31117 267.31568 270.9119 275.14527 279.95103 285.35075 288.3494 291.34806 294.3467 298.58009 307.57606 312.97578 317.17677 320.179 325.57875 331.58323 337.63093 343.03065 346.0329 351.9294 357.32914 362.12409 366.32508 369.3273 374.72706 380.73155 387.8808 396.57438 402.57887 406.83387 413.92909 419.9336 424.16697 429.86909 434.6748 439.48057 444.28633 453.18507 458.5848 464.5893 467.59156 476.1771 482.1816 488.1861 494.1906 498.99638 506.124 511.5237 515.7571 521.76156 524.7638 530.7683 536.168 540.4014">Ifemergencyauthorityexpiresduetonon-reaffirmation,allactionsmustproceedonlyunderordinary</tspan></text>
<text xml:space="preserve" transform="matrix(.9949875 0 -0 1.0050378 0 792)" font-size="10.854417" font-family="LMRoman10"><tspan y="-390.6709" x="72.36272 76.61765 82.04486 85.062389 89.89261 93.507129 97.78377 102.61399 108.04119 114.38017 119.210399 128.89253 134.31975 140.35482 144.57718 150.61223 156.03945 160.29438 163.31189 167.23033 176.5977 182.0249 188.05997 197.74211 203.16931 209.20438 215.23943 218.25696 221.27448 226.10469 231.5319 237.56696 240.58448 249.06177 252.07929 257.20259 265.03947 272.91978 281.06059 286.79173 296.16993 301.59715 306.42735 310.6497 313.66725 319.09443 328.77659 332.99894 338.42616 343.85334 348.68357 358.35484 362.5772 371.6515 377.68653 381.94148 386.7717 392.19889 397.02909 402.76023 410.62968 413.64723 422.68894 431.73066 434.7482 440.78324 445.61344 451.34458 459.20317 465.23823 470.6654 474.92036 487.60917 493.6442 499.67927 503.9342 506.95173 512.98678 522.06106 526.3377 532.37277 536.89907">role-scopedauthorityandapplicablelaw.Anyactiontakentopreventimminentharmduringsuch</tspan></text>
<text xml:space="preserve" transform="matrix(.9899495 0 -0 1.0101526 0 792)" font-size="10.799458" font-family="LMRoman10"><tspan y="-375.2799" x="72.73098 75.73323 81.13296 87.13746 91.39244 99.80522 108.49879 114.50328 118.75827 126.57708 132.88396 141.30753 144.29898 149.6987 155.09844 160.49816 165.30393 174.92624 180.32596 188.18798 197.2055 207.10861 212.50835 216.70934 221.51509 225.74849 228.75074 234.15047 240.75974 248.55695 253.3627 257.5637 260.56596 265.96568 275.57719 280.97694 286.9814 296.60374 305.2973 311.30183 315.5568 323.36479 329.6717 338.09526 344.09974 347.102 352.5017 357.30747 362.11323 371.72474 377.12446 386.74678 390.94776 396.95225 405.36503 410.76475 416.16447 420.9702 426.97474 432.97923 441.99678 447.39649 454.30815 458.50914 464.5136 472.93717 478.94169 483.74745 489.44956 497.25755 505.7351 510.83247 516.2322 521.02719 525.26058 531.2758 534.2673 540.28256">lapsemustbeloggedasaMaterialActionandmustbeplacedontheagendaofthenextGoverning</tspan></text>
<text xml:space="preserve" transform="matrix(1 0 -0 1 0 792)" font-size="10.9091" font-family="LMRoman10"><tspan y="-365.54" x="72 79.72364 85.48365 91.54911 100.94184 110.02912 114.88367 119.73822 123.98186 127.01459 133.08005 142.16733 145.50551 150.96006 158.88007 163.15644 168.01099 173.771 176.80373 181.65828 193.16739 198.62194 204.6874 214.38559 218.66196 223.51651 228.97106 232.00016 235.02925 238.05834 242.3347 251.42198 256.87654 261.12019 264.1529 269.60746 279.31657 285.38203 290.23658 295.09114 298.12385 302.42204 305.45475 310.9093 316.97477">Bodymeetingforreviewandreaffirmationdecision.</tspan><tspan y="-345.217" x="72 82.00365 88.06911 92.312747 97.767299 103.832759 106.865489 109.89822 112.93095 116.869129 122.62913 130.5164 138.69823 144.76369 149.31279 155.37825 160.8328 166.89826 172.3528 177.20735 182.6619 188.72736 191.76009">Mutability:Unchangeable</tspan></text>
<text xml:space="preserve" transform="matrix(1 0 -0 1 0 792)" font-size="11.9552" font-family="LMRoman12" font-weight="bold"><tspan y="-316.008" x="72 78.73078 82.47276">9.2</tspan></text>
<text xml:space="preserve" transform="matrix(1 0 -0 1 0 792)" font-size="11.9552" font-family="LMRoman12" font-weight="bold"><tspan y="-316.008" x="99.29373 109.013309 115.74409 122.83352 128.0699 131.81188 138.91327 146.38527 150.12725 154.99301 166.5776 176.36893 183.84093 189.0773 196.5493 203.28008 208.77947 212.52144 217.3872 228.9718 239.27719 246.74919 252.24858 255.99056 263.46257 274.67655 284.7787 292.25068 298.98146 304.48085 311.95283 327.65003 335.73176 342.46253 347.77064">ContinuityAuthorityDuringQuorumLoss</tspan></text>
<text xml:space="preserve" transform="matrix(1.0099504 0 -0 .99014756 0 792)" font-size="11.017651" font-family="LMRoman10"><tspan y="-298.35456" x="71.290637 75.268009 83.01342 87.299289 93.425098 102.69094 111.3398 116.55114 122.070987 126.97384 131.29276 137.41857 140.48148 146.60729 156.47911 164.2796 170.09693 176.22275 186.40305 189.46596 194.97478 199.58017 205.39749 214.10144 219.91875 226.04456 231.55339 235.87232 242.00914 255.54984 261.05867 267.18446 277.6843 282.02525 288.15107 292.75645 303.24525 306.30815 311.81697 316.1579 324.8729 331.29618 336.19905 340.51799 344.85893 347.92185 352.2628 356.54869 365.26365 371.68696 376.58979 382.10966 387.61845 393.74427 404.23307 408.57405 413.47688 418.9967 423.89958 434.39939 438.68528 444.1941 452.84297 457.7458 463.2546 469.38044 473.72138 478.62425 483.52708 489.6529 493.93876 497.00169 502.5215 511.7984 517.9242 523.1246 528.94186 533.2828">IftheGoverningBodylacksquorumandsuchlosspersistsbeyondseven(7)consecutivedays,</tspan><tspan y="-284.6697" x="71.290637 80.85396 85.139827 90.03166 99.209369 105.64368 111.152507 115.47142 120.980258 125.29917 135.15996 143.11472 148.62354 154.45189 158.73775 161.80065 167.629 173.7548 176.81772 180.8061 190.6669 198.63266 204.75847 209.04433 215.17015 220.67897 224.9979 228.0608 232.0492 241.90998 244.97289 253.36833 258.87718 265.003 269.28886 274.79768 283.97538 289.48417 293.77006 296.83296 301.7358 307.24464 310.30754 313.37043 323.23124 328.74006 333.64289 337.92878 340.99168 346.21406 351.72288 356.00877 360.9116 371.0809 374.45228 379.9611 388.33454 392.6204 398.74623 407.69255 412.0335 417.54234 420.60523 429.56257 435.6884 441.8142 446.13313 452.55644 458.06526 462.40623 471.36357 476.87239 484.28724 490.41307 494.732 499.63484 505.15467 510.05757 515.8859 520.17178 523.2347 529.3605">atemporaryContinuityAuthorityisautomaticallyactivatedforthesolepurposeofpreventing</tspan></text>
<text xml:space="preserve" transform="matrix(1 0 -0 1 0 792)" font-size="10.9091" font-family="LMRoman10"><tspan y="-268.316" x="72 75.03273 84.12001 93.20729 96.24002 102.30548 107.160037 112.92004 120.80731 126.87277 132.32732 136.60369 145.69097 152.35643 161.44371 166.89826 169.93099 175.691 179.93463 185.38918 188.4219 194.48737 197.5201 203.58556 212.68375 215.70557 220.56012 226.01467 231.46921 238.14559 243.00014 248.45468 257.54197 263.60743 266.64015 269.67286 275.1274 281.19288 286.04743 290.90199 297.5674 303.02198 309.08744 318.7856 324.85108 329.12745 333.982 338.28019 343.13475 347.4111 353.1711 356.20384 362.2693 371.3675 376.82206 382.8875 385.92024 395.0075 400.46208 407.1275 414.69844 419.55299 422.5857 425.9239 431.37846 435.65483 440.50938">imminentharm,maintaininglegalcompliance,andpreservinganimalwelfare.</tspan><tspan y="-247.992" x="72 79.87637 85.330928 91.09093 95.334568 98.367298 104.13821 110.20367 113.2364 117.174579 126.56731 134.44368 140.50914 144.75278 150.81824 156.27278 160.54915 163.58188 167.53098 176.92372 179.95645 187.88738 192.74193 198.50194 203.35649 207.63286 212.48741 215.52014 219.81833 224.67288 234.37108 240.142 249.53475 253.77838 259.84385 268.33113 271.6693 277.12388 280.1566 283.1893 288.3493 296.22569 299.2584 305.32386 314.41114 320.78205 325.6366 329.91297 334.21116 339.6657 345.73118 350.02937 356.6948 359.7275 369.4257 374.88026 379.15663 385.23298 390.07664 397.99665 403.4512 410.42213 416.48759 420.76396 423.79667 429.25123 433.5276 436.5603 440.4985 446.2585">ContinuityAuthorityisexercisedbythefollowingpersons,inorderofpriority:</tspan></text>
<text xml:space="preserve" transform="matrix(1 0 -0 1 0 792)" font-size="10.9091" font-family="LMRoman10"><tspan y="-221.69101" x="72 77.45455">1.</tspan></text>
<text xml:space="preserve" transform="matrix(1.0099504 0 -0 .99014756 0 792)" font-size="11.017651" font-family="LMRoman10"><tspan y="-223.89694" x="85.0923 89.37817 95.50398 105.37579 112.87882 118.696147 123.59899 128.50185 134.62766 138.91352 141.97643 147.49626 157.36809 165.78559 168.84848 173.1674 178.07027 182.97313 187.25899 192.7678 202.0557 206.34156 211.85039 221.13826 226.04113 231.85843 237.98424 241.04715 246.26952 251.77834 254.84125 259.74409 265.57243 274.82725 279.1682 284.07106 290.19688 293.25978 298.7686 308.0565 312.95933 318.77668 323.6795 328.58235 334.70817 338.99406 342.05696 347.57679 352.47966 356.7655 365.13893 368.2018 376.54219 382.051 388.1768 398.0486 402.95146 408.76878 411.8317 416.17265 420.45854 429.77949 435.28828 441.4141 452.50889 455.57179 464.88169 471.0075 476.51634 485.77116 490.11213 496.23796 502.67225 506.0436 510.94648 515.84939 525.1042 529.39">theExecutiveDirector(orequivalentseniorexecutive),ifoneexistsandisnotsubjectto</tspan></text>
<text xml:space="preserve" transform="matrix(1 0 -0 1 0 792)" font-size="10.9091" font-family="LMRoman10"><tspan y="-208.142" x="85.939 90.23719 96.30265 100.60084 106.971759 111.82631 117.89177 122.18996 125.22269 130.67723 136.74269 143.40816 147.68453 152.53908 161.62636 166.78636 171.93546 177.39 184.05547 190.12093 194.3973 200.15729 205.01184 209.8664 214.72095 220.7864 223.81914 229.8846 235.33914 239.63733 246.3028 251.75734 259.67735 267.5537 271.83009 276.68464 282.7501 285.7828 291.84828 294.88099 303.36827 307.30644 316.3937 322.45918 327.91374 330.94645 335.2228 344.3101 349.16465 354.92466 359.1683">suspension,removalproceedings,orCredibleImpairment;</tspan></text>
<text xml:space="preserve" transform="matrix(1 0 -0 1 0 792)" font-size="10.9091" font-family="LMRoman10"><tspan y="-185.826" x="72 77.45455">2.</tspan></text>
<text xml:space="preserve" transform="matrix(1 0 -0 1 0 792)" font-size="10.9091" font-family="LMRoman10"><tspan y="-185.826" x="85.94183 90.18547 96.25093 104.73821 110.80367 115.04731 119.901859 127.48368 132.93824 137.20369 146.9128 151.15644 156.61098 164.5419 170.60736 175.46192 178.49465 181.52738 187.59284 192.44739 202.1565 205.18923 214.88742 220.95288 225.80744 230.66199 234.90563 237.93836 243.3929">theSteward(asdefinedinSection</tspan></text>
<text xml:space="preserve" transform="matrix(1 0 -0 1 0 792)" font-size="10.9091" font-family="LMRoman10"><tspan y="-185.826" x="253.0911 258.54566 261.57838">4.4</tspan></text>
<text xml:space="preserve" transform="matrix(1 0 -0 1 0 792)" font-size="10.9091" font-family="LMRoman10"><tspan y="-185.826" x="267.03294 271.27659 277.95295 280.98567 287.95658 294.02204 303.1093 307.96388 310.99659 314.0293 319.48387 322.51658 328.58204 331.61476 340.11296 347.54206 353.30207 358.15663 363.01118 369.07664 373.32029 376.353 381.80757 390.29484 398.6294 401.6621 405.93849 410.79304 415.64759 419.89125 425.3458 433.25489 438.10945 443.86946 446.90217 451.20036 455.444 459.7422">),ifnoeligibleExecutiveDirectorexists;</tspan></text>
<text xml:space="preserve" transform="matrix(1 0 -0 1 0 792)" font-size="10.9091" font-family="LMRoman10"><tspan y="-163.509" x="72 77.45455">3.</tspan></text>
<text xml:space="preserve" transform="matrix(.9899495 0 -0 1.0101526 0 792)" font-size="10.799458" font-family="LMRoman10"><tspan y="-161.86565" x="86.81149 89.81374 99.24168 103.442668 109.44717 117.66556 123.065288 129.0698 133.33557 138.13054 144.14585 148.9408 157.16999 162.56972 169.29778 175.60468 181.0044 185.20539 191.20989 197.68956 201.89055 207.89505 216.11344 220.34683 225.15259 234.14853 239.54827 242.5505 248.55501 251.55727 257.56178 266.3849 274.86247 279.9598 285.34877 290.15449 294.38786 300.39237 303.39463 309.3991 318.22227 325.8683 331.5704 337.5749 346.70045 355.69639 360.50215 369.1957 375.5026 380.30836 384.54173 392.22013 397.61985 402.4256 406.62657 409.6288 415.6333 424.44569 429.2514 434.65116 437.65339 440.65565 445.4614 450.26713 454.4681 457.47038 462.8701 467.67585 470.67808 479.79283 485.49494 494.62046 500.62498 506.62947 512.0292 518.0337 521.0359 530.0318 535.4315 541.43606">intheabsenceofboth,theremainingGoverningBodymembersactingcollectivelybyunanimous</tspan></text>
<text xml:space="preserve" transform="matrix(1 0 -0 1 0 792)" font-size="10.9091" font-family="LMRoman10"><tspan y="-149.96" x="85.939 91.393558 96.84811 101.12447 105.97902 110.83357 119.92085 124.775409 130.53542 138.41179 143.86634 150.84816 155.0918 161.15726 166.6118 170.90999 179.39728 185.46274 189.7391 194.59366 198.89185 203.7464 209.50641 213.75005 220.42642 224.72461 230.17916 233.21189 238.06644 241.09917 250.49192 253.8301 259.28465 267.19374 272.6483 277.50285 281.7465 284.7792 290.23377 296.29924 304.24107 310.30653 316.37199 322.43745 327.292 335.20109 339.44474 345.5102 348.5429 356.48475 360.78294 366.8484 372.91386 377.21205 382.0666 386.92115 391.1648 394.1975 399.65208 405.71754">agreementofthosepresent,solelyforactionsunderthissubsection.</tspan></text>
<text xml:space="preserve" transform="matrix(1.0004999 0 -0 .9995003 0 792)" font-size="10.914554" font-family="LMRoman10"><tspan y="-123.720829" x="71.96403 78.185329 83.6426 91.53383 97.60232 103.670818 107.94932 114.323429 119.7807 124.08104 128.938 136.86199 142.31926 149.27182 153.51758 159.58606 162.62032 170.54428 174.84462 180.91312 186.98162 191.28195 196.13893 200.99591 205.24167 208.27591 213.73319 219.8017 226.45958 230.54163 235.3986 241.16149 247.22997 250.26422 255.4159 260.87318 263.9074 268.7644 274.5382 282.39674 286.69706 291.55406 297.62254 300.65678 306.11405 314.0162 318.87318 324.63609 329.48213 334.3391 340.4076 344.65339 347.68763 353.15586 358.01283 365.70759 374.7994 379.6564 385.11366 391.18217 399.10615 403.3519 409.4204 417.8901 423.95863 426.99287 432.45014 438.51863 443.3756 447.67594 451.92173 455.55625 459.83476 465.29203 471.3605 477.1234 480.15766 486.22618 495.30708 501.37559 506.83283 509.8671 519.5592 523.85958 528.1053 533.56259 536.74417">Forpurposesofthissubsection,"equivalentseniorexecutive"meansthehighest-rankingpaidstaff</tspan></text>
<text xml:space="preserve" transform="matrix(.9899495 0 -0 1.0101526 0 792)" font-size="10.799458" font-family="LMRoman10"><tspan y="-109.00234" x="72.73098 76.96436 82.3641 85.36635 93.68193 99.68643 104.492198 108.74718 111.74943 117.149158 123.153659 128.55339 132.75438 137.56014 147.07447 150.0767 159.59104 167.38825 171.62163 174.61307 178.81406 181.81632 187.83162 196.73036 202.43248 211.64443 215.84542 221.84992 230.1655 238.64307 243.7296 249.12934 253.93509 258.1685 264.17298 267.1752 273.17973 282.08927 289.7353 295.4374 301.44194 310.65385 313.6561 323.1704 328.57017 334.57466 339.6612 345.06095 351.06544 355.8712 364.18675 369.5865 375.59098 385.10533 389.33869 394.1444 398.95018 404.34989 408.58329 414.58778 419.39353 428.90785 431.9101 441.4244 445.6254 451.62989 459.94548 465.34519 470.43174 475.83149 480.6372 484.8706 490.8751 496.2748 502.27934 507.08506 515.40066 519.63406 524.43978 529.24557 534.64529 538.86788 544.8832">roledesignatedinwritingbytheGoverningBodyinadvanceandrecordedinthegovernancerecord.</tspan></text>
<text xml:space="preserve" transform="matrix(1.0099504 0 -0 .99014756 0 792)" font-size="11.017651" font-family="LMRoman10"><tspan y="-97.52082" x="70.08067 74.20127 82.31027 87.21312 96.39082 101.60217 106.81352 112.32235 119.56095 125.68676 130.00568 135.81198 140.71485 145.61769 150.52056 156.64638 159.70928 165.8351 171.34392 175.68488 183.98117 190.40447 195.30731 200.81615 203.87906 214.18056 219.68939 225.8152 228.87812 238.86009 244.98592 251.42023 256.92906 267.21955 270.28245 274.6234 278.96437 285.09019 290.599 296.72483 301.62767 310.7062 316.21504 323.76213 333.4356 341.39036 345.7093 348.7722 353.05809 357.34397 362.2468 372.5483 380.6573 385.56013 394.73783 399.94917 405.16053 410.66935 417.90794 426.17118 431.68 435.96586 439.02879 443.9316 452.99916 456.06205 461.57087 467.07969 472.5885 477.49134 487.79286 493.91868 500.04447 506.1703 511.07313 519.5677 523.8536 529.9794">"Removalproceedings"beginonlyuponissuanceofawrittenRemovalNoticeloggedunderthe</tspan></text>
<text xml:space="preserve" transform="matrix(1 0 -0 1 0 792)" font-size="10.9091" font-family="LMRoman10"><tspan y="-83.011" x="72 80.0291 84.88365 89.738208 95.19276 99.469127 105.534587 110.38913 120.08732 128.42188 133.27643 138.13098 141.16371 145.4619 148.49463 153.94918 163.65828 170.78192 176.23647 180.4801 186.24011 193.81104 198.97104 203.81468">RecordedDecisionPathway.</tspan></text>
<text xml:space="preserve" transform="matrix(1 0 -0 1 0 792)" font-size="10.9091" font-family="LMRoman10"><tspan y="-42.112005" x="300.54499 305.99955">34</tspan></text>
</svg>
