<svg xmlns="http://www.w3.org/2000/svg" xmlns:xlink="http://www.w3.org/1999/xlink" xmlns:inkscape="http://www.inkscape.org/namespaces/inkscape" version="1.1" width="612" height="792" viewBox="0 0 612 792">
<text xml:space="preserve" transform="matrix(1 0 -0 1 0 792)" font-size="10.9091" font-family="LMRoman10"><tspan y="-709.041" x="71.607 79.483379 85.548839 94.04702 97.07975 102.83975 107.08339 111.93794 118.0034 124.06886 128.92342 138.63253 147.7198 153.17435 157.41799 163.48345 167.75981 170.79254 174.74164 184.1453 188.44348 192.68712 198.14167 202.3853 210.8835 213.91623 221.85807 227.92353 233.37807 241.26535 250.35263 255.80718 261.56718 264.59989 273.3817 279.44718 292.1781 296.4763 301.33085 306.7854 309.8181 314.67268 322.57084 326.509 334.3963 337.42903 345.37086 354.47996 358.77815 363.0218 368.47636 374.5418 377.57453 386.07273 390.92729 395.17094 401.2364 404.2691 409.11277 414.56733 421.24369 426.09825 431.85826 437.9237 440.95643 443.98915 447.02186 453.0873 457.36369 460.3964 466.46186 475.54914 483.4473 492.5455 498.61097 501.64369 507.09825 511.9528 520.4509 524.6946 530.76 536.21456">Theintendedmaturitystateisnotmaximumscale.Itisastableethicalequilibrium:aplacethat</tspan><tspan y="-695.492" x="72 76.85455 82.309108 92.00729 97.461849 103.83276 108.68732 112.963687 118.418239 122.66187 131.14916 134.48734 139.94188 147.8619 153.92736 158.7819 163.63646 169.091 175.15647 180.01102 187.94194 195.81832 198.85105 203.09468 209.16014 214.61469 220.68015 228.55652 237.6438 240.67653 244.97472 249.28382 252.30564 257.7602 267.4693 273.53477 277.81114 280.84385 284.18205 288.4257 295.09114 299.94569 305.40025 311.4657 315.70936 321.7748 326.05119 330.90574 337.57118 343.02574 350.94575 357.0112 361.86576 367.3203 371.59669 377.05125 383.1167 388.57127 392.8149 395.84764 401.3022 411.00038 416.45494 423.43678 428.28044 433.735 438.01136 446.50956 450.80775 455.0514 460.50596 466.5714 472.63688 478.09144 482.3678 488.43327 492.73146">canoperatefordecadeswithoutmissiondrift,capture,ordegradationofcarestandards.</tspan></text>
<text xml:space="preserve" transform="matrix(1 0 -0 1 0 792)" font-size="11.9552" font-family="LMRoman12" font-weight="bold"><tspan y="-666.283" x="72 78.73078 82.47276">4.1</tspan></text>
<text xml:space="preserve" transform="matrix(1 0 -0 1 0 792)" font-size="11.9552" font-family="LMRoman12" font-weight="bold"><tspan y="-666.283" x="99.29373 108.6427 116.1147 126.73092 132.23032 135.97229 143.44429 154.65827 165.87224 172.97362 180.44562 186.57863 194.8038 200.04018 206.01778 212.74855 220.22055 226.35356 231.85295 237.98596 245.45796 251.43556 262.0518 271.77137 275.51335 280.74974 288.22175 294.9525 302.4245 312.1441 317.4522 324.9242 330.42359 336.59248 346.31205 350.05403">Theringmodel(coherencewithoutsprawl)</tspan></text>
<text xml:space="preserve" transform="matrix(1 0 -0 1 0 792)" font-size="10.9091" font-family="LMRoman10"><tspan y="-645.69" x="71.607 78.57792 87.6652 93.11974 97.97429 102.82884 112.53794 116.83613 121.690677 127.145229 133.50522 142.00342 146.85797 152.31252 158.37798 163.23253 167.5089 172.36345 178.12346 182.3671 189.03256 193.2762 199.34166 207.82895 210.86168 216.6326 220.87624 225.73079 231.79625 237.86171 242.71627 252.41446 257.269 263.33448 273.03266 277.33085 281.5745 287.02906 291.2727 299.7709 302.80363 310.73454 316.1891 320.46546 325.92 331.37458 337.44004 340.47276 345.3273 350.18186 359.88005 362.91276 368.68367 372.9273 382.0146 386.86915 392.3237 398.38917 403.2437 408.09828 413.85829 418.10194 422.3783 425.411 433.8983 436.931 442.091 447.54557 452.40013 456.67649 460.97468">Tokeepscopecoherent,theintendedendstateisorganizedintoconcentriclayers:</tspan></text>
<text xml:space="preserve" transform="matrix(1 0 -0 1 0 792)" font-size="10.9091" font-family="LMRoman10" font-weight="bold"><tspan y="-616.879" x="72 78.272739 81.75274 88.025478 91.50548">4.1.1</tspan></text>
<text xml:space="preserve" transform="matrix(1 0 -0 1 0 792)" font-size="10.9091" font-family="LMRoman10" font-weight="bold"><tspan y="-616.879" x="107.192768 116.607318 120.08732 127.058238 137.50916 143.78189 152.83644 164.74918 168.22917 173.1819 178.13463 181.61463 187.88736 199.04737 208.11283 214.38556 219.55648 229.48377 234.36014 242.9347 248.1056 251.5856 262.03654 268.1347 273.3056 278.88017 286.53837 293.50929 299.782 306.75294 310.93113 317.90205 323.65113 329.92387 336.1966 341.07298 344.56388 350.66206 357.63298 361.11299 366.86207">Ring1:MissionCore(Primary,non-negotiable)</tspan></text>
<text xml:space="preserve" transform="matrix(1 0 -0 1 0 792)" font-size="10.9091" font-family="LMRoman10"><tspan y="-596.28707" x="71.607 79.483379 85.548839 94.03611 103.12339 106.15612 110.45431 114.752498 117.785228 123.23978 132.94889 137.80344 143.25798 147.53435 156.02164 159.05437 166.98529 171.22893 177.29439 185.79259 188.82532 194.89078 199.18897 203.4326 206.46533 210.70897 216.77443 221.01807 224.0508 229.50534 235.5708 238.60353 246.53446 250.81082 255.66538 261.11994 265.41813 270.87269 280.5818 283.91999 289.37455 297.28364 302.13819 307.8982 310.9309 315.2291 319.47276 324.3273 330.39277 335.2473 340.10188">Themissioncoreistheinstitution&#x2019;sreasonforexistence:</tspan></text>
<text xml:space="preserve" transform="matrix(1 0 -0 1 0 792)" font-size="10.9091" font-family="LMRoman10"><tspan y="-569.98507" x="72">&#x2022;</tspan></text>
<text xml:space="preserve" transform="matrix(.9899495 0 -0 1.0101526 0 792)" font-size="10.799458" font-family="LMRoman10"><tspan y="-564.2563" x="86.81251 95.506069 102.99009 108.38982 112.62321 115.62546 121.62996 125.23697 130.03192 133.03418 138.4339 142.68889 150.2377 156.2422 161.64194 170.3355 174.59049 179.9902 185.9947 190.80046 195.00147 201.00595 206.40569 210.63907 219.63503 222.93965 228.33939 235.86661 241.87111 247.27085 252.67057 260.2194 268.0166 274.0211 282.71467 290.20948 295.60923 301.6137 304.61598 313.9143 319.31404 323.515 329.5195 334.32527 338.54786 346.35585 349.3473 353.61308 361.70185 368.01954 376.1191 380.91407 386.92936 391.13035 397.13484 402.53459 408.53907 411.54133 416.34709 421.1528 430.44035 435.84007 443.36729 446.36955 451.76927 456.2726 465.2686 470.9707 473.97297 479.37269 485.37718 488.37944 496.4682 502.4835 505.48576 510.88548 515.6804 520.48617 529.4821 534.28787 539.99 544.191">aworld-classdogsanctuaryfordogswhowouldotherwisebeeuthanizedorlackviableplacement,</tspan></text>
<text xml:space="preserve" transform="matrix(1 0 -0 1 0 792)" font-size="10.9091" font-family="LMRoman10"><tspan y="-547.669" x="72">&#x2022;</tspan></text>
<text xml:space="preserve" transform="matrix(1 0 -0 1 0 792)" font-size="10.9091" font-family="LMRoman10"><tspan y="-547.669" x="85.94183 95.02911 99.30548 104.160037 108.45822 113.312778 119.378238 127.87643 130.90915 136.66916 140.9128 146.36734 151.8219 160.30919 165.76374 171.8292 181.5383 186.99285 193.0583 198.51285 204.57831 208.82195 211.85468 217.30922 227.00742 231.86197 236.71652 242.47653 246.72017 251.57472 259.49473 265.56019 270.41474 274.71293 277.74565 283.2002 289.26567 294.1202 303.8184 307.1566 312.61116 320.52024 326.5857 329.6184 335.07298 344.78208 352.353 357.20756 360.24028 363.57847 369.03303 373.3094 381.79667 387.25123 393.31669 403.0258 406.0585 411.2076 419.08399 422.7167 427.0149 431.25856 435.5349 440.38948 444.68766 452.61857 456.8622 461.13859 466.59315 472.6586 476.9568 479.9895 484.23316 487.26588 492.72044 498.7859 503.08409">arescueintakeandadoptioncenterdesignedforhighwelfareandlow-stresstransitions,</tspan></text>
<text xml:space="preserve" transform="matrix(1 0 -0 1 0 792)" font-size="10.9091" font-family="LMRoman10"><tspan y="-525.353" x="72">&#x2022;</tspan></text>
<text xml:space="preserve" transform="matrix(1 0 -0 1 0 792)" font-size="10.9091" font-family="LMRoman10"><tspan y="-525.353" x="85.94183 95.02911 100.49457 105.34912 109.59276 114.4364 118.71277 121.7455 127.81096 133.2655 137.54187 146.94553 151.80008 154.83281 157.86554 163.931 166.96373 175.45102 180.30558 185.76012 191.82558 197.28012 203.34558 206.37831 214.8656 220.32015 227.30197 231.60016 237.66562 243.73108 250.10199 255.55654 259.8329 264.07655 267.10926 273.1747 282.262 286.50566 292.5711 301.05839 304.0911 310.15657 314.45475 318.6984 321.7311 325.97477 332.04023 336.28388 339.3166 344.77116 350.8366 353.86933 361.81117 366.6657 372.12028 376.39665 384.8839 390.33848 396.40394 399.43666 402.46937 407.92393 413.37849 417.62214 420.65486 426.1094 432.17488 436.47306">aveterinarycliniccapableofsupportingtheinstitution&#x2019;scareobligations,</tspan></text>
<text xml:space="preserve" transform="matrix(1 0 -0 1 0 792)" font-size="10.9091" font-family="LMRoman10"><tspan y="-503.03605" x="72">&#x2022;</tspan></text>
<text xml:space="preserve" transform="matrix(.99849888 0 -0 1.0015034 0 792)" font-size="10.892724" font-family="LMRoman10"><tspan y="-502.28096" x="86.069217 95.164638 100.611 104.88094 110.6323 116.07866 125.152309 128.18048 134.23683 143.33226 148.77861 154.83496 164.54038 169.38764 174.834 180.28037 184.51763 188.1449 192.99216 198.43852 202.70847 211.20479 216.65116 223.0016 227.84886 232.1188 237.56516 241.80243 244.83061 250.27698 259.9824 264.2741 270.33049 276.38685 282.7482 288.19456 292.4645 296.70176 299.72993 305.7863 314.8817 322.44126 327.28855 330.3167 333.64988 339.09623 343.36619 351.86253 357.30888 363.36524 373.07066 377.9179 383.36427 389.11564 393.3529 397.62287 400.65104 406.7074 412.76377 417.001 420.02919 426.08555 435.18095 439.4182 448.5136 453.95997 460.32133 465.16859 469.43855 474.8849 479.12217 482.15034 487.59669 493.65306 499.0994 505.7766 510.06834 516.1247 520.4164 524.6536 530.1 533.1282 539.1845">agroomingandcoat-careoperationsupportingwelfareandcontributingtooperationalsustain-</tspan></text>
<text xml:space="preserve" transform="matrix(1 0 -0 1 0 792)" font-size="10.9091" font-family="LMRoman10"><tspan y="-489.487" x="85.94 91.394557 97.460018 100.492748 103.525478 106.558208 110.49638 115.35093">ability.</tspan></text>
<text xml:space="preserve" transform="matrix(.9969955 0 -0 1.0030136 0 792)" font-size="10.876323" font-family="LMRoman10"><tspan y="-461.7943" x="71.659297 82.84016 88.8874 93.72736 97.99088 106.47441 109.49803 118.558017 124.60525 127.62887 132.46883 141.52881 146.36878 152.11148 156.34238 161.18235 167.22957 173.90763 179.3458 185.39304 191.44026 194.46389 198.69478 201.71839 207.15656 213.2038 218.64196 225.32 229.60529 235.04346 241.09069 245.93065 250.16156 256.2088 261.64695 265.91047 268.93406 273.77403 281.70286 285.93376 290.7737 293.7973 299.23548 302.25907 308.93714 314.98435 320.4225 326.46974 331.90788 336.74784 342.4905 350.43025 355.86839 361.9156 371.60639 377.04457 382.4827 387.92088 392.15174 396.437 404.32234 409.7605 414.024 422.50755 426.79283 431.63276 437.67997 443.11814 447.38163 452.8198 457.05067 465.54508 473.09324 477.93318 480.9568 484.28495 489.72309 493.9866 502.47013 508.51734 513.9555 523.0155 528.4537 531.4773 537.5245">Whereimplemented,additionalsanctuaries(e.g.,donkeysandgoats)areseparatewelfaredomains</tspan></text>
<text xml:space="preserve" transform="matrix(1 0 -0 1 0 792)" font-size="10.9091" font-family="LMRoman10"><tspan y="-449.636" x="71.607 79.483379 82.516109 86.75974 96.45793 100.75612 105.61067 111.67613 117.130687 121.40705 126.8616 131.10524 139.60344 143.90163 149.35617 152.69435 157.5489 161.48709 170.87984 176.33438 182.39984 192.10895 198.17441 201.20714 206.66168 212.72714 215.75988 219.69806 229.0908 233.94536 239.3999 245.46537 249.76355 254.00719 258.28358 263.73814 266.77085 272.54176 276.7854 284.7163 290.17088 296.23634 305.9345 314.72724 320.7927 325.09089 332.96726 339.0327 344.48728 352.36366 357.2182 362.67277 371.76005 377.8255 382.10188 387.55644 396.6437 399.67643 403.9746 412.4728 416.71647 422.78193 431.2692 437.33467 442.7892 451.8765 460.96379 463.9965 468.29469 472.59288 475.62559 481.08015 487.1456">withseparatesafetyanddignityconstraintsandmustnotcompromisethedogmission.</tspan></text>
<text xml:space="preserve" transform="matrix(1 0 -0 1 0 792)" font-size="10.9091" font-family="LMRoman10" font-weight="bold"><tspan y="-420.826" x="72 78.272739 81.75274 88.025478 91.50548">4.1.2</tspan></text>
<text xml:space="preserve" transform="matrix(.9939819 0 -0 1.0060546 0 792)" font-size="10.843447" font-family="LMRoman10" font-weight="bold"><tspan y="-418.29338" x="107.84602 117.203929 120.66298 127.59194 138.02335 144.25833 153.3126 162.87653 169.11151 175.3465 179.49954 183.30559 189.54058 194.68036 203.34427 209.40576 214.54555 225.67093 231.38542 237.96739 245.24335 250.95784 256.09764 259.5567 265.2712 272.20018 277.74119 287.6521 291.11116 296.82563 303.04978 308.76426 318.1005 322.94749 332.3054 338.0199 344.08137 347.5404 355.1959 362.12486 369.05384 378.09727 383.63829 389.87324 396.80223 401.72514 406.57215 410.0312 414.8782 421.8072 426.65419 430.11326 436.3482 443.2772 449.33866 452.7977 456.25675 467.02427 471.9472 478.8762 486.163 492.39796 497.53776 504.4667 507.92576 514.85476 520.9162 525.76327 531.4778 538.40676">Ring2:Dog-forwardexperiencelayer(Real,butconstitutionallysubordinated)</tspan></text>
<text xml:space="preserve" transform="matrix(1.0099504 0 -0 .99014756 0 792)" font-size="11.017651" font-family="LMRoman10"><tspan y="-404.2155" x="71.290637 79.55387 84.45672 96.443927 104.86141 110.37023 115.87907 121.38789 126.29074 130.60967 133.67258 139.18141 145.30722 155.4655 158.51738 166.89081 169.95372 175.78206 180.06792 184.97078 191.09659 197.22241 202.12526 212.28354 216.5694 226.11069 229.1736 235.29941 240.20227 243.26519 249.39099 255.5168 264.4411 273.98237 280.1082 285.61698 291.1258 294.79469 298.16609 303.6749 307.9938 315.6511 321.15989 325.47883 335.6371 339.00849 344.5173 348.8362 353.73908 358.08006 362.3659 366.0348 370.35374 375.25657 379.59754 385.10633 389.42527 397.7436 401.115 406.6238 410.94273 424.14189 430.57618 435.479 440.38188 445.89067 452.01649 456.35746 465.29273 469.5786 475.70445 484.62873 489.53157 495.34889 501.78318 506.675 510.9939 514.0568 518.9597 525.0855 529.9884">NewDoggerlandisintendedtoincludeadog-forwardforest-resortformbecausetheexperience</tspan></text>
<text xml:space="preserve" transform="matrix(1.0094553 0 -0 .9906332 0 792)" font-size="11.012249" font-family="LMRoman10"><tspan y="-390.34028" x="71.3256 74.38701 78.67078 83.009609 87.91005 90.97146 97.931209 107.10441 112.61054 116.89431 121.17808 126.07852 130.39533 134.73416 142.5969 146.91371 151.81417 156.15299 160.43675 165.94287 170.25968 175.7658 180.04956 183.11096 188.6281 197.11855 202.019 207.83347 212.7229 218.53737 221.59877 225.94863 230.23238 235.12183 241.25566 246.1451 251.04555 257.70796 261.0777 266.2865 271.198 277.8604 282.76084 288.26698 291.3284 300.50163 307.153 312.65916 318.78196 328.50575 337.60188 343.72468 346.78608 352.2922 358.415 361.47645 364.53785 367.59925 372.49967 382.22349 387.1239 392.9494 398.76387 401.81428 406.13105 411.6372 417.771 426.9332 431.83366 437.65913 445.54389 453.49476 459.61756 464.51799 468.83479 477.3252 480.69496 486.20109 495.3743 498.43574 501.49714 504.55857 509.45899 517.3988 522.9049 529.0278">itselfmatters:restorativecoexistence,joy,calm,andadignifiedenvironmentwherefamiliesand</tspan></text>
<text xml:space="preserve" transform="matrix(1 0 -0 1 0 792)" font-size="10.9091" font-family="LMRoman10"><tspan y="-373.135" x="72 78.06546 83.52001 88.97456 96.90548 101.760028 107.21458 116.923679 119.956409 122.989139 128.4437 136.93099 141.17462 146.62917 152.08371 156.93827 161.1819 167.24736 172.10192 180.01102 184.32012 189.77466 193.11284 197.96739 200.98921 210.39287 213.73105 219.1856 227.0947 236.19289 240.43653 243.45835 252.54563 257.40019">dogscanlivetogethersafelyforatime.</tspan></text>
<text xml:space="preserve" transform="matrix(.9949875 0 -0 1.0050378 0 792)" font-size="10.854417" font-family="LMRoman10"><tspan y="-351.04255" x="71.96774 79.804637 85.83969 88.857219 96.78094 99.79847 104.92175 110.34897 115.179187 123.0812 126.098728">Thislayeris</tspan></text>
<text xml:space="preserve" transform="matrix(.9949875 0 -0 1.0050378 0 792)" font-size="10.854417" font-family="LMRoman10" font-weight="bold"><tspan y="-351.04255" x="134.02246 140.95842 147.1997">not</tspan></text>
<text xml:space="preserve" transform="matrix(.9949875 0 -0 1.0050378 0 792)" font-size="10.854417" font-family="LMRoman10"><tspan y="-351.04255" x="155.69872 161.12593 170.80808 175.63828 181.67334 191.35549 194.373 204.066 207.07266 211.36016 216.78737 219.80489 225.2321 229.45447 232.46114 237.88835 243.93427 251.81456 255.73302 263.60249 266.62004 274.54377 279.37397 284.80119 290.8362 295.11286 299.33525 302.35279 306.57514 312.61018 316.83256 319.8501 325.27729 331.31233 336.73954 339.75706 342.7746 352.16368 356.44035 362.47538 368.81434 374.24153 378.49647 384.53153 387.54905 393.58409 399.0113 403.23365 408.06388 417.746 421.96839 431.04267 435.26506 441.30009 449.77738 457.31037 462.14057 465.1581 468.47956 473.90675 478.16169 486.639 495.68074 498.69828 502.9749 507.25157 510.2691 515.69638 525.3785 530.8057 536.84078">anendinisolation.Itisconstitutionallysubordinatedtothewelfaremissionand</tspan></text>
<text xml:space="preserve" transform="matrix(.9899495 0 -0 1.0101526 0 792)" font-size="10.799458" font-family="LMRoman10"><tspan y="-335.8522" x="72.73098 81.42454 87.42904 91.68402 99.50283 105.50733 110.90706 118.72587 125.04355 129.8493 134.65508 140.0548 149.05074 157.47432 160.47657 166.48107 172.48557 178.49007 181.49233 186.89205 191.69782 197.7023 202.50807 207.31383 210.91005 213.9123 218.71807 224.72257 231.35343 236.1592 241.8613 246.06229 250.29569 255.6954 260.50117 264.70216 267.7044 273.09333 277.89909 284.54075 289.9405 297.79167 306.78764 309.7899 314.04487 318.29985 321.3021 326.7018 332.70634 336.30256 339.3048 345.00694 350.39588 355.2016 359.435 363.63597 366.6382 372.6427 378.04246 385.92607 393.72328 399.72776 408.1513 412.95707 418.65919 424.97688 429.7826 434.01597 437.01823 441.82398 447.82847 452.63423 461.05778 464.06004 469.14659 474.5463 479.35206 487.20326 496.1992 501.29655 510.61647 513.6187 519.62319 524.42898 527.43118 533.43569 539.4402 544.2459">mustnotbecomeindulgence-led,extractive,ormission-inverting.Theexperiencelayermayinclude:</tspan></text>
<text xml:space="preserve" transform="matrix(1 0 -0 1 0 792)" font-size="10.9091" font-family="LMRoman10"><tspan y="-312.96" x="72">&#x2022;</tspan></text>
<text xml:space="preserve" transform="matrix(1 0 -0 1 0 792)" font-size="10.9091" font-family="LMRoman10"><tspan y="-312.96" x="85.658199 91.4182 94.45093 97.48366 100.51639 105.97094 113.901859 119.35641 127.27641 132.73096 136.9746 143.04006 147.8946 155.80371 158.83644 164.59644 170.6619 176.11644 179.14917 185.21463 194.30191 200.36737 203.4001 207.69829 211.94193 216.21829 219.25102 225.31649 231.38195 235.62558 240.48014 250.18924 254.43288 260.49833 264.7747 270.22926 276.2947 281.74928 291.44746 300.53474 305.38929 311.45475 315.7311 321.18568 325.42933 330.28388 339.99299 343.33119 348.78575 353.0621 357.91667 362.21485 370.09123 374.94578 380.70579 386.4658 389.4985 393.77488 399.22944 405.2949 414.38218 419.23674 424.99674 429.2404">villasorotherlodgingdistributedthroughacuratedforestenvironment,</tspan></text>
<text xml:space="preserve" transform="matrix(1 0 -0 1 0 792)" font-size="10.9091" font-family="LMRoman10"><tspan y="-290.64399" x="72">&#x2022;</tspan></text>
<text xml:space="preserve" transform="matrix(1 0 -0 1 0 792)" font-size="10.9091" font-family="LMRoman10"><tspan y="-290.64399" x="85.94183 95.02911 99.88367 105.33822 114.4255 120.49096 125.94551 130.80007 138.68735 143.83644 149.59645 152.62918 155.66191 158.69464 164.14919 169.60373 174.44738 183.24011 188.09467 193.54921 197.82558 206.31287 214.18924 217.22197 221.4656 231.1638 236.01836 240.31655 244.61473 249.46929 255.2402 259.48387 262.51658 267.97114 274.63658 280.09114 286.1566 291.01115 295.30934 303.1857 307.4839 312.33845 316.6148 322.37483 325.40754 330.2621 335.11665 343.05848 348.51304 354.5785 364.27668 369.13124 375.1967 381.26216 386.1167 391.57127 395.8149 398.84764 404.3022 414.00038 417.03309 422.804 427.04765 431.9022 436.16767 439.51676 444.9713 449.81498 454.66954 458.9677">acompact&#x201c;village&#x201d;corewithessentialguestservicesandeducationinterfaces,</tspan></text>
<text xml:space="preserve" transform="matrix(1 0 -0 1 0 792)" font-size="10.9091" font-family="LMRoman10"><tspan y="-268.32798" x="72">&#x2022;</tspan></text>
<text xml:space="preserve" transform="matrix(1 0 -0 1 0 792)" font-size="10.9091" font-family="LMRoman10"><tspan y="-268.32798" x="85.94183 90.79639 96.86185 101.138217 106.592769 110.8364 115.69095 121.75641 128.42188 134.48734 139.94188 145.39643 149.02916 153.88372 158.73827 164.50919 168.75283 173.59647 177.87284 182.72739 192.4365 195.77468 201.22922 205.50559 210.36014 214.65833 222.5347 227.98925 232.8438 237.08744 240.12017 245.88018 248.9129 253.15654 256.18928 261.04383 268.97474 275.0402 279.89476 284.19294 287.22566 292.6802 298.74568 303.60023 313.30934 316.64753 322.10209 330.01118 334.30937 339.76393 343.1021 351.5894 356.44395 362.20396 367.0585 372.8185 375.85124 380.1494 384.39308 389.24763 395.31309 400.16764 408.6549 414.10948 420.17494 429.88404 435.9495 442.01496 448.0804 451.11314 454.14585 462.63313 465.66584 470.5204 475.97496 480.2513 486.31678 489.3495 495.41496 500.8695">curated,dog-centeredforestactivitiesdesignedforsafecoexistenceandpubliclearning,</tspan></text>
<text xml:space="preserve" transform="matrix(1 0 -0 1 0 792)" font-size="10.9091" font-family="LMRoman10"><tspan y="-246.01097" x="72">&#x2022;</tspan></text>
<text xml:space="preserve" transform="matrix(.99196776 0 -0 1.0080973 0 792)" font-size="10.821475" font-family="LMRoman10"><tspan y="-244.03498" x="86.63589 92.04662 95.05499 98.06336 101.666919 109.177028 113.992588 119.40332 123.61288 129.62961 134.44516 142.36649 145.67786 151.0886 155.90415 158.91252 161.92089 164.92926 169.13881 172.14719 176.96273 184.9057 189.11525 198.20529 202.44731 207.26287 213.2796 219.29634 224.1119 232.60675 236.8704 241.68596 247.0967 251.36037 256.7711 262.78785 268.19859 271.20695 274.2153 278.11103 287.50407 291.7461 294.75447 299.0181 308.41114 312.6207 318.95127 324.362 328.57157 333.38716 339.09007 343.29963 346.30799 351.71873 354.72706 357.7354 367.12849 370.1368 376.15357 380.96913 383.97749 389.99424 396.01097 399.01933 405.03608 414.1261 417.13447 423.1512 429.17878 434.89253 440.30326 448.22459 455.72386 461.13459 465.34416 470.1597 478.08103 481.3924 486.80314 491.61869 494.62705 497.6354 500.64378 504.85334 507.8617 512.67727 516.9409 524.8297 530.2404 536.25717 539.2655">all-weatherfacilitiestoreduceseasonalityrisk(potentiallyincludingindoorwaterfacilities)only</tspan></text>
<text xml:space="preserve" transform="matrix(1 0 -0 1 0 792)" font-size="10.9091" font-family="LMRoman10"><tspan y="-232.462" x="85.547 93.42337 99.48883 104.34338 108.61975 117.10703 121.96158 127.41613 133.48159 137.77977 140.8125 145.11069 149.35433 154.20888 159.9798 167.85617 175.73255 178.76528 183.00891 192.7071 200.27803 205.13259 208.16532 211.5035 216.95804 221.2344 226.08896 232.76534 238.8308 241.86353 247.31807 253.38353 256.41627 260.35447 265.209 271.87446 276.17265 280.4163 285.27085 292.84178 298.29634 302.5727 308.63816 312.93635 319.0018 322.03453 328.09999 334.77635 340.2309 346.29637 355.99455 360.8491 366.30366 375.39094 381.4564 384.4891 387.52183 392.97639 399.04185 403.8964 412.38368 417.23823 422.69279 428.75825 433.05644 437.30009 441.57646 447.031 450.06373 455.82374 460.06739 464.37648">whereconsistentwithwelfare,dignity,stewardship,andcomplianceconstraints.</tspan></text>
<text xml:space="preserve" transform="matrix(.9899495 0 -0 1.0101526 0 792)" font-size="10.799458" font-family="LMRoman10"><tspan y="-204.08896" x="72.73098 78.73548 84.739978 88.973369 94.97787 97.98012 103.98462 111.84663 117.24635 123.250858 132.85158 135.85382 141.85832 146.11331 150.3143 153.31655 157.51753 163.52204 167.72303 170.72528 176.125 182.1295 187.52924 194.1385 199.53824 205.54274 210.62929 216.02902 221.73113 225.93212 231.33185 236.73159 245.13356 248.43819 252.67159 258.07133 270.66349 274.86448 280.86897 283.87123 291.73323 294.73548 299.82203 305.22175 310.0275 317.85713 323.25685 327.4902 335.90299 338.9052 344.59657 348.79753 353.60328 359.60777 365.61228 370.41804 380.02955 384.2305 393.22648 397.48146 403.48597 409.49046 415.80815 421.20787 425.44126 433.23844 437.43943 443.4439 451.8459 460.84187 463.84413 468.0991 472.35408 475.35633 480.75605 490.36759 495.17335 500.57307 504.80644 513.20846 518.6081 524.6126 534.2241 537.2155 541.4165">Surplusandinstitutionaladvantagefromthislayerareintendedtosupportthemissioncoreandits</tspan></text>
<text xml:space="preserve" transform="matrix(1 0 -0 1 0 792)" font-size="10.9091" font-family="LMRoman10"><tspan y="-192.611" x="72 78.06546 84.13092 90.19638 93.22911 96.26184 104.74912 109.60367 115.66913 121.73459 126.58914 132.04369 136.28733 139.32006 144.7746 154.4837 157.51644 163.27645 167.52008 172.37464 176.651 179.98918 185.44373 190.29828 198.78557 203.06194 208.51648 212.76012 218.82558 223.68013 231.58924 235.83287 241.89833 247.35288 257.06199 263.12745 267.4038 270.43653 275.58564 281.0402 285.28385 293.78205 300.14207 304.9966 311.06208 315.91664 318.94935 321.9821 326.22575">publiceducationinterfaceratherthanprivatebenefit.</tspan></text>
<text xml:space="preserve" transform="matrix(1 0 -0 1 0 792)" font-size="10.9091" font-family="LMRoman10" font-weight="bold"><tspan y="-163.801" x="72 78.272739 81.75274 88.025478 91.50548">4.1.3</tspan></text>
<text xml:space="preserve" transform="matrix(1 0 -0 1 0 792)" font-size="10.9091" font-family="LMRoman10" font-weight="bold"><tspan y="-163.801" x="107.192768 116.607318 120.08732 127.058238 137.50916 143.78189 152.83644 161.411 168.38191 175.35283 178.83283 182.31282 187.88738 192.06557 199.38558 205.13468 212.10559 217.85469 221.34015 224.8256 233.89109 241.20018 246.94928 252.1202 255.6111 266.062 271.8111 276.68748 282.43656 291.78569 296.66206 305.7275 309.20753 315.82936 319.30937 329.0621 335.16029 340.73484 346.3094 352.05848 357.0112 361.96394 369.63304 376.95304 383.22578 390.1967 397.1676 404.13853 409.8876 421.0367 425.98945 431.564 437.83674 445.15675 450.90583">Ring3:Public-benefitperimeter(Civicaccess,boundedscope)</tspan></text>
<text xml:space="preserve" transform="matrix(1.0049875 0 -0 .9950372 0 792)" font-size="10.96351" font-family="LMRoman10"><tspan y="-143.92226" x="71.08945 82.35993 88.45564 93.334407 97.6321 106.106899 110.98565 116.46741 125.60001 131.69573 137.17749 141.44229 144.49015 150.58586 153.63373 162.10852 170.02417 173.07204 177.33684 187.03955 194.64824 199.527 202.57486 205.9297 211.41146 215.70915 220.5879 227.23181 233.33849 236.38636 241.8681 247.9638 251.01168 254.96952 259.85923 266.50309 270.8227 276.30445 279.65928 284.53804 288.50685 293.3856 300.04045 305.5222 311.61793 321.30967 324.3575 329.83927 335.935 341.41676 345.0676 351.16334 356.64509 360.94279 363.99064 368.8694 374.35115 384.0429 388.36253 392.62733 397.50608 405.12574 410.60749 414.90519 421.00093 425.32054 431.41624 434.46409 440.5598 447.20368 455.4263 460.30509 471.82777 480.2039 485.68565 491.1674 496.64918 501.52793 505.82563 508.87348 514.3552 520.4509 530.14266 533.1905">Wherecompatiblewithwelfare,dignity,safety,andlong-horizonstewardship,NewDoggerlandis</tspan></text>
<text xml:space="preserve" transform="matrix(1 0 -0 1 0 792)" font-size="10.9091" font-family="LMRoman10"><tspan y="-129.659" x="72 75.03273 80.79273 85.03637 89.890918 95.956378 102.021839 106.87639 116.58549 120.829128 129.91641 135.98188 140.25824 145.40734 151.16735 154.20008 160.26554 168.75283 174.8292 180.89466 186.96012 189.99285 193.02558 197.88013 201.51287 207.87287 212.72742 218.79288 223.64743 226.68016 229.71289 237.60018 243.05472 247.90927 252.76383 257.61839 261.91658 269.84748 274.14567 279.90568 284.20387 288.4475 293.30207 302.38935 310.32026 314.61845 320.6948 325.2439 334.94209 340.39665 344.69483">intendedtoprovidepublic-benefitaccesssystemssuchas:</tspan></text>
<text xml:space="preserve" transform="matrix(1 0 -0 1 0 792)" font-size="10.9091" font-family="LMRoman10"><tspan y="-103.356998" x="72">&#x2022;</tspan></text>
<text xml:space="preserve" transform="matrix(1 0 -0 1 0 792)" font-size="10.9091" font-family="LMRoman10"><tspan y="-103.356998" x="85.94183 92.00729 98.072757 104.138217 107.170948 110.203678 118.690959 126.27278 131.72733 134.76006 140.52007 143.5528 149.61826 158.70554 162.94918 167.22554 172.68009 175.71282 178.74555 186.67647 192.13101 198.19647 207.90558 213.97104 219.42559 223.66922 229.73468 234.01105 242.49834 247.95288 252.80744 257.662 262.51655 266.81474 274.74565 279.022 284.47657 290.54203 294.78569 299.64024 303.93843">publicwalkingtrailsandnatureaccessroutes,</tspan></text>
<text xml:space="preserve" transform="matrix(1 0 -0 1 0 792)" font-size="10.9091" font-family="LMRoman10"><tspan y="-81.04099" x="72">&#x2022;</tspan></text>
<text xml:space="preserve" transform="matrix(1 0 -0 1 0 792)" font-size="10.9091" font-family="LMRoman10"><tspan y="-81.04099" x="85.94183 92.00729 97.461849 106.549129 112.614589 118.06914 122.345508 128.10552 136.04735 141.50189 147.56735 157.26555 163.33101 168.78556 174.2401 177.87284 181.21102 186.66556 190.94193 198.52376 203.9783 208.24376 217.95287 223.40741 229.47287 233.7165 239.78197 245.54196 250.9965 258.9056 263.2038 269.26927 274.72383 279.57838 284.43293 288.7311">dogparksanddog-forwardoutdoorspaces,</tspan></text>
<text xml:space="preserve" transform="matrix(1 0 -0 1 0 792)" font-size="10.9091" font-family="LMRoman10"><tspan y="-42.11199" x="303.273">5</tspan></text>
</svg>
