<svg xmlns="http://www.w3.org/2000/svg" xmlns:xlink="http://www.w3.org/1999/xlink" xmlns:inkscape="http://www.inkscape.org/namespaces/inkscape" version="1.1" width="612" height="792" viewBox="0 0 612 792">
<text xml:space="preserve" transform="matrix(1 0 -0 1 0 792)" font-size="10.9091" font-family="LMRoman10"><tspan y="-709.041" x="72">&#x2022;</tspan></text>
<text xml:space="preserve" transform="matrix(1.0099504 0 -0 .99014756 0 792)" font-size="11.017651" font-family="LMRoman10"><tspan y="-716.0963" x="85.09329 88.1562 94.28201 99.18486 105.0132 109.299068 112.36198 115.733379 126.39846 131.30132 136.81015 142.62746 146.91333 151.23224 156.74108 159.80397 168.9927 173.27858 183.63518 189.76099 194.07991 198.98278 203.32373 208.2266 212.5455 218.06536 227.81598 236.99369 240.0566 244.39756 248.73853 251.80142 257.31025 268.2838 271.3467 277.16404 281.44993 286.35276 291.86158 296.1805 299.2434 303.2318 308.1457 316.37586 319.43879 325.56459 330.46745 333.53034 339.65617 345.78196 348.84489 354.97068 365.32728 371.45307 377.5789 386.71253 392.83833 398.34715 407.4698 410.53269 413.59559 422.7733 425.83619 430.12208 435.0249 445.99848 450.28437 460.64094 464.92683 467.98973 473.49855 479.32685 483.61274 488.51557 497.68229 505.63703 511.76289 517.2717 521.59066 525.87649 530.77938">identifycontrolstopreservemissionintegrity,includingbutnotlimitedtotighterCharter</tspan></text>
<text xml:space="preserve" transform="matrix(1 0 -0 1 0 792)" font-size="10.9091" font-family="LMRoman10"><tspan y="-695.492" x="85.94 90.794559 96.24911 102.31457 106.612758 110.85639 115.13276 120.58731 123.62004 129.38005 133.62369 137.92188 144.59825 150.0528 155.20189 160.65645 165.511 169.78737 175.85283 181.30738 187.37284 192.22739 200.71468 205.01287 209.86742 215.93288 221.38742 225.66379 231.11833 235.36197 238.3947 243.84925 249.9147 256.59107 260.86744 265.722 270.02018 274.87474 279.1511 284.60566 293.09294 297.3693 303.43476 306.46748 311.32203 315.6202 322.28565 327.7402 335.66023 341.72569 344.7584 350.21296 355.0675 359.3657 363.60935 372.69664 377.55119 383.3112 391.18757 397.25303 400.28575 405.7403 411.80577 417.8821 420.90394 426.9803 432.43486">constraints,governanceseparation,reserverules,ordivestmentplanning,</tspan></text>
<text xml:space="preserve" transform="matrix(1 0 -0 1 0 792)" font-size="10.9091" font-family="LMRoman10"><tspan y="-673.176" x="72">&#x2022;</tspan></text>
<text xml:space="preserve" transform="matrix(1 0 -0 1 0 792)" font-size="10.9091" font-family="LMRoman10"><tspan y="-673.176" x="85.94183 91.396389 97.461849 107.160037 113.53095 122.02914 126.305507 131.14914 136.0037 141.45824 145.7346 151.80007 156.65462 166.36373 171.81827 179.74919 188.83647 196.86557 201.72013 206.57468 212.02922 216.30559 222.37105 227.2256 236.93471 245.26926 250.12381 254.97837 258.01109 262.30928 265.34199 270.79655 280.49473 287.61839 293.07295 297.3166 303.0875 310.65843 315.80754 325.20027 331.26573 337.33119 343.39665 348.2512 356.1712 362.23667 367.09123 371.94578 376.18943 379.22215 384.6767">andberecordedasaRecordedDecisionPathwayunderSection</tspan></text>
<text xml:space="preserve" transform="matrix(1 0 -0 1 0 792)" font-size="10.9091" font-family="LMRoman10"><tspan y="-673.176" x="394.37489 399.82945 402.86216 408.3167">4.11</tspan></text>
<text xml:space="preserve" transform="matrix(1 0 -0 1 0 792)" font-size="10.9091" font-family="LMRoman10"><tspan y="-673.176" x="413.77128">.</tspan></text>
<text xml:space="preserve" transform="matrix(1.0054849 0 -0 .9945449 0 792)" font-size="10.968936" font-family="LMRoman10"><tspan y="-650.4222" x="71.60725 77.87051 83.35497 86.40434 89.453708 95.55244 99.852268 108.34222 112.60914 121.713359 124.76272 130.86145 133.91082 138.17772 141.22708 146.71157 150.97847 159.46842 164.9529 172.87247 177.17229 182.05347 186.93463 192.41912 196.71894 206.42646 215.53067 219.83049 224.71167 230.50327 236.602 239.65137 243.95119 248.83235 258.53987 264.63859 270.12306 279.26017 282.30955 288.40827 293.89274 299.99147 304.87266 313.3736 317.6734 322.5546 328.3462 331.39558 336.27674 347.8051 352.68629 358.17079 364.26948 368.59126 372.85816 375.90754 380.17445 386.27317 390.54008 395.42127 403.36277 412.467 417.95149 423.12886 428.62428 433.50547 437.80528 443.904 449.38847 455.48719 460.36839 468.85835 474.95707 479.25688 485.04847 489.92967 494.81083 499.1326 507.0631 510.4196 515.90408 518.9534 522.0028 528.10159 532.40139">Failuretoinitiateorrecordarequireddominancereviewconstitutesagovernanceprocessfailure</tspan></text>
<text xml:space="preserve" transform="matrix(1 0 -0 1 0 792)" font-size="10.9091" font-family="LMRoman10"><tspan y="-633.325" x="72 76.27637 81.13092 86.89092 92.95638 95.98911 100.26548 103.29821 109.36367 118.45095 122.72732 127.58186 136.66915 141.5237 147.58916 150.62189 156.07643 160.32007 163.3528 168.80735 178.51645 184.58191 190.64737 196.71283 201.56739 209.47649 215.54195 220.3965 225.25106 229.49469 232.52742 237.98197">requiringremediationunderSection</tspan></text>
<text xml:space="preserve" transform="matrix(1 0 -0 1 0 792)" font-size="10.9091" font-family="LMRoman10"><tspan y="-633.325" x="247.68016 253.1347">18</tspan></text>
<text xml:space="preserve" transform="matrix(1 0 -0 1 0 792)" font-size="10.9091" font-family="LMRoman10"><tspan y="-633.325" x="258.58927">.</tspan><tspan y="-613.00106" x="72 82.00365 88.06911 92.312747 97.767299 103.832759 106.865489 109.89822 112.93095 116.869129 122.62913 130.5164 138.69823 144.76369 149.31279 155.37825 160.8328 166.89826 172.3528 177.20735 182.6619 188.72736 191.76009">Mutability:Unchangeable</tspan></text>
<text xml:space="preserve" transform="matrix(1 0 -0 1 0 792)" font-size="11.9552" font-family="LMRoman12" font-weight="bold"><tspan y="-583.79208" x="72 78.73078 82.47276">6.8</tspan></text>
<text xml:space="preserve" transform="matrix(1 0 -0 1 0 792)" font-size="11.9552" font-family="LMRoman12" font-weight="bold"><tspan y="-583.79208" x="99.29373 106.62227 113.35305 120.82505 128.29706 135.76906 141.90207 151.88466 159.35666 164.59304 170.09243 176.63191 181.86829 188.0013 194.73207 198.47405 208.93485 219.09677 224.59616 229.83254 233.57451 239.55211 247.02411 250.76609 257.30558 262.54197 266.28395 273.0147">FounderStrategicArticulation</tspan></text>
<text xml:space="preserve" transform="matrix(.9969955 0 -0 1.0030136 0 792)" font-size="10.876323" font-family="LMRoman10"><tspan y="-561.5068" x="71.82279 79.67549 85.722728 94.21713 100.40577 105.843929 111.90204 117.94927 123.99651 128.83647 136.75443 140.98532 146.4235 154.3632 160.41045 165.25041 168.27404 171.29764 177.34488 182.18485 191.8974 194.92102 204.6227 210.66994 215.5099 220.34987 224.58077 227.60437 233.04254">TheFounder(asdefinedinSection</tspan></text>
<text xml:space="preserve" transform="matrix(.9969955 0 -0 1.0030136 0 792)" font-size="10.876323" font-family="LMRoman10"><tspan y="-561.5068" x="242.74422 248.18239 251.206">4.1</tspan></text>
<text xml:space="preserve" transform="matrix(.9969955 0 -0 1.0030136 0 792)" font-size="10.876323" font-family="LMRoman10"><tspan y="-561.5068" x="256.64418 264.54039 269.97853 276.02577 285.72743 289.95829 296.00553 304.4999 310.68855 316.12669 322.17393 328.232 334.27925 339.11918 347.03715 353.08436 357.31523 362.15519 369.70335 375.14149 379.405 389.10667 393.33757 398.7757 406.7263 412.7735 417.61347 420.6371 423.66069 429.7079 434.54786 444.2495 447.27314 456.9748 463.022 467.86198 472.7019 476.9328 479.9564 485.39457">)andtheFounderSteward(asdefinedinSection</tspan></text>
<text xml:space="preserve" transform="matrix(.9969955 0 -0 1.0030136 0 792)" font-size="10.876323" font-family="LMRoman10"><tspan y="-561.5068" x="495.1071 500.54524 503.56886 509.007">6.11</tspan></text>
<text xml:space="preserve" transform="matrix(.9969955 0 -0 1.0030136 0 792)" font-size="10.876323" font-family="LMRoman10"><tspan y="-561.5068" x="514.4451 522.33059 531.39059 536.5241">)may</tspan></text>
<text xml:space="preserve" transform="matrix(1.0099504 0 -0 .99014756 0 792)" font-size="11.017651" font-family="LMRoman10"><tspan y="-555.1193" x="71.290637 74.35354 78.69449 83.035449 89.161258 97.89825 105.853 110.17191 113.23482 117.52069 121.80656 126.709407 136.65834 142.78415 147.07 151.38893 156.89777 161.18363 166.08649 171.5953 174.65822 183.39522 191.65847 195.96637 200.26325 203.31513 208.21799 214.34381 217.40671 222.91555 227.2014 230.26432 235.77313 241.89896 250.07407 256.1999 261.10273 265.4437 270.34654 274.66548 277.72837 283.8542 286.91709 293.0429 302.38587 307.2887 312.79756 318.30638 321.36927 327.18659 330.2495 336.3753 345.71827 350.05924 354.3451 358.66404 364.78987 369.6927 373.97859 380.10438 384.4233 389.32618 396.2783 402.40409 406.72303 409.78596 415.29475 419.61369 422.66557 426.95146 430.01435 434.91719 439.25816 446.21028 451.7191 459.87217 462.93507 472.11277 478.23857 481.30149 486.2043 495.38203 500.28486 506.10218 510.38807 515.8969 520.18276 523.24569 528.7545">issuewrittenStrategicArticulationsdescribingevolvingstructure,priorities,orimplementation</tspan></text>
<text xml:space="preserve" transform="matrix(1 0 -0 1 0 792)" font-size="10.9091" font-family="LMRoman10"><tspan y="-536.101" x="72 78.06546 83.52001 87.76365 93.52365 101.10548 106.25457 112.01457 119.94549 124.80003 130.25458 136.32004 140.61823 143.65096 147.94915 152.19278 157.04734 162.80735 170.69463 178.571 181.60373 185.84737 195.54557 199.7892 205.85466 214.34195 223.42923 226.46196 230.76015 235.06925 238.09107 243.54561 249.62198">pathwaysconsistentwiththemission.</tspan><tspan y="-515.77706" x="71.596 79.777828 85.53783 94.94147 101.00693 105.250568 109.52693 114.98148 119.22512 124.079669 129.53421 132.56694 141.05423 149.23606 153.51242 157.75606 160.78879 165.64334 171.7088 174.74153 180.19608 184.43972 187.47245 192.92699 198.99245">AnyStrategicArticulation:</tspan></text>
<text xml:space="preserve" transform="matrix(1 0 -0 1 0 792)" font-size="10.9091" font-family="LMRoman10"><tspan y="-489.47605" x="72">&#x2022;</tspan></text>
<text xml:space="preserve" transform="matrix(1 0 -0 1 0 792)" font-size="10.9091" font-family="LMRoman10"><tspan y="-489.47605" x="85.94183 90.79639 96.25094 100.527309 104.80367 107.8364 112.69095 120.621868 126.687328 135.78553 141.85099 144.88372 150.94918 157.01464 160.04737 166.11283 175.2001 180.65465 186.72011 190.96375 197.0292 202.48375 206.76012 209.79285 213.73104 218.58559">carriesnobindingauthority,</tspan></text>
<text xml:space="preserve" transform="matrix(1 0 -0 1 0 792)" font-size="10.9091" font-family="LMRoman10"><tspan y="-467.15907" x="72">&#x2022;</tspan></text>
<text xml:space="preserve" transform="matrix(1 0 -0 1 0 792)" font-size="10.9091" font-family="LMRoman10"><tspan y="-467.15907" x="85.94183 94.723659 100.789119 105.0873 112.97458 119.33459 127.83277 131.17096 136.6255 140.90187 149.98915 155.4437 158.47643 161.50916 170.9019 175.17827 180.03282 185.79283 188.82556 193.68012 201.25104 206.10559 215.80379 221.5747 230.96746 235.21109 241.27655 249.76384 258.32749 263.4875 268.94206 273.7966 278.07298 284.13844 287.17115 293.2366 302.32389 310.04753 315.80754 321.873 326.72755">mustbeformallyreviewedbytheGoverningBody,</tspan></text>
<text xml:space="preserve" transform="matrix(1 0 -0 1 0 792)" font-size="10.9091" font-family="LMRoman10"><tspan y="-444.84306" x="72">&#x2022;</tspan></text>
<text xml:space="preserve" transform="matrix(1 0 -0 1 0 792)" font-size="10.9091" font-family="LMRoman10"><tspan y="-444.84306" x="85.94183 94.723659 100.789119 105.0873 112.97458 119.33459 127.83277 133.89823 136.93096 142.3855 147.24005 152.0946 161.7928 167.24735 176.94554 181.18918 187.25464 195.75284 201.20738 206.66193 211.51648 217.58194 223.6474 232.73468 238.18923 245.17105 249.41469 255.48015 263.9674 270.03288 274.88743 280.64744 288.5238 292.80018 297.65473 303.10929 309.17475 312.20747 317.66203 325.5711 334.13475 339.29475 344.7493 349.60386 353.88023 359.94569 362.9784 369.04386 378.13114 385.85478 391.61479 397.68025 407.07298 416.16026 421.0148 425.86936 430.113 433.14573 439.21119 444.66575 451.3421 456.79667 462.86213">mustbeplacedontheagendaofthenextregularGoverningBodymeeting,and</tspan></text>
<text xml:space="preserve" transform="matrix(1 0 -0 1 0 792)" font-size="10.9091" font-family="LMRoman10"><tspan y="-422.52705" x="72">&#x2022;</tspan></text>
<text xml:space="preserve" transform="matrix(1 0 -0 1 0 792)" font-size="10.9091" font-family="LMRoman10"><tspan y="-422.52705" x="85.94183 94.723659 100.789119 105.0873 112.97458 119.04004 124.18913 129.64369 138.13098 141.16371 145.40735 153.34918 158.20374 163.65828 169.72374 174.02193 177.05466 183.12012 187.97467 192.25104 197.70558 201.94922 204.98195 210.4365 220.13469 224.41106 229.26561 234.12017 239.5747 243.85108 249.91654 254.77109 264.46928 267.50199 277.2111 281.45475 287.5202 296.00749 305.09477 309.9493 314.80387 319.04753 322.08024 328.1457 337.23298 341.50935 346.3639 351.21846 356.673 360.94938 367.01484">musthaveitsconsiderationrecordedinthemeetingrecord.</tspan><tspan y="-396.22505" x="72 82.00365 88.06911 92.312747 97.767299 103.832759 106.865489 109.89822 112.93095 116.869129 122.62913 130.5164 138.69823 144.76369 149.31279 155.37825 160.8328 166.89826 172.3528 177.20735 182.6619 188.72736 191.76009">Mutability:Unchangeable</tspan></text>
<text xml:space="preserve" transform="matrix(1 0 -0 1 0 792)" font-size="11.9552" font-family="LMRoman12" font-weight="bold"><tspan y="-367.01606" x="72 78.73078 82.47276">6.9</tspan></text>
<text xml:space="preserve" transform="matrix(1 0 -0 1 0 792)" font-size="11.9552" font-family="LMRoman12" font-weight="bold"><tspan y="-367.01606" x="99.29373 109.86213 116.2223 122.94112 129.07413 134.57352 142.04552 145.78749 153.25949 164.47347 174.03763 181.15097 188.62297 200.20757 209.92714 216.65792 227.87189 235.7145 242.44527 247.75337 251.49535 256.73173 260.4737 267.20448 274.67646 282.90165 290.37367 296.50669 300.24867 306.38169 312.35929 317.59568 321.33766 328.06843 335.5404 343.7656 350.30509 357.7771 369.7323 379.76274 385.89576 397.10975 403.4699 409.8181 416.3576">GoverningBodyComposition,Selection,andRemoval</tspan></text>
<text xml:space="preserve" transform="matrix(1 0 -0 1 0 792)" font-size="10.9091" font-family="LMRoman10" font-weight="bold"><tspan y="-345.30805" x="72 78.272739 81.75274 88.025478 91.50548">6.9.1</tspan></text>
<text xml:space="preserve" transform="matrix(1 0 -0 1 0 792)" font-size="10.9091" font-family="LMRoman10" font-weight="bold"><tspan y="-345.30805" x="107.192768 116.258228 122.53096 132.98188 140.30188 146.57462 151.52735 155.00734 159.88372 163.36371 169.63645">Composition</tspan></text>
<text xml:space="preserve" transform="matrix(.9899495 0 -0 1.0101526 0 792)" font-size="10.799458" font-family="LMRoman10"><tspan y="-321.45143" x="72.33399 80.131198 86.1357 94.48368 102.96126 108.0586 113.44753 118.25329 122.48668 128.49118 131.49343 137.49793 146.43988 154.08589 159.78801 165.80332 175.03685 183.73041 189.73491 193.98989 201.7331 206.53887 211.93859 217.94309 222.19808 225.20032 229.4553 237.19852 242.59825 249.44512 254.84484 264.39158 270.0937 276.09819 285.6449 291.34703 297.3515 306.0451 312.352 317.1577 324.93333 330.33305 337.1799 342.57966 347.97938 352.18034 355.1826 361.1871 370.12904 379.125 383.91996 392.61354 398.9312 403.72618 407.95954 412.21455 420.07655 427.87376 433.87825 442.2262 450.70378 455.7903 461.19007 465.9958 470.2292 476.23368 479.23594 485.24043 494.18238 501.8284 507.53053 513.53506 522.7793 531.4729 537.47738 541.73239">TheGoverningBodymustconsistofanoddnumberofvotingmembers.TheGoverningBodymust</tspan></text>
<text xml:space="preserve" transform="matrix(1 0 -0 1 0 792)" font-size="10.9091" font-family="LMRoman10"><tspan y="-311.166" x="72 78.06546 83.214557 88.6691 97.16729 103.23275 112.32003 115.65822 120.51277 128.0837 132.93825 140.85826 145.1019 151.16736 156.6219 166.3201 169.35283 172.38556 177.84012 186.33832 190.58196 196.0365 203.91287 209.36742 215.43288 225.13108 231.19654 240.29473 249.382 254.83655 259.1129 267.6002 271.84385 277.9093 283.36387 293.06205 297.9166 300.9493 305.80387 311.26933 316.11299 325.82209 330.06575 335.5203 340.97486 348.85124 354.3058 359.76036 364.004 367.0367 373.10218 382.20039 391.28767 396.1422 404.92405 411.29496 416.1495 420.42588 424.72407">havenofewerthanfive(5)andnomorethaneleven(11)votingmembers.</tspan></text>
<text xml:space="preserve" transform="matrix(.99095919 0 -0 1.0091233 0 792)" font-size="10.810472" font-family="LMRoman10"><tspan y="-288.21257" x="72.24919 80.35705 86.06498 95.42685 98.43216 104.44279 109.25344 113.49115 118.30181 123.70705 127.96637 136.43097 139.43628 149.11167 153.31693 159.32756 167.79216 176.79729 182.20252 187.91045 190.91576 199.61818 205.6288 218.28787 223.9958 230.00643 238.70885 245.02217 249.83283 257.72447 263.1297 270.09169 275.4969 280.9021 285.1074 288.1127 294.12333 303.1933 307.45265 312.2633 317.66853 321.8738 329.7871 336.1004 340.91108 346.31629 351.72154 357.73213 367.39668 372.20738 375.21269 380.02336 385.42857 390.23927 399.9038 404.10908 409.5143 414.91954 422.78959 427.02729 431.82716 437.53507 443.5565 446.551 450.7887 455.59938 463.52348 468.92869 478.59324 485.95518 491.6631 495.86839 500.1061 505.51133 510.91654 515.15426 521.1649 524.1702 530.18087 535.5861 539.8238">Anyincreaseinthemaximumnumberofvotingseatsbeyondeleven(11)requiresanExtraordinary</tspan></text>
<text xml:space="preserve" transform="matrix(1 0 -0 1 0 792)" font-size="10.9091" font-family="LMRoman10"><tspan y="-277.293" x="72 79.4291 83.70547 89.46548 94.32002 99.174579 103.47276 111.40368 115.647319 121.10187 129.0437 135.10916 139.96372 142.99645 146.02918 152.09464 156.94919 166.64739 169.68012 179.37831 185.44377 190.29833 195.15288 199.39652 202.42925 207.88379">Process(asdefinedinSection</tspan></text>
<text xml:space="preserve" transform="matrix(1 0 -0 1 0 792)" font-size="10.9091" font-family="LMRoman10"><tspan y="-277.293" x="217.5929 223.04744 226.08017">4.6</tspan></text>
<text xml:space="preserve" transform="matrix(1 0 -0 1 0 792)" font-size="10.9091" font-family="LMRoman10"><tspan y="-277.293" x="231.53472 235.77835">).</tspan><tspan y="-256.969" x="72 82.00365 88.06911 92.312747 97.767299 103.832759 106.865489 109.89822 112.93095 116.869129 122.62913 130.5164 138.5455 143.40006 149.16007 152.1928 156.49098 161.94553 168.01099 171.04372">Mutability:Revisable</tspan></text>
<text xml:space="preserve" transform="matrix(1 0 -0 1 0 792)" font-size="10.9091" font-family="LMRoman10" font-weight="bold"><tspan y="-228.15799" x="72 78.272739 81.75274 88.025478 91.50548">6.9.2</tspan></text>
<text xml:space="preserve" transform="matrix(1 0 -0 1 0 792)" font-size="10.9091" font-family="LMRoman10" font-weight="bold"><tspan y="-228.15799" x="107.192768 115.44005 118.92005 122.400058 128.67279 132.15279 139.1237 142.6037 146.0837 149.56369 154.09098 164.89099 170.98918 177.9601 189.12012 198.74195 202.22194 207.17467 213.7965 220.76741 226.8656 230.3456 233.82559 237.31105 240.79651 246.37107 252.46926 257.3456 260.82563 267.09837">EligibilityandDisqualification</tspan></text>
<text xml:space="preserve" transform="matrix(.9899495 0 -0 1.0101526 0 792)" font-size="10.799458" font-family="LMRoman10"><tspan y="-205.47885" x="72.322879 83.8459 90.15279 94.95855 99.19193 103.44692 108.84665 118.27458 127.27052 132.35706 141.4826 145.73758 150.54335 154.77674 160.17647 168.39485 173.79457 183.2225 187.4235 193.428 201.65718 210.13475 215.2213 220.62102 225.42679 229.66017 235.66468 238.66692 244.67142 253.49459 261.1406 266.8427 272.8472 281.97276 287.37248 293.37696 296.3792 305.49397 308.49623 315.22428 319.42524 325.42976 330.23548 339.36103 344.16676 349.5665 358.9836 364.38334 369.1891 376.81349 379.81575 385.82023 391.82475 396.63047 402.93736 407.7431 413.7476 419.7521 424.55787 430.25996 434.46095 437.4632 446.5887 451.98844 457.99296 467.41007 473.41459 476.4168 480.6826 485.47755 488.4798 493.87953 498.13453 506.36369 511.16944 516.56918 522.5736 525.57589 528.5781 531.5803 536.3861 540.58706 544.84207">ApersonmayserveontheGoverningBodyonlyiftheycanactindependentlyanddiscloseconflicts.</tspan></text>
<text xml:space="preserve" transform="matrix(1.0099504 0 -0 .99014756 0 792)" font-size="11.017651" font-family="LMRoman10"><tspan y="-189.10414" x="70.89061 83.96857 90.39185 95.29471 99.613628 103.95458 109.46341 120.40394 129.58165 134.793 145.42504 149.76599 154.66886 158.98778 164.50762 174.22519 179.73403 190.67456 194.96042 201.08623 210.8038 219.45265 224.66402 230.18386 235.08672 239.40564 245.53145 248.59436 254.72017 265.04368 272.84419 278.65049 284.77629 295.40834 300.91716 307.04295 310.10588 320.73789 323.80079 331.98689 336.27278 342.3986 347.30143 357.93345 364.05928 368.9621 378.1398 383.64863 389.7744 394.1154 398.40129 402.72019 408.229 412.5149 422.23243 432.567 436.90794 443.03376 447.37474 451.66059 457.1694 460.2323 466.35813 471.26097 477.38679 485.5619 491.07069 496.888 502.69429 508.8201 512.48898 515.8604 521.36929 524.4321 528.718">ApersonmayserveontheGoverningBodyonlyiftheydemonstrateasustained,good-faith</tspan><tspan y="-175.42034" x="71.290637 76.19348 81.7023 90.88001 100.05772 103.12062 107.406497 116.5842 121.48705 127.31539 135.56761 139.85347 149.32868 154.8375 160.9633 164.02622 173.20392 178.71276 185.74202 193.39929 198.30216 201.36505 204.73647 210.24529 214.56421 219.46707 226.58446 232.41281 238.53862 247.71633 253.22516 263.31733 270.9746 275.87745 278.94035 282.31175 287.82057 292.1395 297.04234 304.15974 309.66856 317.95387 322.2728 327.17564 331.5166 337.9509 343.45973 349.5855 353.92649 356.98939 363.1152 366.1781 375.0473 380.55613 386.68196 389.74485 398.92256 404.43135 411.46064 415.80158 420.08747 424.9903 432.64756 438.15638 442.4753 448.60115 452.94209 459.0679 462.1308 468.25663 475.37403 480.88285 489.19017 494.09303 499.3154 504.82423 507.88713 514.01296 519.5218 523.8076 528.7105">commitmenttoanimalwelfare,humanwelfare,orresponsibleanimalstewardship,asevaluated</tspan></text>
<text xml:space="preserve" transform="matrix(1 0 -0 1 0 792)" font-size="10.9091" font-family="LMRoman10"><tspan y="-160.143" x="72 76.24364 82.3091 86.585468 92.040019 98.10548 103.56003 113.25822 117.501857 123.567317 132.0655 137.52005 141.79642 147.25096 152.7055 158.77097 161.8037 166.65825 172.1128 176.35643 179.38916 184.8437 190.90917 193.9419 201.87282 205.211 210.66555 214.94191 224.02919 229.48374 236.1492 243.87285 249.3274 254.78194 259.0583 268.7674 274.22196 279.0765 283.32017 287.5638 290.59654 296.662 305.74928 311.81474 316.0911 321.8511 326.70567 331.5602 335.8584 340.1566">throughtheorganization&#x2019;sformalBoardvettingprocess.</tspan></text>
<text xml:space="preserve" transform="matrix(.9899495 0 -0 1.0101526 0 792)" font-size="10.799458" font-family="LMRoman10"><tspan y="-138.41374" x="72.73098 81.20855 86.30589 91.694828 96.50059 100.73398 106.73848 109.74073 115.74523 123.74762 131.39363 137.10655 143.11106 151.40505 160.40099 165.20676 173.90032 180.2072 185.01296 189.24636 193.50133 199.50583 202.50809 211.11525 214.11751 220.97515 225.78092 231.18064 237.18514 243.18964 246.1919 250.39289 253.39513 258.79484 264.79936 270.19908 275.804 281.2037 289.81089 294.61665 300.01637 305.71849 309.91944 312.9217 318.61305 324.62834 329.42329 338.03044 342.83619 348.2359 357.23188 363.23637 366.23863 369.24089 374.6406 380.6451 385.45085 392.85926 400.65647 403.65873 407.85969 416.46687 420.66783 426.67234 429.6746 436.53224 440.7656 445.57136 451.27348 457.27796 460.2802 464.51359 469.31935 478.3153 483.12104 488.82316 493.02415 500.56214 508.81297 511.8152 516.0702 520.876 525.9733 531.3622 536.16799 540.40139">GoverningBodymembershipisconditionaloncontinuedcompliancewiththisrequirement.Discovery</tspan><tspan y="-125.00091" x="72.73098 78.13071 84.86957 90.87407 93.87632 98.1313 103.83342 109.83792 115.23765 118.2399 121.24215 124.54678 130.24889 133.25115 139.26645 148.1004 152.90618 158.3059 164.3104 170.3149 176.3194 181.12517 188.76039 192.96138 197.19477 200.19702 205.59674 210.99648 215.80223 220.03563 227.72484 236.7208 242.12052 248.12502 254.14032 259.52928 263.73027 269.12998 273.36335 282.5105 286.74388 291.54963 297.25175 300.25398 305.05973 316.29118 321.6909 327.6954 337.13414 341.3675 346.17326 355.16923 360.26655 365.35313 370.75285 377.2001 380.19157 389.64109 395.04084 399.84657 404.6523 410.05204 414.28544 420.28993 425.68965 431.69416 436.49989 444.73988 452.53709 455.53935 459.7403 469.17906 477.65663 482.75395 488.1537 492.9594 497.1928 503.1973 506.19956 512.20407 521.03799 528.68399 534.38607 540.39059">ofdisqualifyingconducttriggersmandatoryreviewandremovalinaccordancewithGoverningBody</tspan></text>
<text xml:space="preserve" transform="matrix(1 0 -0 1 0 792)" font-size="10.9091" font-family="LMRoman10"><tspan y="-112.721" x="72 76.27637 81.13092 90.2182 95.367298 100.5273 105.98185 112.64731 118.71277 122.989139 128.74913 133.60369 138.45824 144.5237 150.58916 154.86553 159.72008 164.01827">removalprocedures.</tspan><tspan y="-92.397" x="71.596 83.41055 89.78147 94.63602 98.912387 103.21057 108.66512 118.37422 127.156047 133.2215 137.51969 145.39606 151.46152 156.91606 164.80335 169.10153 173.95609 178.23246 183.68701 192.1743 197.62885 207.32704 211.57068 217.63614 226.13434 234.69799 239.84708 245.30164 250.15619 254.43256 260.49803 263.53074 269.5962 278.6944 286.41804 292.16716 298.2326 307.63627 310.66899 317.6399 321.88356 327.949 332.80357 338.56358">ApersonmustnotserveontheGoverningBodyifthey:</tspan></text>
<text xml:space="preserve" transform="matrix(1 0 -0 1 0 792)" font-size="10.9091" font-family="LMRoman10"><tspan y="-42.112005" x="300.545 305.99958">23</tspan></text>
</svg>
