<svg xmlns="http://www.w3.org/2000/svg" xmlns:xlink="http://www.w3.org/1999/xlink" xmlns:inkscape="http://www.inkscape.org/namespaces/inkscape" version="1.1" width="612" height="792" viewBox="0 0 612 792">
<text xml:space="preserve" transform="matrix(1 0 -0 1 0 792)" font-size="10.9091" font-family="LMRoman10" font-weight="bold"><tspan y="-709.041" x="72 78.97092 83.84728 89.94547 94.82184 101.792758 106.74548">Status:</tspan></text>
<text xml:space="preserve" transform="matrix(1 0 -0 1 0 792)" font-size="10.9091" font-family="LMRoman10"><tspan y="-709.041" x="115.06913 122.79277 125.8255 131.90187 137.96733 141.00006 147.06552 156.1528 164.71645 169.86554 175.3201 180.17465 184.45102 190.51648 195.97103 202.03649 206.89104 215.38924 221.4547 226.0038 232.06926 236.92382 242.98928 249.05474 252.08747">BindingGovernanceSchedule</tspan></text>
<text xml:space="preserve" transform="matrix(.9939819 0 -0 1.0060546 0 792)" font-size="10.843447" font-family="LMRoman10" font-weight="bold"><tspan y="-691.3064" x="71.95604 81.032009 87.96097 92.80798 99.736949 105.971927 111.11172 114.57078 119.05996 125.64193">Authority:</tspan></text>
<text xml:space="preserve" transform="matrix(.9939819 0 -0 1.0060546 0 792)" font-size="10.843447" font-family="LMRoman10"><tspan y="-691.3064" x="133.98055 141.80953 147.83849 153.26021 159.28917 163.50727 168.33261 178.02666 183.752 193.13158 197.34969 203.37865 211.85822 220.37032 225.48844 230.91016 235.73549 239.98613 246.01509 249.02957 255.05852 264.1345 271.81166 277.54786 283.5768 292.9564 298.98536 305.0143 309.26493 313.53727 319.56623 324.98796 330.7133 338.58564 342.80375 351.89057 356.10868 362.13764 370.61723 378.4462 383.86793 389.89689 394.1692 399.59095 402.6054 405.61988 411.64884 417.0706 421.28868 426.114 435.80809 444.32017 449.43827 454.84919 459.6745 463.9251 469.95408 475.3758 481.40476 486.2301 494.72053 503.0049 508.73027 513.5556 519.58456 528.6171 533.44247 539.1677">AdoptedbytheGoverningBodypursuanttotheConsolidatedGovernanceDocument</tspan></text>
<text xml:space="preserve" transform="matrix(.9939819 0 -0 1.0060546 0 792)" font-size="10.843447" font-family="LMRoman10" font-weight="bold"><tspan y="-677.8389" x="72.43593 79.36489 84.90589 91.14087 98.416828 104.131328">Scope:</tspan></text>
<text xml:space="preserve" transform="matrix(.9939819 0 -0 1.0060546 0 792)" font-size="10.843447" font-family="LMRoman10"><tspan y="-677.8389" x="112.46993 120.75432 125.57966 128.59413 131.60861 137.63756 142.4629 150.37863 154.59673 160.62569 169.09442 173.91976 179.6451 184.47043 187.48491 193.51387 197.7862 200.80068 206.2224 214.70198 220.1237 226.45629 229.77437 234.5997 239.42505 243.64315 247.91547 254.57335 258.84568 264.571 268.84333 273.06144 277.88676 286.91938 291.19169 297.8604 303.28215 309.3111 318.98347 325.32688 330.1522 334.39198 338.67515 344.09687 350.12583 358.04154 365.8705 368.88499 373.1031 379.13206 382.14656 391.81889 399.64787 405.67683 408.69129 413.213 422.8962 427.72157 436.75416 441.5795 445.8301 451.25184 456.06636 462.10615 466.92063 476.30024 481.72196 487.75093 491.96903 497.99797 503.4197 507.67033 510.68479 514.5993 523.96798 533.00057 538.11868">Definestheexclusiveobjects,systems,andpersonswithinwhichemergencyauthoritymay</tspan></text>
<text xml:space="preserve" transform="matrix(1 0 -0 1 0 792)" font-size="10.9091" font-family="LMRoman10"><tspan y="-668.394" x="72 78.37092 86.85819 91.71274 97.47274 102.327289 106.60365 111.458209 114.49094 118.78912 123.64368">beexercised</tspan></text>
<text xml:space="preserve" transform="matrix(.9899495 0 -0 1.0101526 0 792)" font-size="10.799458" font-family="LMRoman10" font-weight="bold"><tspan y="-648.26248" x="72.73098 81.21935 86.338298 92.02961 97.548137 103.23945 110.140308 115.83162 122.732479 128.25099 133.9423">Precedence:</tspan></text>
<text xml:space="preserve" transform="matrix(.9899495 0 -0 1.0101526 0 792)" font-size="10.799458" font-family="LMRoman10"><tspan y="-648.26248" x="142.20389 148.20839 154.21289 160.53058 165.9303 170.1529 176.1682 179.17044 185.17494 190.57468 194.77567 203.09125 207.29224 216.20178 220.40277 226.40727 234.72287 242.52007 247.9198 253.9243 258.1793 263.579 266.58128 269.58354 275.588 280.98774 285.18873 289.99449 299.5088 307.98637 313.0837 318.47264 323.27839 327.51176 333.51628 338.916 344.92048 349.72624 358.0418 366.2926 372.0055 376.81126 382.81578 391.8117 396.61747 402.30879 406.50978 413.07585 417.8816 423.2813 428.98344 433.18443 437.4178 442.8175 445.81977 448.82203 451.82426 457.82878 466.7383 474.53553 480.54 485.34577 489.57914 497.8947 502.12809 506.93385 510.23847 515.0442 519.2776 524.0834 530.0879 534.8936 539.69937">SubordinatetotheConsolidatedGovernanceDocument;controllingwherereferenced</tspan></text>
<text xml:space="preserve" transform="matrix(1 0 -0 1 0 792)" font-size="10.9091" font-family="LMRoman10" font-weight="bold"><tspan y="-641.295" x="72 83.912738 90.88365 95.76002 101.85821 108.829128 112.30913 115.78913 119.269138 123.79641 130.41823">Mutability:</tspan></text>
<text xml:space="preserve" transform="matrix(1 0 -0 1 0 792)" font-size="10.9091" font-family="LMRoman10"><tspan y="-641.295" x="138.75278 146.78188 151.63643 157.39644 160.42917 164.72736 170.1819 176.24736 179.28009 187.76738 193.22193 199.28739 202.32012 211.71286 217.48378 226.87653 234.30562 240.06563 244.30927 248.58563 254.04018 259.49473 263.7711 269.83656 272.86927 278.93473 284.38929 288.66566 298.05839 305.4875 309.76387 315.52388 320.37843 325.23298 329.53117">RevisableonlybyExtraordinaryProcess</tspan></text>
<text xml:space="preserve" transform="matrix(1 0 -0 1 0 792)" font-size="14.3462" font-family="LMRoman12" font-weight="bold"><tspan y="-606.927" x="72">1</tspan></text>
<text xml:space="preserve" transform="matrix(1 0 -0 1 0 792)" font-size="14.3462" font-family="LMRoman12" font-weight="bold"><tspan y="-606.927" x="92.185108 103.21733 112.18371 118.78296 128.19406 136.27097 142.64069">Purpose</tspan></text>
<text xml:space="preserve" transform="matrix(.9964939 0 -0 1.0035185 0 792)" font-size="10.870851" font-family="LMRoman10"><tspan y="-580.5354" x="71.85895 79.7077 85.7519 88.773998 96.70971 102.75391 107.28705 113.331249 118.16877 124.21297 130.25716 133.27927 141.78028 146.6178 152.3576 158.4018 167.45722 172.29474 176.55612 181.99155 186.22029 191.05783 198.99355 203.2223 209.2665 217.75664 222.59416 228.33397 233.17151 236.1936 242.2378 246.5209 249.543 254.97843 263.46858 267.75169 272.58918 278.02464 284.3732 292.86335 298.29878 305.28874 311.63734 316.47483 320.7362 325.01933 330.45478 336.49897 340.78208 347.4568 352.8922 358.93644 361.95854 371.01396 376.4494 379.4715 383.7546 390.4402 395.87565 400.15876 404.44187 409.2794 413.50813 417.79127 424.46595 428.74906 434.79328 440.2287 445.06623 449.90376 454.18687 460.86158 466.297 472.34123 482.0489 486.332 492.07185 496.35496 500.58369 505.4212 514.4766 522.41238 526.6411 532.6853 538.1207">ThisScheduleenumeratestheexclusivescopeofpersons,animals,assets,spaces,andsystemsthat</tspan></text>
<text xml:space="preserve" transform="matrix(.9944848 0 -0 1.0055457 0 792)" font-size="10.848934" font-family="LMRoman10"><tspan y="-565.8898" x="72.3993 81.43646 86.55716 95.93064 102.26642 110.73943 116.1639 119.32637 122.48883 127.316608 132.14438 136.36463 141.1924 150.8588 156.58702 165.9605 170.78827 179.82544 184.65322 188.90599 194.33045 199.15822 205.19023 210.018 219.39148 224.81594 230.84795 235.06818 241.10018 246.52465 250.77742 253.79343 257.70988 267.08338 272.50788 280.4276 286.45964 291.2874 294.3034 297.31944 303.35145 308.1792 317.8456 320.8616 330.53889 334.75914 340.79115 349.2642 357.0971 362.52159 368.55363 372.8281 378.25257 381.26856 384.28459 390.3166 395.74107 399.9613 404.78907 414.46635 422.98277 428.1035 433.52796 438.35575 442.60853 448.64054 454.06504 460.09706 464.9248 473.39784 481.6864 487.41468 492.24244 498.27445 507.31166 512.1394 517.8676 525.73306 531.15756 537.1895">maybeaffectedbyemergencyauthorityasdefinedintheConsolidatedGovernanceDocumentand</tspan></text>
<text xml:space="preserve" transform="matrix(1 0 -0 1 0 792)" font-size="10.9091" font-family="LMRoman10"><tspan y="-555.479" x="72 76.24364 82.3091 90.79638 98.22548 107.31276 112.16731 116.44368 121.89823 126.75278 132.81824 137.67279 147.07645 153.1419 157.99646 163.451 169.811 178.3092 186.3383 191.19286 196.6474 199.68013 203.97832 208.22196 212.49832 221.89107 227.95653 232.2329 237.38199 243.142 246.17473 250.47292 253.50565 258.9602 265.02568 272.9675 277.21116 283.2766 288.13117 292.40754 297.2621 300.2948 306.36027">theEmergencyScopeRegistryprovisionstherein.</tspan><tspan y="-535.155" x="72 80.18182 89.269107 94.12366 103.21094 108.06549 112.34186 117.79641 122.650959 128.71642 133.57097 142.96372 148.41826 154.49463 158.73827 164.80373 170.25827 174.53464 177.56737 181.50556 190.8983 199.98558 205.13468 214.53833 220.89833 229.39653 234.25109 240.0111 244.86565 249.14202 253.99657 257.0293 261.32749 266.18205 275.88023 281.33479 287.40025 291.6439 295.94209 298.9748 305.04026 313.52754 317.77119 323.83665 332.33485 336.63304 341.48759 346.94215 353.30216 361.80036 366.6549 372.41493 378.48039 381.5131 384.5458 389.40037 392.43309 396.67674 399.70945 409.10218 415.16764 420.0222 423.0549 426.08766 432.1531 437.00767 446.70585 449.73857 459.44767 463.6913 469.75679 472.7895 480.7204 486.78587 491.33497 497.40043 502.25498 508.32044 514.38589 517.4186 522.27316">NoemergencyauthoritymaybeexercisedoutsidethescopeexplicitlydefinedinthisSchedule.</tspan></text>
<text xml:space="preserve" transform="matrix(1 0 -0 1 0 792)" font-size="14.3462" font-family="LMRoman12" font-weight="bold"><tspan y="-500.78703" x="72">2</tspan></text>
<text xml:space="preserve" transform="matrix(1 0 -0 1 0 792)" font-size="14.3462" font-family="LMRoman12" font-weight="bold"><tspan y="-500.78703" x="92.185108 104.86715 112.22675 121.19313 128.55274 135.152 142.99936 152.86954 164.533 172.60991 181.57628 187.946 194.22963 200.82889 208.67626 213.16661 221.68825 227.97188">GeneralConstraints</tspan></text>
<text xml:space="preserve" transform="matrix(1 0 -0 1 0 792)" font-size="10.9091" font-family="LMRoman10"><tspan y="-476.43803" x="72 79.4291 88.51638 93.370929 97.64729 103.101848 107.95639 114.02185 118.8764 128.26914 133.72368 139.78914 144.03278 150.09824 155.55278 159.82915 162.86188 166.81098 172.57099">Emergencyauthority:</tspan></text>
<text xml:space="preserve" transform="matrix(1 0 -0 1 0 792)" font-size="10.9091" font-family="LMRoman10"><tspan y="-450.13603" x="72">&#x2022;</tspan></text>
<text xml:space="preserve" transform="matrix(1 0 -0 1 0 792)" font-size="10.9091" font-family="LMRoman10"><tspan y="-450.13603" x="85.94183 90.79639 96.55639 99.58912 103.88731 108.13094 116.06186 120.36005 125.8146 128.84732 133.70188 136.7346 146.13826 150.3819 159.46918 165.53464 169.811 174.66556 180.12012 184.97467 190.73468 198.62197 201.6547 210.74198 219.82926 222.86199 228.92745 233.782 239.542 247.41838 253.48384 258.9384 263.21476 272.30204">existssolelytopreventimminentharm,</tspan></text>
<text xml:space="preserve" transform="matrix(1 0 -0 1 0 792)" font-size="10.9091" font-family="LMRoman10"><tspan y="-427.82" x="72">&#x2022;</tspan></text>
<text xml:space="preserve" transform="matrix(1 0 -0 1 0 792)" font-size="10.9091" font-family="LMRoman10"><tspan y="-427.82" x="85.94183 95.02911 100.17821 109.58185 115.94186 124.44004 129.29459 135.0546 139.90915 144.18552 149.02916 152.06189 156.37099 161.21463 170.92374 176.37828 182.44374 185.47647 194.86922 202.74559 205.77832 210.02196 216.08742 219.12015 228.82926 233.07289 239.13835 247.62564 251.92383 256.77839 262.23295 268.60386 277.09114 282.5457 288.9166 292.2548 297.10935 301.9639 306.20756 314.13847 318.993 324.75303 330.81849 339.90577 344.7603 349.03669 354.49125 358.7349 363.58946 373.29856 376.33128 386.02946 390.2731 396.33857 399.37129 407.3022 413.36766 417.92765 423.9931 428.84767 434.91313 440.97859 444.0113 448.86585">maybeexercisedonlywithinthescopeobjectsenumeratedinthisSchedule,</tspan></text>
<text xml:space="preserve" transform="matrix(1 0 -0 1 0 792)" font-size="10.9091" font-family="LMRoman10"><tspan y="-405.504" x="72">&#x2022;</tspan></text>
<text xml:space="preserve" transform="matrix(1.0099504 0 -0 .99014756 0 792)" font-size="11.017651" font-family="LMRoman10"><tspan y="-409.53898" x="85.09329 93.97352 100.099338 104.440288 112.725559 117.62841 123.13724 132.31494 138.44077 141.50366 151.30937 159.26412 162.32701 166.61287 176.7381 182.24692 185.30983 192.37215 196.658 200.97692 204.03983 209.54866 215.05748 219.96035 228.26766 232.60861 236.89447 242.4033 248.52912 254.65493 260.16377 264.48268 270.6085 274.94947 282.11094 286.45188 290.73777 296.24659 306.3718 311.27467 316.78346 322.90928 329.0351 332.098 336.38389 339.44679 344.9556 351.0814 355.42237 362.58384 368.09266 374.21849 384.3437 389.24656 395.06388 401.18968 404.2526 408.57154 414.08033 418.3662 421.4181 426.9269 437.05213 440.11506 443.17796 452.35566 455.41856 459.7044 468.0448 474.17063 479.07347 482.13636 485.19929 491.32508 496.22795 506.35316 509.4161 519.5413 523.82717 529.95297">mustcomplywithalltriggerstandards,stopconditions,andexpirationlimitsdefinedinthe</tspan></text>
<text xml:space="preserve" transform="matrix(1 0 -0 1 0 792)" font-size="10.9091" font-family="LMRoman10"><tspan y="-391.955" x="85.94 93.3691 102.45638 107.31093 111.587299 117.04185 121.89639 127.96185 132.8164 142.20915 148.27462 153.12917 158.58371 164.95462 173.44191 181.47101 186.32556 191.7801 194.81284 199.11103 203.35466 207.63103 212.48558">EmergencyScopeRegistry,</tspan></text>
<text xml:space="preserve" transform="matrix(1 0 -0 1 0 792)" font-size="10.9091" font-family="LMRoman10"><tspan y="-369.638" x="72">&#x2022;</tspan></text>
<text xml:space="preserve" transform="matrix(1 0 -0 1 0 792)" font-size="10.9091" font-family="LMRoman10"><tspan y="-369.638" x="85.94183 94.723659 100.789119 105.0873 112.97458 119.33459 127.83277 130.8655 136.32004 141.77458 147.22913 152.08368 161.78188 167.23642 175.16735 184.26554 194.26918 199.72373 203.96736 208.82192 213.09828 216.13101 221.58556 228.25102 236.1274 240.98195 245.22559 248.25832 253.71286 263.42198 269.48744 273.7856 276.81834 282.8838 291.97108 297.42564 307.1238 311.97837 321.06565 325.9202 330.19657 335.65113 340.50569 346.57115 351.4257 360.81843 363.85115 369.3057 378.4039 382.7021 386.94575 393.0112 399.07667">mustbeloggedasaMaterialActionusinganemergencylogstub.</tspan><tspan y="-343.337" x="72 78.06546 81.09819 84.13092 88.98547 95.050937 99.90549 108.39277 111.4255 121.1346 125.378238 131.4437 134.47643 142.40735 148.47281 153.02191 159.08737 163.94193 170.00739 176.07285 179.10558 187.60378 193.66924 199.41832 204.27288 212.2147 218.28017 223.73471 231.61109 236.46564 241.92018 247.98564 251.32382 256.17839 264.08747 269.54203 275.60749 279.85115 285.9166 291.37117 295.64753 298.68025 302.62934 307.473">SilenceinthisScheduledoesnotconferauthority.</tspan></text>
<text xml:space="preserve" transform="matrix(1 0 -0 1 0 792)" font-size="14.3462" font-family="LMRoman12" font-weight="bold"><tspan y="-308.969" x="72">3</tspan></text>
<text xml:space="preserve" transform="matrix(1 0 -0 1 0 792)" font-size="14.3462" font-family="LMRoman12" font-weight="bold"><tspan y="-308.969" x="92.185108 98.19616 107.16254 112.54236 121.508739 128.68184 136.75875 146.16985 158.90927 169.49677 176.85637 183.45563 189.82535 197.90225 206.86862">In-ScopePersons</tspan></text>
<text xml:space="preserve" transform="matrix(.9899495 0 -0 1.0101526 0 792)" font-size="10.799458" font-family="LMRoman10"><tspan y="-281.7584" x="72.73098 80.08541 89.08135 93.887119 98.12051 103.52023 108.326 114.3305 119.13626 128.49939 133.89913 139.90363 144.10462 150.10912 155.50884 159.74224 162.74448 166.64308 176.00621 185.00215 190.0887 199.46263 204.86237 208.0104 211.15845 215.9642 220.75916 228.63198 232.83296 238.83747 247.30425 250.60887 256.0086 259.01087 262.0131 267.09968 274.89686 277.8991 283.90364 292.97517 299.28205 304.0878 308.32118 312.57615 317.9759 327.6414 332.44715 335.44938 340.84913 345.1041 349.35908 354.16484 362.0808 366.3358 371.7355 374.73777 379.54353 382.54579 391.90888 395.21354 400.61326 408.51844 414.52296 420.52745 424.7608 431.0677 436.46745 440.7224 445.52818 453.44416 458.84388 465.8095 468.81178 477.8077 486.80369 491.60945 497.61393 500.61619 506.0159 510.2169 518.68368 522.9494 528.3491 531.65377 536.45956 540.3473">Emergencyauthoritymayaffectthefollowingpersonclassessolelyforpurposesofimmediatesafety</tspan></text>
<text xml:space="preserve" transform="matrix(1 0 -0 1 0 792)" font-size="10.9091" font-family="LMRoman10"><tspan y="-271.07" x="72 77.45455 83.52001 93.2182 99.28366 104.73821 109.01458 121.7455 127.81096 132.08733 136.94188 142.39644 147.25099 153.011 157.25464 160.28737 165.74192 171.80738">andharmprevention:</tspan></text>
<text xml:space="preserve" transform="matrix(1 0 -0 1 0 792)" font-size="10.9091" font-family="LMRoman10"><tspan y="-244.76902" x="72">&#x2022;</tspan></text>
<text xml:space="preserve" transform="matrix(1 0 -0 1 0 792)" font-size="10.9091" font-family="LMMono10"><tspan y="-244.76902" x="85.94183 91.66911 97.39639 103.12367 108.85095 114.57823 120.30551 126.03279 131.76007 137.48735 143.21463 148.94191">PERSON.GUEST</tspan></text>
<text xml:space="preserve" transform="matrix(1 0 -0 1 0 792)" font-size="10.9091" font-family="LMRoman10"><tspan y="-222.45201" x="72">&#x2022;</tspan></text>
<text xml:space="preserve" transform="matrix(1 0 -0 1 0 792)" font-size="10.9091" font-family="LMMono10"><tspan y="-222.45201" x="85.94183 91.66911 97.39639 103.12367 108.85095 114.57823 120.30551 126.03279 131.76007 137.48735 143.21463 148.94191">PERSON.STAFF</tspan></text>
<text xml:space="preserve" transform="matrix(1 0 -0 1 0 792)" font-size="10.9091" font-family="LMRoman10"><tspan y="-200.13602" x="72">&#x2022;</tspan></text>
<text xml:space="preserve" transform="matrix(1 0 -0 1 0 792)" font-size="10.9091" font-family="LMMono10"><tspan y="-200.13602" x="85.94183 91.66911 97.39639 103.12367 108.85095 114.57823 120.30551 126.03279 131.76007 137.48735 143.21463 148.94191 154.66919 160.39647 166.12375 171.85103">PERSON.VOLUNTEER</tspan></text>
<text xml:space="preserve" transform="matrix(1 0 -0 1 0 792)" font-size="10.9091" font-family="LMRoman10"><tspan y="-177.82003" x="72">&#x2022;</tspan></text>
<text xml:space="preserve" transform="matrix(1 0 -0 1 0 792)" font-size="10.9091" font-family="LMMono10"><tspan y="-177.82003" x="85.94183 91.66911 97.39639 103.12367 108.85095 114.57823 120.30551 126.03279 131.76007 137.48735 143.21463 148.94191 154.66919 160.39647 166.12375 171.85103 177.57831 183.30559">PERSON.PARTICIPANT</tspan></text>
<text xml:space="preserve" transform="matrix(1 0 -0 1 0 792)" font-size="10.9091" font-family="LMRoman10"><tspan y="-151.51802" x="72 79.4291 88.51638 93.370929 97.64729 103.101848 107.95639 114.02185 118.8764 128.26914 133.72368 139.78914 144.03278 150.09824 155.55278 159.82915 162.86188 166.81098 176.20372 184.98555 191.05101 195.3492 203.22557 209.30194 214.75649 219.00012">Emergencyauthoritymustnot:</tspan></text>
<text xml:space="preserve" transform="matrix(1 0 -0 1 0 792)" font-size="10.9091" font-family="LMRoman10"><tspan y="-125.21702" x="72">&#x2022;</tspan></text>
<text xml:space="preserve" transform="matrix(1 0 -0 1 0 792)" font-size="10.9091" font-family="LMRoman10"><tspan y="-125.21702" x="85.94183 90.2182 95.072757 100.5273 105.98185 111.43639 119.93458 124.210948 127.243679 132.69823 138.45824 142.70188 147.00006">revokerights,</tspan></text>
<text xml:space="preserve" transform="matrix(1 0 -0 1 0 792)" font-size="10.9091" font-family="LMRoman10"><tspan y="-102.90102" x="72">&#x2022;</tspan></text>
<text xml:space="preserve" transform="matrix(1 0 -0 1 0 792)" font-size="10.9091" font-family="LMRoman10"><tspan y="-102.90102" x="85.94183 88.97456 98.061847 104.43276 109.887317 114.1855 122.67278 128.73824 131.77097 136.06916 140.9237 143.95644 150.0219 153.05463 156.08736 162.15282 167.00737">imposediscipline,</tspan></text>
<text xml:space="preserve" transform="matrix(1 0 -0 1 0 792)" font-size="10.9091" font-family="LMRoman10"><tspan y="-80.584018" x="72">&#x2022;</tspan></text>
<text xml:space="preserve" transform="matrix(1 0 -0 1 0 792)" font-size="10.9091" font-family="LMRoman10"><tspan y="-80.584018" x="85.94183 91.396389 97.461849 101.70548 107.77094 113.225498 117.50186 120.53459 125.389148 133.87644 138.73099 144.491 147.52373 152.37828 156.62192 159.65465 165.10919 171.17465 177.84012 183.91649 189.37104 195.4365 201.50196 204.53469 210.60015 216.05469 222.72016 228.1747 236.0838 240.32744 244.6038 249.45836 253.75655 259.822 265.27656 269.57475 273.87294">authorizeeviction,banning,ortrespass,</tspan></text>
<text xml:space="preserve" transform="matrix(1 0 -0 1 0 792)" font-size="10.9091" font-family="LMRoman10"><tspan y="-42.112016" x="303.273">2</tspan></text>
</svg>
