<svg xmlns="http://www.w3.org/2000/svg" xmlns:xlink="http://www.w3.org/1999/xlink" xmlns:inkscape="http://www.inkscape.org/namespaces/inkscape" version="1.1" width="612" height="792" viewBox="0 0 612 792">
<text xml:space="preserve" transform="matrix(1 0 -0 1 0 792)" font-size="11.9552" font-family="LMRoman12" font-weight="bold"><tspan y="-709.041" x="72 78.73078 82.47276">5.2</tspan></text>
<text xml:space="preserve" transform="matrix(1 0 -0 1 0 792)" font-size="11.9552" font-family="LMRoman12" font-weight="bold"><tspan y="-709.041" x="99.29373 112.04993 115.79191 121.10002 126.40813 130.1501 136.88088">Mission</tspan></text>
<text xml:space="preserve" transform="matrix(1.0099504 0 -0 .99014756 0 792)" font-size="11.017651" font-family="LMRoman10"><tspan y="-695.2984" x="71.290637 79.55387 84.45672 96.245609 104.66309 110.17192 115.68075 121.18958 126.09243 130.41136 133.46324 138.97208 145.1089 155.05783 159.9607 165.77802 168.84091 173.18189 177.46775 185.64286 189.92871 199.27169 203.5906 208.48246 212.83443 217.12029 222.62912 226.93701 235.67403 241.18286 247.30867 257.26863 263.39445 267.71339 273.2222 277.50807 282.41093 287.31376 295.42277 299.70866 305.83445 314.57145 320.69725 323.76017 329.26896 335.39479 338.45768 342.44609 352.09754 357.60636 364.80088 370.9267 376.43553 381.9443 390.11943 395.62825 401.75404 411.714 418.1373 423.04014 428.54896 434.67475 437.73768 446.47465 450.76054 456.88633 461.20527 466.71409 472.8399 478.3487 488.29768 491.36058 496.8694 502.99519 508.50404 512.1729 516.45877 521.36166 525.68057">NewDoggerlandexiststorestoreandprotectthedignityofdogsandpeoplethroughlong-term</tspan><tspan y="-681.61459" x="71.290637 75.631587 79.91745 84.820308 92.47757 97.9864 102.30531 108.43112 112.77208 118.89789 121.9608 128.08663 136.51512 142.64095 145.70384 150.02277 154.92563 159.82849 169.12738 174.03023 179.53907 183.85799 188.76084 197.18935 202.69818 208.82399 219.97385 224.87671 230.38555 239.56325 248.43245 254.55826 260.68409 263.74699 267.73539 278.56575 284.07456 288.97743 293.88026 298.7831 303.12406 312.48908 316.77494 327.2968 331.63777 337.14659 340.51799 345.4208 353.8493 359.97514 363.03804 368.55787 373.46073 377.77964 382.1206 392.0365 396.93934 402.76768 408.585 411.6479 415.96684 421.47566 427.60148 436.77915 441.682 447.5103 451.7962 461.1502 464.5216 470.03044 479.3624 484.26524 490.07154 494.9744 500.79173 503.8546 508.1956 512.48147 517.3843 523.51016 528.41299 533.31588">stewardship,directcare,andcommunityaccesstosafe,diverseenvironmentsforcoexistence,</tspan></text>
<text xml:space="preserve" transform="matrix(1.0069758 0 -0 .9930726 0 792)" font-size="10.985198" font-family="LMRoman10"><tspan y="-665.9633" x="71.11095 79.04226 85.150028 90.038448 94.344638 102.84718 107.175357 113.28312 117.86395 127.585849 133.07845 137.96686 142.85527 147.74369 152.07187 160.01418 163.06807 171.01038 175.8878 181.3804 187.49916 191.82732 194.88121 199.20938 203.48262 208.37105 214.17122 222.0586 229.9899 233.0438 237.31703 247.03894 252.53154 258.6393 261.6932 270.8439 276.3365 282.9935 290.6282 295.51664 298.57054 301.93199 307.4246 311.73078 320.23335 325.72593 331.8337 341.54466 347.6524 350.7063 356.1989 362.31767 365.3606 369.33723 378.75154 383.63993 389.13255 395.24034 399.56849 403.8417 408.14793 413.64054 416.69444 422.49464 426.76786 431.107 438.9724 447.21134 450.26524 456.92225 465.16114 470.04954 481.59498 489.98768 495.48027 500.97288 506.46546 511.35386 515.66006 518.7139 524.20657 530.3143">wheresuchaccessisconsistentwithanimalwelfareanddignityconstraints.AllNewDoggerland</tspan></text>
<text xml:space="preserve" transform="matrix(.9899495 0 -0 1.0101526 0 792)" font-size="10.799458" font-family="LMRoman10"><tspan y="-641.2902" x="72.73098 78.13071 84.43759 89.243358 93.476749 98.87647 103.07746 106.07971 111.47944 117.48394 124.84917 129.65493 135.35704 138.35929 142.61428 149.9147 154.1157 162.62567 166.88065 172.88515 178.88965 185.19654 190.59627 194.82965 202.14089 207.54062 213.54512 222.64907 226.91486 232.91936 237.17433 241.37532 246.77506 249.7773 258.88127 264.28099 270.2855 273.28773 282.2837 287.6834 293.7959 298.0293 302.83503 307.09004 311.89576 317.90028 322.706 328.92649 333.18147 338.5812 344.5857 349.39146 353.5924 359.59693 364.99665 369.23 374.0142 380.23469 385.6344 391.6389 400.74287 406.14259 412.14707 417.5468 423.5513 427.7523 430.75453 436.15428 442.15876 448.37925 453.77897 459.78349 468.8982 477.89418 482.99153 491.79307 497.79759 503.1973 510.5085 515.90829 522.2151 527.0208 531.2543 536.654 540.8549">operationsexisttosupportandsustainanimalrescue,sanctuary,andadoption,andmaynotoperate</tspan></text>
<text xml:space="preserve" transform="matrix(1.0059822 0 -0 .9940535 0 792)" font-size="10.974359" font-family="LMRoman10"><tspan y="-638.0451" x="71.57184 74.62271 80.72446 86.8262 91.709789 98.11881 102.991428 109.10414 115.20589 120.08948 125.883937 130.15297 133.20383 142.59787 148.08506 155.0428 159.31183 165.41358 170.90074 178.76937 184.87111 190.97286 195.2748 201.67285 207.16004 211.48394 216.36751 224.23612 232.1596 238.26136 246.73355 252.22074 256.52268 262.00987 267.49708 273.59883 276.6497 281.53327 287.02049 291.2895 294.34037 299.8275 309.52888 315.63059 319.93257 325.727 330.6106 335.4942 340.37779 346.47953 354.39204 362.31553 365.3664 369.6354 379.33674 383.6387 388.5223 392.8462 397.1152 401.41719 406.9044 409.95524 415.76069 420.02973 426.68019 432.78193 437.0839 440.13478 445.62193 449.9239 452.97477 457.24378 460.29466 465.17823 468.2291 474.33085 483.40666 488.89384 494.99555 498.04643 507.18806 512.67526 519.32577 524.8129 530.9147">independentlyofthatpurpose.Theorganizationproceedswithrestraint,prioritizinganimaland</tspan></text>
<text xml:space="preserve" transform="matrix(.9949875 0 -0 1.0050378 0 792)" font-size="10.854417" font-family="LMRoman10"><tspan y="-617.59078" x="72.36272 78.09386 84.128917 93.17064 98.59785 108.301708 114.33676 117.35429 122.781497 128.81655 131.83408 135.75252 145.14159 150.26488 155.6921 160.52231 168.43517 173.86238 178.11731 183.2406 191.07749 195.29985 201.33492 208.02123 212.85144 215.86536 218.87928 221.89318 226.72339 229.7409 234.57112 240.60617 245.43639 250.2449 256.9312 263.27018 268.6974 274.73243 280.76747 283.785 289.2122 293.46714 296.48469 300.4031 305.22248 311.90879 317.336 325.24888 329.52555 334.35575 339.78297 342.80049 347.6307 354.31703 359.7442 365.77925 375.47227 380.89945 385.72966 390.55989 395.39009 401.4251 405.6475 408.66505 414.70008 423.79606 426.81358 429.83113 438.87284 441.87953 446.1019 454.04734 459.47453 469.17835 473.99769 479.72883 485.77473 491.2019 497.23698 501.5136 504.53117 509.95835 515.9934 522.6688 527.4991 532.92636 537.20297 541.42538">humandignityovergrowth,efficiency,popularity,orscale,andacceptinglimitsonexpansion,cost,</tspan></text>
<text xml:space="preserve" transform="matrix(1.0004999 0 -0 .9995003 0 792)" font-size="10.914554" font-family="LMRoman10"><tspan y="-607.45657" x="71.96403 77.42131 85.31254 89.61287 94.46985 99.927127 106.30122 114.77093 122.65123 128.71971 133.57669 143.26883 147.54734 152.39339 158.15627 164.23569 167.25902 171.53752 176.3945 186.08663 190.33238 199.40238 205.47087 211.53937 217.60787 223.06516 226.0994 235.7806 240.02635 246.09485 251.55214 259.42155 263.72187 267.96766 273.4249 279.4934 285.56193 291.01918 295.29768 301.36619 309.23558 317.42149 322.27845 333.77149 342.1102 347.56748 353.02476 358.482 363.339 367.6175 370.65174 376.109 382.1775 391.86964 397.3269 403.39543 408.5471 414.00437 420.07289 424.92985 429.7868 437.71083 440.73414 446.81358 451.6596 455.9381 460.7951 469.88694 474.7439 480.5177 484.7635 490.22077 493.255 496.28926 501.13536 507.79325 513.25057 519.31906 525.3875 528.42178 534.4903">orscopewhenrequiredtoupholdthatstandard.NewDoggerlandadvancesincrementally,adding</tspan><tspan y="-593.90078" x="71.96403 75.30388 80.16086 85.61814 89.8639 95.932399 100.2109 105.06788 112.991847 118.44913 124.51762 134.20973 138.51009 143.36707 147.64556 153.40845 156.44269 161.29967 166.15665 174.08061 179.5379 185.60639 188.64063 198.01622 203.47351 211.39748 216.25446 220.50022 226.5687 229.60295 234.45992 239.9172 246.57509 251.43206 256.8893 262.95783 268.4151 273.27207 276.3063 280.2465 289.63304 295.0903 301.15879 310.85093 314.1908 320.25929 326.3278 332.3963 335.43055 341.49903 350.57997 356.0372 359.07148 362.1057 367.2574 375.1377 381.79557 387.25285 393.32136 403.0135 407.292 412.14897 415.48884 421.5573 425.85768 428.8919 434.96043 444.04133 449.4986 454.35557 458.60133 461.6356 467.39848 470.43275 474.6785 477.71275 482.56974 490.4937 495.951 503.85313 507.193 513.2615 519.32998 525.39846 528.4327 534.5012">featuresandservicesonlyasethicalcapacityandfundingallow,andrefusingactivitiesorfunding</tspan></text>
<text xml:space="preserve" transform="matrix(.99749687 0 -0 1.0025094 0 792)" font-size="10.881793" font-family="LMRoman10"><tspan y="-578.6031" x="72.18068 76.4137 82.463977 87.90487 95.78329 103.33526 108.77615 114.82643 117.85157 127.53636 132.37877 137.81966 146.88419 152.93447 157.20014 162.64102 171.70555 174.73069 179.01811 187.49503 190.52017 194.75319 202.686 211.75055 214.77568 219.0631 223.35051 226.37566 231.81655 241.51222 246.95311 254.8533 259.14076 265.191 268.21617 271.546 279.4244 282.43867 286.67167 294.6045 297.62965 303.3752 307.60823 312.45066 318.19624 322.42924 325.45439 330.8953 336.94557 341.233 349.1223 353.05064 360.91816 363.9433 371.87614 376.16358 380.39659 384.66224 390.7125 395.5549 399.7879 405.8382 410.10386 414.94624 424.631 428.864 437.95033 442.79273 448.843 454.89326 460.94355 465.2092 473.6861 477.95176 483.39265 487.62565 493.67594 498.51835 506.41853 510.65153 516.7018 522.1427 531.83847 536.0715">thatwouldcompromiseitsmissionorshiftitsintentions.Itisstructuredtoendureratherthanto</tspan></text>
<text xml:space="preserve" transform="matrix(1.003992 0 -0 .99602386 0 792)" font-size="10.952649" font-family="LMRoman10"><tspan y="-568.76657" x="71.71372 76.02907 80.903 86.379329 89.424167 94.298099 100.968257 105.228839 114.33049 118.62393 123.497859 132.62142 138.09775 141.14258 150.85758 156.33391 161.20784 166.08177 171.55809 177.64777 183.44171 187.70229 193.17862 199.2683 202.31313 210.81238 215.07297 224.17462 228.4352 234.52487 243.02413 246.37564 252.4653 256.7259 262.81559 267.109 271.98295 278.6531 284.12947 290.21913 299.94508 304.20567 313.3073 318.18125 323.65757 329.44059 333.70115 336.746 342.53996 348.62965 357.12889 363.21855 367.512 372.68168 378.46467 381.50953 387.59919 390.64405 396.7337 405.8354 410.7093 416.18565 420.47908 428.97834 434.45466 440.54435 450.27027 454.58564 459.45954 463.753 469.53599 472.58085 477.45475 485.954 490.8279 496.30427 501.17817 510.89317 516.98287 523.0726 529.1623 534.0362">scale,toremainaccountabletothefuture,andtocontinueprovidingcareandserviceevenunder</tspan></text>
<text xml:space="preserve" transform="matrix(1 0 -0 1 0 792)" font-size="10.9091" font-family="LMRoman10"><tspan y="-552.956" x="72 76.85455 82.309108 88.374568 92.67275 96.91639 101.19276 106.64731 109.68004 115.44004 119.68368">constraint.</tspan><tspan y="-532.632" x="72 82.00365 88.06911 92.312747 97.767299 103.832759 106.865489 109.89822 112.93095 116.869129 122.62913 130.5164 138.69823 144.76369 149.31279 155.37825 160.8328 166.89826 172.3528 177.20735 182.6619 188.72736 191.76009">Mutability:Unchangeable</tspan></text>
<text xml:space="preserve" transform="matrix(1 0 -0 1 0 792)" font-size="14.3462" font-family="LMRoman12" font-weight="bold"><tspan y="-498.264" x="72">6</tspan></text>
<text xml:space="preserve" transform="matrix(1 0 -0 1 0 792)" font-size="14.3462" font-family="LMRoman12" font-weight="bold"><tspan y="-498.264" x="92.185108 104.86715 112.49933 120.5619 127.9215 134.52075 143.48712 151.33449 160.30086 167.47396 180.21338 191.69034 200.22632 209.19269 213.68305 221.04265">GovernanceBodies</tspan></text>
<text xml:space="preserve" transform="matrix(1 0 -0 1 0 792)" font-size="11.9552" font-family="LMRoman12" font-weight="bold"><tspan y="-471.325" x="72 78.73078 82.47276">6.1</tspan></text>
<text xml:space="preserve" transform="matrix(1 0 -0 1 0 792)" font-size="11.9552" font-family="LMRoman12" font-weight="bold"><tspan y="-471.325" x="99.29373 109.86213 116.2223 122.94112 129.07413 134.57352 142.04552 145.78749 153.25949 164.47347 174.26479 181.73679 186.97316 194.44516 201.17594 206.67533 210.4173 215.28307">GoverningAuthority</tspan></text>
<text xml:space="preserve" transform="matrix(.9899495 0 -0 1.0101526 0 792)" font-size="10.799458" font-family="LMRoman10"><tspan y="-446.20188" x="72.33399 80.131198 86.1357 93.65212 102.12969 107.21624 112.61597 117.42173 121.65512 127.65962 130.66187 136.66637 144.76596 152.41197 158.1249 164.1294 172.53137 178.53588 183.93561 186.93785 192.94235 199.908 205.9125 208.91477 213.11576 216.118 225.11396 230.51367 234.71466 242.22029 247.62003 253.62451 257.8255 263.8408 269.24055 273.4631 276.46537 280.36396 288.7767 293.86329 299.263 304.06877 311.00199 316.4017 320.63508 326.03483 331.43455 337.43907 340.44129 345.24705 350.64677 354.84776 357.85 363.24974 369.2542 374.65397 380.36686 386.37138 391.1771 395.98286 398.9851 403.24009 406.24235 411.64207 417.64656 421.90156 427.79808 432.05305 438.05754 444.3752 447.67985 452.4856 457.29136 464.19218 468.39317 476.50355 480.7045 486.709 494.21464 499.0204 504.4201 510.4246 514.67959 518.88058 523.11398 528.5137 531.5159 537.2181 541.419">TheGoverningBodyholdsultimateauthorityoverorganizationaldecisions,subjecttotheconstraints</tspan></text>
<text xml:space="preserve" transform="matrix(.99196776 0 -0 1.0080973 0 792)" font-size="10.821475" font-family="LMRoman10"><tspan y="-433.67045" x="72.58301 77.993747 84.973598 89.18315 95.1999 98.20827 106.14041 112.15715 117.870899 122.686458 128.7032 137.71749 142.53304 148.24677 156.12479 161.53554 167.55228 177.23749 182.64823 188.66498 194.68172 197.69008 200.69846 205.514 210.92475 216.94149 219.94986 228.43389 231.44226 236.54999 244.3631 252.26279 260.37889 269.4581 272.46644 278.4832 284.49995 287.50828 293.22203 296.23039 302.24714 308.26387 313.6746 320.35145 329.36573 334.47349 343.85569 348.67127 354.38499 359.20057 363.44258 368.25816 371.2665 375.53016 384.0142 390.0309 396.04768 399.05604 402.0644 407.47514 411.6847 416.50025 420.74229 426.153 432.82984 437.64543 443.05616 448.7699 452.97947 457.22148 462.6322 469.29823 474.40596 479.81669 484.63227 492.54277 497.9535 503.06123 508.46113 513.2767 517.51876 523.5354 528.94619 534.9628 539.7784">ofthisdocumentandapplicablelaw.Noindividualmayexerciseunilateralcontrolovergovernance</tspan></text>
<text xml:space="preserve" transform="matrix(1 0 -0 1 0 792)" font-size="10.9091" font-family="LMRoman10"><tspan y="-423.633" x="72 77.45455 83.52001 87.76365 92.618198 98.07275 107.16003 112.01457 116.31276">outcomes.</tspan><tspan y="-403.309" x="72 82.00365 88.06911 92.312747 97.767299 103.832759 106.865489 109.89822 112.93095 116.869129 122.62913 130.5164 138.5455 143.40006 149.16007 152.1928 156.49098 161.94553 168.01099 171.04372">Mutability:Revisable</tspan></text>
<text xml:space="preserve" transform="matrix(1 0 -0 1 0 792)" font-size="11.9552" font-family="LMRoman12" font-weight="bold"><tspan y="-374.09999" x="72 78.73078 82.47276">6.2</tspan></text>
<text xml:space="preserve" transform="matrix(1 0 -0 1 0 792)" font-size="11.9552" font-family="LMRoman12" font-weight="bold"><tspan y="-374.09999" x="99.29373 109.013309 115.74409 122.83352 128.0699 133.56929 140.30007 144.04204 147.78401 153.92897 165.88417 173.35617 180.82817 188.30017 193.60828 197.35025 204.82225 208.56423 215.10372 220.6031 232.1877 241.90727 247.40666 253.53968 260.07917 265.31556 269.05754 275.7883 287.74354 297.5229 304.99488 310.23127 317.70326 324.43403 329.9334 333.67539 338.54118">ControlledSubsidiaryCreationAuthority</tspan></text>
<text xml:space="preserve" transform="matrix(1.0099504 0 -0 .99014756 0 792)" font-size="11.017651" font-family="LMRoman10"><tspan y="-357.02558" x="71.290637 79.24538 83.56429 88.46715 93.975978 98.26184 101.32475 106.83357 112.95938 120.34121 125.85004 130.7529 136.5702 142.69603 145.75893 150.0999 153.1628 157.44866 160.51157 166.0204 172.14621 179.53905 185.04788 193.54248 199.05132 203.39228 207.73323 213.85906 223.03676 229.16257 233.44843 236.51134 242.02017 252.33269 257.84153 265.3886 270.29145 275.80027 281.6286 285.91447 290.2334 295.74223 302.98085 308.48966 316.03675 321.54557 327.37388 337.3669 345.32167 350.83049 356.6588 360.94468 365.2636 370.77244 373.83534 376.89826 381.8011 392.1026 398.22843 404.35426 410.48005 414.83204 417.89497 424.02076 427.08369 432.59248 436.9114 446.90446 451.19035 456.69914 465.2158 471.3416 476.24446 479.30735 482.37028 488.4961 493.39894 503.71147 506.77436 517.07589 523.20169 528.10458 533.0074">Creation,acquisition,orassumptionofcontrolofanyControlledSubsidiary(asdefinedinSec-</tspan><tspan y="-343.34077" x="71.290637 75.5765 78.639408 84.148227">tion</tspan></text>
<text xml:space="preserve" transform="matrix(1.0099504 0 -0 .99014756 0 792)" font-size="11.017651" font-family="LMRoman10"><tspan y="-343.34077" x="95.044689 100.55351 103.616428 109.12525">4.16</tspan></text>
<text xml:space="preserve" transform="matrix(1.0099504 0 -0 .99014756 0 792)" font-size="11.017651" font-family="LMRoman10"><tspan y="-343.34077" x="114.63408 123.70161 128.60446 134.1133 140.2391 144.58007 148.86592 151.92884 156.21469 162.3405 166.62638 171.52922 180.64084 190.9203 201.0235 206.53234 210.81819 215.72104 220.03997 223.10288 228.6117 236.45627 244.41101 249.31386 253.59972 256.66264 262.17146 273.07893 279.20475 285.33058 291.45637 296.35923 305.4488 311.57463 316.47746 321.3803 325.66618 328.7291 334.23789">)constitutesaMaterialActionunderSection</tspan></text>
<text xml:space="preserve" transform="matrix(1.0099504 0 -0 .99014756 0 792)" font-size="11.017651" font-family="LMRoman10"><tspan y="-343.34077" x="345.13435 350.64317 353.7061 359.21488">4.10</tspan></text>
<text xml:space="preserve" transform="matrix(1.0099504 0 -0 .99014756 0 792)" font-size="11.017651" font-family="LMRoman10"><tspan y="-343.34077" x="369.50538 375.0142 381.14 392.03648 396.3554 401.25825 407.07557 413.2014 416.26429 420.58323 425.48606 434.5977 444.88816 452.99714 457.88896 462.7918 468.30064 472.61955 478.74537 483.6482 494.5557 502.97319 507.87608 512.77896 515.84188 520.1828 523.2457 528.7546">andrequiresaRecordedDecision</tspan></text>
<text xml:space="preserve" transform="matrix(1 0 -0 1 0 792)" font-size="10.9091" font-family="LMRoman10"><tspan y="-326.409" x="72 79.12364 84.57819 88.82183 94.59274 102.16366 107.31275 116.70548 122.77094 128.8364 134.90186 139.75641 147.67642 153.74188 158.59644 163.45099 167.69463 170.72736 176.1819">PathwayunderSection</tspan></text>
<text xml:space="preserve" transform="matrix(1 0 -0 1 0 792)" font-size="10.9091" font-family="LMRoman10"><tspan y="-326.409" x="185.8801 191.33464 194.36737 199.82192">4.11</tspan></text>
<text xml:space="preserve" transform="matrix(1 0 -0 1 0 792)" font-size="10.9091" font-family="LMRoman10"><tspan y="-326.409" x="205.27646">.</tspan><tspan y="-306.085" x="72 80.18182 89.269107 97.14548 102.60003 108.37094 112.61458 116.890949 122.3455 125.37823 128.41095 133.2546 142.9637 149.02916 155.09462 161.16008 165.45827 168.491 174.55646 177.58919 183.04373 187.3201 196.71285 205.80013 210.96013 220.35288 226.72379 235.21108 240.06563 244.342 249.19655 254.6511 258.89476 263.7493 269.81477 276.4802 281.93476 286.7893 292.54933 298.61479 301.6475 305.92387 310.7784 316.84388 323.5093 328.96388 336.88389 341.73844 347.193 352.953 357.19667 361.47303 366.92759 369.9603 372.993 377.84757 387.54576 393.6112 399.67668 402.70939 407.56394 411.86213 416.1603">NoControlledSubsidiarymaybecreated,acquired,orcontrolledunless:</tspan></text>
<text xml:space="preserve" transform="matrix(1 0 -0 1 0 792)" font-size="10.9091" font-family="LMRoman10"><tspan y="-279.784" x="72">&#x2022;</tspan></text>
<text xml:space="preserve" transform="matrix(1 0 -0 1 0 792)" font-size="10.9091" font-family="LMRoman10"><tspan y="-279.784" x="85.94183 90.18547 96.25093 104.73821 113.30186 118.46186 123.916408 128.77095 133.04732 139.11278 142.14551 148.21097 157.29825 165.0219 170.78189 176.84735 186.2401 191.69464 197.7601 203.82556 208.10193 213.26194 218.71649 223.57105 231.50197 235.7456 241.81107 250.29836 255.7529 260.60746 264.8511 267.88383 273.33839 283.0475 288.8075 298.20024 304.2657 310.33116 316.70207 321.5566 325.83299 334.92027 340.68028 344.01847 349.47303 353.7494 356.7821 360.7203 370.11305 375.5785 381.03306 385.2767 393.76399 399.21855 407.14945 413.2149 418.06947 421.10218 424.13493 430.20039 435.05494 444.76405 447.79676 457.49494 463.5604 468.41496 473.2695 477.51316 480.54588 486.00044">theGoverningBodyapprovestheactionbySupermajorityvoteasdefinedinSection</tspan></text>
<text xml:space="preserve" transform="matrix(1 0 -0 1 0 792)" font-size="10.9091" font-family="LMRoman10"><tspan y="-279.784" x="495.6986 501.15318 504.18589">4.5</tspan></text>
<text xml:space="preserve" transform="matrix(1 0 -0 1 0 792)" font-size="10.9091" font-family="LMRoman10"><tspan y="-279.784" x="509.64045">,</tspan></text>
<text xml:space="preserve" transform="matrix(1 0 -0 1 0 792)" font-size="10.9091" font-family="LMRoman10"><tspan y="-257.468" x="72">&#x2022;</tspan></text>
<text xml:space="preserve" transform="matrix(1.0094553 0 -0 .9906332 0 792)" font-size="11.012249" font-family="LMRoman10"><tspan y="-259.90248" x="85.13503 94.242168 100.364978 106.487789 112.610599 116.94942 120.010829 126.14465 129.19504 134.70116 139.01796 148.44445 157.08905 162.29785 167.80397 172.70442 177.02123 183.14405 188.65016 194.77298 199.67343 208.1749 216.12575 222.25959 227.7657 232.0825 236.36626 241.2557 249.18451 253.46828 258.9744 266.9142 273.03703 277.93748 280.99888 284.06028 290.18309 295.0835 304.81834 307.87977 317.60356 323.72636 328.6268 333.52723 337.811 340.87245 346.37858">aSubsidiaryGovernanceCharter(asdefinedinSection</tspan></text>
<text xml:space="preserve" transform="matrix(1.0094553 0 -0 .9906332 0 792)" font-size="11.012249" font-family="LMRoman10"><tspan y="-259.90248" x="356.10237 361.6085 364.6699 370.17604">4.17</tspan></text>
<text xml:space="preserve" transform="matrix(1.0094553 0 -0 .9906332 0 792)" font-size="11.012249" font-family="LMRoman10"><tspan y="-259.90248" x="375.68217 383.57798 386.6284 394.57926 400.0854 406.2082 411.71434 417.83714 422.12089 427.02134 436.74513 442.86793 447.18473 450.24613 455.75227 463.6811 467.96488 477.072 481.97245 487.7869 492.68736 497.58778 503.71058 507.99433 511.05574 516.5618 526.2857 531.7918">)isadoptedpriortoexecutionof</tspan></text>
<text xml:space="preserve" transform="matrix(1 0 -0 1 0 792)" font-size="10.9091" font-family="LMRoman10"><tspan y="-243.918" x="85.94 91.394557 97.15456 106.5582 111.41275 116.8673 122.627307 126.87094 131.14731 136.60186 139.63459 142.66732 145.70005 151.7655 160.85279 163.88552 169.95098 174.24916 178.4928 182.76917 188.83463 197.9219 202.77646 208.53647 212.7801 219.45648 224.91103 230.97649">anycontrollinginstrument,and</tspan></text>
<text xml:space="preserve" transform="matrix(1 0 -0 1 0 792)" font-size="10.9091" font-family="LMRoman10"><tspan y="-221.602" x="72">&#x2022;</tspan></text>
<text xml:space="preserve" transform="matrix(.9899495 0 -0 1.0101526 0 792)" font-size="10.799458" font-family="LMRoman10"><tspan y="-219.37477" x="86.81251 91.0135 97.018 104.59922 112.39642 118.400928 123.80065 128.03404 132.23503 137.04079 144.03884 148.8446 154.5467 160.55121 163.55347 166.55571 171.36148 174.36373 178.56472 181.56697 190.04454 194.29952 198.5005 203.90024 208.10123 212.90699 219.92664 224.12763 230.13213 237.71334 241.96833 247.97283 253.97733 258.2323 261.23457 267.23905 270.2413 275.64103 279.87443 285.57655 288.57878 295.60923 301.9161 306.72184 310.95524 319.95118 322.95344 327.1544 331.35539 336.16114 344.94108 349.19609 354.0018 359.40156 365.70845 373.2896 378.68937 384.69386 393.463 397.664 403.6685 411.2497 417.25419 421.48756 426.8873 432.89179 435.89405 441.89854 444.9008 449.10179 452.104 457.50376 466.2837 471.68345 480.4526 484.65357 490.65809 498.23927 502.49427 508.49876 514.50326 518.75827 521.76046 527.76498 530.76718 536.16696 540.4003">theCharterexplicitlystatesthesubsidiary&#x2019;spermittedscopeandtheprohibitiononthesubsidiary</tspan></text>
<text xml:space="preserve" transform="matrix(1 0 -0 1 0 792)" font-size="10.9091" font-family="LMRoman10"><tspan y="-208.053" x="85.94 90.794559 95.07092 99.925479 105.38003 109.623668 112.656398 118.721858 127.809139 133.87459 138.72914 150.24916 155.7037 161.76917 166.0128 172.07826 177.5328 181.80918 184.8419 188.78009 198.17284 201.51102 206.96556 214.87467 223.05649 227.91104 239.43106 247.76561 253.22016 258.6747 264.12928 268.98384 273.2602 276.2929 281.74748 287.81294 297.5111 303.88203 308.73658 314.19114 319.6457 325.71116 335.40934 339.65299 345.72935 348.76206 356.69297 362.75843 368.51844 373.373 379.43846 388.52574 393.38029 399.1403 403.38395">creatingnewauthorityforNewDoggerlandbeyondthisdocument.</tspan><tspan y="-181.752" x="72 82.00365 88.06911 92.312747 97.767299 103.832759 106.865489 109.89822 112.93095 116.869129 122.62913 130.5164 138.69823 144.76369 149.31279 155.37825 160.8328 166.89826 172.3528 177.20735 182.6619 188.72736 191.76009">Mutability:Unchangeable</tspan></text>
<text xml:space="preserve" transform="matrix(1 0 -0 1 0 792)" font-size="11.9552" font-family="LMRoman12" font-weight="bold"><tspan y="-152.543" x="72 78.73078 82.47276">6.3</tspan></text>
<text xml:space="preserve" transform="matrix(1 0 -0 1 0 792)" font-size="11.9552" font-family="LMRoman12" font-weight="bold"><tspan y="-152.543" x="99.29373 106.76573 114.23773 121.70973 127.01784 130.75981 138.23181 141.97379 148.51328 154.01267 165.59726 175.6994 182.43019 188.5632 194.06259 199.3707 203.11267 209.84345 216.93288 226.65245 233.19194 240.66394 252.61914 262.72129 270.57588 276.7089 282.20829 288.74778 293.98417 297.72615 304.4569 311.9289 318.46839 326.69358 331.7028 339.1748 346.6468 352.77983 360.62245 366.75547 374.22749 381.69947 387.8325 395.3045 401.2821">SubsidiaryOversightandOperationalIndependence</tspan></text>
<text xml:space="preserve" transform="matrix(.99899956 0 -0 1.0010015 0 792)" font-size="10.898185" font-family="LMRoman10"><tspan y="-131.818" x="71.67872 79.5472 85.6066 94.09628 102.65136 107.7953 113.244388 118.09408 122.366168 128.42555 131.45525 137.51464 146.60372 154.31963 160.07387 166.13326 175.51659 179.78867 184.63835 188.87775 194.32683 197.35652 203.41591 211.3498 217.40918 220.43888 224.67827 227.70795 236.78614 242.23523 246.47463 254.9643 260.10826 265.55735 270.40705 274.67915 278.97303 282.00273 287.4518 293.20603 301.08543 305.3575 310.2072 314.50108 320.8656 326.3147 332.37406 336.66795 339.69767 345.75703 348.7867 351.81645 354.84614 358.78038 368.1746 371.50944 376.95854 384.8597 390.3088 393.3385 400.0082 407.8767 413.32579 419.08003 423.3194 427.5915 433.0406 436.07029 439.09999 443.94969 453.64906 459.70845 465.76783 471.82719 476.12107 479.15077 485.21015 488.23985 493.68894 497.96104 500.99073 505.84043 510.1343 518.0137 524.07308 530.1325 534.677">TheGoverningBodyretainsultimateoversightresponsibilityforallControlledSubsidiaries.Such</tspan></text>
<text xml:space="preserve" transform="matrix(1 0 -0 1 0 792)" font-size="10.9091" font-family="LMRoman10"><tspan y="-118.4" x="72 77.14909 82.60364 87.45819 91.73456 96.032749 99.065479 104.52003 110.29094 118.167308 121.200038 129.13095 132.16368 135.19641 144.28369 147.31642 151.56006 156.41461 166.12372 170.36736 175.8219">oversightislimitedto:</tspan></text>
<text xml:space="preserve" transform="matrix(1 0 -0 1 0 792)" font-size="10.9091" font-family="LMRoman10"><tspan y="-92.099" x="72">&#x2022;</tspan></text>
<text xml:space="preserve" transform="matrix(1 0 -0 1 0 792)" font-size="10.9091" font-family="LMRoman10"><tspan y="-92.099" x="85.94183 91.396389 97.461849 103.527309 107.80367 112.95277 118.11277 123.56732 130.23279 135.68733 142.65825 146.90189 152.96735 161.46555 167.531 173.59647 179.66193 183.96012 186.99285 193.0583 196.09104 201.54558 205.82195 215.21469 223.77834 228.92743 234.3929 239.24745 243.52382 249.58928 255.04383 261.10929 265.96385 274.4511 282.32749 288.39295 293.8475 298.12388 302.36753 307.22209 315.13117 320.58573 326.65119 336.3603 341.81486 347.57487 356.9676 362.42216 371.50944 376.36399 382.42945 388.4949 397.58219 402.43675 408.19676 412.4404 416.74949">approvaloftheSubsidiaryGovernanceCharterandanyamendments,</tspan></text>
<text xml:space="preserve" transform="matrix(1 0 -0 1 0 792)" font-size="10.9091" font-family="LMRoman10"><tspan y="-42.112" x="300.54499 305.99955">20</tspan></text>
</svg>
