<svg xmlns="http://www.w3.org/2000/svg" xmlns:xlink="http://www.w3.org/1999/xlink" xmlns:inkscape="http://www.inkscape.org/namespaces/inkscape" version="1.1" width="612" height="792" viewBox="0 0 612 792">
<text xml:space="preserve" transform="matrix(1 0 -0 1 0 792)" font-size="10.9091" font-family="LMRoman10"><tspan y="-709.041" x="72">&#x2022;</tspan></text>
<text xml:space="preserve" transform="matrix(1 0 -0 1 0 792)" font-size="10.9091" font-family="LMRoman10"><tspan y="-709.041" x="85.94183 91.396389 95.67275 104.16003 108.40366 114.469127 122.96731 129.17459 134.62914 140.6946 146.76006 152.82552 157.68007 165.60009 169.84372 175.29827 183.22919 189.29465 194.1492 197.18193 200.21466 206.28012 211.13468 220.83287 223.8656 233.5747 239.64017 244.49472 249.34928 253.59291 256.62565 262.0802">aretheFounder(asdefinedinSection</tspan></text>
<text xml:space="preserve" transform="matrix(1 0 -0 1 0 792)" font-size="10.9091" font-family="LMRoman10"><tspan y="-709.041" x="271.77839 277.23295 280.26567">4.1</tspan></text>
<text xml:space="preserve" transform="matrix(1 0 -0 1 0 792)" font-size="10.9091" font-family="LMRoman10"><tspan y="-709.041" x="285.7202">)</tspan></text>
<text xml:space="preserve" transform="matrix(1 0 -0 1 0 792)" font-size="10.9091" font-family="LMRoman10"><tspan y="-686.72506" x="72">&#x2022;</tspan></text>
<text xml:space="preserve" transform="matrix(1 0 -0 1 0 792)" font-size="10.9091" font-family="LMRoman10"><tspan y="-686.72506" x="85.94183 91.396389 95.67275 104.16003 108.40366 114.469127 122.96731 129.17459 134.62914 140.6946 146.76006 152.82552 157.68007 161.95644 164.98917 172.931 177.22919 183.6001 189.05464 195.1201 199.41829">aretheFounder&#x2019;sspouse</tspan></text>
<text xml:space="preserve" transform="matrix(1 0 -0 1 0 792)" font-size="10.9091" font-family="LMRoman10"><tspan y="-664.408" x="72">&#x2022;</tspan></text>
<text xml:space="preserve" transform="matrix(1 0 -0 1 0 792)" font-size="10.9091" font-family="LMRoman10"><tspan y="-664.408" x="85.94183 91.396389 95.67275 104.16003 113.25822 122.3455 127.20004 135.98188 142.35279 147.20734 155.11644 160.57099 167.5419 171.78554 177.851 186.3492 192.55648 198.01102 204.07648 210.14194 216.2074 221.06195 225.33832 228.37105 236.31288 242.37834 247.83289 253.89835 258.19654 263.0511 269.11656 274.5711 277.60383">areamemberoftheFounder&#x2019;shousehold</tspan></text>
<text xml:space="preserve" transform="matrix(1 0 -0 1 0 792)" font-size="10.9091" font-family="LMRoman10"><tspan y="-642.09207" x="72">&#x2022;</tspan></text>
<text xml:space="preserve" transform="matrix(.9899495 0 -0 1.0101526 0 792)" font-size="10.799458" font-family="LMRoman10"><tspan y="-635.63858" x="86.81251 92.212238 96.445629 104.318439 112.78521 117.59097 123.595478 127.828868 132.06226 136.86801 142.55933 149.82736 154.63312 163.62908 169.63358 172.63582 177.73317 183.12209 187.92784 195.80066 203.59787 209.60237 215.00209 219.25708 227.12989 231.36328 236.763 239.76526 247.63806 251.87146 256.67723 262.9841 268.38383 272.61723 276.81819 284.14024 290.1447 293.14698 297.38035 302.1861 306.99183 311.1928 314.19508 322.96424 327.1652 335.63197 339.83296 345.83744 353.71025 362.1878 367.27436 372.6741 377.47984 381.7132 387.7177 390.71998 396.72447 405.19126 412.83729 418.5394 424.54389 433.31306 441.11027 444.11253 448.31349 454.318 459.7177 465.7222 472.99024 478.38996 487.46153 491.36015 497.36463 503.36915 508.17488 514.49258 519.29837 525.30288 531.3073 536.1131 541.8044">areacurrentemployeewhoserolereportsdirectlytotheGoverningBodywithoutanIndependent</tspan></text>
<text xml:space="preserve" transform="matrix(1 0 -0 1 0 792)" font-size="10.9091" font-family="LMRoman10"><tspan y="-628.543" x="85.94 92.00546 98.07092 104.44184 109.29639 113.572757 119.332759 122.365489 126.66367 132.11823 140.02733 146.84552 151.99462 157.46009 162.31464 170.22374 174.46738 179.92192 187.85285 193.9183 198.77286 201.80559 204.83832 210.90378 215.75833 225.46744 228.50017 238.19837 244.26383 249.11838 253.97293 258.21659 261.2493 266.70387">SupervisorLayer(asdefinedinSection</tspan></text>
<text xml:space="preserve" transform="matrix(1 0 -0 1 0 792)" font-size="10.9091" font-family="LMRoman10"><tspan y="-628.543" x="276.40205 281.8566 284.8893 290.34388">4.19</tspan></text>
<text xml:space="preserve" transform="matrix(1 0 -0 1 0 792)" font-size="10.9091" font-family="LMRoman10"><tspan y="-628.543" x="295.79844">)</tspan></text>
<text xml:space="preserve" transform="matrix(1 0 -0 1 0 792)" font-size="10.9091" font-family="LMRoman10"><tspan y="-606.22708" x="72">&#x2022;</tspan></text>
<text xml:space="preserve" transform="matrix(.9949875 0 -0 1.0050378 0 792)" font-size="10.854417" font-family="LMRoman10"><tspan y="-603.1883" x="86.37295 92.408008 97.53129 102.9585 111.43581 120.51009 130.4636 135.89081 140.11318 144.94339 149.19832 152.21584 157.64305 164.30765 171.3956 174.41312 180.44817 185.87538 191.91045 196.74066 199.75818 205.1854 211.84999 215.76844 221.49958 225.72194 230.55216 234.80707 239.63729 243.91393 251.78337 256.00575 261.43296 269.3567 275.39173 280.22196 283.23948 286.257 292.29203 297.12226 306.80439 309.8219 319.50407 325.5391 330.3693 335.19953 339.42189 342.43943 347.8666">haveaMaterialFinancialInterest(asdefinedinSection</tspan></text>
<text xml:space="preserve" transform="matrix(.9949875 0 -0 1.0050378 0 792)" font-size="10.854417" font-family="LMRoman10"><tspan y="-603.1883" x="357.54878 362.97596 365.9935 371.4207">4.21</tspan></text>
<text xml:space="preserve" transform="matrix(.9949875 0 -0 1.0050378 0 792)" font-size="10.854417" font-family="LMRoman10"><tspan y="-603.1883" x="376.8479 384.71736 387.7349 397.41703 402.8442 407.67445 413.70948 419.7445 425.17173 429.42668 433.7033 440.36796 446.41386 451.84104 456.0851 460.3075 466.3534 471.17274 475.42768 479.7152 486.37983 491.80705 499.70909 504.53929 509.96647 515.6976 519.92 524.17489 529.6021 534.4323 538.6547">)invendors,partners,orcontracts</tspan></text>
<text xml:space="preserve" transform="matrix(1 0 -0 1 0 792)" font-size="10.9091" font-family="LMRoman10"><tspan y="-592.677" x="85.547 93.42337 96.4561 100.69974 110.39793 114.64156 120.70702 129.20522 134.65976 138.93613 144.39067 149.84522 155.91068 158.9434 163.79796 169.2525 173.49614 176.52887 181.98342">withtheorganization</tspan></text>
<text xml:space="preserve" transform="matrix(1 0 -0 1 0 792)" font-size="10.9091" font-family="LMRoman10"><tspan y="-570.361" x="72">&#x2022;</tspan></text>
<text xml:space="preserve" transform="matrix(1.001998 0 -0 .998006 0 792)" font-size="10.930896" font-family="LMRoman10"><tspan y="-571.5007" x="85.76865 91.84623 97.00561 102.48198 110.96436 115.82861 121.30499 126.16925 134.07228 140.45592 145.32016 150.1844 159.8801 164.74436 170.2098 175.99224 181.76375 184.80254 189.66678 193.91892 198.78316 208.47885 213.9443 217.28916 223.957 229.42244 237.33641 242.80185 247.08676 255.56916 259.87593 265.9535 272.33714 275.68199 280.54624 285.41047 293.29167 297.5438 306.62739 315.72193 320.0287 326.10627 332.18385 336.4906 340.74275 346.2082 351.99064 356.24278 359.28157 364.747 368.99916 373.86338 383.5591 386.90397 392.98155 399.0591 402.0979 406.96217 410.00096 415.4664 422.13426 427.59974 435.5137 439.79866 444.66288 450.12837 456.20594 459.24473 464.71018 468.9623 474.42778 478.71266 488.10234 491.1411 494.1799 500.25749 506.33506 509.37385 515.4514 524.5459 527.89077 533.35629 537.6411">haveeverbeenconvictedof,oraresubjecttoasubstantiatedjudicialorregulatoryfindingfor,</tspan></text>
<text xml:space="preserve" transform="matrix(1 0 -0 1 0 792)" font-size="10.9091" font-family="LMRoman10"><tspan y="-556.812" x="85.94 91.394557 97.460018 100.492748 109.580028 115.03458 121.700038 126.55458 130.83095 136.89641 141.75096 144.78369 148.72188 153.57643 160.2419 165.69644 171.7619 174.79463 183.88191 189.33646 196.01284 201.46738 207.53284 213.5983 217.89649 222.75104 229.4165 234.87105 240.93651 243.96924 253.05652 258.51109 265.1765 271.24198 276.09654 281.5511 284.5838 289.43836 294.2929 298.53657 305.21293 310.66749 318.57658 323.43113 327.7075 333.77296 338.6275 341.66023 345.59843 354.99116 359.2348 364.3948 371.96574 377.4203 381.69667 391.39485 397.15486 403.2203 412.3076 417.76216 423.8385">animalcruelty,animalabuse,animalneglect,orcrueltytowardhumans</tspan><tspan y="-530.511" x="72 82.00365 88.06911 92.312747 97.767299 103.832759 106.865489 109.89822 112.93095 116.869129 122.62913 130.5164 138.69823 144.76369 149.31279 155.37825 160.8328 166.89826 172.3528 177.20735 182.6619 188.72736 191.76009">Mutability:Unchangeable</tspan></text>
<text xml:space="preserve" transform="matrix(1 0 -0 1 0 792)" font-size="10.9091" font-family="LMRoman10" font-weight="bold"><tspan y="-501.731" x="72 78.272739 81.75274 88.025478 91.50548">6.9.3</tspan></text>
<text xml:space="preserve" transform="matrix(1 0 -0 1 0 792)" font-size="10.9091" font-family="LMRoman10" font-weight="bold"><tspan y="-501.731" x="107.192768 114.16368 119.91277 123.39278 129.14188 134.71643 139.5928 143.0728 149.34554 160.49465 166.59284 173.56375 184.71286 194.12741 199.87651 206.84743 210.32743 216.42562 222.00017 227.74927 238.20018 243.94928 250.5711">SelectionandReplacement</tspan></text>
<text xml:space="preserve" transform="matrix(1 0 -0 1 0 792)" font-size="10.9091" font-family="LMRoman10"><tspan y="-481.138" x="71.607 79.483379 85.548839 94.03611 102.599758 107.75976 113.2143 118.06885 122.345218 128.41068 131.4434 137.50887 146.59615 154.3198 160.07979 166.14525 175.538 184.31983 190.3962 194.69438 202.57076 205.60349 208.63622 211.66895 218.33441 223.49442 228.94896 233.80352 239.25806 245.32352 250.17807 253.2108 258.06535 265.99626 271.75627 281.1599 286.61448 292.06904 296.31269 301.16725">TheGoverningBodymustfillvacanciesbyvote.</tspan><tspan y="-460.814" x="71.607 79.483379 85.548839 94.03611 102.599758 107.75976 113.2143 118.06885 122.345218 128.41068 131.4434 137.50887 146.59615 154.3198 160.07979 166.14525 175.538 184.31983 190.3962 194.69438 202.57076 208.63622 214.09076 221.96714 227.42168 233.48714 239.85805 245.31259 248.34532 254.10533 261.9926 271.0799 275.35627 280.21083 286.27629 289.309 294.76356 299.6181 304.47267 313.55995 318.4145 324.1745 332.05088 339.92726 342.95997 347.2036 353.27998 358.73454 364.8 372.67637 378.74183 384.50184 389.35639 395.42185 404.50914 409.36369 415.1237 419.36735 422.40007 428.4655 433.92008">TheGoverningBodymustnotappointareplacementwithoutdocumenting:</tspan></text>
<text xml:space="preserve" transform="matrix(1 0 -0 1 0 792)" font-size="10.9091" font-family="LMRoman10"><tspan y="-434.513" x="72">&#x2022;</tspan></text>
<text xml:space="preserve" transform="matrix(1 0 -0 1 0 792)" font-size="10.9091" font-family="LMRoman10"><tspan y="-434.513" x="85.94183 90.18547 96.25093 104.73821 109.0364 113.890949 116.923679 121.77823 126.63278 130.87642 133.90915 139.3637 149.0728 158.16008 163.01464 167.25827 173.32373 179.07282 188.78192 194.84738 199.14557 204.00012">theselectionmethodused</tspan></text>
<text xml:space="preserve" transform="matrix(1 0 -0 1 0 792)" font-size="10.9091" font-family="LMRoman10"><tspan y="-412.197" x="72">&#x2022;</tspan></text>
<text xml:space="preserve" transform="matrix(1 0 -0 1 0 792)" font-size="10.9091" font-family="LMRoman10"><tspan y="-412.197" x="85.94183 90.18547 96.25093 104.73821 109.59276 115.04731 121.11277 127.17823 130.21096 136.27642 141.73096 145.9746 150.82915 153.86188 161.80371 167.86917 170.9019 175.20009 180.05464 183.08737 188.54192 192.8401 197.69466 207.39286 212.2474 217.70195 223.76741 226.80014 229.83287 232.8656 237.72016 241.96379">thecandidate&#x2019;sdisclosedconflicts</tspan></text>
<text xml:space="preserve" transform="matrix(1 0 -0 1 0 792)" font-size="10.9091" font-family="LMRoman10"><tspan y="-389.88" x="72">&#x2022;</tspan></text>
<text xml:space="preserve" transform="matrix(1 0 -0 1 0 792)" font-size="10.9091" font-family="LMRoman10"><tspan y="-389.88" x="85.94183 90.18547 96.25093 104.73821 109.01458 113.869129 119.32368 123.621868 129.07642 138.78553 143.02916 149.09462 157.58191 162.43647 167.891 173.95647 180.02193 183.05466 189.12012 194.57466 198.8183 207.30559 211.60378 217.05832 221.30196 224.33469 228.63288 231.6656 234.69834 239.55289 247.49472 250.52745 256.5929 262.65837 267.5129 273.88383 278.73838 284.80384 290.8693 295.72386 301.7893 306.64387 315.13114 319.4075 324.26206 330.02207 336.08753 339.12025 343.3966 348.25117 357.33845 362.193 367.953 372.19667">thereasonthecandidatesatisfiesindependencerequirements</tspan><tspan y="-363.579" x="72 82.00365 88.06911 92.312747 97.767299 103.832759 106.865489 109.89822 112.93095 116.869129 122.62913 130.5164 138.5455 143.40006 149.16007 152.1928 156.49098 161.94553 168.01099 171.04372">Mutability:Revisable</tspan></text>
<text xml:space="preserve" transform="matrix(1 0 -0 1 0 792)" font-size="10.9091" font-family="LMRoman10" font-weight="bold"><tspan y="-334.80003" x="72 78.272739 81.75274 88.025478 91.50548">6.9.4</tspan></text>
<text xml:space="preserve" transform="matrix(1 0 -0 1 0 792)" font-size="10.9091" font-family="LMRoman10" font-weight="bold"><tspan y="-334.80003" x="107.192768 114.87277 120.621868 125.79278 136.2437 145.37462 151.47281 158.44373 169.59284 177.28376 183.03285 188.20377 202.83287 210.38198 213.86197 224.31288 227.79288 232.66925">TermsandTermLimits</tspan></text>
<text xml:space="preserve" transform="matrix(1 0 -0 1 0 792)" font-size="10.9091" font-family="LMRoman10"><tspan y="-314.20704" x="72 80.563648 85.71274 91.16728 96.021839 100.2982 106.36366 109.39639 115.46185 124.56004 132.28369 138.04369 144.10915 153.50189 162.58917 167.44373 176.22556 182.59647 187.45102 191.72739 199.65831 203.9565 208.81105 213.08742 218.54198 227.04018 230.0729 233.10564 238.86565 243.7202 253.4184 257.66206 262.5166 266.79298 275.88026 283.81117 289.26573 296.24757 301.70213 310.7894 319.87669 325.33125 331.09126 335.3349 341.40037 345.69856">GoverningBodymembersservefixedtermsof24months.</tspan><tspan y="-293.88304" x="71.596 83.41055 91.9742 97.1342 102.588748 107.4433 111.719669 117.785129 120.817859 126.883319 135.9706 143.69425 149.45424 155.5197 164.91245 173.99973 178.85428 187.63611 194.00702 198.86157 206.78159 215.56342 221.62888 225.92707 233.80344 239.8689 245.32344 253.21073 257.5089 262.36347 266.63984 272.0944 280.58168 289.66896 295.1235 299.39988 307.88716 312.1308 318.19627 323.65083 333.35993 337.29814 344.86906 353.95634 358.81089 364.26545 370.3309 374.63999 379.48365 384.3382 390.40367 394.6473 397.68003 403.14549 411.63276 415.8764 420.73097 425.00733 434.0946 438.3928">AGoverningBodymembermustnotservemorethantwoconsecutiveterms.</tspan><tspan y="-273.55903" x="72 82.00365 88.06911 92.312747 97.767299 103.832759 106.865489 109.89822 112.93095 116.869129 122.62913 130.5164 138.69823 144.76369 149.31279 155.37825 160.8328 166.89826 172.3528 177.20735 182.6619 188.72736 191.76009">Mutability:Unchangeable</tspan></text>
<text xml:space="preserve" transform="matrix(1 0 -0 1 0 792)" font-size="10.9091" font-family="LMRoman10" font-weight="bold"><tspan y="-244.78003" x="72 78.272739 81.75274 88.025478 91.50548">6.9.5</tspan></text>
<text xml:space="preserve" transform="matrix(1 0 -0 1 0 792)" font-size="10.9091" font-family="LMRoman10" font-weight="bold"><tspan y="-244.78003" x="107.192768 114.16368 119.04005 125.13824 131.41097 137.6837 143.4328 148.60372 152.08371 159.05463 169.50556 178.9201 184.6692 191.29103 198.26195 201.74195 206.91286 212.66196 223.11287 228.86197 235.4838">StaggeringRequirement</tspan></text>
<text xml:space="preserve" transform="matrix(.9939819 0 -0 1.0060546 0 792)" font-size="10.843447" font-family="LMRoman10"><tspan y="-222.83779" x="72.04055 78.95867 83.784008 88.03464 97.06723 105.00463 113.733608 119.762569 124.03488 131.91808 138.25064 146.74108 151.0134 155.23149 160.65323 166.07495 171.49668 176.32202 180.57265 185.39798 195.10288 199.3752 208.46202 212.68012 218.70908 224.1308 232.014 238.04296 247.12978 256.16236 261.5841 265.83473 274.32514 278.54325 284.5722 289.99394 299.69883 308.78565 313.05796 316.07246 325.10505 331.134 334.14848 342.63893 351.6715 357.39686 360.71495 366.13667 370.3873 373.40177 377.31626 386.7067 392.12843 399.12245 403.39479 408.2201 413.6418 417.85993 425.79734 430.62269 436.34803 442.37699 445.39146 449.6421 458.1325 465.9615 468.97596 473.19407 479.22303 482.23753 491.93156 497.35328 503.0786 512.46908 517.89077 523.3125 526.92337 532.9523 538.0704">Termsmustbestaggeredsothatnomorethanasimplemajorityofseatsexpirewithinany90-day</tspan></text>
<text xml:space="preserve" transform="matrix(1 0 -0 1 0 792)" font-size="10.9091" font-family="LMRoman10"><tspan y="-210.638" x="72 78.37092 83.225467 87.50183 90.53456 96.28366 102.36003">period.</tspan><tspan y="-190.314" x="72 82.00365 88.06911 92.312747 97.767299 103.832759 106.865489 109.89822 112.93095 116.869129 122.62913 130.5164 138.69823 144.76369 149.31279 155.37825 160.8328 166.89826 172.3528 177.20735 182.6619 188.72736 191.76009">Mutability:Unchangeable</tspan></text>
<text xml:space="preserve" transform="matrix(1 0 -0 1 0 792)" font-size="10.9091" font-family="LMRoman10" font-weight="bold"><tspan y="-161.534" x="72 78.272739 81.75274 88.025478 91.50548">6.9.6</tspan></text>
<text xml:space="preserve" transform="matrix(1 0 -0 1 0 792)" font-size="10.9091" font-family="LMRoman10" font-weight="bold"><tspan y="-161.534" x="107.192768 116.607318 122.35641 132.80733 138.73097 144.65462 150.7528">Removal</tspan></text>
<text xml:space="preserve" transform="matrix(.9899495 0 -0 1.0101526 0 792)" font-size="10.799458" font-family="LMRoman10"><tspan y="-139.52446" x="72.33399 80.131198 86.1357 93.857318 102.33489 107.432239 112.83196 117.637729 121.87111 127.87561 130.87787 136.88237 145.19795 152.84397 158.54608 164.55059 173.17934 182.17528 187.26183 195.89058 200.12398 204.92974 213.92568 219.01222 224.41194 232.13356 240.45993 249.45589 254.26165 262.94444 269.26213 274.06785 281.21708 284.5217 289.92143 297.07066 301.8764 307.27613 313.2806 317.5356 325.268 330.95936 339.5881 345.59263 351.5971 357.904 362.70976 366.9431 375.9391 381.6412 384.95664 390.35636 394.57896 397.58119 401.47978 410.09773 415.49748 420.8972 425.09819 432.81977 438.21949 445.40113 451.4056 456.21138 459.21363 462.21589 468.22038 473.02613 481.94648 484.9487 493.87989 499.88438 504.69013 509.49586 513.69686 516.6991 522.0988">TheGoverningBodymayremoveamemberforcausebySupermajorityvoteasdefinedinSection</tspan></text>
<text xml:space="preserve" transform="matrix(.9899495 0 -0 1.0101526 0 792)" font-size="10.799458" font-family="LMRoman10"><tspan y="-139.52446" x="531.01919 536.4189 539.4211">4.5</tspan></text>
<text xml:space="preserve" transform="matrix(.9899495 0 -0 1.0101526 0 792)" font-size="10.799458" font-family="LMRoman10"><tspan y="-139.52446" x="544.82089">.</tspan></text>
<text xml:space="preserve" transform="matrix(1 0 -0 1 0 792)" font-size="10.9091" font-family="LMRoman10"><tspan y="-120.618" x="72 79.87637 85.330928 91.396389 95.69457 104.18185 107.21458 113.28004 118.13458 121.16731 127.23277 133.29824 138.15279 142.45098">Causeincludes:</tspan></text>
<text xml:space="preserve" transform="matrix(1 0 -0 1 0 792)" font-size="10.9091" font-family="LMRoman10"><tspan y="-94.315998" x="72">&#x2022;</tspan></text>
<text xml:space="preserve" transform="matrix(1 0 -0 1 0 792)" font-size="10.9091" font-family="LMRoman10"><tspan y="-94.315998" x="85.94183 90.79639 96.25094 102.3164 107.170948 112.0255 117.48005 120.51278 129.60007 134.45462 140.21463 148.091 153.54555 160.52738 165.38193 170.83647 176.90193 179.93466 182.96739 186.00012 190.85468 195.09832">concealmentofconflicts</tspan></text>
<text xml:space="preserve" transform="matrix(1 0 -0 1 0 792)" font-size="10.9091" font-family="LMRoman10"><tspan y="-71.99999" x="72">&#x2022;</tspan></text>
<text xml:space="preserve" transform="matrix(1 0 -0 1 0 792)" font-size="10.9091" font-family="LMRoman10"><tspan y="-71.99999" x="85.94183 90.2182 95.072757 101.44367 106.29822 111.75277 115.99641 120.85095 130.54915 136.61461 142.06916 148.13462 153.58916 157.8328 162.07643 166.93099 172.99645 179.0619 184.51645 190.58191 195.43647 203.92375 208.16739 214.23285 219.6874 227.57468 233.64014 237.9165 242.77106 248.22562 253.08017 258.84019 263.08384 271.02568 276.78569 282.85115 288.3057 292.58207 298.64753">repeatednonattendancethatpreventsquorum</tspan></text>
<text xml:space="preserve" transform="matrix(1 0 -0 1 0 792)" font-size="10.9091" font-family="LMRoman10"><tspan y="-42.11199" x="300.54499 305.99955">24</tspan></text>
</svg>
