<svg xmlns="http://www.w3.org/2000/svg" xmlns:xlink="http://www.w3.org/1999/xlink" xmlns:inkscape="http://www.inkscape.org/namespaces/inkscape" version="1.1" width="612" height="792" viewBox="0 0 612 792">
<text xml:space="preserve" transform="matrix(1 0 -0 1 0 792)" font-size="14.3462" font-family="LMRoman12" font-weight="bold"><tspan y="-707.447" x="72">8</tspan></text>
<text xml:space="preserve" transform="matrix(.9899495 0 -0 1.0101525 0 792)" font-size="14.202014" font-family="LMRoman12" font-weight="bold"><tspan y="-700.3369" x="93.10981 104.72706 113.60332 122.479579 126.924808 133.14528 138.47104 150.96881 158.73732 164.9578 169.40303 177.38457 189.82553 201.89723 208.20293 214.50864 223.38489 236.70639 245.58264 251.80313 256.24836 264.24409 278.27568 284.49617 296.99394 304.27955 312.04808 318.58097 323.9067 333.6777 340.96336 347.49626 360.66154 371.3698 378.65547 385.18836 389.63359 394.07173 398.50987 405.61085 413.37937 419.59983 424.04505 432.0408 446.0724 457.61863 465.61439 471.92005 478.14054 484.44624 494.10359 506.34574 510.79096 518.7867 527.6629 532.10818 537.8742">Audit-NativeAssumption(Near-ZeroVerificationCosts,Dignity</tspan></text>
<text xml:space="preserve" transform="matrix(1 0 -0 1 0 792)" font-size="14.3462" font-family="LMRoman12" font-weight="bold"><tspan y="-689.514" x="92.174 103.20623 109.80548 117.165088 123.5348 130.8944 137.49365 145.57056 152.93016 161.89653">Preserved)</tspan></text>
<text xml:space="preserve" transform="matrix(1.0099504 0 -0 .99014756 0 792)" font-size="11.017651" font-family="LMRoman10"><tspan y="-671.7837" x="71.290637 79.55387 84.45672 96.366809 104.784297 110.29312 115.80195 121.310779 126.21363 130.53256 133.59546 139.1043 145.2301 155.31125 158.37416 166.67046 172.79627 178.92208 181.98499 185.0479 193.2891 201.24382 204.30673 208.59259 218.67374 222.9596 229.0854 237.9436 242.84647 248.66378 255.09809 260.00096 264.89277 269.17863 274.68745 278.97334 282.03623 287.54505 297.6372 301.9231 308.0489 313.5577 321.79893 327.30775 333.43357 339.55937 342.62229 346.90815 354.01454 363.19224 368.70103 374.82685 377.88975 382.17564 387.68446 392.0034 395.06629 401.1921 406.7009 413.80729 419.3161 425.44194 435.52308 441.0429 445.94578 450.26469 453.3276 456.3905 459.4534 464.35627 469.86509 474.15095 477.21385 482.72267 492.8038 497.70668 503.21546 507.55644 511.8423 520.13858 525.6474 529.9663">NewDoggerlandisbuiltwiththeexpectationthataudit,monitoring,andverificationcostsare</tspan></text>
<text xml:space="preserve" transform="matrix(.9899495 0 -0 1.0101526 0 792)" font-size="10.799458" font-family="LMRoman10"><tspan y="-645.0669" x="72.73098 78.73548 83.54124 88.347 91.34925 94.3515 100.356 103.35825 109.362758 114.76248 122.4517 130.2489 136.2534 144.09381 147.09607 153.10057 157.35556 161.55655 164.55879 168.75978 174.76428 178.96527 181.96753 187.36725 196.4064 199.40865 206.69829 209.70053 215.40265 219.60364 224.40941 230.4139 236.4184 241.22417 250.26332 254.46431 262.89869 271.89466 277.29438 282.6941 290.5345 295.92344 300.7292 304.96257 307.9648 310.96708 313.9693 318.77507 324.17478 328.37577 331.378 336.77775 345.8169 350.62263 356.02238 360.27735 369.0141 376.8113 379.81358 384.01454 390.01905 395.41877 401.43406 408.66969 413.47544 417.698 422.50376 427.90348 432.10447 435.10673 441.1112 449.55638 454.35136 460.06425 464.87 469.10337 473.90913 476.91136 482.3003 490.1407 494.39567 500.40019 504.63356 510.03327 514.83908 517.84127 520.84347 523.8457 529.2454 535.24996 540.05569 544.8614">declining.Theinstitutionisintendedtomakeverificationeasywithoutcreatingcoercivesurveillance.</tspan></text>
<text xml:space="preserve" transform="matrix(1 0 -0 1 0 792)" font-size="10.9091" font-family="LMRoman10"><tspan y="-631.292" x="71.596 79.47237 85.53783 91.60329 94.63602 98.879657 104.334209 110.399669 113.432399 116.465129 119.497859 123.446949 132.83969 135.87242 143.80335 148.04698 152.32335 157.1779 162.63245 166.87609 171.73064 181.42884 186.88338 194.82521 203.91249 208.21068 212.45432 216.73069 222.79615 227.6507 231.89434 237.9598 242.23616 247.6907 254.36708 257.70527 262.5598 268.01438 272.25804 278.3235 282.59986 287.4435">Auditabilityistreatedasastructuralfeature:</tspan></text>
<text xml:space="preserve" transform="matrix(1 0 -0 1 0 792)" font-size="10.9091" font-family="LMRoman10"><tspan y="-604.99" x="72">&#x2022;</tspan></text>
<text xml:space="preserve" transform="matrix(1 0 -0 1 0 792)" font-size="10.9091" font-family="LMRoman10"><tspan y="-604.99" x="85.94183 92.00729 96.86185 101.7164 104.74913 109.04732 112.08005 117.5346 123.60006 131.53098 135.82917 141.89463 147.34917 153.42554 156.44736 166.15647 172.52738 181.01467 184.0474 188.90195 194.35649 197.38922 203.45468 206.48741 214.9747 220.42925 223.76743 228.01107 232.86562 240.78563 245.02927 251.09473 259.582 262.9202 268.37477 273.2293 281.10569 285.34934 291.4148 295.69117 301.14573 307.21119 312.66575 322.37486 325.40757 330.86213 336.31669 344.2476 349.70216 355.7676 365.4658 369.74217 374.5967 379.45127 384.90583 389.1822 395.24766 400.1022 409.8113 415.87678 421.33134 425.57499 431.335 438.9059 444.05503 449.81504 454.11323">decisionsshouldbelegibleafterthefactthroughlogsandrecordedpathways,</tspan></text>
<text xml:space="preserve" transform="matrix(1 0 -0 1 0 792)" font-size="10.9091" font-family="LMRoman10"><tspan y="-582.674" x="72">&#x2022;</tspan></text>
<text xml:space="preserve" transform="matrix(1 0 -0 1 0 792)" font-size="10.9091" font-family="LMRoman10"><tspan y="-582.674" x="85.94183 91.396389 96.25093 101.105487 106.560039 112.625499 118.3855 122.629138 128.08368 134.14914 137.18187 140.2146 143.24733 147.18552 156.58917 160.88736 166.95282 172.40737 178.47283 181.50556 191.20375 197.57466 206.06195 210.33832 215.79286 221.85832 226.10196 229.13469 235.20015 243.69835 247.97472 253.42926 257.6729 263.73838 268.59294 276.502 280.74568 286.81114 292.2657 301.96388 308.02934 314.0948 320.17115 323.19297 327.4366 330.46934 335.93479 340.78935">accountabilityshouldberoutineratherthanpunitive,</tspan></text>
<text xml:space="preserve" transform="matrix(1 0 -0 1 0 792)" font-size="10.9091" font-family="LMRoman10"><tspan y="-560.35806" x="72">&#x2022;</tspan></text>
<text xml:space="preserve" transform="matrix(1 0 -0 1 0 792)" font-size="10.9091" font-family="LMRoman10"><tspan y="-560.35806" x="85.94183 91.396389 97.461849 107.160037 111.40367 115.68004 121.7455 126.043689 133.93097 138.22916 144.29462 149.74916 155.81462 158.84735 168.54555 174.61101 180.06555 187.95284 194.0183 198.87285 205.24376 210.0874 216.16378 225.86197 231.31652 241.01471 246.46926 252.24018 261.6329 265.9311 268.9638 275.02928 280.48384 283.51655 292.0038 298.37474 303.22929 307.50566 311.80384 317.2584 323.32386">andtrustshouldnotdependonanysingleperson.</tspan></text>
<text xml:space="preserve" transform="matrix(1.0099504 0 -0 .99014756 0 792)" font-size="11.017651" font-family="LMRoman10"><tspan y="-539.3702" x="70.89061 79.15385 84.982189 95.206569 101.33238 105.67333 114.983249 120.492069 128.27054 137.44824 142.95706 149.08289 152.14579 156.43166 161.94048 166.2594 169.32231 175.44812 185.36402 189.64987 194.55274 199.15811 205.28394 211.40975 216.91858 219.98148 225.49031 230.99915 241.22351 244.28643 253.03444 256.09736 261.9257 266.21159 271.1144 277.24024 283.36604 288.2689 298.80177 303.08766 313.00355 319.42686 328.73677 337.91447 340.97737 347.10319 350.16609 359.34376 364.85258 367.9155 375.58378 381.7206 387.84645 392.16539 398.58866 404.09748 408.43846 413.34129 417.01017 420.07307 423.136 432.31367 435.3766 439.66246 444.5653 455.09819 459.38407 469.29997 473.6409 479.14973 482.52113 487.42396 491.41236 501.63676 507.1456 513.2714 523.8043 526.8672 532.99307">Anyuseofmonitoringtechnologyisintendedtobeminimal,purpose-limitedtosafetyandin-</tspan></text>
<text xml:space="preserve" transform="matrix(.995992 0 -0 1.0040242 0 792)" font-size="10.8653759" font-family="LMRoman10"><tspan y="-518.42086" x="72.28974 76.51637 81.35146 86.78415 91.04338 94.06395 97.98636 102.810588 109.47106 115.512218 119.77145 125.20413 129.43077 134.26587 139.10097 143.32759 148.16269 157.84374 163.27643 168.70912 174.14182 177.16239 183.20354 187.48448 195.35102 204.40187 207.42246 211.7034 217.74456 222.0255 226.8606 233.52108 238.95377 244.99492 254.67597 260.7171 265.5522 270.9849 275.81999 283.7191 289.76026 294.0412 298.87629 308.5573 311.88215 317.31483 325.21397 330.04905 335.48173 344.5326 353.58348 358.41856 362.67778 367.51286 370.53343 375.9661 382.61573 388.65687 392.9161 398.3488 401.36936 404.38993 407.4105 410.43107 416.4722 421.9049 428.57624 434.0089 440.05009 445.48277 450.31785 454.5771 458.8037 461.82429 466.10523 469.1258 475.16694 480.5996 487.26008 492.09516 497.8321 502.66719 506.9264 511.76148 514.78207 520.20388 526.25588 532.9163 538.349">tegrity,protectedagainstmisuse,andneverusedforcommercialprofiling,advertising,coercion,or</tspan></text>
<text xml:space="preserve" transform="matrix(1 0 -0 1 0 792)" font-size="10.9091" font-family="LMRoman10"><tspan y="-506.958" x="72 78.06546 84.13092 90.19638 93.22911 97.5273 103.59276 112.68004 117.53459 123.29459 127.53823">punishment.</tspan></text>
<text xml:space="preserve" transform="matrix(1 0 -0 1 0 792)" font-size="14.3462" font-family="LMRoman12" font-weight="bold"><tspan y="-472.59" x="72">9</tspan></text>
<text xml:space="preserve" transform="matrix(1 0 -0 1 0 792)" font-size="14.3462" font-family="LMRoman12" font-weight="bold"><tspan y="-472.59" x="92.185108 101.15148 107.43512 115.28249 123.359409 130.71901 145.0652 155.6527 163.48572 169.76935 178.29099 189.50972 196.91236 210.81381 217.09745 229.7221 234.21247 242.28937 251.25574 256.63557 266.3336 273.69319 281.77009 289.12968 293.62004 303.4902 315.15367 323.00105 331.9674 339.8148 346.98789 351.47825 357.3028 365.82444 371.20426 383.8863 391.73368 398.0173 405.3769 414.34327">StagedPathway(High-Level,Capacity-Gated)</tspan></text>
<text xml:space="preserve" transform="matrix(.9899495 0 -0 1.0101526 0 792)" font-size="10.799458" font-family="LMRoman10"><tspan y="-443.73493" x="72.73098 80.83057 85.63633 96.99735 105.24814 110.64787 116.0476 121.44733 126.25309 130.48648 133.48873 138.88846 144.89296 154.46128 157.46353 165.29314 168.28458 173.9867 178.18769 182.99344 188.99794 195.00244 199.80821 209.37653 213.57752 222.55187 228.55637 232.78975 238.49187 243.29764 248.1034 252.90915 262.47749 266.67848 272.68296 276.91633 282.31608 288.32057 293.7203 303.28865 308.68836 314.08808 318.28907 323.09483 332.67393 338.67845 344.68293 350.08268 354.33766 359.14338 363.39839 369.98603 375.38578 381.39027 386.4768 391.87657 397.88105 402.6868 405.68904 411.69355 420.6571 426.05683 432.06135 435.06358 444.34034 452.1375 458.14204 462.94779 472.5161 480.00016 484.80589 487.80815 491.11277 496.5125 500.74589 505.5516 512.1501 518.1546 521.1568 526.5565 532.56106 535.56326 539.451 544.2351">NewDoggerlandisintendedtoproceedthroughgatedphases,advancingonlywhenwelfare,dignity,</tspan></text>
<text xml:space="preserve" transform="matrix(1 0 -0 1 0 792)" font-size="10.9091" font-family="LMRoman10"><tspan y="-434.691" x="72 81.08728 86.54183 89.57456 95.334568 99.5782 104.432758 110.498218 115.95277 122.01823 126.87277 135.37097 140.21462 145.66916 151.74553 157.20008 162.04372 165.07645 169.02555 173.86919 180.54557 184.84375 190.2983 193.63648 198.49103 202.42922 211.82196 218.19287 223.04743 227.32379 230.66197 236.11652 240.39289 249.48017 254.93471 261.00016 265.8547 270.70927 277.3747 282.82926 288.8947 298.60383 301.63655 307.0911 312.54566 318.0002 321.03294 327.0984 336.18568 339.21839 344.9784 349.22206 354.0766 359.53117 363.80754 366.84025 370.77845 380.1821 384.45848 389.31303 398.4003 403.85487 406.88758 416.58576 420.88395 425.1276 430.58216 436.6476 439.68034 444.53489">maintenancecapacity,safetyperformance,andloggingintegrityremainstable.</tspan></text>
<text xml:space="preserve" transform="matrix(1 0 -0 1 0 792)" font-size="11.9552" font-family="LMRoman12" font-weight="bold"><tspan y="-405.482" x="72 78.73078 82.47276">9.1</tspan></text>
<text xml:space="preserve" transform="matrix(1 0 -0 1 0 792)" font-size="11.9552" font-family="LMRoman12" font-weight="bold"><tspan y="-405.482" x="99.29373 108.48728 115.95928 122.49878 127.806888 138.4231 145.15387 154.87345 162.20198 168.93276 176.40476 183.87676 191.34876 197.88825 203.12462 206.8666 213.59737 221.06937 227.60886 235.83403 242.56482 248.69783 254.19722 261.66923 267.80226 276.02745 281.26383 288.73585 294.23524 300.36827 304.85148 310.15959 316.13719 322.67668 326.41865 332.55168">Phase0:Foundationalkernel(pre-scale)</tspan></text>
<text xml:space="preserve" transform="matrix(1 0 -0 1 0 792)" font-size="10.9091" font-family="LMRoman10"><tspan y="-384.889" x="72">&#x2022;</tspan></text>
<text xml:space="preserve" transform="matrix(1 0 -0 1 0 792)" font-size="10.9091" font-family="LMRoman10"><tspan y="-384.889" x="85.94183 90.79639 95.094577 99.33821 104.79276 110.85822 113.89095 116.92368 121.22187 130.92006 135.77462 141.22916 145.50553 154.00373 158.28009 163.73464 169.8001 174.04373 177.07646 183.14192 187.99648 195.9274 201.38195 207.4474 217.1456 221.44379 226.89833 230.24742 235.09107 239.04016 248.4329 254.49837 258.77473 264.53474 269.38929 274.24385 280.3093 286.37477 290.65113 295.50569 299.80387">establishcareroutinesandsafetyprocedures,</tspan></text>
<text xml:space="preserve" transform="matrix(1 0 -0 1 0 792)" font-size="10.9091" font-family="LMRoman10"><tspan y="-362.573" x="72">&#x2022;</tspan></text>
<text xml:space="preserve" transform="matrix(1 0 -0 1 0 792)" font-size="10.9091" font-family="LMRoman10"><tspan y="-362.573" x="85.94183 90.79639 95.094577 99.33821 104.79276 110.85822 113.89095 116.92368 121.22187 130.92006 133.95279 139.40734 144.86188 150.31642 153.34915 159.41461 168.5128 174.57826 177.611 181.90918 186.76374 189.79647 195.86193 198.89466 201.92739 207.99285 216.48014 221.93468 228.00014 237.70925 241.9747 246.82926 252.58927 255.622 260.47654 271.99656 278.062 283.51658 289.58204 292.61476 296.8584 301.1566">establishloggingdisciplineandreviewhabits,</tspan></text>
<text xml:space="preserve" transform="matrix(1 0 -0 1 0 792)" font-size="10.9091" font-family="LMRoman10"><tspan y="-340.257" x="72">&#x2022;</tspan></text>
<text xml:space="preserve" transform="matrix(1 0 -0 1 0 792)" font-size="10.9091" font-family="LMRoman10"><tspan y="-340.257" x="85.94183 92.00729 96.28366 101.432758 106.8873 115.38549 121.45095 126.9055 131.20369 134.23642 142.72371 148.17826 154.54917 159.40372 163.68009 169.13463 175.20009 178.23282 181.26555 184.29828 188.23647 197.62921 205.50559 208.53832 212.78195 218.84741 224.30196 230.36742 238.2547 241.28743 247.35289 250.69107 256.14564 260.422 269.50929 274.96385 281.62928 287.08384 293.1493 297.39295 303.4584 308.91297 313.18934 316.22206 320.16026 325.0148">provebasicoperabilitywithoutinformalauthority.</tspan></text>
<text xml:space="preserve" transform="matrix(1 0 -0 1 0 792)" font-size="11.9552" font-family="LMRoman12" font-weight="bold"><tspan y="-311.04798" x="72 78.73078 82.47276">9.2</tspan></text>
<text xml:space="preserve" transform="matrix(1 0 -0 1 0 792)" font-size="11.9552" font-family="LMRoman12" font-weight="bold"><tspan y="-311.04798" x="99.29373 108.48728 115.95928 122.49878 127.806888 138.4231 145.15387 154.87345 162.34545 167.58182 174.1213 181.5933 185.33528 195.95149 205.30046 211.43347 215.17545 219.28804 225.82753 231.32692 241.94313 248.6739 256.5165 262.64955 268.14894 274.68843 279.9248 283.66679 290.39756 297.86958">Phase1:Stablewelfareoperations</tspan></text>
<text xml:space="preserve" transform="matrix(1 0 -0 1 0 792)" font-size="10.9091" font-family="LMRoman10"><tspan y="-290.455" x="72">&#x2022;</tspan></text>
<text xml:space="preserve" transform="matrix(1 0 -0 1 0 792)" font-size="10.9091" font-family="LMRoman10"><tspan y="-290.455" x="85.94183 90.24002 94.48366 99.93821 106.00367 109.0364 112.06913 115.10186 119.956409 128.4437 132.74188 138.19643 144.26189 149.11644 153.36008 159.42554 164.88008 169.15645 174.91646 180.371 184.64737 189.50193 193.80011 198.65467 204.72013 209.57468 215.02922 220.48377 226.54923 232.00377 238.06923 242.31287 245.3456 250.80014 260.50926 265.9638 272.33473 277.17839 281.45475 286.9093 291.15296 294.18568 299.64024 305.7057 313.64753 321.5239 324.5566 328.80027 334.86573 337.89845 347.59663 353.66209 357.93846 363.08757 368.553 373.40757 383.10575 387.9603 393.41487 397.69123 401.9676 407.7276 410.7603 416.82579 425.91307 430.7676 436.22218 442.28764 447.7422 452.59675 455.62947 459.56767 464.4222">stabilizesanctuary/rescue/adoptionoperationswithinprovencarryingcapacity,</tspan></text>
<text xml:space="preserve" transform="matrix(1 0 -0 1 0 792)" font-size="10.9091" font-family="LMRoman10"><tspan y="-268.138" x="72">&#x2022;</tspan></text>
<text xml:space="preserve" transform="matrix(1 0 -0 1 0 792)" font-size="10.9091" font-family="LMRoman10"><tspan y="-268.138" x="85.94183 92.00729 96.86185 105.94913 111.40368 117.46914 121.76733 126.01096 130.28733 135.74187 139.9855 148.4728 152.71643 158.78189 164.23644 172.12372 175.15645 180.611 186.06554 193.99646 199.451 205.51647 215.22557 219.49103 224.34558 230.10559 233.13832 237.99288 245.86925 253.81108 258.08747 262.94203 272.0293 277.48387 280.51658 290.21476 295.0693 301.13478 305.41114 309.6875 314.54206 320.30207 328.17845 334.2548 340.32026 346.3857 351.24028 359.14936 362.18208 367.63664 373.0912 379.15666">demonstratethatlogsandreviewsremaincurrentunderload,</tspan></text>
<text xml:space="preserve" transform="matrix(1 0 -0 1 0 792)" font-size="10.9091" font-family="LMRoman10"><tspan y="-245.822" x="72">&#x2022;</tspan></text>
<text xml:space="preserve" transform="matrix(1 0 -0 1 0 792)" font-size="10.9091" font-family="LMRoman10"><tspan y="-245.822" x="85.94183 90.79639 95.094577 99.33821 104.79276 110.85822 113.89095 116.92368 121.22187 130.92006 135.77462 141.22916 147.29462 151.5928 154.62554 158.93463 163.17827 168.02191 173.79283 181.6692 187.12377 191.97832 196.22196 201.0765 205.35288 208.3856 214.45107 219.90561 224.18198 233.57472 239.02927 245.10564 254.80384 260.2584 264.53477 270.29478 275.74934 284.8366 287.86933 293.93479 303.02207 307.32026 313.3857 319.45118 325.82209 331.27665 335.553 339.79667">establishconsistentveterinaryandgroomingsupport.</tspan></text>
<text xml:space="preserve" transform="matrix(1 0 -0 1 0 792)" font-size="11.9552" font-family="LMRoman12" font-weight="bold"><tspan y="-216.613" x="72 78.73078 82.47276">9.3</tspan></text>
<text xml:space="preserve" transform="matrix(1 0 -0 1 0 792)" font-size="11.9552" font-family="LMRoman12" font-weight="bold"><tspan y="-216.613" x="99.29373 108.48728 115.95928 122.49878 127.806888 138.4231 145.15387 154.87345 164.4376 171.16838 178.64038 186.11238 193.58438 199.71739 211.67259 219.14459 226.6166 234.0886 237.83057 241.57254 252.03334 258.57286 264.55046 270.52806 276.66108 281.96919 291.7605 299.23249 302.97447 306.71644 313.4472 318.6836">Phase2:Boundedpublicaccesspilots</tspan></text>
<text xml:space="preserve" transform="matrix(1 0 -0 1 0 792)" font-size="10.9091" font-family="LMRoman10"><tspan y="-196.02" x="72">&#x2022;</tspan></text>
<text xml:space="preserve" transform="matrix(1 0 -0 1 0 792)" font-size="10.9091" font-family="LMRoman10"><tspan y="-196.02" x="85.94183 88.97456 94.734569 98.9782 103.25457 109.01458 115.08004 121.1455 126.000049 134.48734 137.52007 140.5528 149.64008 152.6728 156.91645 161.771 171.4801 177.54557 183.61103 189.67649 192.70922 195.74195 204.22924 209.68378 214.53833 219.39289 224.24744 228.54563 236.47655 241.93109 247.99655 257.70567 262.5602 268.62568 274.69114 279.5457 285.00025 289.2439 292.2766 297.73118 307.42936 310.46208 320.16026 324.4366 329.29118 334.75663 339.60029 343.87666 348.17485 351.20756 357.2839 360.30574 365.16029 371.83665 378.20756 383.6621 389.72758 395.79304 401.8585 406.71305 416.41123 419.74943 425.20399 429.48036 438.56764 442.8658">introducelimitedpublicaccessandeducationinreversible,boundedforms,</tspan></text>
<text xml:space="preserve" transform="matrix(1 0 -0 1 0 792)" font-size="10.9091" font-family="LMRoman10"><tspan y="-173.70401" x="72">&#x2022;</tspan></text>
<text xml:space="preserve" transform="matrix(1 0 -0 1 0 792)" font-size="10.9091" font-family="LMRoman10"><tspan y="-173.70401" x="85.658199 90.80729 96.26184 99.29457 102.3273 108.39276 113.84731 118.09095 126.589138 130.88732 136.34186 139.68004 144.53459 148.47278 157.86553 163.32007 169.38553 179.09464 185.1601 188.19283 193.64737 199.71283 202.74556 206.68375 216.07649 221.53104 227.5965 231.84014 236.69469 242.14923 251.23651 256.09107 264.0329 271.90928 274.942 279.18565 285.2511 290.70567 296.77113 304.6475 312.2184 317.07298 320.10569 323.44389 328.89845 333.1748 341.673 347.73847 352.59303 358.04759 362.32395 367.7785 373.84397 379.29853 383.54219 386.5749 392.02946 398.0949">validatesafetyanddignityoutcomeswithoutwelfaredegradation,</tspan></text>
<text xml:space="preserve" transform="matrix(1 0 -0 1 0 792)" font-size="10.9091" font-family="LMRoman10"><tspan y="-151.38701" x="72">&#x2022;</tspan></text>
<text xml:space="preserve" transform="matrix(1 0 -0 1 0 792)" font-size="10.9091" font-family="LMRoman10"><tspan y="-151.38701" x="85.94183 90.2182 95.072757 98.105487 101.138217 107.203678 115.690959 121.75642 126.03278 131.79279 136.64734 141.50189 147.56735 153.63282 157.90918 162.76374 170.69466 174.99285 184.09104 189.54558 195.61104 199.85468 205.30922 211.37468 216.82923 225.61106 235.0038 239.28017 244.13472 253.222 258.67655 261.70927 267.77473 275.71656 280.01475 285.4693 288.8075 293.66206">refineproceduressoautonomyremainssafe.</tspan></text>
<text xml:space="preserve" transform="matrix(1 0 -0 1 0 792)" font-size="11.9552" font-family="LMRoman12" font-weight="bold"><tspan y="-122.17801" x="72 78.73078 82.47276">9.4</tspan></text>
<text xml:space="preserve" transform="matrix(1 0 -0 1 0 792)" font-size="11.9552" font-family="LMRoman12" font-weight="bold"><tspan y="-122.17801" x="99.29373 108.48728 115.95928 122.49878 127.806888 138.4231 145.15387 154.87345 165.17884 172.65084 178.15023 184.68972 192.16172 195.90369 199.64566 203.38764 208.2534 219.838 227.31 234.782 238.52397 242.26595 249.73795 254.22115 260.95195 268.42396">Phase3:Durabilitybuild-out</tspan></text>
<text xml:space="preserve" transform="matrix(1 0 -0 1 0 792)" font-size="10.9091" font-family="LMRoman10"><tspan y="-101.58501" x="72">&#x2022;</tspan></text>
<text xml:space="preserve" transform="matrix(1 0 -0 1 0 792)" font-size="10.9091" font-family="LMRoman10"><tspan y="-101.58501" x="85.94183 90.79639 96.55639 102.62185 108.0764 114.14186 123.84005 126.87278 132.93824 136.27642 140.55278 146.00733 150.31642 154.56006 158.82552 164.90189 169.74553 173.98917 180.06554 184.331 192.8292 198.28374 204.3492 207.38193 216.77468 224.65105 230.7165 235.57106 245.28017 254.36745 259.822 262.8438 268.61473 272.85838 277.71293 283.77839 289.23295 295.2984 300.15296 308.64024 313.49479 318.94935 325.0148 330.46937 335.3239 338.35664 342.29484 351.6985 354.7203 362.66215 368.7276 373.58216 382.66944 388.124 394.18946 398.48765 402.7313 407.00767 412.46223 416.70588 421.56044 427.6259">expandinfrastructureonlywhenmaintenancecapacityisdemonstrated,</tspan></text>
<text xml:space="preserve" transform="matrix(1 0 -0 1 0 792)" font-size="10.9091" font-family="LMRoman10"><tspan y="-79.269008" x="72">&#x2022;</tspan></text>
<text xml:space="preserve" transform="matrix(1 0 -0 1 0 792)" font-size="10.9091" font-family="LMRoman10"><tspan y="-79.269008" x="85.94183 92.00729 98.072757 101.105487 104.138217 113.8364 118.13459 122.37823 127.83278 130.86188 133.89098 136.92006 142.99643 152.08371 155.11644 160.26554 165.7201 170.57465 174.85102 182.79285 187.03649 193.10195 198.55649 206.43286 212.49832 216.77469 221.62924 227.0838 231.93836 237.69837 245.58565 249.88384 252.91657 258.98204 264.43659 267.4693 275.95658 282.32749 287.78205 290.81477 296.57478 300.81843 308.74934 314.2039 321.18574 324.52394 329.9785 333.0112 336.0439 342.10939 346.38575 351.2403">buildstaffinglayersthatpreventsinglepointsoffailure,</tspan></text>
<text xml:space="preserve" transform="matrix(1 0 -0 1 0 792)" font-size="10.9091" font-family="LMRoman10"><tspan y="-42.112005" x="303.273">8</tspan></text>
</svg>
