<svg xmlns="http://www.w3.org/2000/svg" xmlns:xlink="http://www.w3.org/1999/xlink" xmlns:inkscape="http://www.inkscape.org/namespaces/inkscape" version="1.1" width="612" height="792" viewBox="0 0 612 792">
<text xml:space="preserve" transform="matrix(1 0 -0 1 0 792)" font-size="10.9091" font-family="LMRoman10"><tspan y="-709.041" x="72">&#x2022;</tspan></text>
<text xml:space="preserve" transform="matrix(1 0 -0 1 0 792)" font-size="10.9091" font-family="LMRoman10"><tspan y="-709.041" x="85.94183 88.97456 93.27275 97.57094 103.6364 112.12368 118.4946 123.94915 126.98188 130.0146 134.86916">issuepolicy</tspan></text>
<text xml:space="preserve" transform="matrix(1 0 -0 1 0 792)" font-size="10.9091" font-family="LMRoman10"><tspan y="-686.72506" x="72">&#x2022;</tspan></text>
<text xml:space="preserve" transform="matrix(1 0 -0 1 0 792)" font-size="10.9091" font-family="LMRoman10"><tspan y="-686.72506" x="85.94183 88.97456 95.04002 98.072757 101.105487 107.170948 112.0255 118.09096 122.94551 131.4328 136.88735 142.04735 147.5019 152.35646 156.63283 162.69829 168.15283 174.21829 179.07285 187.56014 193.6256 198.48015 203.3347 206.36743 210.66562 213.69835 219.1529 225.21836">influencegovernancedecisions</tspan></text>
<text xml:space="preserve" transform="matrix(1 0 -0 1 0 792)" font-size="10.9091" font-family="LMRoman10"><tspan y="-664.408" x="72">&#x2022;</tspan></text>
<text xml:space="preserve" transform="matrix(1 0 -0 1 0 792)" font-size="10.9091" font-family="LMRoman10"><tspan y="-664.408" x="85.94183 91.09093 96.54547 101.400028 105.67639 109.95276 112.98549 119.05095 127.54914 133.0037 138.45824 142.70188 147.55643">overridevotes</tspan></text>
<text xml:space="preserve" transform="matrix(1 0 -0 1 0 792)" font-size="10.9091" font-family="LMRoman10"><tspan y="-642.09207" x="72">&#x2022;</tspan></text>
<text xml:space="preserve" transform="matrix(1 0 -0 1 0 792)" font-size="10.9091" font-family="LMRoman10"><tspan y="-642.09207" x="85.94183 92.31275 97.1673 101.443668 105.74185 108.77458 113.07277 120.949138 127.32005 132.1746 137.62917 143.08371 149.14917 158.85828 161.891 166.13465 174.06557 179.52011 185.58557 189.82921 195.89467 201.34922 205.62558 208.65831 213.51287 218.36742 228.06562 232.3638 237.21836 242.6729 249.04381">persistbeyonditsauthorizedscope</tspan></text>
<text xml:space="preserve" transform="matrix(1.0099504 0 -0 .99014756 0 792)" font-size="11.017651" font-family="LMRoman10"><tspan y="-621.91848" x="71.290637 77.58171 83.09053 91.012218 96.223567 101.73239 107.24121 110.30412 116.42993 121.93876 128.06458 132.96744 141.47307 146.9819 153.94506 160.07086 165.5797 171.7055 177.84235 182.1282 188.78285 193.06871 199.19454 207.70017 212.01909 216.92194 222.73926 228.86507 231.92798 236.24689 241.13874 250.31645 255.21929 261.0476 268.93626 273.22215 279.34794 284.85676 292.7344 297.02027 303.1461 311.6517 317.7775 322.0634 326.96623 334.6235 340.1323 344.45124 350.57707 353.63996 361.5727 370.1444 373.20365 376.26289 379.32209 384.22496 392.73057 398.23936 403.1422 411.01985 420.19755 425.10038 429.70576 435.83155 441.34037 447.4662 450.52909 455.43196 460.94075 464.00367 467.06657 476.47566 481.98448 488.1103 497.83888 505.7936 508.85655 513.1424 519.2682 524.77706 530.90286">Foravoidanceofdoubt,therequirementthattheSteward&#x2019;sOfficeactmechanicallyandwithout</tspan></text>
<text xml:space="preserve" transform="matrix(1.006479 0 -0 .99356278 0 792)" font-size="10.979779" font-family="LMRoman10"><tspan y="-606.14389" x="71.53651 77.641269 80.69365 85.019687 89.905689 94.20976 99.09576 103.36689 106.41927 111.909168 121.61529 127.720058 132.02413 137.514 143.61878 146.67116 152.77591 155.8283 160.09944 168.02684 171.07923 177.18399 183.28874 188.17476 194.57598 199.46198 205.56674 211.67151 216.55751 222.36583 230.23833 233.59813 239.7029 245.80767 251.29755 260.4437 265.3297 271.13804 275.40916 282.06288 288.16764 292.4717 295.52409 301.01399 305.31806 308.37043 312.64155 315.6939 320.57994 326.0698 330.34095 333.3933 338.88319 344.98796 351.64167 357.13157 365.037 371.4382 376.9281 379.98048 383.03285 387.91883 397.31755 400.3699 406.17823 410.44935 415.32438 419.62846 425.7442 430.0373 434.9233 439.19444 444.68434 448.95545 452.0078 457.49769 463.60246 471.47496 479.40235 485.5071 488.55949 496.48689 502.59165 508.37797 513.2639 521.19137 527.2961 532.78598">discretionprohibitsindependentjudgment,prioritization,orpolicyinterpretation.Thisdoesnot</tspan></text>
<text xml:space="preserve" transform="matrix(.99749687 0 -0 1.0025094 0 792)" font-size="10.881793" font-family="LMRoman10"><tspan y="-587.2185" x="72.18068 78.23096 82.49662 87.937519 93.98779 97.01293 103.06321 106.08834 113.95588 118.188899 124.239177 132.7161 141.78063 144.80576 150.85604 153.88117 162.9457 168.3866 175.04625 180.48715 186.53742 192.58769 195.61283 198.63796 203.48036 208.92125 213.15428 216.17942 221.62032 231.3051 236.746 243.71036 251.41466 256.85557 262.90586 268.95613 275.00639 279.84877 289.53358 297.84727 300.8724 305.15986 310.00227 314.2679 319.11033 323.34333 326.36848 331.8094 341.49418 345.78163 351.2225 354.24766 359.09004 362.11518 371.4953 379.35194 385.4022 390.24464 394.51029 402.97633 407.8187 413.56428 419.61457 422.6397 425.66487 430.50727 433.5324 437.76545 440.7906 450.1707 454.43635 459.27876 465.02433 471.07463 474.09977 478.36543 483.2078 492.89259 497.1256 506.20103 511.0434 516.789 521.63137 526.47378 532.52407 536.7571">prohibittheminimalapplicationofBoundedDiscretionsolelywhereexplicitlyrequiredtoexecute</tspan></text>
<text xml:space="preserve" transform="matrix(1.0094553 0 -0 .9906332 0 792)" font-size="11.012249" font-family="LMRoman10"><tspan y="-580.58126" x="71.3256 80.42172 85.322177 90.8283 96.65378 100.937549 103.998958 109.82443 115.94724 119.00865 122.98408 132.38854 135.75829 141.8811 148.01494 152.90438 157.18814 160.24954 165.75566 175.47948 180.98561 184.03598 188.35279 193.25325 198.75937 204.88219 214.29766 219.80377 225.92659 230.21036 236.33318 241.8393 246.1561 249.2175 254.10694 259.0074 268.73118 274.54566 283.9501 288.2339 294.3567 297.4181 305.3579 311.4807 317.28419 322.18464 328.30744 337.48063 342.38108 348.20655 352.49034 359.14173 365.26454 369.58134 374.79014 380.60459 383.66603 389.78883 394.68928 404.40205 408.68583 414.80863 420.31477 428.1885 432.52735 438.65016 443.24226 452.96607 459.08888 462.15028 466.4891 471.38954 475.70634 480.60679 484.89054 487.94096 493.44709 503.1709 506.2323 514.16116 517.5309 523.6537 526.7151 529.7765">acontinuityfunctionalreadyauthorizedbythisdocument,providedthatsuchdiscretionisfully</tspan></text>
<text xml:space="preserve" transform="matrix(1 0 -0 1 0 792)" font-size="10.9091" font-family="LMRoman10"><tspan y="-561.594" x="72 78.06546 83.82547 88.68002 94.74548 103.83276 108.68732 114.44732 118.690959 123.5455 133.2437 138.69824 144.7637 154.47281 158.74918 163.60373 172.69101 178.14556 181.17829 187.24375 195.17467 199.47286 203.71649 207.99286 211.02559 215.88014 220.12378 223.15651 232.54926 237.40381 242.85836 248.92382 253.222 257.46565 261.742 267.19657 270.22929 276.29475 281.1493 290.8584 295.10206 304.18934 309.04389 314.8039 319.65846 324.513 330.57847 334.8221 337.85484 343.3094 353.00758 362.09486 366.9494 371.4985 377.57487 383.02943 389.09489 392.1276 396.97126 401.28034">documentedandremainsstrictlyconstrainedtoexecutionmechanics.</tspan><tspan y="-541.27" x="72 82.00365 88.06911 92.312747 97.767299 103.832759 106.865489 109.89822 112.93095 116.869129 122.62913 130.5164 138.69823 144.76369 149.31279 155.37825 160.8328 166.89826 172.3528 177.20735 182.6619 188.72736 191.76009">Mutability:Unchangeable</tspan></text>
<text xml:space="preserve" transform="matrix(1 0 -0 1 0 792)" font-size="11.9552" font-family="LMRoman12" font-weight="bold"><tspan y="-512.06106" x="72 78.73078 82.47276">4.4</tspan></text>
<text xml:space="preserve" transform="matrix(1 0 -0 1 0 792)" font-size="11.9552" font-family="LMRoman12" font-weight="bold"><tspan y="-512.06106" x="99.29373 106.76573 112.00211 118.13513 127.48409 134.01165 139.51103 146.98303 152.30309 159.77509 163.51706 175.47226 185.63419 193.10619 200.94879 207.67957 211.42154 218.52294 223.75931 234.97328 241.1063 248.19573 253.4321 261.6573 269.8944 276.02745 281.52684 292.7408 300.966 307.5055 314.97749 326.93269 335.97084 342.5103 348.4879 355.0274 362.4994 368.477">StewardshipAppointment,Term,andVacancy</tspan></text>
<text xml:space="preserve" transform="matrix(.99196776 0 -0 1.0080973 0 792)" font-size="10.821475" font-family="LMRoman10"><tspan y="-487.5204" x="72.18683 79.99993 86.01668 94.50072 100.517459 104.72701 109.54257 117.05267 122.46342 126.70544 136.37984 139.3882 147.32035 152.73108 158.74782 165.06757 170.4783 173.48668 179.20041 183.40996 188.22551 197.91074 203.62447 213.00669 219.02342 225.04018 231.35991 236.17546 240.41748 249.43177 255.14551 258.45689 263.8676 268.10966 271.11799 275.02458 284.40678 289.80668 295.2174 299.42698 307.911 313.32179 320.3016 324.51118 330.5279 339.01194 347.5068 352.60374 358.01448 362.83003 367.07206 373.08879 376.09715 382.1139 391.19309 398.8547 404.56846 410.58518 419.9674 424.17698 429.5877 437.51985 443.53657 448.35215 451.3605 454.36888 460.38563 465.20118 474.88639 477.8839 487.56916 493.58589 498.40147 503.217 507.42658 510.43495 515.8457">TheStewardisappointedbySupermajorityvoteoftheGoverningBody(asdefinedinSection</tspan></text>
<text xml:space="preserve" transform="matrix(.99196776 0 -0 1.0080973 0 792)" font-size="10.821475" font-family="LMRoman10"><tspan y="-487.5204" x="525.5309 530.9416 533.94998">4.5</tspan></text>
<text xml:space="preserve" transform="matrix(.99196776 0 -0 1.0080973 0 792)" font-size="10.821475" font-family="LMRoman10"><tspan y="-487.5204" x="539.36068 543.5702">).</tspan><tspan y="-467.35966" x="72.18683 79.99993 86.01668 94.50072 100.517459 104.72701 109.54257 117.05267 122.46342 126.70544 136.39064 145.10193 151.11867 155.38234 163.26036 167.52402 172.93476 177.1443 180.15268 184.41634 187.7277 197.12076 202.5315 205.53987 212.2167 217.03226 220.04064 223.049 228.45975 231.46811 237.48485 240.49323 243.5016 246.50997 250.41652 259.79875 264.04078 268.85633 274.57008 280.58683 283.59516 287.8372 292.65275 301.66706 306.4826 312.18553 316.39509 324.33805 327.6494 333.06016 340.97065 346.98738 351.19694 356.0125 363.52259 368.93336 373.17536 379.1921 383.45576 389.47248 392.48085 402.16606 408.1828 412.99839 416.00675 419.0151 425.03187 429.8474 439.53263 442.541 452.23704 458.25379 463.06935 467.88493 472.09449 475.1028 480.51359">TheStewardmustsatisfyalleligibilityrequirementsforStewardshipdefinedinSection</tspan></text>
<text xml:space="preserve" transform="matrix(.99196776 0 -0 1.0080973 0 792)" font-size="10.821475" font-family="LMRoman10"><tspan y="-467.35966" x="490.1988 495.60954 498.6179">4.2</tspan></text>
<text xml:space="preserve" transform="matrix(.99196776 0 -0 1.0080973 0 792)" font-size="10.821475" font-family="LMRoman10"><tspan y="-467.35966" x="504.02864 511.93913 518.0857 523.4964 526.50479 529.5131 535.52987 539.77188">.Failure</tspan></text>
<text xml:space="preserve" transform="matrix(1.0099504 0 -0 .99014756 0 792)" font-size="11.017651" font-family="LMRoman10"><tspan y="-462.14833" x="71.290637 75.5765 85.39323 94.57093 99.473789 104.37663 112.95938 118.468219 124.29655 134.42177 139.32463 142.37653 145.43944 150.94826 154.01117 160.13698 163.19989 166.2628 169.3257 173.31409 183.43932 188.34217 193.851 199.9768 206.10263 209.16553 213.4514 216.5143 222.02313 232.44583 236.76476 241.66762 247.79343 253.91924 258.82209 263.14103 271.7899 276.07575 282.20158 291.41233 296.92115 303.04695 309.47026 314.97908 318.04197 323.8703 328.15617 337.33387 342.2367 348.06504 356.64778 359.7107 365.539 370.75038 376.2592 379.32209 382.385 388.5108 398.49284 402.47019 410.13847 415.64726 426.081 431.58979 437.7156 444.13893 449.6477 452.71064 458.53895 462.82484 472.00254 476.90538 482.7337 491.31645 494.37937 503.02824 506.09114 511.9195 517.13088 522.6397 525.7026 528.7655">tomeetanyeligibilityconditionrenderstheappointmentinvalid.Ifanappointmentisinvalid</tspan><tspan y="-448.46449" x="71.290637 77.41644 83.54226 89.66807 94.57092 103.594379 107.88025 114.00606 117.06897 126.10344 130.4444 136.5702 142.69603 147.03699 151.93985 156.84272 161.12857 164.19147 169.7003 175.82611 183.86899 189.37783 195.19515 205.71698 212.14028 217.04312 221.36205 225.703 231.21184 242.04218 251.21988 256.43125 266.94209 270.00498 273.0679 276.1308 285.7382 291.247 302.06636 309.56938 312.63227 315.69517 321.20399 324.26689 330.3927 333.4556 336.51853 339.58143 343.56983 354.0807 362.03544 368.16123 373.67005 376.73298 379.79588 384.6987 390.82453 396.33335 405.9407 414.20396 419.71278 423.99864 427.06156 431.9644 436.86726 448.0171 456.28034 462.71464 468.22346 479.0428 483.36174 488.26457 493.16743 498.07026 501.13316 507.25898 511.54484 519.5877 523.87356 529.9994">underthissubsection,anypersonmayfileanEligibilityChallengeNotice.Uponreceipt,the</tspan><tspan y="-434.78068" x="71.290637 79.93949 85.15083 90.67068 95.562519 99.88143 106.00725 109.07015 115.20698 124.67115 132.47165 138.28899 144.4148 154.19847 163.06768 169.1935 173.53446 181.78667 186.07254 191.58136 199.83359 202.89649 208.40532 217.88051 222.16637 228.29219 237.1614 243.28722 248.79605 253.08191 256.14485 261.04768 269.91688 277.87165 280.93455 285.22044 291.34623 294.40916 304.5013 308.48973 316.136 321.03883 326.86717 330.85554 336.67286 340.34175 343.71315 349.22196 355.34776 363.63307 367.9189 373.42774 378.93656 387.18879 393.3146 398.82344 404.94926 409.26817 413.60914 420.72654 425.01243 430.52125 438.77348 444.8993 449.80213 454.088 458.99085 463.30979 472.48747 475.55039 481.67619 490.5454 495.44825 498.51115 501.57408 507.0829 510.14579 516.2716 519.3345 522.3974 525.4603 529.4376">GoverningBodymust(1)logthenoticewithintwenty-four(24)hours,(2)determineeligibility</tspan><tspan y="-421.09684" x="70.901508 78.85625 81.91916 86.205028 92.33084 95.393749 106.146968 109.518367 115.02719 121.153 125.47192 129.75778 134.66065 139.56349 150.31673 154.60259 160.11142 165.62026 174.53353 180.67035 185.87068 191.688 196.02896 203.9837 209.49253 215.61833 226.37157 230.65743 236.16626 245.07955 249.39846 254.3013 259.20414 264.71296 269.0319 279.78514 284.07099 290.1968 299.72709 305.85289 310.75575 315.0416 319.94447 324.2634 333.44108 336.50398 342.6298 348.1386 352.4245 355.4874 360.99623 371.74946 377.25825 383.38407 394.14833 399.65718 405.166 409.45188 418.98213 423.30107 428.2039 432.54487 438.6707 441.73359 446.01945 456.971 460.94837 468.94718 472.01008 478.1359 483.03874 486.10166 489.16456 494.67338 497.73628 503.8621 506.925 509.9879 513.05087 517.03927 527.48397 530.5468">withinfourteen(14)days,and(3)recordthedeterminationandvoteresult.Ifineligibilityis</tspan><tspan y="-407.41203" x="71.290637 76.19348 81.7023 87.82812 90.89102 93.95393 98.27285 107.450557 112.35341 118.47922 126.081409 130.36727 136.49309 145.74793 151.87374 156.15959 161.06246 168.71971 174.22855 178.54747 184.67328 189.01424 195.14006 198.20296 208.68076 212.99967 218.5085 221.5714 230.82624 233.88915 242.58208 248.70789 253.61075 258.5136 267.69129 272.59416 283.0719 288.29429 293.8031 298.70597 304.21476 310.0431 318.68095 324.18977 332.88267 338.39149 346.11485 350.4007 356.52653 365.7813 371.90715 376.81 381.09587 385.99873 390.31764 399.49534 402.55824 408.68406 414.19288 418.47874 421.54167 427.05046 437.52824 441.81413 444.877 454.05473 458.95756 463.29853 467.58439 473.0932 482.2709 488.3967 495.99888 501.5077 507.63356 518.1113 523.6202 529.44857">confirmed,theStewardshiproleisdeemedvacantasofthedeterminationtimestamp,andany</tspan><tspan y="-393.7282" x="71.290637 76.79946 81.70231 85.98818 89.05109 94.55991 100.68573 109.08118 113.35603 118.86485 124.3847 129.28755 139.46787 145.59368 151.71949 157.8453 162.74817 171.11055 177.23638 181.52223 186.4251 194.08237 199.5912 203.91013 214.09043 219.59925 225.72507 230.01093 236.13674 241.64557 245.96448 249.02739 253.00475 262.8766 269.0024 275.1282 279.44715 282.51005 288.63587 298.18818 302.47404 308.59986 317.5572 320.6201 326.7459 331.64878 334.71168 337.77458 343.2834 346.34629 352.4721 355.535 364.48133 370.90464 375.80747 380.1264 383.18934 389.00663 399.1759 408.05613 414.18193 418.5229 426.85224 433.28654 442.23286 446.5518 451.45463 457.27198 460.33488 465.2377 472.895 477.79783 487.9671 494.09294 500.21876 506.34455 511.24745 519.62088 523.9067 530.0325">actionstakenunderStewardauthorityduringtheineligibleperiodmustbereviewedunderthe</tspan></text>
<text xml:space="preserve" transform="matrix(1 0 -0 1 0 792)" font-size="10.9091" font-family="LMRoman10"><tspan y="-376.3" x="72 80.0291 84.88365 89.738208 95.19276 99.469127 105.534587 110.38913 120.08732 128.42188 133.27643 138.13098 141.16371 145.4619 148.49463 153.94918 163.65828 170.78192 176.23647 180.4801 186.24011 193.81104 198.97104 208.36379 216.24016 219.27289 223.51653 229.58199 232.61472 242.31291 246.55655 252.62201 255.65474 259.9311 263.8693 273.27296 277.5166 282.97117 288.42573 296.3021 302.36756 307.51667 313.27668 317.57487">RecordedDecisionPathwaywithinthirty(30)days.</tspan></text>
<text xml:space="preserve" transform="matrix(.9899495 0 -0 1.0101526 0 792)" font-size="10.799458" font-family="LMRoman10"><tspan y="-352.39826" x="72.33399 80.131198 86.1357 94.418888 100.423389 104.624378 109.43013 116.914157 122.31389 126.54727 136.0292 140.28418 145.08995 149.32334 154.72307 159.52883 167.26123 176.12758 179.12982 182.13208 187.8342 192.63996 202.12189 206.32288 211.12863 215.36202 227.83539 233.23513 240.01718 244.21817 250.22267 253.22492 257.4475 261.3461 267.04823 270.64445 274.8994 277.90168 287.0812 291.2822 296.68193 302.08164 309.76005 318.756 324.15574 329.84706 334.04804 340.05253 344.30754 352.14793 359.94514 365.94963 374.2328 380.23728 384.43827 389.24403 396.72804 402.12779 406.36116 415.84309 424.83903 429.93638 439.1051 445.4228 453.69517 457.92857 462.73429 468.13404 474.13853 480.4562 485.85594 488.8582 494.5603 498.7505 503.5562 513.03817 516.3428 521.7425 529.45339 534.8531 540.8576">TheStewardservesafixedtermofthirty-six(36)months.TheStewardmaybereappointedforone</tspan></text>
<text xml:space="preserve" transform="matrix(1 0 -0 1 0 792)" font-size="10.9091" font-family="LMRoman10"><tspan y="-342.427" x="72 77.45455 83.52001 89.58547 92.6182 96.86184 99.89457 105.34912 111.41458 116.86913 123.53459 128.38915 133.84369 139.90915 144.20734 149.06189 153.91645 159.9819 164.22554 167.25827 172.72374 181.21103 185.45467 190.30922 194.58559 207.3056 213.06562 222.46927 228.53473 234.60019 240.9711 245.82566 250.10202 259.1893 264.93843 268.2766 273.73118 278.00755 281.04026 284.98936 294.38209 299.83665 305.2912 309.53486 314.3894">additionalconsecutivetermbySupermajorityvote.</tspan></text>
<text xml:space="preserve" transform="matrix(.9899495 0 -0 1.0101526 0 792)" font-size="10.799458" font-family="LMRoman10"><tspan y="-318.86567" x="72.33399 80.131198 86.1357 94.60248 100.60697 104.80797 109.61372 117.09775 122.497478 126.730869 136.39638 145.39234 150.48967 159.842 166.15969 174.62647 178.85987 183.65482 192.65076 197.74811 203.14783 207.9536 217.61911 220.92375 226.32347 234.20708 239.01284 244.41257 250.41707 254.67205 263.1388 268.8409 278.19325 284.19773 290.20225 296.51994 301.32566 305.55903 314.555 320.2571 323.56175 328.9615 333.19486 336.1971 340.09568 349.44804 354.84776 360.24748 364.44847 369.25419 375.91746 380.17243 386.17695 392.4946 395.79924 400.60499 405.41075 413.2619 417.4629 426.52363 430.72459 436.7291 445.19584 449.45085 454.85057 463.84654 472.30247 478.30699 482.54035 488.25328 493.059 497.86476 503.86924 509.87376 514.1071 519.50686 526.1593 530.41427 535.81399 539.1294 543.9244">TheStewardmayberemovedforcausebySupermajorityvote,subjecttothesameproceduralsafe-</tspan></text>
<text xml:space="preserve" transform="matrix(.9924717 0 -0 1.0075854 0 792)" font-size="10.826972" font-family="LMRoman10"><tspan y="-306.2311" x="72.54615 77.95964 83.97944 89.39292 93.63709 99.65689 107.59306 113.00655 119.02635 125.04615 128.05605 131.06595 135.88396 141.29744 147.31723 150.32714 158.82631 163.03801 172.12184 180.62102 185.73134 191.134 195.95201 200.19618 206.21598 209.22588 215.24567 224.34032 232.00582 237.72245 243.74224 253.12923 262.1481 266.9661 275.6818 282.00477 286.82279 294.73728 298.98146 303.79945 312.8183 317.92866 323.02818 328.44166 335.13273 341.15254 347.17234 353.19215 358.01017 365.92466 370.13636 376.15617 379.16606 387.1022 393.122 398.83866 403.65669 409.67649 418.69535 423.51335 429.23 433.4417 440.13276 443.14268 449.16249 453.98048 456.9904 463.0102 469.03 472.0399 478.0597 487.14353 493.16334 498.87998 503.698 509.7178 518.7367 523.5547 529.2713 533.48306 538.301">guardsapplicabletoGoverningBodymemberremovalunderthisdocument,includingdocumented</tspan></text>
<text xml:space="preserve" transform="matrix(1 0 -0 1 0 792)" font-size="10.9091" font-family="LMRoman10"><tspan y="-295.005" x="72 76.85455 82.309108 88.374568 92.67275 101.16003 106.61458 112.68004 122.38914 131.47643 136.93099 142.38553 146.62917 155.12737 159.40373 164.25829 169.10193 174.55648 178.83284 184.8983">causeandavoterecord.</tspan><tspan y="-274.681" x="72 79.87637 85.330928 91.396389 95.69457 104.18185 107.520038 112.97459 120.89459 125.17096 130.02552 139.1128 144.26189 149.41098 154.86553 161.5419 164.57463 170.64009 175.49465 178.52738 184.59284 190.6583 195.51285 199.81104">Causeforremovalincludes:</tspan></text>
<text xml:space="preserve" transform="matrix(1 0 -0 1 0 792)" font-size="10.9091" font-family="LMRoman10"><tspan y="-248.38" x="72">&#x2022;</tspan></text>
<text xml:space="preserve" transform="matrix(1 0 -0 1 0 792)" font-size="10.9091" font-family="LMRoman10"><tspan y="-248.38" x="85.94183 89.28002 94.73457 97.7673 100.80003 106.86549 111.14186 119.62914 125.083698 133.00371 137.28008 142.13463 145.47281 151.53827 155.83646 161.291 167.95647 172.2001 181.28739 186.14194 191.90195 196.7565 201.61106 207.67652 211.92015 220.40744 225.86199 235.57109 240.42565 246.18566 252.25112 255.28385 258.31657 263.1711 266.20384 270.44749 273.4802 282.87294 288.32749 294.39295 298.6366 304.70207 310.15663 314.43299 317.4657 322.32026 327.1748 336.873 342.93846 348.393 352.953 358.713 363.0112 367.25486 372.7094 382.4076 385.7458 391.81126 397.8767 402.73127 406.9749 410.00764 415.4622">failureorrefusaltoexecuteanexplicitlyauthorizedbackstopfunction</tspan></text>
<text xml:space="preserve" transform="matrix(1 0 -0 1 0 792)" font-size="10.9091" font-family="LMRoman10"><tspan y="-226.063" x="72">&#x2022;</tspan></text>
<text xml:space="preserve" transform="matrix(1 0 -0 1 0 792)" font-size="10.9091" font-family="LMRoman10"><tspan y="-226.063" x="85.94183 91.396389 96.25093 100.49457 103.5273 108.98185 118.68004 124.13459 130.20005 134.44368 138.74187 141.7746 147.84006 156.33826 160.5819 166.64736 175.13465 179.43283 184.28739 189.74193 196.11284 204.60013 210.05467 217.0365 223.10196 227.3456 232.20015 239.77108 245.22562 249.50199 255.56745 259.86564 265.9311 268.9638 278.662 284.11656 290.182 294.42567 300.49113 305.94569 310.22206 313.25477 317.19297">actionoutsidethescopeofStewardshipauthority</tspan></text>
<text xml:space="preserve" transform="matrix(1 0 -0 1 0 792)" font-size="10.9091" font-family="LMRoman10"><tspan y="-203.74701" x="72">&#x2022;</tspan></text>
<text xml:space="preserve" transform="matrix(1 0 -0 1 0 792)" font-size="10.9091" font-family="LMRoman10"><tspan y="-203.74701" x="85.94183 93.81821 98.094577 102.94913 109.01459 112.04732 118.11278 121.14551 129.6328 133.57099 142.65827 148.72373 154.17827 157.211 161.48737 170.57465 175.4292 181.18921 189.07649 193.32013 198.77468 206.7056 212.77106 217.62561 220.65834 223.69107 229.75653 234.61109 244.32019 247.35292 257.05113 263.11659 267.97114 272.82569 277.06935 280.10206 285.5566">CredibleImpairment(asdefinedinSection</tspan></text>
<text xml:space="preserve" transform="matrix(1 0 -0 1 0 792)" font-size="10.9091" font-family="LMRoman10"><tspan y="-203.74701" x="295.2548 300.70936 303.74208 309.19664">4.20</tspan></text>
<text xml:space="preserve" transform="matrix(1 0 -0 1 0 792)" font-size="10.9091" font-family="LMRoman10"><tspan y="-203.74701" x="314.65119 322.53849 328.60395 332.8803 337.73487 343.18943 348.04399 353.804 358.04765 361.08036 367.1458 376.2331 380.50947 385.364 388.39674 391.42945 396.884 402.94947 405.98219 414.48039 418.77857 423.63313 427.8986 433.6586 436.6913 441.54588">)preventingreliableservice</tspan></text>
<text xml:space="preserve" transform="matrix(1 0 -0 1 0 792)" font-size="10.9091" font-family="LMRoman10"><tspan y="-181.43102" x="72">&#x2022;</tspan></text>
<text xml:space="preserve" transform="matrix(1 0 -0 1 0 792)" font-size="10.9091" font-family="LMRoman10"><tspan y="-181.43102" x="85.94183 90.79639 96.25094 102.3164 107.170948 112.0255 117.48005 120.51278 129.60007 134.45462 140.21463 148.091 153.54555 160.52738 169.61466 179.6183 185.07285 189.31649 194.17104 198.4474 201.48014 206.93468 213.60015 220.72379 223.75652 229.82198 235.27652 241.34198 246.19654 249.22927 254.6838 261.36018 265.29835 271.05836 275.302 280.15657 284.43293 289.28749 293.58567 301.46205 305.7057 311.16026 319.10209 325.16755 330.0221 333.0548 336.08757 342.153 347.00758 356.70576 359.73847 369.43666 375.5021 380.35667 385.2112 389.45487 392.48759 397.94215">concealmentofaMaterialFinancialInterest(asdefinedinSection</tspan></text>
<text xml:space="preserve" transform="matrix(1 0 -0 1 0 792)" font-size="10.9091" font-family="LMRoman10"><tspan y="-181.43102" x="407.65126 413.1058 416.13853 421.59309">4.21</tspan></text>
<text xml:space="preserve" transform="matrix(1 0 -0 1 0 792)" font-size="10.9091" font-family="LMRoman10"><tspan y="-181.43102" x="427.04765">)</tspan><tspan y="-155.12902" x="72 75.93819 82.9091 87.15274 93.2182 101.71639 107.78185 112.02549 116.880039 124.45095 129.9055 134.18187 140.24733 144.54552 150.61098 153.6437 163.3419 167.61827 173.07282 176.10555 184.60375 187.63648 195.5674 200.71649 206.17104 211.02559 216.48014 222.25106 230.12743 235.58197 243.45835 247.70198 253.76744 262.26564 266.50929 269.542 278.62928 287.11656 296.20384 302.2693 307.72386 312.27296 318.03297 322.34205 326.5857 332.04026 341.73844 345.07664 351.1421 357.20756 362.0621 366.30577 369.33848 374.79304 384.4912 387.52394 395.46577 399.7094 403.98579 407.0185 412.47306 417.9276 422.78218 427.05854 431.9131 437.97856">IftheStewardshiproleisvacantatthetimeabackstopfunctionistriggered:</tspan></text>
<text xml:space="preserve" transform="matrix(1 0 -0 1 0 792)" font-size="10.9091" font-family="LMRoman10"><tspan y="-128.82802" x="72">&#x2022;</tspan></text>
<text xml:space="preserve" transform="matrix(.9899495 0 -0 1.0101526 0 792)" font-size="10.799458" font-family="LMRoman10"><tspan y="-127.5332" x="86.81251 91.0135 97.018 104.9124 113.38998 118.476528 123.87625 128.682 132.9154 138.9199 141.92215 147.92665 156.41503 164.06104 169.76316 175.76766 184.55841 193.24117 199.24567 203.50066 210.79029 216.19002 222.19452 228.5122 233.91193 236.91419 242.6055 249.89513 255.29486 264.388 267.39027 273.0816 277.28257 282.08833 286.3217 289.32395 301.40858 307.41307 311.61405 316.41978 323.9146 329.31434 333.5369 342.63008 350.42729 353.42955 357.6305 363.635 366.63725 375.7304 379.03504 384.43479 390.43928 394.67265 398.87364 403.67939 408.4851 417.57829 421.77928 427.179 432.5787 439.8575 445.86204 450.95936 456.66148 464.00514 469.69645 478.4872 484.49174 490.49623 496.8139 501.61967 505.84223 514.8382 520.5511 523.8557 529.25546 533.4889 536.4911 540.37887">theGoverningBodymustappointaninterimStewardwithinfourteen(14)daysbySupermajority</tspan></text>
<text xml:space="preserve" transform="matrix(1 0 -0 1 0 792)" font-size="10.9091" font-family="LMRoman10"><tspan y="-115.279" x="85.656 91.11054 96.565097 100.80873 105.663288">vote,</tspan></text>
<text xml:space="preserve" transform="matrix(1 0 -0 1 0 792)" font-size="10.9091" font-family="LMRoman10"><tspan y="-92.962" x="72">&#x2022;</tspan></text>
<text xml:space="preserve" transform="matrix(1.0099504 0 -0 .99014756 0 792)" font-size="11.017651" font-family="LMRoman10"><tspan y="-93.88702" x="85.09329 91.21911 97.04744 101.333309 104.39622 111.19411 115.53506 121.66087 126.26624 136.12705 141.63588 147.76169 154.18498 159.6938 162.75672 168.58506 172.87091 182.04863 186.95148 192.7688 197.05466 203.88559 208.17147 214.29727 222.93512 229.06093 234.56977 239.17516 244.99246 249.33344 253.61931 259.1281 268.98893 272.36033 278.4861 284.61195 289.51478 293.80067 296.86357 302.37239 312.2332 315.29609 323.37205 329.49787 334.4007 337.46363 347.3244 350.38734 360.24815 365.75694 372.19123 377.08305 382.6029 388.11174 394.23753 399.14039 407.7782 413.90403 420.02986 423.09275 427.99559 432.33656 440.4125 443.4754 452.6531 461.83079 466.73365 472.85945 475.92237 481.43116 485.71705 494.3549 499.86369 504.76655 509.0524 512.1153 517.62417 527.485 530.54788">untilsuchappointment,thebackstopfunctionisheldinabeyanceunlessimmediateactionis</tspan><tspan y="-80.2032" x="85.09329 89.41221 94.31506 100.132389 106.258197 109.321109 113.64002 118.54287 129.03168 133.31755 143.18936 149.31517 153.6341 158.53696 164.04576 168.94863 174.77696 183.42581 186.48873 190.80765 195.12656 200.02942 205.54927 210.45212 214.77104 219.112 222.17491 228.30072 231.36363 240.62947 246.7553 252.26412 256.58305 265.76075 273.37394 276.43687 286.92567 294.8804 301.00624 304.06913 308.66349 319.15229 324.0551 329.56394 333.9049 343.17076 353.04255 362.22026 368.02653 371.39793 376.90675 381.22569 384.28858 388.27699 398.45729 403.9661 411.70048 415.98637 422.11219 431.378 440.02687 445.2382 450.74705 455.64988 459.9688 466.09465 469.15754 475.28337 485.15516 492.95567 498.76197 504.8988 515.06808 524.2458 529.45718">requiredtopreventirreversibleharm,inwhichcaseamajorityoftheGoverningBodymay</tspan></text>
<text xml:space="preserve" transform="matrix(1 0 -0 1 0 792)" font-size="10.9091" font-family="LMRoman10"><tspan y="-42.112" x="303.273">8</tspan></text>
</svg>
