<svg xmlns="http://www.w3.org/2000/svg" xmlns:xlink="http://www.w3.org/1999/xlink" xmlns:inkscape="http://www.inkscape.org/namespaces/inkscape" version="1.1" width="612" height="792" viewBox="0 0 612 792">
<text xml:space="preserve" transform="matrix(1 0 -0 1 0 792)" font-size="10.9091" font-family="LMRoman10"><tspan y="-709.041" x="72">&#x2022;</tspan></text>
<text xml:space="preserve" transform="matrix(1 0 -0 1 0 792)" font-size="10.9091" font-family="LMRoman10"><tspan y="-709.041" x="85.94183 90.18547 96.25093 104.73821 110.192768 115.04732 119.290958 124.74551 132.66553 135.69826 141.45827 146.91283 152.36737 158.12738 161.16011 167.22557 176.31285 181.1674 190.25469 195.10924 199.3856 204.84015 209.6947 215.76016 220.61472 230.01837 235.47292 241.53838 245.78202 251.84748 257.30204 261.5784 264.6111 268.54933">theactorinvokingemergencyauthority</tspan></text>
<text xml:space="preserve" transform="matrix(1 0 -0 1 0 792)" font-size="10.9091" font-family="LMRoman10"><tspan y="-686.72506" x="72">&#x2022;</tspan></text>
<text xml:space="preserve" transform="matrix(1 0 -0 1 0 792)" font-size="10.9091" font-family="LMRoman10"><tspan y="-686.72506" x="85.94183 90.18547 96.25093 104.73821 108.98185 113.25822 116.29095 121.7455 127.20005 132.0546 136.33097 139.3637 145.42916 154.52735 159.37099 164.82553 170.9019 176.96736 180.00009 184.24373 187.27646 192.731 198.79647">thetriggeringconditions</tspan></text>
<text xml:space="preserve" transform="matrix(1 0 -0 1 0 792)" font-size="10.9091" font-family="LMRoman10"><tspan y="-664.408" x="72">&#x2022;</tspan></text>
<text xml:space="preserve" transform="matrix(1 0 -0 1 0 792)" font-size="10.9091" font-family="LMRoman10"><tspan y="-664.408" x="85.94183 90.18547 96.25093 104.73821 109.0364 113.890949 119.3455 125.716419 134.2037 139.65825 145.72371 155.43282 160.28737 169.37465 174.2292 178.50557 183.96012 188.81467 194.88013 199.73468 209.12743 215.19289 219.46926 225.22925 230.0838 234.93836 241.00382 247.06928 251.34564 259.83293 262.86564 268.62565 274.0911 279.54566 285.0002 289.85478">thescopeandemergencyprocedureinvoked</tspan></text>
<text xml:space="preserve" transform="matrix(.9899495 0 -0 1.0101526 0 792)" font-size="10.799458" font-family="LMRoman10"><tspan y="-631.69369" x="72.322879 80.42247 83.42472 89.51562 98.51156 101.51381 105.76879 110.02378 113.026027 119.030529 127.5189 132.31385 135.3161 140.12186 149.11782 153.92357 159.62569 163.82668 171.1703 179.85306 185.86837 190.12334 197.40218 203.71987 211.60347 216.40923 221.80896 230.8049 236.8094 239.81165 244.61742 248.8184 253.62416 262.71733 270.51454 273.51679 277.71775 283.72227 286.72453 295.81767 300.01866 306.02314 313.91755 318.11854 321.11 330.10597 338.00035 341.0026 344.00486 353.00083 356.00306 360.20405 367.54768 371.78105 376.5868 382.2889 388.29344 391.29566 395.52903 400.33479 409.4171 415.11924 423.91 428.111 434.11549 442.0099 447.4096 453.41413 459.4186 462.42088 465.42314 470.22889 475.6286 481.6331 484.63536 492.51893 497.91868 504.23634 509.04209 513.27548 518.6752 522.87619 525.87838 531.27816 537.2826 542.6823">Allmissingelementsmustbecompletedwithinthetimelimitsrequiredbytheapplicableoperational</tspan></text>
<text xml:space="preserve" transform="matrix(1 0 -0 1 0 792)" font-size="10.9091" font-family="LMRoman10"><tspan y="-624.558" x="72 81.08728 86.54183 92.301837 98.367298 103.821849 110.498218 115.35277 124.44005 129.2946 133.56006 139.0146 143.86916 149.93462 154.78917 164.19283 170.25829 174.53466 180.29465 185.1492 189.99285 196.06922 202.13468 206.41104 211.25469">manualemergencyprocedure.</tspan><tspan y="-604.234" x="72 82.00365 88.06911 92.312747 97.767299 103.832759 106.865489 109.89822 112.93095 116.869129 122.62913 130.5164 138.69823 144.76369 149.31279 155.37825 160.8328 166.89826 172.3528 177.20735 182.6619 188.72736 191.76009">Mutability:Unchangeable</tspan></text>
<text xml:space="preserve" transform="matrix(1 0 -0 1 0 792)" font-size="11.9552" font-family="LMRoman12" font-weight="bold"><tspan y="-575.025" x="72 78.73078 82.47276 89.203548">4.12</tspan></text>
<text xml:space="preserve" transform="matrix(1 0 -0 1 0 792)" font-size="11.9552" font-family="LMRoman12" font-weight="bold"><tspan y="-575.025" x="106.02451 115.58868 122.31946 129.79146 137.26346 144.73546 150.86847 162.82367 173.12906 176.87104 182.17914 188.15674 193.65613 199.78914 205.02552 208.76749 215.49826">BoundedDiscretion</tspan></text>
<text xml:space="preserve" transform="matrix(.997998 0 -0 1.002006 0 792)" font-size="10.8872599" font-family="LMRoman10"><tspan y="-553.322" x="72.14444 79.852619 85.29625 91.34956 97.402889 103.4562 108.301029 118.01247 126.33033 129.35698 133.64656 138.4914 142.7592 147.60402 151.83917 154.86583 160.30947 170.01001 173.03667 180.98438 185.21953 191.27285 199.7649 208.83399 211.86064 217.91397 220.94063 229.70488 235.76908 248.4854 254.53871 260.59205 265.73085 271.17448 276.6181 279.64476 285.6981 291.14173 297.19505 300.22169 308.72465 312.05616 318.10948 324.16279 329.6064 338.6755 343.52037 349.26884 357.16209 362.00694 367.7554 372.60026 376.86805 381.71287 384.73954 389.0291 393.87397 403.57453 407.80964 416.9114 422.35505 428.40837 434.46168 437.4883 446.88404 455.98579 460.25358 466.3069 469.33357 477.82563 485.6971 491.75044 497.19407 501.48368 509.97575 514.2109 518.4787 521.5053 526.949 532.3926 537.2374">BoundedDiscretionistheminimumunavoidablejudgmentexercisedtoapplyarulewhosetrigger</tspan></text>
<text xml:space="preserve" transform="matrix(1 0 -0 1 0 792)" font-size="10.9091" font-family="LMRoman10"><tspan y="-540.883" x="72 77.45455 85.36365 89.661838 94.51639 99.97094 106.34186 114.82914 119.683689 125.13824 131.20369 137.26915 142.7237 150.61098 156.98189 165.46918 170.32373 176.08374 180.9383 185.79285 191.8583 196.10195 200.9565 210.6547 219.74198 224.59653 229.14563 235.21109 240.66564 246.7311 249.76383 254.61838 260.07295 263.10566 266.13838 270.99293">orscopecannotbeexecutedmechanically.</tspan><tspan y="-520.559" x="72 79.72364 85.17819 91.24365 97.30911 103.37457 108.229129 117.927318 126.26187 129.2946 133.59279 138.44734 142.72371 147.57826 151.8219 154.85463 160.30918 170.01828 173.05101 180.98194 187.35285 192.2074 196.48377 205.57105 208.60378 212.84741 217.09105 221.9456 231.6438 237.09835 243.1638 246.19654 255.58928 258.622 261.9711">BoundedDiscretionispermittedonlyif:</tspan></text>
<text xml:space="preserve" transform="matrix(1 0 -0 1 0 792)" font-size="10.9091" font-family="LMRoman10"><tspan y="-494.25804" x="72">&#x2022;</tspan></text>
<text xml:space="preserve" transform="matrix(1 0 -0 1 0 792)" font-size="10.9091" font-family="LMRoman10"><tspan y="-494.25804" x="85.94183 90.18547 96.25093 104.73821 108.98185 113.25822 116.29095 121.7455 127.20005 132.0546 136.33097 139.3637 145.42916 154.52735 158.82553 163.06917 168.52371 174.58917 180.65464 186.10918 190.38555 200.08374 204.9383 210.39284 216.4583 222.52376 227.9783 235.85468 242.22559 250.72379 256.17835 262.2438 268.30928 271.34199 274.3747 279.22926 288.92744 294.9929 299.29109 302.3238 308.38926 317.47654 322.9311 329.302 332.6402 337.49476 342.3493 346.59297 349.62568 355.08024 363.57844 368.43299 372.70936 375.74208 379.98573 384.82939 389.10575 392.13847 401.23667 406.69123 409.72395 415.1785 421.24397 426.0985">thetriggeringstandardcannotbeappliedusingobjectivecriteriaalone,</tspan></text>
<text xml:space="preserve" transform="matrix(1 0 -0 1 0 792)" font-size="10.9091" font-family="LMRoman10"><tspan y="-471.94105" x="72">&#x2022;</tspan></text>
<text xml:space="preserve" transform="matrix(1 0 -0 1 0 792)" font-size="10.9091" font-family="LMRoman10"><tspan y="-471.94105" x="85.94183 90.18547 96.25093 104.73821 110.192768 115.04732 119.290958 124.74551 132.66553 138.73099 144.48007 149.33463 155.40009 164.48737 169.34192 175.11284 179.35648 187.2874 191.53104 197.5965 206.08379 212.14925 217.60379 221.90198 224.93471 232.87654 236.21472 241.66927 249.57837 253.822 259.88746 268.37474 271.72383 277.78929 283.85475 289.3093 298.39659 303.25114 309.01115 316.8875 321.74208 327.19664 332.95664 337.2003 342.05485 351.14213 357.51304 362.9676 367.24397 372.69853 378.76399 383.61854 389.0731 395.13856 399.43675 402.46946 407.324">theactordocumentsthebasisforthejudgmentcontemporaneously,</tspan></text>
<text xml:space="preserve" transform="matrix(1 0 -0 1 0 792)" font-size="10.9091" font-family="LMRoman10"><tspan y="-449.62504" x="72">&#x2022;</tspan></text>
<text xml:space="preserve" transform="matrix(1 0 -0 1 0 792)" font-size="10.9091" font-family="LMRoman10"><tspan y="-449.62504" x="85.94183 90.18547 96.25093 104.73821 108.0764 114.14186 120.20732 125.66187 134.74915 139.6037 145.37462 153.25099 156.28372 164.21465 167.24738 170.2801 179.36739 182.40012 186.64376 191.4983 201.1965 205.44014 214.52742 218.77106 224.83652 233.3238 239.38927 244.84381 249.12018 253.39655 258.54566 266.12748 270.98204 275.2802 283.1566 287.45478 292.30934 297.7639 304.1348 312.62208 317.47663 322.93119 328.99665 333.29484 336.32756 340.62574 344.8694 349.72395 355.48396 363.36033 371.2367 374.2694 378.51307 388.21125 394.2767 398.55308 403.40763 408.86219 413.71675 419.48765 423.7313 426.764 432.82948 441.91676 447.9822 453.43678 457.71315 470.43315 475.8877 483.79679 492.88407 497.73863 502.59318 506.83683 509.86955 515.935 525.0223 529.2659 535.33139">thejudgmentislimitedtothenarrowestscopeconsistentwithpreventingharmormeetingthe</tspan><tspan y="-436.07603" x="85.94 92.00546 98.07092 102.0091 106.86365 113.529109 118.98366 125.04912">duty,and</tspan></text>
<text xml:space="preserve" transform="matrix(1 0 -0 1 0 792)" font-size="10.9091" font-family="LMRoman10"><tspan y="-413.76" x="72">&#x2022;</tspan></text>
<text xml:space="preserve" transform="matrix(1.0099504 0 -0 .99014756 0 792)" font-size="11.017651" font-family="LMRoman10"><tspan y="-417.87715" x="85.09329 89.37916 95.504978 104.1318 109.64062 114.543468 118.82934 121.89224 127.40107 137.25086 141.56977 146.47263 155.65033 161.15917 164.22206 170.34789 178.42383 181.79524 187.92105 190.98397 194.04686 203.58814 207.92911 214.05492 220.4782 223.84961 228.75247 233.65532 241.66515 245.951 255.19481 258.25773 263.76655 269.27537 274.78416 277.84709 283.97288 289.4817 296.30165 300.62055 305.5234 311.34074 314.40364 319.3065 327.26124 334.08116 339.58998 345.7158 355.56556 360.4684 363.5313 369.04014 373.3811 377.72206 380.78495 383.84785 386.91078 391.81364 397.32243 401.6083 404.6712 410.18003 420.02983 424.34873 429.2516 435.0689 441.19474 444.25764 448.57658 453.4794 462.6571 467.55995 473.38829 477.67414 485.73908 491.86488 497.9907 504.11653 509.01936 517.06228 521.3481 527.4739 530.5368">theactionremainsfullysubjecttologging,review,andclassificationrequirementsunderthis</tspan></text>
<text xml:space="preserve" transform="matrix(1 0 -0 1 0 792)" font-size="10.9091" font-family="LMRoman10"><tspan y="-400.21" x="85.94 92.00546 97.76547 102.620029 108.685489 117.772769 122.62732 128.38733 132.63097">document.</tspan><tspan y="-373.909" x="72 79.72364 85.17819 91.24365 97.30911 103.37457 108.229129 117.927318 126.26187 129.2946 133.59279 138.44734 142.72371 147.57826 151.8219 154.85463 160.30918 170.01828 178.80011 184.86557 189.16376 197.04013 203.10559 208.56014 216.44742 222.81833 231.30562 237.37108 241.66927 246.52382 256.22203 260.46568 265.92024">BoundedDiscretionmustnotbeusedto:</tspan></text>
<text xml:space="preserve" transform="matrix(1 0 -0 1 0 792)" font-size="10.9091" font-family="LMRoman10"><tspan y="-347.608" x="72">&#x2022;</tspan></text>
<text xml:space="preserve" transform="matrix(1 0 -0 1 0 792)" font-size="10.9091" font-family="LMRoman10"><tspan y="-347.608" x="85.94183 90.79639 96.55639 102.62185 108.0764 114.14186 123.84005 129.2946 135.36006 139.6037 145.68007 151.13462 155.40007 158.4328 162.3819 171.77465 178.14556 183.0001 188.45467 193.90921 199.97467 209.67287 217.54924 223.6147 229.06925 236.95653 239.98926 247.92018 252.77474 258.53474 264.6002 267.6329 270.66563 275.52018 278.5529 282.79655 285.82926 295.222 300.67655 304.9529 310.40748 316.17839 320.42204 325.27659 331.34205">expandauthoritybeyondwhatisexplicitlygranted,</tspan></text>
<text xml:space="preserve" transform="matrix(1 0 -0 1 0 792)" font-size="10.9091" font-family="LMRoman10"><tspan y="-325.29103" x="72">&#x2022;</tspan></text>
<text xml:space="preserve" transform="matrix(1 0 -0 1 0 792)" font-size="10.9091" font-family="LMRoman10"><tspan y="-325.29103" x="85.94183 91.701839 97.46184 103.5273 108.98185 113.28004 121.22186 125.49823 130.35279 136.1128 142.17826 145.21099 149.48735 154.3419 164.0401 169.49466 174.9492 179.19284 184.0474 188.34558 195.02196 199.28742 204.14197 208.99652 215.06198 219.36017 224.81472 227.84745 232.15654 238.822 244.27655 252.18566 257.94566 264.0111 269.46568 273.74205 279.8075 292.53843 296.8366 302.29118 305.62937 310.48393 315.93849 322.00395 327.4585 331.73487 337.80033 342.0985">bypassrequiredvotes,recusals,orquorumsafeguards,</tspan></text>
<text xml:space="preserve" transform="matrix(1 0 -0 1 0 792)" font-size="10.9091" font-family="LMRoman10"><tspan y="-302.975" x="72">&#x2022;</tspan></text>
<text xml:space="preserve" transform="matrix(1 0 -0 1 0 792)" font-size="10.9091" font-family="LMRoman10"><tspan y="-302.975" x="85.94183 90.79639 95.072757 99.92731 105.38186 109.625499 118.11277 124.17823 128.45459 133.30915 138.1637 143.01825 149.08371 153.93827 159.69828 167.58556 173.94556 178.80011 184.26558 189.72013 195.78559 205.48378 209.72742 215.79288 224.28017 228.57836 234.94927 239.80382 244.65837 247.6911 250.72383 253.75656 262.24385 265.59294 271.0475 275.89115 280.1348 288.07664 294.1421 299.9021 304.75666 310.8221 319.9094 324.76396 330.52397 334.7676 339.62217 349.32035 352.35307 362.06217 366.30583 372.37129 380.85856 385.13493 389.98948 394.84403 400.29859 404.57496 410.6404">createprecedentbeyondthespecificfactsdocumentedintherecord.</tspan><tspan y="-276.674" x="72 82.00365 88.06911 92.312747 97.767299 103.832759 106.865489 109.89822 112.93095 116.869129 122.62913 130.5164 138.69823 144.76369 149.31279 155.37825 160.8328 166.89826 172.3528 177.20735 182.6619 188.72736 191.76009">Mutability:Unchangeable</tspan></text>
<text xml:space="preserve" transform="matrix(1 0 -0 1 0 792)" font-size="11.9552" font-family="LMRoman12" font-weight="bold"><tspan y="-247.46501" x="72 78.73078 82.47276 89.203548">4.13</tspan></text>
<text xml:space="preserve" transform="matrix(1 0 -0 1 0 792)" font-size="11.9552" font-family="LMRoman12" font-weight="bold"><tspan y="-247.46501" x="106.02451 116.054927 122.785709 130.2577 135.49408 139.23606 146.70806 152.84107 161.06624 171.09665 177.22966 183.96045 190.09346 195.59285 200.90096 204.64293 212.11493 215.8569 221.98992 230.21509 236.75458 244.22658 256.1818 266.21223 272.943 276.68498 282.818 287.3012 294.7732 300.7508 307.48158 315.32417 321.45719">Routine,Reversible,andRole-Scoped</tspan></text>
<text xml:space="preserve" transform="matrix(1 0 -0 1 0 792)" font-size="10.9091" font-family="LMRoman10"><tspan y="-226.87201" x="72 78.218189 83.67274 91.58183 97.64729 103.71275 107.98912 114.36004 119.81459 124.11278 128.96733 136.89826 142.3528 149.33463 153.57826 159.64373 162.67646 170.60738 176.67284 182.43283 187.28739 193.35285 202.44013 207.29468 213.05469 220.93106 226.3856 232.45107 242.16017 246.40381 252.46927 260.95655 269.44383 275.81474 280.66929 284.94566 290.4002 294.64387 297.67658 303.13114 309.1966 314.65116 321.3166 331.32023 336.77479 342.5348 348.61116 354.0657 357.09843 361.3966">ForpurposesofthisdocumentandtheOperationalManuals:</tspan></text>
<text xml:space="preserve" transform="matrix(1 0 -0 1 0 792)" font-size="10.9091" font-family="LMRoman10"><tspan y="-200.57" x="72">&#x2022;</tspan></text>
<text xml:space="preserve" transform="matrix(.9924717 0 -0 1.0075854 0 792)" font-size="10.826972" font-family="LMRoman10" font-weight="bold"><tspan y="-199.06006" x="86.591899 95.93557 102.16108 109.07951 113.919178 117.37298 124.291408">Routine</tspan></text>
<text xml:space="preserve" transform="matrix(.9924717 0 -0 1.0075854 0 792)" font-size="10.826972" font-family="LMRoman10"><tspan y="-199.06006" x="133.65676 142.67563 147.49364 152.90712 158.92691 166.85227 172.26575 181.93422 187.3477 192.16571 196.37741 199.38732 204.8008 214.4801 218.6918 224.7116 230.12508 237.99629 241.0062 248.93157 253.73874 259.76939 264.0352 268.2469 273.6604 282.67924 288.09275 292.3369 301.70225 305.0153 310.4288 318.3325 322.5442 328.564 337.0415 341.28569 346.69917 349.70909 354.52708 361.18568 364.19557 369.3059 377.123 380.7284 385.5464 390.9599 399.97877 405.99858 409.00846 413.82649 419.54313 422.553 426.46159 431.25794 437.92735 443.34086 449.36067 459.03996 465.05976 470.77644 475.59443 483.51976 489.53956 494.95307 502.82426 507.64228 511.88645 516.7044 522.1179 526.3296 534.7963 540.2098">meansanactionthatiscustomaryfortherole,low-complexity,anddoesnotcreateor</tspan></text>
<text xml:space="preserve" transform="matrix(1 0 -0 1 0 792)" font-size="10.9091" font-family="LMRoman10"><tspan y="-187.021" x="85.94 95.02728 100.78729 106.85275 109.88548 113.22367 122.6164 126.89277 129.92549 135.38004 141.14005 145.38368 149.68187 156.35825 160.63462 165.48917 169.78736 174.03099 178.30736 181.34009 186.19464 190.43828 193.47101 198.92555 204.99102 209.2892 215.95467 221.40921 229.31832 234.77286 239.92195 245.38742 250.24198 254.51834 260.5838 266.03837 272.10383 276.95838 285.44566 290.9002 293.93293 296.96565 302.72566 307.5802 313.03477 317.2784 320.31114 325.7657 331.83116 336.12934">modifyrights,restrictions,orgovernanceallocations.</tspan></text>
<text xml:space="preserve" transform="matrix(1 0 -0 1 0 792)" font-size="10.9091" font-family="LMRoman10"><tspan y="-164.705" x="72">&#x2022;</tspan></text>
<text xml:space="preserve" transform="matrix(1.0089599 0 -0 .9911197 0 792)" font-size="11.006844" font-family="LMRoman10" font-weight="bold"><tspan y="-166.18074" x="85.17683 94.675739 100.47634 106.816287 112.61689 117.83414 122.83124 126.34242 133.3758 136.887">Reversible</tspan></text>
<text xml:space="preserve" transform="matrix(1.0089599 0 -0 .9911197 0 792)" font-size="11.006844" font-family="LMRoman10"><tspan y="-166.18074" x="146.27584 155.44454 160.34258 165.846 171.9658 179.90174 184.18338 190.30319 198.80046 204.3039 209.20194 213.4836 216.5435 222.04692 231.75496 236.653 242.15642 251.87546 258.29246 266.78974 272.90956 279.0294 285.1492 290.65263 296.77244 305.26976 310.77317 318.68708 323.00178 327.8888 332.17048 338.3013 342.61598 348.73579 353.63383 363.3419 367.62358 376.72624 381.0079 387.12773 395.625 401.74485 406.0595 409.11943 414.62284 422.52577 428.64558 434.149 438.4857 443.38374 446.4436 449.5035 455.62333 464.1206 472.06758 475.12748 479.40916 485.52897 491.03239 497.1522 505.03315 509.3478 514.24588 520.0575 526.1773 529.23727 533.5519">meanstheactioncanbeundoneorreturnedtothepriorbaselinewithoutrequir-</tspan></text>
<text xml:space="preserve" transform="matrix(1.0099504 0 -0 .99014756 0 792)" font-size="11.017651" font-family="LMRoman10"><tspan y="-152.66008" x="85.09329 88.1562 94.28201 103.93348 109.44231 114.653659 120.16248 125.06534 129.38425 135.51007 141.01889 147.14472 152.04758 161.09307 166.6019 172.7277 178.85352 183.17244 188.38379 193.60616 199.11498 202.17789 209.51564 217.4704 220.5333 224.81917 230.94498 236.4538 242.57962 251.00812 260.1858 265.6946 269.9805 274.88334 279.19126 282.25416 287.76298 294.9685 299.87138 305.3802 309.72114 314.00703 321.34477 326.85359 332.9794 343.24787 351.2026 354.2655 358.5514 364.6772 370.186 376.31184 384.74037 389.6432 393.96214 398.86497 404.37379 408.65968 411.72257 417.8484 427.49986 433.00868 439.13447 444.64329 450.1521 453.215 459.34083 468.99229 474.5011 480.62693 483.68983 486.75273 492.26155 497.77037 502.0562 505.11915 510.628 516.7538 525.23739 530.7462">inggovernanceapproval,withoutmaterialcost,andwithoutcreatingongoingobligationsor</tspan></text>
<text xml:space="preserve" transform="matrix(1 0 -0 1 0 792)" font-size="10.9091" font-family="LMRoman10"><tspan y="-137.606" x="85.94 88.97273 93.2491 97.52547 102.38002 107.834568 112.68912 116.965488 121.26367 124.2964 130.36186 133.39459 141.88188 146.15825 151.0128 154.04553 157.07826 162.5328 168.59827 173.45282 178.30738">irreversiblereliance.</tspan></text>
<text xml:space="preserve" transform="matrix(1 0 -0 1 0 792)" font-size="10.9091" font-family="LMRoman10"><tspan y="-115.29" x="72">&#x2022;</tspan></text>
<text xml:space="preserve" transform="matrix(.9899495 0 -0 1.0101526 0 792)" font-size="10.799458" font-family="LMRoman10" font-weight="bold"><tspan y="-114.13127" x="86.81251 96.13244 102.342128 105.78715 111.47847 115.61466 122.51551 128.03403 134.24373 141.50096 147.19226">Role-Scoped</tspan></text>
<text xml:space="preserve" transform="matrix(.9899495 0 -0 1.0101526 0 792)" font-size="10.799458" font-family="LMRoman10"><tspan y="-114.13127" x="157.21416 166.21012 171.01587 176.4156 182.4201 189.80693 194.00792 200.01242 207.95003 213.34976 218.15552 222.3565 225.35877 230.75849 239.88404 243.19948 248.5884 251.59066 254.5929 261.97975 269.77696 272.7792 276.9802 282.98469 285.98695 295.1233 303.65486 311.45207 315.68544 318.68769 322.88868 327.08964 331.8954 341.0209 345.25428 350.65403 353.65626 361.59388 367.59837 372.4041 376.6591 381.46485 385.6982 388.70048 394.70497 398.90596 401.90818 407.30793 413.3124 419.5545 423.78788 429.1876 432.18986 440.11665 444.62 450.62449 456.0242 460.2576 464.45857 469.2643 473.49769 479.73979 485.1395 492.4939 497.89363 504.2113 509.01707 513.2504 518.65017 522.85116 525.8425 531.2423 537.25759 542.6573">meanstheactionfallswithinawrittenroledescription,rolecharter,oroperational</tspan></text>
<text xml:space="preserve" transform="matrix(1 0 -0 1 0 792)" font-size="10.9091" font-family="LMRoman10"><tspan y="-101.741" x="85.94 92.00546 96.860019 99.892749 104.7473 110.20185 115.6564 119.90004 122.93277 128.38732 138.08551 142.36188 147.21643 152.07099 157.52553 161.8019 171.50009 175.74373 181.8201 187.27465 195.15102 198.18375 206.11467 215.20195 220.6565 223.68923 229.44924 233.69287 239.14742 242.18015 248.2456 253.10016 262.80928 268.26383 274.32929 284.02748 288.30384 293.1584 298.9184 301.9511 306.80567 314.3766 319.83116 325.8966 328.92933 333.78388">delegationrecordthatismaintainedandreviewable.</tspan><tspan y="-75.438999" x="72 82.00365 88.06911 92.312747 97.767299 103.832759 106.865489 109.89822 112.93095 116.869129 122.62913 130.5164 138.69823 144.76369 149.31279 155.37825 160.8328 166.89826 172.3528 177.20735 182.6619 188.72736 191.76009">Mutability:Unchangeable</tspan></text>
<text xml:space="preserve" transform="matrix(1 0 -0 1 0 792)" font-size="10.9091" font-family="LMRoman10"><tspan y="-42.111997" x="300.54499 305.99955">12</tspan></text>
</svg>
